<svg xmlns="http://www.w3.org/2000/svg" viewBox="0 0 463.72 136.74"><defs><style>.cls-1{fill:#7fc9e4;}.cls-2{fill:#0093c9;}.cls-3{fill:#fff;}.cls-4{fill:#595a5c;}.cls-5{fill:none;stroke:#595a5c;stroke-miterlimit:10;}</style></defs><title>6206_9.Rash_grades_r2_RAS_CVA</title><g id="Layer_2" data-name="Layer 2"><g id="Layer_1-2" data-name="Layer 1"><rect class="cls-1" x="386.64" width="69.69" height="91.6"/><rect class="cls-2" x="7.04" width="377.31" height="91.6"/><path class="cls-3" d="M397.9,42.09a3.8,3.8,0,0,1-2.9-1.2,4.5,4.5,0,0,1-1.12-3.21v-.11A4.52,4.52,0,0,1,395,34.4a3.78,3.78,0,0,1,2.92-1.25,4.27,4.27,0,0,1,2.84,1l-1.07,1.4a2.6,2.6,0,0,0-1.8-.75,1.93,1.93,0,0,0-1.57.77,3,3,0,0,0-.62,2v.1a3.06,3.06,0,0,0,.63,2,2,2,0,0,0,1.63.75,2.15,2.15,0,0,0,1.29-.36V38.55H397.7V37H401v4A5.06,5.06,0,0,1,397.9,42.09Z"/><path class="cls-3" d="M402.53,42V35.31h1.76v1.18a1.76,1.76,0,0,1,1.8-1.29v1.91H406a1.6,1.6,0,0,0-1.28.52,2.31,2.31,0,0,0-.45,1.55V42Z"/><path class="cls-3" d="M409.07,42.09a1.9,1.9,0,0,1-2-2V40a2,2,0,0,1,.63-1.59,2.53,2.53,0,0,1,1.7-.53,3.77,3.77,0,0,1,1.39.27v-.2a1.11,1.11,0,0,0-.33-.87,1.33,1.33,0,0,0-.93-.3,4,4,0,0,0-1.53.37l-.48-1.38a5,5,0,0,1,2.27-.53,2.4,2.4,0,0,1,2.71,2.7v4h-1.73v-.72A2.06,2.06,0,0,1,409.07,42.09Zm.58-1.29a1.22,1.22,0,0,0,.84-.27.93.93,0,0,0,.34-.75v-.56a2.27,2.27,0,0,0-1-.21,1.14,1.14,0,0,0-.78.24.86.86,0,0,0-.28.69v0a.78.78,0,0,0,.23.61A.94.94,0,0,0,409.65,40.8Z"/><path class="cls-3" d="M416.27,42.09a2.27,2.27,0,0,1-1.8-.87,3.75,3.75,0,0,1-.73-2.48v-.2a3.75,3.75,0,0,1,.73-2.48,2.27,2.27,0,0,1,1.8-.87,2.23,2.23,0,0,1,1.8,1V33h1.76v9h-1.76v-.92A2.13,2.13,0,0,1,416.27,42.09Zm-.4-2a1.1,1.1,0,0,0,.93.51,1.12,1.12,0,0,0,.93-.51,2.22,2.22,0,0,0,.37-1.34v-.12a2.22,2.22,0,0,0-.37-1.34,1.12,1.12,0,0,0-.93-.51,1.1,1.1,0,0,0-.93.51,2.25,2.25,0,0,0-.37,1.34v.13A2.25,2.25,0,0,0,415.87,40Z"/><path class="cls-3" d="M424.26,42.12a2.94,2.94,0,0,1-2.23-.94,3.44,3.44,0,0,1-.89-2.47V38.6a3.64,3.64,0,0,1,.83-2.45,2.62,2.62,0,0,1,2.08-1,2.46,2.46,0,0,1,2.1,1,4.17,4.17,0,0,1,.73,2.55c0,.21,0,.4,0,.57h-4a1.7,1.7,0,0,0,.49,1,1.35,1.35,0,0,0,1,.35,2,2,0,0,0,1.39-.66l.91,1.07A3.08,3.08,0,0,1,424.26,42.12Zm-1.38-4h2.3a2.15,2.15,0,0,0-.35-1.09.92.92,0,0,0-.78-.4,1,1,0,0,0-.79.39A2.13,2.13,0,0,0,422.88,38.13Z"/><path class="cls-3" d="M433.41,42.12a3.74,3.74,0,0,1-2.87-1.22l1.08-1.27a2.37,2.37,0,0,0,1.75.84,1.23,1.23,0,0,0,.87-.31,1.06,1.06,0,0,0,.34-.82v0a1,1,0,0,0-.45-.87,2.26,2.26,0,0,0-1.29-.31h-.52L432.11,37,434,34.88h-3v-1.6h5.23V34.7l-2,2.14a3,3,0,0,1,1.55.78,2.19,2.19,0,0,1,.61,1.64v0a2.7,2.7,0,0,1-.81,2A2.94,2.94,0,0,1,433.41,42.12Z"/><path class="cls-3" d="M437.89,39V37.29H443V39Z"/><path class="cls-3" d="M448.48,42V40.18h-3.74l-.22-1.3,4.09-5.65h1.58v5.45h1.06v1.5h-1.06V42Zm-2-3.29h2V35.87Z"/><path class="cls-3" d="M183.53,42.09a3.8,3.8,0,0,1-2.9-1.2,4.5,4.5,0,0,1-1.12-3.21v-.11a4.52,4.52,0,0,1,1.14-3.17,3.78,3.78,0,0,1,2.92-1.25,4.27,4.27,0,0,1,2.84,1l-1.07,1.4a2.6,2.6,0,0,0-1.8-.75,1.93,1.93,0,0,0-1.57.77,3,3,0,0,0-.62,2v.1a3.06,3.06,0,0,0,.63,2,2,2,0,0,0,1.63.75,2.15,2.15,0,0,0,1.29-.36V38.55h-1.58V37h3.29v4A5.06,5.06,0,0,1,183.53,42.09Z"/><path class="cls-3" d="M188.16,42V35.31h1.76v1.18a1.76,1.76,0,0,1,1.8-1.29v1.91h-.07a1.6,1.6,0,0,0-1.28.52,2.31,2.31,0,0,0-.45,1.55V42Z"/><path class="cls-3" d="M194.69,42.09a1.9,1.9,0,0,1-2-2V40a2,2,0,0,1,.63-1.59,2.53,2.53,0,0,1,1.7-.53,3.77,3.77,0,0,1,1.39.27v-.2a1.11,1.11,0,0,0-.33-.87,1.33,1.33,0,0,0-.93-.3,4,4,0,0,0-1.53.37l-.48-1.38a5,5,0,0,1,2.27-.53,2.4,2.4,0,0,1,2.71,2.7v4h-1.73v-.72A2.06,2.06,0,0,1,194.69,42.09Zm.58-1.29a1.22,1.22,0,0,0,.84-.27.93.93,0,0,0,.34-.75v-.56a2.27,2.27,0,0,0-1-.21,1.14,1.14,0,0,0-.78.24.86.86,0,0,0-.28.69v0a.78.78,0,0,0,.23.61A.94.94,0,0,0,195.28,40.8Z"/><path class="cls-3" d="M201.9,42.09a2.27,2.27,0,0,1-1.8-.87,3.75,3.75,0,0,1-.73-2.48v-.2a3.75,3.75,0,0,1,.73-2.48,2.27,2.27,0,0,1,1.8-.87,2.23,2.23,0,0,1,1.8,1V33h1.76v9H203.7V41A2.13,2.13,0,0,1,201.9,42.09Zm-.4-2a1.1,1.1,0,0,0,.93.51,1.12,1.12,0,0,0,.93-.51,2.22,2.22,0,0,0,.37-1.34v-.12a2.22,2.22,0,0,0-.37-1.34,1.12,1.12,0,0,0-.93-.51,1.1,1.1,0,0,0-.93.51,2.25,2.25,0,0,0-.37,1.34v.13A2.25,2.25,0,0,0,201.49,40Z"/><path class="cls-3" d="M209.88,42.12a2.94,2.94,0,0,1-2.23-.94,3.44,3.44,0,0,1-.89-2.47V38.6a3.64,3.64,0,0,1,.83-2.45,2.62,2.62,0,0,1,2.08-1,2.46,2.46,0,0,1,2.1,1,4.18,4.18,0,0,1,.73,2.55q0,.31,0,.57h-4a1.7,1.7,0,0,0,.49,1,1.35,1.35,0,0,0,1,.35,2,2,0,0,0,1.39-.66l.91,1.07A3.08,3.08,0,0,1,209.88,42.12Zm-1.38-4h2.3a2.15,2.15,0,0,0-.35-1.09.92.92,0,0,0-.78-.4,1,1,0,0,0-.79.39A2.13,2.13,0,0,0,208.51,38.13Z"/><path class="cls-3" d="M217.72,42V35.06l-1.33.36-.29-1.57,2.15-.65h1.24V42Z"/><path class="cls-3" d="M220.24,39V37.29h5.13V39Z"/><path class="cls-3" d="M227.1,42V40.52l2.56-2.63a7.59,7.59,0,0,0,1-1.16,1.66,1.66,0,0,0,.27-.89,1,1,0,0,0-.29-.76,1.05,1.05,0,0,0-.75-.27,1.36,1.36,0,0,0-.79.24,4.1,4.1,0,0,0-.8.79l-1.17-1.11A3.47,3.47,0,0,1,230,33.15a2.83,2.83,0,0,1,2,.68,2.37,2.37,0,0,1,.76,1.85v0a2.78,2.78,0,0,1-.4,1.5,10,10,0,0,1-1.45,1.66l-1.45,1.48h3.32V42Z"/><path class="cls-3" d="M191.33,59.32l4.68-9.9h-5V47.15h7.77V49l-4.66,10.29Z"/><path class="cls-3" d="M203.7,59.53A5.51,5.51,0,0,1,199.8,58l1.41-1.88a3.81,3.81,0,0,0,2.43,1.09,1.89,1.89,0,0,0,1.36-.48,1.73,1.73,0,0,0,.5-1.31v0a1.56,1.56,0,0,0-.55-1.26,2.13,2.13,0,0,0-1.42-.46,4.14,4.14,0,0,0-1.67.38l-1.41-.92.35-6h6.66v2.26H202.9l-.14,2.21a5.34,5.34,0,0,1,1.36-.17,4,4,0,0,1,2.77,1A3.65,3.65,0,0,1,208,55.29v.05a4,4,0,0,1-1.18,3.06A4.29,4.29,0,0,1,203.7,59.53Z"/><path class="cls-3" d="M214,52.44a2.42,2.42,0,0,1-1.93.88,2.39,2.39,0,0,1-1.91-.86,3.28,3.28,0,0,1-.73-2.2v-.14a3.34,3.34,0,0,1,.75-2.23A2.41,2.41,0,0,1,212.1,47a2.38,2.38,0,0,1,1.91.87,3.32,3.32,0,0,1,.73,2.21v.14A3.3,3.3,0,0,1,214,52.44Zm.92.41,3.62-5.7h1.83L216,53.62l-3.63,5.7H210.6Zm-2.85-4.29a.76.76,0,0,0-.7.43,2.29,2.29,0,0,0-.24,1.14v.09a2.16,2.16,0,0,0,.27,1.15.8.8,0,0,0,.7.43.76.76,0,0,0,.7-.43,2.29,2.29,0,0,0,.24-1.14v-.09a2.16,2.16,0,0,0-.27-1.15A.81.81,0,0,0,212.06,48.56Zm6.78,10.9a2.38,2.38,0,0,1-1.91-.87,3.32,3.32,0,0,1-.73-2.21v-.14a3.3,3.3,0,0,1,.75-2.22,2.42,2.42,0,0,1,1.93-.88,2.39,2.39,0,0,1,1.91.86,3.28,3.28,0,0,1,.73,2.2v.14a3.35,3.35,0,0,1-.74,2.23A2.41,2.41,0,0,1,218.84,59.46Zm0-1.55a.76.76,0,0,0,.7-.43,2.29,2.29,0,0,0,.24-1.14v-.09a2.16,2.16,0,0,0-.27-1.15.81.81,0,0,0-.7-.43.77.77,0,0,0-.69.43,2.22,2.22,0,0,0-.25,1.14v.09a2.15,2.15,0,0,0,.27,1.15A.8.8,0,0,0,218.88,57.91Z"/><path class="cls-4" d="M55.37,132.71A1.81,1.81,0,0,0,57,131.9a3.91,3.91,0,0,0,.62-2,3.46,3.46,0,0,1-2.23.75,3.73,3.73,0,0,1-2.72-1,3.84,3.84,0,0,1-1.05-2.89v-.05a4.18,4.18,0,0,1,1.18-3.06,4.4,4.4,0,0,1,6,0q1.41,1.44,1.41,4.68v.1a8.2,8.2,0,0,1-1.27,4.91A4.18,4.18,0,0,1,55.33,135a5.34,5.34,0,0,1-3.44-1.25l1.22-2A3.63,3.63,0,0,0,55.37,132.71Zm.5-4.17a1.67,1.67,0,0,0,1.3-.52,2,2,0,0,0,.47-1.39v0a2,2,0,0,0-.49-1.42,1.71,1.71,0,0,0-1.32-.53,1.66,1.66,0,0,0-1.3.52,2,2,0,0,0-.47,1.41v0a2,2,0,0,0,.48,1.41A1.71,1.71,0,0,0,55.87,128.54Z"/><path class="cls-4" d="M69.75,133.33a4.37,4.37,0,0,1-6.9,0,7.21,7.21,0,0,1-1.29-4.49v-.23a7.18,7.18,0,0,1,1.3-4.5,4.36,4.36,0,0,1,6.9,0,7.18,7.18,0,0,1,1.3,4.49v.23A7.18,7.18,0,0,1,69.75,133.33Zm-3.43-.6a1.76,1.76,0,0,0,1.57-1,5.89,5.89,0,0,0,.58-2.9v-.16a5.8,5.8,0,0,0-.6-2.9,1.8,1.8,0,0,0-1.59-1,1.76,1.76,0,0,0-1.57,1,5.88,5.88,0,0,0-.58,2.9v.16a5.86,5.86,0,0,0,.59,2.9A1.79,1.79,0,0,0,66.32,132.73Z"/><path class="cls-4" d="M76.9,127.94a2.42,2.42,0,0,1-1.93.88,2.39,2.39,0,0,1-1.91-.86,3.28,3.28,0,0,1-.73-2.2v-.14a3.34,3.34,0,0,1,.75-2.23,2.41,2.41,0,0,1,1.93-.89,2.38,2.38,0,0,1,1.91.87,3.32,3.32,0,0,1,.73,2.21v.14A3.3,3.3,0,0,1,76.9,127.94Zm.92.41,3.62-5.7h1.83l-4.31,6.47-3.63,5.7H73.51ZM75,124.05a.76.76,0,0,0-.7.43,2.29,2.29,0,0,0-.24,1.14v.09a2.16,2.16,0,0,0,.27,1.15.8.8,0,0,0,.7.43.76.76,0,0,0,.7-.43,2.29,2.29,0,0,0,.24-1.14v-.09a2.16,2.16,0,0,0-.27-1.15A.81.81,0,0,0,75,124.05ZM81.75,135a2.38,2.38,0,0,1-1.91-.87,3.32,3.32,0,0,1-.73-2.21v-.14a3.3,3.3,0,0,1,.75-2.22,2.42,2.42,0,0,1,1.93-.88,2.39,2.39,0,0,1,1.91.86,3.28,3.28,0,0,1,.73,2.2v.14a3.35,3.35,0,0,1-.74,2.23A2.41,2.41,0,0,1,81.75,135Zm0-1.55a.76.76,0,0,0,.7-.43,2.29,2.29,0,0,0,.24-1.14v-.09a2.16,2.16,0,0,0-.27-1.15.81.81,0,0,0-.7-.43.77.77,0,0,0-.69.43,2.22,2.22,0,0,0-.25,1.14v.09a2.15,2.15,0,0,0,.27,1.15A.8.8,0,0,0,81.78,133.41Z"/><path class="cls-4" d="M94.44,134A3.1,3.1,0,0,1,90,134a3.43,3.43,0,0,1-.89-2.43v-.14A3.44,3.44,0,0,1,90,129a3.11,3.11,0,0,1,4.48,0,3.45,3.45,0,0,1,.88,2.44v.14A3.46,3.46,0,0,1,94.44,134Zm-2.23-.57a1.17,1.17,0,0,0,1-.53,2.31,2.31,0,0,0,.37-1.36v-.09a2.29,2.29,0,0,0-.38-1.36,1.23,1.23,0,0,0-2,0,2.3,2.3,0,0,0-.37,1.36v.09a2.26,2.26,0,0,0,.39,1.36A1.2,1.2,0,0,0,92.21,133.44Z"/><path class="cls-4" d="M96.63,134.82v-5.17H96v-1.44h.67v-.45a2,2,0,0,1,.5-1.49,2,2,0,0,1,1.45-.5,3.7,3.7,0,0,1,1.09.15v1.45a2.41,2.41,0,0,0-.65-.11q-.65,0-.65.68v.26h1.29v1.44H98.39v5.17Z"/><path class="cls-4" d="M103,136.69v-8.53h1.76v.92a2.13,2.13,0,0,1,1.8-1,2.27,2.27,0,0,1,1.8.87,3.75,3.75,0,0,1,.73,2.48v.2a3.75,3.75,0,0,1-.73,2.48,2.27,2.27,0,0,1-1.8.87,2.18,2.18,0,0,1-1.8-1v2.73Zm2.11-3.8a1.12,1.12,0,0,0,.93.51,1.1,1.1,0,0,0,.93-.51,2.25,2.25,0,0,0,.37-1.34v-.12a2.25,2.25,0,0,0-.37-1.34,1.1,1.1,0,0,0-.93-.51,1.12,1.12,0,0,0-.93.51,2.22,2.22,0,0,0-.37,1.34v.12A2.22,2.22,0,0,0,105.14,132.89Z"/><path class="cls-4" d="M111.79,134.94a1.9,1.9,0,0,1-2-2v-.07a2,2,0,0,1,.63-1.59,2.53,2.53,0,0,1,1.7-.53,3.77,3.77,0,0,1,1.39.27v-.2a1.11,1.11,0,0,0-.33-.87,1.33,1.33,0,0,0-.93-.3,4,4,0,0,0-1.53.37l-.48-1.38a5,5,0,0,1,2.27-.53,2.4,2.4,0,0,1,2.71,2.7v4h-1.73v-.72A2.06,2.06,0,0,1,111.79,134.94Zm.58-1.29a1.21,1.21,0,0,0,.84-.27.93.93,0,0,0,.34-.75v-.56a2.27,2.27,0,0,0-1-.21,1.15,1.15,0,0,0-.78.24.86.86,0,0,0-.28.69v0a.79.79,0,0,0,.23.61A.94.94,0,0,0,112.38,133.65Z"/><path class="cls-4" d="M118.5,134.93a1.92,1.92,0,0,1-1.3-.4,1.74,1.74,0,0,1-.47-1.37v-3.5h-.67v-1.49h.67v-1.7h1.76v1.7h1.32v1.49H118.5v3.14q0,.57.55.57a1.68,1.68,0,0,0,.76-.19v1.4A2.58,2.58,0,0,1,118.5,134.93Z"/><path class="cls-4" d="M120.86,127.45v-1.6h1.84v1.6Zm0,7.37v-6.66h1.76v6.66Z"/><path class="cls-4" d="M126.86,135a2.94,2.94,0,0,1-2.23-.94,3.44,3.44,0,0,1-.89-2.46v-.11a3.64,3.64,0,0,1,.83-2.45,2.62,2.62,0,0,1,2.08-1,2.46,2.46,0,0,1,2.1,1,4.17,4.17,0,0,1,.73,2.55q0,.31,0,.57h-4a1.69,1.69,0,0,0,.49,1,1.35,1.35,0,0,0,1,.35,2,2,0,0,0,1.39-.66l.91,1.07A3.08,3.08,0,0,1,126.86,135Zm-1.38-4h2.3a2.15,2.15,0,0,0-.35-1.09.92.92,0,0,0-.78-.4,1,1,0,0,0-.79.39A2.13,2.13,0,0,0,125.48,131Z"/><path class="cls-4" d="M130.5,134.82v-6.66h1.76v.89a2.1,2.1,0,0,1,1.71-1,1.81,1.81,0,0,1,1.44.6,2.43,2.43,0,0,1,.52,1.65v4.53h-1.76v-4q0-1.18-.94-1.18a.89.89,0,0,0-.71.3,1.31,1.31,0,0,0-.26.88v4Z"/><path class="cls-4" d="M139.2,134.93a1.92,1.92,0,0,1-1.3-.4,1.74,1.74,0,0,1-.47-1.37v-3.5h-.67v-1.49h.67v-1.7h1.76v1.7h1.32v1.49H139.2v3.14q0,.57.55.57a1.68,1.68,0,0,0,.76-.19v1.4A2.58,2.58,0,0,1,139.2,134.93Z"/><path class="cls-4" d="M143.55,134.94A3.89,3.89,0,0,1,141,134l.77-1.24a3,3,0,0,0,1.78.75.83.83,0,0,0,.53-.14.45.45,0,0,0,.18-.37v0a.36.36,0,0,0,0-.12.45.45,0,0,0-.06-.11l-.07-.09-.12-.09-.14-.09-.17-.09-.19-.08-.22-.09-.22-.1a4.35,4.35,0,0,1-1.3-.81,1.6,1.6,0,0,1-.45-1.2v0a1.85,1.85,0,0,1,.65-1.48,2.43,2.43,0,0,1,1.64-.55,3.73,3.73,0,0,1,2.2.72l-.71,1.27a2.94,2.94,0,0,0-1.52-.57.74.74,0,0,0-.48.14.42.42,0,0,0-.17.34v0a.47.47,0,0,0,.25.39,6.42,6.42,0,0,0,.8.42l.08,0,.07,0a4.88,4.88,0,0,1,1.32.84,1.54,1.54,0,0,1,.45,1.16v0a1.88,1.88,0,0,1-.65,1.53A2.57,2.57,0,0,1,143.55,134.94Z"/><path class="cls-4" d="M152.33,135a2.94,2.94,0,0,1-2.23-.94,3.44,3.44,0,0,1-.89-2.46v-.11A3.64,3.64,0,0,1,150,129a2.62,2.62,0,0,1,2.08-1,2.46,2.46,0,0,1,2.1,1,4.17,4.17,0,0,1,.73,2.55q0,.31,0,.57h-4a1.69,1.69,0,0,0,.49,1,1.35,1.35,0,0,0,1,.35,2,2,0,0,0,1.39-.66l.91,1.07A3.08,3.08,0,0,1,152.33,135ZM151,131h2.3a2.15,2.15,0,0,0-.35-1.09.92.92,0,0,0-.78-.4,1,1,0,0,0-.79.39A2.13,2.13,0,0,0,151,131Z"/><path class="cls-4" d="M157.42,128.16l1,2,1.06-2h1.83l-1.93,3.24,2,3.42h-1.88l-1.1-2.07-1.12,2.07h-1.84l2-3.39-1.91-3.27Z"/><path class="cls-4" d="M162.22,136.69v-8.53H164v.92a2.13,2.13,0,0,1,1.8-1,2.27,2.27,0,0,1,1.8.87,3.75,3.75,0,0,1,.73,2.48v.2a3.75,3.75,0,0,1-.73,2.48,2.27,2.27,0,0,1-1.8.87,2.18,2.18,0,0,1-1.8-1v2.73Zm2.11-3.8a1.12,1.12,0,0,0,.93.51,1.1,1.1,0,0,0,.93-.51,2.25,2.25,0,0,0,.37-1.34v-.12a2.25,2.25,0,0,0-.37-1.34,1.1,1.1,0,0,0-.93-.51,1.12,1.12,0,0,0-.93.51,2.22,2.22,0,0,0-.37,1.34v.12A2.22,2.22,0,0,0,164.33,132.89Z"/><path class="cls-4" d="M172.2,135A2.94,2.94,0,0,1,170,134a3.44,3.44,0,0,1-.89-2.46v-.11a3.64,3.64,0,0,1,.83-2.45,2.62,2.62,0,0,1,2.08-1,2.46,2.46,0,0,1,2.1,1,4.17,4.17,0,0,1,.73,2.55q0,.31,0,.57h-4a1.69,1.69,0,0,0,.49,1,1.35,1.35,0,0,0,1,.35,2,2,0,0,0,1.39-.66l.91,1.07A3.08,3.08,0,0,1,172.2,135Zm-1.38-4h2.3a2.15,2.15,0,0,0-.35-1.09.92.92,0,0,0-.78-.4,1,1,0,0,0-.79.39A2.13,2.13,0,0,0,170.82,131Z"/><path class="cls-4" d="M175.84,134.82v-6.66h1.76v1.18a1.76,1.76,0,0,1,1.8-1.29V130h-.07a1.6,1.6,0,0,0-1.28.52,2.31,2.31,0,0,0-.45,1.55v2.79Z"/><path class="cls-4" d="M180.29,127.45v-1.6h1.84v1.6Zm0,7.37v-6.66h1.76v6.66Z"/><path class="cls-4" d="M186.29,135a2.94,2.94,0,0,1-2.23-.94,3.44,3.44,0,0,1-.89-2.46v-.11A3.64,3.64,0,0,1,184,129a2.62,2.62,0,0,1,2.08-1,2.46,2.46,0,0,1,2.1,1,4.17,4.17,0,0,1,.73,2.55q0,.31,0,.57h-4a1.69,1.69,0,0,0,.49,1,1.35,1.35,0,0,0,1,.35,2,2,0,0,0,1.39-.66l.91,1.07A3.08,3.08,0,0,1,186.29,135Zm-1.38-4h2.3a2.15,2.15,0,0,0-.35-1.09.92.92,0,0,0-.78-.4,1,1,0,0,0-.79.39A2.13,2.13,0,0,0,184.91,131Z"/><path class="cls-4" d="M189.93,134.82v-6.66h1.76v.89a2.1,2.1,0,0,1,1.71-1,1.81,1.81,0,0,1,1.44.6,2.43,2.43,0,0,1,.52,1.65v4.53H193.6v-4q0-1.18-.94-1.18a.89.89,0,0,0-.71.3,1.31,1.31,0,0,0-.26.88v4Z"/><path class="cls-4" d="M199.35,135a2.78,2.78,0,0,1-2.17-1,3.5,3.5,0,0,1-.85-2.43v-.15a3.52,3.52,0,0,1,.86-2.44,2.84,2.84,0,0,1,2.22-1,3,3,0,0,1,2.17.89l-1,1.28a1.66,1.66,0,0,0-1.19-.6,1.16,1.16,0,0,0-1,.52,2.23,2.23,0,0,0-.37,1.33v0a2.27,2.27,0,0,0,.37,1.36,1.19,1.19,0,0,0,1,.51,1.68,1.68,0,0,0,1.2-.61l.93,1.17A2.93,2.93,0,0,1,199.35,135Z"/><path class="cls-4" d="M205.31,135a2.94,2.94,0,0,1-2.23-.94,3.44,3.44,0,0,1-.89-2.46v-.11A3.64,3.64,0,0,1,203,129a2.62,2.62,0,0,1,2.08-1,2.46,2.46,0,0,1,2.1,1,4.17,4.17,0,0,1,.73,2.55q0,.31,0,.57h-4a1.69,1.69,0,0,0,.49,1,1.35,1.35,0,0,0,1,.35,2,2,0,0,0,1.39-.66l.91,1.07A3.08,3.08,0,0,1,205.31,135Zm-1.38-4h2.3a2.15,2.15,0,0,0-.35-1.09.92.92,0,0,0-.78-.4,1,1,0,0,0-.79.39A2.13,2.13,0,0,0,203.94,131Z"/><path class="cls-4" d="M211.25,134.94a2.27,2.27,0,0,1-1.8-.87,3.75,3.75,0,0,1-.73-2.48v-.2a3.76,3.76,0,0,1,.73-2.48,2.27,2.27,0,0,1,1.8-.87,2.23,2.23,0,0,1,1.8,1v-3.17h1.76v9h-1.76v-.92A2.13,2.13,0,0,1,211.25,134.94Zm-.4-2a1.1,1.1,0,0,0,.93.51,1.12,1.12,0,0,0,.93-.51,2.22,2.22,0,0,0,.37-1.34v-.12a2.22,2.22,0,0,0-.37-1.34,1.12,1.12,0,0,0-.93-.51,1.1,1.1,0,0,0-.93.51,2.25,2.25,0,0,0-.37,1.34v.12A2.25,2.25,0,0,0,210.85,132.89Z"/><path class="cls-4" d="M220.37,134.94a1.9,1.9,0,0,1-2-2v-.07a2,2,0,0,1,.63-1.59,2.53,2.53,0,0,1,1.7-.53,3.77,3.77,0,0,1,1.39.27v-.2a1.11,1.11,0,0,0-.33-.87,1.33,1.33,0,0,0-.93-.3,4,4,0,0,0-1.53.37l-.48-1.38a5,5,0,0,1,2.27-.53,2.4,2.4,0,0,1,2.71,2.7v4h-1.73v-.72A2.06,2.06,0,0,1,220.37,134.94Zm.58-1.29a1.21,1.21,0,0,0,.84-.27.93.93,0,0,0,.34-.75v-.56a2.27,2.27,0,0,0-1-.21,1.15,1.15,0,0,0-.78.24.86.86,0,0,0-.28.69v0a.79.79,0,0,0,.23.61A.94.94,0,0,0,221,133.65Z"/><path class="cls-4" d="M230,134.94a2.27,2.27,0,0,1-1.8-.87,3.75,3.75,0,0,1-.73-2.48v-.2a3.76,3.76,0,0,1,.73-2.48A2.27,2.27,0,0,1,230,128a2.23,2.23,0,0,1,1.8,1v-3.17h1.76v9h-1.76v-.92A2.13,2.13,0,0,1,230,134.94Zm-.4-2a1.1,1.1,0,0,0,.93.51,1.12,1.12,0,0,0,.93-.51,2.22,2.22,0,0,0,.37-1.34v-.12a2.22,2.22,0,0,0-.37-1.34,1.12,1.12,0,0,0-.93-.51,1.1,1.1,0,0,0-.93.51,2.25,2.25,0,0,0-.37,1.34v.12A2.25,2.25,0,0,0,229.58,132.89Z"/><path class="cls-4" d="M237.67,135a2.94,2.94,0,0,1-2.23-.94,3.44,3.44,0,0,1-.89-2.46v-.11a3.64,3.64,0,0,1,.83-2.45,2.62,2.62,0,0,1,2.08-1,2.46,2.46,0,0,1,2.1,1,4.17,4.17,0,0,1,.73,2.55q0,.31,0,.57h-4a1.69,1.69,0,0,0,.49,1,1.35,1.35,0,0,0,1,.35,2,2,0,0,0,1.39-.66l.91,1.07A3.08,3.08,0,0,1,237.67,135Zm-1.38-4h2.3a2.15,2.15,0,0,0-.35-1.09.92.92,0,0,0-.78-.4,1,1,0,0,0-.79.39A2.13,2.13,0,0,0,236.29,131Z"/><path class="cls-4" d="M241.31,134.82v-6.66h1.76v1.18a1.76,1.76,0,0,1,1.8-1.29V130h-.07a1.6,1.6,0,0,0-1.28.52,2.31,2.31,0,0,0-.45,1.55v2.79Z"/><path class="cls-4" d="M245.73,134.82v-6.66h1.76v.89a2.09,2.09,0,0,1,1.73-1,1.72,1.72,0,0,1,1.64,1,2.4,2.4,0,0,1,1.89-1,1.87,1.87,0,0,1,1.44.58,2.36,2.36,0,0,1,.53,1.66v4.55H253v-4q0-1.18-.92-1.18a.85.85,0,0,0-.7.3,1.36,1.36,0,0,0-.25.88v4h-1.76v-4q0-1.18-.91-1.18a.85.85,0,0,0-.7.3,1.35,1.35,0,0,0-.25.88v4Z"/><path class="cls-4" d="M257.6,134.94a1.9,1.9,0,0,1-2-2v-.07a2,2,0,0,1,.63-1.59,2.53,2.53,0,0,1,1.7-.53,3.77,3.77,0,0,1,1.39.27v-.2a1.11,1.11,0,0,0-.33-.87,1.33,1.33,0,0,0-.93-.3,4,4,0,0,0-1.53.37l-.48-1.38a5,5,0,0,1,2.27-.53,2.4,2.4,0,0,1,2.71,2.7v4h-1.73v-.72A2.06,2.06,0,0,1,257.6,134.94Zm.58-1.29a1.21,1.21,0,0,0,.84-.27.93.93,0,0,0,.34-.75v-.56a2.27,2.27,0,0,0-1-.21,1.15,1.15,0,0,0-.78.24.86.86,0,0,0-.28.69v0a.79.79,0,0,0,.23.61A.94.94,0,0,0,258.19,133.65Z"/><path class="cls-4" d="M264.31,134.93a1.92,1.92,0,0,1-1.3-.4,1.74,1.74,0,0,1-.47-1.37v-3.5h-.67v-1.49h.67v-1.7h1.76v1.7h1.32v1.49h-1.32v3.14q0,.57.55.57a1.68,1.68,0,0,0,.76-.19v1.4A2.58,2.58,0,0,1,264.31,134.93Z"/><path class="cls-4" d="M271.75,134a3.1,3.1,0,0,1-4.48,0,3.43,3.43,0,0,1-.89-2.43v-.14a3.44,3.44,0,0,1,.89-2.44,3.11,3.11,0,0,1,4.48,0,3.45,3.45,0,0,1,.88,2.44v.14A3.46,3.46,0,0,1,271.75,134Zm-2.23-.57a1.17,1.17,0,0,0,1-.53,2.31,2.31,0,0,0,.37-1.36v-.09a2.29,2.29,0,0,0-.38-1.36,1.23,1.23,0,0,0-2,0,2.3,2.3,0,0,0-.37,1.36v.09a2.26,2.26,0,0,0,.39,1.36A1.2,1.2,0,0,0,269.53,133.44Z"/><path class="cls-4" d="M273.74,134.82v-9h1.76v9Z"/><path class="cls-4" d="M282,134a3.1,3.1,0,0,1-4.48,0,3.43,3.43,0,0,1-.89-2.43v-.14a3.44,3.44,0,0,1,.89-2.44,3.11,3.11,0,0,1,4.48,0,3.45,3.45,0,0,1,.88,2.44v.14A3.46,3.46,0,0,1,282,134Zm-2.23-.57a1.17,1.17,0,0,0,1-.53,2.31,2.31,0,0,0,.37-1.36v-.09a2.29,2.29,0,0,0-.38-1.36,1.23,1.23,0,0,0-2,0,2.3,2.3,0,0,0-.37,1.36v.09a2.26,2.26,0,0,0,.39,1.36A1.2,1.2,0,0,0,279.73,133.44Z"/><path class="cls-4" d="M286.45,136.72a5.91,5.91,0,0,1-2.53-.56l.55-1.37a3.82,3.82,0,0,0,1.89.48q1.64,0,1.64-1.58v-.42a2.31,2.31,0,0,1-1.86,1,2.26,2.26,0,0,1-1.77-.81,3.4,3.4,0,0,1-.71-2.32v0a3.36,3.36,0,0,1,.72-2.3,2.27,2.27,0,0,1,1.76-.81,2.34,2.34,0,0,1,1.85,1v-.86h1.76v5.44a3.22,3.22,0,0,1-.76,2.32A3.5,3.5,0,0,1,286.45,136.72Zm-.68-4.35a1.21,1.21,0,0,0,1.87,0,1.8,1.8,0,0,0,.37-1.18h0a1.79,1.79,0,0,0-.37-1.17,1.21,1.21,0,0,0-1.87,0,1.8,1.8,0,0,0-.36,1.17h0A1.82,1.82,0,0,0,285.77,132.37Z"/><path class="cls-4" d="M291,127.45v-1.6h1.84v1.6Zm0,7.37v-6.66h1.76v6.66Z"/><path class="cls-4" d="M297,135a2.78,2.78,0,0,1-2.17-1,3.5,3.5,0,0,1-.85-2.43v-.15a3.52,3.52,0,0,1,.86-2.44,2.84,2.84,0,0,1,2.22-1,3,3,0,0,1,2.17.89l-1,1.28a1.66,1.66,0,0,0-1.19-.6,1.16,1.16,0,0,0-1,.52,2.23,2.23,0,0,0-.37,1.33v0a2.27,2.27,0,0,0,.37,1.36,1.19,1.19,0,0,0,1,.51,1.68,1.68,0,0,0,1.2-.61l.93,1.17A2.93,2.93,0,0,1,297,135Z"/><path class="cls-4" d="M304.76,134.93a1.92,1.92,0,0,1-1.3-.4,1.74,1.74,0,0,1-.47-1.37v-3.5h-.67v-1.49H303v-1.7h1.76v1.7h1.32v1.49h-1.32v3.14q0,.57.55.57a1.68,1.68,0,0,0,.76-.19v1.4A2.58,2.58,0,0,1,304.76,134.93Z"/><path class="cls-4" d="M312.21,134a3.1,3.1,0,0,1-4.48,0,3.43,3.43,0,0,1-.89-2.43v-.14a3.44,3.44,0,0,1,.89-2.44,3.11,3.11,0,0,1,4.48,0,3.45,3.45,0,0,1,.88,2.44v.14A3.46,3.46,0,0,1,312.21,134Zm-2.23-.57a1.17,1.17,0,0,0,1-.53,2.31,2.31,0,0,0,.37-1.36v-.09a2.29,2.29,0,0,0-.38-1.36,1.23,1.23,0,0,0-2,0,2.3,2.3,0,0,0-.37,1.36v.09a2.26,2.26,0,0,0,.39,1.36A1.2,1.2,0,0,0,310,133.44Z"/><path class="cls-4" d="M315.58,128.16l1,2,1.06-2h1.83l-1.93,3.24,2,3.42H317.7l-1.1-2.07-1.12,2.07h-1.84l2-3.39-1.91-3.27Z"/><path class="cls-4" d="M320.4,127.45v-1.6h1.84v1.6Zm0,7.37v-6.66h1.76v6.66Z"/><path class="cls-4" d="M326.31,135a2.78,2.78,0,0,1-2.17-1,3.5,3.5,0,0,1-.85-2.43v-.15a3.52,3.52,0,0,1,.86-2.44,2.84,2.84,0,0,1,2.22-1,3,3,0,0,1,2.17.89l-1,1.28a1.66,1.66,0,0,0-1.19-.6,1.16,1.16,0,0,0-1,.52,2.23,2.23,0,0,0-.37,1.33v0a2.27,2.27,0,0,0,.37,1.36,1.19,1.19,0,0,0,1,.51,1.68,1.68,0,0,0,1.2-.61l.93,1.17A2.93,2.93,0,0,1,326.31,135Z"/><path class="cls-4" d="M329.45,127.45v-1.6h1.84v1.6Zm0,7.37v-6.66h1.76v6.66Z"/><path class="cls-4" d="M334.64,134.93a1.92,1.92,0,0,1-1.3-.4,1.74,1.74,0,0,1-.47-1.37v-3.5h-.67v-1.49h.67v-1.7h1.76v1.7H336v1.49h-1.32v3.14q0,.57.55.57a1.68,1.68,0,0,0,.76-.19v1.4A2.58,2.58,0,0,1,334.64,134.93Z"/><path class="cls-4" d="M339.57,132.57l1.22-4.41h1.79l-2.19,6.74a3.42,3.42,0,0,1-.78,1.42,1.72,1.72,0,0,1-1.22.42,2.75,2.75,0,0,1-1.43-.4l.48-1.32a1.45,1.45,0,0,0,.72.22.58.58,0,0,0,.57-.42l-2.26-6.67h1.84Z"/><path class="cls-4" d="M351.14,134a3.1,3.1,0,0,1-4.48,0,3.43,3.43,0,0,1-.89-2.43v-.14a3.44,3.44,0,0,1,.89-2.44,3.11,3.11,0,0,1,4.48,0,3.45,3.45,0,0,1,.88,2.44v.14A3.46,3.46,0,0,1,351.14,134Zm-2.23-.57a1.17,1.17,0,0,0,1-.53,2.31,2.31,0,0,0,.37-1.36v-.09a2.29,2.29,0,0,0-.38-1.36,1.23,1.23,0,0,0-2,0,2.3,2.3,0,0,0-.37,1.36v.09a2.26,2.26,0,0,0,.39,1.36A1.2,1.2,0,0,0,348.91,133.44Z"/><path class="cls-4" d="M353.06,134.82v-6.66h1.76v.89a2.1,2.1,0,0,1,1.71-1,1.81,1.81,0,0,1,1.44.6,2.43,2.43,0,0,1,.52,1.65v4.53h-1.76v-4q0-1.18-.94-1.18a.89.89,0,0,0-.71.3,1.31,1.31,0,0,0-.26.88v4Z"/><path class="cls-4" d="M364.81,134.87l-2.93-8.74h2l1.84,6,1.84-6h1.9l-2.93,8.74Z"/><path class="cls-4" d="M373,135a2.94,2.94,0,0,1-2.23-.94,3.44,3.44,0,0,1-.89-2.46v-.11a3.64,3.64,0,0,1,.83-2.45,2.62,2.62,0,0,1,2.08-1,2.46,2.46,0,0,1,2.1,1,4.17,4.17,0,0,1,.73,2.55q0,.31,0,.57h-4a1.69,1.69,0,0,0,.49,1,1.35,1.35,0,0,0,1,.35,2,2,0,0,0,1.39-.66l.91,1.07A3.08,3.08,0,0,1,373,135Zm-1.38-4H374a2.15,2.15,0,0,0-.35-1.09.92.92,0,0,0-.78-.4,1,1,0,0,0-.79.39A2.13,2.13,0,0,0,371.65,131Z"/><path class="cls-4" d="M379.43,135a2.78,2.78,0,0,1-2.17-1,3.5,3.5,0,0,1-.85-2.43v-.15a3.52,3.52,0,0,1,.86-2.44,2.84,2.84,0,0,1,2.22-1,3,3,0,0,1,2.17.89l-1,1.28a1.66,1.66,0,0,0-1.19-.6,1.16,1.16,0,0,0-1,.52,2.23,2.23,0,0,0-.37,1.33v0a2.27,2.27,0,0,0,.37,1.36,1.19,1.19,0,0,0,1,.51,1.68,1.68,0,0,0,1.2-.61l.93,1.17A2.93,2.93,0,0,1,379.43,135Z"/><path class="cls-4" d="M384.58,134.93a1.92,1.92,0,0,1-1.3-.4,1.74,1.74,0,0,1-.47-1.37v-3.5h-.67v-1.49h.67v-1.7h1.76v1.7h1.32v1.49h-1.32v3.14q0,.57.55.57a1.68,1.68,0,0,0,.76-.19v1.4A2.58,2.58,0,0,1,384.58,134.93Z"/><path class="cls-4" d="M386.94,127.45v-1.6h1.84v1.6Zm0,7.37v-6.66h1.76v6.66Z"/><path class="cls-4" d="M395.46,134.07a2.27,2.27,0,0,1-1.8.87,2.18,2.18,0,0,1-1.8-1v.86H390.1v-9h1.76v3.23a2.13,2.13,0,0,1,1.8-1,2.27,2.27,0,0,1,1.8.87,3.75,3.75,0,0,1,.73,2.48v.2A3.75,3.75,0,0,1,395.46,134.07Zm-3.25-1.18a1.12,1.12,0,0,0,.93.51,1.1,1.1,0,0,0,.93-.51,2.25,2.25,0,0,0,.37-1.34v-.12a2.25,2.25,0,0,0-.37-1.34,1.1,1.1,0,0,0-.93-.51,1.12,1.12,0,0,0-.93.51,2.22,2.22,0,0,0-.37,1.34v.12A2.22,2.22,0,0,0,392.21,132.89Z"/><path class="cls-4" d="M397.26,127.45v-1.6h1.84v1.6Zm0,7.37v-6.66h1.76v6.66Z"/><path class="cls-4" d="M401.87,128.16l1,2,1.06-2h1.83l-1.93,3.24,2,3.42H404l-1.1-2.07-1.12,2.07h-1.84l2-3.39L400,128.16Z"/><path class="cls-4" d="M409.56,129.73a1.84,1.84,0,0,1-1.42.63,1.86,1.86,0,0,1-1.42-.61,2.17,2.17,0,0,1-.57-1.53v-.07a2.19,2.19,0,0,1,.57-1.54,1.92,1.92,0,0,1,2.83,0,2.19,2.19,0,0,1,.57,1.54v.06A2.2,2.2,0,0,1,409.56,129.73Zm-2.65-.17a1.66,1.66,0,0,0,2.47,0,2,2,0,0,0,.49-1.36v-.06a2,2,0,0,0-.49-1.37,1.66,1.66,0,0,0-2.47,0,2,2,0,0,0-.49,1.36v.07A2,2,0,0,0,406.91,129.56Zm.39-.27V127h.92q.91,0,.91.76h0a.69.69,0,0,1-.43.7l.5.84h-.66l-.42-.72h-.22v.72Zm.58-1.2h.3q.35,0,.35-.3t-.35-.31h-.3Z"/><path class="cls-4" d="M411.29,130.68v-4l-.77.21-.17-.91,1.25-.38h.72v5.1Z"/><path class="cls-3" d="M412.12,59.32V49.65l-1.86.5-.4-2.19,3-.9h1.74V59.32Z"/><path class="cls-3" d="M419.4,59.53a5.51,5.51,0,0,1-3.9-1.55l1.41-1.88a3.81,3.81,0,0,0,2.43,1.09,1.89,1.89,0,0,0,1.36-.48,1.73,1.73,0,0,0,.5-1.31v0a1.56,1.56,0,0,0-.55-1.26,2.13,2.13,0,0,0-1.42-.46,4.14,4.14,0,0,0-1.67.38l-1.41-.92.35-6h6.66v2.26H418.6l-.14,2.21a5.34,5.34,0,0,1,1.36-.17,4,4,0,0,1,2.77,1,3.65,3.65,0,0,1,1.09,2.89v.05a4,4,0,0,1-1.18,3.06A4.29,4.29,0,0,1,419.4,59.53Z"/><path class="cls-3" d="M430.1,52.44a2.42,2.42,0,0,1-1.93.88,2.39,2.39,0,0,1-1.91-.86,3.29,3.29,0,0,1-.73-2.2v-.14a3.34,3.34,0,0,1,.75-2.23A2.41,2.41,0,0,1,428.2,47a2.38,2.38,0,0,1,1.91.87,3.32,3.32,0,0,1,.73,2.21v.14A3.3,3.3,0,0,1,430.1,52.44Zm.92.41,3.62-5.7h1.83l-4.31,6.47-3.63,5.7h-1.81Zm-2.85-4.29a.76.76,0,0,0-.7.43,2.3,2.3,0,0,0-.24,1.14v.09a2.16,2.16,0,0,0,.27,1.15.8.8,0,0,0,.7.43.76.76,0,0,0,.7-.43,2.3,2.3,0,0,0,.24-1.14v-.09a2.17,2.17,0,0,0-.27-1.15A.81.81,0,0,0,428.17,48.56Zm6.78,10.9a2.37,2.37,0,0,1-1.91-.87,3.31,3.31,0,0,1-.73-2.21v-.14a3.3,3.3,0,0,1,.75-2.22,2.42,2.42,0,0,1,1.93-.88,2.39,2.39,0,0,1,1.91.86,3.28,3.28,0,0,1,.73,2.2v.14a3.35,3.35,0,0,1-.74,2.23A2.41,2.41,0,0,1,434.95,59.46Zm0-1.55a.76.76,0,0,0,.7-.43,2.29,2.29,0,0,0,.24-1.14v-.09a2.16,2.16,0,0,0-.27-1.15.81.81,0,0,0-.71-.43.77.77,0,0,0-.69.43,2.23,2.23,0,0,0-.25,1.14v.09a2.15,2.15,0,0,0,.27,1.15A.81.81,0,0,0,435,57.91Z"/><line class="cls-5" x1="231.86" y1="99.13" x2="231.86" y2="116.47"/><polygon class="cls-4" points="238.29 115.52 231.86 119.58 225.42 115.52 225.42 115.48 238.29 115.48 238.29 115.52"/><polyline class="cls-5" points="463.22 85.13 463.22 99.13 0.5 99.13 0.5 85.13"/></g></g></svg>