<svg xmlns="http://www.w3.org/2000/svg" viewBox="0 0 368.8 613.49"><defs><style>.cls-1{fill:#f7a800;}.cls-2{fill:#ffd28b;}.cls-3,.cls-4{fill:none;stroke-miterlimit:10;}.cls-3{stroke:#0093c9;}.cls-4{stroke:#808285;}.cls-5{fill:#808285;}.cls-6{fill:#fff;}.cls-7{fill:#0093c9;}.cls-8{fill:#cfd1d2;}</style></defs><title>first-line-chart-1-sm</title><g id="Layer_2" data-name="Layer 2"><g id="Layer_1-2" data-name="Layer 1"><rect class="cls-1" width="368.8" height="613.49"/><rect class="cls-2" y="409.18" width="368.8" height="204.31"/><line class="cls-3" x1="50.97" y1="500.29" x2="50.97" y2="389.13"/><line class="cls-4" x1="135.15" y1="500.29" x2="135.15" y2="389.13"/><line class="cls-3" x1="234.83" y1="500.29" x2="234.83" y2="389.13"/><line class="cls-4" x1="321.02" y1="498.19" x2="321.02" y2="387.03"/><rect class="cls-5" x="201.44" y="325.68" width="154.1" height="66.62"/><path class="cls-6" d="M219.81,346.12,217,336.34h2.13l1.64,6.4,1.78-6.43h1.75l1.79,6.43,1.63-6.4h2.08L227,346.12h-1.85l-1.78-6.18-1.78,6.18Z" transform="translate(0)"/><path class="cls-6" d="M233,346.06V338.2h-2.45v-1.86h6.89v1.86H235v7.86Z" transform="translate(0)"/><path class="cls-6" d="M240.94,346.06l2.38-9.72h2.11l-1,4.14,3.67-4.14h2.71l-4,4.11,1.85,5.61h-2.29L245.18,342l-1.51,1.53-.61,2.56Z" transform="translate(0)"/><path class="cls-6" d="M254.61,346.06,253.43,343h-1l-.72,3.08h-2.11l2.38-9.72h2.79a3.87,3.87,0,0,1,2.83.9,2.76,2.76,0,0,1,.75,2,3.37,3.37,0,0,1-.9,2.45L257,342a3.34,3.34,0,0,1-.53.34,4.08,4.08,0,0,1-.88.36l1.33,3.32Zm-1.71-4.93H254a2.28,2.28,0,0,0,1.65-.54,1.66,1.66,0,0,0,.44-1.18,1.08,1.08,0,0,0-.32-.82,1.65,1.65,0,0,0-1.21-.35h-1Z" transform="translate(0)"/><path class="cls-6" d="M257.49,346.06l5.82-9.79h2l1,9.79h-2.15l-.17-2.18h-3.12l-1.21,2.18Zm4.64-4h1.74l-.15-3.18Z" transform="translate(0)"/><path class="cls-6" d="M270.75,346.2a4.23,4.23,0,0,1-3.58-1.78l1.57-1.36a3,3,0,0,0,2.11,1.28,1,1,0,0,0,.72-.25.81.81,0,0,0,.28-.62,1,1,0,0,0-.26-.62,6.09,6.09,0,0,0-1-.84,6.53,6.53,0,0,1-1.39-1.33,2.32,2.32,0,0,1-.46-1.4,2.9,2.9,0,0,1,.83-2.1,3.32,3.32,0,0,1,2.44-1,4.23,4.23,0,0,1,3.19,1.45l-1.44,1.46a2.66,2.66,0,0,0-1.82-1,1,1,0,0,0-.72.25.81.81,0,0,0-.26.6,1,1,0,0,0,.25.62,5.81,5.81,0,0,0,1,.83,6.36,6.36,0,0,1,1.39,1.31,2.39,2.39,0,0,1,.47,1.46,2.91,2.91,0,0,1-.87,2.14A3.33,3.33,0,0,1,270.75,346.2Z" transform="translate(0)"/><path class="cls-6" d="M278.77,346.06v-7.45h2v1a2.33,2.33,0,0,1,1.93-1.14,1.93,1.93,0,0,1,1.83,1.08,2.69,2.69,0,0,1,2.11-1.08,2.09,2.09,0,0,1,1.61.65,2.64,2.64,0,0,1,.6,1.85v5.08h-2v-4.49q0-1.32-1-1.32a1,1,0,0,0-.78.34,1.51,1.51,0,0,0-.28,1v4.49h-2v-4.49q0-1.32-1-1.32a1,1,0,0,0-.78.34,1.51,1.51,0,0,0-.28,1v4.49Z" transform="translate(0)"/><path class="cls-6" d="M294.49,346.2a3.91,3.91,0,0,1-3.1-1.35,5.25,5.25,0,0,1-1.18-3.58v-.12a5.13,5.13,0,0,1,1.24-3.57,4.07,4.07,0,0,1,3.17-1.38,4.2,4.2,0,0,1,3.13,1.29L296.53,339a2.77,2.77,0,0,0-2-1,2,2,0,0,0-1.62.85,3.64,3.64,0,0,0-.64,2.25v0a3.61,3.61,0,0,0,.65,2.26,2,2,0,0,0,1.64.85,2.9,2.9,0,0,0,2-1l1.21,1.43a5.32,5.32,0,0,1-1.47,1.09A4.16,4.16,0,0,1,294.49,346.2Z" transform="translate(0)"/><path class="cls-6" d="M299.16,346.06v-9.72h3.65a3.57,3.57,0,0,1,2.64.93,3,3,0,0,1,.82,2.25v.06a2.88,2.88,0,0,1-1.81,2.88l2.07,3.61h-2.31l-1.79-3.19h-1.26v3.19Zm2-5h1.49a1.63,1.63,0,0,0,1.17-.4,1.4,1.4,0,0,0,.42-1.06h0a1.37,1.37,0,0,0-.42-1.09,1.78,1.78,0,0,0-1.2-.37h-1.44Z" transform="translate(0)"/><path class="cls-6" d="M311.8,346.2a3.91,3.91,0,0,1-3.1-1.35,5.25,5.25,0,0,1-1.18-3.58v-.12a5.13,5.13,0,0,1,1.24-3.57,4.07,4.07,0,0,1,3.17-1.38,4.2,4.2,0,0,1,3.13,1.29L313.84,339a2.77,2.77,0,0,0-2-1,2,2,0,0,0-1.62.85,3.64,3.64,0,0,0-.64,2.25v0a3.61,3.61,0,0,0,.65,2.26,2,2,0,0,0,1.64.85,2.9,2.9,0,0,0,2-1l1.21,1.43a5.32,5.32,0,0,1-1.47,1.09A4.16,4.16,0,0,1,311.8,346.2Z" transform="translate(0)"/><path class="cls-6" d="M217.69,363v-9.72H224v1.85h-4.25v2.18h3.74v1.85h-3.74V363Z" transform="translate(0)"/><path class="cls-6" d="M229.43,363.2a4,4,0,0,1-3.17-1.37,5.15,5.15,0,0,1-1.22-3.56v-.17a5.17,5.17,0,0,1,1.24-3.57,4.32,4.32,0,0,1,6.33,0,5.16,5.16,0,0,1,1.22,3.56v.17a5.17,5.17,0,0,1-1.24,3.57A4,4,0,0,1,229.43,363.2Zm-1.67-2.72a2,2,0,0,0,1.68.85,2,2,0,0,0,1.67-.85,3.67,3.67,0,0,0,.64-2.26v-.1a3.67,3.67,0,0,0-.65-2.27,2.07,2.07,0,0,0-3.35,0,3.64,3.64,0,0,0-.65,2.26v.1A3.64,3.64,0,0,0,227.76,360.49Z" transform="translate(0)"/><path class="cls-6" d="M235.43,363v-9.72h2v7.88h3.93V363Z" transform="translate(0)"/><path class="cls-6" d="M242.72,363v-9.72H249v1.85h-4.25v2.18h3.74v1.85h-3.74V363Z" transform="translate(0)"/><path class="cls-6" d="M254.46,363.2a4,4,0,0,1-3.17-1.37,5.15,5.15,0,0,1-1.22-3.56v-.17a5.17,5.17,0,0,1,1.24-3.57,4.32,4.32,0,0,1,6.33,0,5.16,5.16,0,0,1,1.22,3.56v.17a5.17,5.17,0,0,1-1.24,3.57A4,4,0,0,1,254.46,363.2Zm-1.67-2.72a2,2,0,0,0,1.68.85,2,2,0,0,0,1.67-.85,3.67,3.67,0,0,0,.64-2.26v-.1a3.67,3.67,0,0,0-.65-2.27,2.07,2.07,0,0,0-3.35,0,3.64,3.64,0,0,0-.65,2.26v.1A3.64,3.64,0,0,0,252.79,360.49Z" transform="translate(0)"/><path class="cls-6" d="M265.57,353.31h2.24L265,358.06l2.89,5h-2.29l-1.78-3.33L262.06,363h-2.24l2.88-4.95-2.75-4.78h2.29l1.65,3.15Z" transform="translate(0)"/><path class="cls-6" d="M274,363.18a2.12,2.12,0,0,1-2.21-2.26v-.08a2.21,2.21,0,0,1,.7-1.78,2.83,2.83,0,0,1,1.9-.6,4.24,4.24,0,0,1,1.56.31v-.22a1.25,1.25,0,0,0-.37-1,1.48,1.48,0,0,0-1-.33,4.52,4.52,0,0,0-1.71.42l-.54-1.54a5.6,5.6,0,0,1,2.54-.6,2.69,2.69,0,0,1,3,3V363H275.9v-.81A2.31,2.31,0,0,1,274,363.18Zm.65-1.44a1.35,1.35,0,0,0,.95-.31,1,1,0,0,0,.38-.83V360a2.54,2.54,0,0,0-1.1-.24,1.28,1.28,0,0,0-.87.27,1,1,0,0,0-.31.77v0a.88.88,0,0,0,.26.68A1,1,0,0,0,274.63,361.73Z" transform="translate(0)"/><path class="cls-6" d="M279.42,363V353h2v10Z" transform="translate(0)"/><path class="cls-6" d="M288.77,362.13a3.46,3.46,0,0,1-5,0,3.84,3.84,0,0,1-1-2.72v-.15a3.85,3.85,0,0,1,1-2.73,3.47,3.47,0,0,1,5,0,3.86,3.86,0,0,1,1,2.73v.15A3.87,3.87,0,0,1,288.77,362.13Zm-2.49-.63a1.31,1.31,0,0,0,1.13-.59,2.58,2.58,0,0,0,.42-1.52v-.1a2.56,2.56,0,0,0-.43-1.52,1.37,1.37,0,0,0-2.26,0,2.58,2.58,0,0,0-.42,1.52v.1a2.53,2.53,0,0,0,.44,1.52A1.34,1.34,0,0,0,286.28,361.5Z" transform="translate(0)"/><path class="cls-6" d="M291.07,363v-7.45h2v1a2.35,2.35,0,0,1,1.92-1.14,2,2,0,0,1,1.61.67,2.72,2.72,0,0,1,.58,1.84V363h-2v-4.49q0-1.32-1.06-1.32a1,1,0,0,0-.79.34,1.47,1.47,0,0,0-.29,1V363Z" transform="translate(0)"/><path class="cls-6" d="M301.86,363.2a3.29,3.29,0,0,1-2.49-1,3.85,3.85,0,0,1-1-2.76v-.12a4.07,4.07,0,0,1,.92-2.74,2.93,2.93,0,0,1,2.33-1.08,2.75,2.75,0,0,1,2.35,1.1,4.67,4.67,0,0,1,.82,2.85q0,.35,0,.64h-4.45a1.9,1.9,0,0,0,.55,1.11,1.51,1.51,0,0,0,1.06.39,2.25,2.25,0,0,0,1.56-.74l1,1.19A3.44,3.44,0,0,1,301.86,363.2Zm-1.54-4.46h2.57a2.4,2.4,0,0,0-.4-1.22,1,1,0,0,0-.87-.44,1.07,1.07,0,0,0-.88.44A2.38,2.38,0,0,0,300.32,358.75Z" transform="translate(0)"/><path class="cls-6" d="M221.07,381.94a6.68,6.68,0,0,1,0-11.85l.78,1.29a5.09,5.09,0,0,0-1.85,2,6.53,6.53,0,0,0,0,5.37,5.1,5.1,0,0,0,1.85,1.94Z" transform="translate(0)"/><path class="cls-6" d="M223.1,380v-7.45h2v1a2.35,2.35,0,0,1,1.92-1.14,2,2,0,0,1,1.61.67,2.72,2.72,0,0,1,.58,1.84V380h-2v-4.49q0-1.32-1.06-1.32a1,1,0,0,0-.79.34,1.47,1.47,0,0,0-.29,1V380Z" transform="translate(0)"/><path class="cls-6" d="M233.83,374.39v-1.85H240v1.85Zm0,3.32v-1.85H240v1.85Z" transform="translate(0)"/><path class="cls-6" d="M247.53,380.18a4.19,4.19,0,0,1-3.21-1.36l1.21-1.42a2.65,2.65,0,0,0,2,.94,1.37,1.37,0,0,0,1-.35,1.19,1.19,0,0,0,.38-.92v0a1.11,1.11,0,0,0-.51-1,2.53,2.53,0,0,0-1.44-.35h-.58l-.24-1.28,2.14-2.38h-3.37v-1.79h5.85v1.6l-2.28,2.39a3.33,3.33,0,0,1,1.74.88,2.45,2.45,0,0,1,.68,1.83v0a3,3,0,0,1-.91,2.28A3.3,3.3,0,0,1,247.53,380.18Z" transform="translate(0)"/><path class="cls-6" d="M255,380.18a4.19,4.19,0,0,1-3.21-1.36L253,377.4a2.65,2.65,0,0,0,2,.94,1.37,1.37,0,0,0,1-.35,1.19,1.19,0,0,0,.38-.92v0a1.11,1.11,0,0,0-.51-1,2.53,2.53,0,0,0-1.44-.35h-.58l-.24-1.28,2.14-2.38h-3.37v-1.79h5.85v1.6l-2.28,2.39a3.33,3.33,0,0,1,1.74.88,2.45,2.45,0,0,1,.68,1.83v0a3,3,0,0,1-.91,2.28A3.3,3.3,0,0,1,255,380.18Z" transform="translate(0)"/><path class="cls-6" d="M261.06,380v-7.72l-1.49.4-.32-1.75,2.4-.72H263V380Z" transform="translate(0)"/><path class="cls-6" d="M265.36,381.94l-.78-1.29a5.09,5.09,0,0,0,1.85-1.94,6.54,6.54,0,0,0,0-5.37,5.08,5.08,0,0,0-1.85-2l.78-1.29a6.68,6.68,0,0,1,0,11.85Z" transform="translate(0)"/><rect class="cls-5" x="13.48" y="325.68" width="154.15" height="66.62"/><path class="cls-6" d="M33.89,347.54l-2.78-9.78h2.13l1.64,6.4,1.78-6.43H38.4l1.79,6.43,1.63-6.4H43.9l-2.78,9.78H39.28l-1.78-6.18-1.78,6.18Z" transform="translate(0)"/><path class="cls-6" d="M46.77,347.49v-7.86H44.32v-1.86h6.89v1.86H48.77v7.86Z" transform="translate(0)"/><path class="cls-6" d="M54.2,347.49l2.38-9.72h2.11l-1,4.14,3.67-4.14h2.71l-4,4.11,1.85,5.61H59.6l-1.17-4.08-1.51,1.53-.61,2.56Z" transform="translate(0)"/><path class="cls-6" d="M67.59,347.49l-1.18-3.08h-1l-.72,3.08H62.54l2.38-9.72h2.79a3.87,3.87,0,0,1,2.83.9,2.76,2.76,0,0,1,.75,2,3.37,3.37,0,0,1-.9,2.45l-.37.35a3.34,3.34,0,0,1-.53.34,4.08,4.08,0,0,1-.88.36l1.33,3.32Zm-1.71-4.93H67a2.28,2.28,0,0,0,1.65-.54,1.66,1.66,0,0,0,.44-1.18,1.08,1.08,0,0,0-.32-.82,1.65,1.65,0,0,0-1.21-.35h-1Z" transform="translate(0)"/><path class="cls-6" d="M70.18,347.49,76,337.7h2l1,9.79H76.93l-.17-2.18H73.64l-1.21,2.18Zm4.64-4h1.74l-.15-3.18Z" transform="translate(0)"/><path class="cls-6" d="M83.17,347.63a4.23,4.23,0,0,1-3.58-1.78l1.57-1.36a3,3,0,0,0,2.11,1.28,1,1,0,0,0,.72-.25.81.81,0,0,0,.28-.62,1,1,0,0,0-.26-.62,6.09,6.09,0,0,0-1-.84,6.53,6.53,0,0,1-1.39-1.33,2.32,2.32,0,0,1-.46-1.4,2.9,2.9,0,0,1,.83-2.1,3.32,3.32,0,0,1,2.44-1,4.23,4.23,0,0,1,3.19,1.45l-1.44,1.46a2.66,2.66,0,0,0-1.82-1,1,1,0,0,0-.72.25.81.81,0,0,0-.26.6,1,1,0,0,0,.25.62,5.81,5.81,0,0,0,1,.83A6.36,6.36,0,0,1,86,343.08a2.39,2.39,0,0,1,.47,1.46,2.91,2.91,0,0,1-.87,2.14A3.33,3.33,0,0,1,83.17,347.63Z" transform="translate(0)"/><path class="cls-6" d="M88.92,344.18l.15-3.75-1.47.14v-1.15l1.46.15-.18-1.81h1.25l-.19,1.81,1.47-.15v1.15l-1.49-.14.15,3.75Z" transform="translate(0)"/><path class="cls-6" d="M95.34,347.49V340h2v1a2.33,2.33,0,0,1,1.93-1.14,1.93,1.93,0,0,1,1.83,1.08,2.69,2.69,0,0,1,2.11-1.08,2.09,2.09,0,0,1,1.61.65,2.64,2.64,0,0,1,.6,1.85v5.08h-2V343q0-1.32-1-1.32a1,1,0,0,0-.78.34,1.51,1.51,0,0,0-.28,1v4.49h-2V343q0-1.32-1-1.32a1,1,0,0,0-.78.34,1.51,1.51,0,0,0-.28,1v4.49Z" transform="translate(0)"/><path class="cls-6" d="M110.78,347.63a3.91,3.91,0,0,1-3.1-1.35,5.25,5.25,0,0,1-1.18-3.58v-.12a5.13,5.13,0,0,1,1.24-3.57,4.07,4.07,0,0,1,3.17-1.38,4.2,4.2,0,0,1,3.13,1.29l-1.21,1.56a2.77,2.77,0,0,0-2-1,2,2,0,0,0-1.62.85,3.64,3.64,0,0,0-.64,2.25v0a3.61,3.61,0,0,0,.65,2.26,2,2,0,0,0,1.64.85,2.9,2.9,0,0,0,2-1l1.21,1.43a5.32,5.32,0,0,1-1.47,1.09A4.16,4.16,0,0,1,110.78,347.63Z" transform="translate(0)"/><path class="cls-6" d="M115.17,347.49v-9.72h3.65a3.57,3.57,0,0,1,2.64.93,3,3,0,0,1,.82,2.25V341a2.88,2.88,0,0,1-1.81,2.88l2.07,3.61h-2.31l-1.79-3.19h-1.26v3.19Zm2-5h1.49a1.63,1.63,0,0,0,1.17-.4,1.4,1.4,0,0,0,.42-1.06h0a1.37,1.37,0,0,0-.42-1.09,1.78,1.78,0,0,0-1.2-.37h-1.44Z" transform="translate(0)"/><path class="cls-6" d="M127.53,347.63a3.91,3.91,0,0,1-3.1-1.35,5.25,5.25,0,0,1-1.18-3.58v-.12a5.13,5.13,0,0,1,1.24-3.57,4.07,4.07,0,0,1,3.17-1.38,4.2,4.2,0,0,1,3.13,1.29l-1.21,1.56a2.77,2.77,0,0,0-2-1,2,2,0,0,0-1.62.85,3.64,3.64,0,0,0-.64,2.25v0a3.61,3.61,0,0,0,.65,2.26,2,2,0,0,0,1.64.85,2.9,2.9,0,0,0,2-1l1.21,1.43a5.32,5.32,0,0,1-1.47,1.09A4.16,4.16,0,0,1,127.53,347.63Z" transform="translate(0)"/><path class="cls-6" d="M34.32,364.52,31,354.74h2.18l2.06,6.69,2.06-6.69h2.13l-3.28,9.78Z" transform="translate(0)"/><path class="cls-6" d="M43.39,364.63a3.29,3.29,0,0,1-2.49-1,3.85,3.85,0,0,1-1-2.76v-.12a4.07,4.07,0,0,1,.92-2.74,2.93,2.93,0,0,1,2.33-1.08A2.75,2.75,0,0,1,45.5,358a4.67,4.67,0,0,1,.82,2.85q0,.35,0,.64H41.86a1.9,1.9,0,0,0,.55,1.11,1.51,1.51,0,0,0,1.06.39,2.25,2.25,0,0,0,1.56-.74l1,1.19A3.44,3.44,0,0,1,43.39,364.63Zm-1.54-4.46h2.57a2.4,2.4,0,0,0-.4-1.22,1,1,0,0,0-.87-.44,1.07,1.07,0,0,0-.88.44A2.38,2.38,0,0,0,41.85,360.17Z" transform="translate(0)"/><path class="cls-6" d="M50.42,364.63A3.11,3.11,0,0,1,48,363.57a3.92,3.92,0,0,1-1-2.72v-.17A3.93,3.93,0,0,1,48,358a3.18,3.18,0,0,1,2.48-1.08,3.31,3.31,0,0,1,2.43,1l-1.07,1.43a1.86,1.86,0,0,0-1.33-.67,1.29,1.29,0,0,0-1.1.58,2.49,2.49,0,0,0-.42,1.49v.06a2.54,2.54,0,0,0,.42,1.52,1.33,1.33,0,0,0,1.14.58,1.88,1.88,0,0,0,1.35-.68l1,1.31A3.27,3.27,0,0,1,50.42,364.63Z" transform="translate(0)"/><path class="cls-6" d="M56.06,364.59a2.15,2.15,0,0,1-1.45-.45,1.94,1.94,0,0,1-.52-1.54v-3.92h-.75V357h.75v-1.9h2V357h1.47v1.67H56.06v3.51q0,.64.61.64a1.88,1.88,0,0,0,.85-.21v1.57A2.9,2.9,0,0,1,56.06,364.59Z" transform="translate(0)"/><path class="cls-6" d="M58.57,356.23v-1.79h2.06v1.79Zm0,8.24V357h2v7.45Z" transform="translate(0)"/><path class="cls-6" d="M68,363.63a2.54,2.54,0,0,1-2,1,2.44,2.44,0,0,1-2-1.1v1H62v-10h2V358a2.38,2.38,0,0,1,2-1.17,2.54,2.54,0,0,1,2,1,4.19,4.19,0,0,1,.82,2.78v.22A4.19,4.19,0,0,1,68,363.63Zm-3.64-1.32a1.25,1.25,0,0,0,1,.57,1.23,1.23,0,0,0,1-.57,2.51,2.51,0,0,0,.41-1.5v-.14a2.51,2.51,0,0,0-.41-1.5,1.23,1.23,0,0,0-1-.57,1.25,1.25,0,0,0-1,.57,2.48,2.48,0,0,0-.42,1.5v.14A2.48,2.48,0,0,0,64.34,362.31Z" transform="translate(0)"/><path class="cls-6" d="M69.86,356.23v-1.79h2.06v1.79Zm0,8.24V357h2v7.45Z" transform="translate(0)"/><path class="cls-6" d="M74.89,357l1.17,2.18L77.24,357h2l-2.15,3.63,2.24,3.82h-2.1L76,362.14l-1.25,2.32H72.73l2.22-3.79L72.81,357Z" transform="translate(0)"/><path class="cls-6" d="M83.37,358.78a2.15,2.15,0,0,1-3.17,0,2.43,2.43,0,0,1-.64-1.72V357a2.45,2.45,0,0,1,.64-1.72,2.15,2.15,0,0,1,3.17,0A2.45,2.45,0,0,1,84,357v.07A2.46,2.46,0,0,1,83.37,358.78Zm-3-.19a1.86,1.86,0,0,0,2.76,0,2.2,2.2,0,0,0,.55-1.52V357a2.2,2.2,0,0,0-.55-1.53,1.86,1.86,0,0,0-2.76,0,2.21,2.21,0,0,0-.55,1.52v.08A2.18,2.18,0,0,0,80.4,358.59Zm.44-.31V355.7h1q1,0,1,.85h0a.77.77,0,0,1-.49.78l.56.95h-.74l-.47-.81h-.25v.81Zm.65-1.35h.33q.39,0,.39-.33t-.39-.35h-.33Z" transform="translate(0)"/><path class="cls-6" d="M89.77,362.74v-2.26H87.53v-1.81h2.24v-2.26h1.85v2.26h2.24v1.81H91.62v2.26Z" transform="translate(0)"/><path class="cls-6" d="M98.13,364.46v-9.72h6.26v1.85h-4.25v2.18h3.74v1.85h-3.74v3.85Z" transform="translate(0)"/><path class="cls-6" d="M109.59,364.63a4,4,0,0,1-3.17-1.37,5.15,5.15,0,0,1-1.22-3.56v-.17a5.17,5.17,0,0,1,1.24-3.57,4.32,4.32,0,0,1,6.33,0,5.16,5.16,0,0,1,1.22,3.56v.17a5.17,5.17,0,0,1-1.24,3.57A4,4,0,0,1,109.59,364.63Zm-1.67-2.72a2,2,0,0,0,1.68.85,2,2,0,0,0,1.67-.85,3.67,3.67,0,0,0,.64-2.26v-.1a3.67,3.67,0,0,0-.65-2.27,2.07,2.07,0,0,0-3.35,0,3.64,3.64,0,0,0-.65,2.26v.1A3.64,3.64,0,0,0,107.92,361.92Z" transform="translate(0)"/><path class="cls-6" d="M115.31,364.46v-9.72h2v7.88h3.93v1.85Z" transform="translate(0)"/><path class="cls-6" d="M122.33,364.46v-9.72h6.26v1.85h-4.25v2.18h3.74v1.85h-3.74v3.85Z" transform="translate(0)"/><path class="cls-6" d="M133.78,364.63a4,4,0,0,1-3.17-1.37,5.15,5.15,0,0,1-1.22-3.56v-.17a5.17,5.17,0,0,1,1.24-3.57,4.32,4.32,0,0,1,6.33,0,5.16,5.16,0,0,1,1.22,3.56v.17a5.17,5.17,0,0,1-1.24,3.57A4,4,0,0,1,133.78,364.63Zm-1.67-2.72a2,2,0,0,0,1.68.85,2,2,0,0,0,1.67-.85,3.67,3.67,0,0,0,.64-2.26v-.1a3.67,3.67,0,0,0-.65-2.27,2.07,2.07,0,0,0-3.35,0,3.64,3.64,0,0,0-.65,2.26v.1A3.64,3.64,0,0,0,132.12,361.92Z" transform="translate(0)"/><path class="cls-6" d="M144.62,354.74h2.24l-2.78,4.75,2.89,5h-2.29l-1.78-3.33-1.79,3.33h-2.24l2.88-4.95L139,354.74h2.29l1.65,3.15Z" transform="translate(0)"/><path class="cls-6" d="M35.15,383.37a6.68,6.68,0,0,1,0-11.85l.78,1.29a5.09,5.09,0,0,0-1.85,2,6.53,6.53,0,0,0,0,5.37,5.1,5.1,0,0,0,1.85,1.94Z" transform="translate(0)"/><path class="cls-6" d="M36.9,381.44V374h2v1a2.35,2.35,0,0,1,1.92-1.14,2,2,0,0,1,1.61.67,2.72,2.72,0,0,1,.58,1.84v5.07H41V377q0-1.32-1.06-1.32a1,1,0,0,0-.79.34,1.47,1.47,0,0,0-.29,1v4.49Z" transform="translate(0)"/><path class="cls-6" d="M47.09,375.82V374h6.19v1.85Zm0,3.32v-1.85h6.19v1.85Z" transform="translate(0)"/><path class="cls-6" d="M60.22,381.61A4.19,4.19,0,0,1,57,380.25l1.21-1.42a2.65,2.65,0,0,0,2,.94,1.37,1.37,0,0,0,1-.35,1.19,1.19,0,0,0,.38-.92v0a1.11,1.11,0,0,0-.51-1,2.53,2.53,0,0,0-1.44-.35H59l-.24-1.28,2.14-2.38H57.53v-1.79h5.85v1.6L61.1,375.7a3.33,3.33,0,0,1,1.74.88,2.45,2.45,0,0,1,.68,1.83v0a3,3,0,0,1-.91,2.28A3.3,3.3,0,0,1,60.22,381.61Z" transform="translate(0)"/><path class="cls-6" d="M64.49,381.44v-1.62l2.86-2.94a8.57,8.57,0,0,0,1.1-1.3,1.86,1.86,0,0,0,.3-1,1.1,1.1,0,0,0-.33-.85,1.18,1.18,0,0,0-.84-.31,1.54,1.54,0,0,0-.88.27,4.63,4.63,0,0,0-.9.88l-1.31-1.24a3.88,3.88,0,0,1,3.24-1.76,3.17,3.17,0,0,1,2.21.76,2.65,2.65,0,0,1,.85,2.07v0a3.1,3.1,0,0,1-.45,1.68A11.12,11.12,0,0,1,68.72,378l-1.62,1.65h3.71v1.81Z" transform="translate(0)"/><path class="cls-6" d="M74.72,381.61a4.4,4.4,0,0,1-3.11-1.24l1.13-1.5a3,3,0,0,0,1.94.88,1.51,1.51,0,0,0,1.08-.38,1.38,1.38,0,0,0,.4-1h0a1.25,1.25,0,0,0-.44-1,1.7,1.7,0,0,0-1.13-.37,3.32,3.32,0,0,0-1.33.31l-1.12-.74.28-4.78h5.32v1.81H74.09L74,375.29a4.23,4.23,0,0,1,1.08-.14,3.23,3.23,0,0,1,2.22.76,2.91,2.91,0,0,1,.87,2.31v0a3.22,3.22,0,0,1-.94,2.44A3.43,3.43,0,0,1,74.72,381.61Z" transform="translate(0)"/><path class="cls-6" d="M79.74,383.37,79,382.08a5.09,5.09,0,0,0,1.85-1.94,6.54,6.54,0,0,0,0-5.37,5.08,5.08,0,0,0-1.85-2l.78-1.29a6.68,6.68,0,0,1,0,11.85Z" transform="translate(0)"/><rect class="cls-7" x="9.05" y="471.15" width="78.58" height="97.05"/><path class="cls-6" d="M21.28,493l-2.78-9.78h2.13l1.64,6.4L24,483.21H25.8l1.79,6.43,1.63-6.4H31.3L28.52,493H26.67l-1.78-6.18L23.12,493Z" transform="translate(0)"/><path class="cls-6" d="M34.16,493V485.1H31.71v-1.86H38.6v1.86H36.16V493Z" transform="translate(0)"/><path class="cls-6" d="M46.63,493l-1.18-3.08h-1L43.7,493H41.59L44,483.24h2.79a3.87,3.87,0,0,1,2.83.9,2.76,2.76,0,0,1,.75,2,3.37,3.37,0,0,1-.9,2.45l-.37.35a3.34,3.34,0,0,1-.53.34,4.08,4.08,0,0,1-.88.36L49,493ZM44.92,488H46a2.28,2.28,0,0,0,1.65-.54,1.66,1.66,0,0,0,.44-1.18,1.08,1.08,0,0,0-.32-.82,1.65,1.65,0,0,0-1.21-.35h-1Z" transform="translate(0)"/><path class="cls-6" d="M49.23,493l5.82-9.79h2l1,9.79H56l-.17-2.18H52.69L51.48,493Zm4.64-4h1.74l-.15-3.18Z" transform="translate(0)"/><path class="cls-6" d="M62.22,493.1a4.23,4.23,0,0,1-3.58-1.78L60.2,490a3,3,0,0,0,2.11,1.28A1,1,0,0,0,63,491a.81.81,0,0,0,.28-.62,1,1,0,0,0-.26-.62,6.09,6.09,0,0,0-1-.84,6.53,6.53,0,0,1-1.39-1.33,2.32,2.32,0,0,1-.46-1.4,2.9,2.9,0,0,1,.83-2.1,3.32,3.32,0,0,1,2.44-1,4.23,4.23,0,0,1,3.19,1.45L65.24,486a2.66,2.66,0,0,0-1.82-1,1,1,0,0,0-.72.25.81.81,0,0,0-.26.6,1,1,0,0,0,.25.62,5.81,5.81,0,0,0,1,.83,6.36,6.36,0,0,1,1.39,1.31,2.39,2.39,0,0,1,.47,1.46,2.91,2.91,0,0,1-.87,2.14A3.33,3.33,0,0,1,62.22,493.1Z" transform="translate(0)"/><path class="cls-6" d="M19,509.94v-7.45h2v1a2.33,2.33,0,0,1,1.93-1.14,1.93,1.93,0,0,1,1.83,1.08,2.69,2.69,0,0,1,2.11-1.08,2.09,2.09,0,0,1,1.61.65,2.64,2.64,0,0,1,.6,1.85v5.08h-2v-4.49q0-1.32-1-1.32a1,1,0,0,0-.78.34,1.51,1.51,0,0,0-.28,1v4.49H23v-4.49q0-1.32-1-1.32a1,1,0,0,0-.78.34,1.51,1.51,0,0,0-.28,1v4.49Z" transform="translate(0)"/><path class="cls-6" d="M34.44,510.08a3.91,3.91,0,0,1-3.1-1.35,5.25,5.25,0,0,1-1.18-3.58V505a5.13,5.13,0,0,1,1.24-3.57,4.07,4.07,0,0,1,3.17-1.38,4.2,4.2,0,0,1,3.13,1.29l-1.21,1.56a2.77,2.77,0,0,0-2-1,2,2,0,0,0-1.62.85,3.64,3.64,0,0,0-.64,2.25v0a3.61,3.61,0,0,0,.65,2.26,2,2,0,0,0,1.64.85,2.9,2.9,0,0,0,2-1l1.21,1.43a5.32,5.32,0,0,1-1.47,1.09A4.16,4.16,0,0,1,34.44,510.08Z" transform="translate(0)"/><path class="cls-6" d="M38.83,509.94v-9.72h3.65a3.57,3.57,0,0,1,2.64.93,3,3,0,0,1,.82,2.25v.06a2.88,2.88,0,0,1-1.81,2.88l2.07,3.61H43.9l-1.79-3.19H40.84v3.19Zm2-5h1.49a1.63,1.63,0,0,0,1.17-.4,1.4,1.4,0,0,0,.42-1.06h0a1.37,1.37,0,0,0-.42-1.09,1.78,1.78,0,0,0-1.2-.37H40.84Z" transform="translate(0)"/><path class="cls-6" d="M51.19,510.08a3.91,3.91,0,0,1-3.1-1.35,5.25,5.25,0,0,1-1.18-3.58V505a5.13,5.13,0,0,1,1.24-3.57,4.07,4.07,0,0,1,3.17-1.38,4.2,4.2,0,0,1,3.13,1.29l-1.21,1.56a2.77,2.77,0,0,0-2-1,2,2,0,0,0-1.62.85A3.64,3.64,0,0,0,49,505v0a3.61,3.61,0,0,0,.65,2.26,2,2,0,0,0,1.64.85,2.9,2.9,0,0,0,2-1l1.21,1.43A5.32,5.32,0,0,1,53,509.71,4.16,4.16,0,0,1,51.19,510.08Z" transform="translate(0)"/><path class="cls-6" d="M21.71,527l-3.28-9.78h2.18l2.06,6.69,2.06-6.69h2.13L23.57,527Z" transform="translate(0)"/><path class="cls-6" d="M30.78,527.08a3.29,3.29,0,0,1-2.49-1,3.85,3.85,0,0,1-1-2.76v-.12a4.07,4.07,0,0,1,.92-2.74,2.93,2.93,0,0,1,2.33-1.08,2.75,2.75,0,0,1,2.35,1.1,4.67,4.67,0,0,1,.82,2.85q0,.35,0,.64H29.26A1.9,1.9,0,0,0,29.8,525a1.51,1.51,0,0,0,1.06.39,2.25,2.25,0,0,0,1.56-.74l1,1.19A3.44,3.44,0,0,1,30.78,527.08Zm-1.54-4.46h2.57a2.4,2.4,0,0,0-.4-1.22,1,1,0,0,0-.87-.44,1.07,1.07,0,0,0-.88.44A2.38,2.38,0,0,0,29.24,522.62Z" transform="translate(0)"/><path class="cls-6" d="M37.81,527.08A3.11,3.11,0,0,1,35.39,526a3.92,3.92,0,0,1-1-2.72v-.17a3.93,3.93,0,0,1,1-2.73,3.18,3.18,0,0,1,2.48-1.08,3.31,3.31,0,0,1,2.43,1l-1.07,1.43a1.86,1.86,0,0,0-1.33-.67,1.29,1.29,0,0,0-1.1.58,2.49,2.49,0,0,0-.42,1.49v.06a2.54,2.54,0,0,0,.42,1.52,1.33,1.33,0,0,0,1.14.58,1.88,1.88,0,0,0,1.35-.68l1,1.31A3.27,3.27,0,0,1,37.81,527.08Z" transform="translate(0)"/><path class="cls-6" d="M43.45,527a2.15,2.15,0,0,1-1.45-.45,1.94,1.94,0,0,1-.52-1.54v-3.92h-.75v-1.67h.75v-1.9h2v1.9h1.47v1.67H43.45v3.51q0,.64.61.64a1.88,1.88,0,0,0,.85-.21v1.57A2.9,2.9,0,0,1,43.45,527Z" transform="translate(0)"/><path class="cls-6" d="M46,518.68v-1.79H48v1.79Zm0,8.24v-7.45h2v7.45Z" transform="translate(0)"/><path class="cls-6" d="M55.37,526.08a2.54,2.54,0,0,1-2,1,2.44,2.44,0,0,1-2-1.1v1h-2v-10h2v3.61a2.38,2.38,0,0,1,2-1.17,2.54,2.54,0,0,1,2,1,4.19,4.19,0,0,1,.82,2.78v.22A4.19,4.19,0,0,1,55.37,526.08Zm-3.64-1.32a1.25,1.25,0,0,0,1,.57,1.23,1.23,0,0,0,1-.57,2.51,2.51,0,0,0,.41-1.5v-.14a2.51,2.51,0,0,0-.41-1.5,1.23,1.23,0,0,0-1-.57,1.25,1.25,0,0,0-1,.57,2.48,2.48,0,0,0-.42,1.5v.14A2.48,2.48,0,0,0,51.73,524.76Z" transform="translate(0)"/><path class="cls-6" d="M57.26,518.68v-1.79h2.06v1.79Zm0,8.24v-7.45h2v7.45Z" transform="translate(0)"/><path class="cls-6" d="M62.29,519.47l1.17,2.18,1.18-2.18h2l-2.15,3.63,2.24,3.82h-2.1l-1.24-2.32-1.25,2.32H60.12l2.22-3.79-2.14-3.65Z" transform="translate(0)"/><path class="cls-6" d="M70.76,521.23a2.15,2.15,0,0,1-3.17,0,2.43,2.43,0,0,1-.64-1.72v-.08a2.45,2.45,0,0,1,.64-1.72,2.15,2.15,0,0,1,3.17,0,2.45,2.45,0,0,1,.64,1.72v.07A2.46,2.46,0,0,1,70.76,521.23Zm-3-.19a1.86,1.86,0,0,0,2.76,0,2.2,2.2,0,0,0,.55-1.52v-.07a2.2,2.2,0,0,0-.55-1.53,1.86,1.86,0,0,0-2.76,0,2.21,2.21,0,0,0-.55,1.52v.08A2.18,2.18,0,0,0,67.79,521Zm.44-.31v-2.58h1q1,0,1,.85h0a.77.77,0,0,1-.49.78l.56.95h-.74l-.47-.81h-.25v.81Zm.65-1.35h.33q.39,0,.39-.33t-.39-.35h-.33Z" transform="translate(0)"/><path class="cls-6" d="M77.16,525.19v-2.26H74.93v-1.81h2.24v-2.26H79v2.26h2.24v1.81H79v2.26Z" transform="translate(0)"/><path class="cls-6" d="M19.17,543.89v-9.72h6.26V536H21.19v2.18h3.74V540H21.19v3.85Z" transform="translate(0)"/><path class="cls-6" d="M30.63,544.06a4,4,0,0,1-3.17-1.37,5.15,5.15,0,0,1-1.22-3.56V539a5.17,5.17,0,0,1,1.24-3.57,4.32,4.32,0,0,1,6.33,0A5.15,5.15,0,0,1,35,538.93v.17a5.17,5.17,0,0,1-1.24,3.57A4,4,0,0,1,30.63,544.06ZM29,541.34a2,2,0,0,0,1.68.85,2,2,0,0,0,1.67-.85,3.67,3.67,0,0,0,.64-2.26V539a3.68,3.68,0,0,0-.65-2.27,2.07,2.07,0,0,0-3.35,0,3.65,3.65,0,0,0-.65,2.26v.1A3.64,3.64,0,0,0,29,541.34Z" transform="translate(0)"/><path class="cls-6" d="M36.35,543.89v-9.72h2V542H42.3v1.85Z" transform="translate(0)"/><path class="cls-6" d="M43.37,543.89v-9.72h6.26V536H45.38v2.18h3.74V540H45.38v3.85Z" transform="translate(0)"/><path class="cls-6" d="M54.83,544.06a4,4,0,0,1-3.17-1.37,5.15,5.15,0,0,1-1.22-3.56V539a5.17,5.17,0,0,1,1.24-3.57,4.32,4.32,0,0,1,6.33,0,5.16,5.16,0,0,1,1.22,3.56v.17A5.17,5.17,0,0,1,58,542.67,4,4,0,0,1,54.83,544.06Zm-1.67-2.72a2,2,0,0,0,1.68.85,2,2,0,0,0,1.67-.85,3.67,3.67,0,0,0,.64-2.26V539a3.67,3.67,0,0,0-.65-2.27,2.07,2.07,0,0,0-3.35,0,3.64,3.64,0,0,0-.65,2.26v.1A3.64,3.64,0,0,0,53.16,541.34Z" transform="translate(0)"/><path class="cls-6" d="M65.66,534.17H67.9l-2.78,4.75,2.89,5H65.72l-1.78-3.33-1.79,3.33H59.91l2.88-4.95L60,534.17h2.29L64,537.32Z" transform="translate(0)"/><path class="cls-6" d="M22.55,562.8a6.68,6.68,0,0,1,0-11.85l.78,1.29a5.09,5.09,0,0,0-1.85,2,6.54,6.54,0,0,0,0,5.37,5.1,5.1,0,0,0,1.85,1.94Z" transform="translate(0)"/><path class="cls-6" d="M24.3,560.87v-7.45h2v1a2.35,2.35,0,0,1,1.92-1.14,2,2,0,0,1,1.61.67,2.72,2.72,0,0,1,.58,1.84v5.07h-2v-4.49q0-1.32-1.05-1.32a1,1,0,0,0-.79.34,1.47,1.47,0,0,0-.29,1v4.49Z" transform="translate(0)"/><path class="cls-6" d="M34.48,555.24v-1.85h6.19v1.85Zm0,3.32v-1.85h6.19v1.85Z" transform="translate(0)"/><path class="cls-6" d="M44.66,560.87v-1.62l2.86-2.94a8.57,8.57,0,0,0,1.1-1.3,1.86,1.86,0,0,0,.3-1,1.1,1.1,0,0,0-.33-.85,1.18,1.18,0,0,0-.84-.31,1.54,1.54,0,0,0-.88.27,4.63,4.63,0,0,0-.9.88l-1.31-1.24A3.88,3.88,0,0,1,47.91,551a3.17,3.17,0,0,1,2.21.76,2.65,2.65,0,0,1,.85,2.07v0a3.1,3.1,0,0,1-.45,1.68,11.12,11.12,0,0,1-1.62,1.86l-1.62,1.65H51v1.81Z" transform="translate(0)"/><path class="cls-6" d="M54.9,561a4.4,4.4,0,0,1-3.11-1.24l1.13-1.5a3,3,0,0,0,1.94.88,1.51,1.51,0,0,0,1.08-.38,1.38,1.38,0,0,0,.4-1h0a1.25,1.25,0,0,0-.44-1,1.7,1.7,0,0,0-1.13-.37,3.32,3.32,0,0,0-1.33.31l-1.12-.74.28-4.78h5.32v1.81H54.26l-.11,1.76a4.23,4.23,0,0,1,1.08-.14,3.23,3.23,0,0,1,2.22.76,2.91,2.91,0,0,1,.87,2.31v0a3.22,3.22,0,0,1-.94,2.44A3.43,3.43,0,0,1,54.9,561Z" transform="translate(0)"/><path class="cls-6" d="M62.3,559.19a1.45,1.45,0,0,0,1.29-.65,3.12,3.12,0,0,0,.49-1.58,2.77,2.77,0,0,1-1.78.6,3,3,0,0,1-2.17-.82,3.07,3.07,0,0,1-.84-2.31v0a3.34,3.34,0,0,1,.94-2.45,3.51,3.51,0,0,1,4.79,0,5.21,5.21,0,0,1,1.13,3.74v.08a6.54,6.54,0,0,1-1,3.92A3.34,3.34,0,0,1,62.27,561a4.27,4.27,0,0,1-2.75-1l1-1.58A2.9,2.9,0,0,0,62.3,559.19Zm.4-3.33a1.33,1.33,0,0,0,1-.42,1.6,1.6,0,0,0,.38-1.11v0a1.61,1.61,0,0,0-.39-1.13,1.36,1.36,0,0,0-1.06-.42,1.33,1.33,0,0,0-1,.42,1.62,1.62,0,0,0-.37,1.13v0a1.6,1.6,0,0,0,.38,1.13A1.37,1.37,0,0,0,62.7,555.85Z" transform="translate(0)"/><path class="cls-6" d="M67.73,562.8,67,561.51a5.09,5.09,0,0,0,1.85-1.94,6.54,6.54,0,0,0,0-5.37,5.08,5.08,0,0,0-1.85-2l.78-1.29a6.68,6.68,0,0,1,0,11.85Z" transform="translate(0)"/><rect class="cls-8" x="95.77" y="471.15" width="78.76" height="97.05"/><path class="cls-5" d="M105.89,502.23v-9.72H108l2.17,3.94,2.14-3.94h2.13v9.72h-2V496l-2.29,4h0l-2.28-4v6.18Z" transform="translate(0)"/><path class="cls-5" d="M118,502.23v-7.86h-2.45v-1.86h6.89v1.86H120v7.86Z" transform="translate(0)"/><path class="cls-5" d="M130.44,502.23l-1.18-3.08h-1l-.72,3.08h-2.11l2.38-9.72h2.79a3.87,3.87,0,0,1,2.83.9,2.76,2.76,0,0,1,.75,2,3.37,3.37,0,0,1-.9,2.45l-.37.35a3.34,3.34,0,0,1-.53.34,4.08,4.08,0,0,1-.88.36l1.33,3.32Zm-1.71-4.93h1.13a2.28,2.28,0,0,0,1.65-.54,1.66,1.66,0,0,0,.44-1.18,1.08,1.08,0,0,0-.32-.82,1.65,1.65,0,0,0-1.21-.35h-1Z" transform="translate(0)"/><path class="cls-5" d="M133,502.23l5.82-9.79h2l1,9.79h-2.15l-.17-2.18h-3.12l-1.21,2.18Zm4.64-4h1.74l-.15-3.18Z" transform="translate(0)"/><path class="cls-5" d="M146,502.37a4.23,4.23,0,0,1-3.58-1.78l1.57-1.36a3,3,0,0,0,2.11,1.28,1,1,0,0,0,.72-.25.81.81,0,0,0,.28-.62,1,1,0,0,0-.26-.62,6.09,6.09,0,0,0-1-.84,6.53,6.53,0,0,1-1.39-1.33,2.32,2.32,0,0,1-.46-1.4,2.9,2.9,0,0,1,.83-2.1,3.32,3.32,0,0,1,2.44-1,4.23,4.23,0,0,1,3.19,1.45L149,495.27a2.66,2.66,0,0,0-1.82-1,1,1,0,0,0-.72.25.81.81,0,0,0-.26.6,1,1,0,0,0,.25.62,5.81,5.81,0,0,0,1,.83,6.36,6.36,0,0,1,1.39,1.31,2.39,2.39,0,0,1,.47,1.46,2.91,2.91,0,0,1-.87,2.14A3.33,3.33,0,0,1,146,502.37Z" transform="translate(0)"/><path class="cls-5" d="M105.71,519.2v-7.45h2v1a2.33,2.33,0,0,1,1.93-1.14,1.93,1.93,0,0,1,1.83,1.08,2.69,2.69,0,0,1,2.11-1.08,2.09,2.09,0,0,1,1.61.65,2.64,2.64,0,0,1,.6,1.85v5.08h-2v-4.49q0-1.32-1-1.32a1,1,0,0,0-.78.34,1.51,1.51,0,0,0-.28,1v4.49h-2v-4.49q0-1.32-1-1.32a1,1,0,0,0-.78.34,1.51,1.51,0,0,0-.28,1v4.49Z" transform="translate(0)"/><path class="cls-5" d="M121.16,519.34a3.91,3.91,0,0,1-3.1-1.35,5.25,5.25,0,0,1-1.18-3.58v-.12a5.13,5.13,0,0,1,1.24-3.57,4.07,4.07,0,0,1,3.17-1.38,4.2,4.2,0,0,1,3.13,1.29l-1.21,1.56a2.77,2.77,0,0,0-2-1,2,2,0,0,0-1.62.85,3.64,3.64,0,0,0-.64,2.25v0a3.61,3.61,0,0,0,.65,2.26,2,2,0,0,0,1.64.85,2.9,2.9,0,0,0,2-1l1.21,1.43A5.32,5.32,0,0,1,123,519,4.16,4.16,0,0,1,121.16,519.34Z" transform="translate(0)"/><path class="cls-5" d="M125.55,519.2v-9.72h3.65a3.57,3.57,0,0,1,2.64.93,3,3,0,0,1,.82,2.25v.06a2.88,2.88,0,0,1-1.81,2.88l2.07,3.61h-2.31L128.82,516h-1.26v3.19Zm2-5H129a1.63,1.63,0,0,0,1.17-.4,1.4,1.4,0,0,0,.42-1.06h0a1.37,1.37,0,0,0-.42-1.09,1.78,1.78,0,0,0-1.2-.37h-1.44Z" transform="translate(0)"/><path class="cls-5" d="M137.91,519.34a3.91,3.91,0,0,1-3.1-1.35,5.25,5.25,0,0,1-1.18-3.58v-.12a5.13,5.13,0,0,1,1.24-3.57,4.07,4.07,0,0,1,3.17-1.38,4.2,4.2,0,0,1,3.13,1.29L140,512.19a2.77,2.77,0,0,0-2-1,2,2,0,0,0-1.62.85,3.64,3.64,0,0,0-.64,2.25v0a3.61,3.61,0,0,0,.65,2.26,2,2,0,0,0,1.64.85,2.9,2.9,0,0,0,2-1l1.21,1.43a5.32,5.32,0,0,1-1.47,1.09A4.16,4.16,0,0,1,137.91,519.34Z" transform="translate(0)"/><path class="cls-5" d="M108.43,536.24l-3.28-9.78h2.18l2.06,6.69,2.06-6.69h2.13l-3.28,9.78Z" transform="translate(0)"/><path class="cls-5" d="M117.51,536.35a3.29,3.29,0,0,1-2.49-1,3.85,3.85,0,0,1-1-2.76v-.12a4.07,4.07,0,0,1,.92-2.74,2.93,2.93,0,0,1,2.33-1.08,2.75,2.75,0,0,1,2.35,1.1,4.67,4.67,0,0,1,.82,2.85q0,.35,0,.64H116a1.9,1.9,0,0,0,.55,1.11,1.51,1.51,0,0,0,1.06.39,2.25,2.25,0,0,0,1.56-.74l1,1.19A3.44,3.44,0,0,1,117.51,536.35ZM116,531.89h2.57a2.4,2.4,0,0,0-.4-1.22,1,1,0,0,0-.87-.44,1.07,1.07,0,0,0-.88.44A2.38,2.38,0,0,0,116,531.89Z" transform="translate(0)"/><path class="cls-5" d="M124.53,536.35a3.11,3.11,0,0,1-2.42-1.06,3.92,3.92,0,0,1-1-2.72v-.17a3.93,3.93,0,0,1,1-2.73,3.18,3.18,0,0,1,2.48-1.08,3.31,3.31,0,0,1,2.43,1L126,531a1.86,1.86,0,0,0-1.33-.67,1.29,1.29,0,0,0-1.1.58,2.49,2.49,0,0,0-.42,1.49v.06a2.54,2.54,0,0,0,.42,1.52,1.33,1.33,0,0,0,1.14.58,1.88,1.88,0,0,0,1.35-.68l1,1.31A3.27,3.27,0,0,1,124.53,536.35Z" transform="translate(0)"/><path class="cls-5" d="M130.17,536.31a2.15,2.15,0,0,1-1.45-.45,1.94,1.94,0,0,1-.52-1.54V530.4h-.75v-1.67h.75v-1.9h2v1.9h1.47v1.67h-1.47v3.51q0,.64.61.64a1.88,1.88,0,0,0,.85-.21v1.57A2.9,2.9,0,0,1,130.17,536.31Z" transform="translate(0)"/><path class="cls-5" d="M132.69,527.94v-1.79h2.06v1.79Zm0,8.24v-7.45h2v7.45Z" transform="translate(0)"/><path class="cls-5" d="M142.09,535.35a2.54,2.54,0,0,1-2,1,2.44,2.44,0,0,1-2-1.1v1h-2v-10h2v3.61a2.38,2.38,0,0,1,2-1.17,2.54,2.54,0,0,1,2,1,4.19,4.19,0,0,1,.82,2.78v.22A4.19,4.19,0,0,1,142.09,535.35ZM138.45,534a1.25,1.25,0,0,0,1,.57,1.23,1.23,0,0,0,1-.57,2.51,2.51,0,0,0,.41-1.5v-.14a2.51,2.51,0,0,0-.41-1.5,1.23,1.23,0,0,0-1-.57,1.25,1.25,0,0,0-1,.57,2.48,2.48,0,0,0-.42,1.5v.14A2.48,2.48,0,0,0,138.45,534Z" transform="translate(0)"/><path class="cls-5" d="M144,527.94v-1.79H146v1.79Zm0,8.24v-7.45h2v7.45Z" transform="translate(0)"/><path class="cls-5" d="M149,528.74l1.17,2.18,1.18-2.18h2l-2.15,3.63,2.24,3.82h-2.1l-1.24-2.32-1.25,2.32h-2.06l2.22-3.79-2.14-3.65Z" transform="translate(0)"/><path class="cls-5" d="M157.48,530.49a2.15,2.15,0,0,1-3.17,0,2.43,2.43,0,0,1-.64-1.72v-.08a2.45,2.45,0,0,1,.64-1.72,2.15,2.15,0,0,1,3.17,0,2.45,2.45,0,0,1,.64,1.72v.07A2.46,2.46,0,0,1,157.48,530.49Zm-3-.19a1.86,1.86,0,0,0,2.76,0,2.2,2.2,0,0,0,.55-1.52v-.07a2.2,2.2,0,0,0-.55-1.53,1.86,1.86,0,0,0-2.76,0,2.21,2.21,0,0,0-.55,1.52v.08A2.18,2.18,0,0,0,154.52,530.31ZM155,530v-2.58h1q1,0,1,.85h0a.77.77,0,0,1-.49.78l.56.95h-.74l-.47-.81h-.25V530Zm.65-1.35h.33q.39,0,.39-.33t-.39-.35h-.33Z" transform="translate(0)"/><path class="cls-5" d="M163.88,534.46v-2.26h-2.24v-1.81h2.24v-2.26h1.85v2.26H168v1.81h-2.24v2.26Z" transform="translate(0)"/><path class="cls-5" d="M105.89,553.16v-9.72h6.26v1.85h-4.25v2.18h3.74v1.85h-3.74v3.85Z" transform="translate(0)"/><path class="cls-5" d="M117.35,553.32a4,4,0,0,1-3.17-1.37,5.15,5.15,0,0,1-1.22-3.56v-.17a5.17,5.17,0,0,1,1.24-3.57,4.32,4.32,0,0,1,6.33,0,5.16,5.16,0,0,1,1.22,3.56v.17a5.17,5.17,0,0,1-1.24,3.57A4,4,0,0,1,117.35,553.32Zm-1.67-2.72a2,2,0,0,0,1.68.85,2,2,0,0,0,1.67-.85,3.67,3.67,0,0,0,.64-2.26v-.1A3.67,3.67,0,0,0,119,546a2.07,2.07,0,0,0-3.35,0,3.64,3.64,0,0,0-.65,2.26v.1A3.64,3.64,0,0,0,115.69,550.61Z" transform="translate(0)"/><path class="cls-5" d="M123.07,553.16v-9.72h2v7.88H129v1.85Z" transform="translate(0)"/><path class="cls-5" d="M130.09,553.16v-9.72h6.26v1.85H132.1v2.18h3.74v1.85H132.1v3.85Z" transform="translate(0)"/><path class="cls-5" d="M141.55,553.32a4,4,0,0,1-3.17-1.37,5.15,5.15,0,0,1-1.22-3.56v-.17a5.17,5.17,0,0,1,1.24-3.57,4.32,4.32,0,0,1,6.33,0,5.16,5.16,0,0,1,1.22,3.56v.17a5.17,5.17,0,0,1-1.24,3.57A4,4,0,0,1,141.55,553.32Zm-1.67-2.72a2,2,0,0,0,1.68.85,2,2,0,0,0,1.67-.85,3.67,3.67,0,0,0,.64-2.26v-.1a3.67,3.67,0,0,0-.65-2.27,2.07,2.07,0,0,0-3.35,0,3.64,3.64,0,0,0-.65,2.26v.1A3.64,3.64,0,0,0,139.88,550.61Z" transform="translate(0)"/><path class="cls-5" d="M152.38,543.43h2.24l-2.78,4.75,2.89,5h-2.29l-1.78-3.33-1.79,3.33h-2.24l2.88-4.95-2.75-4.78H149l1.65,3.15Z" transform="translate(0)"/><rect class="cls-7" x="195.43" y="471.15" width="78.79" height="97.05"/><path class="cls-6" d="M209.67,493l-2.78-9.78H209l1.64,6.4,1.78-6.43h1.75l1.79,6.43,1.63-6.4h2.08L216.91,493h-1.85l-1.78-6.18L211.5,493Z" transform="translate(0)"/><path class="cls-6" d="M222.82,493V485.1h-2.45v-1.86h6.89v1.86h-2.44V493Z" transform="translate(0)"/><path class="cls-6" d="M235.85,493l-1.18-3.08h-1l-.72,3.08h-2.11l2.38-9.72H236a3.87,3.87,0,0,1,2.83.9,2.76,2.76,0,0,1,.75,2,3.37,3.37,0,0,1-.9,2.45l-.37.35a3.34,3.34,0,0,1-.53.34,4.08,4.08,0,0,1-.88.36l1.33,3.32ZM234.14,488h1.13a2.28,2.28,0,0,0,1.65-.54,1.66,1.66,0,0,0,.44-1.18,1.08,1.08,0,0,0-.32-.82,1.65,1.65,0,0,0-1.21-.35h-1Z" transform="translate(0)"/><path class="cls-6" d="M238.73,493l5.82-9.79h2l1,9.79h-2.15l-.17-2.18h-3.12L241,493Zm4.64-4h1.74l-.15-3.18Z" transform="translate(0)"/><path class="cls-6" d="M252,493.1a4.23,4.23,0,0,1-3.58-1.78L250,490a3,3,0,0,0,2.11,1.28,1,1,0,0,0,.72-.25.81.81,0,0,0,.28-.62,1,1,0,0,0-.26-.62,6.09,6.09,0,0,0-1-.84,6.53,6.53,0,0,1-1.39-1.33,2.32,2.32,0,0,1-.46-1.4,2.9,2.9,0,0,1,.83-2.1,3.32,3.32,0,0,1,2.44-1,4.23,4.23,0,0,1,3.19,1.45L255,486a2.66,2.66,0,0,0-1.82-1,1,1,0,0,0-.72.25.81.81,0,0,0-.26.6,1,1,0,0,0,.25.62,5.81,5.81,0,0,0,1,.83,6.36,6.36,0,0,1,1.39,1.31,2.39,2.39,0,0,1,.47,1.46,2.91,2.91,0,0,1-.87,2.14A3.33,3.33,0,0,1,252,493.1Z" transform="translate(0)"/><path class="cls-6" d="M207.38,509.94v-7.45h2v1a2.33,2.33,0,0,1,1.93-1.14,1.93,1.93,0,0,1,1.83,1.08,2.69,2.69,0,0,1,2.11-1.08,2.09,2.09,0,0,1,1.61.65,2.64,2.64,0,0,1,.6,1.85v5.08h-2v-4.49q0-1.32-1-1.32a1,1,0,0,0-.78.34,1.51,1.51,0,0,0-.28,1v4.49h-2v-4.49q0-1.32-1-1.32a1,1,0,0,0-.78.34,1.51,1.51,0,0,0-.28,1v4.49Z" transform="translate(0)"/><path class="cls-6" d="M223.1,510.08a3.91,3.91,0,0,1-3.1-1.35,5.25,5.25,0,0,1-1.18-3.58V505a5.13,5.13,0,0,1,1.24-3.57,4.07,4.07,0,0,1,3.17-1.38,4.2,4.2,0,0,1,3.13,1.29l-1.21,1.56a2.77,2.77,0,0,0-2-1,2,2,0,0,0-1.62.85,3.64,3.64,0,0,0-.64,2.25v0a3.61,3.61,0,0,0,.65,2.26,2,2,0,0,0,1.64.85,2.9,2.9,0,0,0,2-1l1.21,1.43a5.32,5.32,0,0,1-1.47,1.09A4.16,4.16,0,0,1,223.1,510.08Z" transform="translate(0)"/><path class="cls-6" d="M227.77,509.94v-9.72h3.65a3.57,3.57,0,0,1,2.64.93,3,3,0,0,1,.82,2.25v.06a2.88,2.88,0,0,1-1.81,2.88l2.07,3.61h-2.31L231,506.74h-1.26v3.19Zm2-5h1.49a1.63,1.63,0,0,0,1.17-.4,1.4,1.4,0,0,0,.42-1.06h0a1.37,1.37,0,0,0-.42-1.09,1.78,1.78,0,0,0-1.2-.37h-1.44Z" transform="translate(0)"/><path class="cls-6" d="M240.41,510.08a3.91,3.91,0,0,1-3.1-1.35,5.25,5.25,0,0,1-1.18-3.58V505a5.13,5.13,0,0,1,1.24-3.57,4.07,4.07,0,0,1,3.17-1.38,4.2,4.2,0,0,1,3.13,1.29l-1.21,1.56a2.77,2.77,0,0,0-2-1,2,2,0,0,0-1.62.85,3.64,3.64,0,0,0-.64,2.25v0a3.61,3.61,0,0,0,.65,2.26,2,2,0,0,0,1.64.85,2.9,2.9,0,0,0,2-1l1.21,1.43a5.32,5.32,0,0,1-1.47,1.09A4.16,4.16,0,0,1,240.41,510.08Z" transform="translate(0)"/><path class="cls-6" d="M207.56,526.91v-9.72h6.26V519h-4.25v2.18h3.74v1.85h-3.74v3.85Z" transform="translate(0)"/><path class="cls-6" d="M219.3,527.08a4,4,0,0,1-3.17-1.37,5.15,5.15,0,0,1-1.22-3.56V522a5.17,5.17,0,0,1,1.24-3.57,4.32,4.32,0,0,1,6.33,0A5.16,5.16,0,0,1,223.7,522v.17a5.17,5.17,0,0,1-1.24,3.57A4,4,0,0,1,219.3,527.08Zm-1.67-2.72a2,2,0,0,0,1.68.85,2,2,0,0,0,1.67-.85,3.67,3.67,0,0,0,.64-2.26V522a3.67,3.67,0,0,0-.65-2.27,2.07,2.07,0,0,0-3.35,0A3.64,3.64,0,0,0,217,522v.1A3.64,3.64,0,0,0,217.63,524.36Z" transform="translate(0)"/><path class="cls-6" d="M225.3,526.91v-9.72h2v7.88h3.93v1.85Z" transform="translate(0)"/><path class="cls-6" d="M232.59,526.91v-9.72h6.26V519H234.6v2.18h3.74v1.85H234.6v3.85Z" transform="translate(0)"/><path class="cls-6" d="M244.32,527.08a4,4,0,0,1-3.17-1.37,5.15,5.15,0,0,1-1.22-3.56V522a5.17,5.17,0,0,1,1.24-3.57,4.32,4.32,0,0,1,6.33,0,5.16,5.16,0,0,1,1.22,3.56v.17a5.17,5.17,0,0,1-1.24,3.57A4,4,0,0,1,244.32,527.08Zm-1.67-2.72a2,2,0,0,0,1.68.85,2,2,0,0,0,1.67-.85,3.67,3.67,0,0,0,.64-2.26V522a3.67,3.67,0,0,0-.65-2.27,2.07,2.07,0,0,0-3.35,0A3.64,3.64,0,0,0,242,522v.1A3.64,3.64,0,0,0,242.66,524.36Z" transform="translate(0)"/><path class="cls-6" d="M255.44,517.19h2.24l-2.78,4.75,2.89,5h-2.29l-1.78-3.33-1.79,3.33h-2.24l2.88-4.95-2.75-4.78h2.29l1.65,3.15Z" transform="translate(0)"/><path class="cls-6" d="M209.2,544a2.12,2.12,0,0,1-2.21-2.26v-.08a2.21,2.21,0,0,1,.7-1.78,2.83,2.83,0,0,1,1.9-.6,4.24,4.24,0,0,1,1.56.31v-.22a1.25,1.25,0,0,0-.37-1,1.48,1.48,0,0,0-1-.33,4.52,4.52,0,0,0-1.71.42l-.54-1.54a5.6,5.6,0,0,1,2.54-.6,2.69,2.69,0,0,1,3,3v4.51h-1.93v-.81A2.31,2.31,0,0,1,209.2,544Zm.65-1.44a1.35,1.35,0,0,0,.95-.31,1,1,0,0,0,.38-.83v-.62a2.54,2.54,0,0,0-1.1-.24,1.28,1.28,0,0,0-.87.27,1,1,0,0,0-.31.77v0a.88.88,0,0,0,.26.68A1,1,0,0,0,209.85,542.58Z" transform="translate(0)"/><path class="cls-6" d="M214.64,543.89v-10h2v10Z" transform="translate(0)"/><path class="cls-6" d="M224,543a3.46,3.46,0,0,1-5,0,3.84,3.84,0,0,1-1-2.72v-.15a3.85,3.85,0,0,1,1-2.73,3.47,3.47,0,0,1,5,0,3.86,3.86,0,0,1,1,2.73v.15A3.87,3.87,0,0,1,224,543Zm-2.49-.63a1.31,1.31,0,0,0,1.13-.59,2.58,2.58,0,0,0,.42-1.52v-.1a2.56,2.56,0,0,0-.43-1.52,1.37,1.37,0,0,0-2.26,0,2.58,2.58,0,0,0-.42,1.52v.1a2.53,2.53,0,0,0,.44,1.52A1.34,1.34,0,0,0,221.5,542.35Z" transform="translate(0)"/><path class="cls-6" d="M226.3,543.89v-7.45h2v1a2.35,2.35,0,0,1,1.92-1.14,2,2,0,0,1,1.61.67,2.72,2.72,0,0,1,.58,1.84v5.07h-2V539.4q0-1.32-1.06-1.32a1,1,0,0,0-.79.34,1.47,1.47,0,0,0-.29,1v4.49Z" transform="translate(0)"/><path class="cls-6" d="M237.09,544.06a3.29,3.29,0,0,1-2.49-1,3.85,3.85,0,0,1-1-2.76v-.12a4.07,4.07,0,0,1,.92-2.74,2.93,2.93,0,0,1,2.33-1.08,2.75,2.75,0,0,1,2.35,1.1,4.67,4.67,0,0,1,.82,2.85q0,.35,0,.64h-4.45a1.9,1.9,0,0,0,.55,1.11,1.51,1.51,0,0,0,1.06.39,2.25,2.25,0,0,0,1.56-.74l1,1.19A3.44,3.44,0,0,1,237.09,544.06Zm-1.54-4.46h2.57a2.4,2.4,0,0,0-.4-1.22,1,1,0,0,0-.87-.44,1.07,1.07,0,0,0-.88.44A2.38,2.38,0,0,0,235.55,539.6Z" transform="translate(0)"/><path class="cls-6" d="M210.93,562.8a6.68,6.68,0,0,1,0-11.85l.78,1.29a5.09,5.09,0,0,0-1.85,2,6.53,6.53,0,0,0,0,5.37,5.1,5.1,0,0,0,1.85,1.94Z" transform="translate(0)"/><path class="cls-6" d="M213,560.87v-7.45h2v1a2.35,2.35,0,0,1,1.92-1.14,2,2,0,0,1,1.61.67,2.72,2.72,0,0,1,.58,1.84v5.07h-2v-4.49q0-1.32-1.06-1.32a1,1,0,0,0-.79.34,1.47,1.47,0,0,0-.29,1v4.49Z" transform="translate(0)"/><path class="cls-6" d="M223.7,555.24v-1.85h6.19v1.85Zm0,3.32v-1.85h6.19v1.85Z" transform="translate(0)"/><path class="cls-6" d="M234.44,560.87v-1.62l2.86-2.94a8.57,8.57,0,0,0,1.1-1.3,1.86,1.86,0,0,0,.3-1,1.1,1.1,0,0,0-.33-.85,1.18,1.18,0,0,0-.84-.31,1.54,1.54,0,0,0-.88.27,4.63,4.63,0,0,0-.9.88l-1.31-1.24a3.88,3.88,0,0,1,3.24-1.76,3.17,3.17,0,0,1,2.21.76,2.65,2.65,0,0,1,.85,2.07v0a3.1,3.1,0,0,1-.45,1.68,11.12,11.12,0,0,1-1.62,1.86L237,559.06h3.71v1.81Z" transform="translate(0)"/><path class="cls-6" d="M245,561a4.4,4.4,0,0,1-3.11-1.24l1.13-1.5a3,3,0,0,0,1.94.88,1.51,1.51,0,0,0,1.08-.38,1.38,1.38,0,0,0,.4-1h0a1.25,1.25,0,0,0-.44-1,1.7,1.7,0,0,0-1.13-.37,3.32,3.32,0,0,0-1.33.31l-1.12-.74.28-4.78H248v1.81h-3.65l-.11,1.76a4.23,4.23,0,0,1,1.08-.14,3.23,3.23,0,0,1,2.22.76,2.91,2.91,0,0,1,.87,2.31v0a3.22,3.22,0,0,1-.94,2.44A3.43,3.43,0,0,1,245,561Z" transform="translate(0)"/><path class="cls-6" d="M252.58,561a4.19,4.19,0,0,1-3.21-1.36l1.21-1.42a2.65,2.65,0,0,0,2,.94,1.37,1.37,0,0,0,1-.35,1.19,1.19,0,0,0,.38-.92v0a1.11,1.11,0,0,0-.51-1,2.53,2.53,0,0,0-1.44-.35h-.58l-.24-1.28,2.14-2.38h-3.37v-1.79h5.85v1.6l-2.28,2.39a3.33,3.33,0,0,1,1.74.88,2.45,2.45,0,0,1,.68,1.83v0a3,3,0,0,1-.91,2.28A3.3,3.3,0,0,1,252.58,561Z" transform="translate(0)"/><path class="cls-6" d="M257.74,562.8l-.78-1.29a5.09,5.09,0,0,0,1.85-1.94,6.54,6.54,0,0,0,0-5.37,5.08,5.08,0,0,0-1.85-2l.78-1.29a6.68,6.68,0,0,1,0,11.85Z" transform="translate(0)"/><rect class="cls-8" x="282.76" y="471.15" width="78.06" height="97.05"/><path class="cls-5" d="M298,502.23v-9.72h2.11l2.17,3.94,2.14-3.94h2.13v9.72h-2V496l-2.29,4h0l-2.28-4v6.18Z" transform="translate(0)"/><path class="cls-5" d="M310.32,502.23v-7.86h-2.45v-1.86h6.89v1.86h-2.44v7.86Z" transform="translate(0)"/><path class="cls-5" d="M323.35,502.23l-1.18-3.08h-1l-.72,3.08h-2.11l2.38-9.72h2.79a3.87,3.87,0,0,1,2.83.9,2.76,2.76,0,0,1,.75,2,3.37,3.37,0,0,1-.9,2.45l-.37.35a3.34,3.34,0,0,1-.53.34,4.08,4.08,0,0,1-.88.36l1.33,3.32Zm-1.71-4.93h1.13a2.28,2.28,0,0,0,1.65-.54,1.66,1.66,0,0,0,.44-1.18,1.08,1.08,0,0,0-.32-.82,1.65,1.65,0,0,0-1.21-.35h-1Z" transform="translate(0)"/><path class="cls-5" d="M326.22,502.23l5.82-9.79h2l1,9.79H333l-.17-2.18h-3.12l-1.21,2.18Zm4.64-4h1.74l-.15-3.18Z" transform="translate(0)"/><path class="cls-5" d="M339.49,502.37a4.23,4.23,0,0,1-3.58-1.78l1.57-1.36a3,3,0,0,0,2.11,1.28,1,1,0,0,0,.72-.25.81.81,0,0,0,.28-.62,1,1,0,0,0-.26-.62,6.09,6.09,0,0,0-1-.84,6.53,6.53,0,0,1-1.39-1.33,2.32,2.32,0,0,1-.46-1.4,2.9,2.9,0,0,1,.83-2.1,3.32,3.32,0,0,1,2.44-1,4.23,4.23,0,0,1,3.19,1.45l-1.44,1.46a2.66,2.66,0,0,0-1.82-1,1,1,0,0,0-.72.25.81.81,0,0,0-.26.6,1,1,0,0,0,.25.62,5.81,5.81,0,0,0,1,.83,6.36,6.36,0,0,1,1.39,1.31,2.39,2.39,0,0,1,.47,1.46,2.91,2.91,0,0,1-.87,2.14A3.33,3.33,0,0,1,339.49,502.37Z" transform="translate(0)"/><path class="cls-5" d="M297.79,519.2v-7.45h2v1a2.33,2.33,0,0,1,1.93-1.14,1.93,1.93,0,0,1,1.83,1.08,2.69,2.69,0,0,1,2.11-1.08,2.09,2.09,0,0,1,1.61.65,2.64,2.64,0,0,1,.6,1.85v5.08h-2v-4.49q0-1.32-1-1.32a1,1,0,0,0-.78.34,1.51,1.51,0,0,0-.28,1v4.49h-2v-4.49q0-1.32-1-1.32a1,1,0,0,0-.78.34,1.51,1.51,0,0,0-.28,1v4.49Z" transform="translate(0)"/><path class="cls-5" d="M313.51,519.34a3.91,3.91,0,0,1-3.1-1.35,5.25,5.25,0,0,1-1.18-3.58v-.12a5.13,5.13,0,0,1,1.24-3.57,4.07,4.07,0,0,1,3.17-1.38,4.2,4.2,0,0,1,3.13,1.29l-1.21,1.56a2.77,2.77,0,0,0-2-1,2,2,0,0,0-1.62.85,3.64,3.64,0,0,0-.64,2.25v0a3.61,3.61,0,0,0,.65,2.26,2,2,0,0,0,1.64.85,2.9,2.9,0,0,0,2-1l1.21,1.43a5.32,5.32,0,0,1-1.47,1.09A4.16,4.16,0,0,1,313.51,519.34Z" transform="translate(0)"/><path class="cls-5" d="M318.18,519.2v-9.72h3.65a3.57,3.57,0,0,1,2.64.93,3,3,0,0,1,.82,2.25v.06a2.88,2.88,0,0,1-1.81,2.88l2.07,3.61h-2.31L321.46,516H320.2v3.19Zm2-5h1.49a1.63,1.63,0,0,0,1.17-.4,1.4,1.4,0,0,0,.42-1.06h0a1.37,1.37,0,0,0-.42-1.09,1.78,1.78,0,0,0-1.2-.37H320.2Z" transform="translate(0)"/><path class="cls-5" d="M330.82,519.34a3.91,3.91,0,0,1-3.1-1.35,5.25,5.25,0,0,1-1.18-3.58v-.12a5.13,5.13,0,0,1,1.24-3.57,4.07,4.07,0,0,1,3.17-1.38,4.2,4.2,0,0,1,3.13,1.29l-1.21,1.56a2.77,2.77,0,0,0-2-1,2,2,0,0,0-1.62.85,3.64,3.64,0,0,0-.64,2.25v0a3.61,3.61,0,0,0,.65,2.26,2,2,0,0,0,1.64.85,2.9,2.9,0,0,0,2-1l1.21,1.43a5.32,5.32,0,0,1-1.47,1.09A4.16,4.16,0,0,1,330.82,519.34Z" transform="translate(0)"/><path class="cls-5" d="M298,536.18v-9.72h6.26v1.85H300v2.18h3.74v1.85H300v3.85Z" transform="translate(0)"/><path class="cls-5" d="M309.71,536.35a4,4,0,0,1-3.17-1.37,5.15,5.15,0,0,1-1.22-3.56v-.17a5.17,5.17,0,0,1,1.24-3.57,4.32,4.32,0,0,1,6.33,0,5.16,5.16,0,0,1,1.22,3.56v.17a5.17,5.17,0,0,1-1.24,3.57A4,4,0,0,1,309.71,536.35ZM308,533.63a2,2,0,0,0,1.68.85,2,2,0,0,0,1.67-.85,3.67,3.67,0,0,0,.64-2.26v-.1a3.67,3.67,0,0,0-.65-2.27,2.07,2.07,0,0,0-3.35,0,3.64,3.64,0,0,0-.65,2.26v.1A3.64,3.64,0,0,0,308,533.63Z" transform="translate(0)"/><path class="cls-5" d="M315.71,536.18v-9.72h2v7.88h3.93v1.85Z" transform="translate(0)"/><path class="cls-5" d="M323,536.18v-9.72h6.26v1.85H325v2.18h3.74v1.85H325v3.85Z" transform="translate(0)"/><path class="cls-5" d="M334.74,536.35a4,4,0,0,1-3.17-1.37,5.15,5.15,0,0,1-1.22-3.56v-.17a5.17,5.17,0,0,1,1.24-3.57,4.32,4.32,0,0,1,6.33,0,5.16,5.16,0,0,1,1.22,3.56v.17A5.17,5.17,0,0,1,337.9,535,4,4,0,0,1,334.74,536.35Zm-1.67-2.72a2,2,0,0,0,1.68.85,2,2,0,0,0,1.67-.85,3.67,3.67,0,0,0,.64-2.26v-.1a3.67,3.67,0,0,0-.65-2.27,2.07,2.07,0,0,0-3.35,0,3.64,3.64,0,0,0-.65,2.26v.1A3.64,3.64,0,0,0,333.07,533.63Z" transform="translate(0)"/><path class="cls-5" d="M345.85,526.46h2.24l-2.78,4.75,2.89,5H345.9l-1.78-3.33-1.79,3.33H340.1l2.88-4.95-2.75-4.78h2.29l1.65,3.15Z" transform="translate(0)"/><path class="cls-5" d="M299.61,553.3A2.12,2.12,0,0,1,297.4,551v-.08a2.21,2.21,0,0,1,.7-1.78,2.83,2.83,0,0,1,1.9-.6,4.24,4.24,0,0,1,1.56.31v-.22a1.25,1.25,0,0,0-.37-1,1.48,1.48,0,0,0-1-.33,4.52,4.52,0,0,0-1.71.42l-.54-1.54a5.6,5.6,0,0,1,2.54-.6,2.69,2.69,0,0,1,3,3v4.51h-1.93v-.81A2.31,2.31,0,0,1,299.61,553.3Zm.65-1.44a1.35,1.35,0,0,0,.95-.31,1,1,0,0,0,.38-.83v-.62a2.54,2.54,0,0,0-1.1-.24,1.28,1.28,0,0,0-.87.27,1,1,0,0,0-.31.77v0a.88.88,0,0,0,.26.68A1,1,0,0,0,300.26,551.85Z" transform="translate(0)"/><path class="cls-5" d="M305.05,553.16v-10h2v10Z" transform="translate(0)"/><path class="cls-5" d="M314.41,552.25a3.46,3.46,0,0,1-5,0,3.84,3.84,0,0,1-1-2.72v-.15a3.85,3.85,0,0,1,1-2.73,3.47,3.47,0,0,1,5,0,3.86,3.86,0,0,1,1,2.73v.15A3.87,3.87,0,0,1,314.41,552.25Zm-2.49-.63A1.31,1.31,0,0,0,313,551a2.58,2.58,0,0,0,.42-1.52v-.1a2.56,2.56,0,0,0-.43-1.52,1.37,1.37,0,0,0-2.26,0,2.58,2.58,0,0,0-.42,1.52v.1a2.53,2.53,0,0,0,.44,1.52A1.34,1.34,0,0,0,311.92,551.62Z" transform="translate(0)"/><path class="cls-5" d="M316.71,553.16v-7.45h2v1a2.35,2.35,0,0,1,1.92-1.14,2,2,0,0,1,1.61.67,2.72,2.72,0,0,1,.58,1.84v5.07h-2v-4.49q0-1.32-1.06-1.32a1,1,0,0,0-.79.34,1.47,1.47,0,0,0-.29,1v4.49Z" transform="translate(0)"/><path class="cls-5" d="M327.5,553.32a3.29,3.29,0,0,1-2.49-1,3.85,3.85,0,0,1-1-2.76v-.12a4.07,4.07,0,0,1,.92-2.74,2.93,2.93,0,0,1,2.33-1.08,2.75,2.75,0,0,1,2.35,1.1,4.67,4.67,0,0,1,.82,2.85q0,.35,0,.64H326a1.9,1.9,0,0,0,.55,1.11,1.51,1.51,0,0,0,1.06.39,2.25,2.25,0,0,0,1.56-.74l1,1.19A3.44,3.44,0,0,1,327.5,553.32ZM326,548.87h2.57a2.4,2.4,0,0,0-.4-1.22,1,1,0,0,0-.87-.44,1.07,1.07,0,0,0-.88.44A2.38,2.38,0,0,0,326,548.87Z" transform="translate(0)"/><path class="cls-5" d="M13.07,595.89v-8.4h2.69a3.14,3.14,0,0,1,2.2.75,2.63,2.63,0,0,1,.82,2v0a2.6,2.6,0,0,1-.87,2.09,3.42,3.42,0,0,1-2.24.77H14.46v2.72Zm1.39-4h1.21a1.72,1.72,0,0,0,1.24-.43,1.51,1.51,0,0,0,.45-1.14h0a1.48,1.48,0,0,0-.44-1.16,1.79,1.79,0,0,0-1.25-.4H14.46Z" transform="translate(0)"/><path class="cls-5" d="M21.43,596a2,2,0,0,1-1.39-.52,1.85,1.85,0,0,1-.56-1.42V594a1.9,1.9,0,0,1,.61-1.52,2.45,2.45,0,0,1,1.65-.52,4.62,4.62,0,0,1,1.46.25V592a1.26,1.26,0,0,0-.35-1,1.44,1.44,0,0,0-1-.33,3.74,3.74,0,0,0-1.54.38L19.92,590a4.74,4.74,0,0,1,2.1-.5,2.25,2.25,0,0,1,2.51,2.48v3.95H23.2v-.78A2,2,0,0,1,21.43,596Zm.41-1a1.37,1.37,0,0,0,1-.34,1.15,1.15,0,0,0,.4-.89v-.64a3,3,0,0,0-1.18-.23,1.34,1.34,0,0,0-.91.28,1,1,0,0,0-.32.79v0a1,1,0,0,0,.29.73A1.1,1.1,0,0,0,21.84,595Z" transform="translate(0)"/><path class="cls-5" d="M27.81,596a1.45,1.45,0,0,1-1.64-1.63v-3.66h-.7v-1.16h.7v-1.72h1.36v1.72H29v1.16H27.53v3.38a.61.61,0,0,0,.68.7,1.57,1.57,0,0,0,.73-.18v1.12A2.36,2.36,0,0,1,27.81,596Z" transform="translate(0)"/><path class="cls-5" d="M30.06,588.6v-1.33H31.5v1.33Zm0,7.28v-6.36h1.36v6.36Z" transform="translate(0)"/><path class="cls-5" d="M35.65,596a2.72,2.72,0,0,1-2.08-.89,3.31,3.31,0,0,1-.83-2.35v-.1a3.56,3.56,0,0,1,.77-2.35,2.42,2.42,0,0,1,1.94-.92,2.28,2.28,0,0,1,1.95.93,4,4,0,0,1,.69,2.42c0,.18,0,.34,0,.47h-4a1.91,1.91,0,0,0,.53,1.21,1.49,1.49,0,0,0,1.08.43,2.1,2.1,0,0,0,1.46-.67l.71.84A3,3,0,0,1,35.65,596Zm-1.56-3.73h2.69a2.47,2.47,0,0,0-.4-1.26,1.07,1.07,0,0,0-.92-.48,1.13,1.13,0,0,0-.93.47A2.37,2.37,0,0,0,34.09,592.29Z" transform="translate(0)"/><path class="cls-5" d="M39.33,595.89v-6.36h1.36v.94a2,2,0,0,1,1.74-1.06,1.8,1.8,0,0,1,1.43.6,2.38,2.38,0,0,1,.52,1.62v4.26H43V592a1.55,1.55,0,0,0-.3-1,1,1,0,0,0-.84-.36A1.1,1.1,0,0,0,41,591a1.5,1.5,0,0,0-.33,1v3.85Z" transform="translate(0)"/><path class="cls-5" d="M47.7,596a1.45,1.45,0,0,1-1.64-1.63v-3.66h-.7v-1.16h.7v-1.72h1.36v1.72h1.43v1.16H47.41v3.38a.61.61,0,0,0,.68.7,1.57,1.57,0,0,0,.73-.18v1.12A2.36,2.36,0,0,1,47.7,596Z" transform="translate(0)"/><path class="cls-5" d="M52,596a3.61,3.61,0,0,1-2.36-.89l.64-1a2.82,2.82,0,0,0,1.75.74,1,1,0,0,0,.65-.2.62.62,0,0,0,.24-.5h0a.55.55,0,0,0-.18-.4,1.49,1.49,0,0,0-.38-.28l-.68-.31a4.68,4.68,0,0,1-1.3-.77,1.43,1.43,0,0,1-.44-1.11v0a1.69,1.69,0,0,1,.59-1.35,2.23,2.23,0,0,1,1.51-.51,3.46,3.46,0,0,1,2.06.68l-.58,1a2.8,2.8,0,0,0-1.51-.56.89.89,0,0,0-.59.18.56.56,0,0,0-.22.44v0a.51.51,0,0,0,.19.38,1.76,1.76,0,0,0,.38.28l.68.32a4.55,4.55,0,0,1,1.3.8,1.45,1.45,0,0,1,.43,1.1h0a1.75,1.75,0,0,1-.61,1.42A2.36,2.36,0,0,1,52,596Z" transform="translate(0)"/><path class="cls-5" d="M59.82,595.94,58,589.53h1.39l1.08,4.3,1.18-4.31h1.15L64,593.82l1.09-4.3h1.37l-1.79,6.41H63.45l-1.19-4.25-1.2,4.25Z" transform="translate(0)"/><path class="cls-5" d="M67.49,588.6v-1.33h1.44v1.33Zm0,7.28v-6.36H68.9v6.36Z" transform="translate(0)"/><path class="cls-5" d="M72.35,596a1.45,1.45,0,0,1-1.64-1.63v-3.66H70v-1.16h.7v-1.72h1.36v1.72h1.43v1.16H72.06v3.38a.61.61,0,0,0,.68.7,1.57,1.57,0,0,0,.73-.18v1.12A2.36,2.36,0,0,1,72.35,596Z" transform="translate(0)"/><path class="cls-5" d="M74.63,595.89v-8.66H76v3.24a2,2,0,0,1,1.74-1.06,1.8,1.8,0,0,1,1.43.6,2.38,2.38,0,0,1,.52,1.62v4.26H78.33V592a1.55,1.55,0,0,0-.3-1,1,1,0,0,0-.84-.36,1.1,1.1,0,0,0-.87.38,1.5,1.5,0,0,0-.33,1v3.85Z" transform="translate(0)"/><path class="cls-5" d="M84.4,595.89v-8.4h1.45L88,591.35l2.15-3.86h1.46v8.4H90.25v-5.94L88,593.84h0L85.76,590v5.92Z" transform="translate(0)"/><path class="cls-5" d="M95.08,595.89v-7.1H92.87v-1.3h5.81v1.3H96.48v7.1Z" transform="translate(0)"/><path class="cls-5" d="M106.87,595.89,105.7,593h-1.26l-.68,2.9h-1.46l2.05-8.4h2.4a3.12,3.12,0,0,1,2.33.76,2.25,2.25,0,0,1,.61,1.62,2.83,2.83,0,0,1-.78,2.05,3.49,3.49,0,0,1-1.68.9l1.27,3.07Zm-2.09-4.18H106a2.36,2.36,0,0,0,1.72-.56,1.64,1.64,0,0,0,.44-1.18,1.09,1.09,0,0,0-.3-.8,1.7,1.7,0,0,0-1.22-.36h-1.18Z" transform="translate(0)"/><path class="cls-5" d="M109.25,595.89l5.12-8.46h1.42l1,8.46H115.3l-.2-2H112l-1.18,2Zm3.54-3.31H115l-.29-3.37Z" transform="translate(0)"/><path class="cls-5" d="M120.62,596a3.58,3.58,0,0,1-3-1.52l1.1-.94a2.71,2.71,0,0,0,2,1.18,1.25,1.25,0,0,0,.86-.3,1,1,0,0,0,.34-.76,1,1,0,0,0-.26-.65,4.81,4.81,0,0,0-.94-.78,5.73,5.73,0,0,1-1.28-1.15,1.92,1.92,0,0,1-.41-1.19,2.39,2.39,0,0,1,.67-1.7,2.8,2.8,0,0,1,2.06-.83,3.48,3.48,0,0,1,2.69,1.25l-1,1a2.41,2.41,0,0,0-1.73-1,1.19,1.19,0,0,0-.85.3.93.93,0,0,0-.32.7,1,1,0,0,0,.26.65,5,5,0,0,0,1,.79A5.24,5.24,0,0,1,123,592.2a2,2,0,0,1,.41,1.25,2.39,2.39,0,0,1-.72,1.75A2.82,2.82,0,0,1,120.62,596Z" transform="translate(0)"/><path class="cls-5" d="M129.93,596a1.45,1.45,0,0,1-1.64-1.63v-3.66h-.7v-1.16h.7v-1.72h1.36v1.72h1.43v1.16h-1.43v3.38a.61.61,0,0,0,.68.7,1.57,1.57,0,0,0,.73-.18v1.12A2.36,2.36,0,0,1,129.93,596Z" transform="translate(0)"/><path class="cls-5" d="M134.1,596a1.81,1.81,0,0,1-1.44-.59,2.4,2.4,0,0,1-.52-1.63v-4.26h1.36v3.88a1.57,1.57,0,0,0,.29,1,1,1,0,0,0,.83.36,1.1,1.1,0,0,0,.87-.38,1.5,1.5,0,0,0,.33-1v-3.85h1.37v6.36h-1.37V595A2,2,0,0,1,134.1,596Z" transform="translate(0)"/><path class="cls-5" d="M138.73,595.89v-6.36h1.36v.92a2,2,0,0,1,1.7-1,1.69,1.69,0,0,1,1.64,1,2.27,2.27,0,0,1,1.86-1,1.82,1.82,0,0,1,1.42.58,2.37,2.37,0,0,1,.52,1.64v4.26h-1.36V592q0-1.39-1.08-1.39a1,1,0,0,0-.82.37,1.54,1.54,0,0,0-.32,1v3.85h-1.36V592a1.61,1.61,0,0,0-.28-1,1,1,0,0,0-.79-.35,1,1,0,0,0-.83.38,1.56,1.56,0,0,0-.32,1v3.84Z" transform="translate(0)"/><path class="cls-5" d="M151.37,596a2.69,2.69,0,0,1-2.09-.92,3.34,3.34,0,0,1-.83-2.32v-.11a3.36,3.36,0,0,1,.83-2.33,2.84,2.84,0,0,1,4.19,0,3.36,3.36,0,0,1,.83,2.33v.11a3.34,3.34,0,0,1-.83,2.33A2.71,2.71,0,0,1,151.37,596Zm0-1.19a1.34,1.34,0,0,0,1.13-.59,2.45,2.45,0,0,0,.43-1.49v-.07a2.38,2.38,0,0,0-.45-1.49,1.38,1.38,0,0,0-1.13-.59,1.34,1.34,0,0,0-1.13.58,2.44,2.44,0,0,0-.43,1.48v.07a2.4,2.4,0,0,0,.45,1.49A1.37,1.37,0,0,0,151.4,594.83Z" transform="translate(0)"/><path class="cls-5" d="M155.55,595.89v-6.36h1.36v1.25a1.85,1.85,0,0,1,1.91-1.34v1.48h-.06a1.72,1.72,0,0,0-1.35.56,2.35,2.35,0,0,0-.5,1.61v2.81Z" transform="translate(0)"/><path class="cls-5" d="M161.79,596a3.61,3.61,0,0,1-2.36-.89l.64-1a2.82,2.82,0,0,0,1.75.74,1,1,0,0,0,.65-.2.62.62,0,0,0,.24-.5h0a.55.55,0,0,0-.18-.4,1.49,1.49,0,0,0-.38-.28l-.68-.31a4.68,4.68,0,0,1-1.3-.77,1.43,1.43,0,0,1-.44-1.11v0a1.69,1.69,0,0,1,.59-1.35,2.23,2.23,0,0,1,1.51-.51,3.46,3.46,0,0,1,2.06.68l-.58,1a2.8,2.8,0,0,0-1.51-.56.89.89,0,0,0-.59.18.56.56,0,0,0-.22.44v0a.51.51,0,0,0,.19.38,1.76,1.76,0,0,0,.38.28l.68.32a4.55,4.55,0,0,1,1.3.8,1.45,1.45,0,0,1,.43,1.1h0a1.75,1.75,0,0,1-.61,1.42A2.36,2.36,0,0,1,161.79,596Z" transform="translate(0)"/><path class="cls-5" d="M170.09,596a3.61,3.61,0,0,1-2.36-.89l.64-1a2.82,2.82,0,0,0,1.75.74,1,1,0,0,0,.65-.2.62.62,0,0,0,.24-.5h0a.55.55,0,0,0-.18-.4,1.49,1.49,0,0,0-.38-.28l-.68-.31a4.68,4.68,0,0,1-1.3-.77,1.43,1.43,0,0,1-.44-1.11v0a1.69,1.69,0,0,1,.59-1.35,2.23,2.23,0,0,1,1.51-.51,3.46,3.46,0,0,1,2.06.68l-.58,1a2.8,2.8,0,0,0-1.51-.56.89.89,0,0,0-.59.18.56.56,0,0,0-.22.44v0a.51.51,0,0,0,.19.38,1.76,1.76,0,0,0,.38.28l.68.32a4.55,4.55,0,0,1,1.3.8,1.45,1.45,0,0,1,.43,1.1h0a1.75,1.75,0,0,1-.61,1.42A2.36,2.36,0,0,1,170.09,596Z" transform="translate(0)"/><path class="cls-5" d="M173.46,595.89v-8.66h1.36v3.24a2,2,0,0,1,1.74-1.06,1.8,1.8,0,0,1,1.43.6,2.38,2.38,0,0,1,.52,1.62v4.26h-1.36V592a1.55,1.55,0,0,0-.3-1,1,1,0,0,0-.84-.36,1.1,1.1,0,0,0-.87.38,1.5,1.5,0,0,0-.33,1v3.85Z" transform="translate(0)"/><path class="cls-5" d="M182.62,596a2.69,2.69,0,0,1-2.09-.92,3.34,3.34,0,0,1-.83-2.32v-.11a3.36,3.36,0,0,1,.83-2.33,2.84,2.84,0,0,1,4.19,0,3.36,3.36,0,0,1,.83,2.33v.11a3.34,3.34,0,0,1-.83,2.33A2.71,2.71,0,0,1,182.62,596Zm0-1.19a1.34,1.34,0,0,0,1.13-.59,2.45,2.45,0,0,0,.43-1.49v-.07a2.38,2.38,0,0,0-.45-1.49,1.38,1.38,0,0,0-1.13-.59,1.34,1.34,0,0,0-1.13.58,2.44,2.44,0,0,0-.43,1.48v.07a2.4,2.4,0,0,0,.45,1.49A1.37,1.37,0,0,0,182.64,594.83Z" transform="translate(0)"/><path class="cls-5" d="M188.7,596a1.81,1.81,0,0,1-1.44-.59,2.4,2.4,0,0,1-.52-1.63v-4.26h1.36v3.88a1.57,1.57,0,0,0,.29,1,1,1,0,0,0,.83.36,1.1,1.1,0,0,0,.87-.38,1.5,1.5,0,0,0,.33-1v-3.85h1.37v6.36h-1.37V595A2,2,0,0,1,188.7,596Z" transform="translate(0)"/><path class="cls-5" d="M193.38,595.89v-8.66h1.36v8.66Z" transform="translate(0)"/><path class="cls-5" d="M198.55,596a2.22,2.22,0,0,1-1.75-.85,3.53,3.53,0,0,1-.73-2.37v-.16a3.57,3.57,0,0,1,.72-2.38,2.18,2.18,0,0,1,3.61.23v-3.26h1.36v8.66h-1.36v-1A2.16,2.16,0,0,1,198.55,596Zm.37-1.2a1.32,1.32,0,0,0,1.07-.56,2.34,2.34,0,0,0,.44-1.48v-.12a2.34,2.34,0,0,0-.44-1.48,1.32,1.32,0,0,0-1.07-.56,1.27,1.27,0,0,0-1.06.56,2.42,2.42,0,0,0-.42,1.49v.1a2.4,2.4,0,0,0,.43,1.49A1.28,1.28,0,0,0,198.92,594.81Z" transform="translate(0)"/><path class="cls-5" d="M206.4,595.89v-6.36h1.36v.94a2,2,0,0,1,1.74-1.06,1.8,1.8,0,0,1,1.43.6,2.38,2.38,0,0,1,.52,1.62v4.26h-1.36V592a1.55,1.55,0,0,0-.3-1,1,1,0,0,0-.84-.36,1.1,1.1,0,0,0-.87.38,1.5,1.5,0,0,0-.33,1v3.85Z" transform="translate(0)"/><path class="cls-5" d="M215.56,596a2.69,2.69,0,0,1-2.09-.92,3.34,3.34,0,0,1-.83-2.32v-.11a3.36,3.36,0,0,1,.83-2.33,2.84,2.84,0,0,1,4.19,0,3.36,3.36,0,0,1,.83,2.33v.11a3.34,3.34,0,0,1-.83,2.33A2.71,2.71,0,0,1,215.56,596Zm0-1.19a1.34,1.34,0,0,0,1.13-.59,2.45,2.45,0,0,0,.43-1.49v-.07a2.38,2.38,0,0,0-.45-1.49,1.38,1.38,0,0,0-1.13-.59,1.34,1.34,0,0,0-1.13.58,2.44,2.44,0,0,0-.43,1.48v.07a2.4,2.4,0,0,0,.45,1.49A1.37,1.37,0,0,0,215.58,594.83Z" transform="translate(0)"/><path class="cls-5" d="M221.51,596a1.45,1.45,0,0,1-1.64-1.63v-3.66h-.7v-1.16h.7v-1.72h1.36v1.72h1.43v1.16h-1.43v3.38a.61.61,0,0,0,.68.7,1.57,1.57,0,0,0,.73-.18v1.12A2.36,2.36,0,0,1,221.51,596Z" transform="translate(0)"/><path class="cls-5" d="M230.18,596a2.18,2.18,0,0,1-1.86-1.08v1H227v-8.66h1.36v3.32a2.16,2.16,0,0,1,1.86-1.14,2.23,2.23,0,0,1,1.75.85,3.53,3.53,0,0,1,.73,2.37v.17a3.55,3.55,0,0,1-.72,2.37A2.22,2.22,0,0,1,230.18,596Zm-1.45-1.76a1.32,1.32,0,0,0,1.07.56,1.28,1.28,0,0,0,1.06-.55,2.4,2.4,0,0,0,.42-1.49v-.11a2.4,2.4,0,0,0-.43-1.49,1.28,1.28,0,0,0-1-.56,1.32,1.32,0,0,0-1.07.56,2.34,2.34,0,0,0-.44,1.48v.12A2.34,2.34,0,0,0,228.74,594.24Z" transform="translate(0)"/><path class="cls-5" d="M236.56,596a2.72,2.72,0,0,1-2.08-.89,3.31,3.31,0,0,1-.83-2.35v-.1a3.56,3.56,0,0,1,.77-2.35,2.42,2.42,0,0,1,1.94-.92,2.28,2.28,0,0,1,1.95.93,4,4,0,0,1,.69,2.42c0,.18,0,.34,0,.47h-4a1.91,1.91,0,0,0,.53,1.21,1.49,1.49,0,0,0,1.08.43,2.1,2.1,0,0,0,1.46-.67l.71.84A3,3,0,0,1,236.56,596ZM235,592.29h2.69a2.47,2.47,0,0,0-.4-1.26,1.07,1.07,0,0,0-.92-.48,1.13,1.13,0,0,0-.93.47A2.37,2.37,0,0,0,235,592.29Z" transform="translate(0)"/><path class="cls-5" d="M245.24,596a1.45,1.45,0,0,1-1.64-1.63v-3.66h-.7v-1.16h.7v-1.72H245v1.72h1.43v1.16H245v3.38a.61.61,0,0,0,.68.7,1.57,1.57,0,0,0,.73-.18v1.12A2.36,2.36,0,0,1,245.24,596Z" transform="translate(0)"/><path class="cls-5" d="M247.53,595.89v-6.36h1.36v1.25a1.85,1.85,0,0,1,1.91-1.34v1.48h-.06a1.72,1.72,0,0,0-1.35.56,2.35,2.35,0,0,0-.5,1.61v2.81Z" transform="translate(0)"/><path class="cls-5" d="M254.42,596a2.72,2.72,0,0,1-2.08-.89,3.31,3.31,0,0,1-.83-2.35v-.1a3.56,3.56,0,0,1,.77-2.35,2.42,2.42,0,0,1,1.94-.92,2.28,2.28,0,0,1,1.95.93,4,4,0,0,1,.69,2.42c0,.18,0,.34,0,.47h-4a1.91,1.91,0,0,0,.53,1.21,1.49,1.49,0,0,0,1.08.43,2.1,2.1,0,0,0,1.46-.67l.71.84A3,3,0,0,1,254.42,596Zm-1.56-3.73h2.69a2.47,2.47,0,0,0-.4-1.26,1.07,1.07,0,0,0-.92-.48,1.13,1.13,0,0,0-.93.47A2.37,2.37,0,0,0,252.86,592.29Z" transform="translate(0)"/><path class="cls-5" d="M259.68,596a2,2,0,0,1-1.39-.52,1.85,1.85,0,0,1-.56-1.42V594a1.9,1.9,0,0,1,.61-1.52A2.45,2.45,0,0,1,260,592a4.62,4.62,0,0,1,1.46.25V592a1.26,1.26,0,0,0-.35-1,1.44,1.44,0,0,0-1-.33,3.74,3.74,0,0,0-1.54.38l-.38-1.08a4.74,4.74,0,0,1,2.1-.5,2.25,2.25,0,0,1,2.51,2.48v3.95h-1.33v-.78A2,2,0,0,1,259.68,596Zm.41-1a1.37,1.37,0,0,0,1-.34,1.15,1.15,0,0,0,.4-.89v-.64a3,3,0,0,0-1.18-.23,1.34,1.34,0,0,0-.91.28,1,1,0,0,0-.32.79v0a1,1,0,0,0,.29.73A1.1,1.1,0,0,0,260.09,595Z" transform="translate(0)"/><path class="cls-5" d="M266.06,596a1.45,1.45,0,0,1-1.64-1.63v-3.66h-.7v-1.16h.7v-1.72h1.36v1.72h1.43v1.16h-1.43v3.38a.61.61,0,0,0,.68.7,1.57,1.57,0,0,0,.73-.18v1.12A2.36,2.36,0,0,1,266.06,596Z" transform="translate(0)"/><path class="cls-5" d="M270.88,596a2.72,2.72,0,0,1-2.08-.89,3.31,3.31,0,0,1-.83-2.35v-.1a3.56,3.56,0,0,1,.77-2.35,2.42,2.42,0,0,1,1.94-.92,2.28,2.28,0,0,1,1.95.93,4,4,0,0,1,.69,2.42c0,.18,0,.34,0,.47h-4a1.91,1.91,0,0,0,.53,1.21,1.49,1.49,0,0,0,1.08.43,2.1,2.1,0,0,0,1.46-.67l.71.84A3,3,0,0,1,270.88,596Zm-1.56-3.73H272a2.47,2.47,0,0,0-.4-1.26,1.07,1.07,0,0,0-.92-.48,1.13,1.13,0,0,0-.93.47A2.37,2.37,0,0,0,269.32,592.29Z" transform="translate(0)"/><path class="cls-5" d="M276.76,596a2.22,2.22,0,0,1-1.75-.85,3.53,3.53,0,0,1-.73-2.37v-.16a3.57,3.57,0,0,1,.72-2.38,2.18,2.18,0,0,1,3.61.23v-3.26H280v8.66h-1.36v-1A2.16,2.16,0,0,1,276.76,596Zm.37-1.2a1.32,1.32,0,0,0,1.07-.56,2.34,2.34,0,0,0,.44-1.48v-.12a2.34,2.34,0,0,0-.44-1.48,1.32,1.32,0,0,0-1.07-.56,1.27,1.27,0,0,0-1.06.56,2.42,2.42,0,0,0-.42,1.49v.1a2.4,2.4,0,0,0,.43,1.49A1.28,1.28,0,0,0,277.13,594.81Z" transform="translate(0)"/><path class="cls-5" d="M285.94,595.94l-1.78-6.41h1.39l1.08,4.3,1.18-4.31H289l1.18,4.31,1.09-4.3h1.37l-1.79,6.41h-1.25l-1.19-4.25-1.2,4.25Z" transform="translate(0)"/><path class="cls-5" d="M293.61,588.6v-1.33h1.44v1.33Zm0,7.28v-6.36H295v6.36Z" transform="translate(0)"/><path class="cls-5" d="M298.47,596a1.45,1.45,0,0,1-1.64-1.63v-3.66h-.7v-1.16h.7v-1.72h1.36v1.72h1.43v1.16h-1.43v3.38a.61.61,0,0,0,.68.7,1.57,1.57,0,0,0,.73-.18v1.12A2.36,2.36,0,0,1,298.47,596Z" transform="translate(0)"/><path class="cls-5" d="M300.75,595.89v-8.66h1.36v3.24a2,2,0,0,1,1.74-1.06,1.8,1.8,0,0,1,1.43.6,2.38,2.38,0,0,1,.52,1.62v4.26h-1.36V592a1.55,1.55,0,0,0-.3-1,1,1,0,0,0-.84-.36,1.1,1.1,0,0,0-.87.38,1.5,1.5,0,0,0-.33,1v3.85Z" transform="translate(0)"/><path class="cls-5" d="M312.81,595.94l-2.92-8.45h1.51l2.06,6.35,2.06-6.35H317l-2.9,8.45Z" transform="translate(0)"/><path class="cls-5" d="M320.12,596a2.72,2.72,0,0,1-2.08-.89,3.31,3.31,0,0,1-.83-2.35v-.1a3.56,3.56,0,0,1,.77-2.35,2.42,2.42,0,0,1,1.94-.92,2.28,2.28,0,0,1,1.95.93,4,4,0,0,1,.69,2.42c0,.18,0,.34,0,.47h-4a1.91,1.91,0,0,0,.53,1.21,1.49,1.49,0,0,0,1.08.43,2.1,2.1,0,0,0,1.46-.67l.71.84A3,3,0,0,1,320.12,596Zm-1.56-3.73h2.69a2.47,2.47,0,0,0-.4-1.26,1.07,1.07,0,0,0-.92-.48,1.13,1.13,0,0,0-.93.47A2.37,2.37,0,0,0,318.56,592.29Z" transform="translate(0)"/><path class="cls-5" d="M326.38,596a2.62,2.62,0,0,1-2.05-.91,3.37,3.37,0,0,1-.8-2.32v-.12a3.39,3.39,0,0,1,.82-2.34,2.67,2.67,0,0,1,2.08-.92,2.79,2.79,0,0,1,2,.86l-.76,1a1.79,1.79,0,0,0-1.28-.64,1.32,1.32,0,0,0-1.1.58,2.39,2.39,0,0,0-.43,1.48v.06a2.38,2.38,0,0,0,.44,1.49,1.36,1.36,0,0,0,1.13.57,1.87,1.87,0,0,0,1.3-.65l.73.9A2.71,2.71,0,0,1,326.38,596Z" transform="translate(0)"/><path class="cls-5" d="M331.64,596a1.45,1.45,0,0,1-1.64-1.63v-3.66h-.7v-1.16h.7v-1.72h1.36v1.72h1.43v1.16h-1.43v3.38a.61.61,0,0,0,.68.7,1.57,1.57,0,0,0,.73-.18v1.12A2.36,2.36,0,0,1,331.64,596Z" transform="translate(0)"/><path class="cls-5" d="M333.89,588.6v-1.33h1.44v1.33Zm0,7.28v-6.36h1.36v6.36Z" transform="translate(0)"/><path class="cls-5" d="M340.09,596a2.18,2.18,0,0,1-1.86-1.08v1h-1.36v-8.66h1.36v3.32a2.16,2.16,0,0,1,1.86-1.14,2.23,2.23,0,0,1,1.75.85,3.53,3.53,0,0,1,.73,2.37v.17a3.55,3.55,0,0,1-.72,2.37A2.22,2.22,0,0,1,340.09,596Zm-1.45-1.76a1.32,1.32,0,0,0,1.07.56,1.28,1.28,0,0,0,1.06-.55,2.4,2.4,0,0,0,.42-1.49v-.11a2.4,2.4,0,0,0-.43-1.49,1.28,1.28,0,0,0-1-.56,1.32,1.32,0,0,0-1.07.56,2.34,2.34,0,0,0-.44,1.48v.12A2.34,2.34,0,0,0,338.65,594.24Z" transform="translate(0)"/><path class="cls-5" d="M343.83,588.6v-1.33h1.44v1.33Zm0,7.28v-6.36h1.36v6.36Z" transform="translate(0)"/><path class="cls-5" d="M347.83,589.53l1.21,2.14,1.24-2.14h1.43l-1.91,3.11,2,3.25h-1.46l-1.3-2.27-1.31,2.27h-1.43l2-3.25-1.9-3.11Z" transform="translate(0)"/><path class="cls-5" d="M354.47,591.58a1.77,1.77,0,0,1-1.36-.6,2.1,2.1,0,0,1-.55-1.48v-.07a2.12,2.12,0,0,1,.55-1.48,1.77,1.77,0,0,1,1.36-.61,1.8,1.8,0,0,1,1.38.6,2.12,2.12,0,0,1,.55,1.49v.06a2.11,2.11,0,0,1-.56,1.48A1.79,1.79,0,0,1,354.47,591.58Zm-1.19-.76a1.51,1.51,0,0,0,1.19.53,1.54,1.54,0,0,0,1.2-.54,1.92,1.92,0,0,0,.48-1.32v-.06a1.91,1.91,0,0,0-.47-1.31,1.54,1.54,0,0,0-1.21-.53,1.52,1.52,0,0,0-1.18.53,1.91,1.91,0,0,0-.47,1.31v.07A1.92,1.92,0,0,0,353.28,590.82Zm.42-.28v-2.22h.85a.94.94,0,0,1,.61.19.65.65,0,0,1,.23.53h0a.66.66,0,0,1-.43.66l.49.83h-.55l-.43-.73h-.29v.73Zm.48-1.13h.35c.25,0,.37-.11.37-.34s-.12-.32-.37-.32h-.35Z" transform="translate(0)"/><path class="cls-5" d="M161.66,428.68v-8.4h2.69a3.14,3.14,0,0,1,2.2.75,2.63,2.63,0,0,1,.82,2v0a2.6,2.6,0,0,1-.87,2.09,3.42,3.42,0,0,1-2.24.77h-1.21v2.72Zm1.39-4h1.21a1.72,1.72,0,0,0,1.24-.43,1.51,1.51,0,0,0,.45-1.14h0a1.48,1.48,0,0,0-.44-1.16,1.79,1.79,0,0,0-1.25-.4h-1.21Z" transform="translate(0)"/><path class="cls-5" d="M171.11,428.81a2.69,2.69,0,0,1-2.09-.92,3.34,3.34,0,0,1-.83-2.32v-.11a3.36,3.36,0,0,1,.83-2.33,2.84,2.84,0,0,1,4.19,0,3.36,3.36,0,0,1,.83,2.33v.11a3.34,3.34,0,0,1-.83,2.33A2.71,2.71,0,0,1,171.11,428.81Zm0-1.19a1.34,1.34,0,0,0,1.13-.59,2.45,2.45,0,0,0,.43-1.49v-.07a2.38,2.38,0,0,0-.45-1.49,1.38,1.38,0,0,0-1.13-.59A1.34,1.34,0,0,0,170,424a2.44,2.44,0,0,0-.43,1.48v.07A2.4,2.4,0,0,0,170,427,1.37,1.37,0,0,0,171.13,427.63Z" transform="translate(0)"/><path class="cls-5" d="M177.07,428.8a3.61,3.61,0,0,1-2.36-.89l.64-1a2.82,2.82,0,0,0,1.75.74,1,1,0,0,0,.65-.2.62.62,0,0,0,.24-.5h0a.55.55,0,0,0-.18-.4,1.49,1.49,0,0,0-.38-.28l-.68-.31a4.68,4.68,0,0,1-1.3-.77,1.43,1.43,0,0,1-.44-1.11v0a1.69,1.69,0,0,1,.59-1.35,2.23,2.23,0,0,1,1.51-.51,3.46,3.46,0,0,1,2.06.68l-.58,1a2.8,2.8,0,0,0-1.51-.56.89.89,0,0,0-.59.18.56.56,0,0,0-.22.44v0a.51.51,0,0,0,.19.38,1.76,1.76,0,0,0,.38.28l.68.32a4.55,4.55,0,0,1,1.3.8,1.45,1.45,0,0,1,.43,1.1h0a1.75,1.75,0,0,1-.61,1.42A2.36,2.36,0,0,1,177.07,428.8Z" transform="translate(0)"/><path class="cls-5" d="M182.41,428.78a1.45,1.45,0,0,1-1.64-1.63v-3.66h-.7v-1.16h.7v-1.72h1.36v1.72h1.43v1.16h-1.43v3.38a.61.61,0,0,0,.68.7,1.57,1.57,0,0,0,.73-.18v1.12A2.36,2.36,0,0,1,182.41,428.78Z" transform="translate(0)"/><path class="cls-5" d="M184.09,425.68v-1.34h3.34v1.34Z" transform="translate(0)"/><path class="cls-5" d="M188.91,428.68V420h1.36v3.24A2,2,0,0,1,192,422.2a1.8,1.8,0,0,1,1.43.6,2.38,2.38,0,0,1,.52,1.62v4.26h-1.36v-3.88a1.55,1.55,0,0,0-.3-1,1,1,0,0,0-.84-.36,1.1,1.1,0,0,0-.87.38,1.5,1.5,0,0,0-.33,1v3.85Z" transform="translate(0)"/><path class="cls-5" d="M198.07,428.81a2.69,2.69,0,0,1-2.09-.92,3.34,3.34,0,0,1-.83-2.32v-.11a3.36,3.36,0,0,1,.83-2.33,2.84,2.84,0,0,1,4.19,0,3.36,3.36,0,0,1,.83,2.33v.11a3.34,3.34,0,0,1-.83,2.33A2.71,2.71,0,0,1,198.07,428.81Zm0-1.19a1.34,1.34,0,0,0,1.13-.59,2.45,2.45,0,0,0,.43-1.49v-.07a2.38,2.38,0,0,0-.45-1.49,1.38,1.38,0,0,0-1.13-.59,1.34,1.34,0,0,0-1.13.58,2.44,2.44,0,0,0-.43,1.48v.07A2.4,2.4,0,0,0,197,427,1.37,1.37,0,0,0,198.09,427.63Z" transform="translate(0)"/><path class="cls-5" d="M204.82,428.81a2.62,2.62,0,0,1-2.05-.91,3.37,3.37,0,0,1-.8-2.32v-.12a3.39,3.39,0,0,1,.82-2.34,2.67,2.67,0,0,1,2.08-.92,2.79,2.79,0,0,1,2,.86l-.76,1a1.79,1.79,0,0,0-1.28-.64,1.32,1.32,0,0,0-1.1.58,2.39,2.39,0,0,0-.43,1.48v.06a2.38,2.38,0,0,0,.44,1.49,1.36,1.36,0,0,0,1.13.57,1.87,1.87,0,0,0,1.3-.65l.73.9A2.71,2.71,0,0,1,204.82,428.81Z" transform="translate(0)"/><path class="cls-5" d="M158.8,444.23a2,2,0,0,1-1.39-.52,1.85,1.85,0,0,1-.56-1.42v-.06a1.9,1.9,0,0,1,.61-1.52,2.45,2.45,0,0,1,1.65-.52,4.62,4.62,0,0,1,1.46.25v-.26a1.26,1.26,0,0,0-.35-1,1.44,1.44,0,0,0-1-.33,3.74,3.74,0,0,0-1.54.38l-.38-1.08a4.74,4.74,0,0,1,2.1-.5,2.25,2.25,0,0,1,2.51,2.48v3.95h-1.33v-.78A2,2,0,0,1,158.8,444.23Zm.41-1a1.37,1.37,0,0,0,1-.34,1.15,1.15,0,0,0,.4-.89v-.64a3,3,0,0,0-1.18-.23,1.34,1.34,0,0,0-.91.28,1,1,0,0,0-.32.79v0a1,1,0,0,0,.29.73A1.1,1.1,0,0,0,159.21,443.21Z" transform="translate(0)"/><path class="cls-5" d="M163.39,444.11v-6.36h1.36v.94a2,2,0,0,1,1.74-1.06,1.8,1.8,0,0,1,1.43.6,2.38,2.38,0,0,1,.52,1.62v4.26h-1.36v-3.88a1.55,1.55,0,0,0-.3-1,1,1,0,0,0-.84-.36,1.1,1.1,0,0,0-.87.38,1.5,1.5,0,0,0-.33,1v3.85Z" transform="translate(0)"/><path class="cls-5" d="M171.52,444.23a2,2,0,0,1-1.39-.52,1.85,1.85,0,0,1-.56-1.42v-.06a1.9,1.9,0,0,1,.61-1.52,2.45,2.45,0,0,1,1.65-.52,4.62,4.62,0,0,1,1.46.25v-.26a1.26,1.26,0,0,0-.35-1,1.44,1.44,0,0,0-1-.33,3.74,3.74,0,0,0-1.54.38l-.38-1.08a4.74,4.74,0,0,1,2.1-.5,2.25,2.25,0,0,1,2.51,2.48v3.95h-1.33v-.78A2,2,0,0,1,171.52,444.23Zm.41-1a1.37,1.37,0,0,0,1-.34,1.15,1.15,0,0,0,.4-.89v-.64a3,3,0,0,0-1.18-.23,1.34,1.34,0,0,0-.91.28,1,1,0,0,0-.32.79v0a1,1,0,0,0,.29.73A1.1,1.1,0,0,0,171.93,443.21Z" transform="translate(0)"/><path class="cls-5" d="M176.15,444.11v-8.66h1.36v8.66Z" transform="translate(0)"/><path class="cls-5" d="M181.46,442.37l1.38-4.62h1.4l-2.16,6.46a3.29,3.29,0,0,1-.75,1.36,1.6,1.6,0,0,1-1.13.4,2.62,2.62,0,0,1-1.28-.34l.4-1a1.49,1.49,0,0,0,.73.22.67.67,0,0,0,.45-.15,1.33,1.33,0,0,0,.32-.52l-2.27-6.37H180Z" transform="translate(0)"/><path class="cls-5" d="M187,444.23a3.61,3.61,0,0,1-2.36-.89l.64-1a2.82,2.82,0,0,0,1.75.74,1,1,0,0,0,.65-.2.62.62,0,0,0,.24-.5h0a.55.55,0,0,0-.18-.4,1.49,1.49,0,0,0-.38-.28l-.68-.31a4.68,4.68,0,0,1-1.3-.77,1.43,1.43,0,0,1-.44-1.11v0a1.69,1.69,0,0,1,.59-1.35,2.23,2.23,0,0,1,1.51-.51,3.46,3.46,0,0,1,2.06.68l-.58,1a2.8,2.8,0,0,0-1.51-.56.89.89,0,0,0-.59.18.56.56,0,0,0-.22.44v0a.51.51,0,0,0,.19.38,1.76,1.76,0,0,0,.38.28l.68.32a4.55,4.55,0,0,1,1.3.8,1.45,1.45,0,0,1,.43,1.1h0a1.75,1.75,0,0,1-.61,1.42A2.36,2.36,0,0,1,187,444.23Z" transform="translate(0)"/><path class="cls-5" d="M190.38,436.83V435.5h1.44v1.33Zm0,7.28v-6.36h1.36v6.36Z" transform="translate(0)"/><path class="cls-5" d="M195.21,444.23a3.61,3.61,0,0,1-2.36-.89l.64-1a2.82,2.82,0,0,0,1.75.74,1,1,0,0,0,.65-.2.62.62,0,0,0,.24-.5h0a.55.55,0,0,0-.18-.4,1.49,1.49,0,0,0-.38-.28l-.68-.31a4.68,4.68,0,0,1-1.3-.77,1.43,1.43,0,0,1-.44-1.11v0a1.69,1.69,0,0,1,.59-1.35,2.23,2.23,0,0,1,1.51-.51,3.46,3.46,0,0,1,2.06.68l-.58,1a2.8,2.8,0,0,0-1.51-.56.89.89,0,0,0-.59.18.56.56,0,0,0-.22.44v0a.51.51,0,0,0,.19.38,1.76,1.76,0,0,0,.38.28l.68.32a4.55,4.55,0,0,1,1.3.8,1.45,1.45,0,0,1,.43,1.1h0a1.75,1.75,0,0,1-.61,1.42A2.36,2.36,0,0,1,195.21,444.23Z" transform="translate(0)"/><path class="cls-5" d="M204.31,444.25a2.69,2.69,0,0,1-2.09-.92,3.34,3.34,0,0,1-.83-2.32v-.11a3.36,3.36,0,0,1,.83-2.33,2.84,2.84,0,0,1,4.19,0,3.36,3.36,0,0,1,.83,2.33V441a3.34,3.34,0,0,1-.83,2.33A2.71,2.71,0,0,1,204.31,444.25Zm0-1.19a1.34,1.34,0,0,0,1.13-.59,2.45,2.45,0,0,0,.43-1.49v-.07a2.38,2.38,0,0,0-.45-1.49,1.38,1.38,0,0,0-1.13-.59,1.34,1.34,0,0,0-1.13.58,2.44,2.44,0,0,0-.43,1.48V441a2.4,2.4,0,0,0,.45,1.49A1.37,1.37,0,0,0,204.33,443.06Z" transform="translate(0)"/><path class="cls-5" d="M208.67,444.11v-5.2H208v-1.13h.71v-.49a2,2,0,0,1,.47-1.45,1.86,1.86,0,0,1,1.33-.46,3.21,3.21,0,0,1,1,.13v1.14a2.5,2.5,0,0,0-.66-.11q-.76,0-.76.88v.36h1.4v1.13H210v5.2Z" transform="translate(0)"/><path class="cls-5" d="M147.38,459.6l-2.44-8.45h1.48l1.64,6.1,1.72-6.12H151l1.72,6.12,1.64-6.1h1.44l-2.45,8.45h-1.26l-1.72-5.93-1.72,5.93Z" transform="translate(0)"/><path class="cls-5" d="M159,459.55v-7.1h-2.21v-1.3h5.81v1.3h-2.21v7.1Z" transform="translate(0)"/><path class="cls-5" d="M170.74,459.55l-1.16-2.9h-1.26l-.68,2.9h-1.46l2.05-8.4h2.4a3.12,3.12,0,0,1,2.33.76,2.25,2.25,0,0,1,.61,1.62,2.83,2.83,0,0,1-.78,2.05,3.49,3.49,0,0,1-1.68.9l1.27,3.07Zm-2.09-4.18h1.24a2.36,2.36,0,0,0,1.72-.56,1.64,1.64,0,0,0,.44-1.18,1.09,1.09,0,0,0-.3-.8,1.7,1.7,0,0,0-1.22-.36h-1.18Z" transform="translate(0)"/><path class="cls-5" d="M173.13,459.55l5.12-8.46h1.42l1,8.46h-1.48l-.2-2h-3.12l-1.18,2Zm3.54-3.31h2.16l-.29-3.37Z" transform="translate(0)"/><path class="cls-5" d="M184.5,459.67a3.58,3.58,0,0,1-3-1.52l1.1-.94a2.71,2.71,0,0,0,2,1.18,1.25,1.25,0,0,0,.86-.3,1,1,0,0,0,.34-.76,1,1,0,0,0-.26-.65,4.81,4.81,0,0,0-.94-.78,5.73,5.73,0,0,1-1.28-1.15,1.92,1.92,0,0,1-.41-1.19,2.39,2.39,0,0,1,.67-1.7,2.8,2.8,0,0,1,2.06-.83,3.48,3.48,0,0,1,2.69,1.25l-1,1a2.41,2.41,0,0,0-1.73-1,1.19,1.19,0,0,0-.85.3.93.93,0,0,0-.32.7,1,1,0,0,0,.26.65,5,5,0,0,0,1,.79,5.24,5.24,0,0,1,1.26,1.12,2,2,0,0,1,.41,1.25,2.39,2.39,0,0,1-.72,1.75A2.82,2.82,0,0,1,184.5,459.67Z" transform="translate(0)"/><path class="cls-5" d="M191.9,459.55v-6.36h1.36v.92a2,2,0,0,1,1.7-1,1.69,1.69,0,0,1,1.64,1,2.27,2.27,0,0,1,1.86-1,1.82,1.82,0,0,1,1.42.58,2.37,2.37,0,0,1,.52,1.64v4.26h-1.36v-3.86q0-1.39-1.08-1.39a1,1,0,0,0-.82.37,1.54,1.54,0,0,0-.32,1v3.85h-1.36v-3.88a1.61,1.61,0,0,0-.28-1,1,1,0,0,0-.79-.35,1,1,0,0,0-.83.38,1.56,1.56,0,0,0-.32,1v3.84Z" transform="translate(0)"/><path class="cls-5" d="M205.48,459.67a3.36,3.36,0,0,1-2.65-1.18,4.53,4.53,0,0,1-1-3.09v-.08a4.49,4.49,0,0,1,1.06-3.09,3.44,3.44,0,0,1,2.7-1.19,3.79,3.79,0,0,1,2.64,1l-.84,1.07a2.64,2.64,0,0,0-1.8-.82,2,2,0,0,0-1.66.83,3.36,3.36,0,0,0-.66,2.16v0a3.43,3.43,0,0,0,.65,2.18,2,2,0,0,0,1.66.83,2.7,2.7,0,0,0,1.86-.88l.82,1A3.7,3.7,0,0,1,205.48,459.67Z" transform="translate(0)"/><path class="cls-5" d="M209.47,459.55v-8.4h3a3,3,0,0,1,2.24.79,2.5,2.5,0,0,1,.7,1.85v0a2.5,2.5,0,0,1-.47,1.55,2.69,2.69,0,0,1-1.27.91l2,3.25h-1.61l-1.79-3h-1.43v3Zm1.39-4.21h1.5a1.81,1.81,0,0,0,1.24-.39,1.35,1.35,0,0,0,.44-1.06v0a1.33,1.33,0,0,0-.43-1.07,1.84,1.84,0,0,0-1.22-.37h-1.52Z" transform="translate(0)"/><path class="cls-5" d="M220.29,459.67a3.36,3.36,0,0,1-2.65-1.18,4.53,4.53,0,0,1-1-3.09v-.08a4.49,4.49,0,0,1,1.06-3.09,3.44,3.44,0,0,1,2.7-1.19,3.79,3.79,0,0,1,2.64,1l-.84,1.07a2.64,2.64,0,0,0-1.8-.82,2,2,0,0,0-1.66.83,3.36,3.36,0,0,0-.66,2.16v0a3.43,3.43,0,0,0,.65,2.18,2,2,0,0,0,1.66.83,2.7,2.7,0,0,0,1.86-.88l.82,1A3.7,3.7,0,0,1,220.29,459.67Z" transform="translate(0)"/><circle class="cls-6" cx="185.01" cy="112.35" r="82.97"/><path class="cls-1" d="M145.45,88.75l-4.55,1L139.48,84l7.9-2.23h5.43v27.17h-7.36Z" transform="translate(0)"/><path class="cls-1" d="M156.2,112.49q4-.46,3.85-3.62h-3v-7.51h7.63v6.13a10.23,10.23,0,0,1-.56,3.62,5.83,5.83,0,0,1-1.6,2.37,6.74,6.74,0,0,1-2.5,1.35,12.22,12.22,0,0,1-3.28.48Z" transform="translate(0)"/><path class="cls-1" d="M172.66,88.75l-4.55,1L166.68,84l7.9-2.23H180v27.17h-7.36Z" transform="translate(0)"/><path class="cls-1" d="M194.78,109.4a16.37,16.37,0,0,1-4.47-.58,11.31,11.31,0,0,1-3.51-1.62,7.79,7.79,0,0,1-2.29-2.49,6.35,6.35,0,0,1-.83-3.22v-.08a6.29,6.29,0,0,1,1.21-4A8.34,8.34,0,0,1,188.3,95a8.52,8.52,0,0,1-2.64-2.27,5.74,5.74,0,0,1-1.06-3.58V89a6.23,6.23,0,0,1,.73-3,7.33,7.33,0,0,1,2.08-2.39,10,10,0,0,1,3.22-1.58,15.63,15.63,0,0,1,8.29,0,10.05,10.05,0,0,1,3.22,1.58A7.34,7.34,0,0,1,204.22,86a6.24,6.24,0,0,1,.73,3v.08a5.74,5.74,0,0,1-1.06,3.58A8.54,8.54,0,0,1,201.25,95,11.11,11.11,0,0,1,203.14,96a6.73,6.73,0,0,1,1.45,1.37,6.22,6.22,0,0,1,.94,1.75,6.75,6.75,0,0,1,.35,2.25v.08a6.54,6.54,0,0,1-.83,3.28,7.72,7.72,0,0,1-2.29,2.5,11,11,0,0,1-3.51,1.6A16.93,16.93,0,0,1,194.78,109.4Zm0-5.59a4.17,4.17,0,0,0,2.89-.91,2.79,2.79,0,0,0,1-2.14v-.08a2.53,2.53,0,0,0-1.08-2.12,5.29,5.29,0,0,0-5.63,0,2.53,2.53,0,0,0-1.08,2.12v.08a2.79,2.79,0,0,0,1,2.14A4.17,4.17,0,0,0,194.78,103.82Zm0-10.91a3.43,3.43,0,0,0,2.41-.83,2.72,2.72,0,0,0,.91-2.1V89.9a2.71,2.71,0,0,0-.89-2,3.33,3.33,0,0,0-2.43-.87,3.37,3.37,0,0,0-2.43.85,2.64,2.64,0,0,0-.89,2v.08a2.78,2.78,0,0,0,.91,2.12A3.38,3.38,0,0,0,194.78,92.91Z" transform="translate(0)"/><path class="cls-1" d="M219.09,109.48a15.94,15.94,0,0,1-6.72-1.29,14.41,14.41,0,0,1-4.76-3.49l4.7-4.7a12.35,12.35,0,0,0,3,2.27,7.3,7.3,0,0,0,3.41.81,3.92,3.92,0,0,0,2.54-.75,2.43,2.43,0,0,0,.92-2v-.08a2.3,2.3,0,0,0-1.14-2,6,6,0,0,0-3.26-.73h-3.16l-1.08-3.89,6.2-5.59H209.46V82H229v5.36l-6.44,5.51a13.32,13.32,0,0,1,2.7.89,7.93,7.93,0,0,1,2.24,1.5,6.58,6.58,0,0,1,1.5,2.2,7.67,7.67,0,0,1,.54,3v.08a8.33,8.33,0,0,1-3,6.53,9.85,9.85,0,0,1-3.29,1.81A13,13,0,0,1,219.09,109.48Z" transform="translate(0)"/><path class="cls-1" d="M146.7,137.85v-15h3.11v1.62A3.75,3.75,0,0,1,153,122.6a4,4,0,0,1,3.17,1.53,6.61,6.61,0,0,1,1.29,4.38v.35a6.61,6.61,0,0,1-1.29,4.38,4,4,0,0,1-3.17,1.53A3.84,3.84,0,0,1,149.8,133v4.81Zm3.72-6.69a2,2,0,0,0,1.64.9,1.94,1.94,0,0,0,1.63-.9,4,4,0,0,0,.65-2.36v-.22a4,4,0,0,0-.65-2.36,1.94,1.94,0,0,0-1.63-.9,2,2,0,0,0-1.64.9,3.9,3.9,0,0,0-.66,2.36v.22A3.9,3.9,0,0,0,150.42,131.16Z" transform="translate(0)"/><path class="cls-1" d="M162.38,134.77a3.34,3.34,0,0,1-3.48-3.57v-.13a3.47,3.47,0,0,1,1.1-2.8,4.45,4.45,0,0,1,3-.94,6.66,6.66,0,0,1,2.45.48v-.35a2,2,0,0,0-.58-1.53,2.34,2.34,0,0,0-1.63-.52,7.11,7.11,0,0,0-2.69.66l-.85-2.43a8.84,8.84,0,0,1,4-.94,4.24,4.24,0,0,1,4.77,4.75v7.11h-3v-1.27A3.63,3.63,0,0,1,162.38,134.77Zm1-2.28a2.13,2.13,0,0,0,1.49-.48,1.64,1.64,0,0,0,.59-1.31v-1a4,4,0,0,0-1.73-.37,2,2,0,0,0-1.37.43,1.52,1.52,0,0,0-.49,1.21v0a1.38,1.38,0,0,0,.4,1.07A1.65,1.65,0,0,0,163.41,132.49Z" transform="translate(0)"/><path class="cls-1" d="M174.44,134.75a3.38,3.38,0,0,1-2.29-.71,3.06,3.06,0,0,1-.82-2.42v-6.17h-1.18v-2.62h1.18v-3h3.11v3h2.32v2.63h-2.32V131q0,1,1,1a3,3,0,0,0,1.33-.33v2.47A4.55,4.55,0,0,1,174.44,134.75Z" transform="translate(0)"/><path class="cls-1" d="M178.84,121.58v-2.82h3.24v2.82Zm.07,13V122.82H182v11.73Z" transform="translate(0)"/><path class="cls-1" d="M189.64,134.81a5.18,5.18,0,0,1-3.93-1.65,6.06,6.06,0,0,1-1.56-4.34v-.2a6.41,6.41,0,0,1,1.46-4.31,4.61,4.61,0,0,1,3.66-1.71,4.33,4.33,0,0,1,3.7,1.74,7.35,7.35,0,0,1,1.29,4.5q0,.55,0,1h-7a3,3,0,0,0,.86,1.75,2.38,2.38,0,0,0,1.67.61,3.55,3.55,0,0,0,2.45-1.16l1.6,1.88A5.42,5.42,0,0,1,189.64,134.81Zm-2.43-7h4a3.79,3.79,0,0,0-.62-1.93,1.62,1.62,0,0,0-1.37-.7,1.68,1.68,0,0,0-1.39.69A3.75,3.75,0,0,0,187.22,127.79Z" transform="translate(0)"/><path class="cls-1" d="M196.29,134.55V122.82h3.11v1.58a3.7,3.7,0,0,1,3-1.79,3.18,3.18,0,0,1,2.54,1.06,4.28,4.28,0,0,1,.92,2.9v8h-3.11v-7.07q0-2.08-1.66-2.08a1.56,1.56,0,0,0-1.25.54,2.3,2.3,0,0,0-.46,1.54v7.07Z" transform="translate(0)"/><path class="cls-1" d="M211.87,134.75a3.38,3.38,0,0,1-2.29-.71,3.06,3.06,0,0,1-.82-2.42v-6.17h-1.18v-2.62h1.18v-3h3.11v3h2.32v2.63h-2.32V131q0,1,1,1a3,3,0,0,0,1.33-.33v2.47A4.55,4.55,0,0,1,211.87,134.75Z" transform="translate(0)"/><path class="cls-1" d="M219.77,134.77a6.86,6.86,0,0,1-4.44-1.62l1.36-2.19a5.3,5.3,0,0,0,3.13,1.31,1.47,1.47,0,0,0,.93-.25.79.79,0,0,0,.32-.65v0a.66.66,0,0,0,0-.21.87.87,0,0,0-.1-.2,1.08,1.08,0,0,0-.13-.16,1.1,1.1,0,0,0-.22-.15l-.25-.15-.3-.15-.33-.14-.39-.16-.39-.17a7.69,7.69,0,0,1-2.3-1.42,2.82,2.82,0,0,1-.79-2.12v0a3.27,3.27,0,0,1,1.14-2.61,4.28,4.28,0,0,1,2.89-1,6.58,6.58,0,0,1,3.87,1.27l-1.25,2.23a5.18,5.18,0,0,0-2.67-1,1.3,1.3,0,0,0-.84.24.74.74,0,0,0-.3.59v0a.83.83,0,0,0,.45.69,11.11,11.11,0,0,0,1.41.73l.14.05.12.05a8.61,8.61,0,0,1,2.32,1.49,2.71,2.71,0,0,1,.79,2v0a3.31,3.31,0,0,1-1.15,2.7A4.53,4.53,0,0,1,219.77,134.77Z" transform="translate(0)"/><path class="cls-7" d="M155.58,69.11V53.79h5.1a5.76,5.76,0,0,1,4.09,1.41A5,5,0,0,1,166.28,59v0a4.93,4.93,0,0,1-1.6,3.93,6.24,6.24,0,0,1-4.13,1.43h-1.79v4.66Zm3.17-7.5h1.77a2.54,2.54,0,0,0,1.88-.68,2.4,2.4,0,0,0,.68-1.77v0a2.42,2.42,0,0,0-.67-1.84,2.7,2.7,0,0,0-1.94-.63h-1.73Z" transform="translate(0)"/><path class="cls-7" d="M168.36,69.11V53.79h5.75a5.63,5.63,0,0,1,4.16,1.47,4.79,4.79,0,0,1,1.29,3.54v.09a4.53,4.53,0,0,1-2.84,4.53L180,69.11h-3.63l-2.82-5h-2v5Zm3.17-7.83h2.34a2.56,2.56,0,0,0,1.84-.62,2.2,2.2,0,0,0,.66-1.67v0a2.16,2.16,0,0,0-.67-1.72,2.8,2.8,0,0,0-1.89-.58h-2.28Z" transform="translate(0)"/><path class="cls-7" d="M182.18,69.11V53.79h3.17V69.11Z" transform="translate(0)"/><path class="cls-7" d="M188.53,69.11V53.79h3.33L195.27,60l3.37-6.21H202V69.11h-3.11V59.33l-3.61,6.32h-.07l-3.59-6.28v9.74Z" transform="translate(0)"/><path class="cls-7" d="M205,69.11V53.79h9.87v2.87H208.2V60h5.91v2.87H208.2v3.41H215v2.87Z" transform="translate(0)"/><path class="cls-1" d="M142.21,155.22l-1.88-7.14h1.89l1,4.19,1.1-4.22h1.6l1.11,4.23,1-4.2h1.86l-1.9,7.14h-1.73l-1.12-4.2-1.15,4.2Z" transform="translate(0)"/><path class="cls-1" d="M150.89,147.33v-1.71h2v1.71Zm0,7.84v-7.09h1.88v7.09Z" transform="translate(0)"/><path class="cls-1" d="M156.56,155.28a2,2,0,0,1-1.38-.43,1.85,1.85,0,0,1-.5-1.46v-3.73H154v-1.59h.71v-1.81h1.88v1.81H158v1.59h-1.4V153q0,.61.58.61a1.78,1.78,0,0,0,.81-.2v1.49A2.75,2.75,0,0,1,156.56,155.28Z" transform="translate(0)"/><path class="cls-1" d="M159.19,155.16v-9.54h1.88V149a2.23,2.23,0,0,1,1.82-1.08,1.92,1.92,0,0,1,1.53.64,2.58,2.58,0,0,1,.56,1.75v4.83H163.1v-4.27q0-1.26-1-1.26a.94.94,0,0,0-.75.32,1.4,1.4,0,0,0-.28.93v4.27Z" transform="translate(0)"/><path class="cls-1" d="M169.39,157.16v-9.08h1.88v1a2.27,2.27,0,0,1,1.92-1.11,2.42,2.42,0,0,1,1.92.93,4,4,0,0,1,.78,2.64v.21a4,4,0,0,1-.78,2.64,2.42,2.42,0,0,1-1.92.93,2.32,2.32,0,0,1-1.92-1v2.91Zm2.25-4a1.19,1.19,0,0,0,1,.54,1.17,1.17,0,0,0,1-.54,2.39,2.39,0,0,0,.39-1.43v-.13a2.39,2.39,0,0,0-.39-1.43,1.17,1.17,0,0,0-1-.54,1.19,1.19,0,0,0-1,.54,2.36,2.36,0,0,0-.4,1.43v.13A2.36,2.36,0,0,0,171.64,153.12Z" transform="translate(0)"/><path class="cls-1" d="M177.14,155.16v-7.09H179v1.26a1.88,1.88,0,0,1,1.92-1.37v2h-.08a1.71,1.71,0,0,0-1.36.55,2.45,2.45,0,0,0-.48,1.65v3Z" transform="translate(0)"/><path class="cls-1" d="M185,155.32a3.13,3.13,0,0,1-2.37-1,3.66,3.66,0,0,1-.95-2.62v-.12a3.87,3.87,0,0,1,.88-2.6,2.79,2.79,0,0,1,2.21-1A2.61,2.61,0,0,1,187,149a4.44,4.44,0,0,1,.78,2.72c0,.22,0,.42,0,.61h-4.23a1.8,1.8,0,0,0,.52,1.06,1.44,1.44,0,0,0,1,.37,2.15,2.15,0,0,0,1.48-.7l1,1.14A3.28,3.28,0,0,1,185,155.32Zm-1.47-4.24H186a2.3,2.3,0,0,0-.38-1.16,1,1,0,0,0-.83-.42,1,1,0,0,0-.84.42A2.27,2.27,0,0,0,183.55,151.08Z" transform="translate(0)"/><path class="cls-1" d="M190.9,155.22l-2.39-7.14h2l1.32,4.71,1.34-4.71H195l-2.38,7.14Z" transform="translate(0)"/><path class="cls-1" d="M196,147.33v-1.71h2v1.71Zm0,7.84v-7.09h1.88v7.09Z" transform="translate(0)"/><path class="cls-1" d="M205,154.3a3.3,3.3,0,0,1-4.77,0,3.66,3.66,0,0,1-.95-2.59v-.15a3.67,3.67,0,0,1,1-2.6,3.31,3.31,0,0,1,4.77,0,3.67,3.67,0,0,1,.94,2.6v.15A3.68,3.68,0,0,1,205,154.3Zm-2.37-.6a1.25,1.25,0,0,0,1.07-.56,2.45,2.45,0,0,0,.4-1.45v-.09a2.43,2.43,0,0,0-.41-1.45,1.3,1.3,0,0,0-2.15,0,2.45,2.45,0,0,0-.4,1.45v.09a2.41,2.41,0,0,0,.42,1.45A1.28,1.28,0,0,0,202.6,153.7Z" transform="translate(0)"/><path class="cls-1" d="M209.21,155.3a1.92,1.92,0,0,1-1.54-.64,2.61,2.61,0,0,1-.55-1.75v-4.83H209v4.27q0,1.26,1,1.26a.94.94,0,0,0,.76-.32,1.42,1.42,0,0,0,.27-.93v-4.27h1.88v7.09H211v-1A2.18,2.18,0,0,1,209.21,155.3Z" transform="translate(0)"/><path class="cls-1" d="M216.55,155.3a4.15,4.15,0,0,1-2.68-1l.82-1.32a3.2,3.2,0,0,0,1.89.79.89.89,0,0,0,.56-.15.48.48,0,0,0,.19-.39v0a.38.38,0,0,0,0-.13.49.49,0,0,0-.06-.12l-.08-.1-.13-.09-.15-.09-.18-.09-.2-.09-.24-.1-.24-.11a4.65,4.65,0,0,1-1.39-.86,1.71,1.71,0,0,1-.48-1.28v0a2,2,0,0,1,.69-1.58,2.59,2.59,0,0,1,1.75-.59,4,4,0,0,1,2.34.77l-.75,1.35a3.13,3.13,0,0,0-1.61-.61.78.78,0,0,0-.51.15.44.44,0,0,0-.18.36v0a.5.5,0,0,0,.27.42,6.72,6.72,0,0,0,.85.44l.09,0,.07,0a5.2,5.2,0,0,1,1.4.9,1.64,1.64,0,0,1,.48,1.23v0a2,2,0,0,1-.69,1.63A2.74,2.74,0,0,1,216.55,155.3Z" transform="translate(0)"/><path class="cls-1" d="M220.26,155.16v-9.54h1.88v9.54Z" transform="translate(0)"/><path class="cls-1" d="M226.49,152.77l1.3-4.69h1.9l-2.33,7.18a3.65,3.65,0,0,1-.83,1.51,1.83,1.83,0,0,1-1.3.44,2.93,2.93,0,0,1-1.52-.42l.52-1.4a1.54,1.54,0,0,0,.77.24.62.62,0,0,0,.61-.45l-2.41-7.1h2Z" transform="translate(0)"/><path class="cls-1" d="M139.66,169.39a1.92,1.92,0,0,1-1.54-.64,2.61,2.61,0,0,1-.55-1.75v-4.83h1.86v4.27q0,1.26,1,1.26a.94.94,0,0,0,.76-.32,1.42,1.42,0,0,0,.27-.93v-4.27h1.88v7.09h-1.88v-1A2.18,2.18,0,0,1,139.66,169.39Z" transform="translate(0)"/><path class="cls-1" d="M144.86,169.26v-7.09h1.88v1a2.23,2.23,0,0,1,1.82-1.08,1.92,1.92,0,0,1,1.53.64,2.58,2.58,0,0,1,.56,1.75v4.83h-1.88V165q0-1.26-1-1.26a.94.94,0,0,0-.75.32,1.4,1.4,0,0,0-.28.93v4.27Z" transform="translate(0)"/><path class="cls-1" d="M154.27,169.38a2,2,0,0,1-1.38-.43,1.85,1.85,0,0,1-.5-1.46v-3.73h-.71v-1.59h.71v-1.81h1.88v1.81h1.4v1.59h-1.4v3.34q0,.61.58.61a1.78,1.78,0,0,0,.81-.2V169A2.75,2.75,0,0,1,154.27,169.38Z" transform="translate(0)"/><path class="cls-1" d="M156.9,169.26v-7.09h1.88v1.26a1.88,1.88,0,0,1,1.92-1.37v2h-.08a1.71,1.71,0,0,0-1.36.55,2.45,2.45,0,0,0-.48,1.65v3Z" transform="translate(0)"/><path class="cls-1" d="M164.78,169.42a3.13,3.13,0,0,1-2.37-1,3.66,3.66,0,0,1-.95-2.62v-.12a3.87,3.87,0,0,1,.88-2.6,2.79,2.79,0,0,1,2.21-1,2.61,2.61,0,0,1,2.23,1.05,4.44,4.44,0,0,1,.78,2.72c0,.22,0,.42,0,.61h-4.23a1.8,1.8,0,0,0,.52,1.06,1.44,1.44,0,0,0,1,.37,2.15,2.15,0,0,0,1.48-.7l1,1.14A3.28,3.28,0,0,1,164.78,169.42Zm-1.47-4.24h2.45a2.3,2.3,0,0,0-.38-1.16,1,1,0,0,0-.83-.42,1,1,0,0,0-.84.42A2.27,2.27,0,0,0,163.31,165.17Z" transform="translate(0)"/><path class="cls-1" d="M170.53,169.39a2,2,0,0,1-2.1-2.15v-.08a2.1,2.1,0,0,1,.67-1.69,2.7,2.7,0,0,1,1.8-.57,4,4,0,0,1,1.48.29V165A1.19,1.19,0,0,0,172,164a1.42,1.42,0,0,0-1-.32,4.29,4.29,0,0,0-1.63.4l-.52-1.47a5.34,5.34,0,0,1,2.42-.57A2.56,2.56,0,0,1,174.2,165v4.3h-1.84v-.77A2.2,2.2,0,0,1,170.53,169.39Zm.62-1.37a1.29,1.29,0,0,0,.9-.29,1,1,0,0,0,.36-.79v-.6a2.42,2.42,0,0,0-1-.22,1.22,1.22,0,0,0-.83.26.92.92,0,0,0-.3.73v0a.84.84,0,0,0,.25.65A1,1,0,0,0,171.15,168Z" transform="translate(0)"/><path class="cls-1" d="M177.81,169.38a2,2,0,0,1-1.38-.43,1.85,1.85,0,0,1-.5-1.46v-3.73h-.71v-1.59h.71v-1.81h1.88v1.81h1.4v1.59h-1.4v3.34q0,.61.58.61a1.78,1.78,0,0,0,.81-.2V169A2.75,2.75,0,0,1,177.81,169.38Z" transform="translate(0)"/><path class="cls-1" d="M183.47,169.42a3.13,3.13,0,0,1-2.37-1,3.66,3.66,0,0,1-.95-2.62v-.12a3.87,3.87,0,0,1,.88-2.6,2.79,2.79,0,0,1,2.21-1,2.61,2.61,0,0,1,2.23,1.05,4.44,4.44,0,0,1,.78,2.72c0,.22,0,.42,0,.61H182a1.8,1.8,0,0,0,.52,1.06,1.44,1.44,0,0,0,1,.37,2.15,2.15,0,0,0,1.48-.7l1,1.14A3.28,3.28,0,0,1,183.47,169.42ZM182,165.17h2.45a2.3,2.3,0,0,0-.38-1.16,1,1,0,0,0-.83-.42,1,1,0,0,0-.84.42A2.27,2.27,0,0,0,182,165.17Z" transform="translate(0)"/><path class="cls-1" d="M189.93,169.39a2.42,2.42,0,0,1-1.92-.93,4,4,0,0,1-.78-2.64v-.21A4,4,0,0,1,188,163a2.42,2.42,0,0,1,1.92-.93,2.37,2.37,0,0,1,1.92,1v-3.37h1.88v9.54h-1.88v-1A2.27,2.27,0,0,1,189.93,169.39Zm-.43-2.18a1.17,1.17,0,0,0,1,.54,1.19,1.19,0,0,0,1-.54,2.36,2.36,0,0,0,.4-1.43v-.13a2.36,2.36,0,0,0-.4-1.43,1.19,1.19,0,0,0-1-.54,1.17,1.17,0,0,0-1,.54,2.39,2.39,0,0,0-.39,1.43v.13A2.39,2.39,0,0,0,189.5,167.21Z" transform="translate(0)"/><path class="cls-1" d="M198.2,169.26v-7.09h1.88v1a2.22,2.22,0,0,1,1.84-1.08,1.83,1.83,0,0,1,1.75,1,2.55,2.55,0,0,1,2-1,2,2,0,0,1,1.53.61,2.51,2.51,0,0,1,.57,1.77v4.84H205.9V165q0-1.26-1-1.26a.9.9,0,0,0-.74.32,1.44,1.44,0,0,0-.26.93v4.27H202V165q0-1.26-1-1.26a.9.9,0,0,0-.74.32,1.44,1.44,0,0,0-.26.93v4.27Z" transform="translate(0)"/><path class="cls-1" d="M213.16,169.39a3.72,3.72,0,0,1-2.95-1.29,5,5,0,0,1-1.12-3.4v-.12a4.89,4.89,0,0,1,1.18-3.4,3.87,3.87,0,0,1,3-1.31,4,4,0,0,1,3,1.23l-1.15,1.48a2.64,2.64,0,0,0-1.89-.93,1.86,1.86,0,0,0-1.55.81,3.47,3.47,0,0,0-.61,2.14v0a3.43,3.43,0,0,0,.62,2.15,1.89,1.89,0,0,0,1.56.81,2.76,2.76,0,0,0,1.9-1l1.15,1.36a5,5,0,0,1-1.4,1A4,4,0,0,1,213.16,169.39Z" transform="translate(0)"/><path class="cls-1" d="M217.6,169.26V160h3.48a3.4,3.4,0,0,1,2.51.89,2.89,2.89,0,0,1,.78,2.14v.05a2.74,2.74,0,0,1-1.72,2.74l2,3.44h-2.19l-1.71-3h-1.2v3Zm1.92-4.73h1.41a1.55,1.55,0,0,0,1.11-.38,1.33,1.33,0,0,0,.4-1h0a1.3,1.3,0,0,0-.4-1,1.69,1.69,0,0,0-1.14-.35h-1.37Z" transform="translate(0)"/><path class="cls-1" d="M229.63,169.39a3.72,3.72,0,0,1-2.95-1.29,5,5,0,0,1-1.12-3.4v-.12a4.89,4.89,0,0,1,1.18-3.4,3.87,3.87,0,0,1,3-1.31,4,4,0,0,1,3,1.23l-1.15,1.48a2.64,2.64,0,0,0-1.89-.93,1.86,1.86,0,0,0-1.55.81,3.47,3.47,0,0,0-.61,2.14v0a3.43,3.43,0,0,0,.62,2.15,1.89,1.89,0,0,0,1.56.81,2.76,2.76,0,0,0,1.9-1l1.15,1.36a5,5,0,0,1-1.4,1A4,4,0,0,1,229.63,169.39Z" transform="translate(0)"/><polygon class="cls-6" points="213.31 216.76 185.52 228.79 155.49 216.76 213.31 216.76"/><polyline class="cls-4" points="151.43 285.5 90.55 285.5 90.55 338.88"/><polyline class="cls-4" points="220.93 285.5 278.49 285.5 278.49 338.88"/><path class="cls-7" d="M222.65,283.21A38.25,38.25,0,1,1,184.4,245a38.25,38.25,0,0,1,38.25,38.25" transform="translate(0)"/><path class="cls-6" d="M174.32,267.59h11.24a13.94,13.94,0,0,1,4.65.68,8,8,0,0,1,3.09,1.9,7.34,7.34,0,0,1,2.1,5.53v.07a7.47,7.47,0,0,1-1.32,4.55,8.37,8.37,0,0,1-3.56,2.75l5.67,8.28h-7.61l-4.79-7.2h-2.89v7.2h-6.59ZM185.26,279a4,4,0,0,0,2.61-.76,2.53,2.53,0,0,0,.92-2.05v-.07a2.46,2.46,0,0,0-1-2.12,4.36,4.36,0,0,0-2.61-.7h-4.31V279Z" transform="translate(0)"/><path class="cls-6" d="M161.41,308.45a6,6,0,0,1,0-10.52l.56.91a5.23,5.23,0,0,0,0,8.69Z" transform="translate(0)"/><path class="cls-6" d="M163,306.74V298.1h1.33l3.8,5.77V298.1h1.4v8.64h-1.21l-3.91-5.94v5.94Z" transform="translate(0)"/><path class="cls-6" d="M173.75,301.66v-1.32h5.33v1.32Zm0,2.8v-1.32h5.33v1.32Z" transform="translate(0)"/><path class="cls-6" d="M184.28,306.74v-7.21l-1.36.41-.23-1.23,2-.67h1v8.7Z" transform="translate(0)"/><path class="cls-6" d="M187.1,308.53l-.16-.6q1.11-.21,1-1.19h-.63V305.1h1.58v1.38a2.09,2.09,0,0,1-.45,1.46A2.06,2.06,0,0,1,187.1,308.53Z" transform="translate(0)"/><path class="cls-6" d="M190.93,306.74v-7.21l-1.36.41-.23-1.23,2-.67h1v8.7Z" transform="translate(0)"/><path class="cls-6" d="M198.71,306.19a3.64,3.64,0,0,1-4.22,0,2.19,2.19,0,0,1-.83-1.78v0a2.18,2.18,0,0,1,1.41-2.11,2.07,2.07,0,0,1-1.16-1.93v0a2.08,2.08,0,0,1,.76-1.65,3.17,3.17,0,0,1,3.85,0,2.09,2.09,0,0,1,.76,1.66v0a2.06,2.06,0,0,1-1.16,1.93,2.19,2.19,0,0,1,1.42,2.09v0A2.2,2.2,0,0,1,198.71,306.19Zm-3.23-.9a1.62,1.62,0,0,0,1.12.38,1.6,1.6,0,0,0,1.11-.38,1.26,1.26,0,0,0,.42-1v0a1.26,1.26,0,0,0-.43-1,1.61,1.61,0,0,0-1.1-.38,1.64,1.64,0,0,0-1.11.38,1.25,1.25,0,0,0-.44,1v0A1.25,1.25,0,0,0,195.48,305.29Zm.17-3.92a1.29,1.29,0,0,0,.94.37,1.31,1.31,0,0,0,.94-.36,1.26,1.26,0,0,0,.38-.94v0a1.18,1.18,0,0,0-.37-.89,1.32,1.32,0,0,0-1-.35,1.34,1.34,0,0,0-1,.35,1.18,1.18,0,0,0-.37.9v0A1.26,1.26,0,0,0,195.65,301.37Z" transform="translate(0)"/><path class="cls-6" d="M202.92,306.88a3.58,3.58,0,0,1-2.77-1.19l.89-1a2.46,2.46,0,0,0,1.86.9,1.43,1.43,0,0,0,1-.38,1.3,1.3,0,0,0,.4-1v0a1.17,1.17,0,0,0-.53-1,2.49,2.49,0,0,0-1.44-.36h-.43l-.19-.9,2.1-2.51h-3.27V298.1h5.06v1.12l-2.19,2.51a3,3,0,0,1,1.65.75,2.13,2.13,0,0,1,.65,1.65v0a2.59,2.59,0,0,1-.79,2A2.83,2.83,0,0,1,202.92,306.88Z" transform="translate(0)"/><path class="cls-6" d="M207.09,308.45l-.56-.91a5.24,5.24,0,0,0,0-8.69l.56-.91a6,6,0,0,1,0,10.52Z" transform="translate(0)"/><path class="cls-6" d="M178.49,262.34v-7.21l-1.36.41-.23-1.23,2-.67h1v8.7Z" transform="translate(0)"/><path class="cls-6" d="M183,257.44V255.8h1.58v1.64Zm0,4.9V260.7h1.58v1.64Z" transform="translate(0)"/><path class="cls-6" d="M188.46,262.34v-7.21l-1.36.41-.23-1.23,2-.67h1v8.7Z" transform="translate(0)"/></g></g></svg>