<svg xmlns="http://www.w3.org/2000/svg" viewBox="0 0 583.6 220.99"><defs><style>.cls-1{fill:#f7a800;}.cls-2{fill:#ffd28b;}.cls-3,.cls-4,.cls-5,.cls-6,.cls-7{fill:none;stroke-miterlimit:10;}.cls-3{stroke:#00b4d6;}.cls-3,.cls-4,.cls-5,.cls-6{stroke-width:1.31px;}.cls-4{stroke:#a7a9ac;}.cls-5,.cls-7{stroke:#808285;}.cls-6{stroke:#0093c9;}.cls-7{stroke-width:1.6px;}.cls-8{fill:#fff;}.cls-9{fill:#0093c9;}.cls-10{fill:#808285;}.cls-11{fill:#cfd1d2;}</style></defs><title>first-line-chart-1-lg</title><g id="Layer_2" data-name="Layer 2"><g id="Layer_1-2" data-name="Layer 1"><rect class="cls-1" width="583.6" height="220.99"/><rect class="cls-2" x="382.79" width="200.81" height="220.99"/><polyline class="cls-3" points="358.55 146.96 382.79 129.71 429.56 129.71"/><polyline class="cls-4" points="358.55 152.08 382.79 169.34 429.56 169.34"/><polyline class="cls-5" points="358.55 146.96 382.79 129.71 429.56 129.71"/><polyline class="cls-6" points="358.55 152.08 382.79 169.34 429.56 169.34"/><polyline class="cls-5" points="358.55 66.62 382.79 49.37 429.56 49.37"/><polyline class="cls-6" points="358.55 71.74 382.79 88.99 429.56 88.99"/><polyline class="cls-7" points="202.32 99.07 232 71.78 304.88 71.78"/><polyline class="cls-7" points="194.45 108.22 231.66 144.77 303.48 144.77"/><circle class="cls-8" cx="78.02" cy="111.9" r="60.86"/><path class="cls-1" d="M49,94.59l-3.34.76-1-4.24,5.8-1.64h4V109.4H49Z"/><path class="cls-1" d="M56.89,112q2.91-.34,2.83-2.66H57.54v-5.51h5.6v4.5a7.51,7.51,0,0,1-.41,2.66,4.27,4.27,0,0,1-1.17,1.74,4.94,4.94,0,0,1-1.84,1,9,9,0,0,1-2.4.35Z"/><path class="cls-1" d="M69,94.59l-3.34.76-1-4.24,5.8-1.64h4V109.4H69Z"/><path class="cls-1" d="M85.19,109.74a12,12,0,0,1-3.28-.42,8.3,8.3,0,0,1-2.57-1.19,5.72,5.72,0,0,1-1.68-1.82,4.66,4.66,0,0,1-.61-2.36v-.06a4.61,4.61,0,0,1,.89-2.94,6.12,6.12,0,0,1,2.5-1.81,6.24,6.24,0,0,1-1.94-1.67,4.21,4.21,0,0,1-.78-2.63v-.06a4.57,4.57,0,0,1,.54-2.19,5.38,5.38,0,0,1,1.53-1.75,7.37,7.37,0,0,1,2.36-1.16,11.48,11.48,0,0,1,6.08,0,7.38,7.38,0,0,1,2.36,1.16,5.38,5.38,0,0,1,1.53,1.75,4.57,4.57,0,0,1,.54,2.19v.06a4.21,4.21,0,0,1-.78,2.63,6.25,6.25,0,0,1-1.94,1.67,8.15,8.15,0,0,1,1.39.78,4.93,4.93,0,0,1,1.06,1,4.56,4.56,0,0,1,.69,1.29,5,5,0,0,1,.25,1.65v.06a4.8,4.8,0,0,1-.61,2.4A5.68,5.68,0,0,1,91,108.16a8.08,8.08,0,0,1-2.57,1.17A12.41,12.41,0,0,1,85.19,109.74Zm0-4.1a3.06,3.06,0,0,0,2.12-.66,2.05,2.05,0,0,0,.74-1.57v-.06a1.86,1.86,0,0,0-.79-1.56,3.89,3.89,0,0,0-4.13,0,1.85,1.85,0,0,0-.79,1.56v.06a2,2,0,0,0,.73,1.57A3.06,3.06,0,0,0,85.19,105.64Zm0-8A2.51,2.51,0,0,0,87,97a2,2,0,0,0,.66-1.54v-.06A2,2,0,0,0,87,94a2.44,2.44,0,0,0-1.78-.64A2.47,2.47,0,0,0,83.4,94a1.94,1.94,0,0,0-.65,1.44v.06A2,2,0,0,0,83.42,97,2.48,2.48,0,0,0,85.19,97.64Z"/><path class="cls-1" d="M103,109.8a11.69,11.69,0,0,1-4.93-.95,10.58,10.58,0,0,1-3.49-2.56L98,102.84a9.06,9.06,0,0,0,2.22,1.67,5.36,5.36,0,0,0,2.5.59,2.88,2.88,0,0,0,1.87-.55,1.78,1.78,0,0,0,.68-1.46V103a1.69,1.69,0,0,0-.83-1.5,4.42,4.42,0,0,0-2.39-.54H99.77L99,98.15l4.55-4.1H96V89.61h14.31v3.93l-4.72,4a9.76,9.76,0,0,1,2,.65,5.84,5.84,0,0,1,1.64,1.1,4.83,4.83,0,0,1,1.1,1.61,5.62,5.62,0,0,1,.4,2.21v.06a6.23,6.23,0,0,1-.58,2.71,6.16,6.16,0,0,1-1.6,2.08,7.23,7.23,0,0,1-2.42,1.33A9.56,9.56,0,0,1,103,109.8Z"/><path class="cls-1" d="M49.92,130.61v-11H52.2v1.19a2.75,2.75,0,0,1,2.33-1.35,2.93,2.93,0,0,1,2.33,1.12,4.85,4.85,0,0,1,.95,3.21V124a4.85,4.85,0,0,1-.95,3.21,2.93,2.93,0,0,1-2.33,1.12,2.82,2.82,0,0,1-2.33-1.27v3.53Zm2.73-4.91a1.44,1.44,0,0,0,1.2.66,1.42,1.42,0,0,0,1.2-.66,2.9,2.9,0,0,0,.47-1.73v-.16a2.9,2.9,0,0,0-.47-1.73,1.42,1.42,0,0,0-1.2-.66,1.44,1.44,0,0,0-1.2.66,2.87,2.87,0,0,0-.48,1.73V124A2.87,2.87,0,0,0,52.64,125.7Z"/><path class="cls-1" d="M61.42,128.35a2.45,2.45,0,0,1-2.55-2.62v-.1a2.55,2.55,0,0,1,.81-2.05,3.27,3.27,0,0,1,2.19-.69,4.88,4.88,0,0,1,1.8.35V123a1.44,1.44,0,0,0-.43-1.12,1.72,1.72,0,0,0-1.2-.39,5.21,5.21,0,0,0-2,.48l-.63-1.78a6.48,6.48,0,0,1,2.94-.69,3.11,3.11,0,0,1,3.5,3.48v5.22H63.66v-.93A2.67,2.67,0,0,1,61.42,128.35Zm.75-1.67a1.56,1.56,0,0,0,1.09-.35,1.2,1.2,0,0,0,.43-1v-.72a2.93,2.93,0,0,0-1.27-.27,1.48,1.48,0,0,0-1,.31,1.11,1.11,0,0,0-.36.89v0a1,1,0,0,0,.3.79A1.21,1.21,0,0,0,62.18,126.68Z"/><path class="cls-1" d="M70.27,128.33a2.48,2.48,0,0,1-1.68-.52A2.25,2.25,0,0,1,68,126v-4.53h-.87v-1.93H68v-2.2h2.28v2.2H72v1.93h-1.7v4.06q0,.74.71.74a2.16,2.16,0,0,0,1-.24v1.81A3.34,3.34,0,0,1,70.27,128.33Z"/><path class="cls-1" d="M73.49,118.67V116.6h2.38v2.07Zm0,9.52v-8.6h2.28v8.6Z"/><path class="cls-1" d="M81.42,128.38a3.8,3.8,0,0,1-2.88-1.21A4.44,4.44,0,0,1,77.39,124v-.14a4.7,4.7,0,0,1,1.07-3.16,3.38,3.38,0,0,1,2.69-1.25,3.17,3.17,0,0,1,2.71,1.28,5.39,5.39,0,0,1,.95,3.3q0,.4,0,.74H79.66a2.19,2.19,0,0,0,.63,1.28,1.75,1.75,0,0,0,1.23.45,2.61,2.61,0,0,0,1.8-.85L84.49,127A4,4,0,0,1,81.42,128.38Zm-1.78-5.15h3a2.78,2.78,0,0,0-.46-1.41,1.18,1.18,0,0,0-1-.51,1.23,1.23,0,0,0-1,.51A2.76,2.76,0,0,0,79.64,123.23Z"/><path class="cls-1" d="M86.3,128.19v-8.6h2.28v1.16a2.71,2.71,0,0,1,2.21-1.32,2.33,2.33,0,0,1,1.86.78,3.14,3.14,0,0,1,.67,2.13v5.86H91.05V123q0-1.52-1.22-1.52a1.14,1.14,0,0,0-.92.39,1.69,1.69,0,0,0-.34,1.13v5.18Z"/><path class="cls-1" d="M97.73,128.33a2.48,2.48,0,0,1-1.68-.52,2.25,2.25,0,0,1-.6-1.77v-4.53h-.87v-1.93h.87v-2.2h2.28v2.2h1.7v1.93h-1.7v4.06q0,.74.71.74a2.16,2.16,0,0,0,1-.24v1.81A3.34,3.34,0,0,1,97.73,128.33Z"/><path class="cls-1" d="M103.52,128.35a5,5,0,0,1-3.26-1.19l1-1.61a3.89,3.89,0,0,0,2.29,1,1.08,1.08,0,0,0,.68-.18.58.58,0,0,0,.23-.47v0a.47.47,0,0,0,0-.15.6.6,0,0,0-.07-.15l-.1-.12-.16-.11-.18-.11-.22-.11-.24-.1-.29-.12-.29-.13a5.64,5.64,0,0,1-1.69-1,2.07,2.07,0,0,1-.58-1.56v0a2.39,2.39,0,0,1,.83-1.92,3.14,3.14,0,0,1,2.12-.71,4.83,4.83,0,0,1,2.84.93l-.92,1.64a3.8,3.8,0,0,0-2-.74,1,1,0,0,0-.62.18.54.54,0,0,0-.22.43v0a.61.61,0,0,0,.33.51,8.09,8.09,0,0,0,1,.54l.1,0,.09,0a6.32,6.32,0,0,1,1.7,1.09,2,2,0,0,1,.58,1.49v0a2.43,2.43,0,0,1-.84,2A3.32,3.32,0,0,1,103.52,128.35Z"/><path class="cls-9" d="M56.43,80.18V68.94h3.74a4.22,4.22,0,0,1,3,1,3.67,3.67,0,0,1,1.11,2.82v0a3.61,3.61,0,0,1-1.17,2.88,4.58,4.58,0,0,1-3,1.05H58.76v3.42Zm2.33-5.5h1.3a1.87,1.87,0,0,0,1.38-.5,1.76,1.76,0,0,0,.5-1.3v0a1.77,1.77,0,0,0-.49-1.35A2,2,0,0,0,60,71H58.76Z"/><path class="cls-9" d="M65.81,80.18V68.94H70a4.13,4.13,0,0,1,3,1.08,3.51,3.51,0,0,1,.95,2.6v.06A3.32,3.32,0,0,1,71.94,76l2.39,4.17H71.66l-2.07-3.69H68.13v3.69Zm2.33-5.75h1.72A1.88,1.88,0,0,0,71.2,74a1.61,1.61,0,0,0,.48-1.23v0a1.58,1.58,0,0,0-.49-1.26A2.06,2.06,0,0,0,69.8,71H68.13Z"/><path class="cls-9" d="M75.95,80.18V68.94h2.33V80.18Z"/><path class="cls-9" d="M80.6,80.18V68.94H83l2.5,4.56L88,68.94h2.46V80.18H88.19V73l-2.65,4.64h0L82.87,73v7.14Z"/><path class="cls-9" d="M92.72,80.18V68.94H100V71H95v2.42h4.33v2.1H95v2.5h5v2.1Z"/><path class="cls-1" d="M46.63,143.35l-1.38-5.24h1.39l.71,3.07.81-3.09h1.17l.81,3.1.72-3.08h1.37l-1.4,5.24H49.55l-.82-3.08-.84,3.08Z"/><path class="cls-1" d="M53,137.56v-1.25h1.44v1.25Zm0,5.75v-5.2h1.38v5.2Z"/><path class="cls-1" d="M57.15,143.4a1.5,1.5,0,0,1-1-.31,1.36,1.36,0,0,1-.36-1.07v-2.73h-.52v-1.16h.52v-1.33h1.38v1.33h1v1.16h-1v2.45q0,.45.43.45a1.31,1.31,0,0,0,.59-.15v1.1A2,2,0,0,1,57.15,143.4Z"/><path class="cls-1" d="M59.08,143.31v-7h1.38v2.5a1.64,1.64,0,0,1,1.34-.79,1.41,1.41,0,0,1,1.13.47,1.9,1.9,0,0,1,.41,1.29v3.54H61.95v-3.13q0-.92-.74-.92a.69.69,0,0,0-.55.24,1,1,0,0,0-.2.68v3.13Z"/><path class="cls-1" d="M66.56,144.77v-6.66h1.38v.72a1.66,1.66,0,0,1,1.41-.81,1.77,1.77,0,0,1,1.41.68,2.93,2.93,0,0,1,.57,1.94v.16a2.93,2.93,0,0,1-.57,1.94,1.77,1.77,0,0,1-1.41.68,1.7,1.7,0,0,1-1.41-.77v2.13Zm1.65-3a.87.87,0,0,0,.73.4.86.86,0,0,0,.72-.4,1.76,1.76,0,0,0,.29-1v-.1a1.76,1.76,0,0,0-.29-1,.86.86,0,0,0-.72-.4.87.87,0,0,0-.73.4,1.73,1.73,0,0,0-.29,1v.1A1.73,1.73,0,0,0,68.21,141.81Z"/><path class="cls-1" d="M72.25,143.31v-5.2h1.38V139A1.38,1.38,0,0,1,75,138v1.49H75a1.25,1.25,0,0,0-1,.4,1.8,1.8,0,0,0-.35,1.21v2.18Z"/><path class="cls-1" d="M78,143.43a2.3,2.3,0,0,1-1.74-.73,2.68,2.68,0,0,1-.69-1.92v-.09a2.84,2.84,0,0,1,.65-1.91,2,2,0,0,1,1.62-.76,1.92,1.92,0,0,1,1.64.77,3.26,3.26,0,0,1,.57,2c0,.16,0,.31,0,.45H77a1.32,1.32,0,0,0,.38.78,1.05,1.05,0,0,0,.74.27,1.57,1.57,0,0,0,1.09-.51l.71.83A2.4,2.4,0,0,1,78,143.43ZM77,140.31h1.79a1.68,1.68,0,0,0-.28-.85.72.72,0,0,0-.61-.31.74.74,0,0,0-.62.3A1.66,1.66,0,0,0,77,140.31Z"/><path class="cls-1" d="M82.34,143.35l-1.76-5.24H82l1,3.45,1-3.45h1.4l-1.75,5.24Z"/><path class="cls-1" d="M86.11,137.56v-1.25h1.44v1.25Zm0,5.75v-5.2h1.38v5.2Z"/><path class="cls-1" d="M92.67,142.67a2.42,2.42,0,0,1-3.5,0,2.68,2.68,0,0,1-.69-1.9v-.11a2.69,2.69,0,0,1,.7-1.91,2.43,2.43,0,0,1,3.5,0,2.69,2.69,0,0,1,.69,1.91v.11A2.7,2.7,0,0,1,92.67,142.67Zm-1.74-.44a.91.91,0,0,0,.79-.41,1.8,1.8,0,0,0,.29-1.06v-.07a1.79,1.79,0,0,0-.3-1.06,1,1,0,0,0-1.58,0,1.8,1.8,0,0,0-.29,1.06v.07a1.77,1.77,0,0,0,.31,1.06A.94.94,0,0,0,90.93,142.23Z"/><path class="cls-1" d="M95.78,143.41a1.41,1.41,0,0,1-1.13-.47,1.91,1.91,0,0,1-.4-1.29v-3.54h1.37v3.13q0,.92.74.92a.69.69,0,0,0,.56-.24,1,1,0,0,0,.2-.68v-3.13h1.38v5.2H97.1v-.7A1.6,1.6,0,0,1,95.78,143.41Z"/><path class="cls-1" d="M101.16,143.41a3,3,0,0,1-2-.72l.6-1a2.35,2.35,0,0,0,1.39.58.65.65,0,0,0,.41-.11.35.35,0,0,0,.14-.29v0a.29.29,0,0,0,0-.09l0-.09-.06-.07-.1-.07-.11-.07-.13-.07-.15-.06-.17-.07-.17-.08a3.41,3.41,0,0,1-1-.63,1.25,1.25,0,0,1-.35-.94v0a1.45,1.45,0,0,1,.5-1.16,1.9,1.9,0,0,1,1.28-.43,2.92,2.92,0,0,1,1.72.56l-.55,1a2.3,2.3,0,0,0-1.18-.45.58.58,0,0,0-.37.11.33.33,0,0,0-.13.26v0a.37.37,0,0,0,.2.31,4.91,4.91,0,0,0,.63.32l.06,0,.05,0a3.85,3.85,0,0,1,1,.66,1.2,1.2,0,0,1,.35.9v0a1.47,1.47,0,0,1-.51,1.2A2,2,0,0,1,101.16,143.41Z"/><path class="cls-1" d="M103.88,143.31v-7h1.38v7Z"/><path class="cls-1" d="M108.45,141.55l1-3.44h1.4l-1.71,5.27a2.67,2.67,0,0,1-.61,1.11,1.34,1.34,0,0,1-1,.32,2.16,2.16,0,0,1-1.12-.31l.38-1a1.13,1.13,0,0,0,.56.17.45.45,0,0,0,.45-.33L106,138.11h1.44Z"/><path class="cls-1" d="M44.75,153.74a1.41,1.41,0,0,1-1.13-.47,1.91,1.91,0,0,1-.4-1.29v-3.54h1.37v3.13q0,.92.74.92a.69.69,0,0,0,.56-.24,1,1,0,0,0,.2-.68v-3.13h1.38v5.2H46.08v-.7A1.6,1.6,0,0,1,44.75,153.74Z"/><path class="cls-1" d="M48.57,153.65v-5.2h1.38v.7a1.64,1.64,0,0,1,1.34-.79,1.41,1.41,0,0,1,1.13.47,1.9,1.9,0,0,1,.41,1.29v3.54H51.44v-3.13q0-.92-.74-.92a.69.69,0,0,0-.55.24,1,1,0,0,0-.2.68v3.13Z"/><path class="cls-1" d="M55.47,153.73a1.5,1.5,0,0,1-1-.31,1.36,1.36,0,0,1-.36-1.07v-2.73h-.52v-1.16h.52v-1.33h1.38v1.33h1v1.16h-1v2.45q0,.45.43.45a1.31,1.31,0,0,0,.59-.15v1.1A2,2,0,0,1,55.47,153.73Z"/><path class="cls-1" d="M57.4,153.65v-5.2h1.38v.92a1.38,1.38,0,0,1,1.41-1v1.49h-.06a1.25,1.25,0,0,0-1,.4,1.8,1.8,0,0,0-.35,1.21v2.18Z"/><path class="cls-1" d="M63.18,153.76a2.3,2.3,0,0,1-1.74-.73,2.68,2.68,0,0,1-.69-1.92V151a2.84,2.84,0,0,1,.65-1.91,2,2,0,0,1,1.62-.76,1.92,1.92,0,0,1,1.64.77,3.26,3.26,0,0,1,.57,2c0,.16,0,.31,0,.45h-3.1a1.32,1.32,0,0,0,.38.78,1.05,1.05,0,0,0,.74.27,1.57,1.57,0,0,0,1.09-.51l.71.83A2.4,2.4,0,0,1,63.18,153.76Zm-1.08-3.11H63.9a1.68,1.68,0,0,0-.28-.85.72.72,0,0,0-.61-.31.74.74,0,0,0-.62.3A1.66,1.66,0,0,0,62.1,150.65Z"/><path class="cls-1" d="M67.4,153.74a1.48,1.48,0,0,1-1.54-1.58v-.06a1.54,1.54,0,0,1,.49-1.24,2,2,0,0,1,1.32-.42,3,3,0,0,1,1.09.21v-.16a.87.87,0,0,0-.26-.68,1,1,0,0,0-.72-.23,3.14,3.14,0,0,0-1.19.29l-.38-1.08a3.92,3.92,0,0,1,1.77-.42,1.88,1.88,0,0,1,2.11,2.1v3.15H68.75v-.56A1.61,1.61,0,0,1,67.4,153.74Zm.46-1a.94.94,0,0,0,.66-.21.73.73,0,0,0,.26-.58v-.44a1.78,1.78,0,0,0-.77-.17.9.9,0,0,0-.61.19.67.67,0,0,0-.22.54v0a.61.61,0,0,0,.18.48A.73.73,0,0,0,67.85,152.74Z"/><path class="cls-1" d="M72.74,153.73a1.5,1.5,0,0,1-1-.31,1.36,1.36,0,0,1-.36-1.07v-2.73h-.52v-1.16h.52v-1.33h1.38v1.33h1v1.16h-1v2.45q0,.45.43.45a1.31,1.31,0,0,0,.59-.15v1.1A2,2,0,0,1,72.74,153.73Z"/><path class="cls-1" d="M76.89,153.76a2.3,2.3,0,0,1-1.74-.73,2.68,2.68,0,0,1-.69-1.92V151a2.84,2.84,0,0,1,.65-1.91,2,2,0,0,1,1.62-.76,1.92,1.92,0,0,1,1.64.77,3.26,3.26,0,0,1,.57,2c0,.16,0,.31,0,.45h-3.1a1.32,1.32,0,0,0,.38.78,1.05,1.05,0,0,0,.74.27A1.57,1.57,0,0,0,78,152.1l.71.83A2.4,2.4,0,0,1,76.89,153.76Zm-1.08-3.11h1.79a1.68,1.68,0,0,0-.28-.85.72.72,0,0,0-.61-.31.74.74,0,0,0-.62.3A1.66,1.66,0,0,0,75.82,150.65Z"/><path class="cls-1" d="M81.64,153.74a1.77,1.77,0,0,1-1.41-.68,2.93,2.93,0,0,1-.57-1.94V151a2.93,2.93,0,0,1,.57-1.94,1.77,1.77,0,0,1,1.41-.68,1.74,1.74,0,0,1,1.41.77v-2.47h1.38v7H83v-.72A1.66,1.66,0,0,1,81.64,153.74Zm-.32-1.6a.86.86,0,0,0,.72.4.87.87,0,0,0,.73-.4,1.73,1.73,0,0,0,.29-1V151a1.73,1.73,0,0,0-.29-1,.87.87,0,0,0-.73-.4.86.86,0,0,0-.72.4,1.75,1.75,0,0,0-.29,1v.1A1.75,1.75,0,0,0,81.32,152.15Z"/><path class="cls-1" d="M87.7,153.65v-5.2h1.38v.7a1.63,1.63,0,0,1,1.35-.79,1.34,1.34,0,0,1,1.28.76,1.88,1.88,0,0,1,1.47-.76,1.46,1.46,0,0,1,1.13.45,1.84,1.84,0,0,1,.42,1.29v3.55H93.35v-3.13q0-.92-.72-.92a.66.66,0,0,0-.54.24,1.06,1.06,0,0,0-.19.68v3.13H90.52v-3.13q0-.92-.71-.92a.66.66,0,0,0-.54.24,1.06,1.06,0,0,0-.19.68v3.13Z"/><path class="cls-1" d="M98.68,153.74a2.73,2.73,0,0,1-2.16-.95,3.66,3.66,0,0,1-.82-2.5v-.09a3.59,3.59,0,0,1,.86-2.49,2.84,2.84,0,0,1,2.21-1,2.93,2.93,0,0,1,2.18.9l-.84,1.09a1.93,1.93,0,0,0-1.39-.68,1.37,1.37,0,0,0-1.13.59,2.55,2.55,0,0,0-.45,1.57v0a2.52,2.52,0,0,0,.46,1.58,1.39,1.39,0,0,0,1.14.59,2,2,0,0,0,1.4-.71l.84,1a3.71,3.71,0,0,1-1,.76A2.91,2.91,0,0,1,98.68,153.74Z"/><path class="cls-1" d="M101.93,153.65v-6.79h2.55a2.49,2.49,0,0,1,1.84.65,2.12,2.12,0,0,1,.57,1.57v0a2,2,0,0,1-1.26,2l1.44,2.52h-1.61l-1.25-2.23h-.88v2.23Zm1.41-3.47h1a1.14,1.14,0,0,0,.81-.28,1,1,0,0,0,.29-.74h0a1,1,0,0,0-.3-.76,1.24,1.24,0,0,0-.84-.26h-1Z"/><path class="cls-1" d="M110.76,153.74a2.73,2.73,0,0,1-2.16-.95,3.66,3.66,0,0,1-.82-2.5v-.09a3.59,3.59,0,0,1,.86-2.49,2.84,2.84,0,0,1,2.21-1,2.93,2.93,0,0,1,2.18.9l-.84,1.09a1.93,1.93,0,0,0-1.39-.68,1.37,1.37,0,0,0-1.13.59,2.55,2.55,0,0,0-.45,1.57v0a2.52,2.52,0,0,0,.46,1.58,1.39,1.39,0,0,0,1.14.59,2,2,0,0,0,1.4-.71l.84,1a3.71,3.71,0,0,1-1,.76A2.91,2.91,0,0,1,110.76,153.74Z"/><polygon class="cls-8" points="146.12 91.59 153.91 109.6 146.12 129.06 146.12 91.59"/><path class="cls-9" d="M211.06,110.95a24.78,24.78,0,1,1-24.78-24.78,24.78,24.78,0,0,1,24.78,24.78"/><path class="cls-8" d="M179.1,100.83h7.28a9,9,0,0,1,3,.44,5.17,5.17,0,0,1,2,1.23,4.76,4.76,0,0,1,1.36,3.59v0a4.84,4.84,0,0,1-.86,2.95,5.42,5.42,0,0,1-2.31,1.78l3.67,5.37h-4.93l-3.1-4.66h-1.87v4.66H179.1Zm7.08,7.39a2.58,2.58,0,0,0,1.69-.5,1.64,1.64,0,0,0,.59-1.33v0a1.59,1.59,0,0,0-.62-1.37,2.82,2.82,0,0,0-1.69-.45h-2.79v3.7Z"/><path class="cls-8" d="M170.73,127.3a3.87,3.87,0,0,1,0-6.82l.36.59a3.39,3.39,0,0,0,0,5.63Z"/><path class="cls-8" d="M171.89,126.2v-5.6h.86l2.46,3.74V120.6h.9v5.6h-.78l-2.54-3.85v3.85Z"/><path class="cls-8" d="M178.88,122.9V122h3.46v.86Zm0,1.82v-.86h3.46v.86Z"/><path class="cls-8" d="M185.71,126.2v-4.67l-.88.26-.15-.8,1.3-.43h.66v5.64Z"/><path class="cls-8" d="M187.67,127.36l-.1-.39q.72-.14.66-.77h-.41v-1.06h1v.9a1.36,1.36,0,0,1-.29.94A1.34,1.34,0,0,1,187.67,127.36Z"/><path class="cls-8" d="M190.32,126.2v-4.67l-.88.26-.15-.8,1.3-.43h.66v5.64Z"/><path class="cls-8" d="M195.5,125.84a2.36,2.36,0,0,1-2.74,0,1.42,1.42,0,0,1-.54-1.15v0a1.41,1.41,0,0,1,.91-1.37,1.34,1.34,0,0,1-.75-1.25v0a1.35,1.35,0,0,1,.5-1.07,2,2,0,0,1,2.49,0,1.35,1.35,0,0,1,.49,1.08v0a1.33,1.33,0,0,1-.75,1.25,1.42,1.42,0,0,1,.92,1.35v0A1.42,1.42,0,0,1,195.5,125.84Zm-2.09-.58a1.05,1.05,0,0,0,.72.24,1,1,0,0,0,.72-.24.81.81,0,0,0,.27-.64v0a.81.81,0,0,0-.28-.64,1,1,0,0,0-.71-.24,1.06,1.06,0,0,0-.72.24.81.81,0,0,0-.28.64v0A.81.81,0,0,0,193.41,125.26Zm.11-2.54a.84.84,0,0,0,.61.24.85.85,0,0,0,.61-.24.81.81,0,0,0,.24-.61v0a.76.76,0,0,0-.24-.58.86.86,0,0,0-.62-.23.87.87,0,0,0-.62.22.76.76,0,0,0-.24.58v0A.82.82,0,0,0,193.52,122.72Z"/><path class="cls-8" d="M198.38,126.29a2.32,2.32,0,0,1-1.79-.77l.58-.66a1.59,1.59,0,0,0,1.21.58.92.92,0,0,0,.66-.24.84.84,0,0,0,.26-.64v0a.76.76,0,0,0-.34-.66,1.61,1.61,0,0,0-.93-.24h-.28l-.12-.58,1.36-1.62h-2.12v-.83h3.28v.73L198.72,123a2,2,0,0,1,1.07.48,1.38,1.38,0,0,1,.42,1.07v0a1.68,1.68,0,0,1-.51,1.27A1.83,1.83,0,0,1,198.38,126.29Z"/><path class="cls-8" d="M201.23,127.3l-.36-.59a3.4,3.4,0,0,0,0-5.63l.36-.59a3.87,3.87,0,0,1,0,6.82Z"/><path class="cls-8" d="M181.15,97.43V92.76l-.88.26-.15-.8,1.3-.43h.66v5.64Z"/><path class="cls-8" d="M184.05,94.25V93.19h1v1.06Zm0,3.18V96.36h1v1.06Z"/><path class="cls-8" d="M187.61,97.43V92.76l-.88.26-.15-.8,1.3-.43h.66v5.64Z"/><rect class="cls-10" x="250.67" y="49.37" width="114.74" height="43.17"/><path class="cls-8" d="M262.89,68.54l-1.8-6.34h1.38l1.06,4.15,1.15-4.17h1.13L267,66.35,268,62.2h1.35l-1.8,6.34h-1.2l-1.15-4-1.15,4Z"/><path class="cls-8" d="M271.42,68.5V63.41h-1.58V62.2h4.46v1.21h-1.58V68.5Z"/><path class="cls-8" d="M276.59,68.5l1.54-6.3h1.37l-.64,2.68,2.38-2.68H283l-2.61,2.66,1.2,3.64h-1.49l-.76-2.65-1,1L278,68.5Z"/><path class="cls-8" d="M285.45,68.5l-.77-2H284l-.47,2h-1.37l1.54-6.3h1.81a2.51,2.51,0,0,1,1.84.59,1.79,1.79,0,0,1,.49,1.3,2.18,2.18,0,0,1-.58,1.58l-.24.23a2.2,2.2,0,0,1-.34.22,2.66,2.66,0,0,1-.57.23L287,68.5Zm-1.11-3.19h.73a1.48,1.48,0,0,0,1.07-.35,1.07,1.07,0,0,0,.29-.77.7.7,0,0,0-.21-.53,1.07,1.07,0,0,0-.78-.22h-.67Z"/><path class="cls-8" d="M287.31,68.5l3.77-6.35h1.32l.67,6.35h-1.4l-.11-1.41h-2l-.78,1.41Zm3-2.62h1.13l-.1-2.06Z"/><path class="cls-8" d="M295.9,68.59a2.74,2.74,0,0,1-2.32-1.15l1-.88a2,2,0,0,0,1.37.83.67.67,0,0,0,.47-.16.52.52,0,0,0,.18-.41.62.62,0,0,0-.17-.4,3.94,3.94,0,0,0-.64-.54,4.24,4.24,0,0,1-.9-.86,1.51,1.51,0,0,1-.3-.9,1.88,1.88,0,0,1,.54-1.36,2.15,2.15,0,0,1,1.58-.64,2.74,2.74,0,0,1,2.07.94l-.94.94a1.73,1.73,0,0,0-1.18-.67.64.64,0,0,0-.46.16.52.52,0,0,0-.17.39.62.62,0,0,0,.16.4,3.76,3.76,0,0,0,.64.54,4.13,4.13,0,0,1,.9.85,1.55,1.55,0,0,1,.31.94A1.89,1.89,0,0,1,297.5,68,2.15,2.15,0,0,1,295.9,68.59Z"/><path class="cls-8" d="M299.81,66.36l.1-2.43L299,64v-.75l.94.1-.12-1.17h.81l-.13,1.17,1-.1V64l-1-.09.1,2.43Z"/><path class="cls-8" d="M304.15,68.5V63.68h1.28v.65a1.51,1.51,0,0,1,1.25-.74,1.25,1.25,0,0,1,1.19.7,1.74,1.74,0,0,1,1.37-.7,1.35,1.35,0,0,1,1,.42,1.71,1.71,0,0,1,.39,1.2V68.5h-1.27V65.59q0-.85-.67-.85a.61.61,0,0,0-.5.22,1,1,0,0,0-.18.63V68.5h-1.28V65.59q0-.85-.66-.85a.61.61,0,0,0-.5.22,1,1,0,0,0-.18.63V68.5Z"/><path class="cls-8" d="M314.34,68.59a2.54,2.54,0,0,1-2-.88,3.4,3.4,0,0,1-.76-2.32v-.08a3.33,3.33,0,0,1,.8-2.31,2.63,2.63,0,0,1,2.05-.89,2.72,2.72,0,0,1,2,.84l-.78,1a1.8,1.8,0,0,0-1.29-.63,1.27,1.27,0,0,0-1.05.55,2.36,2.36,0,0,0-.41,1.46v0a2.34,2.34,0,0,0,.42,1.47,1.29,1.29,0,0,0,1.06.55,1.88,1.88,0,0,0,1.3-.66l.78.93a3.45,3.45,0,0,1-1,.71A2.7,2.7,0,0,1,314.34,68.59Z"/><path class="cls-8" d="M317.36,68.5V62.2h2.37a2.31,2.31,0,0,1,1.71.6,2,2,0,0,1,.53,1.46v0a1.86,1.86,0,0,1-1.17,1.86l1.34,2.34h-1.49l-1.16-2.07h-.82V68.5Zm1.3-3.22h1a1.05,1.05,0,0,0,.76-.26.9.9,0,0,0,.27-.69h0a.89.89,0,0,0-.27-.71,1.15,1.15,0,0,0-.78-.24h-.94Z"/><path class="cls-8" d="M325.55,68.59a2.54,2.54,0,0,1-2-.88,3.4,3.4,0,0,1-.76-2.32v-.08a3.33,3.33,0,0,1,.8-2.31,2.63,2.63,0,0,1,2.05-.89,2.72,2.72,0,0,1,2,.84l-.78,1a1.8,1.8,0,0,0-1.29-.63,1.27,1.27,0,0,0-1.05.55,2.36,2.36,0,0,0-.41,1.46v0a2.34,2.34,0,0,0,.42,1.47,1.29,1.29,0,0,0,1.06.55,1.88,1.88,0,0,0,1.3-.66l.78.93a3.45,3.45,0,0,1-1,.71A2.7,2.7,0,0,1,325.55,68.59Z"/><path class="cls-8" d="M261.52,79.5V73.2h4.06v1.2h-2.75v1.41h2.42V77h-2.42V79.5Z"/><path class="cls-8" d="M269.13,79.61a2.62,2.62,0,0,1-2.05-.89,3.34,3.34,0,0,1-.79-2.3v-.11a3.35,3.35,0,0,1,.8-2.31,2.8,2.8,0,0,1,4.1,0,3.34,3.34,0,0,1,.79,2.3v.11a3.35,3.35,0,0,1-.8,2.31A2.62,2.62,0,0,1,269.13,79.61ZM268,77.85a1.31,1.31,0,0,0,1.09.55,1.29,1.29,0,0,0,1.08-.55,2.38,2.38,0,0,0,.41-1.47v-.06a2.38,2.38,0,0,0-.42-1.47,1.34,1.34,0,0,0-2.17,0,2.36,2.36,0,0,0-.42,1.47v.06A2.36,2.36,0,0,0,268,77.85Z"/><path class="cls-8" d="M273,79.5V73.2h1.31v5.1h2.55v1.2Z"/><path class="cls-8" d="M277.74,79.5V73.2h4.06v1.2H279v1.41h2.42V77H279V79.5Z"/><path class="cls-8" d="M285.35,79.61a2.62,2.62,0,0,1-2.05-.89,3.34,3.34,0,0,1-.79-2.3v-.11a3.35,3.35,0,0,1,.8-2.31,2.8,2.8,0,0,1,4.1,0,3.34,3.34,0,0,1,.79,2.3v.11a3.35,3.35,0,0,1-.8,2.31A2.62,2.62,0,0,1,285.35,79.61Zm-1.08-1.76a1.31,1.31,0,0,0,1.09.55,1.29,1.29,0,0,0,1.08-.55,2.38,2.38,0,0,0,.41-1.47v-.06a2.38,2.38,0,0,0-.42-1.47,1.34,1.34,0,0,0-2.17,0,2.36,2.36,0,0,0-.42,1.47v.06A2.36,2.36,0,0,0,284.27,77.85Z"/><path class="cls-8" d="M292.55,73.2H294l-1.8,3.08,1.87,3.22h-1.48l-1.15-2.16-1.16,2.16h-1.45l1.86-3.2-1.78-3.1h1.49l1.07,2Z"/><path class="cls-8" d="M298,79.59a1.37,1.37,0,0,1-1.43-1.47v-.05a1.43,1.43,0,0,1,.45-1.15,1.83,1.83,0,0,1,1.23-.39,2.75,2.75,0,0,1,1,.2v-.14A.81.81,0,0,0,299,76a1,1,0,0,0-.67-.22,2.93,2.93,0,0,0-1.11.27l-.35-1a3.64,3.64,0,0,1,1.65-.39,1.74,1.74,0,0,1,2,2V79.5h-1.25V79A1.49,1.49,0,0,1,298,79.59Zm.42-.94a.87.87,0,0,0,.61-.2.68.68,0,0,0,.24-.54v-.41a1.65,1.65,0,0,0-.71-.15.83.83,0,0,0-.56.18.63.63,0,0,0-.2.5v0a.57.57,0,0,0,.17.44A.68.68,0,0,0,298.42,78.65Z"/><path class="cls-8" d="M301.52,79.5V73h1.28v6.5Z"/><path class="cls-8" d="M307.58,78.91a2.25,2.25,0,0,1-3.25,0,2.49,2.49,0,0,1-.64-1.76v-.1a2.49,2.49,0,0,1,.65-1.77,2.25,2.25,0,0,1,3.25,0,2.5,2.5,0,0,1,.64,1.77v.1A2.5,2.5,0,0,1,307.58,78.91ZM306,78.5a.85.85,0,0,0,.73-.38,1.67,1.67,0,0,0,.27-1v-.06a1.65,1.65,0,0,0-.28-1,.89.89,0,0,0-1.47,0,1.67,1.67,0,0,0-.27,1v.06a1.64,1.64,0,0,0,.28,1A.87.87,0,0,0,306,78.5Z"/><path class="cls-8" d="M309.07,79.5V74.68h1.28v.65a1.52,1.52,0,0,1,1.24-.74,1.31,1.31,0,0,1,1,.44,1.76,1.76,0,0,1,.38,1.19V79.5h-1.28V76.59q0-.85-.68-.85a.64.64,0,0,0-.51.22,1,1,0,0,0-.19.63V79.5Z"/><path class="cls-8" d="M316.06,79.61a2.13,2.13,0,0,1-1.62-.68,2.49,2.49,0,0,1-.64-1.79v-.08a2.64,2.64,0,0,1,.6-1.77,1.9,1.9,0,0,1,1.51-.7,1.78,1.78,0,0,1,1.52.72,3,3,0,0,1,.53,1.85q0,.22,0,.41h-2.88a1.22,1.22,0,0,0,.36.72,1,1,0,0,0,.69.25,1.46,1.46,0,0,0,1-.48l.66.77A2.23,2.23,0,0,1,316.06,79.61Zm-1-2.89h1.67a1.56,1.56,0,0,0-.26-.79.67.67,0,0,0-.56-.29.69.69,0,0,0-.57.28A1.53,1.53,0,0,0,315.07,76.72Z"/><path class="cls-8" d="M323.12,80.75a4.33,4.33,0,0,1,0-7.68l.5.84a3.29,3.29,0,0,0-1.2,1.26,4.23,4.23,0,0,0,0,3.48,3.3,3.3,0,0,0,1.2,1.26Z"/><path class="cls-8" d="M324.44,79.5V74.68h1.28v.65a1.52,1.52,0,0,1,1.24-.74,1.31,1.31,0,0,1,1,.44,1.76,1.76,0,0,1,.38,1.19V79.5H327.1V76.59q0-.85-.68-.85a.64.64,0,0,0-.51.22,1,1,0,0,0-.19.63V79.5Z"/><path class="cls-8" d="M331.39,75.86v-1.2h4v1.2Zm0,2.15v-1.2h4V78Z"/><path class="cls-8" d="M340.27,79.61a2.71,2.71,0,0,1-2.08-.88l.78-.92a1.72,1.72,0,0,0,1.27.61.89.89,0,0,0,.63-.23.77.77,0,0,0,.24-.59v0a.72.72,0,0,0-.33-.63,1.64,1.64,0,0,0-.93-.23h-.38l-.15-.83,1.39-1.54h-2.19V73.2h3.79v1l-1.48,1.55a2.16,2.16,0,0,1,1.13.57,1.59,1.59,0,0,1,.44,1.19v0a2,2,0,0,1-.59,1.48A2.13,2.13,0,0,1,340.27,79.61Z"/><path class="cls-8" d="M345.13,79.61a2.71,2.71,0,0,1-2.08-.88l.78-.92a1.72,1.72,0,0,0,1.27.61.89.89,0,0,0,.63-.23.77.77,0,0,0,.24-.59v0a.72.72,0,0,0-.33-.63,1.64,1.64,0,0,0-.93-.23h-.38l-.15-.83,1.39-1.54h-2.19V73.2h3.79v1l-1.48,1.55a2.16,2.16,0,0,1,1.13.57,1.59,1.59,0,0,1,.44,1.19v0a2,2,0,0,1-.59,1.48A2.14,2.14,0,0,1,345.13,79.61Z"/><path class="cls-8" d="M349,79.5v-5l-1,.26-.21-1.13,1.56-.47h.9V79.5Z"/><path class="cls-8" d="M351.82,80.75l-.5-.84a3.31,3.31,0,0,0,1.2-1.26,4.23,4.23,0,0,0,0-3.48,3.3,3.3,0,0,0-1.2-1.26l.5-.84a4.33,4.33,0,0,1,0,7.68Z"/><rect class="cls-10" x="250.67" y="122.58" width="114.74" height="43.17"/><path class="cls-8" d="M263.9,136.74l-1.8-6.34h1.38l1.06,4.15,1.15-4.17h1.13l1.16,4.17,1.05-4.15h1.35l-1.8,6.34h-1.2l-1.15-4-1.15,4Z"/><path class="cls-8" d="M272.24,136.71v-5.09h-1.58v-1.21h4.46v1.21h-1.58v5.09Z"/><path class="cls-8" d="M277.05,136.71l1.54-6.3H280l-.64,2.68,2.38-2.68h1.75l-2.61,2.66,1.2,3.64h-1.49l-.76-2.65-1,1-.4,1.66Z"/><path class="cls-8" d="M285.73,136.71l-.77-2h-.67l-.47,2h-1.37l1.54-6.3h1.81a2.51,2.51,0,0,1,1.84.58,1.79,1.79,0,0,1,.49,1.3,2.18,2.18,0,0,1-.58,1.58l-.24.23a2.19,2.19,0,0,1-.34.22,2.71,2.71,0,0,1-.57.23l.86,2.15Zm-1.11-3.19h.73a1.47,1.47,0,0,0,1.07-.35,1.07,1.07,0,0,0,.29-.76.7.7,0,0,0-.21-.53,1.07,1.07,0,0,0-.78-.22h-.67Z"/><path class="cls-8" d="M287.41,136.71l3.77-6.34h1.32l.67,6.34h-1.4l-.11-1.41h-2l-.78,1.41Zm3-2.62h1.13l-.1-2.06Z"/><path class="cls-8" d="M295.83,136.8a2.74,2.74,0,0,1-2.32-1.15l1-.88a2,2,0,0,0,1.37.83.68.68,0,0,0,.47-.16.52.52,0,0,0,.18-.41.62.62,0,0,0-.17-.4,3.93,3.93,0,0,0-.64-.54,4.22,4.22,0,0,1-.9-.86,1.51,1.51,0,0,1-.3-.9,1.88,1.88,0,0,1,.54-1.36,2.15,2.15,0,0,1,1.58-.64,2.74,2.74,0,0,1,2.07.94l-.94.95a1.73,1.73,0,0,0-1.18-.67.63.63,0,0,0-.46.16.52.52,0,0,0-.17.39.62.62,0,0,0,.16.4,3.76,3.76,0,0,0,.64.54,4.12,4.12,0,0,1,.9.85,1.55,1.55,0,0,1,.31.94,1.89,1.89,0,0,1-.57,1.39A2.15,2.15,0,0,1,295.83,136.8Z"/><path class="cls-8" d="M301.56,136.71v-4.82h1.28v.65a1.51,1.51,0,0,1,1.25-.74,1.25,1.25,0,0,1,1.19.7,1.74,1.74,0,0,1,1.37-.7,1.35,1.35,0,0,1,1,.42,1.71,1.71,0,0,1,.39,1.2v3.29h-1.27V133.8q0-.85-.67-.85a.61.61,0,0,0-.5.22,1,1,0,0,0-.18.63v2.91h-1.28V133.8q0-.85-.66-.85a.61.61,0,0,0-.5.22,1,1,0,0,0-.18.63v2.91Z"/><path class="cls-8" d="M311.57,136.8a2.53,2.53,0,0,1-2-.88,3.4,3.4,0,0,1-.77-2.32v-.08a3.33,3.33,0,0,1,.8-2.31,2.63,2.63,0,0,1,2.05-.89,2.72,2.72,0,0,1,2,.84l-.78,1a1.79,1.79,0,0,0-1.29-.63,1.27,1.27,0,0,0-1.05.55,2.36,2.36,0,0,0-.41,1.46v0a2.34,2.34,0,0,0,.42,1.47,1.29,1.29,0,0,0,1.06.55,1.88,1.88,0,0,0,1.3-.66l.78.93a3.45,3.45,0,0,1-1,.71A2.69,2.69,0,0,1,311.57,136.8Z"/><path class="cls-8" d="M314.41,136.71v-6.3h2.37a2.32,2.32,0,0,1,1.71.6,2,2,0,0,1,.53,1.46v0a1.86,1.86,0,0,1-1.17,1.86l1.34,2.34H317.7l-1.16-2.07h-.82v2.07Zm1.3-3.22h1a1.05,1.05,0,0,0,.76-.26.9.9,0,0,0,.27-.69h0a.89.89,0,0,0-.27-.71,1.15,1.15,0,0,0-.78-.24h-.94Z"/><path class="cls-8" d="M322.42,136.8a2.53,2.53,0,0,1-2-.88,3.4,3.4,0,0,1-.77-2.32v-.08a3.33,3.33,0,0,1,.8-2.31,2.63,2.63,0,0,1,2.05-.89,2.72,2.72,0,0,1,2,.84l-.78,1a1.79,1.79,0,0,0-1.29-.63,1.27,1.27,0,0,0-1.05.55,2.36,2.36,0,0,0-.41,1.46v0a2.34,2.34,0,0,0,.42,1.47,1.29,1.29,0,0,0,1.06.55,1.88,1.88,0,0,0,1.3-.66l.78.93a3.45,3.45,0,0,1-1,.71A2.69,2.69,0,0,1,322.42,136.8Z"/><path class="cls-8" d="M264.17,147.74l-2.12-6.34h1.41l1.33,4.34,1.33-4.34h1.38l-2.12,6.34Z"/><path class="cls-8" d="M270.05,147.82a2.13,2.13,0,0,1-1.62-.68,2.49,2.49,0,0,1-.64-1.79v-.08a2.64,2.64,0,0,1,.6-1.77,1.9,1.9,0,0,1,1.51-.7,1.78,1.78,0,0,1,1.52.72,3,3,0,0,1,.53,1.85c0,.15,0,.29,0,.41h-2.88a1.23,1.23,0,0,0,.36.72,1,1,0,0,0,.69.25,1.46,1.46,0,0,0,1-.48l.66.77A2.23,2.23,0,0,1,270.05,147.82Zm-1-2.89h1.67a1.56,1.56,0,0,0-.26-.79.67.67,0,0,0-.56-.29.69.69,0,0,0-.57.28A1.54,1.54,0,0,0,269.05,144.93Z"/><path class="cls-8" d="M274.61,147.82a2,2,0,0,1-1.57-.69,2.54,2.54,0,0,1-.62-1.76v-.11a2.54,2.54,0,0,1,.63-1.77,2.06,2.06,0,0,1,1.61-.7,2.14,2.14,0,0,1,1.57.65l-.69.93a1.2,1.2,0,0,0-.86-.43.84.84,0,0,0-.71.37,1.61,1.61,0,0,0-.27,1v0a1.65,1.65,0,0,0,.27,1,.86.86,0,0,0,.74.37,1.22,1.22,0,0,0,.87-.44l.67.85A2.12,2.12,0,0,1,274.61,147.82Z"/><path class="cls-8" d="M278.26,147.79a1.39,1.39,0,0,1-.94-.29,1.26,1.26,0,0,1-.34-1V144h-.49v-1.08H277v-1.23h1.28v1.23h1V144h-1v2.28q0,.41.4.41a1.22,1.22,0,0,0,.55-.13v1A1.87,1.87,0,0,1,278.26,147.79Z"/><path class="cls-8" d="M279.89,142.37v-1.16h1.33v1.16Zm0,5.34v-4.82h1.28v4.82Z"/><path class="cls-8" d="M286,147.17a1.64,1.64,0,0,1-1.3.63,1.58,1.58,0,0,1-1.31-.71v.62h-1.28v-6.5h1.28v2.34a1.54,1.54,0,0,1,1.31-.76,1.64,1.64,0,0,1,1.3.63,2.72,2.72,0,0,1,.53,1.8v.14A2.72,2.72,0,0,1,286,147.17Zm-2.36-.85a.81.81,0,0,0,.67.37.8.8,0,0,0,.67-.37,1.63,1.63,0,0,0,.27-1v-.09a1.63,1.63,0,0,0-.27-1,.8.8,0,0,0-.67-.37.81.81,0,0,0-.67.37,1.61,1.61,0,0,0-.27,1v.09A1.61,1.61,0,0,0,283.62,146.31Z"/><path class="cls-8" d="M287.21,142.37v-1.16h1.33v1.16Zm0,5.34v-4.82h1.28v4.82Z"/><path class="cls-8" d="M290.46,142.88l.76,1.41.77-1.41h1.32l-1.4,2.35,1.45,2.47H292l-.8-1.5-.81,1.5h-1.33l1.44-2.46-1.39-2.37Z"/><path class="cls-8" d="M296,144a1.39,1.39,0,0,1-2.05,0,1.57,1.57,0,0,1-.41-1.11v-.05a1.58,1.58,0,0,1,.41-1.12,1.39,1.39,0,0,1,2.05,0,1.59,1.59,0,0,1,.41,1.12v0A1.59,1.59,0,0,1,296,144ZM294,143.9a1.21,1.21,0,0,0,1.79,0,1.43,1.43,0,0,0,.36-1v0a1.43,1.43,0,0,0-.36-1,1.21,1.21,0,0,0-1.79,0,1.43,1.43,0,0,0-.36,1v.05A1.41,1.41,0,0,0,294,143.9Zm.28-.2V142H295q.66,0,.66.55h0a.5.5,0,0,1-.31.5l.36.61h-.48l-.31-.52h-.16v.52Zm.42-.87H295c.17,0,.25-.07.25-.22s-.08-.22-.25-.22h-.22Z"/><path class="cls-8" d="M300.1,146.59v-1.47h-1.45V144h1.45v-1.47h1.2V144h1.45v1.17H301.3v1.47Z"/><path class="cls-8" d="M305.52,147.71v-6.3h4.06v1.2h-2.75V144h2.42v1.2h-2.42v2.49Z"/><path class="cls-8" d="M312.95,147.82a2.62,2.62,0,0,1-2.05-.89,3.34,3.34,0,0,1-.79-2.3v-.11a3.35,3.35,0,0,1,.8-2.31,2.8,2.8,0,0,1,4.1,0,3.34,3.34,0,0,1,.79,2.3v.11a3.35,3.35,0,0,1-.8,2.31A2.62,2.62,0,0,1,312.95,147.82Zm-1.08-1.76a1.31,1.31,0,0,0,1.09.55,1.29,1.29,0,0,0,1.08-.55,2.38,2.38,0,0,0,.41-1.47v-.06a2.38,2.38,0,0,0-.42-1.47,1.34,1.34,0,0,0-2.17,0,2.36,2.36,0,0,0-.42,1.47v.06A2.36,2.36,0,0,0,311.87,146.06Z"/><path class="cls-8" d="M316.65,147.71v-6.3H318v5.1h2.55v1.2Z"/><path class="cls-8" d="M321.2,147.71v-6.3h4.06v1.2H322.5V144h2.42v1.2H322.5v2.49Z"/><path class="cls-8" d="M328.62,147.82a2.62,2.62,0,0,1-2.05-.89,3.34,3.34,0,0,1-.79-2.3v-.11a3.35,3.35,0,0,1,.8-2.31,2.8,2.8,0,0,1,4.1,0,3.34,3.34,0,0,1,.79,2.3v.11a3.35,3.35,0,0,1-.8,2.31A2.62,2.62,0,0,1,328.62,147.82Zm-1.08-1.76a1.31,1.31,0,0,0,1.09.55,1.29,1.29,0,0,0,1.08-.55,2.38,2.38,0,0,0,.41-1.47v-.06a2.38,2.38,0,0,0-.42-1.47,1.34,1.34,0,0,0-2.17,0,2.36,2.36,0,0,0-.42,1.47v.06A2.36,2.36,0,0,0,327.54,146.06Z"/><path class="cls-8" d="M335.64,141.41h1.45l-1.8,3.08,1.87,3.22h-1.48l-1.15-2.16-1.16,2.16h-1.45l1.86-3.2-1.78-3.1h1.49l1.07,2Z"/><path class="cls-8" d="M264.71,160a4.33,4.33,0,0,1,0-7.68l.5.84a3.29,3.29,0,0,0-1.2,1.26,4.24,4.24,0,0,0,0,3.48,3.3,3.3,0,0,0,1.2,1.26Z"/><path class="cls-8" d="M265.85,158.71v-4.82h1.28v.65a1.52,1.52,0,0,1,1.24-.74,1.31,1.31,0,0,1,1,.44,1.76,1.76,0,0,1,.38,1.19v3.29h-1.28V155.8q0-.85-.68-.85a.64.64,0,0,0-.51.22,1,1,0,0,0-.19.63v2.91Z"/><path class="cls-8" d="M272.45,155.06v-1.2h4v1.2Zm0,2.15V156h4v1.2Z"/><path class="cls-8" d="M281,158.82a2.71,2.71,0,0,1-2.08-.88l.78-.92a1.72,1.72,0,0,0,1.27.61.89.89,0,0,0,.63-.22.77.77,0,0,0,.24-.59v0a.72.72,0,0,0-.33-.63,1.64,1.64,0,0,0-.93-.22h-.38l-.15-.83,1.39-1.54h-2.19v-1.16H283v1L281.53,155a2.16,2.16,0,0,1,1.13.57,1.59,1.59,0,0,1,.44,1.19v0a2,2,0,0,1-.59,1.48A2.13,2.13,0,0,1,281,158.82Z"/><path class="cls-8" d="M283.72,158.71v-1.05l1.85-1.91a5.48,5.48,0,0,0,.72-.84,1.2,1.2,0,0,0,.19-.64.72.72,0,0,0-.21-.55.76.76,0,0,0-.54-.2,1,1,0,0,0-.57.17,3,3,0,0,0-.58.57l-.85-.8a2.51,2.51,0,0,1,2.1-1.14,2.06,2.06,0,0,1,1.43.5,1.72,1.72,0,0,1,.55,1.34v0a2,2,0,0,1-.29,1.09,7.17,7.17,0,0,1-1,1.21l-1.05,1.07h2.4v1.17Z"/><path class="cls-8" d="M290.36,158.82a2.85,2.85,0,0,1-2-.8l.73-1a2,2,0,0,0,1.26.57,1,1,0,0,0,.7-.25.89.89,0,0,0,.26-.68h0A.81.81,0,0,0,291,156a1.1,1.1,0,0,0-.73-.24,2.15,2.15,0,0,0-.86.2l-.73-.48.18-3.1h3.45v1.17h-2.37l-.07,1.14a2.72,2.72,0,0,1,.7-.09,2.09,2.09,0,0,1,1.44.5,1.89,1.89,0,0,1,.56,1.49v0a2.09,2.09,0,0,1-.61,1.58A2.22,2.22,0,0,1,290.36,158.82Z"/><path class="cls-8" d="M293.6,160l-.5-.84a3.3,3.3,0,0,0,1.2-1.26,4.24,4.24,0,0,0,0-3.48,3.3,3.3,0,0,0-1.2-1.26l.5-.84a4.33,4.33,0,0,1,0,7.68Z"/><path class="cls-10" d="M405.89,23.23v-7h2.24a2.62,2.62,0,0,1,1.83.63,2.19,2.19,0,0,1,.68,1.71v0a2.16,2.16,0,0,1-.72,1.74,2.85,2.85,0,0,1-1.87.64h-1v2.27ZM407,19.91h1a1.43,1.43,0,0,0,1-.36,1.26,1.26,0,0,0,.38-.95h0a1.23,1.23,0,0,0-.37-1,1.49,1.49,0,0,0-1-.33h-1Z"/><path class="cls-10" d="M413.85,23.34a2.24,2.24,0,0,1-1.74-.76,2.78,2.78,0,0,1-.69-1.94v-.09a2.81,2.81,0,0,1,.69-1.94,2.37,2.37,0,0,1,3.5,0,2.8,2.8,0,0,1,.69,1.95v.09a2.79,2.79,0,0,1-.7,1.94A2.26,2.26,0,0,1,413.85,23.34Zm0-1a1.12,1.12,0,0,0,.94-.49,2,2,0,0,0,.36-1.24v-.06a2,2,0,0,0-.37-1.24,1.15,1.15,0,0,0-.95-.49,1.11,1.11,0,0,0-.95.48,2,2,0,0,0-.35,1.23v.06a2,2,0,0,0,.38,1.25A1.14,1.14,0,0,0,413.87,22.35Z"/><path class="cls-10" d="M418.9,23.33a3,3,0,0,1-2-.74l.53-.81a2.34,2.34,0,0,0,1.46.62.82.82,0,0,0,.54-.17.52.52,0,0,0,.2-.42h0a.46.46,0,0,0-.15-.33,1.24,1.24,0,0,0-.32-.23l-.57-.26a3.89,3.89,0,0,1-1.08-.65,1.19,1.19,0,0,1-.36-.92v0a1.41,1.41,0,0,1,.49-1.12,1.86,1.86,0,0,1,1.26-.42,2.88,2.88,0,0,1,1.72.57l-.48.83a2.33,2.33,0,0,0-1.26-.47.74.74,0,0,0-.49.15.46.46,0,0,0-.18.37v0a.43.43,0,0,0,.16.31,1.45,1.45,0,0,0,.31.23l.57.27a3.82,3.82,0,0,1,1.08.67,1.21,1.21,0,0,1,.36.92h0a1.46,1.46,0,0,1-.51,1.19A2,2,0,0,1,418.9,23.33Z"/><path class="cls-10" d="M423.44,23.31a1.21,1.21,0,0,1-1.37-1.36V18.9h-.58v-1h.58V16.5h1.13v1.43h1.19v1H423.2v2.82a.51.51,0,0,0,.57.58,1.31,1.31,0,0,0,.61-.15v.93A2,2,0,0,1,423.44,23.31Z"/><path class="cls-10" d="M424.94,20.73V19.61h2.78v1.12Z"/><path class="cls-10" d="M429,23.23V16h1.13v2.7a1.67,1.67,0,0,1,1.45-.88,1.5,1.5,0,0,1,1.2.5,2,2,0,0,1,.43,1.35v3.55h-1.13V20a1.29,1.29,0,0,0-.25-.85.86.86,0,0,0-.7-.3.92.92,0,0,0-.72.31,1.25,1.25,0,0,0-.28.85v3.21Z"/><path class="cls-10" d="M436.76,23.34a2.24,2.24,0,0,1-1.74-.76,2.78,2.78,0,0,1-.69-1.94v-.09A2.81,2.81,0,0,1,435,18.6a2.37,2.37,0,0,1,3.5,0,2.8,2.8,0,0,1,.69,1.95v.09a2.79,2.79,0,0,1-.7,1.94A2.26,2.26,0,0,1,436.76,23.34Zm0-1a1.12,1.12,0,0,0,.94-.49,2,2,0,0,0,.36-1.24v-.06a2,2,0,0,0-.37-1.24,1.15,1.15,0,0,0-.95-.49,1.11,1.11,0,0,0-.95.48,2,2,0,0,0-.35,1.23v.06a2,2,0,0,0,.38,1.25A1.14,1.14,0,0,0,436.77,22.35Z"/><path class="cls-10" d="M442.47,23.34a2.18,2.18,0,0,1-1.71-.75,2.8,2.8,0,0,1-.67-1.94v-.1a2.82,2.82,0,0,1,.68-1.95,2.22,2.22,0,0,1,1.74-.77,2.32,2.32,0,0,1,1.7.72l-.63.83a1.49,1.49,0,0,0-1.07-.53,1.1,1.1,0,0,0-.92.48,2,2,0,0,0-.36,1.23v0a2,2,0,0,0,.37,1.25,1.14,1.14,0,0,0,.94.48,1.55,1.55,0,0,0,1.08-.54l.61.75A2.26,2.26,0,0,1,442.47,23.34Z"/><path class="cls-10" d="M449,23.33a1.63,1.63,0,0,1-1.16-.44,1.55,1.55,0,0,1-.46-1.19v0a1.58,1.58,0,0,1,.5-1.27A2,2,0,0,1,449.3,20a3.85,3.85,0,0,1,1.22.21v-.22a1,1,0,0,0-.3-.8,1.19,1.19,0,0,0-.84-.27,3.11,3.11,0,0,0-1.28.32l-.32-.9a3.94,3.94,0,0,1,1.75-.42,1.87,1.87,0,0,1,2.09,2.07v3.29h-1.11v-.65A1.68,1.68,0,0,1,449,23.33Zm.34-.85a1.15,1.15,0,0,0,.82-.29,1,1,0,0,0,.33-.74v-.53a2.5,2.5,0,0,0-1-.19,1.12,1.12,0,0,0-.76.23.82.82,0,0,0-.27.66v0a.78.78,0,0,0,.24.61A.92.92,0,0,0,449.38,22.48Z"/><path class="cls-10" d="M452.95,23.23v-5.3h1.13v.78a1.67,1.67,0,0,1,1.45-.88,1.5,1.5,0,0,1,1.2.5,2,2,0,0,1,.43,1.35v3.55H456V20a1.29,1.29,0,0,0-.25-.85.86.86,0,0,0-.7-.3.92.92,0,0,0-.72.31,1.25,1.25,0,0,0-.28.85v3.21Z"/><path class="cls-10" d="M459.81,23.33a1.63,1.63,0,0,1-1.16-.44,1.55,1.55,0,0,1-.46-1.19v0a1.58,1.58,0,0,1,.5-1.27,2,2,0,0,1,1.38-.44,3.85,3.85,0,0,1,1.22.21v-.22a1,1,0,0,0-.3-.8,1.19,1.19,0,0,0-.84-.27,3.11,3.11,0,0,0-1.28.32l-.32-.9a3.94,3.94,0,0,1,1.75-.42,1.87,1.87,0,0,1,2.09,2.07v3.29h-1.11v-.65A1.68,1.68,0,0,1,459.81,23.33Zm.34-.85a1.15,1.15,0,0,0,.82-.29,1,1,0,0,0,.33-.74v-.53a2.5,2.5,0,0,0-1-.19,1.12,1.12,0,0,0-.76.23.82.82,0,0,0-.27.66v0a.78.78,0,0,0,.24.61A.92.92,0,0,0,460.15,22.48Z"/><path class="cls-10" d="M463.75,23.23V16h1.13v7.22Z"/><path class="cls-10" d="M468.27,21.77l1.15-3.85h1.17l-1.8,5.38a2.74,2.74,0,0,1-.62,1.13,1.33,1.33,0,0,1-.95.33,2.19,2.19,0,0,1-1.07-.28l.33-.87a1.25,1.25,0,0,0,.61.18.55.55,0,0,0,.38-.12,1.1,1.1,0,0,0,.27-.44l-1.89-5.31H467Z"/><path class="cls-10" d="M473,23.33a3,3,0,0,1-2-.74l.53-.81a2.34,2.34,0,0,0,1.46.62.82.82,0,0,0,.54-.17.52.52,0,0,0,.2-.42h0a.46.46,0,0,0-.15-.33,1.24,1.24,0,0,0-.32-.23L472.7,21a3.89,3.89,0,0,1-1.08-.65,1.19,1.19,0,0,1-.36-.92v0a1.41,1.41,0,0,1,.49-1.12,1.86,1.86,0,0,1,1.26-.42,2.88,2.88,0,0,1,1.72.57l-.48.83a2.33,2.33,0,0,0-1.26-.47.74.74,0,0,0-.49.15.46.46,0,0,0-.18.37v0a.43.43,0,0,0,.16.31,1.45,1.45,0,0,0,.31.23l.57.27a3.82,3.82,0,0,1,1.08.67,1.21,1.21,0,0,1,.36.92h0a1.46,1.46,0,0,1-.51,1.19A2,2,0,0,1,473,23.33Z"/><path class="cls-10" d="M475.87,17.16V16h1.2v1.11Zm0,6.07v-5.3H477v5.3Z"/><path class="cls-10" d="M480,23.33a3,3,0,0,1-2-.74l.53-.81a2.34,2.34,0,0,0,1.46.62.82.82,0,0,0,.54-.17.52.52,0,0,0,.2-.42h0a.46.46,0,0,0-.15-.33,1.24,1.24,0,0,0-.32-.23l-.57-.26a3.89,3.89,0,0,1-1.08-.65,1.19,1.19,0,0,1-.36-.92v0a1.41,1.41,0,0,1,.49-1.12,1.86,1.86,0,0,1,1.26-.42,2.88,2.88,0,0,1,1.72.57l-.48.83a2.33,2.33,0,0,0-1.26-.47.74.74,0,0,0-.49.15.46.46,0,0,0-.18.37v0a.43.43,0,0,0,.16.31,1.45,1.45,0,0,0,.31.23l.57.27a3.82,3.82,0,0,1,1.08.67,1.21,1.21,0,0,1,.36.92h0a1.46,1.46,0,0,1-.51,1.19A2,2,0,0,1,480,23.33Z"/><path class="cls-10" d="M487.57,23.34a2.24,2.24,0,0,1-1.74-.76,2.78,2.78,0,0,1-.69-1.94v-.09a2.81,2.81,0,0,1,.69-1.94,2.37,2.37,0,0,1,3.5,0,2.8,2.8,0,0,1,.69,1.95v.09a2.79,2.79,0,0,1-.7,1.94A2.26,2.26,0,0,1,487.57,23.34Zm0-1a1.12,1.12,0,0,0,.94-.49,2,2,0,0,0,.36-1.24v-.06a2,2,0,0,0-.37-1.24,1.15,1.15,0,0,0-.95-.49,1.11,1.11,0,0,0-.95.48,2,2,0,0,0-.35,1.23v.06a2,2,0,0,0,.38,1.25A1.14,1.14,0,0,0,487.59,22.35Z"/><path class="cls-10" d="M491.29,23.23V18.9h-.59V18h.59v-.41a1.65,1.65,0,0,1,.39-1.21,1.55,1.55,0,0,1,1.11-.38,2.67,2.67,0,0,1,.8.11v1a2.08,2.08,0,0,0-.55-.09q-.63,0-.63.73V18h1.17v.94h-1.16v4.33Z"/><path class="cls-10" d="M498.6,23.27l-2-7h1.23l1.37,5.08,1.43-5.1h1l1.43,5.1,1.37-5.08h1.2l-2,7h-1l-1.43-4.94-1.43,4.94Z"/><path class="cls-10" d="M508.33,23.23V17.31h-1.84V16.23h4.84v1.08h-1.84v5.92Z"/><path class="cls-10" d="M518.15,23.23l-1-2.42h-1.05l-.57,2.42h-1.22l1.71-7h2a2.6,2.6,0,0,1,1.94.63,1.87,1.87,0,0,1,.51,1.35,2.36,2.36,0,0,1-.65,1.71,2.91,2.91,0,0,1-1.4.75l1.06,2.56Zm-1.74-3.48h1a2,2,0,0,0,1.43-.47,1.37,1.37,0,0,0,.37-1,.9.9,0,0,0-.25-.67,1.41,1.41,0,0,0-1-.3h-1Z"/><path class="cls-10" d="M520.22,23.23l4.27-7.05h1.18l.82,7.05h-1.23l-.17-1.69h-2.6l-1,1.69Zm3-2.76H525l-.24-2.81Z"/><path class="cls-10" d="M529.77,23.33a3,3,0,0,1-2.53-1.27l.92-.78a2.26,2.26,0,0,0,1.67,1,1,1,0,0,0,.72-.25.8.8,0,0,0,.28-.63.84.84,0,0,0-.21-.54,4,4,0,0,0-.79-.65,4.82,4.82,0,0,1-1.07-1,1.6,1.6,0,0,1-.34-1,2,2,0,0,1,.56-1.42,2.33,2.33,0,0,1,1.72-.69,2.9,2.9,0,0,1,2.24,1l-.84.83a2,2,0,0,0-1.44-.8,1,1,0,0,0-.71.25.78.78,0,0,0-.26.58.83.83,0,0,0,.21.54,4.12,4.12,0,0,0,.82.66,4.39,4.39,0,0,1,1,.93,1.68,1.68,0,0,1,.34,1,2,2,0,0,1-.6,1.46A2.36,2.36,0,0,1,529.77,23.33Z"/><path class="cls-10" d="M535.94,23.23v-5.3h1.13v.77a1.67,1.67,0,0,1,1.42-.87,1.41,1.41,0,0,1,1.37.85,1.89,1.89,0,0,1,1.55-.85,1.52,1.52,0,0,1,1.18.48,2,2,0,0,1,.44,1.37v3.55H541.9V20q0-1.16-.9-1.16a.86.86,0,0,0-.69.31,1.28,1.28,0,0,0-.26.86v3.21h-1.13V20a1.34,1.34,0,0,0-.24-.85.79.79,0,0,0-.65-.29.86.86,0,0,0-.7.32,1.31,1.31,0,0,0-.27.86v3.2Z"/><path class="cls-10" d="M547.35,23.33a2.8,2.8,0,0,1-2.21-1,3.77,3.77,0,0,1-.86-2.58v-.07a3.74,3.74,0,0,1,.88-2.57,2.87,2.87,0,0,1,2.25-1,3.16,3.16,0,0,1,2.2.87l-.7.89a2.2,2.2,0,0,0-1.5-.68,1.69,1.69,0,0,0-1.38.69,2.8,2.8,0,0,0-.55,1.8v0a2.86,2.86,0,0,0,.54,1.82,1.69,1.69,0,0,0,1.38.69,2.25,2.25,0,0,0,1.55-.73l.68.82A3.08,3.08,0,0,1,547.35,23.33Z"/><path class="cls-10" d="M550.76,23.23v-7h2.53a2.53,2.53,0,0,1,1.87.66,2.08,2.08,0,0,1,.58,1.54v0a2.08,2.08,0,0,1-.39,1.3,2.24,2.24,0,0,1-1.06.75l1.65,2.71H554.6l-1.49-2.48h-1.19v2.47Zm1.16-3.51h1.25a1.51,1.51,0,0,0,1-.32,1.13,1.13,0,0,0,.37-.89v0a1.11,1.11,0,0,0-.36-.9,1.53,1.53,0,0,0-1-.3h-1.27Z"/><path class="cls-10" d="M559.87,23.33a2.8,2.8,0,0,1-2.21-1,3.77,3.77,0,0,1-.86-2.58v-.07a3.74,3.74,0,0,1,.88-2.57,2.87,2.87,0,0,1,2.25-1,3.16,3.16,0,0,1,2.2.87l-.7.89a2.2,2.2,0,0,0-1.5-.68,1.69,1.69,0,0,0-1.38.69,2.8,2.8,0,0,0-.55,1.8v0a2.86,2.86,0,0,0,.54,1.82,1.69,1.69,0,0,0,1.38.69,2.25,2.25,0,0,0,1.55-.73l.68.82A3.08,3.08,0,0,1,559.87,23.33Z"/><path class="cls-10" d="M405.26,198.47v-7h2.24a2.62,2.62,0,0,1,1.83.63,2.19,2.19,0,0,1,.68,1.71v0a2.16,2.16,0,0,1-.72,1.74,2.85,2.85,0,0,1-1.87.64h-1v2.27Zm1.16-3.32h1a1.43,1.43,0,0,0,1-.36,1.25,1.25,0,0,0,.38-.95h0a1.23,1.23,0,0,0-.37-1,1.5,1.5,0,0,0-1-.33h-1Z"/><path class="cls-10" d="M412.32,198.57a1.63,1.63,0,0,1-1.16-.43,1.55,1.55,0,0,1-.46-1.19v0a1.58,1.58,0,0,1,.5-1.26,2,2,0,0,1,1.38-.44,3.87,3.87,0,0,1,1.22.21v-.22a1,1,0,0,0-.3-.8,1.19,1.19,0,0,0-.84-.28,3.11,3.11,0,0,0-1.28.32l-.32-.9a3.94,3.94,0,0,1,1.75-.42,1.87,1.87,0,0,1,2.09,2.07v3.29h-1.11v-.65A1.68,1.68,0,0,1,412.32,198.57Zm.34-.85a1.15,1.15,0,0,0,.82-.29,1,1,0,0,0,.33-.75v-.53a2.51,2.51,0,0,0-1-.19,1.12,1.12,0,0,0-.76.23.82.82,0,0,0-.27.66v0a.78.78,0,0,0,.24.61A.92.92,0,0,0,412.66,197.72Z"/><path class="cls-10" d="M417.73,198.55a1.21,1.21,0,0,1-1.37-1.36v-3h-.58v-1h.58v-1.43h1.13v1.43h1.19v1h-1.19V197a.51.51,0,0,0,.57.58,1.31,1.31,0,0,0,.61-.15v.93A2,2,0,0,1,417.73,198.55Z"/><path class="cls-10" d="M419.69,192.4v-1.11h1.2v1.11Zm0,6.07v-5.3h1.13v5.3Z"/><path class="cls-10" d="M424.43,198.58a2.27,2.27,0,0,1-1.73-.74,2.76,2.76,0,0,1-.69-2v-.08a3,3,0,0,1,.64-2,2,2,0,0,1,1.62-.77,1.91,1.91,0,0,1,1.63.78,3.3,3.3,0,0,1,.58,2c0,.15,0,.28,0,.39h-3.32a1.6,1.6,0,0,0,.44,1,1.25,1.25,0,0,0,.9.36,1.75,1.75,0,0,0,1.22-.56l.59.7A2.46,2.46,0,0,1,424.43,198.58Zm-1.3-3.11h2.24a2,2,0,0,0-.33-1,.89.89,0,0,0-.76-.4.94.94,0,0,0-.78.39A2,2,0,0,0,423.13,195.47Z"/><path class="cls-10" d="M427.58,198.47v-5.3h1.13V194a1.67,1.67,0,0,1,1.45-.88,1.5,1.5,0,0,1,1.2.5,2,2,0,0,1,.43,1.35v3.55h-1.13v-3.23a1.29,1.29,0,0,0-.25-.85.86.86,0,0,0-.7-.3.92.92,0,0,0-.72.31,1.25,1.25,0,0,0-.28.86v3.21Z"/><path class="cls-10" d="M434.64,198.55a1.21,1.21,0,0,1-1.37-1.36v-3h-.58v-1h.58v-1.43h1.13v1.43h1.19v1H434.4V197a.51.51,0,0,0,.57.58,1.31,1.31,0,0,0,.61-.15v.93A2,2,0,0,1,434.64,198.55Z"/><path class="cls-10" d="M438.32,198.57a3,3,0,0,1-2-.74l.53-.81a2.35,2.35,0,0,0,1.46.62.82.82,0,0,0,.54-.17.52.52,0,0,0,.2-.42h0a.46.46,0,0,0-.15-.33,1.23,1.23,0,0,0-.32-.24l-.57-.25a3.91,3.91,0,0,1-1.08-.65,1.19,1.19,0,0,1-.36-.92v0a1.41,1.41,0,0,1,.49-1.12,1.86,1.86,0,0,1,1.26-.42,2.88,2.88,0,0,1,1.72.57l-.48.83a2.33,2.33,0,0,0-1.26-.47.74.74,0,0,0-.49.15.46.46,0,0,0-.18.37v0a.42.42,0,0,0,.16.31,1.47,1.47,0,0,0,.31.23l.57.26a3.84,3.84,0,0,1,1.08.67,1.21,1.21,0,0,1,.36.92h0a1.46,1.46,0,0,1-.51,1.19A2,2,0,0,1,438.32,198.57Z"/><path class="cls-10" d="M444.82,198.51l-1.48-5.34h1.16l.9,3.58,1-3.59h1l1,3.59.91-3.58h1.14l-1.49,5.34h-1l-1-3.54-1,3.54Z"/><path class="cls-10" d="M451.3,192.4v-1.11h1.2v1.11Zm0,6.07v-5.3h1.13v5.3Z"/><path class="cls-10" d="M455.44,198.55a1.21,1.21,0,0,1-1.37-1.36v-3h-.58v-1h.58v-1.43h1.13v1.43h1.19v1h-1.19V197a.51.51,0,0,0,.57.58,1.31,1.31,0,0,0,.61-.15v.93A2,2,0,0,1,455.44,198.55Z"/><path class="cls-10" d="M457.43,198.47v-7.22h1.13V194a1.67,1.67,0,0,1,1.45-.88,1.5,1.5,0,0,1,1.2.5,2,2,0,0,1,.43,1.35v3.55h-1.13v-3.23a1.29,1.29,0,0,0-.25-.85.86.86,0,0,0-.7-.3.92.92,0,0,0-.72.31,1.25,1.25,0,0,0-.28.86v3.21Z"/><path class="cls-10" d="M465.57,198.47v-7h1.21l1.8,3.22,1.79-3.22h1.22v7h-1.15v-5l-1.86,3.24h0l-1.85-3.22v4.93Z"/><path class="cls-10" d="M474.56,198.47v-5.92h-1.84v-1.08h4.84v1.08h-1.84v5.92Z"/><path class="cls-10" d="M484.38,198.47l-1-2.42h-1.05l-.57,2.42h-1.22l1.71-7h2a2.6,2.6,0,0,1,1.94.63,1.87,1.87,0,0,1,.51,1.35,2.36,2.36,0,0,1-.65,1.71,2.9,2.9,0,0,1-1.4.75l1.06,2.56ZM482.64,195h1a2,2,0,0,0,1.43-.47,1.37,1.37,0,0,0,.37-1,.91.91,0,0,0-.25-.67,1.41,1.41,0,0,0-1-.3h-1Z"/><path class="cls-10" d="M486.45,198.47l4.27-7.05h1.18l.82,7.05h-1.23l-.17-1.69h-2.6l-1,1.69Zm3-2.76h1.8L491,192.9Z"/><path class="cls-10" d="M496,198.57a3,3,0,0,1-2.53-1.27l.92-.78a2.26,2.26,0,0,0,1.67,1,1,1,0,0,0,.72-.25.8.8,0,0,0,.28-.63.84.84,0,0,0-.21-.54,4,4,0,0,0-.79-.65,4.82,4.82,0,0,1-1.07-1,1.6,1.6,0,0,1-.34-1,2,2,0,0,1,.56-1.42,2.33,2.33,0,0,1,1.72-.69,2.9,2.9,0,0,1,2.24,1l-.84.83a2,2,0,0,0-1.44-.8,1,1,0,0,0-.71.25.78.78,0,0,0-.26.58.83.83,0,0,0,.21.54,4.13,4.13,0,0,0,.82.66,4.39,4.39,0,0,1,1,.93,1.68,1.68,0,0,1,.34,1,2,2,0,0,1-.6,1.46A2.35,2.35,0,0,1,496,198.57Z"/><path class="cls-10" d="M503.76,198.55a1.21,1.21,0,0,1-1.37-1.36v-3h-.58v-1h.58v-1.43h1.13v1.43h1.19v1h-1.19V197a.51.51,0,0,0,.57.58,1.31,1.31,0,0,0,.61-.15v.93A2,2,0,0,1,503.76,198.55Z"/><path class="cls-10" d="M507.32,198.57a1.51,1.51,0,0,1-1.2-.5,2,2,0,0,1-.43-1.35v-3.55h1.13v3.23a1.31,1.31,0,0,0,.25.85.85.85,0,0,0,.7.3.92.92,0,0,0,.72-.32,1.25,1.25,0,0,0,.28-.85v-3.21h1.14v5.3h-1.14v-.77A1.67,1.67,0,0,1,507.32,198.57Z"/><path class="cls-10" d="M511.27,198.47v-5.3h1.13v.77a1.67,1.67,0,0,1,1.42-.87,1.41,1.41,0,0,1,1.37.85,1.89,1.89,0,0,1,1.55-.85,1.52,1.52,0,0,1,1.18.48,2,2,0,0,1,.44,1.37v3.55h-1.13v-3.22q0-1.16-.9-1.16a.86.86,0,0,0-.69.31,1.28,1.28,0,0,0-.26.86v3.21h-1.13v-3.23a1.34,1.34,0,0,0-.24-.85.79.79,0,0,0-.65-.29.86.86,0,0,0-.7.32,1.31,1.31,0,0,0-.27.86v3.2Z"/><path class="cls-10" d="M521.88,198.58a2.24,2.24,0,0,1-1.74-.76,2.78,2.78,0,0,1-.69-1.93v-.09a2.81,2.81,0,0,1,.69-1.94,2.37,2.37,0,0,1,3.5,0,2.8,2.8,0,0,1,.69,1.95v.09a2.79,2.79,0,0,1-.7,1.94A2.26,2.26,0,0,1,521.88,198.58Zm0-1a1.12,1.12,0,0,0,.94-.49,2,2,0,0,0,.36-1.24v-.06a2,2,0,0,0-.37-1.24,1.14,1.14,0,0,0-.95-.49,1.11,1.11,0,0,0-.95.49,2,2,0,0,0-.35,1.23v.06a2,2,0,0,0,.38,1.25A1.14,1.14,0,0,0,521.9,197.59Z"/><path class="cls-10" d="M525.45,198.47v-5.3h1.13v1a1.54,1.54,0,0,1,1.59-1.12v1.23h-.05a1.44,1.44,0,0,0-1.12.46,2,2,0,0,0-.42,1.35v2.34Z"/><path class="cls-10" d="M530.73,198.57a3,3,0,0,1-2-.74l.53-.81a2.35,2.35,0,0,0,1.46.62.82.82,0,0,0,.54-.17.52.52,0,0,0,.2-.42h0a.46.46,0,0,0-.15-.33,1.23,1.23,0,0,0-.32-.24l-.57-.25a3.91,3.91,0,0,1-1.08-.65,1.19,1.19,0,0,1-.36-.92v0a1.41,1.41,0,0,1,.49-1.12,1.86,1.86,0,0,1,1.26-.42,2.88,2.88,0,0,1,1.72.57l-.48.83a2.33,2.33,0,0,0-1.26-.47.74.74,0,0,0-.49.15.46.46,0,0,0-.18.37v0a.42.42,0,0,0,.16.31,1.47,1.47,0,0,0,.31.23l.57.26a3.84,3.84,0,0,1,1.08.67,1.21,1.21,0,0,1,.36.92h0a1.46,1.46,0,0,1-.51,1.19A2,2,0,0,1,530.73,198.57Z"/><path class="cls-10" d="M537.65,198.57a3,3,0,0,1-2-.74l.53-.81a2.35,2.35,0,0,0,1.46.62.82.82,0,0,0,.54-.17.52.52,0,0,0,.2-.42h0a.46.46,0,0,0-.15-.33,1.23,1.23,0,0,0-.32-.24l-.57-.25a3.91,3.91,0,0,1-1.08-.65,1.19,1.19,0,0,1-.36-.92v0a1.41,1.41,0,0,1,.49-1.12,1.86,1.86,0,0,1,1.26-.42,2.88,2.88,0,0,1,1.72.57l-.48.83a2.33,2.33,0,0,0-1.26-.47.74.74,0,0,0-.49.15.46.46,0,0,0-.18.37v0a.42.42,0,0,0,.16.31,1.47,1.47,0,0,0,.31.23l.57.26a3.84,3.84,0,0,1,1.08.67,1.21,1.21,0,0,1,.36.92h0a1.46,1.46,0,0,1-.51,1.19A2,2,0,0,1,537.65,198.57Z"/><path class="cls-10" d="M540.55,198.47v-7.22h1.13V194a1.67,1.67,0,0,1,1.45-.88,1.5,1.5,0,0,1,1.2.5,2,2,0,0,1,.43,1.35v3.55h-1.13v-3.23a1.29,1.29,0,0,0-.25-.85.86.86,0,0,0-.7-.3.92.92,0,0,0-.72.31,1.25,1.25,0,0,0-.28.86v3.21Z"/><path class="cls-10" d="M548.26,198.58a2.24,2.24,0,0,1-1.74-.76,2.78,2.78,0,0,1-.69-1.93v-.09a2.81,2.81,0,0,1,.69-1.94,2.37,2.37,0,0,1,3.5,0,2.8,2.8,0,0,1,.69,1.95v.09a2.79,2.79,0,0,1-.7,1.94A2.26,2.26,0,0,1,548.26,198.58Zm0-1a1.12,1.12,0,0,0,.94-.49,2,2,0,0,0,.36-1.24v-.06a2,2,0,0,0-.37-1.24,1.14,1.14,0,0,0-.95-.49,1.11,1.11,0,0,0-.95.49,2,2,0,0,0-.35,1.23v.06a2,2,0,0,0,.38,1.25A1.14,1.14,0,0,0,548.28,197.59Z"/><path class="cls-10" d="M553.42,198.57a1.51,1.51,0,0,1-1.2-.5,2,2,0,0,1-.43-1.35v-3.55h1.13v3.23a1.31,1.31,0,0,0,.25.85.85.85,0,0,0,.7.3.92.92,0,0,0,.72-.32,1.25,1.25,0,0,0,.28-.85v-3.21H556v5.3h-1.14v-.77A1.67,1.67,0,0,1,553.42,198.57Z"/><path class="cls-10" d="M557.4,198.47v-7.22h1.13v7.22Z"/><path class="cls-10" d="M561.79,198.57a1.85,1.85,0,0,1-1.46-.71,2.93,2.93,0,0,1-.61-2v-.13a3,3,0,0,1,.6-2,1.82,1.82,0,0,1,3,.2v-2.72h1.13v7.22h-1.13v-.85A1.8,1.8,0,0,1,561.79,198.57Zm.31-1a1.1,1.1,0,0,0,.89-.47,2,2,0,0,0,.37-1.23v-.1a2,2,0,0,0-.37-1.23,1.1,1.1,0,0,0-.89-.47,1.06,1.06,0,0,0-.88.46,2,2,0,0,0-.35,1.25v.08a2,2,0,0,0,.36,1.25A1.07,1.07,0,0,0,562.1,197.57Z"/><path class="cls-10" d="M405.14,210.47v-5.3h1.13V206a1.67,1.67,0,0,1,1.45-.88,1.5,1.5,0,0,1,1.2.5,2,2,0,0,1,.43,1.35v3.55h-1.13v-3.23a1.29,1.29,0,0,0-.25-.85.86.86,0,0,0-.7-.3.92.92,0,0,0-.72.31,1.25,1.25,0,0,0-.28.86v3.21Z"/><path class="cls-10" d="M412.86,210.58a2.24,2.24,0,0,1-1.74-.76,2.78,2.78,0,0,1-.69-1.93v-.09a2.81,2.81,0,0,1,.69-1.94,2.37,2.37,0,0,1,3.5,0,2.8,2.8,0,0,1,.69,1.95v.09a2.79,2.79,0,0,1-.7,1.94A2.26,2.26,0,0,1,412.86,210.58Zm0-1a1.12,1.12,0,0,0,.94-.49,2,2,0,0,0,.36-1.24v-.06a2,2,0,0,0-.37-1.24,1.14,1.14,0,0,0-.95-.49,1.11,1.11,0,0,0-.95.49,2,2,0,0,0-.35,1.23v.06a2,2,0,0,0,.38,1.25A1.14,1.14,0,0,0,412.88,209.59Z"/><path class="cls-10" d="M417.91,210.55a1.21,1.21,0,0,1-1.37-1.36v-3H416v-1h.58v-1.43h1.13v1.43h1.19v1h-1.19V209a.51.51,0,0,0,.57.58,1.31,1.31,0,0,0,.61-.15v.93A2,2,0,0,1,417.91,210.55Z"/><path class="cls-10" d="M425.14,210.57a1.82,1.82,0,0,1-1.55-.9v.8h-1.13v-7.22h1.13V206a1.8,1.8,0,0,1,1.55-1,1.86,1.86,0,0,1,1.46.71,2.94,2.94,0,0,1,.6,2v.14a3,3,0,0,1-.6,2A1.85,1.85,0,0,1,425.14,210.57Zm-1.21-1.47a1.1,1.1,0,0,0,.89.47,1.06,1.06,0,0,0,.88-.46,2,2,0,0,0,.35-1.24v-.09a2,2,0,0,0-.36-1.25,1.07,1.07,0,0,0-.87-.46,1.1,1.1,0,0,0-.89.47,2,2,0,0,0-.37,1.23v.1A2,2,0,0,0,423.93,209.1Z"/><path class="cls-10" d="M430.54,210.58a2.27,2.27,0,0,1-1.73-.74,2.76,2.76,0,0,1-.69-2v-.08a3,3,0,0,1,.64-2,2,2,0,0,1,1.62-.77,1.91,1.91,0,0,1,1.63.78,3.3,3.3,0,0,1,.58,2c0,.15,0,.28,0,.39h-3.32a1.6,1.6,0,0,0,.44,1,1.25,1.25,0,0,0,.9.36,1.75,1.75,0,0,0,1.22-.56l.59.7A2.46,2.46,0,0,1,430.54,210.58Zm-1.3-3.11h2.24a2,2,0,0,0-.33-1,.89.89,0,0,0-.76-.4.94.94,0,0,0-.78.39A2,2,0,0,0,429.24,207.47Z"/><path class="cls-10" d="M437.77,210.55a1.21,1.21,0,0,1-1.37-1.36v-3h-.58v-1h.58v-1.43h1.13v1.43h1.19v1h-1.19V209a.51.51,0,0,0,.57.58,1.31,1.31,0,0,0,.61-.15v.93A2,2,0,0,1,437.77,210.55Z"/><path class="cls-10" d="M439.76,210.47v-5.3h1.13v1a1.54,1.54,0,0,1,1.59-1.12v1.23h-.05a1.44,1.44,0,0,0-1.12.46,2,2,0,0,0-.42,1.35v2.34Z"/><path class="cls-10" d="M445.59,210.58a2.27,2.27,0,0,1-1.73-.74,2.76,2.76,0,0,1-.69-2v-.08a3,3,0,0,1,.64-2,2,2,0,0,1,1.62-.77,1.91,1.91,0,0,1,1.63.78,3.3,3.3,0,0,1,.58,2c0,.15,0,.28,0,.39H444.3a1.6,1.6,0,0,0,.44,1,1.25,1.25,0,0,0,.9.36,1.75,1.75,0,0,0,1.22-.56l.59.7A2.46,2.46,0,0,1,445.59,210.58Zm-1.3-3.11h2.24a2,2,0,0,0-.33-1,.89.89,0,0,0-.76-.4.94.94,0,0,0-.78.39A2,2,0,0,0,444.29,207.47Z"/><path class="cls-10" d="M450.06,210.57a1.63,1.63,0,0,1-1.16-.43,1.55,1.55,0,0,1-.46-1.19v0a1.58,1.58,0,0,1,.5-1.26,2,2,0,0,1,1.38-.44,3.87,3.87,0,0,1,1.22.21v-.22a1,1,0,0,0-.3-.8,1.19,1.19,0,0,0-.84-.28,3.11,3.11,0,0,0-1.28.32l-.32-.9a3.94,3.94,0,0,1,1.75-.42,1.87,1.87,0,0,1,2.09,2.07v3.29h-1.11v-.65A1.68,1.68,0,0,1,450.06,210.57Zm.34-.85a1.15,1.15,0,0,0,.82-.29,1,1,0,0,0,.33-.75v-.53a2.51,2.51,0,0,0-1-.19,1.12,1.12,0,0,0-.76.23.82.82,0,0,0-.27.66v0a.78.78,0,0,0,.24.61A.92.92,0,0,0,450.4,209.72Z"/><path class="cls-10" d="M455.47,210.55a1.21,1.21,0,0,1-1.37-1.36v-3h-.58v-1h.58v-1.43h1.13v1.43h1.19v1h-1.19V209a.51.51,0,0,0,.57.58,1.31,1.31,0,0,0,.61-.15v.93A2,2,0,0,1,455.47,210.55Z"/><path class="cls-10" d="M459.57,210.58a2.27,2.27,0,0,1-1.73-.74,2.76,2.76,0,0,1-.69-2v-.08a3,3,0,0,1,.64-2,2,2,0,0,1,1.62-.77,1.91,1.91,0,0,1,1.63.78,3.3,3.3,0,0,1,.58,2c0,.15,0,.28,0,.39h-3.32a1.6,1.6,0,0,0,.44,1,1.25,1.25,0,0,0,.9.36,1.75,1.75,0,0,0,1.22-.56l.59.7A2.46,2.46,0,0,1,459.57,210.58Zm-1.3-3.11h2.24a2,2,0,0,0-.33-1,.89.89,0,0,0-.76-.4.94.94,0,0,0-.78.39A2,2,0,0,0,458.27,207.47Z"/><path class="cls-10" d="M464.56,210.57a1.85,1.85,0,0,1-1.46-.71,2.93,2.93,0,0,1-.61-2v-.13a3,3,0,0,1,.6-2,1.82,1.82,0,0,1,3,.2v-2.72h1.13v7.22H466.1v-.85A1.8,1.8,0,0,1,464.56,210.57Zm.31-1a1.1,1.1,0,0,0,.89-.47,2,2,0,0,0,.37-1.23v-.1a2,2,0,0,0-.37-1.23,1.1,1.1,0,0,0-.89-.47,1.06,1.06,0,0,0-.88.46,2,2,0,0,0-.35,1.25v.08a2,2,0,0,0,.36,1.25A1.07,1.07,0,0,0,464.86,209.57Z"/><path class="cls-10" d="M472.2,210.51l-1.48-5.34h1.16l.9,3.58,1-3.59h1l1,3.59.91-3.58h1.14l-1.49,5.34h-1l-1-3.54-1,3.54Z"/><path class="cls-10" d="M478.68,204.4v-1.11h1.2v1.11Zm0,6.07v-5.3h1.13v5.3Z"/><path class="cls-10" d="M482.82,210.55a1.21,1.21,0,0,1-1.37-1.36v-3h-.58v-1h.58v-1.43h1.13v1.43h1.19v1h-1.19V209a.51.51,0,0,0,.57.58,1.31,1.31,0,0,0,.61-.15v.93A2,2,0,0,1,482.82,210.55Z"/><path class="cls-10" d="M484.81,210.47v-7.22h1.13V206a1.67,1.67,0,0,1,1.45-.88,1.5,1.5,0,0,1,1.2.5,2,2,0,0,1,.43,1.35v3.55h-1.13v-3.23a1.29,1.29,0,0,0-.25-.85.86.86,0,0,0-.7-.3.92.92,0,0,0-.72.31,1.25,1.25,0,0,0-.28.86v3.21Z"/><path class="cls-10" d="M494.86,210.51l-2.43-7h1.26l1.72,5.29,1.72-5.29h1.22l-2.42,7Z"/><path class="cls-10" d="M501.05,210.58a2.27,2.27,0,0,1-1.73-.74,2.76,2.76,0,0,1-.69-2v-.08a3,3,0,0,1,.64-2,2,2,0,0,1,1.62-.77,1.91,1.91,0,0,1,1.63.78,3.3,3.3,0,0,1,.58,2c0,.15,0,.28,0,.39h-3.32a1.6,1.6,0,0,0,.44,1,1.25,1.25,0,0,0,.9.36,1.75,1.75,0,0,0,1.22-.56l.59.7A2.46,2.46,0,0,1,501.05,210.58Zm-1.3-3.11H502a2,2,0,0,0-.33-1,.89.89,0,0,0-.76-.4.94.94,0,0,0-.78.39A2,2,0,0,0,499.75,207.47Z"/><path class="cls-10" d="M506.35,210.58a2.18,2.18,0,0,1-1.71-.75,2.8,2.8,0,0,1-.67-1.93v-.1a2.82,2.82,0,0,1,.68-1.95,2.22,2.22,0,0,1,1.74-.77,2.32,2.32,0,0,1,1.7.72l-.63.83a1.49,1.49,0,0,0-1.07-.53,1.1,1.1,0,0,0-.92.48,2,2,0,0,0-.36,1.23v0a2,2,0,0,0,.37,1.25,1.14,1.14,0,0,0,.94.47,1.55,1.55,0,0,0,1.08-.54l.61.75A2.26,2.26,0,0,1,506.35,210.58Z"/><path class="cls-10" d="M510.81,210.55a1.21,1.21,0,0,1-1.37-1.36v-3h-.58v-1h.58v-1.43h1.13v1.43h1.19v1h-1.19V209a.51.51,0,0,0,.57.58,1.31,1.31,0,0,0,.61-.15v.93A2,2,0,0,1,510.81,210.55Z"/><path class="cls-10" d="M512.78,204.4v-1.11H514v1.11Zm0,6.07v-5.3h1.13v5.3Z"/><path class="cls-10" d="M518,210.57a1.82,1.82,0,0,1-1.55-.9v.8h-1.13v-7.22h1.13V206a1.8,1.8,0,0,1,1.55-1,1.86,1.86,0,0,1,1.46.71,2.94,2.94,0,0,1,.6,2v.14a3,3,0,0,1-.6,2A1.85,1.85,0,0,1,518,210.57Zm-1.21-1.47a1.1,1.1,0,0,0,.89.47,1.06,1.06,0,0,0,.88-.46,2,2,0,0,0,.35-1.24v-.09a2,2,0,0,0-.36-1.25,1.07,1.07,0,0,0-.87-.46,1.1,1.1,0,0,0-.89.47,2,2,0,0,0-.37,1.23v.1A2,2,0,0,0,516.82,209.1Z"/><path class="cls-10" d="M521.23,204.4v-1.11h1.2v1.11Zm0,6.07v-5.3h1.13v5.3Z"/><path class="cls-10" d="M524.65,205.17l1,1.78,1-1.78h1.19l-1.59,2.59,1.66,2.71h-1.22l-1.08-1.89-1.09,1.89h-1.19l1.64-2.71-1.58-2.59Z"/><path class="cls-10" d="M530.27,206.88a1.48,1.48,0,0,1-1.13-.5,1.75,1.75,0,0,1-.46-1.23v-.06a1.77,1.77,0,0,1,.46-1.24,1.47,1.47,0,0,1,1.13-.5,1.5,1.5,0,0,1,1.15.5,1.76,1.76,0,0,1,.46,1.24v0a1.76,1.76,0,0,1-.46,1.23A1.5,1.5,0,0,1,530.27,206.88Zm-1-.64a1.26,1.26,0,0,0,1,.45,1.28,1.28,0,0,0,1-.45,1.6,1.6,0,0,0,.4-1.1v0a1.59,1.59,0,0,0-.4-1.1,1.28,1.28,0,0,0-1-.44,1.26,1.26,0,0,0-1,.44,1.59,1.59,0,0,0-.4,1.1v.06A1.6,1.6,0,0,0,529.28,206.25Zm.35-.23v-1.85h.71a.78.78,0,0,1,.51.16.54.54,0,0,1,.19.45h0a.55.55,0,0,1-.36.55l.41.69h-.46l-.36-.61H530V206Zm.4-.94h.29c.21,0,.31-.09.31-.28s-.1-.27-.31-.27H530Z"/><rect class="cls-11" x="405.13" y="34.77" width="135.88" height="28.8"/><path class="cls-10" d="M413,52.7V46.4h1.37l1.4,2.56,1.39-2.56h1.38v6.3h-1.28v-4l-1.49,2.6h0l-1.48-2.58v4Z"/><path class="cls-10" d="M421,52.7V47.61H419.4V46.4h4.46v1.21h-1.58V52.7Z"/><path class="cls-10" d="M429.43,52.7l-.77-2H428l-.47,2h-1.37l1.54-6.3h1.81a2.51,2.51,0,0,1,1.84.59,1.79,1.79,0,0,1,.49,1.3,2.18,2.18,0,0,1-.58,1.58l-.24.23a2.18,2.18,0,0,1-.34.22,2.64,2.64,0,0,1-.57.23L431,52.7Zm-1.11-3.19h.73a1.47,1.47,0,0,0,1.07-.35,1.07,1.07,0,0,0,.29-.77.7.7,0,0,0-.21-.53,1.07,1.07,0,0,0-.78-.22h-.67Z"/><path class="cls-10" d="M431.29,52.7l3.77-6.35h1.32l.67,6.35h-1.4l-.11-1.41h-2l-.78,1.41Zm3-2.62h1.13l-.1-2.06Z"/><path class="cls-10" d="M439.89,52.79a2.74,2.74,0,0,1-2.32-1.15l1-.88a2,2,0,0,0,1.37.83.67.67,0,0,0,.47-.16.52.52,0,0,0,.18-.41.63.63,0,0,0-.17-.4,3.92,3.92,0,0,0-.64-.54,4.24,4.24,0,0,1-.9-.86,1.51,1.51,0,0,1-.3-.9,1.88,1.88,0,0,1,.54-1.36,2.15,2.15,0,0,1,1.58-.64,2.74,2.74,0,0,1,2.07.94l-.94.94a1.73,1.73,0,0,0-1.18-.67.63.63,0,0,0-.46.16.52.52,0,0,0-.17.39.62.62,0,0,0,.16.4,3.8,3.8,0,0,0,.64.54,4.13,4.13,0,0,1,.9.85,1.55,1.55,0,0,1,.31.94,1.88,1.88,0,0,1-.57,1.39A2.16,2.16,0,0,1,439.89,52.79Z"/><path class="cls-10" d="M445.08,52.7V47.88h1.28v.65a1.51,1.51,0,0,1,1.25-.74,1.25,1.25,0,0,1,1.19.7,1.74,1.74,0,0,1,1.37-.7,1.35,1.35,0,0,1,1,.42,1.71,1.71,0,0,1,.39,1.2V52.7h-1.27V49.8q0-.85-.67-.85a.61.61,0,0,0-.5.22,1,1,0,0,0-.18.63V52.7H447.7V49.8q0-.85-.66-.85a.61.61,0,0,0-.5.22,1,1,0,0,0-.18.63V52.7Z"/><path class="cls-10" d="M455.27,52.79a2.54,2.54,0,0,1-2-.88,3.4,3.4,0,0,1-.76-2.32v-.08a3.33,3.33,0,0,1,.8-2.31,2.63,2.63,0,0,1,2.05-.89,2.72,2.72,0,0,1,2,.84l-.78,1a1.8,1.8,0,0,0-1.29-.63,1.27,1.27,0,0,0-1.05.55,2.36,2.36,0,0,0-.41,1.46v0a2.34,2.34,0,0,0,.42,1.47,1.29,1.29,0,0,0,1.06.55,1.88,1.88,0,0,0,1.3-.66l.78.93a3.45,3.45,0,0,1-1,.71A2.7,2.7,0,0,1,455.27,52.79Z"/><path class="cls-10" d="M458.29,52.7V46.4h2.37a2.31,2.31,0,0,1,1.71.6,2,2,0,0,1,.53,1.46v0a1.86,1.86,0,0,1-1.17,1.86l1.34,2.34h-1.49l-1.16-2.07h-.82V52.7Zm1.3-3.22h1a1.05,1.05,0,0,0,.76-.26.9.9,0,0,0,.27-.69h0a.89.89,0,0,0-.27-.71,1.15,1.15,0,0,0-.78-.24h-.94Z"/><path class="cls-10" d="M466.48,52.79a2.54,2.54,0,0,1-2-.88,3.4,3.4,0,0,1-.76-2.32v-.08a3.33,3.33,0,0,1,.8-2.31,2.63,2.63,0,0,1,2.05-.89,2.72,2.72,0,0,1,2,.84l-.78,1a1.8,1.8,0,0,0-1.29-.63,1.27,1.27,0,0,0-1.05.55,2.36,2.36,0,0,0-.41,1.46v0a2.34,2.34,0,0,0,.42,1.47,1.29,1.29,0,0,0,1.06.55,1.88,1.88,0,0,0,1.3-.66l.78.93a3.45,3.45,0,0,1-1,.71A2.7,2.7,0,0,1,466.48,52.79Z"/><path class="cls-10" d="M471.52,52.7V46.4h4.06v1.2h-2.75V49h2.42v1.2h-2.42V52.7Z"/><path class="cls-10" d="M479.13,52.81a2.62,2.62,0,0,1-2.05-.89,3.34,3.34,0,0,1-.79-2.3v-.11a3.35,3.35,0,0,1,.8-2.31,2.8,2.8,0,0,1,4.1,0,3.34,3.34,0,0,1,.79,2.3v.11a3.35,3.35,0,0,1-.8,2.31A2.62,2.62,0,0,1,479.13,52.81ZM478,51.05a1.31,1.31,0,0,0,1.09.55,1.29,1.29,0,0,0,1.08-.55,2.38,2.38,0,0,0,.41-1.47v-.06a2.38,2.38,0,0,0-.42-1.47,1.34,1.34,0,0,0-2.17,0,2.36,2.36,0,0,0-.42,1.47v.06A2.36,2.36,0,0,0,478,51.05Z"/><path class="cls-10" d="M483,52.7V46.4h1.3v5.1h2.55v1.2Z"/><path class="cls-10" d="M487.74,52.7V46.4h4.06v1.2H489V49h2.42v1.2H489V52.7Z"/><path class="cls-10" d="M495.34,52.81a2.62,2.62,0,0,1-2.05-.89,3.34,3.34,0,0,1-.79-2.3v-.11a3.35,3.35,0,0,1,.8-2.31,2.8,2.8,0,0,1,4.1,0,3.34,3.34,0,0,1,.79,2.3v.11a3.35,3.35,0,0,1-.8,2.31A2.62,2.62,0,0,1,495.34,52.81Zm-1.08-1.76a1.31,1.31,0,0,0,1.09.55,1.29,1.29,0,0,0,1.08-.55,2.38,2.38,0,0,0,.41-1.47v-.06a2.38,2.38,0,0,0-.42-1.47,1.34,1.34,0,0,0-2.17,0,2.36,2.36,0,0,0-.42,1.47v.06A2.36,2.36,0,0,0,494.26,51.05Z"/><path class="cls-10" d="M502.54,46.4H504l-1.8,3.08,1.87,3.22h-1.49l-1.15-2.16-1.16,2.16h-1.45l1.86-3.2-1.78-3.1h1.49l1.07,2Z"/><path class="cls-10" d="M508,52.79a1.37,1.37,0,0,1-1.43-1.47v-.05a1.43,1.43,0,0,1,.45-1.15,1.84,1.84,0,0,1,1.23-.39,2.75,2.75,0,0,1,1,.2v-.14a.81.81,0,0,0-.24-.63,1,1,0,0,0-.67-.22,2.93,2.93,0,0,0-1.11.27l-.35-1a3.63,3.63,0,0,1,1.65-.39,1.74,1.74,0,0,1,2,2V52.7h-1.25v-.52A1.49,1.49,0,0,1,508,52.79Zm.42-.94a.87.87,0,0,0,.61-.2.68.68,0,0,0,.24-.54v-.41a1.65,1.65,0,0,0-.71-.15.83.83,0,0,0-.56.18.63.63,0,0,0-.2.5v0a.57.57,0,0,0,.17.44A.68.68,0,0,0,508.41,51.86Z"/><path class="cls-10" d="M511.52,52.7v-6.5h1.28v6.5Z"/><path class="cls-10" d="M517.58,52.11a2.25,2.25,0,0,1-3.25,0,2.49,2.49,0,0,1-.64-1.76v-.1a2.49,2.49,0,0,1,.65-1.77,2.25,2.25,0,0,1,3.25,0,2.5,2.5,0,0,1,.64,1.77v.1A2.51,2.51,0,0,1,517.58,52.11ZM516,51.7a.85.85,0,0,0,.73-.38,1.67,1.67,0,0,0,.27-1v-.06a1.66,1.66,0,0,0-.28-1,.89.89,0,0,0-1.47,0,1.67,1.67,0,0,0-.27,1v.06a1.63,1.63,0,0,0,.28,1A.87.87,0,0,0,516,51.7Z"/><path class="cls-10" d="M519.07,52.7V47.88h1.28v.65a1.52,1.52,0,0,1,1.24-.74,1.31,1.31,0,0,1,1,.44,1.76,1.76,0,0,1,.38,1.19V52.7h-1.28V49.8q0-.85-.68-.85a.64.64,0,0,0-.51.22,1,1,0,0,0-.19.63V52.7Z"/><path class="cls-10" d="M526.06,52.81a2.13,2.13,0,0,1-1.62-.68,2.49,2.49,0,0,1-.64-1.79v-.08a2.63,2.63,0,0,1,.6-1.77,1.9,1.9,0,0,1,1.51-.7,1.78,1.78,0,0,1,1.52.72,3,3,0,0,1,.53,1.85c0,.15,0,.29,0,.41h-2.88a1.23,1.23,0,0,0,.36.72,1,1,0,0,0,.69.25,1.46,1.46,0,0,0,1-.48l.66.77A2.23,2.23,0,0,1,526.06,52.81Zm-1-2.89h1.67a1.55,1.55,0,0,0-.26-.79.66.66,0,0,0-.56-.29.69.69,0,0,0-.57.28A1.55,1.55,0,0,0,525.06,49.92Z"/><rect class="cls-9" x="405.13" y="73.98" width="135.88" height="28.8"/><path class="cls-8" d="M414.35,86l-1.8-6.34h1.38L415,83.76l1.15-4.17h1.13l1.16,4.17,1.05-4.15h1.35L419,86h-1.2l-1.15-4-1.15,4Z"/><path class="cls-8" d="M422.88,85.91V80.82h-1.58V79.61h4.46v1.21h-1.58v5.09Z"/><path class="cls-8" d="M431.32,85.91l-.76-2h-.67l-.47,2h-1.37l1.54-6.3h1.81a2.51,2.51,0,0,1,1.84.59,1.79,1.79,0,0,1,.49,1.3,2.18,2.18,0,0,1-.58,1.58l-.24.23a2.23,2.23,0,0,1-.34.22,2.67,2.67,0,0,1-.57.23l.86,2.15Zm-1.11-3.19h.73a1.48,1.48,0,0,0,1.07-.35,1.08,1.08,0,0,0,.29-.77.7.7,0,0,0-.21-.53,1.07,1.07,0,0,0-.78-.22h-.67Z"/><path class="cls-8" d="M433.18,85.91,437,79.57h1.32l.67,6.35h-1.39l-.11-1.41h-2l-.78,1.41Zm3-2.62h1.13l-.1-2.06Z"/><path class="cls-8" d="M441.78,86a2.74,2.74,0,0,1-2.32-1.15l1-.88a2,2,0,0,0,1.37.83.67.67,0,0,0,.47-.16.52.52,0,0,0,.18-.41.62.62,0,0,0-.17-.4,4,4,0,0,0-.64-.54,4.24,4.24,0,0,1-.9-.86,1.5,1.5,0,0,1-.3-.9,1.88,1.88,0,0,1,.54-1.36,2.15,2.15,0,0,1,1.58-.64,2.74,2.74,0,0,1,2.07.94l-.94.94a1.73,1.73,0,0,0-1.18-.67.64.64,0,0,0-.46.16.52.52,0,0,0-.17.39.62.62,0,0,0,.16.4,3.72,3.72,0,0,0,.64.54,4.12,4.12,0,0,1,.9.85,1.55,1.55,0,0,1,.31.94,1.89,1.89,0,0,1-.57,1.39A2.15,2.15,0,0,1,441.78,86Z"/><path class="cls-8" d="M447,85.91V81.09h1.28v.65A1.51,1.51,0,0,1,449.5,81a1.25,1.25,0,0,1,1.19.7,1.74,1.74,0,0,1,1.37-.7,1.36,1.36,0,0,1,1,.42,1.71,1.71,0,0,1,.39,1.2v3.29h-1.27V83q0-.85-.67-.85a.62.62,0,0,0-.5.22,1,1,0,0,0-.18.63v2.91h-1.28V83q0-.85-.66-.85a.61.61,0,0,0-.5.22,1,1,0,0,0-.18.63v2.91Z"/><path class="cls-8" d="M457.16,86a2.53,2.53,0,0,1-2-.88,3.4,3.4,0,0,1-.77-2.32v-.08a3.33,3.33,0,0,1,.8-2.31,2.63,2.63,0,0,1,2.05-.89,2.72,2.72,0,0,1,2,.84l-.78,1a1.8,1.8,0,0,0-1.29-.63,1.27,1.27,0,0,0-1.05.55,2.36,2.36,0,0,0-.41,1.46v0a2.34,2.34,0,0,0,.42,1.47,1.29,1.29,0,0,0,1.06.55,1.88,1.88,0,0,0,1.3-.66l.78.93a3.44,3.44,0,0,1-1,.71A2.7,2.7,0,0,1,457.16,86Z"/><path class="cls-8" d="M460.18,85.91v-6.3h2.37a2.31,2.31,0,0,1,1.71.6,2,2,0,0,1,.53,1.46v0a1.86,1.86,0,0,1-1.17,1.86L465,85.91h-1.49l-1.16-2.07h-.82v2.07Zm1.31-3.22h1a1.05,1.05,0,0,0,.76-.26.91.91,0,0,0,.27-.69h0a.88.88,0,0,0-.27-.71,1.15,1.15,0,0,0-.78-.24h-.94Z"/><path class="cls-8" d="M468.37,86a2.53,2.53,0,0,1-2-.88,3.4,3.4,0,0,1-.77-2.32v-.08a3.33,3.33,0,0,1,.8-2.31,2.63,2.63,0,0,1,2.05-.89,2.72,2.72,0,0,1,2,.84l-.78,1a1.8,1.8,0,0,0-1.29-.63,1.27,1.27,0,0,0-1.05.55,2.36,2.36,0,0,0-.41,1.46v0a2.34,2.34,0,0,0,.42,1.47,1.29,1.29,0,0,0,1.06.55,1.88,1.88,0,0,0,1.3-.66l.78.93a3.44,3.44,0,0,1-1,.71A2.7,2.7,0,0,1,468.37,86Z"/><path class="cls-8" d="M473.41,85.91v-6.3h4.06v1.2h-2.75v1.41h2.42v1.2h-2.42v2.49Z"/><path class="cls-8" d="M481,86a2.62,2.62,0,0,1-2.05-.89,3.34,3.34,0,0,1-.79-2.3v-.11a3.35,3.35,0,0,1,.8-2.31,2.8,2.8,0,0,1,4.1,0,3.34,3.34,0,0,1,.79,2.3v.11a3.35,3.35,0,0,1-.8,2.31A2.62,2.62,0,0,1,481,86Zm-1.08-1.76a1.31,1.31,0,0,0,1.09.55,1.29,1.29,0,0,0,1.08-.55,2.38,2.38,0,0,0,.41-1.47v-.06a2.38,2.38,0,0,0-.42-1.47,1.34,1.34,0,0,0-2.17,0,2.36,2.36,0,0,0-.42,1.47v.06A2.36,2.36,0,0,0,479.94,84.26Z"/><path class="cls-8" d="M484.9,85.91v-6.3h1.31v5.1h2.55v1.2Z"/><path class="cls-8" d="M489.63,85.91v-6.3h4.06v1.2h-2.75v1.41h2.42v1.2h-2.42v2.49Z"/><path class="cls-8" d="M497.23,86a2.62,2.62,0,0,1-2.05-.89,3.34,3.34,0,0,1-.79-2.3v-.11a3.35,3.35,0,0,1,.8-2.31,2.8,2.8,0,0,1,4.1,0,3.34,3.34,0,0,1,.79,2.3v.11a3.35,3.35,0,0,1-.8,2.31A2.62,2.62,0,0,1,497.23,86Zm-1.08-1.76a1.31,1.31,0,0,0,1.09.55,1.29,1.29,0,0,0,1.08-.55,2.38,2.38,0,0,0,.41-1.47v-.06a2.38,2.38,0,0,0-.42-1.47,1.34,1.34,0,0,0-2.17,0,2.36,2.36,0,0,0-.42,1.47v.06A2.36,2.36,0,0,0,496.15,84.26Z"/><path class="cls-8" d="M504.43,79.61h1.45l-1.8,3.08L506,85.91h-1.48l-1.15-2.16-1.16,2.16h-1.45l1.86-3.2-1.78-3.1h1.49l1.07,2Z"/><path class="cls-8" d="M414,97a1.37,1.37,0,0,1-1.43-1.47v-.05a1.43,1.43,0,0,1,.45-1.15,1.83,1.83,0,0,1,1.23-.39,2.74,2.74,0,0,1,1,.2V94a.81.81,0,0,0-.24-.63,1,1,0,0,0-.67-.22,2.93,2.93,0,0,0-1.11.27l-.35-1a3.64,3.64,0,0,1,1.65-.39,1.74,1.74,0,0,1,2,2v2.92H415.3v-.52A1.5,1.5,0,0,1,414,97Zm.42-.94a.87.87,0,0,0,.61-.2.68.68,0,0,0,.24-.54v-.41a1.65,1.65,0,0,0-.71-.15.83.83,0,0,0-.56.18.63.63,0,0,0-.2.5v0a.57.57,0,0,0,.17.44A.67.67,0,0,0,414.47,96.07Z"/><path class="cls-8" d="M417.58,96.91v-6.5h1.28v6.5Z"/><path class="cls-8" d="M423.64,96.33a2.25,2.25,0,0,1-3.25,0,2.49,2.49,0,0,1-.64-1.76v-.1a2.5,2.5,0,0,1,.65-1.77,2.25,2.25,0,0,1,3.25,0,2.5,2.5,0,0,1,.64,1.77v.1A2.5,2.5,0,0,1,423.64,96.33ZM422,95.92a.85.85,0,0,0,.73-.38,1.67,1.67,0,0,0,.27-1v-.06a1.65,1.65,0,0,0-.28-1,.89.89,0,0,0-1.47,0,1.67,1.67,0,0,0-.27,1v.06a1.64,1.64,0,0,0,.28,1A.87.87,0,0,0,422,95.92Z"/><path class="cls-8" d="M425.13,96.91V92.09h1.28v.65a1.52,1.52,0,0,1,1.24-.74,1.31,1.31,0,0,1,1,.44,1.76,1.76,0,0,1,.38,1.19v3.29h-1.28V94q0-.85-.68-.85a.64.64,0,0,0-.51.22,1,1,0,0,0-.19.63v2.91Z"/><path class="cls-8" d="M432.12,97a2.13,2.13,0,0,1-1.62-.68,2.49,2.49,0,0,1-.64-1.79v-.08a2.64,2.64,0,0,1,.6-1.77A1.9,1.9,0,0,1,432,92a1.78,1.78,0,0,1,1.52.72,3,3,0,0,1,.53,1.85q0,.22,0,.41h-2.88a1.22,1.22,0,0,0,.36.72,1,1,0,0,0,.69.25,1.46,1.46,0,0,0,1-.48l.66.77A2.23,2.23,0,0,1,432.12,97Zm-1-2.89h1.67a1.56,1.56,0,0,0-.26-.79.67.67,0,0,0-.56-.29.69.69,0,0,0-.57.28A1.53,1.53,0,0,0,431.12,94.13Z"/><path class="cls-8" d="M439.18,98.17a4.33,4.33,0,0,1,0-7.68l.5.84a3.29,3.29,0,0,0-1.2,1.26,4.23,4.23,0,0,0,0,3.48,3.3,3.3,0,0,0,1.2,1.26Z"/><path class="cls-8" d="M440.49,96.91V92.09h1.28v.65A1.52,1.52,0,0,1,443,92a1.31,1.31,0,0,1,1,.44,1.76,1.76,0,0,1,.38,1.19v3.29h-1.28V94q0-.85-.68-.85a.64.64,0,0,0-.51.22,1,1,0,0,0-.19.63v2.91Z"/><path class="cls-8" d="M447.45,93.27v-1.2h4v1.2Zm0,2.15v-1.2h4v1.2Z"/><path class="cls-8" d="M454.4,96.91V95.86L456.26,94a5.49,5.49,0,0,0,.72-.84,1.2,1.2,0,0,0,.19-.64.71.71,0,0,0-.21-.55.76.76,0,0,0-.54-.2,1,1,0,0,0-.57.18,3,3,0,0,0-.58.57l-.85-.8a2.51,2.51,0,0,1,2.1-1.14,2.06,2.06,0,0,1,1.43.5,1.72,1.72,0,0,1,.55,1.34v0a2,2,0,0,1-.29,1.09,7.16,7.16,0,0,1-1,1.21l-1.05,1.07h2.4v1.17Z"/><path class="cls-8" d="M461.22,97a2.85,2.85,0,0,1-2-.8l.73-1a2,2,0,0,0,1.26.57,1,1,0,0,0,.7-.25.89.89,0,0,0,.26-.68h0a.81.81,0,0,0-.28-.65,1.1,1.1,0,0,0-.73-.24,2.15,2.15,0,0,0-.86.2l-.73-.48.18-3.1h3.45v1.17H460.8l-.07,1.14a2.75,2.75,0,0,1,.7-.09,2.09,2.09,0,0,1,1.44.5,1.89,1.89,0,0,1,.56,1.49v0a2.09,2.09,0,0,1-.61,1.58A2.22,2.22,0,0,1,461.22,97Z"/><path class="cls-8" d="M466.16,97a2.71,2.71,0,0,1-2.08-.88l.78-.92a1.72,1.72,0,0,0,1.27.61.89.89,0,0,0,.63-.23A.77.77,0,0,0,467,95v0a.72.72,0,0,0-.33-.63,1.64,1.64,0,0,0-.93-.23h-.38l-.15-.83,1.39-1.54h-2.19V90.61h3.79v1l-1.48,1.55a2.16,2.16,0,0,1,1.13.57,1.59,1.59,0,0,1,.44,1.19v0a2,2,0,0,1-.59,1.48A2.13,2.13,0,0,1,466.16,97Z"/><path class="cls-8" d="M469.51,98.17l-.5-.84a3.31,3.31,0,0,0,1.2-1.26,4.23,4.23,0,0,0,0-3.48,3.3,3.3,0,0,0-1.2-1.26l.5-.84a4.33,4.33,0,0,1,0,7.68Z"/><rect class="cls-11" x="405.13" y="114.23" width="135.88" height="28.8"/><path class="cls-10" d="M413,126.32V120h1.37l1.4,2.56,1.39-2.56h1.38v6.3h-1.28v-4l-1.49,2.6h0l-1.48-2.58v4Z"/><path class="cls-10" d="M420.9,126.32v-5.09h-1.58V120h4.46v1.21h-1.58v5.09Z"/><path class="cls-10" d="M429.16,126.32l-.76-2h-.67l-.47,2h-1.37l1.54-6.3h1.81a2.51,2.51,0,0,1,1.84.59,1.79,1.79,0,0,1,.49,1.3,2.18,2.18,0,0,1-.58,1.58l-.24.23a2.23,2.23,0,0,1-.34.22,2.67,2.67,0,0,1-.57.23l.86,2.15Zm-1.11-3.2h.73a1.48,1.48,0,0,0,1.07-.35,1.08,1.08,0,0,0,.29-.77.7.7,0,0,0-.21-.53,1.07,1.07,0,0,0-.78-.22h-.67Z"/><path class="cls-10" d="M430.93,126.32,434.7,120H436l.67,6.35h-1.39l-.11-1.41h-2l-.78,1.41Zm3-2.62h1.13l-.1-2.06Z"/><path class="cls-10" d="M439.44,126.41a2.74,2.74,0,0,1-2.32-1.15l1-.88a2,2,0,0,0,1.37.83A.67.67,0,0,0,440,125a.52.52,0,0,0,.18-.41.63.63,0,0,0-.17-.4,3.92,3.92,0,0,0-.64-.54,4.24,4.24,0,0,1-.9-.86,1.51,1.51,0,0,1-.3-.9,1.88,1.88,0,0,1,.54-1.36,2.15,2.15,0,0,1,1.58-.64,2.74,2.74,0,0,1,2.07.94l-.94.94a1.73,1.73,0,0,0-1.18-.67.63.63,0,0,0-.46.16.52.52,0,0,0-.17.39.62.62,0,0,0,.16.4,3.8,3.8,0,0,0,.64.54,4.13,4.13,0,0,1,.9.85,1.55,1.55,0,0,1,.31.94,1.88,1.88,0,0,1-.57,1.39A2.16,2.16,0,0,1,439.44,126.41Z"/><path class="cls-10" d="M444.45,126.32v-4.82h1.28v.65a1.51,1.51,0,0,1,1.25-.74,1.25,1.25,0,0,1,1.19.7,1.74,1.74,0,0,1,1.37-.7,1.35,1.35,0,0,1,1,.42A1.71,1.71,0,0,1,451,123v3.29H449.7v-2.91q0-.85-.67-.85a.61.61,0,0,0-.5.22,1,1,0,0,0-.18.63v2.91h-1.28v-2.91q0-.85-.66-.85a.61.61,0,0,0-.5.22,1,1,0,0,0-.18.63v2.91Z"/><path class="cls-10" d="M454.55,126.41a2.53,2.53,0,0,1-2-.88,3.4,3.4,0,0,1-.77-2.32v-.08a3.33,3.33,0,0,1,.8-2.31,2.63,2.63,0,0,1,2.05-.89,2.72,2.72,0,0,1,2,.84l-.78,1a1.8,1.8,0,0,0-1.29-.63,1.27,1.27,0,0,0-1.05.55,2.36,2.36,0,0,0-.41,1.46v0a2.34,2.34,0,0,0,.42,1.47,1.29,1.29,0,0,0,1.06.55,1.88,1.88,0,0,0,1.3-.66l.78.93a3.43,3.43,0,0,1-1,.71A2.7,2.7,0,0,1,454.55,126.41Z"/><path class="cls-10" d="M457.48,126.32V120h2.37a2.31,2.31,0,0,1,1.71.6,2,2,0,0,1,.53,1.46v0a1.86,1.86,0,0,1-1.17,1.86l1.34,2.34h-1.49l-1.16-2.07h-.82v2.07Zm1.31-3.22h1a1.05,1.05,0,0,0,.76-.26.91.91,0,0,0,.27-.69h0a.88.88,0,0,0-.27-.71,1.15,1.15,0,0,0-.78-.24h-.94Z"/><path class="cls-10" d="M465.58,126.41a2.53,2.53,0,0,1-2-.88,3.4,3.4,0,0,1-.77-2.32v-.08a3.33,3.33,0,0,1,.8-2.31,2.63,2.63,0,0,1,2.05-.89,2.72,2.72,0,0,1,2,.84l-.78,1a1.8,1.8,0,0,0-1.29-.63,1.27,1.27,0,0,0-1.05.55,2.36,2.36,0,0,0-.41,1.46v0a2.34,2.34,0,0,0,.42,1.47,1.29,1.29,0,0,0,1.06.55,1.88,1.88,0,0,0,1.3-.66l.78.93a3.43,3.43,0,0,1-1,.71A2.7,2.7,0,0,1,465.58,126.41Z"/><path class="cls-10" d="M472.09,126.35,470,120h1.41l1.33,4.34L474,120h1.38l-2.12,6.34Z"/><path class="cls-10" d="M478.06,126.42a2.13,2.13,0,0,1-1.62-.68,2.49,2.49,0,0,1-.64-1.79v-.08a2.63,2.63,0,0,1,.6-1.77,1.9,1.9,0,0,1,1.51-.7,1.78,1.78,0,0,1,1.52.72A3,3,0,0,1,480,124c0,.15,0,.29,0,.41h-2.88a1.23,1.23,0,0,0,.36.72,1,1,0,0,0,.69.25,1.46,1.46,0,0,0,1-.48l.66.77A2.23,2.23,0,0,1,478.06,126.42Zm-1-2.89h1.67a1.55,1.55,0,0,0-.26-.79.66.66,0,0,0-.56-.29.69.69,0,0,0-.57.28A1.55,1.55,0,0,0,477.06,123.53Z"/><path class="cls-10" d="M482.7,126.42a2,2,0,0,1-1.57-.69,2.54,2.54,0,0,1-.62-1.76v-.11a2.55,2.55,0,0,1,.63-1.77,2.06,2.06,0,0,1,1.61-.7,2.14,2.14,0,0,1,1.58.65l-.69.93a1.2,1.2,0,0,0-.86-.43.84.84,0,0,0-.71.37,1.61,1.61,0,0,0-.27,1v0a1.65,1.65,0,0,0,.27,1,.86.86,0,0,0,.74.37,1.22,1.22,0,0,0,.87-.44l.67.85A2.12,2.12,0,0,1,482.7,126.42Z"/><path class="cls-10" d="M486.44,126.4a1.39,1.39,0,0,1-.94-.29,1.26,1.26,0,0,1-.34-1v-2.54h-.49v-1.08h.49v-1.23h1.28v1.23h1v1.08h-1v2.28q0,.41.4.41a1.22,1.22,0,0,0,.55-.13v1A1.88,1.88,0,0,1,486.44,126.4Z"/><path class="cls-10" d="M488.16,121v-1.16h1.33V121Zm0,5.34v-4.82h1.28v4.82Z"/><path class="cls-10" d="M494.34,125.78a1.64,1.64,0,0,1-1.3.63,1.58,1.58,0,0,1-1.3-.71v.62h-1.28v-6.5h1.28v2.34a1.54,1.54,0,0,1,1.3-.76,1.64,1.64,0,0,1,1.3.63,2.72,2.72,0,0,1,.53,1.8V124A2.72,2.72,0,0,1,494.34,125.78Zm-2.36-.86a.81.81,0,0,0,.67.37.8.8,0,0,0,.67-.37,1.63,1.63,0,0,0,.26-1v-.09a1.63,1.63,0,0,0-.26-1,.8.8,0,0,0-.67-.37.81.81,0,0,0-.67.37,1.6,1.6,0,0,0-.27,1v.09A1.6,1.6,0,0,0,492,124.92Z"/><path class="cls-10" d="M495.66,121v-1.16H497V121Zm0,5.34v-4.82H497v4.82Z"/><path class="cls-10" d="M499,121.49l.76,1.41.77-1.41h1.32l-1.4,2.35,1.45,2.48h-1.36l-.8-1.5-.81,1.5H497.6l1.44-2.46-1.39-2.37Z"/><path class="cls-10" d="M504.59,122.63a1.33,1.33,0,0,1-1,.45,1.34,1.34,0,0,1-1-.45,1.57,1.57,0,0,1-.41-1.11v-.05a1.58,1.58,0,0,1,.41-1.12,1.39,1.39,0,0,1,2.05,0,1.58,1.58,0,0,1,.41,1.12v0A1.59,1.59,0,0,1,504.59,122.63Zm-1.92-.12a1.21,1.21,0,0,0,1.79,0,1.43,1.43,0,0,0,.36-1v0a1.43,1.43,0,0,0-.36-1,1.21,1.21,0,0,0-1.79,0,1.43,1.43,0,0,0-.36,1v.05A1.41,1.41,0,0,0,502.67,122.51Zm.28-.2v-1.67h.67q.66,0,.66.55h0a.5.5,0,0,1-.32.5l.36.61h-.48l-.31-.52h-.16v.52Zm.42-.87h.22q.25,0,.25-.22t-.25-.22h-.22Z"/><path class="cls-10" d="M508.92,125.2v-1.47h-1.45v-1.17h1.45V121.1h1.2v1.47h1.45v1.17h-1.45v1.47Z"/><path class="cls-10" d="M413,137.32V131H417v1.2h-2.75v1.41h2.42v1.2h-2.42v2.49Z"/><path class="cls-10" d="M420.5,137.42a2.62,2.62,0,0,1-2.05-.89,3.34,3.34,0,0,1-.79-2.3v-.11a3.35,3.35,0,0,1,.8-2.31,2.8,2.8,0,0,1,4.1,0,3.34,3.34,0,0,1,.79,2.3v.11a3.35,3.35,0,0,1-.8,2.31A2.62,2.62,0,0,1,420.5,137.42Zm-1.08-1.76a1.31,1.31,0,0,0,1.09.55,1.29,1.29,0,0,0,1.08-.55,2.38,2.38,0,0,0,.41-1.47v-.06a2.38,2.38,0,0,0-.42-1.47,1.34,1.34,0,0,0-2.17,0,2.37,2.37,0,0,0-.42,1.47v.06A2.36,2.36,0,0,0,419.42,135.66Z"/><path class="cls-10" d="M424.3,137.32V131h1.31v5.1h2.55v1.2Z"/><path class="cls-10" d="M428.93,137.32V131H433v1.2h-2.75v1.41h2.42v1.2h-2.42v2.49Z"/><path class="cls-10" d="M436.45,137.42a2.62,2.62,0,0,1-2.05-.89,3.34,3.34,0,0,1-.79-2.3v-.11a3.35,3.35,0,0,1,.8-2.31,2.8,2.8,0,0,1,4.1,0,3.34,3.34,0,0,1,.79,2.3v.11a3.35,3.35,0,0,1-.8,2.31A2.62,2.62,0,0,1,436.45,137.42Zm-1.08-1.76a1.31,1.31,0,0,0,1.09.55,1.29,1.29,0,0,0,1.08-.55,2.37,2.37,0,0,0,.41-1.47v-.06a2.38,2.38,0,0,0-.42-1.47,1.34,1.34,0,0,0-2.17,0,2.36,2.36,0,0,0-.42,1.47v.06A2.36,2.36,0,0,0,435.37,135.66Z"/><path class="cls-10" d="M443.56,131H445l-1.8,3.08,1.87,3.22h-1.49l-1.15-2.16-1.16,2.16h-1.45l1.86-3.2-1.78-3.1h1.49l1.07,2Z"/><rect class="cls-9" x="405.13" y="154.44" width="135.88" height="28.8"/><path class="cls-8" d="M414.35,166.41l-1.8-6.34h1.38l1.06,4.15,1.15-4.17h1.13l1.16,4.17,1.05-4.15h1.35l-1.8,6.34h-1.2l-1.15-4-1.15,4Z"/><path class="cls-8" d="M422.7,166.37v-5.09h-1.58v-1.21h4.46v1.21H424v5.09Z"/><path class="cls-8" d="M430.78,166.37l-.76-2h-.67l-.47,2h-1.37l1.54-6.3h1.81a2.5,2.5,0,0,1,1.84.59,1.79,1.79,0,0,1,.49,1.3,2.18,2.18,0,0,1-.58,1.58l-.24.23a2.24,2.24,0,0,1-.34.22,2.62,2.62,0,0,1-.57.23l.86,2.15Zm-1.11-3.2h.73a1.48,1.48,0,0,0,1.07-.35,1.08,1.08,0,0,0,.29-.77.7.7,0,0,0-.21-.53,1.07,1.07,0,0,0-.78-.22h-.67Z"/><path class="cls-8" d="M432.46,166.37l3.77-6.35h1.32l.67,6.35h-1.4l-.11-1.41h-2l-.78,1.41Zm3-2.62h1.13l-.1-2.06Z"/><path class="cls-8" d="M440.88,166.46a2.74,2.74,0,0,1-2.32-1.15l1-.88a2,2,0,0,0,1.37.83.67.67,0,0,0,.47-.16.52.52,0,0,0,.18-.41.63.63,0,0,0-.17-.4,3.92,3.92,0,0,0-.64-.54,4.27,4.27,0,0,1-.9-.86,1.51,1.51,0,0,1-.3-.91,1.88,1.88,0,0,1,.54-1.36,2.15,2.15,0,0,1,1.58-.64,2.74,2.74,0,0,1,2.07.94l-.94.94a1.73,1.73,0,0,0-1.18-.67.64.64,0,0,0-.46.16.52.52,0,0,0-.17.39.62.62,0,0,0,.16.4,3.8,3.8,0,0,0,.64.54,4.14,4.14,0,0,1,.9.85,1.55,1.55,0,0,1,.31.95,1.88,1.88,0,0,1-.57,1.39A2.16,2.16,0,0,1,440.88,166.46Z"/><path class="cls-8" d="M445.71,166.37v-4.82H447v.65a1.51,1.51,0,0,1,1.25-.74,1.24,1.24,0,0,1,1.19.7,1.74,1.74,0,0,1,1.37-.7,1.35,1.35,0,0,1,1,.42,1.71,1.71,0,0,1,.39,1.2v3.29H451v-2.91q0-.86-.67-.86a.62.62,0,0,0-.5.22,1,1,0,0,0-.18.63v2.91h-1.28v-2.91q0-.86-.66-.86a.62.62,0,0,0-.5.22,1,1,0,0,0-.18.63v2.91Z"/><path class="cls-8" d="M455.72,166.46a2.54,2.54,0,0,1-2-.88,3.4,3.4,0,0,1-.76-2.32v-.08a3.33,3.33,0,0,1,.8-2.31,2.63,2.63,0,0,1,2.05-.89,2.72,2.72,0,0,1,2,.84l-.78,1a1.8,1.8,0,0,0-1.29-.63,1.27,1.27,0,0,0-1.05.55,2.36,2.36,0,0,0-.41,1.46v0a2.34,2.34,0,0,0,.42,1.47,1.29,1.29,0,0,0,1.06.55,1.88,1.88,0,0,0,1.3-.66l.78.93a3.45,3.45,0,0,1-1,.71A2.71,2.71,0,0,1,455.72,166.46Z"/><path class="cls-8" d="M458.56,166.37v-6.3h2.37a2.31,2.31,0,0,1,1.71.6,2,2,0,0,1,.53,1.46v0A1.87,1.87,0,0,1,462,164l1.34,2.34h-1.49l-1.16-2.07h-.82v2.07Zm1.31-3.22h1a1.05,1.05,0,0,0,.76-.26.91.91,0,0,0,.27-.69h0a.88.88,0,0,0-.27-.71,1.15,1.15,0,0,0-.78-.24h-.94Z"/><path class="cls-8" d="M466.57,166.46a2.54,2.54,0,0,1-2-.88,3.4,3.4,0,0,1-.76-2.32v-.08a3.33,3.33,0,0,1,.8-2.31,2.63,2.63,0,0,1,2.05-.89,2.72,2.72,0,0,1,2,.84l-.78,1a1.8,1.8,0,0,0-1.29-.63,1.27,1.27,0,0,0-1.05.55,2.36,2.36,0,0,0-.41,1.46v0a2.34,2.34,0,0,0,.42,1.47,1.29,1.29,0,0,0,1.06.55,1.88,1.88,0,0,0,1.3-.66l.78.93a3.45,3.45,0,0,1-1,.71A2.71,2.71,0,0,1,466.57,166.46Z"/><path class="cls-8" d="M472.9,166.41l-2.12-6.34h1.41l1.33,4.34,1.33-4.34h1.38l-2.12,6.34Z"/><path class="cls-8" d="M478.78,166.48a2.13,2.13,0,0,1-1.62-.68,2.49,2.49,0,0,1-.64-1.79v-.08a2.64,2.64,0,0,1,.6-1.77,1.9,1.9,0,0,1,1.51-.7,1.78,1.78,0,0,1,1.52.71,3,3,0,0,1,.53,1.85c0,.15,0,.29,0,.41h-2.88a1.22,1.22,0,0,0,.36.72,1,1,0,0,0,.69.25,1.46,1.46,0,0,0,1-.48l.66.77A2.23,2.23,0,0,1,478.78,166.48Zm-1-2.89h1.67a1.56,1.56,0,0,0-.26-.79.66.66,0,0,0-.56-.29.69.69,0,0,0-.57.28A1.54,1.54,0,0,0,477.78,163.59Z"/><path class="cls-8" d="M483.33,166.48a2,2,0,0,1-1.57-.69,2.54,2.54,0,0,1-.62-1.76v-.11a2.55,2.55,0,0,1,.63-1.77,2.06,2.06,0,0,1,1.61-.7,2.14,2.14,0,0,1,1.57.65l-.69.93a1.2,1.2,0,0,0-.86-.43.84.84,0,0,0-.71.37,1.61,1.61,0,0,0-.27,1v0a1.64,1.64,0,0,0,.27,1,.86.86,0,0,0,.74.37,1.22,1.22,0,0,0,.87-.44l.67.85A2.12,2.12,0,0,1,483.33,166.48Z"/><path class="cls-8" d="M487,166.45a1.39,1.39,0,0,1-.94-.29,1.26,1.26,0,0,1-.34-1v-2.54h-.49v-1.08h.49v-1.23H487v1.23h1v1.08h-1v2.28q0,.41.4.41a1.22,1.22,0,0,0,.55-.13v1A1.88,1.88,0,0,1,487,166.45Z"/><path class="cls-8" d="M488.61,161v-1.16h1.33V161Zm0,5.34v-4.82h1.28v4.82Z"/><path class="cls-8" d="M494.7,165.83a1.64,1.64,0,0,1-1.3.63,1.58,1.58,0,0,1-1.3-.71v.62h-1.28v-6.5h1.28v2.34a1.54,1.54,0,0,1,1.3-.76,1.64,1.64,0,0,1,1.3.63,2.71,2.71,0,0,1,.53,1.8V164A2.72,2.72,0,0,1,494.7,165.83Zm-2.36-.86a.81.81,0,0,0,.67.37.8.8,0,0,0,.67-.37,1.63,1.63,0,0,0,.26-1v-.09a1.63,1.63,0,0,0-.26-1,.8.8,0,0,0-.67-.37.81.81,0,0,0-.67.37,1.61,1.61,0,0,0-.27,1V164A1.6,1.6,0,0,0,492.35,165Z"/><path class="cls-8" d="M495.93,161v-1.16h1.33V161Zm0,5.34v-4.82h1.28v4.82Z"/><path class="cls-8" d="M499.19,161.55l.76,1.41.76-1.41H502l-1.39,2.35,1.45,2.48h-1.36l-.8-1.5-.81,1.5h-1.33l1.44-2.46-1.39-2.37Z"/><path class="cls-8" d="M504.68,162.69a1.33,1.33,0,0,1-1,.45,1.35,1.35,0,0,1-1-.45,1.57,1.57,0,0,1-.41-1.11v-.05a1.58,1.58,0,0,1,.41-1.12,1.39,1.39,0,0,1,2.05,0,1.58,1.58,0,0,1,.41,1.12v0A1.59,1.59,0,0,1,504.68,162.69Zm-1.92-.12a1.21,1.21,0,0,0,1.79,0,1.44,1.44,0,0,0,.36-1v0a1.43,1.43,0,0,0-.36-1,1.21,1.21,0,0,0-1.79,0,1.43,1.43,0,0,0-.36,1v.05A1.41,1.41,0,0,0,502.76,162.56Zm.28-.2v-1.67h.67q.66,0,.66.55h0a.5.5,0,0,1-.32.5l.36.61h-.48l-.31-.52h-.16v.52Zm.42-.87h.22q.25,0,.25-.22c0-.15-.08-.22-.25-.22h-.22Z"/><path class="cls-8" d="M508.83,165.26v-1.47h-1.45v-1.17h1.45v-1.47H510v1.47h1.45v1.17H510v1.47Z"/><path class="cls-8" d="M413,177.37v-6.3H417v1.2h-2.75v1.41h2.42v1.2h-2.42v2.49Z"/><path class="cls-8" d="M420.41,177.48a2.62,2.62,0,0,1-2.05-.89,3.34,3.34,0,0,1-.79-2.3v-.11a3.35,3.35,0,0,1,.8-2.31,2.8,2.8,0,0,1,4.1,0,3.34,3.34,0,0,1,.79,2.3v.11a3.35,3.35,0,0,1-.8,2.31A2.62,2.62,0,0,1,420.41,177.48Zm-1.08-1.76a1.31,1.31,0,0,0,1.09.55,1.29,1.29,0,0,0,1.08-.55,2.37,2.37,0,0,0,.41-1.47v-.06a2.38,2.38,0,0,0-.42-1.47,1.34,1.34,0,0,0-2.17,0,2.36,2.36,0,0,0-.42,1.47v.06A2.36,2.36,0,0,0,419.33,175.72Z"/><path class="cls-8" d="M424.12,177.37v-6.3h1.31v5.1H428v1.2Z"/><path class="cls-8" d="M428.66,177.37v-6.3h4.06v1.2H430v1.41h2.42v1.2H430v2.49Z"/><path class="cls-8" d="M436.09,177.48a2.62,2.62,0,0,1-2.05-.89,3.34,3.34,0,0,1-.79-2.3v-.11a3.35,3.35,0,0,1,.8-2.31,2.8,2.8,0,0,1,4.1,0,3.34,3.34,0,0,1,.79,2.3v.11a3.35,3.35,0,0,1-.8,2.31A2.62,2.62,0,0,1,436.09,177.48ZM435,175.72a1.31,1.31,0,0,0,1.09.55,1.29,1.29,0,0,0,1.08-.55,2.37,2.37,0,0,0,.41-1.47v-.06a2.38,2.38,0,0,0-.42-1.47,1.34,1.34,0,0,0-2.17,0,2.36,2.36,0,0,0-.42,1.47v.06A2.36,2.36,0,0,0,435,175.72Z"/><path class="cls-8" d="M443.11,171.07h1.45l-1.8,3.08,1.87,3.22h-1.48L442,175.21l-1.16,2.16h-1.45l1.86-3.2-1.78-3.1h1.49l1.07,2Z"/><path class="cls-8" d="M449.32,178.62a4.33,4.33,0,0,1,0-7.68l.5.84a3.3,3.3,0,0,0-1.2,1.26,4.24,4.24,0,0,0,0,3.48,3.31,3.31,0,0,0,1.2,1.26Z"/><path class="cls-8" d="M450.45,177.37v-4.82h1.28v.65a1.52,1.52,0,0,1,1.24-.74,1.31,1.31,0,0,1,1,.44,1.76,1.76,0,0,1,.38,1.19v3.29h-1.28v-2.91q0-.86-.68-.86a.64.64,0,0,0-.51.22,1,1,0,0,0-.19.63v2.91Z"/><path class="cls-8" d="M457.05,173.73v-1.2h4v1.2Zm0,2.15v-1.2h4v1.2Z"/><path class="cls-8" d="M463.65,177.37v-1.05l1.85-1.91a5.55,5.55,0,0,0,.71-.84,1.2,1.2,0,0,0,.19-.64.72.72,0,0,0-.21-.55.76.76,0,0,0-.54-.2,1,1,0,0,0-.57.18,3,3,0,0,0-.58.57l-.85-.8a2.52,2.52,0,0,1,2.1-1.14,2.05,2.05,0,0,1,1.43.5,1.72,1.72,0,0,1,.55,1.34v0a2,2,0,0,1-.29,1.09,7.24,7.24,0,0,1-1,1.21l-1.05,1.07h2.4v1.17Z"/><path class="cls-8" d="M470.28,177.48a2.85,2.85,0,0,1-2-.8l.73-1a2,2,0,0,0,1.26.57,1,1,0,0,0,.7-.25.89.89,0,0,0,.26-.68h0a.81.81,0,0,0-.28-.65,1.1,1.1,0,0,0-.73-.24,2.14,2.14,0,0,0-.86.2l-.73-.48.18-3.1h3.45v1.17h-2.37l-.07,1.14a2.76,2.76,0,0,1,.7-.09,2.09,2.09,0,0,1,1.44.5,1.89,1.89,0,0,1,.56,1.49v0a2.09,2.09,0,0,1-.61,1.58A2.22,2.22,0,0,1,470.28,177.48Z"/><path class="cls-8" d="M475.08,176.28a.94.94,0,0,0,.83-.42,2,2,0,0,0,.32-1,1.79,1.79,0,0,1-1.15.39,1.93,1.93,0,0,1-1.41-.53,2,2,0,0,1-.54-1.49v0a2.16,2.16,0,0,1,.61-1.58,2.28,2.28,0,0,1,3.11,0,3.38,3.38,0,0,1,.73,2.42V174a4.24,4.24,0,0,1-.66,2.54,2.16,2.16,0,0,1-1.85.9,2.77,2.77,0,0,1-1.78-.65l.63-1A1.88,1.88,0,0,0,475.08,176.28Zm.26-2.16a.86.86,0,0,0,.67-.27,1,1,0,0,0,.24-.72v0a1,1,0,0,0-.25-.73.89.89,0,0,0-.68-.27.86.86,0,0,0-.67.27,1,1,0,0,0-.24.73v0a1,1,0,0,0,.25.73A.89.89,0,0,0,475.34,174.12Z"/><path class="cls-8" d="M478.6,178.62l-.5-.84a3.31,3.31,0,0,0,1.2-1.26,4.23,4.23,0,0,0,0-3.48,3.3,3.3,0,0,0-1.2-1.26l.5-.84a4.33,4.33,0,0,1,0,7.68Z"/></g></g></svg>