<?xml version="1.0" encoding="utf-8"?>
<!-- Generator: Adobe Illustrator 21.1.0, SVG Export Plug-In . SVG Version: 6.00 Build 0)  -->
<svg version="1.1" id="Layer_1" xmlns="http://www.w3.org/2000/svg" xmlns:xlink="http://www.w3.org/1999/xlink" x="0px" y="0px"
	 viewBox="0 0 454.3 191.8" style="enable-background:new 0 0 454.3 191.8;" xml:space="preserve">
<style type="text/css">
	.st0{fill:#808285;}
	.st1{fill:none;stroke:#808285;stroke-width:1.03;stroke-miterlimit:10;}
	.st2{fill:none;stroke:#808285;stroke-width:0.53;stroke-miterlimit:10;}
	.st3{enable-background:new    ;}
	.st4{fill:#808285;stroke:#FFFFFF;stroke-miterlimit:10;}
	.st5{fill:#0093C9;}
	.st6{fill:#FFFFFF;}
</style>
<title>first-line-chart-3</title>
<g id="Layer_1-2">
	<path class="st0" d="M27.8,172.2l1.6-1.8c0.6-0.6,0.8-1,0.8-1.4c0-0.5-0.3-0.9-0.8-0.9c0,0,0,0-0.1,0c-0.5,0-0.9,0.3-1.1,0.7
		l-0.4-0.3c0.3-0.5,0.9-0.9,1.5-0.9c0.7,0,1.3,0.5,1.4,1.2c0,0,0,0.1,0,0.1l0,0c0,0.6-0.3,1-1,1.8l-1.2,1.4h2.3v0.5h-3L27.8,172.2z"
		/>
	<path class="st0" d="M31.5,172.1l0.3-0.4c0.3,0.3,0.7,0.5,1.1,0.5c0.6,0,1-0.4,1.1-0.9c0-0.1,0-0.1,0-0.2l0,0c0-0.6-0.4-1-1-1
		c0,0,0,0-0.1,0c-0.3,0-0.6,0.1-0.8,0.2l-0.3-0.2l0.1-2.4h2.4v0.5h-2l-0.1,1.6c0.2-0.1,0.5-0.2,0.8-0.2c0.8-0.1,1.5,0.5,1.5,1.3
		c0,0.1,0,0.1,0,0.2l0,0c0,0.8-0.6,1.6-1.5,1.6c0,0-0.1,0-0.1,0C32.4,172.7,31.9,172.5,31.5,172.1z"/>
	<path class="st0" d="M132.1,172l0.3-0.4c0.3,0.4,0.7,0.6,1.2,0.6c0.6,0,1-0.4,1-1l0,0c0-0.6-0.5-1-1.3-1h-0.2l-0.1-0.3l1.4-1.7
		h-2.1v-0.5h2.8v0.4l-1.4,1.7c0.8,0.1,1.4,0.5,1.4,1.4l0,0c0,0.8-0.6,1.5-1.4,1.5c0,0-0.1,0-0.1,0
		C133.1,172.6,132.5,172.4,132.1,172z"/>
	<path class="st0" d="M135.8,172.1l0.3-0.4c0.3,0.3,0.7,0.5,1.1,0.5c0.6,0,1-0.4,1.1-0.9c0-0.1,0-0.1,0-0.2l0,0c0-0.6-0.4-1-1-1
		c0,0,0,0-0.1,0c-0.3,0-0.6,0.1-0.9,0.2l-0.3-0.2l0.1-2.4h2.4v0.5h-2l-0.1,1.6c0.2-0.1,0.5-0.2,0.8-0.2c0.8-0.1,1.5,0.5,1.5,1.3
		c0,0.1,0,0.1,0,0.2l0,0c0,0.8-0.6,1.6-1.5,1.6c0,0-0.1,0-0.1,0C136.7,172.7,136.2,172.5,135.8,172.1z"/>
	<path class="st0" d="M238.6,171.5h-2.2l-0.1-0.4l2.4-3.4h0.5v3.4h0.6v0.4h-0.6v1.1h-0.5L238.6,171.5z M238.6,171.1v-2.5l-1.8,2.5
		H238.6z"/>
	<path class="st0" d="M240.4,172.1l0.3-0.4c0.3,0.3,0.7,0.5,1.1,0.5c0.6,0,1-0.4,1.1-0.9c0-0.1,0-0.1,0-0.2l0,0c0-0.6-0.4-1-1-1
		c0,0,0,0-0.1,0c-0.3,0-0.6,0.1-0.9,0.2l-0.3-0.2l0.1-2.4h2.4v0.5h-2l-0.1,1.6c0.2-0.1,0.5-0.2,0.8-0.2c0.8-0.1,1.5,0.5,1.5,1.3
		c0,0.1,0,0.1,0,0.2l0,0c0,0.8-0.6,1.6-1.5,1.6c0,0-0.1,0-0.1,0C241.3,172.7,240.7,172.5,240.4,172.1z"/>
	<path class="st0" d="M343.1,172.1l0.3-0.4c0.3,0.3,0.7,0.5,1.1,0.5c0.6,0,1-0.4,1.1-0.9c0-0.1,0-0.1,0-0.2l0,0c0-0.6-0.4-1-1-1
		c0,0,0,0-0.1,0c-0.3,0-0.6,0.1-0.9,0.2l-0.3-0.2l0.1-2.4h2.5v0.5h-2l-0.1,1.6c0.2-0.1,0.5-0.2,0.8-0.2c0.8-0.1,1.5,0.5,1.5,1.3
		c0,0.1,0,0.1,0,0.2l0,0c0,0.8-0.6,1.6-1.5,1.6c0,0-0.1,0-0.1,0C344,172.7,343.5,172.5,343.1,172.1z"/>
	<path class="st0" d="M346.8,172.1l0.3-0.4c0.3,0.3,0.7,0.5,1.1,0.5c0.6,0,1-0.4,1.1-0.9c0-0.1,0-0.1,0-0.2l0,0c0-0.6-0.4-1-1-1
		c0,0,0,0-0.1,0c-0.3,0-0.6,0.1-0.9,0.2l-0.3-0.2l0.1-2.4h2.5v0.5h-2l-0.1,1.6c0.2-0.1,0.5-0.2,0.8-0.2c0.8-0.1,1.5,0.5,1.5,1.3
		c0,0.1,0,0.1,0,0.2l0,0c0,0.8-0.6,1.6-1.5,1.6c0,0-0.1,0-0.1,0C347.7,172.7,347.2,172.5,346.8,172.1z"/>
	<path class="st0" d="M448,172.3c-0.4-0.5-0.7-1.2-0.6-1.9v-0.1c0-1.6,0.7-2.7,1.8-2.7c0.4,0,0.9,0.2,1.2,0.4l-0.3,0.4
		c-0.2-0.2-0.6-0.4-0.9-0.4c-0.8,0-1.3,0.9-1.3,2.1c0.2-0.4,0.7-0.7,1.2-0.7c0.8,0,1.5,0.6,1.5,1.4c0,0,0,0.1,0,0.1l0,0
		c0,0.9-0.6,1.6-1.5,1.6c0,0-0.1,0-0.1,0C448.7,172.7,448.3,172.6,448,172.3z M450.1,171.1L450.1,171.1c0-0.6-0.4-1-0.9-1.1
		c0,0,0,0-0.1,0c-0.6,0-1,0.4-1,1c0,0,0,0,0,0.1l0,0c0,0.6,0.4,1.1,1,1.1c0,0,0.1,0,0.1,0C449.7,172.2,450.1,171.7,450.1,171.1
		C450,171.1,450,171.1,450.1,171.1L450.1,171.1z"/>
	<path class="st0" d="M451.2,172.1l0.3-0.4c0.3,0.3,0.7,0.5,1.1,0.5c0.6,0,1-0.4,1.1-0.9c0-0.1,0-0.1,0-0.2l0,0c0-0.6-0.4-1-1-1
		c0,0,0,0-0.1,0c-0.3,0-0.6,0.1-0.9,0.2l-0.3-0.2l0.1-2.4h2.5v0.5h-2l-0.1,1.6c0.2-0.1,0.5-0.2,0.8-0.2c0.8-0.1,1.5,0.5,1.5,1.3
		c0,0.1,0,0.1,0,0.2l0,0c0,0.8-0.6,1.6-1.5,1.6c0,0-0.1,0-0.1,0C452.1,172.7,451.6,172.5,451.2,172.1z"/>
	<line class="st1" x1="31.2" y1="163" x2="448.6" y2="163"/>
	<line class="st2" x1="31.2" y1="163" x2="31.2" y2="160.7"/>
	<line class="st2" x1="83.4" y1="163" x2="83.4" y2="160.7"/>
	<line class="st2" x1="135.5" y1="163" x2="135.5" y2="160.7"/>
	<line class="st2" x1="187.7" y1="163" x2="187.7" y2="160.7"/>
	<line class="st2" x1="239.9" y1="163" x2="239.9" y2="160.7"/>
	<line class="st2" x1="292.1" y1="163" x2="292.1" y2="160.7"/>
	<line class="st2" x1="344.2" y1="163" x2="344.2" y2="160.7"/>
	<line class="st2" x1="396.4" y1="163" x2="396.4" y2="160.7"/>
	<line class="st2" x1="448.6" y1="163" x2="448.6" y2="160.7"/>
	<g class="st3">
		<path class="st0" d="M79.6,172l0.3-0.4c0.3,0.3,0.7,0.6,1.2,0.6c0.6,0,1-0.4,1-1v0c0-0.6-0.5-1-1.3-1h-0.2l-0.1-0.3l1.4-1.7h-2.1
			v-0.5h2.8v0.4l-1.4,1.7c0.8,0.1,1.4,0.5,1.4,1.4v0c0,0.9-0.7,1.5-1.5,1.5C80.5,172.7,80,172.4,79.6,172z"/>
		<path class="st0" d="M83.4,170.2L83.4,170.2c0-1.5,0.7-2.6,1.8-2.6s1.8,1,1.8,2.5v0.1c0,1.5-0.7,2.5-1.8,2.5
			C84.1,172.7,83.4,171.7,83.4,170.2z M86.4,170.2L86.4,170.2c0-1.2-0.5-2.1-1.2-2.1c-0.7,0-1.2,0.8-1.2,2v0.1c0,1.2,0.5,2,1.2,2
			S86.4,171.4,86.4,170.2z"/>
	</g>
	<g class="st3">
		<path class="st0" d="M185.7,171.5h-2.2l-0.1-0.4l2.4-3.4h0.5v3.4h0.7v0.4h-0.7v1.1h-0.5V171.5z M185.7,171.1v-2.5l-1.8,2.5H185.7z
			"/>
		<path class="st0" d="M187.5,170.2L187.5,170.2c0-1.5,0.7-2.6,1.8-2.6s1.8,1,1.8,2.5v0.1c0,1.5-0.7,2.5-1.8,2.5
			C188.2,172.7,187.5,171.7,187.5,170.2z M190.5,170.2L190.5,170.2c0-1.2-0.5-2.1-1.2-2.1c-0.7,0-1.2,0.8-1.2,2v0.1
			c0,1.2,0.5,2,1.2,2S190.5,171.4,190.5,170.2z"/>
	</g>
	<g class="st3">
		<path class="st0" d="M291.7,172.1l0.3-0.4c0.3,0.3,0.7,0.5,1.1,0.5c0.6,0,1.1-0.5,1.1-1.1v0c0-0.6-0.5-1-1.1-1
			c-0.3,0-0.6,0.1-0.9,0.2l-0.3-0.2l0.1-2.3h2.5v0.5h-2l-0.1,1.6c0.2-0.1,0.5-0.2,0.8-0.2c0.8,0,1.5,0.5,1.5,1.5v0
			c0,1-0.7,1.6-1.6,1.6C292.6,172.7,292.1,172.4,291.7,172.1z"/>
		<path class="st0" d="M295.5,170.2L295.5,170.2c0-1.5,0.7-2.6,1.8-2.6c1.1,0,1.8,1,1.8,2.5v0.1c0,1.5-0.7,2.5-1.8,2.5
			C296.2,172.7,295.5,171.7,295.5,170.2z M298.5,170.2L298.5,170.2c0-1.2-0.5-2.1-1.2-2.1c-0.8,0-1.2,0.8-1.2,2v0.1
			c0,1.2,0.5,2,1.2,2C298,172.2,298.5,171.4,298.5,170.2z"/>
	</g>
	<g class="st3">
		<path class="st0" d="M395.5,172.3c-0.4-0.4-0.6-0.9-0.6-1.9v-0.1c0-1.6,0.7-2.7,1.8-2.7c0.5,0,0.8,0.2,1.2,0.4l-0.3,0.4
			c-0.3-0.2-0.6-0.4-0.9-0.4c-0.8,0-1.3,0.9-1.3,2.1c0.3-0.4,0.7-0.7,1.2-0.7c0.8,0,1.5,0.5,1.5,1.5v0c0,1-0.7,1.6-1.5,1.6
			C396.1,172.7,395.7,172.6,395.5,172.3z M397.6,171.1L397.6,171.1c0-0.7-0.4-1.1-1-1.1c-0.6,0-1,0.5-1,1.1v0c0,0.6,0.4,1.1,1.1,1.1
			C397.2,172.2,397.6,171.7,397.6,171.1z"/>
		<path class="st0" d="M398.8,170.2L398.8,170.2c0-1.5,0.7-2.6,1.8-2.6c1.1,0,1.8,1,1.8,2.5v0.1c0,1.5-0.7,2.5-1.8,2.5
			C399.5,172.7,398.8,171.7,398.8,170.2z M401.9,170.2L401.9,170.2c0-1.2-0.5-2.1-1.2-2.1c-0.7,0-1.2,0.8-1.2,2v0.1
			c0,1.2,0.5,2,1.2,2C401.4,172.2,401.9,171.4,401.9,170.2z"/>
	</g>
	<rect x="31.2" y="80.6" class="st4" width="208.7" height="62.2"/>
	<rect x="31.2" y="9.1" class="st5" width="344.3" height="62.2"/>
	<line class="st1" x1="31.2" y1="163" x2="31.2" y2="0"/>
	<path class="st0" d="M1.5,127.5v2.2H0.2v-5.8h1.3v2.2h7.1v1.4L1.5,127.5z"/>
	<path class="st0" d="M2.2,123.4v-1.4h1.2c-0.8-0.3-1.4-1-1.3-1.9h1.5v0.1c0,1.1,0.7,1.8,2.2,1.8h2.8v1.4L2.2,123.4z"/>
	<path class="st0" d="M5.5,119.6L5.5,119.6c-2,0-3.4-1.2-3.4-2.7c0-1.7,1.4-2.6,3.3-2.6h0.5v4c0.9,0,1.6-0.7,1.6-1.6
		c0-0.6-0.3-1.1-0.7-1.5l0.8-0.7c1.2,1.1,1.3,3,0.2,4.2C7.4,119.4,6.4,119.7,5.5,119.6L5.5,119.6z M5,115.6c-1,0.1-1.7,0.5-1.7,1.3
		s0.7,1.3,1.7,1.4V115.6z"/>
	<path class="st0" d="M6.8,113.4L6.8,113.4c-1.4,0-2.1-0.9-2.1-2.2c0-0.5,0.1-1,0.2-1.5H4.7c-0.7-0.1-1.2,0.4-1.3,1.1
		c0,0.1,0,0.2,0,0.3c0,0.5,0.1,1.1,0.4,1.5L2.7,113c-0.3-0.6-0.5-1.4-0.5-2.1c-0.1-0.7,0.2-1.4,0.6-1.9c0.5-0.4,1.2-0.7,1.8-0.6h3.9
		v1.3H7.8c0.6,0.4,0.9,1.1,0.9,1.8c0.1,1-0.7,1.9-1.8,1.9C6.9,113.4,6.8,113.4,6.8,113.4z M6.5,109.7H5.8c-0.2,0.4-0.2,0.8-0.2,1.2
		c0,0.8,0.4,1.2,1.1,1.2l0,0c0.6,0,1-0.4,1-1C7.8,110.4,7.3,109.8,6.5,109.7C6.5,109.7,6.5,109.7,6.5,109.7z"/>
	<path class="st0" d="M7.1,106.7H3.4v0.7H2.2v-0.7H0.5v-1.4h1.7v-1.4h1.2v1.4h3.4c0.3,0.1,0.6-0.2,0.7-0.5c0-0.1,0-0.1,0-0.2
		c0-0.3-0.1-0.5-0.2-0.7h1.1c0.2,0.3,0.3,0.7,0.3,1.1c0.1,0.8-0.4,1.5-1.2,1.6C7.3,106.7,7.2,106.7,7.1,106.7z"/>
	<path class="st0" d="M2.2,102.7v-1.4h0.9c-0.6-0.4-1-1-1-1.7c0-0.7,0.4-1.3,1-1.6c-0.6-0.4-1-1.1-1-1.9c0-1.2,0.8-1.9,2.2-1.9h4.2
		v1.3H4.8c-0.9,0-1.4,0.4-1.4,1.1s0.5,1.1,1.4,1.1h3.8v1.4H4.7c-0.9,0-1.4,0.4-1.4,1.1s0.5,1.2,1.4,1.2h3.8v1.4L2.2,102.7z"/>
	<path class="st0" d="M5.5,93L5.5,93c-2,0-3.4-1.2-3.4-2.7c0-1.7,1.4-2.6,3.3-2.6h0.5v4c0.9,0,1.6-0.7,1.6-1.6c0,0,0,0,0,0
		c0-0.6-0.3-1.1-0.7-1.5l0.8-0.7C9,88.9,9.1,90.8,8.1,92C7.4,92.7,6.5,93.1,5.5,93z M5,89c-1,0.1-1.7,0.5-1.7,1.3s0.7,1.2,1.7,1.3
		L5,89z"/>
	<path class="st0" d="M2.2,86.4V85h0.9c-0.6-0.3-1-1-1.1-1.7c0-1.2,0.9-2,2.2-2h4.3v1.4H4.7c-0.9,0-1.4,0.4-1.4,1.1S3.9,85,4.8,85
		h3.8v1.4L2.2,86.4z"/>
	<path class="st0" d="M7.1,79.6H3.4v0.7H2.2v-0.7H0.5v-1.4h1.7v-1.4h1.2v1.4h3.4c0.3,0.1,0.6-0.2,0.7-0.5c0-0.1,0-0.1,0-0.2
		c0-0.3-0.1-0.5-0.2-0.7h1.1c0.2,0.3,0.3,0.7,0.3,1.1c0.1,0.8-0.5,1.5-1.3,1.6C7.3,79.6,7.2,79.6,7.1,79.6z"/>
	<path class="st0" d="M2.2,72.5v-1.4h1.2c-0.8-0.3-1.4-1-1.3-1.9h1.5v0.1c0,1.1,0.7,1.8,2.2,1.8h2.8v1.4H2.2z"/>
	<path class="st0" d="M5.5,68.7L5.5,68.7c-2,0-3.4-1.2-3.4-2.7c0-1.7,1.4-2.6,3.3-2.6h0.5v4c0.9,0,1.6-0.7,1.6-1.6
		c0-0.6-0.3-1.1-0.7-1.5l0.8-0.7c1.2,1.1,1.3,3,0.2,4.2C7.4,68.4,6.4,68.8,5.5,68.7z M5,64.7c-1,0.1-1.7,0.5-1.7,1.3
		s0.7,1.2,1.7,1.3L5,64.7z"/>
	<path class="st0" d="M9.9,62.1l-1.1-0.4c0.4-0.6,0.5-1.2,0.5-1.9c0.1-0.8-0.4-1.6-1.2-1.8c-0.1,0-0.3,0-0.4,0H7
		c0.7,0.4,1.2,1.2,1.1,2c0,1.3-1,2.4-3,2.4l0,0c-2,0-3-1.2-3-2.4c0-0.8,0.4-1.6,1.1-2h-1v-1.3h5.3c0.8-0.1,1.5,0.2,2.1,0.7
		c0.6,0.6,0.8,1.5,0.8,2.3C10.5,60.5,10.3,61.4,9.9,62.1z M5.2,58L5.2,58c-0.9-0.1-1.7,0.5-1.8,1.4c0,0,0,0.1,0,0.1
		C3.3,60.4,4,61,5.1,61l0,0C6.3,61,7,60.4,7,59.5c0-0.9-0.8-1.6-1.7-1.6C5.2,58,5.2,58,5.2,58z"/>
	<path class="st0" d="M0,55.1v-1.4h1.3v1.4L0,55.1z M2.2,55.1v-1.4h6.4v1.3L2.2,55.1z"/>
	<path class="st0" d="M2.2,52.1v-1.4h0.9c-0.6-0.4-1-1-1-1.7c0-0.7,0.4-1.3,1-1.6c-0.6-0.4-1-1.1-1-1.9c0-1.2,0.8-1.9,2.2-1.9h4.2
		V45H4.8c-0.9,0-1.4,0.4-1.4,1.1s0.5,1.1,1.4,1.1h3.8v1.4H4.7c-0.9,0-1.4,0.4-1.4,1.1s0.5,1.2,1.4,1.2h3.8v1.4L2.2,52.1z"/>
	<path class="st0" d="M5.5,42.4L5.5,42.4c-2,0-3.4-1.2-3.4-2.7c0-1.7,1.4-2.6,3.3-2.6h0.5v4c0.9,0,1.6-0.7,1.6-1.6
		c0-0.6-0.3-1.1-0.7-1.4l0.8-0.7c1.2,1.1,1.3,3,0.2,4.2C7.3,42.1,6.4,42.5,5.5,42.4z M5,38.4c-1,0.1-1.7,0.5-1.7,1.3S3.9,41,5,41.1
		L5,38.4z"/>
	<path class="st0" d="M2.2,35.8v-1.3h0.9c-0.6-0.3-1.1-1-1.1-1.7c0-1.2,0.9-2,2.2-2h4.3v1.4H4.7c-0.9,0-1.4,0.4-1.4,1.1
		s0.5,1.2,1.4,1.2h3.8v1.4L2.2,35.8z"/>
	<path class="st0" d="M221.4,186v-0.1c0-2.5,1.5-4.3,3.7-4.3s3.7,1.8,3.7,4.3v0.1c0,2.5-1.5,4.3-3.7,4.3S221.4,188.5,221.4,186z
		 M227.4,186L227.4,186c0-1.9-1-3.1-2.3-3.1s-2.3,1.2-2.3,3v0.1c0,1.8,1,3,2.3,3S227.4,187.8,227.4,186z"/>
	<path class="st0" d="M230.3,181.7h3c0.8,0,1.6,0.2,2.2,0.8c0.5,0.5,0.7,1.2,0.7,1.9l0,0c0,1.1-0.7,2.1-1.7,2.5l2,3.2h-1.6l-1.8-3
		h-1.4v3h-1.4L230.3,181.7z M233.2,185.9c1.1,0,1.7-0.6,1.7-1.4l0,0c0-0.9-0.6-1.4-1.7-1.4h-1.5v2.9L233.2,185.9z"/>
	<path class="st0" d="M237.8,181.7h3c0.8,0,1.6,0.2,2.2,0.8c0.5,0.5,0.7,1.2,0.7,1.9l0,0c0,1.1-0.7,2.1-1.7,2.5l2,3.2h-1.6l-1.8-3
		h-1.4v3h-1.4L237.8,181.7z M240.7,185.9c1.1,0,1.7-0.6,1.7-1.4l0,0c0-0.9-0.6-1.4-1.7-1.4h-1.5v2.9L240.7,185.9z"/>
	<path class="st0" d="M248.2,186.7c-0.1-2.2,1.1-4.2,3.1-5.1l0.5,0.9c-2.3,1.6-3,4.7-1.4,7c0.4,0.6,0.8,1,1.4,1.4l-0.5,0.9
		C249.3,190.8,248.1,188.8,248.2,186.7z"/>
	<path class="st0" d="M252.7,183.8L252.7,183.8c-0.2-1.1,0.5-2,1.5-2.2c1-0.2,1.9,0.5,2.1,1.5c0,0.2,0,0.4,0,0.7v0.1
		c0.2,1-0.5,1.9-1.5,2.1c-1,0.2-1.9-0.5-2.1-1.5C252.6,184.3,252.6,184.1,252.7,183.8z M259,181.7h1l-2.9,4.4l-2.5,4h-1.1l2.9-4.4
		L259,181.7z M253.7,183.7L253.7,183.7c0,0.8,0.3,1.3,0.8,1.3s0.8-0.5,0.8-1.2l0,0c0-0.7-0.3-1.2-0.8-1.2S253.7,183,253.7,183.7
		L253.7,183.7z M257.3,188.1L257.3,188.1c-0.2-1.1,0.5-2,1.5-2.2c1-0.2,1.9,0.5,2.1,1.5c0,0.2,0,0.4,0,0.7v0.1
		c0.2,1-0.5,1.9-1.5,2.1c-1,0.2-1.9-0.5-2.1-1.5C257.2,188.5,257.2,188.3,257.3,188.1z M259.8,188.1L259.8,188.1
		c0-0.8-0.3-1.3-0.8-1.3s-0.8,0.5-0.8,1.2l0,0c0,0.7,0.3,1.2,0.8,1.2S259.8,188.8,259.8,188.1L259.8,188.1z"/>
	<path class="st0" d="M261.8,190.9c2.3-1.6,2.9-4.7,1.4-7.1c-0.4-0.5-0.8-1-1.4-1.4l0.5-0.9c2.8,1.5,3.9,5,2.4,7.9
		c-0.5,1-1.4,1.8-2.4,2.4L261.8,190.9z"/>
	<path class="st6" d="M60.1,116.1H44.8l-0.9-5.3l16.8-23.2H67V110h4.3v6.2H67v7.3h-7L60.1,116.1z M60.1,110V98.5L51.9,110L60.1,110z
		"/>
	<path class="st6" d="M74.9,119.6l4.1-5.5c2.3,2,4.4,3.2,7.1,3.2c3.3,0,5.4-2,5.4-5.2v0c0-3.2-2.4-5-5.8-5c-1.7,0-3.3,0.3-4.9,1
		l-4.1-2.7l1-17.5h19.5v6.6H83.9l-0.4,6.5c1.3-0.4,2.6-0.5,4-0.5c6.1,0,11.3,3.3,11.3,11.2v0.2c0,7.6-5.1,12.3-12.5,12.3
		C82.1,124.1,78,122.5,74.9,119.6z"/>
	<path class="st6" d="M102.5,105.9v-0.3c0-3.4,2.1-6,5.2-6s5.1,2.6,5.1,6v0.3c0,3.4-2.1,6-5.2,6S102.5,109.3,102.5,105.9z
		 M120.2,99.9h3.6l-8.4,12.6l-7.1,11.1h-3.5l8.4-12.6L120.2,99.9z M105.8,105.6v0.2c0,1.9,0.7,3.1,1.9,3.1s1.8-1.2,1.8-3v-0.2
		c0-1.9-0.7-3.1-1.9-3.1S105.8,103.8,105.8,105.6L105.8,105.6z M115.6,117.8v-0.3c0-3.4,2.1-6,5.2-6s5.2,2.5,5.2,5.9v0.3
		c0,3.4-2.1,6-5.2,6S115.6,121.2,115.6,117.8L115.6,117.8z M122.6,117.7v-0.2c0-1.9-0.7-3.1-1.9-3.1s-1.8,1.2-1.8,3v0.2
		c0,1.9,0.7,3.1,1.9,3.1S122.7,119.5,122.6,117.7L122.6,117.7z"/>
	<path class="st6" d="M41.9,48l4.1-5.5c2.3,2,4.4,3.2,7.1,3.2c3.3,0,5.5-2,5.5-5.2v-0.1c0-3.2-2.4-5-5.8-5c-1.7,0-3.4,0.4-4.9,1.1
		l-4.1-2.7l1-17.5h19.5v6.6H51l-0.4,6.5c1.3-0.4,2.6-0.5,4-0.5c6.1,0,11.3,3.3,11.3,11.2v0.2c0,7.6-5.1,12.3-12.5,12.3
		C49.1,52.6,45,50.9,41.9,48z"/>
	<path class="st6" d="M70.1,42.2V42c-0.2-3.7,1.9-7.1,5.3-8.6c-2.7-1.6-4.4-4.6-4.3-7.8v-0.2c0-5.5,4.6-9.7,11.4-9.7
		S94,19.9,94,25.4v0.2c0.1,3.2-1.6,6.2-4.3,7.8c3.1,1.7,5.3,4.1,5.3,8.4v0.2c0,6.5-5.3,10.3-12.4,10.3S70.1,48.4,70.1,42.2z
		 M87.9,41.6L87.9,41.6c0-3.1-2.3-4.8-5.3-4.8s-5.3,1.8-5.3,4.7v0.1c0,2.8,2.1,4.8,5.3,4.8S87.9,44.5,87.9,41.6z M87,26.2L87,26.2
		c0-2.5-2-4.5-4.5-4.5s-4.5,2-4.5,4.5v0c-0.1,2.5,1.8,4.5,4.2,4.7c2.5,0.1,4.5-1.8,4.7-4.2C87,26.5,87,26.3,87,26.2z"/>
	<path class="st6" d="M98.2,34.3V34c0-3.4,2.1-6,5.2-6s5.1,2.6,5.1,6v0.3c0,3.4-2.1,6-5.2,6S98.2,37.7,98.2,34.3z M115.9,28.3h3.6
		L111,40.8l-7,11.1h-3.5l8.4-12.6L115.9,28.3z M101.5,34v0.2c0,1.9,0.7,3.1,1.9,3.1s1.8-1.2,1.8-3v-0.2c0-1.9-0.7-3.1-1.9-3.1
		S101.5,32.2,101.5,34z M111.3,46.2v-0.3c0-3.4,2.1-6,5.2-6s5.1,2.5,5.1,5.9v0.3c0,3.4-2.1,6-5.2,6S111.3,49.6,111.3,46.2
		L111.3,46.2z M118.3,46.1L118.3,46.1c0-2-0.7-3.2-1.9-3.2s-1.8,1.2-1.8,3v0.2c0,1.9,0.7,3.1,1.9,3.1S118.4,48,118.3,46.1
		L118.3,46.1z"/>
	<path class="st6" d="M138.7,22.3h1.1l2.9,8.4l2.9-8.4h1.1l-3.5,9.9h-1L138.7,22.3z"/>
	<path class="st6" d="M147.1,28.5L147.1,28.5c0-2.3,1.3-3.9,3-3.9s2.9,1.6,2.9,3.8c0,0.1,0,0.3,0,0.4h-4.9c-0.1,1.3,0.9,2.4,2.2,2.5
		c0,0,0,0,0,0c0.7,0,1.4-0.3,1.9-0.8l0.6,0.6c-0.6,0.7-1.6,1.1-2.5,1.1C148.6,32.2,147.1,30.8,147.1,28.5z M152.1,28
		c-0.1-1.4-0.7-2.5-1.9-2.5s-1.9,1-2,2.5H152.1z"/>
	<path class="st6" d="M154.3,28.5v-0.1c0-2.2,1.4-3.8,3.2-3.8c0.9,0,1.7,0.4,2.3,1l-0.6,0.8c-0.4-0.5-1-0.8-1.7-0.8
		c-1.2,0-2.2,1.1-2.2,2.8v0.1c0,1.7,1,2.8,2.2,2.8c0.7,0,1.3-0.3,1.7-0.8l0.6,0.7c-0.6,0.7-1.4,1.1-2.4,1.1
		C155.7,32.2,154.3,30.7,154.3,28.5z"/>
	<path class="st6" d="M161.9,30.4v-4.7H161v-0.9h0.9v-2.1h1v2.1h1.9v0.9h-1.9v4.5c-0.1,0.5,0.3,1,0.8,1c0.1,0,0.2,0,0.3,0
		c0.3,0,0.6-0.1,0.9-0.2v0.9c-0.3,0.2-0.7,0.3-1.1,0.3c-0.9,0.1-1.7-0.5-1.8-1.4C161.9,30.6,161.9,30.5,161.9,30.4z"/>
	<path class="st6" d="M166.2,22.1h1.1v1.2h-1.1V22.1z M166.3,24.8h1v7.3h-1V24.8z"/>
	<path class="st6" d="M170.3,30.7v1.4h-1V22h1v4.2c0.4-0.9,1.4-1.5,2.4-1.5c1.5,0,2.9,1.3,2.9,3.7v0.1c0,2.4-1.4,3.7-2.9,3.7
		C171.7,32.2,170.7,31.6,170.3,30.7z M174.6,28.5v-0.1c0-1.8-1-2.8-2.1-2.8s-2.2,1.1-2.2,2.8v0.1c0,1.7,1.1,2.8,2.2,2.8
		S174.6,30.3,174.6,28.5L174.6,28.5z"/>
	<path class="st6" d="M177.2,22.1h1.1v1.2h-1.1V22.1z M177.3,24.8h1v7.3h-1V24.8z"/>
	<path class="st6" d="M182.7,27.6l1.8-2.8h1.1l-2.3,3.5l2.4,3.8h-1.1l-1.9-3l-1.9,3h-1.1l2.4-3.7l-2.3-3.6h1.1L182.7,27.6z"/>
	<path class="st6" d="M186.8,24.6L186.8,24.6c-0.1-1.3,0.8-2.4,2-2.5c1.2-0.1,2.3,0.8,2.5,2c0,0.1,0,0.3,0,0.4v0.1
		c0.1,1.2-0.8,2.3-2,2.5c-1.2,0.1-2.3-0.8-2.5-2C186.8,24.9,186.8,24.8,186.8,24.6z M191,24.6L191,24.6c0.1-1.2-0.7-2.1-1.8-2.2
		c0,0-0.1,0-0.1,0c-1.1,0-2,0.9-2,2c0,0.1,0,0.1,0,0.2v0.1c-0.2,1.1,0.5,2.1,1.5,2.4c1.1,0.2,2.1-0.5,2.4-1.5
		C191,25.2,191,24.9,191,24.6L191,24.6z M188.2,23.3h1c0.4-0.1,0.8,0.3,0.9,0.7c0,0,0,0.1,0,0.1c0,0.3-0.2,0.7-0.5,0.8l0.6,1h-0.5
		l-0.6-0.9h-0.4v0.9h-0.4L188.2,23.3z M189.1,24.5c0.3,0,0.5-0.2,0.5-0.4s-0.2-0.4-0.5-0.4h-0.5v0.9L189.1,24.5z"/>
	<path class="st6" d="M198.6,27.6h-2.5v-1h2.5v-2.5h1v2.5h2.5v1h-2.5v2.5h-1V27.6z"/>
	<path class="st6" d="M207.7,22.3h5.9v1h-4.9v3.6h4.4v1h-4.4v4.3h-1.1V22.3z"/>
	<path class="st6" d="M214.8,27.2v-0.1c0-2.9,1.7-5,4.2-5s4.2,2.1,4.2,5v0.1c0,2.9-1.7,5-4.2,5S214.8,30.1,214.8,27.2z M222.2,27.2
		v-0.1c0-2.4-1.3-4-3.1-4s-3.1,1.7-3.1,4v0.1c0,2.4,1.3,4,3.1,4S222.2,29.6,222.2,27.2L222.2,27.2z"/>
	<path class="st6" d="M225.3,22.3h1.1v8.8h4.6v1h-5.6V22.3z"/>
	<path class="st6" d="M232.5,22.3h5.9v1h-4.9v3.6h4.4v1h-4.4v4.3h-1.1V22.3z"/>
	<path class="st6" d="M239.6,27.2v-0.1c0-2.9,1.7-5,4.2-5s4.2,2.1,4.2,5v0.1c0,2.9-1.7,5-4.2,5S239.6,30.1,239.6,27.2z M247,27.2
		v-0.1c0-2.4-1.3-4-3.1-4s-3.1,1.7-3.1,4v0.1c0,2.4,1.3,4,3.1,4S247,29.6,247,27.2L247,27.2z"/>
	<path class="st6" d="M256.3,22.3l-3,4.8l3.2,5h-1.2l-2.6-4.2l-2.7,4.3h-1.2l3.2-5l-3-4.8h1.2l2.4,4l2.5-4L256.3,22.3z"/>
	<path class="st6" d="M139.1,44.8c-0.1-2.5,1.3-4.8,3.5-6l0.4,0.7c-2.9,1.9-3.8,5.8-1.8,8.8c0.5,0.7,1.1,1.4,1.8,1.8l-0.4,0.7
		C140.4,49.6,139,47.3,139.1,44.8z"/>
	<path class="st6" d="M143.9,41.6h1v1.2c0.4-0.8,1.2-1.3,2.2-1.3c1.5,0,2.4,1,2.4,2.7v4.8h-1v-4.5c0-1.3-0.6-2-1.7-2
		c-1,0-1.9,0.9-1.9,1.9c0,0.1,0,0.1,0,0.2v4.4h-1L143.9,41.6z"/>
	<path class="st6" d="M154.9,42h5.8v1h-5.8V42z M154.9,44.9h5.8v1h-5.8V44.9z"/>
	<path class="st6" d="M165.8,48.1l3.2-3.5c1.2-1.3,1.6-2,1.6-2.9c0-0.9-0.7-1.7-1.6-1.8c0,0-0.1,0-0.1,0c-0.9,0-1.8,0.6-2.2,1.4
		l-0.7-0.6c0.6-1.1,1.8-1.8,3-1.8c1.4-0.1,2.7,1,2.8,2.4c0,0.1,0,0.1,0,0.2l0,0c0,1.3-0.6,2.1-2,3.5l-2.4,2.8h4.5v1h-6L165.8,48.1z"
		/>
	<path class="st6" d="M173.2,47.8l0.6-0.8c0.6,0.6,1.4,1,2.3,1c1.1,0,2.1-0.9,2.1-2c0-0.1,0-0.1,0-0.2l0,0c0-1.1-0.9-2-2-2
		c0,0-0.1,0-0.1,0c-0.6,0-1.2,0.2-1.7,0.5l-0.7-0.5l0.2-4.7h4.9v1h-4l-0.2,3.1c0.5-0.2,1-0.3,1.6-0.3c1.6-0.1,2.9,1.1,3,2.6
		c0,0.1,0,0.2,0,0.4l0,0c0,1.7-1.4,3.1-3.1,3.1c0,0-0.1,0-0.1,0C175,49,174,48.6,173.2,47.8z"/>
	<path class="st6" d="M185.8,43.9c-0.5,0.8-1.4,1.4-2.4,1.4c-1.6,0.1-2.9-1.1-3-2.7c0-0.1,0-0.2,0-0.3l0,0c-0.1-1.7,1.2-3.2,2.9-3.3
		c0.1,0,0.1,0,0.2,0c0.8,0,1.6,0.3,2.2,0.8c0.7,0.7,1.1,1.8,1.1,3.8v0.1c0,3.3-1.5,5.3-3.6,5.3c-0.9,0-1.8-0.4-2.5-1l0.6-0.8
		c0.5,0.5,1.3,0.8,2,0.8C184.8,48.1,185.8,46.2,185.8,43.9z M185.6,42.2L185.6,42.2c0.1-1.1-0.7-2.2-1.9-2.3s-2.2,0.7-2.3,1.9
		c0,0.1,0,0.3,0,0.4l0,0c-0.1,1.1,0.7,2.1,1.8,2.2c0.1,0,0.1,0,0.2,0c1.1,0,2.1-0.9,2.1-2C185.6,42.3,185.6,42.2,185.6,42.2
		L185.6,42.2z"/>
	<path class="st6" d="M187.7,50.2c2.9-1.9,3.8-5.8,1.8-8.8c-0.5-0.7-1.1-1.4-1.8-1.8l0.4-0.7c3.3,1.9,4.5,6,2.6,9.3
		c-0.6,1.1-1.5,2-2.6,2.6L187.7,50.2z"/>
	<g class="st3">
		<path class="st6" d="M45.4,66.6c-1.7-0.9-2.5-2.3-2.5-4.3c0-2,0.9-3.4,2.5-4.3l0.5,0.7c-1.3,0.8-1.9,2-1.9,3.5s0.6,2.7,1.9,3.5
			L45.4,66.6z"/>
	</g>
	<g class="st3">
		<path class="st6" d="M48.8,64.3c0.5,0,0.8-0.2,1.1-0.6c0.3-0.4,0.4-0.9,0.4-1.5c-0.4,0.4-0.9,0.7-1.5,0.7c-0.6,0-1.1-0.2-1.5-0.6
			s-0.6-0.9-0.6-1.6v0c0-0.7,0.2-1.3,0.7-1.7c0.4-0.5,1-0.7,1.7-0.7s1.2,0.2,1.7,0.6c0.5,0.5,0.8,1.4,0.8,2.7v0.1
			c0,1.2-0.2,2.1-0.7,2.8c-0.5,0.7-1.1,1-2,1c-0.7,0-1.3-0.2-1.9-0.7l0.6-0.9C47.9,64.1,48.4,64.3,48.8,64.3z M48.2,61.4
			c0.2,0.2,0.5,0.3,0.9,0.3s0.7-0.1,0.9-0.4c0.2-0.2,0.3-0.6,0.3-0.9v0c0-0.4-0.1-0.7-0.3-1c-0.2-0.2-0.5-0.4-0.9-0.4
			c-0.4,0-0.7,0.1-0.9,0.4s-0.3,0.6-0.3,1v0C47.9,60.9,48,61.2,48.2,61.4z"/>
	</g>
	<g class="st3">
		<path class="st6" d="M54.5,65.3c-0.8,0-1.5-0.3-2.2-0.9l0.7-0.9c0.5,0.4,1,0.7,1.5,0.7c0.4,0,0.7-0.1,0.9-0.3s0.3-0.5,0.3-0.9v0
			c0-0.4-0.1-0.6-0.4-0.9c-0.2-0.2-0.6-0.3-0.9-0.3c-0.3,0-0.7,0.1-1.1,0.3l-0.7-0.4l0.2-3.4h3.7v1.1h-2.7l-0.1,1.7
			c0.3-0.1,0.6-0.2,0.9-0.2c0.6,0,1.2,0.2,1.6,0.6c0.4,0.4,0.6,0.9,0.6,1.6v0c0,0.7-0.2,1.3-0.7,1.7S55.2,65.3,54.5,65.3z"/>
		<path class="st6" d="M59.2,61.7c-0.4,0-0.8-0.2-1.1-0.5c-0.3-0.3-0.4-0.8-0.4-1.3v-0.1c0-0.5,0.1-0.9,0.4-1.3
			c0.3-0.3,0.6-0.5,1.1-0.5c0.4,0,0.8,0.2,1.1,0.5c0.3,0.3,0.4,0.8,0.4,1.2V60c0,0.5-0.1,0.9-0.4,1.3C60,61.6,59.7,61.7,59.2,61.7z
			 M60.9,61.5l2.1-3.3h0.9l-2.4,3.7l-2.1,3.3h-0.9L60.9,61.5z M59.2,58.9c-0.2,0-0.4,0.1-0.5,0.3c-0.1,0.2-0.2,0.4-0.2,0.7v0
			c0,0.3,0.1,0.6,0.2,0.8c0.1,0.2,0.3,0.3,0.5,0.3c0.2,0,0.4-0.1,0.5-0.3c0.1-0.2,0.2-0.4,0.2-0.7v0c0-0.3-0.1-0.6-0.2-0.8
			C59.6,59,59.4,58.9,59.2,58.9z M63,65.3c-0.4,0-0.8-0.2-1.1-0.5c-0.3-0.3-0.4-0.7-0.4-1.3v-0.1c0-0.5,0.1-0.9,0.4-1.3
			c0.3-0.3,0.6-0.5,1.1-0.5c0.4,0,0.8,0.2,1.1,0.5c0.3,0.3,0.4,0.8,0.4,1.3v0.1c0,0.5-0.1,0.9-0.4,1.3C63.8,65.1,63.5,65.3,63,65.3z
			 M63.1,64.5c0.2,0,0.4-0.1,0.5-0.3s0.2-0.4,0.2-0.7v0c0-0.3-0.1-0.6-0.2-0.8c-0.1-0.2-0.3-0.3-0.5-0.3c-0.2,0-0.4,0.1-0.5,0.3
			c-0.1,0.2-0.2,0.4-0.2,0.7v0c0,0.3,0.1,0.6,0.2,0.8C62.7,64.5,62.9,64.5,63.1,64.5z"/>
		<path class="st6" d="M71.1,65.3c-0.9,0-1.6-0.3-2.2-1c-0.6-0.7-0.9-1.5-0.9-2.6v-0.1c0-1.1,0.3-1.9,0.9-2.6c0.6-0.7,1.3-1,2.2-1
			c0.8,0,1.6,0.3,2.2,0.9l-0.7,0.9c-0.5-0.5-1-0.7-1.5-0.7c-0.6,0-1,0.2-1.4,0.7s-0.5,1.1-0.5,1.8v0c0,0.7,0.2,1.4,0.5,1.8
			c0.4,0.5,0.8,0.7,1.4,0.7c0.5,0,1-0.2,1.6-0.7l0.7,0.8C72.7,65,72,65.3,71.1,65.3z"/>
		<path class="st6" d="M74.5,65.2v-7h1.2v7H74.5z"/>
		<path class="st6" d="M77.1,61.2v-1.3h1.3v1.3H77.1z M77.1,65.2v-1.3h1.3v1.3H77.1z"/>
	</g>
	<g class="st3">
		<path class="st6" d="M84.2,65.3c-0.8,0-1.5-0.3-2.2-0.9l0.7-0.9c0.5,0.4,1,0.7,1.5,0.7c0.4,0,0.7-0.1,0.9-0.3s0.3-0.5,0.3-0.9v0
			c0-0.4-0.1-0.6-0.4-0.9c-0.2-0.2-0.6-0.3-0.9-0.3c-0.3,0-0.7,0.1-1.1,0.3l-0.7-0.4l0.2-3.4h3.7v1.1h-2.7l-0.1,1.7
			c0.3-0.1,0.6-0.2,0.9-0.2c0.6,0,1.2,0.2,1.6,0.6c0.4,0.4,0.6,0.9,0.6,1.6v0c0,0.7-0.2,1.3-0.7,1.7S84.9,65.3,84.2,65.3z"/>
	</g>
	<g class="st3">
		<path class="st6" d="M88.5,65.2v-5.8l-1.1,0.3l-0.2-1l1.6-0.5h0.8v7H88.5z"/>
		<path class="st6" d="M92.4,61.7c-0.4,0-0.8-0.2-1.1-0.5c-0.3-0.3-0.4-0.8-0.4-1.3v-0.1c0-0.5,0.1-0.9,0.4-1.3
			c0.3-0.3,0.6-0.5,1.1-0.5c0.4,0,0.8,0.2,1.1,0.5c0.3,0.3,0.4,0.8,0.4,1.2V60c0,0.5-0.1,0.9-0.4,1.3C93.2,61.6,92.9,61.7,92.4,61.7
			z M94,61.5l2.1-3.3H97l-2.4,3.7l-2.1,3.3h-0.9L94,61.5z M92.4,58.9c-0.2,0-0.4,0.1-0.5,0.3c-0.1,0.2-0.2,0.4-0.2,0.7v0
			c0,0.3,0.1,0.6,0.2,0.8c0.1,0.2,0.3,0.3,0.5,0.3c0.2,0,0.4-0.1,0.5-0.3c0.1-0.2,0.2-0.4,0.2-0.7v0c0-0.3-0.1-0.6-0.2-0.8
			C92.8,59,92.6,58.9,92.4,58.9z M96.2,65.3c-0.4,0-0.8-0.2-1.1-0.5c-0.3-0.3-0.4-0.7-0.4-1.3v-0.1c0-0.5,0.1-0.9,0.4-1.3
			c0.3-0.3,0.6-0.5,1.1-0.5c0.4,0,0.8,0.2,1.1,0.5c0.3,0.3,0.4,0.8,0.4,1.3v0.1c0,0.5-0.1,0.9-0.4,1.3C97,65.1,96.6,65.3,96.2,65.3z
			 M96.2,64.5c0.2,0,0.4-0.1,0.5-0.3s0.2-0.4,0.2-0.7v0c0-0.3-0.1-0.6-0.2-0.8c-0.1-0.2-0.3-0.3-0.5-0.3c-0.2,0-0.4,0.1-0.5,0.3
			c-0.1,0.2-0.2,0.4-0.2,0.7v0c0,0.3,0.1,0.6,0.2,0.8C95.9,64.5,96,64.5,96.2,64.5z"/>
		<path class="st6" d="M98.6,62.7v-1.1h4v1.1H98.6z"/>
		<path class="st6" d="M106.1,65.3c-0.7,0-1.2-0.2-1.6-0.6c-0.5-0.6-0.8-1.5-0.8-2.7v-0.1c0-1.2,0.2-2.1,0.7-2.8c0.5-0.7,1.1-1,2-1
			c0.6,0,1.2,0.2,1.8,0.6l-0.6,0.9c-0.4-0.3-0.8-0.5-1.2-0.5c-0.5,0-0.8,0.2-1.1,0.6s-0.4,1-0.4,1.6c0.4-0.4,0.9-0.6,1.5-0.6
			c0.6,0,1.1,0.2,1.5,0.6c0.4,0.4,0.6,0.9,0.6,1.6v0c0,0.7-0.2,1.3-0.7,1.7S106.7,65.3,106.1,65.3z M106,64.3c0.4,0,0.7-0.1,0.9-0.4
			c0.2-0.2,0.3-0.6,0.3-0.9v0c0-0.4-0.1-0.7-0.3-0.9c-0.2-0.2-0.5-0.3-0.9-0.3c-0.4,0-0.7,0.1-0.9,0.4c-0.2,0.2-0.3,0.5-0.3,0.9v0
			c0,0.4,0.1,0.7,0.3,0.9C105.4,64.2,105.7,64.3,106,64.3z"/>
		<path class="st6" d="M112.4,65.2v-1.5h-3.1l-0.2-0.8l3.3-4.7h1v4.5h0.9v1h-0.9v1.5H112.4z M110.4,62.7h2v-2.8L110.4,62.7z"/>
		<path class="st6" d="M116.7,61.7c-0.4,0-0.8-0.2-1.1-0.5c-0.3-0.3-0.4-0.8-0.4-1.3v-0.1c0-0.5,0.1-0.9,0.4-1.3
			c0.3-0.3,0.6-0.5,1.1-0.5c0.4,0,0.8,0.2,1.1,0.5c0.3,0.3,0.4,0.8,0.4,1.2V60c0,0.5-0.1,0.9-0.4,1.3
			C117.5,61.6,117.1,61.7,116.7,61.7z M118.3,61.5l2.1-3.3h0.9l-2.4,3.7l-2.1,3.3h-0.9L118.3,61.5z M116.7,58.9
			c-0.2,0-0.4,0.1-0.5,0.3c-0.1,0.2-0.2,0.4-0.2,0.7v0c0,0.3,0.1,0.6,0.2,0.8c0.1,0.2,0.3,0.3,0.5,0.3c0.2,0,0.4-0.1,0.5-0.3
			c0.1-0.2,0.2-0.4,0.2-0.7v0c0-0.3-0.1-0.6-0.2-0.8C117,59,116.9,58.9,116.7,58.9z M120.5,65.3c-0.4,0-0.8-0.2-1.1-0.5
			c-0.3-0.3-0.4-0.7-0.4-1.3v-0.1c0-0.5,0.1-0.9,0.4-1.3c0.3-0.3,0.6-0.5,1.1-0.5c0.4,0,0.8,0.2,1.1,0.5c0.3,0.3,0.4,0.8,0.4,1.3
			v0.1c0,0.5-0.1,0.9-0.4,1.3C121.3,65.1,120.9,65.3,120.5,65.3z M120.5,64.5c0.2,0,0.4-0.1,0.5-0.3s0.2-0.4,0.2-0.7v0
			c0-0.3-0.1-0.6-0.2-0.8c-0.1-0.2-0.3-0.3-0.5-0.3c-0.2,0-0.4,0.1-0.5,0.3c-0.1,0.2-0.2,0.4-0.2,0.7v0c0,0.3,0.1,0.6,0.2,0.8
			C120.1,64.5,120.3,64.5,120.5,64.5z"/>
		<path class="st6" d="M123.2,66.6l-0.4-0.7c1.2-0.8,1.9-2,1.9-3.5s-0.6-2.7-1.9-3.5l0.4-0.7c1.7,0.9,2.6,2.3,2.6,4.3
			C125.8,64.3,124.9,65.7,123.2,66.6z"/>
	</g>
	<path class="st6" d="M43.8,133.6c-0.1-1.8,0.9-3.5,2.5-4.3l0.5,0.7c-1.9,1.3-2.4,3.9-1.1,5.9c0.3,0.4,0.7,0.8,1.1,1.1l-0.5,0.7
		C44.7,137,43.7,135.4,43.8,133.6z"/>
	<path class="st6" d="M51.2,133.4c-0.4,0.4-0.9,0.7-1.5,0.6c-1.1,0.1-2.1-0.7-2.1-1.8c0-0.1,0-0.2,0-0.4l0,0
		c-0.1-1.3,0.9-2.4,2.1-2.4c0.1,0,0.2,0,0.2,0c0.6,0,1.2,0.2,1.7,0.6c0.6,0.8,0.9,1.7,0.8,2.7v0.1c0,2.4-1,3.8-2.7,3.8
		c-0.7,0-1.4-0.2-1.9-0.7l0.6-0.9c0.4,0.3,0.8,0.5,1.3,0.6C50.7,135.5,51.2,134.5,51.2,133.4z M51.2,131.7L51.2,131.7
		c0.1-0.7-0.4-1.3-1.1-1.4c-0.7-0.1-1.3,0.4-1.4,1.1c0,0.1,0,0.2,0,0.3l0,0c0,0.6,0.4,1.2,1.1,1.3c0,0,0.1,0,0.1,0
		C50.7,133,51.2,132.5,51.2,131.7C51.2,131.8,51.2,131.8,51.2,131.7L51.2,131.7z"/>
	<path class="st6" d="M53.2,135.7l0.7-0.9c0.4,0.4,0.9,0.6,1.5,0.7c0.7,0,1.2-0.5,1.2-1.1c0,0,0-0.1,0-0.1l0,0
		c0-0.6-0.5-1.2-1.2-1.2c0,0-0.1,0-0.1,0c-0.4,0-0.7,0.1-1.1,0.3l-0.7-0.4l0.2-3.4h3.7v1.1h-2.7l-0.1,1.7c0.3-0.1,0.6-0.2,0.9-0.2
		c1.1-0.1,2.1,0.7,2.2,1.8c0,0.1,0,0.3,0,0.4l0,0c0.1,1.2-0.9,2.3-2.1,2.4c-0.1,0-0.2,0-0.3,0C54.6,136.6,53.8,136.3,53.2,135.7z"/>
	<path class="st6" d="M58.7,131.2L58.7,131.2c0-0.9,0.7-1.6,1.5-1.6s1.5,0.7,1.5,1.5v0.1c0.1,0.8-0.5,1.6-1.3,1.7
		c-0.8,0.1-1.6-0.5-1.7-1.3C58.6,131.5,58.6,131.4,58.7,131.2z M63.9,129.5h0.9l-2.4,3.7l-2.1,3.3h-0.9l2.4-3.7L63.9,129.5z
		 M59.5,131.2L59.5,131.2c0,0.6,0.3,1,0.7,1s0.7-0.4,0.7-1l0,0c0-0.6-0.3-1-0.7-1S59.5,130.6,59.5,131.2L59.5,131.2z M62.5,134.8
		L62.5,134.8c-0.1-0.9,0.5-1.6,1.3-1.7s1.6,0.5,1.7,1.3c0,0.1,0,0.2,0,0.3v0.1c0.1,0.8-0.5,1.6-1.3,1.7c-0.8,0.1-1.6-0.5-1.7-1.3
		C62.5,135,62.5,134.9,62.5,134.8z M64.6,134.8L64.6,134.8c0-0.6-0.3-1-0.7-1s-0.7,0.4-0.7,1l0,0c0,0.6,0.3,1,0.7,1
		C64.4,135.8,64.6,135.4,64.6,134.8L64.6,134.8z"/>
	<path class="st6" d="M68.9,133L68.9,133c0-2.2,1.3-3.6,3.1-3.6c0.8,0,1.6,0.3,2.2,0.9l-0.7,0.9c-0.4-0.4-0.9-0.7-1.5-0.7
		c-1.1,0-1.9,1-1.9,2.5l0,0c0,1.5,0.8,2.5,1.9,2.5c0.6,0,1.2-0.3,1.6-0.7l0.7,0.8c-0.6,0.7-1.4,1-2.3,1
		C70.2,136.6,68.9,135.2,68.9,133z"/>
	<path class="st6" d="M75.4,129.5h1.2v7h-1.2V129.5z"/>
	<path class="st6" d="M78,131.2h1.3v1.3H78V131.2z M78,135.2h1.3v1.3H78V135.2z"/>
	<path class="st6" d="M82.8,135.6l0.7-0.8c0.4,0.5,0.9,0.7,1.5,0.7c0.6,0,1.1-0.4,1.1-1c0,0,0-0.1,0-0.1l0,0c0-0.7-0.6-1.1-1.6-1.1
		h-0.3l-0.2-0.7l1.7-2h-2.7v-1h4.1v0.9l-1.8,2c1,0,1.9,0.9,1.9,1.9l0,0c0,1.2-0.9,2.2-2.1,2.2c-0.1,0-0.1,0-0.2,0
		C84.2,136.6,83.4,136.3,82.8,135.6z"/>
	<path class="st6" d="M91.9,133.4c-0.4,0.4-0.9,0.7-1.5,0.6c-1.1,0.1-2.1-0.7-2.1-1.8c0-0.1,0-0.2,0-0.4l0,0
		c-0.1-1.3,0.9-2.3,2.2-2.4c0.1,0,0.1,0,0.2,0c0.6,0,1.2,0.2,1.7,0.6c0.6,0.8,0.9,1.7,0.8,2.7v0.1c0,2.4-1,3.8-2.7,3.8
		c-0.7,0-1.4-0.2-1.9-0.7l0.6-0.9c0.4,0.3,0.8,0.5,1.3,0.6C91.4,135.5,91.9,134.5,91.9,133.4z M91.9,131.7L91.9,131.7
		c0.1-0.7-0.4-1.3-1.1-1.4s-1.3,0.4-1.4,1.1c0,0.1,0,0.2,0,0.3l0,0c0,0.6,0.4,1.2,1.1,1.3c0,0,0.1,0,0.1,0
		C91.3,133,91.8,132.5,91.9,131.7C91.9,131.8,91.9,131.8,91.9,131.7L91.9,131.7z"/>
	<path class="st6" d="M94,131.2L94,131.2c0-0.9,0.7-1.6,1.5-1.6s1.5,0.7,1.5,1.5v0.1c0.1,0.8-0.5,1.6-1.3,1.7
		c-0.8,0.1-1.6-0.5-1.7-1.3C94,131.5,94,131.4,94,131.2z M99.2,129.5h0.9l-2.4,3.7l-2.1,3.3h-0.9l2.4-3.7L99.2,129.5z M94.8,131.2
		L94.8,131.2c0,0.6,0.3,1,0.7,1s0.7-0.4,0.7-1l0,0c0-0.6-0.3-1-0.7-1S94.8,130.6,94.8,131.2L94.8,131.2z M97.8,134.8L97.8,134.8
		c-0.1-0.9,0.5-1.6,1.3-1.7c0.8-0.1,1.6,0.5,1.7,1.3c0,0.1,0,0.2,0,0.3v0.1c0.1,0.8-0.5,1.6-1.3,1.7c-0.8,0.1-1.6-0.5-1.7-1.3
		C97.8,135,97.8,134.9,97.8,134.8z M100,134.8L100,134.8c0-0.6-0.3-1-0.7-1s-0.7,0.4-0.7,1l0,0c0,0.6,0.3,1,0.7,1
		S99.9,135.4,100,134.8L100,134.8z"/>
	<path class="st6" d="M101.7,132.9h4v1.1h-4V132.9z"/>
	<path class="st6" d="M106.5,135.7l0.7-0.9c0.4,0.4,0.9,0.6,1.5,0.7c0.7,0,1.2-0.5,1.2-1.1c0,0,0-0.1,0-0.1l0,0
		c0-0.6-0.5-1.2-1.2-1.2c0,0-0.1,0-0.1,0c-0.4,0-0.7,0.1-1.1,0.3l-0.7-0.4l0.2-3.4h3.7v1.1h-2.7l-0.1,1.6c0.3-0.1,0.6-0.2,0.9-0.2
		c1.1-0.1,2.1,0.7,2.2,1.8c0,0.1,0,0.3,0,0.4l0,0c0.1,1.2-0.9,2.3-2.1,2.4c-0.1,0-0.2,0-0.3,0C107.9,136.6,107.1,136.3,106.5,135.7z
		"/>
	<path class="st6" d="M113.1,130.6L112,131l-0.2-1l1.6-0.5h0.8v7h-1.2L113.1,130.6z"/>
	<path class="st6" d="M115.4,131.2L115.4,131.2c0-0.9,0.7-1.6,1.5-1.6s1.5,0.7,1.5,1.5v0.1c0.1,0.8-0.5,1.6-1.3,1.7
		c-0.8,0.1-1.6-0.5-1.7-1.3C115.4,131.5,115.4,131.4,115.4,131.2z M120.7,129.5h0.9l-2.4,3.7l-2.1,3.3h-0.9l2.4-3.7L120.7,129.5z
		 M116.3,131.2L116.3,131.2c0,0.6,0.3,1,0.7,1s0.7-0.4,0.7-1l0,0c0-0.6-0.3-1-0.7-1S116.3,130.6,116.3,131.2L116.3,131.2z
		 M119.3,134.8L119.3,134.8c-0.1-0.9,0.5-1.6,1.3-1.7c0.8-0.1,1.6,0.5,1.7,1.3c0,0.1,0,0.2,0,0.3v0.1c0.1,0.8-0.5,1.6-1.3,1.7
		c-0.8,0.1-1.6-0.5-1.7-1.3C119.3,135,119.3,134.9,119.3,134.8z M121.4,134.8L121.4,134.8c0-0.6-0.3-1-0.7-1s-0.7,0.4-0.7,1l0,0
		c0,0.6,0.3,1,0.7,1S121.4,135.4,121.4,134.8L121.4,134.8z"/>
	<path class="st6" d="M123,137.1c1.9-1.3,2.4-4,1.1-5.9c-0.3-0.4-0.7-0.8-1.1-1.1l0.4-0.7c2.3,1.3,3.2,4.2,2,6.5
		c-0.4,0.8-1.1,1.5-2,2L123,137.1z"/>
	<path class="st6" d="M139.4,94.9h5.9v1h-4.9v3.6h4.4v1h-4.4v4.3h-1.1L139.4,94.9z"/>
	<path class="st6" d="M146.2,99.9v-0.1c0-2.9,1.7-5,4.2-5s4.2,2.1,4.2,5v0.1c0,2.9-1.7,5-4.2,5S146.2,102.8,146.2,99.9z M153.6,99.9
		L153.6,99.9c0-2.5-1.3-4.1-3.1-4.1s-3.1,1.7-3.1,4v0.1c0,2.4,1.3,4,3.1,4S153.6,102.3,153.6,99.9L153.6,99.9z"/>
	<path class="st6" d="M156.3,94.9h1.1v8.8h4.6v1h-5.6V94.9z"/>
	<path class="st6" d="M163.2,94.9h5.9v1h-4.9v3.6h4.4v1h-4.4v4.3h-1.1V94.9z"/>
	<path class="st6" d="M170,99.9v-0.1c0-2.9,1.7-5,4.2-5s4.2,2.1,4.2,5v0.1c0,2.9-1.7,5-4.2,5S170,102.8,170,99.9z M177.4,99.9
		L177.4,99.9c0-2.5-1.3-4.1-3.1-4.1s-3.1,1.7-3.1,4v0.1c0,2.4,1.3,4,3.1,4S177.4,102.3,177.4,99.9L177.4,99.9z"/>
	<path class="st6" d="M186.3,94.9l-3,4.8l3.2,5h-1.2l-2.6-4.2l-2.7,4.3h-1.2l3.2-5l-3-4.8h1.2l2.4,4l2.5-4L186.3,94.9z"/>
	<path class="st6" d="M190.5,102.6L190.5,102.6c0-1.6,1.1-2.4,2.7-2.4c0.6,0,1.3,0.1,1.9,0.3v-0.4c0.1-0.9-0.6-1.7-1.5-1.8
		c-0.1,0-0.2,0-0.4,0c-0.7,0-1.3,0.2-1.9,0.5l-0.3-0.8c0.7-0.4,1.5-0.6,2.3-0.6c0.7,0,1.5,0.2,2,0.7c0.5,0.5,0.7,1.3,0.7,2v4.7h-1
		v-1.1c-0.5,0.8-1.3,1.2-2.2,1.2c-1.2,0-2.3-0.9-2.3-2.2C190.5,102.7,190.5,102.7,190.5,102.6z M195,102.2v-0.9
		c-0.6-0.2-1.2-0.3-1.8-0.3c-1.2,0-1.8,0.6-1.8,1.5l0,0c0,0.8,0.6,1.5,1.4,1.5c0,0,0.1,0,0.1,0C194.1,104.1,194.9,103.3,195,102.2
		C195,102.2,195,102.2,195,102.2L195,102.2z"/>
	<path class="st6" d="M197.6,94.6h1v10.1h-1V94.6z"/>
	<path class="st6" d="M200,101.2L200,101.2c0-2.2,1.4-3.8,3.2-3.8s3.2,1.6,3.2,3.7v0.1c0,2.1-1.4,3.8-3.2,3.8S200,103.3,200,101.2z
		 M205.5,101.2L205.5,101.2c0-1.7-1-2.9-2.2-2.9s-2.2,1.2-2.2,2.8v0.1c0,1.6,1,2.9,2.2,2.9S205.4,102.8,205.5,101.2L205.5,101.2z"/>
	<path class="st6" d="M207.8,97.4h1v1.2c0.4-0.8,1.2-1.3,2.2-1.3c1.5,0,2.4,1,2.4,2.7v4.8h-1v-4.5c0-1.3-0.6-2-1.7-2
		c-1,0-1.9,0.9-1.9,1.9c0,0.1,0,0.1,0,0.2v4.4h-1L207.8,97.4z"/>
	<path class="st6" d="M214.5,101.2L214.5,101.2c0-2.3,1.3-3.8,3-3.8s2.9,1.6,2.9,3.8c0,0.1,0,0.3,0,0.4h-4.9
		c-0.1,1.3,0.9,2.4,2.2,2.5c0,0,0,0,0,0c0.7,0,1.4-0.3,1.9-0.8l0.6,0.6c-0.6,0.7-1.6,1.1-2.5,1.1C216,104.9,214.5,103.5,214.5,101.2
		z M219.4,100.7c-0.1-1.4-0.7-2.5-1.9-2.5s-1.9,1-2,2.5H219.4z"/>
	<path class="st6" d="M139.1,117.5c-0.1-2.5,1.3-4.8,3.5-6l0.4,0.7c-2.9,1.9-3.8,5.8-1.8,8.8c0.5,0.7,1.1,1.4,1.8,1.8l-0.4,0.7
		C140.4,122.3,139,120,139.1,117.5z"/>
	<path class="st6" d="M143.5,114.2h1v1.2c0.4-0.8,1.2-1.3,2.2-1.3c1.5,0,2.4,1,2.4,2.7v4.8h-1V117c0-1.3-0.6-2-1.7-2
		c-1,0-1.9,0.9-1.9,1.9c0,0.1,0,0.1,0,0.2v4.4h-1L143.5,114.2z"/>
	<path class="st6" d="M153.9,114.7h5.8v1h-5.8V114.7z M153.9,117.6h5.8v1h-5.8V117.6z"/>
	<path class="st6" d="M164,120.7l3.2-3.5c1.2-1.3,1.6-2,1.6-2.9c0-0.9-0.7-1.7-1.6-1.8c0,0-0.1,0-0.1,0c-0.9,0-1.8,0.6-2.2,1.4
		l-0.7-0.6c0.6-1.1,1.8-1.8,3-1.8c1.4-0.1,2.7,1,2.8,2.4c0,0.1,0,0.1,0,0.2l0,0c0,1.3-0.6,2.1-2,3.5l-2.4,2.8h4.6v1h-6V120.7z"/>
	<path class="st6" d="M171.1,120.5l0.6-0.8c0.6,0.6,1.4,1,2.3,1c1.1,0,2.1-0.9,2.1-2c0-0.1,0-0.1,0-0.2l0,0c0-1.1-0.9-2-2-2
		c0,0-0.1,0-0.1,0c-0.6,0-1.2,0.2-1.7,0.4l-0.7-0.5l0.2-4.7h4.9v1h-4l-0.2,3.1c0.5-0.2,1-0.3,1.6-0.3c1.6-0.1,2.9,1.1,3,2.6
		c0,0.1,0,0.2,0,0.4l0,0c0.1,1.7-1.2,3.1-2.9,3.2c-0.1,0-0.2,0-0.3,0C172.9,121.7,171.9,121.3,171.1,120.5z"/>
	<path class="st6" d="M178,120.3l0.7-0.7c0.6,0.7,1.4,1.1,2.3,1.1c1,0.1,1.9-0.7,2-1.8c0-0.1,0-0.1,0-0.2l0,0c0-1.3-1.1-1.9-2.6-1.9
		H180l-0.1-0.7l2.7-3.5h-4.2v-1h5.5v0.8l-2.7,3.5c1.5,0.2,2.9,1,2.9,2.7l0,0c0,1.6-1.2,3-2.8,3c-0.1,0-0.1,0-0.2,0
		C179.9,121.7,178.7,121.2,178,120.3z"/>
	<path class="st6" d="M185.1,122.8c2.9-1.9,3.8-5.8,1.8-8.8c-0.5-0.7-1.1-1.4-1.8-1.8l0.4-0.7c3.3,1.9,4.5,6,2.6,9.3
		c-0.6,1.1-1.5,2-2.6,2.6L185.1,122.8z"/>
</g>
</svg>
