<svg xmlns="http://www.w3.org/2000/svg" viewBox="0 0 406.21 189.86"><defs><style>.cls-1{fill:#58595b;}.cls-2{fill:#0093c9;}.cls-3{fill:#fff;}.cls-4,.cls-5{fill:none;stroke-miterlimit:10;}.cls-4{stroke:#0093c9;}.cls-5{stroke:#fff;}</style></defs><title>kras-exor-2-analysis-lg</title><g id="Layer_2" data-name="Layer 2"><g id="Layer_1-2" data-name="Layer 1"><polygon class="cls-1" points="78.7 71.79 78.7 0.5 145.16 0.5 155.46 36.76 145.16 71.79 78.7 71.79"/><polygon class="cls-1" points="78.7 147.79 78.7 76.5 145.16 76.5 155.46 112.76 145.16 147.79 78.7 147.79"/><rect class="cls-2" x="167.7" y="76.5" width="71.9" height="71.29"/><rect class="cls-1" y="0.5" width="75.27" height="147.29"/><rect class="cls-2" x="167.7" y="0.5" width="71.9" height="71.29"/><rect class="cls-2" x="244.31" y="76.5" width="71.9" height="71.29"/><rect class="cls-2" x="244.31" y="0.5" width="71.9" height="71.29"/><rect class="cls-2" x="320.92" y="76.5" width="71.9" height="71.29"/><rect class="cls-2" x="320.92" y="0.5" width="71.9" height="71.29"/><path class="cls-3" d="M183.76,35.57v-14h5.36v2.32H186.2v3.48h2.58v2.32H186.2v3.56h3v2.32Z"/><path class="cls-3" d="M194.7,21.57h2.54L195,28.43l2.28,7.14h-2.6l-1.18-4.26-1.2,4.26H189.8l2.28-7.14-2.2-6.86h2.6l1.1,4.06Z"/><path class="cls-3" d="M204.4,34A3,3,0,0,1,199,34a10.42,10.42,0,0,1-1-5.1v-.72a10.42,10.42,0,0,1,1-5.1,3,3,0,0,1,5.44,0,10.42,10.42,0,0,1,1,5.1v.72A10.42,10.42,0,0,1,204.4,34ZM201,33.15a.76.76,0,0,0,1.32,0,3.78,3.78,0,0,0,.42-1.43,19.36,19.36,0,0,0,.16-2.79v-.72a19.36,19.36,0,0,0-.16-2.79,3.78,3.78,0,0,0-.42-1.43A.76.76,0,0,0,201,24a3.78,3.78,0,0,0-.42,1.43,19.36,19.36,0,0,0-.16,2.79v.72a19.36,19.36,0,0,0,.16,2.79A3.78,3.78,0,0,0,201,33.15Z"/><path class="cls-3" d="M206.6,35.57v-14h2.26l2.52,7.24V21.57h2.34v14h-2.14L208.94,28v7.58Z"/><path class="cls-3" d="M218,35.57V33.51l2.54-5.36a8.68,8.68,0,0,0,1-3.08,1.4,1.4,0,0,0-.34-1,1.26,1.26,0,0,0-1-.39,3.67,3.67,0,0,0-1.94.68V22.05a5.48,5.48,0,0,1,2.5-.68,3.09,3.09,0,0,1,2.3.87,3.28,3.28,0,0,1,.86,2.41v.1a8.85,8.85,0,0,1-1.08,3.82l-2.26,4.6h3.28v2.4Z"/><path class="cls-3" d="M175.57,48.13v-.28c0-3.29,1.25-4.82,2.69-4.82a2,2,0,0,1,1,.22v1a1.81,1.81,0,0,0-1-.31c-1,0-1.82,1.25-1.82,3.94v.28c0,2.73.81,3.94,1.82,3.94a1.82,1.82,0,0,0,1-.31v.91a2,2,0,0,1-1.08.28C176.73,52.95,175.57,51.41,175.57,48.13Z"/><path class="cls-3" d="M180.16,49.31V49.1c0-2.34,1-3.71,2.16-3.71s2.14,1.37,2.14,3.71v.21c0,2.34-1,3.71-2.16,3.71S180.16,51.65,180.16,49.31Zm3.42,0v-.22c0-1.81-.56-2.9-1.27-2.9S181,47.27,181,49.08v.22c0,1.81.56,2.91,1.27,2.91S183.58,51.11,183.58,49.31Z"/><path class="cls-3" d="M185.31,49.38V49c0-2.44.85-3.64,1.82-3.64.74,0,1.2.67,1.48,1.4V43h.88v9.89h-.88V51.6c-.28.74-.74,1.41-1.48,1.41C186.17,53,185.31,51.84,185.31,49.38Zm3.33,0V49c0-1.81-.62-2.82-1.27-2.82s-1.19,1-1.19,2.86v.31c0,1.83.52,2.86,1.19,2.86S188.65,51.2,188.65,49.39Z"/><path class="cls-3" d="M190.58,49.31V49.1c0-2.34,1-3.71,2.16-3.71s2.14,1.37,2.14,3.71v.21c0,2.34-1,3.71-2.16,3.71S190.58,51.65,190.58,49.31Zm3.42,0v-.22c0-1.81-.56-2.9-1.27-2.9s-1.27,1.09-1.27,2.9v.22c0,1.81.56,2.91,1.27,2.91S194,51.11,194,49.31Z"/><path class="cls-3" d="M196,45.5h.87v1a1.62,1.62,0,0,1,1.47-1.16c1,0,1.61.83,1.61,2.23v5.29H199V47.75c0-1-.38-1.61-1-1.61s-1.18.67-1.18,1.69v5.06H196Z"/><path class="cls-3" d="M200.84,52.64v-.88a3.36,3.36,0,0,0,1.47.43.93.93,0,0,0,1-1v0c0-.46-.25-.91-1.08-1.7-1-1-1.39-1.55-1.39-2.35v0a1.69,1.69,0,0,1,1.79-1.74,2.87,2.87,0,0,1,1.22.24v.88a2.58,2.58,0,0,0-1.22-.31.86.86,0,0,0-.92.88v0c0,.46.24.81,1.09,1.65,1,1,1.37,1.6,1.37,2.4v0A1.76,1.76,0,0,1,202.33,53,3.36,3.36,0,0,1,200.84,52.64Z"/><path class="cls-3" d="M208,44.12l-1,.53v-1l1.19-.6h.73v9.82H208Z"/><path class="cls-3" d="M210.11,52.21l2.17-4.55a5.23,5.23,0,0,0,.69-2.34,1.24,1.24,0,0,0-1.23-1.39,2.51,2.51,0,0,0-1.39.43v-.92a2.86,2.86,0,0,1,1.5-.41,2,2,0,0,1,2,2.14v.06a6,6,0,0,1-.81,2.73l-1.92,4h2.77v.9h-3.81Z"/><path class="cls-3" d="M217,50.55v-.08a4.07,4.07,0,0,1,1.55-3.08,4.93,4.93,0,0,1-.92-2.42v-.08A1.83,1.83,0,0,1,219.33,43,1.73,1.73,0,0,1,221,44.82v.08a3.58,3.58,0,0,1-1.5,2.68l1.39,2.59a14.76,14.76,0,0,0,.39-2l.74.13a11.26,11.26,0,0,1-.63,2.66l.92,1.63-.7.42-.69-1.29a2.09,2.09,0,0,1-4-1.18Zm3.57.5-1.62-3a3.19,3.19,0,0,0-1,2.37v.1c0,1,.49,1.7,1.23,1.7S220.15,51.74,220.53,51.06Zm-.32-6.14v-.07c0-.6-.34-1.12-.88-1.12a1,1,0,0,0-.92,1.13v.06a4.13,4.13,0,0,0,.74,2A2.67,2.67,0,0,0,220.2,44.92Z"/><path class="cls-3" d="M226,44.12l-1,.53v-1l1.19-.6H227v9.82H226Z"/><path class="cls-3" d="M228.08,52.71v-.87a2.84,2.84,0,0,0,1.26.27c.83,0,1.57-.78,1.57-2.1v-.08c0-1.25-.73-1.81-2-1.92v-.62L230.77,44h-2.65v-.91h3.66v.71l-1.92,3.53a2.37,2.37,0,0,1,2,2.54V50c0,1.83-1.11,3-2.45,3A3,3,0,0,1,228.08,52.71Z"/><path class="cls-3" d="M260.85,35.57v-14h5.36v2.32h-2.92v3.48h2.58v2.32h-2.58v3.56h3v2.32Z"/><path class="cls-3" d="M271.79,21.57h2.54l-2.2,6.86,2.28,7.14h-2.6l-1.18-4.26-1.2,4.26h-2.54l2.28-7.14L267,21.57h2.6l1.1,4.06Z"/><path class="cls-3" d="M281.49,34a3,3,0,0,1-5.44,0,10.42,10.42,0,0,1-1-5.1v-.72a10.42,10.42,0,0,1,1-5.1,3,3,0,0,1,5.44,0,10.43,10.43,0,0,1,1,5.1v.72A10.43,10.43,0,0,1,281.49,34Zm-3.38-.88a.76.76,0,0,0,1.32,0,3.76,3.76,0,0,0,.42-1.43,19.22,19.22,0,0,0,.16-2.79v-.72a19.22,19.22,0,0,0-.16-2.79,3.76,3.76,0,0,0-.42-1.43.76.76,0,0,0-1.32,0,3.76,3.76,0,0,0-.42,1.43,19.22,19.22,0,0,0-.16,2.79v.72a19.22,19.22,0,0,0,.16,2.79A3.76,3.76,0,0,0,278.11,33.15Z"/><path class="cls-3" d="M283.69,35.57v-14H286l2.52,7.24V21.57h2.34v14h-2.14L286,28v7.58Z"/><path class="cls-3" d="M297.07,35.77a5.4,5.4,0,0,1-2.08-.38V33.07a4.61,4.61,0,0,0,1.76.38,1.63,1.63,0,0,0,1.25-.53,2.08,2.08,0,0,0,.49-1.47v-.16q0-2-2.44-2.16v-1.6L298.33,24h-3.16V21.57h5.64v2.18l-2.36,3.66a3.49,3.49,0,0,1,2.44,3.7v.22a4.69,4.69,0,0,1-1.07,3.24A3.52,3.52,0,0,1,297.07,35.77Z"/><path class="cls-3" d="M251.32,48.13v-.28c0-3.29,1.25-4.82,2.69-4.82a2,2,0,0,1,1,.22v1a1.81,1.81,0,0,0-1-.31c-1,0-1.82,1.25-1.82,3.94v.28c0,2.73.81,3.94,1.82,3.94a1.82,1.82,0,0,0,1-.31v.91a2,2,0,0,1-1.08.28C252.49,52.95,251.32,51.41,251.32,48.13Z"/><path class="cls-3" d="M255.92,49.31V49.1c0-2.34,1-3.71,2.16-3.71s2.14,1.37,2.14,3.71v.21c0,2.34-1,3.71-2.16,3.71S255.92,51.65,255.92,49.31Zm3.42,0v-.22c0-1.81-.56-2.9-1.27-2.9s-1.28,1.09-1.28,2.9v.22c0,1.81.56,2.91,1.28,2.91S259.33,51.11,259.33,49.31Z"/><path class="cls-3" d="M261.07,49.38V49c0-2.44.85-3.64,1.82-3.64.74,0,1.21.67,1.49,1.4V43h.88v9.89h-.88V51.6c-.28.74-.74,1.41-1.49,1.41C261.92,53,261.07,51.84,261.07,49.38Zm3.33,0V49c0-1.81-.62-2.82-1.28-2.82s-1.19,1-1.19,2.86v.31c0,1.83.52,2.86,1.19,2.86S264.4,51.2,264.4,49.39Z"/><path class="cls-3" d="M266.33,49.31V49.1c0-2.34,1-3.71,2.16-3.71s2.14,1.37,2.14,3.71v.21c0,2.34-1,3.71-2.16,3.71S266.33,51.65,266.33,49.31Zm3.42,0v-.22c0-1.81-.56-2.9-1.27-2.9s-1.28,1.09-1.28,2.9v.22c0,1.81.56,2.91,1.28,2.91S269.75,51.11,269.75,49.31Z"/><path class="cls-3" d="M271.71,45.5h.87v1A1.62,1.62,0,0,1,274,45.37c1,0,1.61.83,1.61,2.23v5.29h-.87V47.75c0-1-.38-1.61-1-1.61s-1.18.67-1.18,1.69v5.06h-.87Z"/><path class="cls-3" d="M276.59,52.64v-.88a3.36,3.36,0,0,0,1.47.43.93.93,0,0,0,1-1v0c0-.46-.25-.91-1.08-1.7-1-1-1.39-1.55-1.39-2.35v0a1.69,1.69,0,0,1,1.79-1.74,2.87,2.87,0,0,1,1.22.24v.88a2.58,2.58,0,0,0-1.22-.31.86.86,0,0,0-.92.88v0c0,.46.24.81,1.09,1.65,1,1,1.37,1.6,1.37,2.4v0A1.76,1.76,0,0,1,278.08,53,3.36,3.36,0,0,1,276.59,52.64Z"/><path class="cls-3" d="M283,52.71v-.88a2.58,2.58,0,0,0,1.16.28c.94,0,1.63-.94,1.63-2.34V49.7c0-1.44-.64-2-1.39-2a2,2,0,0,0-.87.18l-.53-.35.21-4.48h3.11V44h-2.38L283.78,47a2.06,2.06,0,0,1,.8-.15c1.09,0,2.09.81,2.09,2.8v.08c0,1.92-1.05,3.21-2.48,3.21A2.6,2.6,0,0,1,283,52.71Z"/><path class="cls-3" d="M287.93,52.71v-.9a2.55,2.55,0,0,0,1.12.29c1,0,1.57-1.15,1.64-3.4a1.89,1.89,0,0,1-1.36.63c-1,0-1.88-.83-1.88-3v-.1c0-2,.91-3.29,2.07-3.29s2,1,2,4.3v.39c0,3.91-1.05,5.31-2.49,5.31A2.68,2.68,0,0,1,287.93,52.71Zm2.76-4.79v-1c0-2.45-.57-3.15-1.18-3.15s-1.19,1-1.19,2.45v.1c0,1.58.55,2.21,1.19,2.21A1.74,1.74,0,0,0,290.69,47.92Z"/><path class="cls-3" d="M294.7,50.55v-.08a4.07,4.07,0,0,1,1.55-3.08,4.93,4.93,0,0,1-.92-2.42v-.08A1.83,1.83,0,0,1,297.08,43a1.73,1.73,0,0,1,1.68,1.86v.08a3.58,3.58,0,0,1-1.5,2.68l1.39,2.59a14.76,14.76,0,0,0,.39-2l.74.13a11.26,11.26,0,0,1-.63,2.66l.92,1.63-.7.42-.69-1.29a2.09,2.09,0,0,1-4-1.18Zm3.57.5-1.62-3a3.19,3.19,0,0,0-1,2.37v.1c0,1,.49,1.7,1.23,1.7S297.89,51.74,298.27,51.06Zm-.32-6.14v-.07c0-.6-.34-1.12-.88-1.12a1,1,0,0,0-.92,1.13v.06a4.13,4.13,0,0,0,.74,2A2.67,2.67,0,0,0,297.94,44.92Z"/><path class="cls-3" d="M303,48.72v-.39C303,44.42,304,43,305.49,43a2.2,2.2,0,0,1,1,.21v.9a2.08,2.08,0,0,0-1-.25c-1,0-1.58,1.19-1.64,3.52a1.91,1.91,0,0,1,1.36-.63c1,0,1.88.83,1.88,2.93v.11c0,1.93-.9,3.22-2.06,3.22S303,52,303,48.72Zm3.26,1.11V49.7c0-1.5-.56-2.14-1.19-2.14a1.74,1.74,0,0,0-1.19.62v.88c0,2.45.59,3.15,1.19,3.15S306.25,51.2,306.25,49.82Z"/><path class="cls-3" d="M308.79,44.12l-1,.53v-1l1.19-.6h.73v9.82h-.91Z"/><path class="cls-3" d="M336.77,35.57v-14h5.36v2.32h-2.92v3.48h2.58v2.32h-2.58v3.56h3v2.32Z"/><path class="cls-3" d="M347.71,21.57h2.54l-2.2,6.86,2.28,7.14h-2.6l-1.18-4.26-1.2,4.26h-2.54l2.28-7.14-2.2-6.86h2.6l1.1,4.06Z"/><path class="cls-3" d="M357.41,34A3,3,0,0,1,352,34a10.42,10.42,0,0,1-1-5.1v-.72a10.42,10.42,0,0,1,1-5.1,3,3,0,0,1,5.44,0,10.43,10.43,0,0,1,1,5.1v.72A10.43,10.43,0,0,1,357.41,34ZM354,33.15a.76.76,0,0,0,1.32,0,3.76,3.76,0,0,0,.42-1.43,19.22,19.22,0,0,0,.16-2.79v-.72a19.22,19.22,0,0,0-.16-2.79,3.76,3.76,0,0,0-.42-1.43A.76.76,0,0,0,354,24a3.76,3.76,0,0,0-.42,1.43,19.22,19.22,0,0,0-.16,2.79v.72a19.22,19.22,0,0,0,.16,2.79A3.76,3.76,0,0,0,354,33.15Z"/><path class="cls-3" d="M359.61,35.57v-14h2.26l2.52,7.24V21.57h2.34v14h-2.14L362,28v7.58Z"/><path class="cls-3" d="M374.71,35.57V33h-3.8V31.13l3.68-9.6H377v9.36h1.14V33H377v2.58Zm-1.82-4.68h1.82V25.77Z"/><path class="cls-3" d="M324.93,48.13v-.28c0-3.29,1.25-4.82,2.69-4.82a2,2,0,0,1,1,.22v1a1.81,1.81,0,0,0-1-.31c-1,0-1.82,1.25-1.82,3.94v.28c0,2.73.81,3.94,1.82,3.94a1.82,1.82,0,0,0,1-.31v.91a2,2,0,0,1-1.08.28C326.1,52.95,324.93,51.41,324.93,48.13Z"/><path class="cls-3" d="M329.53,49.31V49.1c0-2.34,1-3.71,2.16-3.71s2.14,1.37,2.14,3.71v.21c0,2.34-1,3.71-2.16,3.71S329.53,51.65,329.53,49.31Zm3.42,0v-.22c0-1.81-.56-2.9-1.27-2.9s-1.27,1.09-1.27,2.9v.22c0,1.81.56,2.91,1.27,2.91S332.94,51.11,332.94,49.31Z"/><path class="cls-3" d="M334.68,49.38V49c0-2.44.85-3.64,1.82-3.64.74,0,1.21.67,1.48,1.4V43h.88v9.89H338V51.6c-.28.74-.74,1.41-1.48,1.41C335.53,53,334.68,51.84,334.68,49.38Zm3.33,0V49c0-1.81-.62-2.82-1.27-2.82s-1.19,1-1.19,2.86v.31c0,1.83.52,2.86,1.19,2.86S338,51.2,338,49.39Z"/><path class="cls-3" d="M339.94,49.31V49.1c0-2.34,1-3.71,2.16-3.71s2.14,1.37,2.14,3.71v.21c0,2.34-1,3.71-2.16,3.71S339.94,51.65,339.94,49.31Zm3.42,0v-.22c0-1.81-.56-2.9-1.27-2.9s-1.27,1.09-1.27,2.9v.22c0,1.81.56,2.91,1.27,2.91S343.36,51.11,343.36,49.31Z"/><path class="cls-3" d="M345.32,45.5h.87v1a1.62,1.62,0,0,1,1.47-1.16c1,0,1.61.83,1.61,2.23v5.29h-.87V47.75c0-1-.38-1.61-1-1.61s-1.18.67-1.18,1.69v5.06h-.87Z"/><path class="cls-3" d="M350.2,52.64v-.88a3.36,3.36,0,0,0,1.47.43.93.93,0,0,0,1-1v0c0-.46-.25-.91-1.08-1.7-1-1-1.39-1.55-1.39-2.35v0A1.69,1.69,0,0,1,352,45.4a2.87,2.87,0,0,1,1.22.24v.88a2.58,2.58,0,0,0-1.22-.31.86.86,0,0,0-.92.88v0c0,.46.24.81,1.09,1.65,1,1,1.37,1.6,1.37,2.4v0A1.76,1.76,0,0,1,351.69,53,3.36,3.36,0,0,1,350.2,52.64Z"/><path class="cls-3" d="M357.38,44.12l-1,.53v-1l1.19-.6h.73v9.82h-.91Z"/><path class="cls-3" d="M360.44,44.12l-1,.53v-1l1.19-.6h.73v9.82h-.91Z"/><path class="cls-3" d="M365.18,44h-2.62v-.91h3.5v.71L364,52.89h-.9Z"/><path class="cls-3" d="M369.12,50.55v-.08a4.07,4.07,0,0,1,1.55-3.08,4.94,4.94,0,0,1-.92-2.42v-.08A1.83,1.83,0,0,1,371.5,43a1.73,1.73,0,0,1,1.68,1.86v.08a3.58,3.58,0,0,1-1.5,2.68l1.39,2.59a14.75,14.75,0,0,0,.39-2l.74.13a11.26,11.26,0,0,1-.63,2.66l.92,1.63-.7.42-.69-1.29a2.09,2.09,0,0,1-4-1.18Zm3.57.5-1.62-3A3.19,3.19,0,0,0,370,50.4v.1c0,1,.49,1.7,1.23,1.7S372.31,51.74,372.69,51.06Zm-.32-6.14v-.07c0-.6-.34-1.12-.88-1.12a1,1,0,0,0-.92,1.13v.06a4.12,4.12,0,0,0,.74,2A2.67,2.67,0,0,0,372.37,44.92Z"/><path class="cls-3" d="M378.2,44.12l-1,.53v-1l1.19-.6h.73v9.82h-.91Z"/><path class="cls-3" d="M383.06,50.76H380.2v-.7l2.87-7h.83V50h.78v.78h-.78v2.13h-.84Zm0-.78V44.87L381,50Z"/><path class="cls-3" d="M385.42,48.72v-.39c0-3.91,1-5.31,2.51-5.31a2.2,2.2,0,0,1,1,.21v.9a2.08,2.08,0,0,0-1-.25c-1,0-1.58,1.19-1.64,3.52a1.92,1.92,0,0,1,1.36-.63c1,0,1.88.83,1.88,2.93v.11c0,1.93-.9,3.22-2.06,3.22S385.42,52,385.42,48.72Zm3.26,1.11V49.7c0-1.5-.56-2.14-1.19-2.14a1.75,1.75,0,0,0-1.19.62v.88c0,2.45.59,3.15,1.19,3.15S388.69,51.2,388.69,49.82Z"/><path class="cls-3" d="M183.76,111.32v-14h5.36v2.32H186.2v3.48h2.58v2.32H186.2V109h3v2.32Z"/><path class="cls-3" d="M194.7,97.32h2.54l-2.2,6.86,2.28,7.14h-2.6l-1.18-4.26-1.2,4.26H189.8l2.28-7.14-2.2-6.86h2.6l1.1,4.06Z"/><path class="cls-3" d="M204.4,109.78a3,3,0,0,1-5.44,0,10.42,10.42,0,0,1-1-5.1V104a10.42,10.42,0,0,1,1-5.1,3,3,0,0,1,5.44,0,10.42,10.42,0,0,1,1,5.1v.72A10.42,10.42,0,0,1,204.4,109.78ZM201,108.9a.76.76,0,0,0,1.32,0,3.78,3.78,0,0,0,.42-1.43,19.36,19.36,0,0,0,.16-2.79V104a19.36,19.36,0,0,0-.16-2.79,3.78,3.78,0,0,0-.42-1.43.76.76,0,0,0-1.32,0,3.78,3.78,0,0,0-.42,1.43,19.36,19.36,0,0,0-.16,2.79v.72a19.36,19.36,0,0,0,.16,2.79A3.78,3.78,0,0,0,201,108.9Z"/><path class="cls-3" d="M206.6,111.32v-14h2.26l2.52,7.24V97.32h2.34v14h-2.14l-2.64-7.58v7.58Z"/><path class="cls-3" d="M218,111.32v-2.06l2.54-5.36a8.68,8.68,0,0,0,1-3.08,1.4,1.4,0,0,0-.34-1,1.26,1.26,0,0,0-1-.39,3.67,3.67,0,0,0-1.94.68V97.8a5.48,5.48,0,0,1,2.5-.68,3.09,3.09,0,0,1,2.3.87,3.28,3.28,0,0,1,.86,2.41v.1a8.85,8.85,0,0,1-1.08,3.82l-2.26,4.6h3.28v2.4Z"/><path class="cls-3" d="M175.57,123.88v-.28c0-3.29,1.25-4.82,2.69-4.82a2,2,0,0,1,1,.22v1a1.81,1.81,0,0,0-1-.31c-1,0-1.82,1.25-1.82,3.94v.28c0,2.73.81,3.94,1.82,3.94a1.82,1.82,0,0,0,1-.31v.91a2,2,0,0,1-1.08.28C176.73,128.7,175.57,127.16,175.57,123.88Z"/><path class="cls-3" d="M180.16,125.06v-.21c0-2.34,1-3.71,2.16-3.71s2.14,1.37,2.14,3.71v.21c0,2.34-1,3.71-2.16,3.71S180.16,127.4,180.16,125.06Zm3.42,0v-.22c0-1.81-.56-2.9-1.27-2.9S181,123,181,124.83v.22c0,1.81.56,2.91,1.27,2.91S183.58,126.86,183.58,125.06Z"/><path class="cls-3" d="M185.31,125.13v-.36c0-2.44.85-3.64,1.82-3.64.74,0,1.2.67,1.48,1.4v-3.77h.88v9.89h-.88v-1.29c-.28.74-.74,1.41-1.48,1.41C186.17,128.77,185.31,127.59,185.31,125.13Zm3.33,0v-.39c0-1.81-.62-2.82-1.27-2.82s-1.19,1-1.19,2.86v.31c0,1.83.52,2.86,1.19,2.86S188.65,126.95,188.65,125.14Z"/><path class="cls-3" d="M190.58,125.06v-.21c0-2.34,1-3.71,2.16-3.71s2.14,1.37,2.14,3.71v.21c0,2.34-1,3.71-2.16,3.71S190.58,127.4,190.58,125.06Zm3.42,0v-.22c0-1.81-.56-2.9-1.27-2.9s-1.27,1.09-1.27,2.9v.22c0,1.81.56,2.91,1.27,2.91S194,126.86,194,125.06Z"/><path class="cls-3" d="M196,121.25h.87v1a1.62,1.62,0,0,1,1.47-1.16c1,0,1.61.83,1.61,2.23v5.29H199V123.5c0-1-.38-1.61-1-1.61s-1.18.67-1.18,1.69v5.06H196Z"/><path class="cls-3" d="M200.84,128.39v-.88a3.36,3.36,0,0,0,1.47.43.93.93,0,0,0,1-1v0c0-.46-.25-.91-1.08-1.7-1-1-1.39-1.55-1.39-2.35v0a1.69,1.69,0,0,1,1.79-1.74,2.87,2.87,0,0,1,1.22.24v.88a2.58,2.58,0,0,0-1.22-.31.86.86,0,0,0-.92.88v0c0,.46.24.81,1.09,1.65,1,1,1.37,1.6,1.37,2.4v0a1.76,1.76,0,0,1-1.83,1.79A3.36,3.36,0,0,1,200.84,128.39Z"/><path class="cls-3" d="M208,119.87l-1,.53v-1l1.19-.6h.73v9.82H208Z"/><path class="cls-3" d="M210.11,128l2.17-4.55a5.23,5.23,0,0,0,.69-2.34,1.24,1.24,0,0,0-1.23-1.39,2.51,2.51,0,0,0-1.39.43v-.92a2.86,2.86,0,0,1,1.5-.41,2,2,0,0,1,2,2.14V121a6,6,0,0,1-.81,2.73l-1.92,4h2.77v.9h-3.81Z"/><path class="cls-3" d="M217,126.3v-.08a4.07,4.07,0,0,1,1.55-3.08,4.93,4.93,0,0,1-.92-2.42v-.08a1.83,1.83,0,0,1,1.75-1.92,1.73,1.73,0,0,1,1.68,1.86v.08a3.58,3.58,0,0,1-1.5,2.68l1.39,2.59a14.76,14.76,0,0,0,.39-2l.74.13a11.26,11.26,0,0,1-.63,2.66l.92,1.63-.7.42-.69-1.29a2.09,2.09,0,0,1-4-1.18Zm3.57.5-1.62-3a3.19,3.19,0,0,0-1,2.37v.1c0,1,.49,1.7,1.23,1.7S220.15,127.49,220.53,126.81Zm-.32-6.14v-.07c0-.6-.34-1.12-.88-1.12a1,1,0,0,0-.92,1.13v.06a4.13,4.13,0,0,0,.74,2A2.67,2.67,0,0,0,220.2,120.67Z"/><path class="cls-3" d="M226,119.87l-1,.53v-1l1.19-.6H227v9.82H226Z"/><path class="cls-3" d="M228.08,128.46v-.87a2.84,2.84,0,0,0,1.26.27c.83,0,1.57-.78,1.57-2.1v-.08c0-1.25-.73-1.81-2-1.92v-.62l1.83-3.39h-2.65v-.91h3.66v.71l-1.92,3.53a2.37,2.37,0,0,1,2,2.54v.11c0,1.83-1.11,3-2.45,3A3,3,0,0,1,228.08,128.46Z"/><path class="cls-3" d="M260.85,111.32v-14h5.36v2.32h-2.92v3.48h2.58v2.32h-2.58V109h3v2.32Z"/><path class="cls-3" d="M271.79,97.32h2.54l-2.2,6.86,2.28,7.14h-2.6l-1.18-4.26-1.2,4.26h-2.54l2.28-7.14L267,97.32h2.6l1.1,4.06Z"/><path class="cls-3" d="M281.49,109.78a3,3,0,0,1-5.44,0,10.42,10.42,0,0,1-1-5.1V104a10.42,10.42,0,0,1,1-5.1,3,3,0,0,1,5.44,0,10.43,10.43,0,0,1,1,5.1v.72A10.43,10.43,0,0,1,281.49,109.78Zm-3.38-.88a.76.76,0,0,0,1.32,0,3.76,3.76,0,0,0,.42-1.43,19.22,19.22,0,0,0,.16-2.79V104a19.22,19.22,0,0,0-.16-2.79,3.76,3.76,0,0,0-.42-1.43.76.76,0,0,0-1.32,0,3.76,3.76,0,0,0-.42,1.43,19.22,19.22,0,0,0-.16,2.79v.72a19.22,19.22,0,0,0,.16,2.79A3.76,3.76,0,0,0,278.11,108.9Z"/><path class="cls-3" d="M283.69,111.32v-14H286l2.52,7.24V97.32h2.34v14h-2.14L286,103.74v7.58Z"/><path class="cls-3" d="M297.07,111.52a5.4,5.4,0,0,1-2.08-.38v-2.32a4.61,4.61,0,0,0,1.76.38,1.63,1.63,0,0,0,1.25-.53,2.08,2.08,0,0,0,.49-1.47V107q0-2-2.44-2.16v-1.6l2.28-3.58h-3.16V97.32h5.64V99.5l-2.36,3.66a3.49,3.49,0,0,1,2.44,3.7v.22a4.69,4.69,0,0,1-1.07,3.24A3.52,3.52,0,0,1,297.07,111.52Z"/><path class="cls-3" d="M251.32,123.88v-.28c0-3.29,1.25-4.82,2.69-4.82a2,2,0,0,1,1,.22v1a1.81,1.81,0,0,0-1-.31c-1,0-1.82,1.25-1.82,3.94v.28c0,2.73.81,3.94,1.82,3.94a1.82,1.82,0,0,0,1-.31v.91a2,2,0,0,1-1.08.28C252.49,128.7,251.32,127.16,251.32,123.88Z"/><path class="cls-3" d="M255.92,125.06v-.21c0-2.34,1-3.71,2.16-3.71s2.14,1.37,2.14,3.71v.21c0,2.34-1,3.71-2.16,3.71S255.92,127.4,255.92,125.06Zm3.42,0v-.22c0-1.81-.56-2.9-1.27-2.9s-1.28,1.09-1.28,2.9v.22c0,1.81.56,2.91,1.28,2.91S259.33,126.86,259.33,125.06Z"/><path class="cls-3" d="M261.07,125.13v-.36c0-2.44.85-3.64,1.82-3.64.74,0,1.21.67,1.49,1.4v-3.77h.88v9.89h-.88v-1.29c-.28.74-.74,1.41-1.49,1.41C261.92,128.77,261.07,127.59,261.07,125.13Zm3.33,0v-.39c0-1.81-.62-2.82-1.28-2.82s-1.19,1-1.19,2.86v.31c0,1.83.52,2.86,1.19,2.86S264.4,126.95,264.4,125.14Z"/><path class="cls-3" d="M266.33,125.06v-.21c0-2.34,1-3.71,2.16-3.71s2.14,1.37,2.14,3.71v.21c0,2.34-1,3.71-2.16,3.71S266.33,127.4,266.33,125.06Zm3.42,0v-.22c0-1.81-.56-2.9-1.27-2.9s-1.28,1.09-1.28,2.9v.22c0,1.81.56,2.91,1.28,2.91S269.75,126.86,269.75,125.06Z"/><path class="cls-3" d="M271.71,121.25h.87v1a1.62,1.62,0,0,1,1.47-1.16c1,0,1.61.83,1.61,2.23v5.29h-.87V123.5c0-1-.38-1.61-1-1.61s-1.18.67-1.18,1.69v5.06h-.87Z"/><path class="cls-3" d="M276.59,128.39v-.88a3.36,3.36,0,0,0,1.47.43.93.93,0,0,0,1-1v0c0-.46-.25-.91-1.08-1.7-1-1-1.39-1.55-1.39-2.35v0a1.69,1.69,0,0,1,1.79-1.74,2.87,2.87,0,0,1,1.22.24v.88a2.58,2.58,0,0,0-1.22-.31.86.86,0,0,0-.92.88v0c0,.46.24.81,1.09,1.65,1,1,1.37,1.6,1.37,2.4v0a1.76,1.76,0,0,1-1.83,1.79A3.36,3.36,0,0,1,276.59,128.39Z"/><path class="cls-3" d="M283,128.46v-.88a2.58,2.58,0,0,0,1.16.28c.94,0,1.63-.94,1.63-2.34v-.07c0-1.44-.64-2-1.39-2a2,2,0,0,0-.87.18l-.53-.35.21-4.48h3.11v.88h-2.38l-.14,3.07a2.06,2.06,0,0,1,.8-.15c1.09,0,2.09.81,2.09,2.8v.08c0,1.92-1.05,3.21-2.48,3.21A2.6,2.6,0,0,1,283,128.46Z"/><path class="cls-3" d="M287.93,128.46v-.9a2.55,2.55,0,0,0,1.12.29c1,0,1.57-1.15,1.64-3.4a1.89,1.89,0,0,1-1.36.63c-1,0-1.88-.83-1.88-3V122c0-2,.91-3.29,2.07-3.29s2,1,2,4.3v.39c0,3.91-1.05,5.31-2.49,5.31A2.68,2.68,0,0,1,287.93,128.46Zm2.76-4.79v-1c0-2.45-.57-3.15-1.18-3.15s-1.19,1-1.19,2.45v.1c0,1.58.55,2.21,1.19,2.21A1.74,1.74,0,0,0,290.69,123.67Z"/><path class="cls-3" d="M294.7,126.3v-.08a4.07,4.07,0,0,1,1.55-3.08,4.93,4.93,0,0,1-.92-2.42v-.08a1.83,1.83,0,0,1,1.75-1.92,1.73,1.73,0,0,1,1.68,1.86v.08a3.58,3.58,0,0,1-1.5,2.68l1.39,2.59a14.76,14.76,0,0,0,.39-2l.74.13a11.26,11.26,0,0,1-.63,2.66l.92,1.63-.7.42-.69-1.29a2.09,2.09,0,0,1-4-1.18Zm3.57.5-1.62-3a3.19,3.19,0,0,0-1,2.37v.1c0,1,.49,1.7,1.23,1.7S297.89,127.49,298.27,126.81Zm-.32-6.14v-.07c0-.6-.34-1.12-.88-1.12a1,1,0,0,0-.92,1.13v.06a4.13,4.13,0,0,0,.74,2A2.67,2.67,0,0,0,297.94,120.67Z"/><path class="cls-3" d="M303,124.47v-.39c0-3.91,1.05-5.31,2.51-5.31a2.2,2.2,0,0,1,1,.21v.9a2.08,2.08,0,0,0-1-.25c-1,0-1.58,1.19-1.64,3.52a1.91,1.91,0,0,1,1.36-.63c1,0,1.88.83,1.88,2.93v.11c0,1.93-.9,3.22-2.06,3.22S303,127.77,303,124.47Zm3.26,1.11v-.13c0-1.5-.56-2.14-1.19-2.14a1.74,1.74,0,0,0-1.19.62v.88c0,2.45.59,3.15,1.19,3.15S306.25,126.95,306.25,125.57Z"/><path class="cls-3" d="M308.79,119.87l-1,.53v-1l1.19-.6h.73v9.82h-.91Z"/><path class="cls-3" d="M336.77,111.32v-14h5.36v2.32h-2.92v3.48h2.58v2.32h-2.58V109h3v2.32Z"/><path class="cls-3" d="M347.71,97.32h2.54l-2.2,6.86,2.28,7.14h-2.6l-1.18-4.26-1.2,4.26h-2.54l2.28-7.14-2.2-6.86h2.6l1.1,4.06Z"/><path class="cls-3" d="M357.41,109.78a3,3,0,0,1-5.44,0,10.42,10.42,0,0,1-1-5.1V104a10.42,10.42,0,0,1,1-5.1,3,3,0,0,1,5.44,0,10.43,10.43,0,0,1,1,5.1v.72A10.43,10.43,0,0,1,357.41,109.78ZM354,108.9a.76.76,0,0,0,1.32,0,3.76,3.76,0,0,0,.42-1.43,19.22,19.22,0,0,0,.16-2.79V104a19.22,19.22,0,0,0-.16-2.79,3.76,3.76,0,0,0-.42-1.43.76.76,0,0,0-1.32,0,3.76,3.76,0,0,0-.42,1.43,19.22,19.22,0,0,0-.16,2.79v.72a19.22,19.22,0,0,0,.16,2.79A3.76,3.76,0,0,0,354,108.9Z"/><path class="cls-3" d="M359.61,111.32v-14h2.26l2.52,7.24V97.32h2.34v14h-2.14L362,103.74v7.58Z"/><path class="cls-3" d="M374.71,111.32v-2.58h-3.8v-1.86l3.68-9.6H377v9.36h1.14v2.1H377v2.58Zm-1.82-4.68h1.82v-5.12Z"/><path class="cls-3" d="M324.93,123.88v-.28c0-3.29,1.25-4.82,2.69-4.82a2,2,0,0,1,1,.22v1a1.81,1.81,0,0,0-1-.31c-1,0-1.82,1.25-1.82,3.94v.28c0,2.73.81,3.94,1.82,3.94a1.82,1.82,0,0,0,1-.31v.91a2,2,0,0,1-1.08.28C326.1,128.7,324.93,127.16,324.93,123.88Z"/><path class="cls-3" d="M329.53,125.06v-.21c0-2.34,1-3.71,2.16-3.71s2.14,1.37,2.14,3.71v.21c0,2.34-1,3.71-2.16,3.71S329.53,127.4,329.53,125.06Zm3.42,0v-.22c0-1.81-.56-2.9-1.27-2.9s-1.27,1.09-1.27,2.9v.22c0,1.81.56,2.91,1.27,2.91S332.94,126.86,332.94,125.06Z"/><path class="cls-3" d="M334.68,125.13v-.36c0-2.44.85-3.64,1.82-3.64.74,0,1.21.67,1.48,1.4v-3.77h.88v9.89H338v-1.29c-.28.74-.74,1.41-1.48,1.41C335.53,128.77,334.68,127.59,334.68,125.13Zm3.33,0v-.39c0-1.81-.62-2.82-1.27-2.82s-1.19,1-1.19,2.86v.31c0,1.83.52,2.86,1.19,2.86S338,126.95,338,125.14Z"/><path class="cls-3" d="M339.94,125.06v-.21c0-2.34,1-3.71,2.16-3.71s2.14,1.37,2.14,3.71v.21c0,2.34-1,3.71-2.16,3.71S339.94,127.4,339.94,125.06Zm3.42,0v-.22c0-1.81-.56-2.9-1.27-2.9s-1.27,1.09-1.27,2.9v.22c0,1.81.56,2.91,1.27,2.91S343.36,126.86,343.36,125.06Z"/><path class="cls-3" d="M345.32,121.25h.87v1a1.62,1.62,0,0,1,1.47-1.16c1,0,1.61.83,1.61,2.23v5.29h-.87V123.5c0-1-.38-1.61-1-1.61s-1.18.67-1.18,1.69v5.06h-.87Z"/><path class="cls-3" d="M350.2,128.39v-.88a3.36,3.36,0,0,0,1.47.43.93.93,0,0,0,1-1v0c0-.46-.25-.91-1.08-1.7-1-1-1.39-1.55-1.39-2.35v0a1.69,1.69,0,0,1,1.79-1.74,2.87,2.87,0,0,1,1.22.24v.88A2.58,2.58,0,0,0,352,122a.86.86,0,0,0-.92.88v0c0,.46.24.81,1.09,1.65,1,1,1.37,1.6,1.37,2.4v0a1.76,1.76,0,0,1-1.83,1.79A3.36,3.36,0,0,1,350.2,128.39Z"/><path class="cls-3" d="M357.38,119.87l-1,.53v-1l1.19-.6h.73v9.82h-.91Z"/><path class="cls-3" d="M360.44,119.87l-1,.53v-1l1.19-.6h.73v9.82h-.91Z"/><path class="cls-3" d="M365.18,119.75h-2.62v-.91h3.5v.71L364,128.64h-.9Z"/><path class="cls-3" d="M369.12,126.3v-.08a4.07,4.07,0,0,1,1.55-3.08,4.94,4.94,0,0,1-.92-2.42v-.08a1.83,1.83,0,0,1,1.75-1.92,1.73,1.73,0,0,1,1.68,1.86v.08a3.58,3.58,0,0,1-1.5,2.68l1.39,2.59a14.75,14.75,0,0,0,.39-2l.74.13a11.26,11.26,0,0,1-.63,2.66l.92,1.63-.7.42-.69-1.29a2.09,2.09,0,0,1-4-1.18Zm3.57.5-1.62-3a3.19,3.19,0,0,0-1.05,2.37v.1c0,1,.49,1.7,1.23,1.7S372.31,127.49,372.69,126.81Zm-.32-6.14v-.07c0-.6-.34-1.12-.88-1.12a1,1,0,0,0-.92,1.13v.06a4.12,4.12,0,0,0,.74,2A2.67,2.67,0,0,0,372.37,120.67Z"/><path class="cls-3" d="M378.2,119.87l-1,.53v-1l1.19-.6h.73v9.82h-.91Z"/><path class="cls-3" d="M383.06,126.51H380.2v-.7l2.87-7h.83v6.95h.78v.78h-.78v2.13h-.84Zm0-.78v-5.11L381,125.73Z"/><path class="cls-3" d="M385.42,124.47v-.39c0-3.91,1-5.31,2.51-5.31a2.2,2.2,0,0,1,1,.21v.9a2.08,2.08,0,0,0-1-.25c-1,0-1.58,1.19-1.64,3.52a1.92,1.92,0,0,1,1.36-.63c1,0,1.88.83,1.88,2.93v.11c0,1.93-.9,3.22-2.06,3.22S385.42,127.77,385.42,124.47Zm3.26,1.11v-.13c0-1.5-.56-2.14-1.19-2.14a1.75,1.75,0,0,0-1.19.62v.88c0,2.45.59,3.15,1.19,3.15S388.69,126.95,388.69,125.57Z"/><rect class="cls-4" x="220.19" y="168.58" width="120.16" height="20.78"/><path class="cls-3" d="M23.63,82.87l-2-5.1H20l-1.19,5.1H15.3L19.22,66.8h4.61a6.4,6.4,0,0,1,4.68,1.49,4.57,4.57,0,0,1,1.24,3.31,5.56,5.56,0,0,1-1.49,4q-.39.39-.61.58a5.55,5.55,0,0,1-.87.56,6.82,6.82,0,0,1-1.46.6l2.2,5.49Zm-2.82-8.15h1.86a3.77,3.77,0,0,0,2.73-.9,2.74,2.74,0,0,0,.73-2,1.79,1.79,0,0,0-.53-1.35,2.73,2.73,0,0,0-2-.57h-1.7Z"/><path class="cls-3" d="M28,82.87l9.62-16.19H41l1.72,16.19H39.18l-.28-3.6H33.74l-2,3.6Zm7.67-6.68h2.87l-.25-5.26Z"/><path class="cls-3" d="M49.24,83.1a7,7,0,0,1-5.92-2.94l2.59-2.25Q47.77,80,49.4,80a1.71,1.71,0,0,0,1.19-.41,1.33,1.33,0,0,0,.46-1,1.6,1.6,0,0,0-.44-1A10.07,10.07,0,0,0,49,76.17,10.79,10.79,0,0,1,46.69,74a3.84,3.84,0,0,1-.76-2.31,4.8,4.8,0,0,1,1.38-3.47,5.49,5.49,0,0,1,4-1.63A7,7,0,0,1,56.63,69l-2.39,2.41a4.4,4.4,0,0,0-3-1.72,1.63,1.63,0,0,0-1.18.41,1.33,1.33,0,0,0-.42,1,1.58,1.58,0,0,0,.41,1,9.63,9.63,0,0,0,1.63,1.37A10.55,10.55,0,0,1,54,75.6,4,4,0,0,1,54.75,78a4.81,4.81,0,0,1-1.45,3.54A5.5,5.5,0,0,1,49.24,83.1Z"/><path class="cls-3" d="M86.34,46.21l3.93-16.07h3.49L92.12,37l6.06-6.84h4.48L96,36.93l3.05,9.28H95.27l-1.93-6.75L90.84,42l-1,4.22Z"/><path class="cls-3" d="M108.23,46.21l-2-5.1h-1.7l-1.19,5.1H99.89l3.93-16.07h4.62a6.4,6.4,0,0,1,4.68,1.49,4.57,4.57,0,0,1,1.24,3.31,5.56,5.56,0,0,1-1.49,4q-.39.39-.61.58a5.53,5.53,0,0,1-.87.56,6.83,6.83,0,0,1-1.46.6l2.2,5.49Zm-2.82-8.15h1.86a3.77,3.77,0,0,0,2.73-.9,2.74,2.74,0,0,0,.74-2,1.79,1.79,0,0,0-.53-1.35,2.73,2.73,0,0,0-2-.57h-1.7Z"/><path class="cls-3" d="M112.62,46.21,122.24,30h3.38l1.72,16.19h-3.56l-.28-3.6h-5.17l-2,3.6Zm7.67-6.68h2.87l-.25-5.26Z"/><path class="cls-3" d="M133.84,46.43a7,7,0,0,1-5.92-2.94l2.59-2.25q1.86,2.11,3.49,2.11a1.71,1.71,0,0,0,1.19-.41,1.33,1.33,0,0,0,.46-1,1.6,1.6,0,0,0-.44-1,10.07,10.07,0,0,0-1.63-1.39,10.79,10.79,0,0,1-2.3-2.19,3.84,3.84,0,0,1-.76-2.31,4.8,4.8,0,0,1,1.38-3.47,5.49,5.49,0,0,1,4-1.63,7,7,0,0,1,5.28,2.39l-2.39,2.41a4.4,4.4,0,0,0-3-1.72,1.63,1.63,0,0,0-1.18.41,1.33,1.33,0,0,0-.42,1,1.58,1.58,0,0,0,.41,1,9.63,9.63,0,0,0,1.63,1.37,10.55,10.55,0,0,1,2.3,2.16,4,4,0,0,1,.78,2.41,4.81,4.81,0,0,1-1.45,3.54A5.5,5.5,0,0,1,133.84,46.43Z"/><path class="cls-3" d="M85.64,121.71l3.93-16.07H92.8l3.26,10.08,2.39-10.08h3.42l-3.93,16.07h-3l-3.42-10.42-2.43,10.42Z"/><path class="cls-3" d="M108.93,121.71l-2-5.1h-1.7l-1.19,5.1h-3.49l3.93-16.07h4.61a6.4,6.4,0,0,1,4.68,1.49,4.57,4.57,0,0,1,1.24,3.31,5.56,5.56,0,0,1-1.49,4q-.39.39-.61.58a5.5,5.5,0,0,1-.87.56,6.86,6.86,0,0,1-1.46.6l2.21,5.49Zm-2.82-8.15H108a3.76,3.76,0,0,0,2.73-.9,2.74,2.74,0,0,0,.74-2,1.79,1.79,0,0,0-.53-1.35,2.73,2.73,0,0,0-2-.57h-1.7Z"/><path class="cls-3" d="M113.32,121.71l9.62-16.19h3.38L128,121.71h-3.56l-.28-3.6H119l-2,3.6ZM121,115h2.87l-.25-5.26Z"/><path class="cls-3" d="M134.54,121.94a7,7,0,0,1-5.92-2.94l2.59-2.25q1.86,2.11,3.49,2.11a1.71,1.71,0,0,0,1.19-.41,1.33,1.33,0,0,0,.46-1,1.6,1.6,0,0,0-.44-1,10.07,10.07,0,0,0-1.63-1.39,10.79,10.79,0,0,1-2.3-2.19,3.84,3.84,0,0,1-.76-2.31,4.8,4.8,0,0,1,1.38-3.47,5.49,5.49,0,0,1,4-1.63,7,7,0,0,1,5.28,2.39l-2.39,2.41a4.4,4.4,0,0,0-3-1.72,1.63,1.63,0,0,0-1.18.41,1.33,1.33,0,0,0-.42,1,1.58,1.58,0,0,0,.41,1,9.63,9.63,0,0,0,1.63,1.37,10.55,10.55,0,0,1,2.3,2.16,4,4,0,0,1,.78,2.41,4.81,4.81,0,0,1-1.45,3.54A5.5,5.5,0,0,1,134.54,121.94Z"/><polyline class="cls-5" points="35.82 58.72 35.82 37.97 54.7 37.97"/><polygon class="cls-3" points="53.75 31.54 57.82 37.97 53.75 44.41 53.71 44.41 53.71 31.54 53.75 31.54"/><polyline class="cls-5" points="35.82 93.25 35.82 114 54.7 114"/><polygon class="cls-3" points="53.75 107.56 57.82 114 53.75 120.44 53.71 120.44 53.71 107.56 53.75 107.56"/><polyline class="cls-4" points="168.71 151.47 168.71 159.47 405.71 159.47 405.71 0.5 396.08 0.5"/><line class="cls-4" x1="280.27" y1="168.58" x2="280.27" y2="159.47"/><path class="cls-2" d="M228.46,173.06h3.94v1h-2.9v4.1h2.63v1H229.5v4.18h2.94v1h-4Z"/><path class="cls-2" d="M235,179.91l-1.68-4.1h1l1.25,3.22,1.25-3.22h1l-1.67,4.07,1.78,4.39h-1l-1.34-3.47-1.34,3.47h-1Z"/><path class="cls-2" d="M239.09,175.82h1v1.47c.32-.85.85-1.62,1.7-1.62,1.12,0,2.1,1.34,2.1,4.16v.42c0,2.79-1,4.16-2.1,4.16-.85,0-1.38-.77-1.7-1.6v3.54h-1Zm3.78,4.4v-.35c0-2.1-.59-3.27-1.36-3.27s-1.46,1.15-1.46,3.22v.45c0,2.07.71,3.22,1.46,3.22S242.87,182.31,242.87,180.22Z"/><path class="cls-2" d="M244.76,181.83v-.16c0-1.67.8-2.71,2.13-2.71a3.13,3.13,0,0,1,1.34.32v-.91c0-1.09-.51-1.71-1.5-1.71a3.16,3.16,0,0,0-1.52.38v-1a3.63,3.63,0,0,1,1.65-.37,2.25,2.25,0,0,1,2.37,2.56v6h-1v-1.14a1.75,1.75,0,0,1-1.62,1.28C245.53,184.41,244.76,183.34,244.76,181.83Zm3.47-.1v-1.62a2.76,2.76,0,0,0-1.17-.3c-.86,0-1.33.72-1.33,1.79v.16c0,1.06.42,1.78,1.15,1.78S248.23,182.7,248.23,181.74Z"/><path class="cls-2" d="M250.68,175.82h1V177a1.85,1.85,0,0,1,1.68-1.33c1.12,0,1.84.94,1.84,2.54v6.05h-1v-5.87c0-1.18-.43-1.84-1.18-1.84s-1.34.77-1.34,1.94v5.78h-1Z"/><path class="cls-2" d="M256.41,180.25v-.42c0-2.79,1-4.16,2.08-4.16.85,0,1.38.77,1.7,1.6V173h1v11.3h-1v-1.47c-.32.85-.85,1.62-1.7,1.62C257.38,184.41,256.41,183.07,256.41,180.25Zm3.81,0v-.45c0-2.06-.7-3.22-1.46-3.22s-1.36,1.17-1.36,3.27v.35c0,2.1.59,3.27,1.36,3.27S260.22,182.33,260.22,180.26Z"/><path class="cls-2" d="M262.41,180.22V180c0-2.87,1.1-4.31,2.38-4.31s2.26,1.49,2.26,4.16v.64H263.4c.06,2,.88,3,1.89,3a2.48,2.48,0,0,0,1.47-.53l.1,1a2.94,2.94,0,0,1-1.71.51C263.69,184.39,262.41,183,262.41,180.22Zm3.68-.56c0-1.81-.53-3.06-1.3-3.06s-1.34,1-1.39,3.06Z"/><path class="cls-2" d="M268,180.25v-.42c0-2.79,1-4.16,2.08-4.16.85,0,1.38.77,1.7,1.6V173h1v11.3h-1v-1.47c-.32.85-.85,1.62-1.7,1.62C269,184.41,268,183.07,268,180.25Zm3.81,0v-.45c0-2.06-.7-3.22-1.46-3.22s-1.36,1.17-1.36,3.27v.35c0,2.1.59,3.27,1.36,3.27S271.85,182.33,271.85,180.26Z"/><path class="cls-2" d="M279.16,179.88c-.21,0-.42,0-.62,0h-.48l-.85,4.35h-1l2.18-11.2h1.26a3.08,3.08,0,0,1,2.19.75,2.68,2.68,0,0,1,.75,2,4.15,4.15,0,0,1-1.17,3,3.58,3.58,0,0,1-1.22.8l1,4.64h-1.09Zm-.59-.9a2.57,2.57,0,0,0,2-.74,3.32,3.32,0,0,0,.88-2.4,1.9,1.9,0,0,0-.45-1.33,2,2,0,0,0-1.46-.5h-.38l-1,5Z"/><path class="cls-2" d="M286.44,173h1.12l.18,11.25h-1.06l0-2.9h-2.59l-1.15,2.9h-1Zm.22,7.41,0-5.65-2.23,5.65Z"/><path class="cls-2" d="M288.68,183.53l.22-1.14a2.66,2.66,0,0,0,1.89,1,1.58,1.58,0,0,0,1.52-1.78,6,6,0,0,0-.93-2.66,6.93,6.93,0,0,1-1.14-3.33,2.79,2.79,0,0,1,.77-2,2.42,2.42,0,0,1,1.78-.72,2.89,2.89,0,0,1,1.84.69l-.21,1.14a2.44,2.44,0,0,0-1.66-.85,1.5,1.5,0,0,0-1.46,1.65,5.72,5.72,0,0,0,.86,2.56,7.29,7.29,0,0,1,1.18,3.39,3,3,0,0,1-.8,2.13,2.39,2.39,0,0,1-1.79.72A3.1,3.1,0,0,1,288.68,183.53Z"/><path class="cls-2" d="M297.09,181.83v-.16c0-1.67.8-2.71,2.13-2.71a3.13,3.13,0,0,1,1.34.32v-.91c0-1.09-.51-1.71-1.5-1.71a3.16,3.16,0,0,0-1.52.38v-1a3.64,3.64,0,0,1,1.65-.37,2.25,2.25,0,0,1,2.37,2.56v6h-1v-1.14a1.75,1.75,0,0,1-1.62,1.28C297.86,184.41,297.09,183.34,297.09,181.83Zm3.47-.1v-1.62a2.76,2.76,0,0,0-1.17-.3c-.86,0-1.33.72-1.33,1.79v.16c0,1.06.42,1.78,1.15,1.78S300.57,182.7,300.57,181.74Z"/><path class="cls-2" d="M303,175.82h1V177a1.85,1.85,0,0,1,1.68-1.33c1.12,0,1.84.94,1.84,2.54v6.05h-1v-5.87c0-1.18-.43-1.84-1.18-1.84s-1.34.77-1.34,1.94v5.78h-1Z"/><path class="cls-2" d="M308.61,181.83v-.16c0-1.67.8-2.71,2.13-2.71a3.13,3.13,0,0,1,1.34.32v-.91c0-1.09-.51-1.71-1.5-1.71a3.16,3.16,0,0,0-1.52.38v-1a3.64,3.64,0,0,1,1.65-.37,2.25,2.25,0,0,1,2.37,2.56v6h-1v-1.14a1.75,1.75,0,0,1-1.62,1.28C309.38,184.41,308.61,183.34,308.61,181.83Zm3.47-.1v-1.62a2.76,2.76,0,0,0-1.17-.3c-.86,0-1.33.72-1.33,1.79v.16c0,1.06.42,1.78,1.15,1.78S312.09,182.7,312.09,181.74Z"/><path class="cls-2" d="M314.6,173h1v11.3h-1Z"/><path class="cls-2" d="M318.76,184.12l-2-8.31h1l1.44,6.59,1.46-6.59h1l-2.5,10.53h-1Z"/><path class="cls-2" d="M322.4,184v-1a3.83,3.83,0,0,0,1.68.5,1.06,1.06,0,0,0,1.12-1.09v0c0-.53-.29-1-1.23-1.94-1.14-1.09-1.58-1.78-1.58-2.69v0a1.93,1.93,0,0,1,2-2,3.28,3.28,0,0,1,1.39.27v1a3,3,0,0,0-1.39-.35,1,1,0,0,0-1.06,1v0c0,.53.27.93,1.25,1.89,1.14,1.14,1.57,1.83,1.57,2.74v0a2,2,0,0,1-2.1,2A3.84,3.84,0,0,1,322.4,184Z"/><path class="cls-2" d="M327.33,173h1v1.31h-1Zm0,2.85h1v8.45h-1Z"/><path class="cls-2" d="M329.56,184v-1a3.83,3.83,0,0,0,1.68.5,1.06,1.06,0,0,0,1.12-1.09v0c0-.53-.29-1-1.23-1.94-1.14-1.09-1.58-1.78-1.58-2.69v0a1.93,1.93,0,0,1,2-2A3.27,3.27,0,0,1,333,176v1a2.94,2.94,0,0,0-1.39-.35,1,1,0,0,0-1.06,1v0c0,.53.27.93,1.25,1.89,1.14,1.14,1.57,1.83,1.57,2.74v0a2,2,0,0,1-2.1,2A3.84,3.84,0,0,1,329.56,184Z"/></g></g></svg>