<svg xmlns="http://www.w3.org/2000/svg" xmlns:xlink="http://www.w3.org/1999/xlink" viewBox="0 0 783.55 423.96"><defs><style>.cls-1{fill:#fff;}.cls-2{fill:url(#linear-gradient);}.cls-3{fill:url(#linear-gradient-2);}.cls-4{fill:url(#linear-gradient-3);}.cls-5{fill:url(#linear-gradient-4);}.cls-6{fill:url(#linear-gradient-5);}.cls-7{fill:#f7a800;}</style><linearGradient id="linear-gradient" x1="116.12" y1="91.4" x2="21" y2="227.37" gradientUnits="userSpaceOnUse"><stop offset="0" stop-color="#036cab"/><stop offset="0.2" stop-color="#00a5d9"/><stop offset="0.41" stop-color="#6dc9e8"/><stop offset="0.65" stop-color="#bce3f3"/><stop offset="0.75" stop-color="#6dc9e8"/><stop offset="0.89" stop-color="#00a5d9"/><stop offset="1" stop-color="#036cab"/></linearGradient><linearGradient id="linear-gradient-2" x1="150.89" y1="-6.28" x2="48.77" y2="97.46" gradientUnits="userSpaceOnUse"><stop offset="0" stop-color="#faa83a"/><stop offset="0.3" stop-color="#fcc882"/><stop offset="0.58" stop-color="#ffe6c1"/><stop offset="0.83" stop-color="#fcb316"/><stop offset="1" stop-color="#f78f20"/></linearGradient><linearGradient id="linear-gradient-3" x1="107.36" y1="116.54" x2="63.73" y2="224.83" gradientUnits="userSpaceOnUse"><stop offset="0.1" stop-color="#f78e23"/><stop offset="0.3" stop-color="#fcc882"/><stop offset="0.46" stop-color="#ffe6c1"/><stop offset="0.83" stop-color="#fcb316"/><stop offset="1" stop-color="#f78f20"/></linearGradient><linearGradient id="linear-gradient-4" x1="66.45" y1="29.86" x2="88.22" y2="-4.8" gradientUnits="userSpaceOnUse"><stop offset="0" stop-color="#f9a61c"/><stop offset="0.48" stop-color="#ffe2b0"/><stop offset="1" stop-color="#fec763"/></linearGradient><linearGradient id="linear-gradient-5" x1="-0.81" y1="-4.9" x2="63.12" y2="60.66" gradientUnits="userSpaceOnUse"><stop offset="0.18" stop-color="#14bbe3"/><stop offset="0.56" stop-color="#a6dbf0"/><stop offset="0.65" stop-color="#8acee9"/><stop offset="0.85" stop-color="#43acd7"/><stop offset="1" stop-color="#068fc7"/></linearGradient></defs><title>logo-main</title><g id="Layer_2" data-name="Layer 2"><g id="LOGO"><path class="cls-1" d="M738.81,355.69c10-18.54,13.88-37,13.88-57,0-20.78-3.89-39-13.88-57.87h6.84c10.09,18.55,16.51,36.23,16.51,57.87a108.92,108.92,0,0,1-16.51,57Z"/><path class="cls-1" d="M143.33,355.69a108.92,108.92,0,0,1-16.51-57c0-21.64,6.41-39.33,16.51-57.87h6.83c-10,18.92-13.88,37.1-13.88,57.87,0,20,3.89,38.46,13.88,57Z"/><path class="cls-1" d="M165.56,264.74h.32c3.17-4.3,6.81-6.6,12.66-6.6,18.83,0,20.1,23.79,20.1,39.76,0,17.8-.47,41.44-19.31,41.44A15.86,15.86,0,0,1,165.88,332h-.32v36.22H155.27V259.37h10.29ZM188,297.89c0-12.12-.16-31.62-12-31.62-10.92,0-11.4,16.27-11.4,30.24,0,15.2.63,34.69,11.87,34.69C186,331.2,188,322.14,188,297.89Z"/><path class="cls-1" d="M248.35,338.11H238.06V332h-.32a15.86,15.86,0,0,1-13.45,7.37c-13,0-19.31-7.06-19.31-41.44,0-17.65.63-39.76,20.26-39.76,5.7,0,9.34,2.31,12.5,6.6h.32v-5.37h10.29Zm-20.74-71.83c-11.4,0-12,17.5-12,30.86,0,32.54,5.54,34.07,11.56,34.07,10,0,11.87-9.05,11.87-33.77C239,280.39,237.74,266.27,227.61,266.27Z"/><path class="cls-1" d="M269.72,265.66a21.31,21.31,0,0,1,16-7.52c14.41,0,15.67,12.9,15.67,23.64v56.33H291.09V282.85c0-9.36-.64-16.58-9.19-16.58-11.71,0-12.19,12.43-12.19,20.72v51.11H259.43V259.37h10.29Z"/><path class="cls-1" d="M317.77,251.49a6.33,6.33,0,1,1,6.46-6.39A6.5,6.5,0,0,1,317.77,251.49Z"/><rect class="cls-1" x="312.46" y="259.37" width="10.29" height="78.74"/><path class="cls-1" d="M380.56,259.37v49.42c0,10.74.63,21.18,10.76,21.18,10.45,0,10.92-10.44,11.08-21.18V259.37H412.7v57.86c0,13.2-6.65,22.1-21.21,22.1-14.4,0-21.21-8.74-21.21-22.1V259.37Z"/><path class="cls-1" d="M433.43,266h.32a19.82,19.82,0,0,1,15.35-7.83c6.65,0,12.35,3.38,15,9.37,4.28-5.83,9.34-9.37,16.78-9.37,15.2,0,16.46,11.67,16.46,23.33v56.64H487.09V281.77c0-7.52-.79-15.5-9.18-15.5-12.19,0-12.5,13.36-12.5,23.33v48.5H455.11V281.93c0-7.37-.47-15.66-8.87-15.66-12.5,0-12.82,15-12.82,25v46.81H423.14V259.37h10.29Z"/><path class="cls-1" d="M518.11,259.37v49.42c0,10.74.63,21.18,10.77,21.18,10.45,0,10.92-10.44,11.08-21.18V259.37h10.29v57.86c0,13.2-6.65,22.1-21.21,22.1-14.4,0-21.21-8.74-21.21-22.1V259.37Z"/><path class="cls-1" d="M571,266h.32a19.83,19.83,0,0,1,15.35-7.83c6.65,0,12.35,3.38,15,9.37,4.27-5.83,9.34-9.37,16.78-9.37,15.2,0,16.46,11.67,16.46,23.33v56.64H624.64V281.77c0-7.52-.79-15.5-9.18-15.5-12.19,0-12.5,13.36-12.5,23.33v48.5H592.66V281.93c0-7.37-.47-15.66-8.87-15.66-12.5,0-12.82,15-12.82,25v46.81H560.69V259.37H571Z"/><path class="cls-1" d="M687,338.11H676.72V332h-.32a15.85,15.85,0,0,1-13.45,7.37c-13,0-19.31-7.06-19.31-41.44,0-17.65.63-39.76,20.26-39.76,5.7,0,9.34,2.31,12.5,6.6h.32v-5.37H687Zm-20.74-71.83c-11.4,0-12,17.5-12,30.86,0,32.54,5.54,34.07,11.56,34.07,10,0,11.87-9.05,11.87-33.77C677.67,280.39,676.4,266.27,666.27,266.27Z"/><path class="cls-1" d="M698.09,231.46h10.29v33.29h.32c3-4.45,6.81-6.6,12.66-6.6,18.84,0,20.1,21.95,20.1,39.76,0,19.95-1.58,41.44-19.31,41.44A15.86,15.86,0,0,1,708.69,332h-.32v6.14H698.09Zm32.76,65.67c0-18-1.74-30.86-12-30.86-12.51,0-11.4,23.18-11.4,30.24,0,9.67-1.27,34.69,11.87,34.69C727.68,331.2,730.85,324.14,730.85,297.13Z"/><path class="cls-1" d="M359.21,330.76c-6.68,0-9.76-2.41-9.76-9.66V267.71h11.88v-8.34H349.45V240.55H339.17v18.82h-7.64v8.34h7.64v55.63c0,12.25,5.31,16,19.18,16,1.09,0,2.08,0,3-.11v-8.65A18.62,18.62,0,0,1,359.21,330.76Z"/><path class="cls-1" d="M185.23,174.79,229.79,62.52H250L185.23,221.14l-65.13-159h20.23Z"/><path class="cls-1" d="M239.91,173.13c.21,18.56,13.44,33.5,32.86,33.5,14.51,0,23.9-8.75,30.52-20.71l14.51,8.33c-9.6,17.93-25.82,28.17-46.31,28.17-29.88,0-49.09-22.84-49.09-51.65,0-29.66,17.29-54.21,48.66-54.21,32.22,0,49.29,26.68,47.59,56.56Zm60.82-14.51c-2.35-14.52-14.52-26.25-29.46-26.25-14.72,0-28.38,11.74-30.52,26.25Z"/><path class="cls-1" d="M410.63,149.22h-.43c-7.9-10-17.71-16.86-31.16-16.86-20.7,0-35.42,17.07-35.42,37.13,0,19.85,13.66,37.13,34.57,37.13,14.29,0,24.33-6.4,32.65-17.29h.43v22.84c-9.82,6.61-19.85,10.24-31.8,10.24-30.3,0-53.35-22.62-53.35-52.93,0-29.88,24.12-52.93,53.57-52.93a54,54,0,0,1,30.94,10Z"/><path class="cls-1" d="M519.2,64.64h17.07v69h.42a43.08,43.08,0,0,1,34.36-17.08c29.88,0,48.23,24.55,48.23,52.93,0,28-18.57,52.93-48,52.93-13.87,0-26.46-5.76-34.58-16.65h-.42v13.87H519.2Zm16.22,103.8c0,19.62,11.52,38.19,32.87,38.19,22,0,33.5-17.71,33.5-38,0-20.06-12.6-36.28-33.72-36.28C548.22,132.37,535.42,149.65,535.42,168.44Z"/><path class="cls-1" d="M658.34,119.35h20.91l26.25,34.14,26.25-34.14h21.34L716.38,166.3,758,219.65H737.3l-31.8-40.76-32,40.76H652.14l42.69-53.35Z"/><path class="cls-1" d="M433.55,196.6V135.15H421.19V119.34h12.36V93.92h17.08v25.42h20.8v15.82h-20.8v60.13h0a18.5,18.5,0,0,0,.5,4.83,5,5,0,0,0,1.91,2.81,8.44,8.44,0,0,0,3.93,1.32,58.43,58.43,0,0,0,6.56.3h7.87v15.1H458.33a61.49,61.49,0,0,1-11.39-.9,16.67,16.67,0,0,1-7.65-3.32,14.14,14.14,0,0,1-4.32-6.84,39.55,39.55,0,0,1-1.41-11.68"/><rect class="cls-1" x="486.73" y="119.35" width="17.08" height="100.3"/><rect class="cls-1" x="627.91" y="119.35" width="17.07" height="100.3"/><circle class="cls-1" cx="495.27" cy="102.87" r="9.1"/><circle class="cls-1" cx="636.44" cy="102.87" r="9.1"/><path class="cls-2" d="M70.82,134.29a1.6,1.6,0,0,0-.54-1.32L67.11,130a.73.73,0,0,1,0-1.1L104,90.83a.77.77,0,0,0,0-1.1L88,74.15a.78.78,0,0,0-1.09,0l-10.41,11a.78.78,0,0,0,0,1.1l3.61,3.6a.79.79,0,0,1,0,1.1L48.86,123.26a1.87,1.87,0,0,0-.46,1.32l9.25,95.64a.87.87,0,0,0,.85.77H70.05a.76.76,0,0,0,.77-.77Z"/><path class="cls-3" d="M148.42,0h-12a2.3,2.3,0,0,0-1.34.53L44,85.75a.78.78,0,0,0,0,1.08L58.89,102.6a.77.77,0,0,0,1.08,0L70.36,91.85a.75.75,0,0,0,0-1.07l-3.63-3.51a.8.8,0,0,1,0-1.11S148.49.74,148.66.56,148.84,0,148.42,0Z"/><path class="cls-4" d="M75.51,129.45c-.37.38-.31.7,0,1.1l2.32,3a1.61,1.61,0,0,1,.39,1.08v85.56A.77.77,0,0,0,79,221H91.45a.84.84,0,0,0,.83-.77l6.09-94.58a2.33,2.33,0,0,0-.48-1.35l-7.7-8.88a.72.72,0,0,0-1.06,0Z"/><path class="cls-5" d="M90.55,19A17.29,17.29,0,1,1,73.25,1.74,17.29,17.29,0,0,1,90.55,19Z"/><path class="cls-6" d="M.16.58C-.13.26,0,0,.42,0H11.65A2.15,2.15,0,0,1,13,.54L68,53.65a.73.73,0,0,1,0,1.06L56.82,65.15a.73.73,0,0,1-1.06-.06Z"/><path class="cls-1" d="M760.86,130.31c0-6.92,5.41-11,11.35-11s11.35,4.1,11.35,11-5.41,11-11.35,11S760.86,137.23,760.86,130.31Zm11.35-8.88c-4.69,0-8.44,3.62-8.44,8.88s3.74,8.88,8.44,8.88,8.44-3.62,8.44-8.88S776.81,121.43,772.2,121.43Zm-1.87,14.91h-2.61V124.25h4.55c3.15,0,4.93.89,4.93,3.65,0,2.23-1.28,3.09-3.33,3.21l3.15,5.23h-2.64l-2.82-5.08h-1.22Zm0-7.1h2.29c1.43,0,2-.68,2-1.61,0-1.1-.83-1.37-2.08-1.37h-2.17Z"/></g><g id="new_tagline_outline" data-name="new tagline outline"><path class="cls-1" d="M640,379.83a3.25,3.25,0,1,1-2.52-2.57A3.26,3.26,0,0,1,640,379.83Z"/><path class="cls-1" d="M604.47,379.83a3.25,3.25,0,1,1-2.52-2.57A3.26,3.26,0,0,1,604.47,379.83Z"/><path class="cls-1" d="M710.51,379.82a3.25,3.25,0,1,1-2.53-2.56A3.25,3.25,0,0,1,710.51,379.82Z"/><path class="cls-1" d="M137.38,414.58V388.37h-7.5v-3.77h.56c3.47,0,7.5-.82,8.52-5.41v-.71h4.23v36.1Z"/><path class="cls-1" d="M158.19,378.48c6.94,0,10.81,4.39,10.81,18.41s-3.88,18.41-10.81,18.41-10.81-4.39-10.81-18.41S151.25,378.48,158.19,378.48Zm0,32.74c4,0,5-3.83,5-14.33s-1-14.33-5-14.33-5,3.82-5,14.33S154.21,411.21,158.19,411.21Z"/><path class="cls-1" d="M182.41,378.48c6.94,0,10.81,4.39,10.81,18.41s-3.88,18.41-10.81,18.41-10.81-4.39-10.81-18.41S175.48,378.48,182.41,378.48Zm0,32.74c4,0,5-3.83,5-14.33s-1-14.33-5-14.33-5,3.82-5,14.33S178.43,411.21,182.41,411.21Z"/><path class="cls-1" d="M196.91,390.9h4.49v2.77h.13a6.63,6.63,0,0,1,5.68-3.39c3.39,0,4.8,1.63,5.5,3.61a6.47,6.47,0,0,1,6-3.61c3.34,0,5.76,1.72,5.76,6.29v18H219.7V398.34c0-3.08-.92-4.27-2.86-4.27s-3.78,1.54-3.78,4.62v15.89H208.3V398.34c0-3.08-.92-4.27-2.9-4.27s-3.74,1.54-3.74,4.62v15.89h-4.75Z"/><path class="cls-1" d="M233.78,416.6c0,1.45,1.32,2.82,3.43,2.82,2.46,0,4-1.72,4-4.44v-3.83h-.09a5.73,5.73,0,0,1-5.37,3.26c-5.54,0-7.08-5.46-7.08-11.93,0-5.19.79-12.19,7.52-12.19a5.27,5.27,0,0,1,5.19,3.52h.09v-2.9H246v22.53c0,5.77-2.46,9.24-8.85,9.24-7,0-7.83-4.14-7.83-6.07Zm3.34-6c3.7,0,4.09-4.66,4.09-8.41s-.48-8.14-3.78-8.14-4,3.52-4,7.92C233.43,406,233.6,410.62,237.12,410.62Z"/><path class="cls-1" d="M258.11,382.54H262L252,415.2h-3.92Z"/><path class="cls-1" d="M262.77,406.17h4.75V407c0,2.33,1.28,4.4,4.09,4.4,3.48,0,4.44-3.43,4.44-7.09s-1-6.64-4.18-6.64a4,4,0,0,0-4.09,2.86l-4.44-.18L264.89,384h15v4H268.63l-1,8.19.09.09a7,7,0,0,1,5.24-2.42c6.51,0,8.14,5.5,8.14,10.3,0,6.25-2.86,11-9.59,11-5.54,0-8.71-2.86-8.71-8.36Z"/><path class="cls-1" d="M284.77,390.9h4.49v2.77h.13a6.63,6.63,0,0,1,5.68-3.39c3.39,0,4.8,1.63,5.5,3.61a6.47,6.47,0,0,1,6-3.61c3.34,0,5.76,1.72,5.76,6.29v18h-4.75V398.34c0-3.08-.92-4.27-2.86-4.27s-3.78,1.54-3.78,4.62v15.89h-4.75V398.34c0-3.08-.92-4.27-2.9-4.27s-3.74,1.54-3.74,4.62v15.89h-4.75Z"/><path class="cls-1" d="M317.11,383.16h4.75v31.42h-4.75Z"/><path class="cls-7" d="M340.06,376.72h4.47v43.59h-4.47Z"/><path class="cls-1" d="M382.82,414.58H361.71c0-15.71,15.15-15.35,15.15-26.57,0-3-1.27-5.46-4.49-5.46-4.33,0-5,3.88-5,7.55h-5.51c0-7.19,3-11.63,10.66-11.63,7.39,0,10.2,4.39,10.2,9.64,0,12-11.73,12.75-14.48,21.57h14.64Z"/><path class="cls-1" d="M396.49,378.48c6.94,0,10.81,4.39,10.81,18.41s-3.88,18.41-10.81,18.41-10.81-4.39-10.81-18.41S389.55,378.48,396.49,378.48Zm0,32.74c4,0,5-3.83,5-14.33s-1-14.33-5-14.33-5,3.82-5,14.33S392.51,411.21,396.49,411.21Z"/><path class="cls-1" d="M412,390.9h4.49v2.77h.13a6.63,6.63,0,0,1,5.68-3.39c3.39,0,4.8,1.63,5.5,3.61a6.47,6.47,0,0,1,6-3.61c3.34,0,5.76,1.72,5.76,6.29v18h-4.75V398.34c0-3.08-.92-4.27-2.86-4.27s-3.78,1.54-3.78,4.62v15.89H423.4V398.34c0-3.08-.92-4.27-2.9-4.27s-3.74,1.54-3.74,4.62v15.89H412Z"/><path class="cls-1" d="M448.87,416.6c0,1.45,1.32,2.82,3.43,2.82,2.46,0,4-1.72,4-4.44v-3.83h-.09a5.73,5.73,0,0,1-5.37,3.26c-5.54,0-7.08-5.46-7.08-11.93,0-5.19.79-12.19,7.52-12.19a5.27,5.27,0,0,1,5.19,3.52h.09v-2.9h4.49v22.53c0,5.77-2.46,9.24-8.84,9.24-7,0-7.83-4.14-7.83-6.07Zm3.34-6c3.7,0,4.09-4.66,4.09-8.41s-.48-8.14-3.78-8.14-4,3.52-4,7.92C448.52,406,448.69,410.62,452.21,410.62Z"/><path class="cls-1" d="M473.2,382.54h3.92l-10,32.65h-3.92Z"/><path class="cls-1" d="M479,390.9h4.49v2.77h.13a6.63,6.63,0,0,1,5.68-3.39c3.39,0,4.8,1.63,5.5,3.61a6.47,6.47,0,0,1,6-3.61c3.34,0,5.76,1.72,5.76,6.29v18h-4.75V398.34c0-3.08-.92-4.27-2.86-4.27s-3.78,1.54-3.78,4.62v15.89h-4.75V398.34c0-3.08-.92-4.27-2.9-4.27s-3.74,1.54-3.74,4.62v15.89H479Z"/><path class="cls-1" d="M511.3,383.16h4.75v31.42H511.3Z"/><path class="cls-1" d="M534.9,391.22h-3.83v-4.08h3.83v-2.55c0-5.2,2.5-6.83,7-6.83a24.93,24.93,0,0,1,3,.15v4.23h-1.53c-2,0-3,.76-3,2.6v2.4h4.49v4.08H540.4v23.36H534.9Z"/><path class="cls-1" d="M556.26,386.43c8,0,10.25,5.92,10.25,14.43s-2.6,14.43-10.25,14.43-10.2-5.92-10.2-14.43S548.31,386.43,556.26,386.43Zm0,24.78c4,0,4.74-3.37,4.74-10.35,0-6.07-.71-10.35-4.74-10.35s-4.69,4.28-4.69,10.35C551.57,407.85,552.28,411.21,556.26,411.21Z"/><path class="cls-1" d="M570.49,387.14H576v4.28h.1c1.22-3.06,3.26-5,6.38-5a4.26,4.26,0,0,1,1.33.2v5.61a10.4,10.4,0,0,0-2.29-.31c-2.5,0-5.51,1.12-5.51,6.22v16.42h-5.51Z"/><path class="cls-1" d="M598.52,387.14H604v27.44h-5.51Z"/><path class="cls-1" d="M609.33,387.14h5.2v3.21h.15a7.87,7.87,0,0,1,7-3.93c4.18,0,6.83,1.89,6.83,7.45v20.7H623V395.76c0-3.57-1.07-4.95-3.82-4.95-2.24,0-4.39,1.79-4.39,5.35v18.41h-5.51Z"/><path class="cls-1" d="M639.36,387.14v29.22c0,5.71-2.4,7.6-7.24,7.6a19.6,19.6,0,0,1-2.4-.15v-4.23H631c2.09,0,2.86-.82,2.86-3.72V387.14Z"/><path class="cls-1" d="M649.4,401.58v1.58c0,3.67.46,8.36,4.59,8.36,3.93,0,4.39-4.49,4.39-6.12h5.2c0,6.07-3.67,9.89-9.64,9.89-4.49,0-10-1.33-10-14,0-7.19,1.53-14.84,10.15-14.84,7.65,0,9.69,4.59,9.69,12.24v2.91Zm8.82-3.77v-1.48c0-3.47-1.12-6.12-4.23-6.12-3.52,0-4.59,3.47-4.59,7v.56Z"/><path class="cls-1" d="M686.53,404.59c-.36,6.58-2.6,10.71-9.38,10.71-8,0-10.2-5.92-10.2-14.43s2.24-14.43,10.2-14.43c8.21-.1,9.43,6.43,9.43,9.84h-5.51c0-2.55-.71-5.86-3.93-5.76-4,0-4.69,4.28-4.69,10.35s.71,10.35,4.69,10.35c3.06.05,4.18-2.5,4.18-6.63Z"/><path class="cls-1" d="M688,387.14h3.77v-7.8h5.51v7.8h4.49v4.08h-4.49v16.37c0,2.14.61,2.91,2.5,2.91a10.53,10.53,0,0,0,2-.15v4.08a18.21,18.21,0,0,1-4.44.46c-3.72,0-5.56-1-5.56-6.63v-17H688Z"/><path class="cls-1" d="M704.57,387.14h5.51v27.44h-5.51Z"/><path class="cls-1" d="M724.51,386.43c8,0,10.25,5.92,10.25,14.43s-2.6,14.43-10.25,14.43-10.2-5.92-10.2-14.43S716.55,386.43,724.51,386.43Zm0,24.78c4,0,4.74-3.37,4.74-10.35,0-6.07-.71-10.35-4.74-10.35s-4.69,4.28-4.69,10.35C719.81,407.85,720.53,411.21,724.51,411.21Z"/><path class="cls-1" d="M737.71,387.14h5.2v3.21h.15a7.87,7.87,0,0,1,7-3.93c4.18,0,6.83,1.89,6.83,7.45v20.7h-5.51V395.76c0-3.57-1.07-4.95-3.82-4.95-2.24,0-4.39,1.79-4.39,5.35v18.41h-5.51Z"/></g></g></svg>