<svg id="Layer_1" data-name="Layer 1" xmlns="http://www.w3.org/2000/svg" viewBox="0 0 621.83 200.71"><defs><style>.cls-1{fill:#55565a;}.cls-2{fill:#005677;}.cls-3{fill:#faa21b;}</style></defs><title>logo-main</title><path class="cls-1" d="M210.91,572.75c-5.37-10.64-8.79-20.93-8.79-33.43a66.3,66.3,0,0,1,8.79-32.93h3.64c-5.37,10.78-7.39,21.28-7.39,32.93,0,12,2.07,22.5,7.39,33.43Z" transform="translate(-73.66 -403.44)"/><path class="cls-1" d="M216.62,510.15h4.76v19.07h.11c1.57-4.07,5.2-5.86,9.23-5.86,8.9,0,13.32,9,13.32,19.43S239.68,562,230.84,562a10.39,10.39,0,0,1-9.35-5.79h-.11v4.93h-4.76Zm13.43,18.57c-6.44,0-8.84,7.07-8.84,13.93,0,7.21,2.57,14,9.12,14s8.67-7.07,8.67-14.28C239,535.44,236.21,528.72,230.05,528.72Z" transform="translate(-73.66 -403.44)"/><path class="cls-1" d="M248.8,510.15h4.76v51H248.8Z" transform="translate(-73.66 -403.44)"/><path class="cls-1" d="M266,517.58h-4.76v-7.43H266Zm-4.76,6.64H266v36.93h-4.76Z" transform="translate(-73.66 -403.44)"/><path class="cls-1" d="M273.37,524.22h4.48v5.86H278c2-4.57,5.2-6.71,9.4-6.71,7.61,0,10,5.57,10,13.5v24.28h-4.76v-25c0-4.57-2.24-7.43-5.88-7.43-5.76,0-8.56,4.93-8.56,11.57v20.86h-4.76Z" transform="translate(-73.66 -403.44)"/><path class="cls-1" d="M329,561a5.57,5.57,0,0,1-3.41,1c-2.46,0-4-1.71-4-5.71A11.66,11.66,0,0,1,311.37,562c-5.26,0-9.57-2.93-9.57-10.36,0-8.36,4.87-10.21,9.79-11.36,5.2-1.36,9.74-.79,9.74-5.43,0-5.36-3.47-6.14-6.44-6.14-4,0-7,1.57-7.22,7h-4.76c.28-9.14,5.76-12.36,12.26-12.36,5.2,0,10.86,1.5,10.86,10.14v19c0,2.86,0,4.14,1.51,4.14a3.86,3.86,0,0,0,1.46-.36Zm-7.72-18.93c-3.69,3.5-14.44.07-14.44,9.14,0,4,2.69,5.43,5.6,5.43a8.44,8.44,0,0,0,8.84-8.36Z" transform="translate(-73.66 -403.44)"/><path class="cls-1" d="M340,524.22h5.76v5.36H340v22.93c0,2.86.62,3.29,3.58,3.29h2.18v5.36h-3.64c-4.93,0-6.88-1.29-6.88-8.07v-23.5h-4.92v-5.36h4.92V513.15H340Z" transform="translate(-73.66 -403.44)"/><path class="cls-1" d="M373.88,561.15H369.4v-5.86h-.11c-2,4.57-5.2,6.71-9.4,6.71-7.61,0-10-5.57-10-13.5V524.22h4.76v25c0,4.57,2.24,7.43,5.88,7.43,5.76,0,8.56-4.93,8.56-11.57V524.22h4.76Z" transform="translate(-73.66 -403.44)"/><path class="cls-1" d="M379.93,524.22h4.48v5.43h.11c2.18-4.21,5.26-6.29,9.35-6.29,3.58,0,6.77,1.71,7.95,6.29,2-4,5.32-6.29,9.07-6.29,5.76,0,9.63,3.07,9.63,10.71v27.07h-4.76V536.94c0-4.57-1-8.21-5.6-8.21s-7.56,3.71-7.56,9.43v23h-4.76V536.94c0-4.78-1.18-8.21-5.43-8.21-5.6,0-7.72,6.57-7.72,9.43v23h-4.76Z" transform="translate(-73.66 -403.44)"/><path class="cls-1" d="M437.91,523.37c9.18,0,14,8.5,14,19.36s-4.87,19.28-14,19.28-14-8.5-14-19.28S428.73,523.37,437.91,523.37Zm0,33.28c5,0,9-5,9-13.93s-4-14-9-14-9,5.07-9,14S432.92,556.65,437.91,556.65Z" transform="translate(-73.66 -403.44)"/><path class="cls-1" d="M455.31,524.22h4.48v5.43h.11c2.18-4.21,5.26-6.29,9.35-6.29,3.58,0,6.77,1.71,7.95,6.29,2-4,5.32-6.29,9.07-6.29,5.76,0,9.63,3.07,9.63,10.71v27.07h-4.76V536.94c0-4.57-1-8.21-5.6-8.21s-7.56,3.71-7.56,9.43v23h-4.76V536.94c0-4.78-1.18-8.21-5.43-8.21-5.6,0-7.72,6.57-7.72,9.43v23h-4.76Z" transform="translate(-73.66 -403.44)"/><path class="cls-1" d="M527.56,561a5.56,5.56,0,0,1-3.41,1c-2.46,0-4-1.71-4-5.71A11.66,11.66,0,0,1,509.93,562c-5.26,0-9.57-2.93-9.57-10.36,0-8.36,4.87-10.21,9.8-11.36,5.2-1.36,9.74-.79,9.74-5.43,0-5.36-3.47-6.14-6.44-6.14-4,0-7,1.57-7.22,7h-4.76c.28-9.14,5.76-12.36,12.26-12.36,5.21,0,10.86,1.5,10.86,10.14v19c0,2.86,0,4.14,1.51,4.14a3.85,3.85,0,0,0,1.45-.36Zm-7.72-18.93c-3.69,3.5-14.44.07-14.44,9.14,0,4,2.69,5.43,5.6,5.43a8.44,8.44,0,0,0,8.84-8.36Z" transform="translate(-73.66 -403.44)"/><path class="cls-1" d="M531,510.15h4.76v19.07h.11c1.57-4.07,5.21-5.86,9.23-5.86,8.9,0,13.32,9,13.32,19.43S554.09,562,545.25,562a10.39,10.39,0,0,1-9.35-5.79h-.11v4.93H531Zm13.43,18.57c-6.44,0-8.84,7.07-8.84,13.93,0,7.21,2.57,14,9.12,14s8.67-7.07,8.67-14.28C553.42,535.44,550.62,528.72,544.46,528.72Z" transform="translate(-73.66 -403.44)"/><path class="cls-1" d="M557.67,572.75c5.37-10.79,7.39-21.28,7.39-32.93,0-12-2.07-22.5-7.39-33.43h3.64c5.37,10.64,8.79,20.93,8.79,33.43a66.32,66.32,0,0,1-8.79,32.93Z" transform="translate(-73.66 -403.44)"/><path class="cls-2" d="M127.83,445c18.36-5.29,24.17,4.66,25.09,6.73,2.66,7.77-.7,16.78-7.22,24.84,8.43,1,16.12,1.3,20.55,1.46,13.73.33,18.24-2.14,14.13-7.12-3.48-5.21-15.59-12.93-20.13-28.37-.15-.48-.3-1-.43-1.44s-.2-.69-.29-1c-4.18-14.41,1.71-29.78.76-34.69-.67-3.93-6.69-1.57-14.13,3.47-.21.14-1.3.9-1.66,1.16-10.51,8-44.61,32.42-37.61,51.37a12.43,12.43,0,0,0,4.32,5.36C108.74,458.36,116.05,448.43,127.83,445Z" transform="translate(-73.66 -403.44)"/><path class="cls-1" d="M127.66,469c-18.37,5.3-24.18-4.67-25.09-6.74-2.66-7.77.7-16.79,7.22-24.84-8.43-.95-16.13-1.3-20.55-1.46-13.72-.33-18.23,2.14-14.12,7.13C78.59,448.3,90.7,456,95.24,471.46c.15.48.3.95.44,1.44.1.33.2.69.28,1,4.18,14.4-1.7,29.77-.75,34.68.67,3.93,6.69,1.57,14.14-3.46L111,504c10.52-8,44.62-32.42,37.61-51.37a12.34,12.34,0,0,0-4.31-5.36C146.75,455.66,139.43,465.6,127.66,469Z" transform="translate(-73.66 -403.44)"/><path class="cls-3" d="M128.08,449.11c-8.15,3.56-14,10.91-14.12,16.94,2.7,1.3,7.16,1.67,14.4-1.49,8.16-3.57,14-10.91,14.13-17C139.78,446.31,135.33,445.95,128.08,449.11Z" transform="translate(-73.66 -403.44)"/><path class="cls-2" d="M202.62,495.92V417.57h26.64c7.61,0,12.43,2.13,16.12,5.49a20.2,20.2,0,0,1,6.49,14.89,19.55,19.55,0,0,1-6.16,14A23.12,23.12,0,0,1,250,490.66c-4,3.36-9.18,5.26-17.13,5.26Zm24.63-47.57c6.27,0,9-1.23,10.75-3.25a10,10,0,0,0,0-13.66c-1.79-2-4.48-3.25-10.75-3.25H213.81v20.15Zm3.58,36.94c7.05,0,10.41-1.57,12.87-4a13.33,13.33,0,0,0,3.69-9.18A13.06,13.06,0,0,0,243.7,463c-2.46-2.46-5.82-4-12.87-4h-17v26.3Z" transform="translate(-73.66 -403.44)"/><path class="cls-2" d="M279.29,485.29H314v10.63H268.1V417.57h11.19Z" transform="translate(-73.66 -403.44)"/><path class="cls-2" d="M324.06,417.57h11.19v78.35H324.06Z" transform="translate(-73.66 -403.44)"/><path class="cls-2" d="M357.64,438.39v57.53H346.44V417.57h7.83l47,57.53V417.57h11.19v78.35h-7.84Z" transform="translate(-73.66 -403.44)"/><path class="cls-2" d="M459.38,416.45c11.19,0,21.83,4.59,28.65,12.09l-7.5,7.39c-4.59-5-12.76-8.84-21.16-8.84-16,0-28.43,12.76-28.43,29.66,0,17.69,12.76,29.66,29.44,29.66,10.52,0,18.13-5.82,22.5-11.08l7.95,7.16c-6.72,8.62-18.36,14.55-30.45,14.55-23.39,0-40.63-17.13-40.63-40.3C419.76,434.13,436.77,416.45,459.38,416.45Z" transform="translate(-73.66 -403.44)"/><path class="cls-2" d="M528.33,460.1v35.82H517.13V460.1l-26.86-42.54h12.54L522.73,449l19.92-31.45h12.54Z" transform="translate(-73.66 -403.44)"/><path class="cls-2" d="M559.1,417.57h53.73V428.2H591.57v67.72H580.37V428.2H559.1Z" transform="translate(-73.66 -403.44)"/><path class="cls-2" d="M647.53,416.45c22.16,0,39.18,17.46,39.18,40.3s-17,40.3-39.18,40.3-39.18-17.46-39.18-40.3S625.37,416.45,647.53,416.45Zm0,70c16,0,28-12.65,28-29.66s-12-29.66-28-29.66-28,12.76-28,29.66S631.52,486.41,647.53,486.41Z" transform="translate(-73.66 -403.44)"/><path class="cls-1" d="M578.72,515.84H576.2v-2.77h2.51v-2.84c0-3.1,1.44-4.72,4.13-4.72a4.82,4.82,0,0,1,1.59.3v2.73a3.7,3.7,0,0,0-1.39-.26c-1.18,0-1.88.48-1.88,2.14v2.65h2.89v2.77h-2.89v16.3h-2.45Z" transform="translate(-73.66 -403.44)"/><path class="cls-1" d="M592.26,512.63c4.74,0,7.25,4.39,7.25,10s-2.51,10-7.25,10-7.25-4.39-7.25-10S587.52,512.63,592.26,512.63Zm0,17.18c2.57,0,4.65-2.58,4.65-7.19s-2.08-7.23-4.65-7.23-4.65,2.62-4.65,7.23S589.69,529.81,592.26,529.81Z" transform="translate(-73.66 -403.44)"/><path class="cls-1" d="M601.7,513.07H604v4h.06c1.18-3.1,2.83-4.57,5.49-4.46v3.32c-4,0-5.4,2.84-5.4,7.71v8.48H601.7Z" transform="translate(-73.66 -403.44)"/><path class="cls-1" d="M581.27,543.95h-2.45v-3.83h2.45Zm-2.45,3.43h2.45v19.06h-2.45Z" transform="translate(-73.66 -403.44)"/><path class="cls-1" d="M585,547.37h2.31v3h.06c1-2.36,2.69-3.47,4.85-3.47,3.93,0,5.14,2.88,5.14,7v12.54h-2.45v-12.9c0-2.36-1.15-3.83-3-3.83-3,0-4.42,2.54-4.42,6v10.77H585Z" transform="translate(-73.66 -403.44)"/><path class="cls-1" d="M604.12,568.87c0,3.39-1.39,4.87-3.58,4.87a5,5,0,0,1-1.27-.15V570.9a2.63,2.63,0,0,0,.49.07h.52c1.07,0,1.39-.66,1.39-2.62v-21h2.46Zm0-24.92h-2.46v-3.83h2.46Z" transform="translate(-73.66 -403.44)"/><path class="cls-1" d="M620.16,560.39c-.66,4.24-3,6.49-6.38,6.49-4.77,0-7-4.24-7.16-10s2.95-9.92,7-9.92c5.29,0,6.9,6.3,6.76,10.91H609.22c-.09,3.32,1.39,6.27,4.65,6.27,2,0,3.44-1.22,3.87-3.72Zm-2.37-5.31c-.15-3-1.85-5.38-4.3-5.38s-4.13,2.43-4.27,5.38Z" transform="translate(-73.66 -403.44)"/><path class="cls-1" d="M633.4,553.49c-.38-2.4-1.65-3.8-3.7-3.8-3.55,0-4.65,3.61-4.65,7.45,0,3.54,1.24,7,4.36,7,2.4,0,3.78-1.73,4.1-4.65H636c-.55,4.68-2.8,7.41-6.58,7.41-4.56,0-7-4-7-9.73s2.31-10.21,7-10.21c3.41,0,6.06,2,6.44,6.56Z" transform="translate(-73.66 -403.44)"/><path class="cls-1" d="M642.43,547.37h3v2.76h-3V562c0,1.48.32,1.7,1.85,1.7h1.13v2.76h-1.88c-2.54,0-3.55-.66-3.55-4.17V550.14h-2.54v-2.76H640v-5.72h2.45Z" transform="translate(-73.66 -403.44)"/><path class="cls-1" d="M650.56,543.95H648.1v-3.83h2.46Zm-2.46,3.43h2.46v19.06H648.1Z" transform="translate(-73.66 -403.44)"/><path class="cls-1" d="M660.82,546.93c4.74,0,7.25,4.39,7.25,10s-2.51,10-7.25,10-7.25-4.39-7.25-10S656.08,546.93,660.82,546.93Zm0,17.18c2.57,0,4.65-2.58,4.65-7.19s-2.08-7.23-4.65-7.23-4.65,2.62-4.65,7.23S658.25,564.11,660.82,564.11Z" transform="translate(-73.66 -403.44)"/><path class="cls-1" d="M670.41,547.37h2.31v3h.06c1-2.36,2.69-3.47,4.85-3.47,3.93,0,5.14,2.88,5.14,7v12.54h-2.45v-12.9c0-2.36-1.15-3.83-3-3.83-3,0-4.42,2.54-4.42,6v10.77h-2.45Z" transform="translate(-73.66 -403.44)"/><path class="cls-1" d="M433.24,586.95h1.3c2.21,0,3.19-1.59,3.19-3.69,0-1.89-.71-3.48-2.71-3.48-2.71,0-3,2.57-3,4.07h-2.6c0-3.54,1.68-6,5.55-6,4.37,0,5.37,3.07,5.37,5.43a4.28,4.28,0,0,1-3.25,4.48v.06c2.36.47,3.87,1.95,3.87,4.87,0,3.81-1.92,6.46-5.93,6.46a5.55,5.55,0,0,1-5.93-5.81v-.27h2.6c0,1.92,1,4.13,3.33,4.13,1.53,0,3.33-.77,3.33-4.31,0-2.48-1.18-4-3.78-4h-1.33Z" transform="translate(-73.66 -403.44)"/><path class="cls-1" d="M445,578.24h9.32v2.3h-7.35l-.83,6,.06.06a4.73,4.73,0,0,1,3.66-1.56c3.16,0,5.25,2.48,5.25,6.88,0,3.89-1.71,7.17-6.08,7.17-5,0-5.72-4.1-5.72-5.78h2.6c0,1.09.41,3.84,3.19,3.84,3,0,3.42-3.3,3.42-5.43,0-2.3-.86-4.72-3.48-4.72a3.1,3.1,0,0,0-3,2L443.8,589Z" transform="translate(-73.66 -403.44)"/><path class="cls-1" d="M464,582.91h2.36v1.86h.06a4.26,4.26,0,0,1,3.84-2.27,3.09,3.09,0,0,1,3.42,2.51,4.35,4.35,0,0,1,3.75-2.51c4.16,0,4.16,3.13,4.16,5v11.21h-2.48V587.8c0-1.21-.09-3.19-2.12-3.19a2.89,2.89,0,0,0-3,3.19v10.92h-2.48V587.8c0-1.21-.09-3.19-2.12-3.19a2.89,2.89,0,0,0-3,3.19v10.92H464Z" transform="translate(-73.66 -403.44)"/><path class="cls-1" d="M492.6,587.72c0-1.53-.62-3.28-2.51-3.28-1.53,0-3.1.77-3.1,6.55,0,2,0,6.2,3,6.2,2.12,0,2.6-2.24,2.6-4h2.48c0,2.48-1.24,5.9-5.19,5.9s-5.49-2.66-5.49-8.11c0-3.92.77-8.53,5.64-8.53,4.34,0,5,3.42,5,5.22Z" transform="translate(-73.66 -403.44)"/><path class="cls-1" d="M508.06,597.72c0,4.72-2.21,6.43-5.37,6.43-1,0-4.81,0-5.19-4H500c.12,1.45,1.24,2,2.54,2,3.19,0,3.07-2.45,3.07-3.54V596.6h-.06a3.79,3.79,0,0,1-3.57,2.12c-4.6,0-4.9-5.81-4.9-7.91,0-4.28,1.15-8.32,5.16-8.32a3.49,3.49,0,0,1,3.42,2.42h.06v-2h2.36Zm-8.41-6.9c0,2.57.38,5.78,2.86,5.78,2.71,0,3.22-2.54,3.22-5.78,0-3.07-.5-6.2-3.19-6.2C500.27,584.62,499.65,587,499.65,590.81Z" transform="translate(-73.66 -403.44)"/><path class="cls-1" d="M525.17,587.54c0-2-.53-3.1-2.33-3.1a2.28,2.28,0,0,0-2.57,2.42c0,1.89,1.95,2.24,3.89,2.86S528,591,528,594.18s-2.15,5-5.11,5c-5.37,0-5.43-4-5.43-5.61H520c0,1.92.5,3.66,3,3.66a2.48,2.48,0,0,0,2.63-2.63c0-2.12-2-2.6-3.86-3.22s-3.89-1.24-3.89-4.49c0-3,2.3-4.37,5-4.37,4.6,0,4.81,3.19,4.81,5Z" transform="translate(-73.66 -403.44)"/><path class="cls-1" d="M530.54,577.65H533v2.83h-2.48Zm0,5.25H533v15.82h-2.48Z" transform="translate(-73.66 -403.44)"/><path class="cls-1" d="M536.41,582.91h2.36v1.86h.06a4.26,4.26,0,0,1,3.84-2.27c4.16,0,4.16,3.13,4.16,5v11.21h-2.48V587.8c0-1.21-.09-3.19-2.33-3.19a3.07,3.07,0,0,0-3.13,3.19v10.92h-2.48Z" transform="translate(-73.66 -403.44)"/><path class="cls-1" d="M560.49,597.72c0,4.72-2.21,6.43-5.37,6.43-1,0-4.81,0-5.19-4h2.48c.12,1.45,1.24,2,2.54,2,3.19,0,3.07-2.45,3.07-3.54V596.6h-.06a3.79,3.79,0,0,1-3.57,2.12c-4.6,0-4.9-5.81-4.9-7.91,0-4.28,1.15-8.32,5.16-8.32a3.49,3.49,0,0,1,3.42,2.42h.06v-2h2.36Zm-8.41-6.9c0,2.57.38,5.78,2.86,5.78,2.71,0,3.22-2.54,3.22-5.78,0-3.07-.5-6.2-3.19-6.2C552.7,584.62,552.08,587,552.08,590.81Z" transform="translate(-73.66 -403.44)"/><path class="cls-1" d="M563.88,577.65h2.48v21.07h-2.48Z" transform="translate(-73.66 -403.44)"/><path class="cls-1" d="M571.81,591.11c0,2.45,0,6.08,3,6.08,2.36,0,2.69-2.45,2.69-3.66H580c0,1.68-1,5.61-5.31,5.61-3.89,0-5.49-2.66-5.49-8.11,0-3.92.77-8.53,5.64-8.53s5.28,4.19,5.28,7.61v1Zm5.72-1.95v-.86c0-1.77-.53-3.87-2.74-3.87-2.6,0-2.89,3.19-2.89,4.13v.59Z" transform="translate(-73.66 -403.44)"/><path class="cls-1" d="M582.82,589.19H590v2.3h-7.2Z" transform="translate(-73.66 -403.44)"/><path class="cls-1" d="M603.65,598.72h-2.36v-1.95h-.06a3.58,3.58,0,0,1-3.42,2.36c-3.75,0-5.16-3.36-5.16-8.32,0-3.3.5-8.32,5-8.32a3.79,3.79,0,0,1,3.48,2.21h.06v-7.05h2.48ZM598.13,597c2.71,0,3.19-2.57,3.19-6.2,0-3.07-.5-6.2-3.19-6.2-2.27,0-2.89,2.42-2.89,6.2S595.86,597,598.13,597Z" transform="translate(-73.66 -403.44)"/><path class="cls-1" d="M611.23,582.49c4.57,0,5.69,3.87,5.69,8.32s-1.15,8.32-5.69,8.32-5.7-3.87-5.7-8.32S606.66,582.49,611.23,582.49Zm3.1,8.32c0-3.42-.47-6.37-3.16-6.37-2.51,0-3,3-3,6.37s.5,6.37,3,6.37S614.33,594.24,614.33,590.81Z" transform="translate(-73.66 -403.44)"/><path class="cls-1" d="M626.19,587.54c0-2-.53-3.1-2.33-3.1a2.28,2.28,0,0,0-2.57,2.42c0,1.89,1.95,2.24,3.89,2.86S629,591,629,594.18s-2.15,5-5.11,5c-5.37,0-5.43-4-5.43-5.61H621c0,1.92.5,3.66,3,3.66a2.48,2.48,0,0,0,2.63-2.63c0-2.12-2-2.6-3.86-3.22s-3.89-1.24-3.89-4.49c0-3,2.3-4.37,5-4.37,4.6,0,4.81,3.19,4.81,5Z" transform="translate(-73.66 -403.44)"/><path class="cls-1" d="M632.88,591.11c0,2.45,0,6.08,3,6.08,2.36,0,2.69-2.45,2.69-3.66h2.48c0,1.68-1,5.61-5.31,5.61-3.89,0-5.49-2.66-5.49-8.11,0-3.92.77-8.53,5.64-8.53s5.28,4.19,5.28,7.61v1Zm5.72-1.95v-.86c0-1.77-.53-3.87-2.74-3.87-2.6,0-2.89,3.19-2.89,4.13v.59Z" transform="translate(-73.66 -403.44)"/><path class="cls-1" d="M647.9,582.91h2.72l2.95,12.69h.06l3-12.69h2.71L655,598.72h-2.83Z" transform="translate(-73.66 -403.44)"/><path class="cls-1" d="M661.35,577.65h2.48v2.83h-2.48Zm0,5.25h2.48v15.82h-2.48Z" transform="translate(-73.66 -403.44)"/><path class="cls-1" d="M666.84,587.69c0-3.57,1.54-5.19,5.31-5.19,4.81,0,4.81,2.89,4.81,4.54v8.82c0,.68,0,1.27.77,1.27a.89.89,0,0,0,.59-.15v1.77a9.42,9.42,0,0,1-1.45.15c-.91,0-2.15,0-2.24-2h-.06a4.44,4.44,0,0,1-3.81,2.27c-3,0-4.31-1.77-4.31-4.6,0-2.24.94-3.75,3-4.37l3.33-1c1.83-.56,1.8-1.09,1.8-2.39,0-1.5-.89-2.33-2.54-2.33-2.71,0-2.71,2.51-2.71,3.1v.15Zm7.64,2.42c-1,1-3.1,1.12-4.22,1.86a2.52,2.52,0,0,0-1.21,2.51c0,1.62.56,2.71,2.24,2.71a3.18,3.18,0,0,0,3.19-3Z" transform="translate(-73.66 -403.44)"/><path class="cls-1" d="M680.47,577.65h2.48v21.07h-2.48Z" transform="translate(-73.66 -403.44)"/><path class="cls-2" d="M689.13,416.15a6.36,6.36,0,1,1-6.36,6.35A6.36,6.36,0,0,1,689.13,416.15Zm0,11.86a5.5,5.5,0,1,0-5.5-5.5A5.53,5.53,0,0,0,689.13,428Zm1.83-2.07-2.34-3.41h-.91v3.41h-.85v-7h2.4a2.06,2.06,0,0,1,1.61.53,1.76,1.76,0,0,1,.53,1.25,1.8,1.8,0,0,1-.53,1.27,1.82,1.82,0,0,1-1.25.49l2.3,3.41Zm-1.76-4.19c.67,0,.93-.13,1.11-.35a1,1,0,0,0,0-1.27c-.18-.22-.44-.35-1.11-.35h-1.49v2Z" transform="translate(-73.66 -403.44)"/></svg>