<svg xmlns="http://www.w3.org/2000/svg" viewBox="0 0 360.62 357.65"><defs><style>.cls-1{fill:#58595b;}.cls-2{fill:#0093c9;}.cls-3{fill:#fff;}</style></defs><title>prime-population-sm</title><g id="Layer_2" data-name="Layer 2"><g id="Layer_1-2" data-name="Layer 1"><rect class="cls-1" y="184.54" width="174.6" height="173.11"/><rect class="cls-2" width="174.6" height="173.11"/><rect class="cls-1" x="186.03" y="184.54" width="174.6" height="173.11"/><rect class="cls-1" x="186.03" width="174.6" height="173.11"/><path class="cls-3" d="M11.33,51.06H13l2,13.49,2.4-13.49H18.8l2.38,13.49,2-13.49h1.58L22,68H20.4L18.05,54.57,15.68,68H14.14Z" transform="translate(0)"/><path class="cls-3" d="M28.18,52.53H25.63V51.06H32.3v1.46H29.74V67.87H28.18Z" transform="translate(0)"/><path class="cls-3" d="M39.77,51.06h1.56L39.6,59.92l5.83-8.86h1.75L42.07,58.7l2.14,9.17H42.55l-1.73-7.61L39,62.87l-1,5H36.5Z" transform="translate(0)"/><path class="cls-3" d="M50.08,61.29c-.31,0-.62,0-.94,0h-.72l-1.27,6.53H45.59l3.26-16.8h1.9A4.63,4.63,0,0,1,54,52.19a4,4,0,0,1,1.13,3,6.23,6.23,0,0,1-1.75,4.46,5.37,5.37,0,0,1-1.82,1.2l1.56,7H51.52Zm-.89-1.34a3.86,3.86,0,0,0,3.07-1.1,5,5,0,0,0,1.32-3.6,2.85,2.85,0,0,0-.67-2,3,3,0,0,0-2.18-.74h-.58l-1.46,7.44Z" transform="translate(0)"/><path class="cls-3" d="M61,51h1.68l.26,16.87H61.36l0-4.34H57.45l-1.73,4.34H54.18Zm.34,11.11,0-8.47L58,62.1Z" transform="translate(0)"/><path class="cls-3" d="M64.36,66.76l.34-1.7a4,4,0,0,0,2.83,1.51,2.37,2.37,0,0,0,2.28-2.66,9.06,9.06,0,0,0-1.39-4c-1.3-2.45-1.7-3.65-1.7-5a4.19,4.19,0,0,1,1.15-3,3.62,3.62,0,0,1,2.66-1.08,4.33,4.33,0,0,1,2.76,1L73,53.63a3.66,3.66,0,0,0-2.5-1.27,2.25,2.25,0,0,0-2.18,2.47,8.57,8.57,0,0,0,1.3,3.84c1.25,2.33,1.78,3.7,1.78,5.09A4.46,4.46,0,0,1,70.17,67,3.59,3.59,0,0,1,67.48,68,4.65,4.65,0,0,1,64.36,66.76Z" transform="translate(0)"/><path class="cls-3" d="M79.91,60.14H77.05V58.7h2.86v-3h1.42v3h2.86v1.44H81.32v3H79.91Z" transform="translate(0)"/><path class="cls-3" d="M89.29,51.06h1.63l2,13.49,2.4-13.49h1.44l2.38,13.49,2-13.49h1.58L99.92,68H98.36L96,54.57,93.63,68H92.1Z" transform="translate(0)"/><path class="cls-3" d="M106.13,52.53h-2.54V51.06h6.67v1.46h-2.57V67.87h-1.56Z" transform="translate(0)"/><path class="cls-3" d="M117.72,51.06h1.49l2.23,12.7,2.5-12.7h1.49l-3.26,16.8h-1.37l-2.3-13.1-2.54,13.1h-1.49Z" transform="translate(0)"/><path class="cls-3" d="M129.07,61.29c-.31,0-.62,0-.94,0h-.72l-1.27,6.53h-1.56l3.26-16.8h1.9A4.63,4.63,0,0,1,133,52.19a4,4,0,0,1,1.13,3,6.23,6.23,0,0,1-1.75,4.46,5.37,5.37,0,0,1-1.82,1.2l1.56,7h-1.63Zm-.89-1.34a3.86,3.86,0,0,0,3.07-1.1,5,5,0,0,0,1.32-3.6,2.85,2.85,0,0,0-.67-2,3,3,0,0,0-2.18-.74h-.58l-1.46,7.44Z" transform="translate(0)"/><path class="cls-3" d="M140,51h1.68l.26,16.87h-1.58l0-4.34h-3.89l-1.73,4.34h-1.54Zm.34,11.11,0-8.47-3.34,8.47Z" transform="translate(0)"/><path class="cls-3" d="M143.35,66.76l.34-1.7a4,4,0,0,0,2.83,1.51,2.38,2.38,0,0,0,2.28-2.66,9.06,9.06,0,0,0-1.39-4c-1.3-2.45-1.7-3.65-1.7-5a4.19,4.19,0,0,1,1.15-3,3.62,3.62,0,0,1,2.66-1.08,4.33,4.33,0,0,1,2.76,1l-.31,1.7a3.66,3.66,0,0,0-2.5-1.27,2.25,2.25,0,0,0-2.18,2.47,8.56,8.56,0,0,0,1.3,3.84c1.25,2.33,1.78,3.7,1.78,5.09a4.45,4.45,0,0,1-1.2,3.19A3.59,3.59,0,0,1,146.47,68,4.65,4.65,0,0,1,143.35,66.76Z" transform="translate(0)"/><path class="cls-3" d="M156.52,62.22l4.82-2.81-4.82-2.78v-1.8l6.41,3.89v1.39L156.52,64Z" transform="translate(0)"/><path class="cls-3" d="M33.33,125.86l-5.78-38.3h6.82L37.15,111l3.33-23.41h6.17L49.92,111l2.84-23.41h6.66l-5.78,38.3h-7l-3.17-22.64-3.16,22.64Z" transform="translate(0)"/><path class="cls-3" d="M65.2,125.75V93.88H60.51V87.56h16v6.33H71.85v31.87Z" transform="translate(0)"/><path class="cls-3" d="M97.61,125.75l-1.75-13.31H94.39l-2.56,13.31H85.17l7.42-38.19h4.69q6.16,0,8.95,2.78A10.18,10.18,0,0,1,109,97.87a14.64,14.64,0,0,1-4.26,10.8,9.6,9.6,0,0,1-2.35,1.75l2.07,15.33Zm-2.07-19.32h.33a5.68,5.68,0,0,0,4.2-1.58q2.24-2.24,2.24-6.82a4.37,4.37,0,0,0-1.09-3.22,4.07,4.07,0,0,0-3-1H98Z" transform="translate(0)"/><path class="cls-3" d="M105,125.75l14.68-38.3h7.09l-.16,38.3h-6.77l.22-7.58h-6l-2.73,7.58Zm11.13-13.59h4.09l.38-12.6Z" transform="translate(0)"/><path class="cls-3" d="M135.8,126a13,13,0,0,1-7.53-2.4l1.31-6.82q3.55,2.95,6,2.95a3.4,3.4,0,0,0,2.73-1.23,4.86,4.86,0,0,0,1-3.25q0-2.29-2.73-6.55a37,37,0,0,1-3.08-5.78,13.58,13.58,0,0,1-1-5.07,10.4,10.4,0,0,1,2.95-7.69,9.58,9.58,0,0,1,7-2.89,12.1,12.1,0,0,1,6.71,2L148,96.12q-3.11-2.56-5.24-2.56a3.15,3.15,0,0,0-2.56,1.12,4.17,4.17,0,0,0-.93,2.76q0,2.46,2.35,6.22A51,51,0,0,1,145,110a12.27,12.27,0,0,1,1,4.83,11.44,11.44,0,0,1-3.27,8.46A9.41,9.41,0,0,1,135.8,126Z" transform="translate(0)"/><path class="cls-3" d="M199.93,51.06h1.63l2,13.49L206,51.06h1.44l2.38,13.49,2-13.49h1.58L210.56,68H209l-2.35-13.39L204.27,68h-1.54Z" transform="translate(0)"/><path class="cls-3" d="M216.77,52.53h-2.54V51.06h6.67v1.46h-2.57V67.87h-1.56Z" transform="translate(0)"/><path class="cls-3" d="M228.36,51.06h1.56l-1.73,8.86L234,51.06h1.75l-5.11,7.63,2.14,9.17h-1.66l-1.73-7.61-1.8,2.62-1,5H225.1Z" transform="translate(0)"/><path class="cls-3" d="M238.68,61.29c-.31,0-.62,0-.94,0H237l-1.27,6.53h-1.56l3.26-16.8h1.9a4.63,4.63,0,0,1,3.29,1.13,4,4,0,0,1,1.13,3A6.23,6.23,0,0,1,242,59.7a5.37,5.37,0,0,1-1.82,1.2l1.56,7h-1.63Zm-.89-1.34a3.86,3.86,0,0,0,3.07-1.1,5,5,0,0,0,1.32-3.6,2.85,2.85,0,0,0-.67-2,3,3,0,0,0-2.18-.74h-.58l-1.46,7.44Z" transform="translate(0)"/><path class="cls-3" d="M249.6,51h1.68l.26,16.87H250l0-4.34H246l-1.73,4.34h-1.54Zm.34,11.11,0-8.47-3.34,8.47Z" transform="translate(0)"/><path class="cls-3" d="M253,66.76l.34-1.7a4,4,0,0,0,2.83,1.51,2.38,2.38,0,0,0,2.28-2.66,9.06,9.06,0,0,0-1.39-4c-1.3-2.45-1.7-3.65-1.7-5a4.19,4.19,0,0,1,1.15-3,3.62,3.62,0,0,1,2.66-1.08,4.33,4.33,0,0,1,2.76,1l-.31,1.7a3.66,3.66,0,0,0-2.5-1.27,2.25,2.25,0,0,0-2.18,2.47,8.56,8.56,0,0,0,1.3,3.84c1.25,2.33,1.78,3.7,1.78,5.09a4.45,4.45,0,0,1-1.2,3.19A3.59,3.59,0,0,1,256.08,68,4.65,4.65,0,0,1,253,66.76Z" transform="translate(0)"/><path class="cls-3" d="M268.51,60.14h-2.86V58.7h2.86v-3h1.42v3h2.86v1.44h-2.86v3h-1.42Z" transform="translate(0)"/><path class="cls-3" d="M278.56,51.06h1.73l2.81,8.52,2.83-8.52h1.73v16.8h-1.51V54.57l-3,8.83H283l-3-8.83v13.3h-1.49Z" transform="translate(0)"/><path class="cls-3" d="M291.71,52.53h-2.54V51.06h6.67v1.46h-2.57V67.87h-1.56Z" transform="translate(0)"/><path class="cls-3" d="M303.3,51.06h1.49L307,63.76l2.5-12.7H311l-3.26,16.8h-1.37l-2.3-13.1-2.54,13.1H300Z" transform="translate(0)"/><path class="cls-3" d="M314.65,61.29c-.31,0-.62,0-.94,0H313l-1.27,6.53h-1.56l3.26-16.8h1.9a4.63,4.63,0,0,1,3.29,1.13,4,4,0,0,1,1.13,3A6.23,6.23,0,0,1,318,59.7a5.37,5.37,0,0,1-1.82,1.2l1.56,7h-1.63Zm-.89-1.34a3.86,3.86,0,0,0,3.07-1.1,5,5,0,0,0,1.32-3.6,2.85,2.85,0,0,0-.67-2,3,3,0,0,0-2.18-.74h-.58l-1.46,7.44Z" transform="translate(0)"/><path class="cls-3" d="M325.57,51h1.68l.26,16.87h-1.58l0-4.34H322l-1.73,4.34h-1.54Zm.34,11.11,0-8.47-3.34,8.47Z" transform="translate(0)"/><path class="cls-3" d="M328.92,66.76l.34-1.7a4,4,0,0,0,2.83,1.51,2.38,2.38,0,0,0,2.28-2.66,9.06,9.06,0,0,0-1.39-4c-1.3-2.45-1.7-3.65-1.7-5a4.19,4.19,0,0,1,1.15-3,3.62,3.62,0,0,1,2.66-1.08,4.33,4.33,0,0,1,2.76,1l-.31,1.7a3.66,3.66,0,0,0-2.5-1.27,2.25,2.25,0,0,0-2.18,2.47,8.56,8.56,0,0,0,1.3,3.84c1.25,2.33,1.78,3.7,1.78,5.09a4.45,4.45,0,0,1-1.2,3.19A3.59,3.59,0,0,1,332,68,4.65,4.65,0,0,1,328.92,66.76Z" transform="translate(0)"/><path class="cls-3" d="M342.1,62.22l4.82-2.81-4.82-2.78v-1.8l6.41,3.89v1.39L342.1,64Z" transform="translate(0)"/><path class="cls-3" d="M219.33,125.75V87.56H226l4.58,14.51,4.58-14.51h6.71v38.19h-6.38V102.56l-4.86,14.57h-.11l-4.86-14.57v23.19Z" transform="translate(0)"/><path class="cls-3" d="M249.39,125.75V93.88H244.7V87.56h16v6.33h-4.69v31.87Z" transform="translate(0)"/><path class="cls-3" d="M281.8,125.75l-1.75-13.31h-1.47L276,125.75h-6.66l7.42-38.19h4.69q6.17,0,8.95,2.78a10.18,10.18,0,0,1,2.73,7.53,14.64,14.64,0,0,1-4.26,10.8,9.6,9.6,0,0,1-2.35,1.75l2.07,15.33Zm-2.07-19.32h.33a5.68,5.68,0,0,0,4.2-1.58q2.24-2.24,2.24-6.82a4.37,4.37,0,0,0-1.09-3.22,4.06,4.06,0,0,0-3-1h-.16Z" transform="translate(0)"/><path class="cls-3" d="M289.17,125.75l14.68-38.3h7.09l-.16,38.3H304l.22-7.58h-6l-2.73,7.58Zm11.13-13.59h4.09l.38-12.6Z" transform="translate(0)"/><path class="cls-3" d="M320,126a13,13,0,0,1-7.53-2.4l1.31-6.82q3.55,2.95,6,2.95a3.4,3.4,0,0,0,2.73-1.23,4.86,4.86,0,0,0,1-3.25q0-2.29-2.73-6.55a37,37,0,0,1-3.08-5.78,13.58,13.58,0,0,1-1-5.07,10.4,10.4,0,0,1,2.95-7.69,9.58,9.58,0,0,1,7-2.89,12.1,12.1,0,0,1,6.71,2l-1.31,6.82q-3.11-2.56-5.24-2.56a3.15,3.15,0,0,0-2.56,1.12,4.17,4.17,0,0,0-.93,2.76q0,2.46,2.35,6.22a51,51,0,0,1,3.44,6.3,12.27,12.27,0,0,1,1,4.83,11.44,11.44,0,0,1-3.27,8.46A9.41,9.41,0,0,1,320,126Z" transform="translate(0)"/><path class="cls-3" d="M13.51,235h1.73l2.81,8.52L20.88,235h1.73v16.8H21.1V238.5l-3,8.83H18l-3-8.83v13.3H13.51Z" transform="translate(0)"/><path class="cls-3" d="M26.66,236.46H24.12V235h6.67v1.46H28.22V251.8H26.66Z" transform="translate(0)"/><path class="cls-3" d="M38.25,235h1.56l-1.73,8.86L43.92,235h1.75l-5.11,7.63,2.14,9.17H41l-1.73-7.61-1.8,2.62-1,5H35Z" transform="translate(0)"/><path class="cls-3" d="M48.57,245.22c-.31,0-.62,0-.94,0h-.72l-1.27,6.53H44.08L47.35,235h1.9a4.63,4.63,0,0,1,3.29,1.13,4,4,0,0,1,1.13,3,6.23,6.23,0,0,1-1.75,4.46,5.38,5.38,0,0,1-1.82,1.2l1.56,7H50Zm-.89-1.34a3.86,3.86,0,0,0,3.07-1.1,5,5,0,0,0,1.32-3.6,2.85,2.85,0,0,0-.67-2,3,3,0,0,0-2.18-.74h-.58l-1.46,7.44Z" transform="translate(0)"/><path class="cls-3" d="M59.49,234.93h1.68l.26,16.87H59.85l0-4.34H55.94l-1.73,4.34H52.67ZM59.82,246l0-8.47L56.44,246Z" transform="translate(0)"/><path class="cls-3" d="M62.85,250.7l.34-1.7A4,4,0,0,0,66,250.5a2.37,2.37,0,0,0,2.28-2.66,9.06,9.06,0,0,0-1.39-4c-1.3-2.45-1.7-3.65-1.7-5a4.19,4.19,0,0,1,1.15-3A3.62,3.62,0,0,1,69,234.83a4.33,4.33,0,0,1,2.76,1l-.31,1.7A3.66,3.66,0,0,0,69,236.3a2.25,2.25,0,0,0-2.18,2.47,8.57,8.57,0,0,0,1.3,3.84c1.25,2.33,1.78,3.7,1.78,5.09a4.46,4.46,0,0,1-1.2,3.19A3.59,3.59,0,0,1,66,252,4.65,4.65,0,0,1,62.85,250.7Z" transform="translate(0)"/><path class="cls-3" d="M78.39,244.07H75.54v-1.44h2.86v-3h1.42v3h2.86v1.44H79.81v3H78.39Z" transform="translate(0)"/><path class="cls-3" d="M87.78,235h1.63l2,13.49L93.8,235h1.44l2.38,13.49,2-13.49h1.58l-2.81,16.9H96.85L94.5,238.5,92.12,251.9H90.58Z" transform="translate(0)"/><path class="cls-3" d="M104.62,236.46h-2.54V235h6.67v1.46h-2.57V251.8h-1.56Z" transform="translate(0)"/><path class="cls-3" d="M116.21,235h1.49l2.23,12.7,2.5-12.7h1.49l-3.26,16.8h-1.37L117,238.7l-2.54,13.1h-1.49Z" transform="translate(0)"/><path class="cls-3" d="M127.56,245.22c-.31,0-.62,0-.94,0h-.72l-1.27,6.53h-1.56l3.26-16.8h1.9a4.63,4.63,0,0,1,3.29,1.13,4,4,0,0,1,1.13,3,6.23,6.23,0,0,1-1.75,4.46,5.38,5.38,0,0,1-1.82,1.2l1.56,7H129Zm-.89-1.34a3.86,3.86,0,0,0,3.07-1.1,5,5,0,0,0,1.32-3.6,2.85,2.85,0,0,0-.67-2,3,3,0,0,0-2.18-.74h-.58l-1.46,7.44Z" transform="translate(0)"/><path class="cls-3" d="M138.48,234.93h1.68l.26,16.87h-1.58l0-4.34h-3.89l-1.73,4.34h-1.54Zm.34,11.11,0-8.47L135.43,246Z" transform="translate(0)"/><path class="cls-3" d="M141.83,250.7l.34-1.7A4,4,0,0,0,145,250.5a2.37,2.37,0,0,0,2.28-2.66,9.06,9.06,0,0,0-1.39-4c-1.3-2.45-1.7-3.65-1.7-5a4.19,4.19,0,0,1,1.15-3,3.62,3.62,0,0,1,2.66-1.08,4.33,4.33,0,0,1,2.76,1l-.31,1.7a3.66,3.66,0,0,0-2.5-1.27,2.25,2.25,0,0,0-2.18,2.47,8.57,8.57,0,0,0,1.3,3.84c1.25,2.33,1.78,3.7,1.78,5.09a4.45,4.45,0,0,1-1.2,3.19A3.59,3.59,0,0,1,145,252,4.65,4.65,0,0,1,141.83,250.7Z" transform="translate(0)"/><path class="cls-3" d="M155,246.16l4.82-2.81L155,240.57v-1.8l6.41,3.89V244L155,247.94Z" transform="translate(0)"/><path class="cls-3" d="M32.24,309.69v-38.2H39L43.54,286l4.58-14.51h6.71v38.2H48.45V286.5l-4.86,14.57h-.11L38.63,286.5v23.19Z" transform="translate(0)"/><path class="cls-3" d="M62.31,309.69V277.82H57.61v-6.33h16v6.33H69v31.87Z" transform="translate(0)"/><path class="cls-3" d="M94.72,309.69,93,296.37H91.5l-2.56,13.31H82.28l7.42-38.2h4.69q6.16,0,8.95,2.78a10.18,10.18,0,0,1,2.73,7.53,14.64,14.64,0,0,1-4.26,10.8,9.59,9.59,0,0,1-2.35,1.75l2.07,15.33Zm-2.07-19.32H93a5.68,5.68,0,0,0,4.2-1.58q2.24-2.24,2.24-6.82a4.37,4.37,0,0,0-1.09-3.22,4.06,4.06,0,0,0-3-1h-.16Z" transform="translate(0)"/><path class="cls-3" d="M102.08,309.69l14.68-38.3h7.09l-.16,38.3h-6.77l.22-7.58h-6l-2.73,7.58Zm11.13-13.59h4.09l.38-12.6Z" transform="translate(0)"/><path class="cls-3" d="M132.91,310a13,13,0,0,1-7.53-2.4l1.31-6.82q3.55,2.95,6,2.95a3.4,3.4,0,0,0,2.73-1.23,4.86,4.86,0,0,0,1-3.25q0-2.29-2.73-6.55a37.05,37.05,0,0,1-3.08-5.78,13.58,13.58,0,0,1-1-5.07,10.41,10.41,0,0,1,2.95-7.69,9.58,9.58,0,0,1,7-2.89,12.1,12.1,0,0,1,6.71,2l-1.31,6.82q-3.11-2.56-5.24-2.56a3.15,3.15,0,0,0-2.56,1.12,4.17,4.17,0,0,0-.93,2.76q0,2.46,2.35,6.22a51,51,0,0,1,3.44,6.3,12.28,12.28,0,0,1,1,4.83,11.44,11.44,0,0,1-3.27,8.46A9.4,9.4,0,0,1,132.91,310Z" transform="translate(0)"/><path class="cls-3" d="M202.11,235h1.73l2.81,8.52,2.83-8.52h1.73v16.8H209.7V238.5l-3,8.83h-.1l-3-8.83v13.3h-1.49Z" transform="translate(0)"/><path class="cls-3" d="M215.26,236.46h-2.54V235h6.67v1.46h-2.57V251.8h-1.56Z" transform="translate(0)"/><path class="cls-3" d="M226.85,235h1.56l-1.73,8.86,5.83-8.86h1.75l-5.11,7.63,2.14,9.17h-1.66l-1.73-7.61-1.8,2.62-1,5h-1.56Z" transform="translate(0)"/><path class="cls-3" d="M237.17,245.22c-.31,0-.62,0-.94,0h-.72l-1.27,6.53h-1.56l3.26-16.8h1.9a4.63,4.63,0,0,1,3.29,1.13,4,4,0,0,1,1.13,3,6.23,6.23,0,0,1-1.75,4.46,5.38,5.38,0,0,1-1.82,1.2l1.56,7h-1.63Zm-.89-1.34a3.86,3.86,0,0,0,3.07-1.1,5,5,0,0,0,1.32-3.6,2.85,2.85,0,0,0-.67-2,3,3,0,0,0-2.18-.74h-.58l-1.46,7.44Z" transform="translate(0)"/><path class="cls-3" d="M248.09,234.93h1.68L250,251.8h-1.58l0-4.34h-3.89l-1.73,4.34h-1.54Zm.34,11.11,0-8.47L245,246Z" transform="translate(0)"/><path class="cls-3" d="M251.45,250.7l.34-1.7a4,4,0,0,0,2.83,1.51,2.37,2.37,0,0,0,2.28-2.66,9.06,9.06,0,0,0-1.39-4c-1.3-2.45-1.7-3.65-1.7-5a4.19,4.19,0,0,1,1.15-3,3.62,3.62,0,0,1,2.66-1.08,4.33,4.33,0,0,1,2.76,1l-.31,1.7a3.66,3.66,0,0,0-2.5-1.27,2.25,2.25,0,0,0-2.18,2.47,8.57,8.57,0,0,0,1.3,3.84c1.25,2.33,1.78,3.7,1.78,5.09a4.45,4.45,0,0,1-1.2,3.19,3.59,3.59,0,0,1-2.69,1.08A4.65,4.65,0,0,1,251.45,250.7Z" transform="translate(0)"/><path class="cls-3" d="M267,244.07h-2.86v-1.44H267v-3h1.42v3h2.86v1.44h-2.86v3H267Z" transform="translate(0)"/><path class="cls-3" d="M277,235h1.73l2.81,8.52,2.83-8.52h1.73v16.8h-1.51V238.5l-3,8.83h-.1l-3-8.83v13.3H277Z" transform="translate(0)"/><path class="cls-3" d="M290.2,236.46h-2.54V235h6.67v1.46h-2.57V251.8H290.2Z" transform="translate(0)"/><path class="cls-3" d="M301.79,235h1.49l2.23,12.7L308,235h1.49l-3.26,16.8h-1.37l-2.3-13.1L300,251.8h-1.49Z" transform="translate(0)"/><path class="cls-3" d="M313.14,245.22c-.31,0-.62,0-.94,0h-.72l-1.27,6.53h-1.56l3.26-16.8h1.9a4.63,4.63,0,0,1,3.29,1.13,4,4,0,0,1,1.13,3,6.23,6.23,0,0,1-1.75,4.46,5.38,5.38,0,0,1-1.82,1.2l1.56,7h-1.63Zm-.89-1.34a3.86,3.86,0,0,0,3.07-1.1,5,5,0,0,0,1.32-3.6,2.85,2.85,0,0,0-.67-2,3,3,0,0,0-2.18-.74h-.58l-1.46,7.44Z" transform="translate(0)"/><path class="cls-3" d="M324.06,234.93h1.68L326,251.8h-1.58l0-4.34H320.5l-1.73,4.34h-1.54Zm.34,11.11,0-8.47L321,246Z" transform="translate(0)"/><path class="cls-3" d="M327.41,250.7l.34-1.7a4,4,0,0,0,2.83,1.51,2.37,2.37,0,0,0,2.28-2.66,9.06,9.06,0,0,0-1.39-4c-1.3-2.45-1.7-3.65-1.7-5a4.19,4.19,0,0,1,1.15-3,3.62,3.62,0,0,1,2.66-1.08,4.33,4.33,0,0,1,2.76,1l-.31,1.7a3.66,3.66,0,0,0-2.5-1.27,2.25,2.25,0,0,0-2.18,2.47,8.57,8.57,0,0,0,1.3,3.84c1.25,2.33,1.78,3.7,1.78,5.09a4.45,4.45,0,0,1-1.2,3.19,3.59,3.59,0,0,1-2.69,1.08A4.65,4.65,0,0,1,327.41,250.7Z" transform="translate(0)"/><path class="cls-3" d="M340.59,246.16l4.82-2.81-4.82-2.78v-1.8l6.41,3.89V244l-6.41,3.89Z" transform="translate(0)"/><path class="cls-3" d="M219.33,309.69v-38.2H226L230.62,286l4.58-14.51h6.71v38.2h-6.38V286.5l-4.86,14.57h-.11l-4.86-14.57v23.19Z" transform="translate(0)"/><path class="cls-3" d="M249.39,309.69V277.82H244.7v-6.33h16v6.33h-4.69v31.87Z" transform="translate(0)"/><path class="cls-3" d="M281.8,309.69l-1.75-13.31h-1.47L276,309.69h-6.66l7.42-38.2h4.69q6.17,0,8.95,2.78a10.18,10.18,0,0,1,2.73,7.53,14.64,14.64,0,0,1-4.26,10.8,9.59,9.59,0,0,1-2.35,1.75l2.07,15.33Zm-2.07-19.32h.33a5.68,5.68,0,0,0,4.2-1.58q2.24-2.24,2.24-6.82a4.37,4.37,0,0,0-1.09-3.22,4.06,4.06,0,0,0-3-1h-.16Z" transform="translate(0)"/><path class="cls-3" d="M289.17,309.69l14.68-38.3h7.09l-.16,38.3H304l.22-7.58h-6l-2.73,7.58ZM300.3,296.1h4.09l.38-12.6Z" transform="translate(0)"/><path class="cls-3" d="M320,310a13,13,0,0,1-7.53-2.4l1.31-6.82q3.55,2.95,6,2.95a3.4,3.4,0,0,0,2.73-1.23,4.86,4.86,0,0,0,1-3.25q0-2.29-2.73-6.55a37.05,37.05,0,0,1-3.08-5.78,13.58,13.58,0,0,1-1-5.07,10.41,10.41,0,0,1,2.95-7.69,9.58,9.58,0,0,1,7-2.89,12.1,12.1,0,0,1,6.71,2l-1.31,6.82q-3.11-2.56-5.24-2.56a3.15,3.15,0,0,0-2.56,1.12,4.17,4.17,0,0,0-.93,2.76q0,2.46,2.35,6.22a51,51,0,0,1,3.44,6.3,12.28,12.28,0,0,1,1,4.83,11.44,11.44,0,0,1-3.27,8.46A9.4,9.4,0,0,1,320,310Z" transform="translate(0)"/></g></g></svg>