<svg xmlns="http://www.w3.org/2000/svg" viewBox="0 0 988 507"><defs><style>.cls-1{fill:#fff;}.cls-2{fill:none;stroke:#58595b;stroke-miterlimit:10;}.cls-3{fill:#58595b;}.cls-4{fill:#0093c9;}</style></defs><title>prime-population-lg</title><g id="Layer_2" data-name="Layer 2"><g id="Layer_1-2" data-name="Layer 1"><rect class="cls-1" width="988" height="507"/><polyline class="cls-2" points="630.93 219.99 576.28 219.99 576.28 278.39"/><polygon class="cls-3" points="582.71 277.44 576.28 281.5 569.84 277.44 569.84 277.4 582.71 277.4 582.71 277.44"/><polyline class="cls-2" points="647.39 338.94 647.39 439.33 603.99 439.33"/><polygon class="cls-3" points="604.94 445.77 600.88 439.33 604.94 432.9 604.98 432.9 604.98 445.77 604.94 445.77"/><rect class="cls-4" x="384.46" y="102.31" width="210.71" height="65.09"/><path class="cls-1" d="M474.54,153.58l-1.47-11.19h-1.24l-2.15,11.19h-5.59l6.24-32.09h3.94q5.18,0,7.52,2.34a8.55,8.55,0,0,1,2.29,6.33,12.3,12.3,0,0,1-3.58,9.08,8.07,8.07,0,0,1-2,1.47l1.74,12.88Zm-1.74-16.23h.28A4.77,4.77,0,0,0,476.6,136q1.88-1.88,1.88-5.73a3.67,3.67,0,0,0-.92-2.71,3.42,3.42,0,0,0-2.52-.87h-.14Z"/><path class="cls-1" d="M480.73,153.58l12.33-32.19h6l-.14,32.19H493.2l.18-6.37h-5L486,153.58Zm9.35-11.42h3.44l.32-10.59Z"/><path class="cls-1" d="M506.64,153.81a11,11,0,0,1-6.33-2l1.1-5.73q3,2.48,5,2.48a2.86,2.86,0,0,0,2.29-1,4.09,4.09,0,0,0,.87-2.73q0-1.93-2.29-5.5a31.12,31.12,0,0,1-2.59-4.86,11.42,11.42,0,0,1-.8-4.26,8.74,8.74,0,0,1,2.48-6.46,8.05,8.05,0,0,1,5.92-2.43A10.17,10.17,0,0,1,518,123l-1.1,5.73q-2.61-2.15-4.4-2.16a2.65,2.65,0,0,0-2.16.94,3.51,3.51,0,0,0-.78,2.32,10.65,10.65,0,0,0,2,5.23,42.85,42.85,0,0,1,2.89,5.3,10.31,10.31,0,0,1,.83,4.06,9.62,9.62,0,0,1-2.75,7.11A7.91,7.91,0,0,1,506.64,153.81Z"/><rect class="cls-4" x="384.46" y="406.65" width="210.71" height="65.09"/><path class="cls-1" d="M445.18,458l-4.86-32.19H446l2.34,19.67,2.8-19.67h5.18l2.75,19.67,2.38-19.67h5.59L462.23,458h-5.87l-2.66-19L451,458Z"/><path class="cls-1" d="M472,457.93V431.15H468v-5.32h13.48v5.32h-3.94v26.78Z"/><path class="cls-1" d="M499.18,457.93l-1.47-11.19h-1.24l-2.15,11.19h-5.59L495,425.83h3.94q5.18,0,7.52,2.34a8.55,8.55,0,0,1,2.29,6.33,12.3,12.3,0,0,1-3.58,9.08,8,8,0,0,1-2,1.47l1.74,12.88Zm-1.74-16.23h.28a4.77,4.77,0,0,0,3.53-1.33q1.88-1.88,1.88-5.73a3.67,3.67,0,0,0-.92-2.71,3.42,3.42,0,0,0-2.52-.87h-.14Z"/><path class="cls-1" d="M505.38,457.93l12.33-32.19h6l-.14,32.19h-5.69l.18-6.37h-5l-2.29,6.37Zm9.35-11.42h3.44l.32-10.59Z"/><path class="cls-1" d="M531.28,458.16a11,11,0,0,1-6.33-2l1.1-5.73q3,2.48,5,2.48a2.85,2.85,0,0,0,2.29-1,4.09,4.09,0,0,0,.87-2.73q0-1.93-2.29-5.5a31.1,31.1,0,0,1-2.59-4.86,11.42,11.42,0,0,1-.8-4.26A8.74,8.74,0,0,1,531,428,8.05,8.05,0,0,1,537,425.6a10.16,10.16,0,0,1,5.64,1.7L541.5,433q-2.61-2.15-4.4-2.16a2.65,2.65,0,0,0-2.16.94,3.51,3.51,0,0,0-.78,2.32,10.65,10.65,0,0,0,2,5.23,42.85,42.85,0,0,1,2.89,5.29,10.31,10.31,0,0,1,.83,4.06,9.62,9.62,0,0,1-2.75,7.11A7.91,7.91,0,0,1,531.28,458.16Z"/><rect class="cls-4" x="143.73" y="188.64" width="210.71" height="65.09"/><path class="cls-1" d="M214.12,239.92l6.24-32.09h5.59l-2.66,13.66,7.38-13.66h6.14l-8.21,14.35,2,17.74h-5.92l-1.05-12.43-2.29,4-1.6,8.44Z"/><path class="cls-1" d="M243,239.92l-1.47-11.19h-1.24l-2.15,11.19H232.6l6.24-32.09h3.94q5.18,0,7.52,2.34a8.55,8.55,0,0,1,2.29,6.33,12.3,12.3,0,0,1-3.58,9.08,8.07,8.07,0,0,1-2,1.47l1.74,12.88Zm-1.74-16.23h.28a4.77,4.77,0,0,0,3.53-1.33q1.88-1.88,1.88-5.73a3.67,3.67,0,0,0-.92-2.71,3.42,3.42,0,0,0-2.52-.87h-.14Z"/><path class="cls-1" d="M249.24,239.92l12.33-32.19h6l-.14,32.19h-5.69l.18-6.37h-5l-2.29,6.37Zm9.35-11.42H262l.32-10.59Z"/><path class="cls-1" d="M275.14,240.14a11,11,0,0,1-6.33-2l1.1-5.73q3,2.48,5,2.48a2.86,2.86,0,0,0,2.29-1,4.09,4.09,0,0,0,.87-2.73q0-1.93-2.29-5.5a31.12,31.12,0,0,1-2.59-4.86,11.42,11.42,0,0,1-.8-4.26,8.74,8.74,0,0,1,2.48-6.46,8.05,8.05,0,0,1,5.92-2.43,10.17,10.17,0,0,1,5.64,1.7l-1.1,5.73q-2.61-2.15-4.4-2.16a2.65,2.65,0,0,0-2.16.94,3.51,3.51,0,0,0-.78,2.32,10.65,10.65,0,0,0,2,5.23,42.85,42.85,0,0,1,2.89,5.3,10.31,10.31,0,0,1,.83,4.06,9.62,9.62,0,0,1-2.75,7.11A7.91,7.91,0,0,1,275.14,240.14Z"/><rect class="cls-4" x="627.8" y="188.64" width="210.71" height="65.09"/><path class="cls-1" d="M697.62,239.92l6.24-32.09h5l2.66,17,3.35-17h5.36l-6.24,32.09h-4.81l-2.71-17.79L703,239.92Z"/><path class="cls-1" d="M727.69,239.92l-1.47-11.19H725l-2.15,11.19h-5.59l6.24-32.09h3.94q5.18,0,7.52,2.34a8.55,8.55,0,0,1,2.29,6.33,12.3,12.3,0,0,1-3.58,9.08,8.07,8.07,0,0,1-2,1.47l1.74,12.88Zm-1.74-16.23h.28a4.77,4.77,0,0,0,3.53-1.33q1.88-1.88,1.88-5.73a3.67,3.67,0,0,0-.92-2.71,3.42,3.42,0,0,0-2.52-.87h-.14Z"/><path class="cls-1" d="M733.88,239.92l12.33-32.19h6L752,239.92h-5.69l.18-6.37h-5l-2.29,6.37Zm9.35-11.42h3.44l.32-10.59Z"/><path class="cls-1" d="M759.79,240.14a11,11,0,0,1-6.33-2l1.1-5.73q3,2.48,5,2.48a2.86,2.86,0,0,0,2.29-1,4.09,4.09,0,0,0,.87-2.73q0-1.93-2.29-5.5a31.12,31.12,0,0,1-2.59-4.86,11.42,11.42,0,0,1-.8-4.26,8.74,8.74,0,0,1,2.48-6.46,8.05,8.05,0,0,1,5.92-2.43,10.17,10.17,0,0,1,5.64,1.7L770,215q-2.61-2.15-4.4-2.16a2.65,2.65,0,0,0-2.16.94,3.51,3.51,0,0,0-.78,2.32,10.65,10.65,0,0,0,2,5.23,42.85,42.85,0,0,1,2.89,5.3,10.31,10.31,0,0,1,.83,4.06,9.62,9.62,0,0,1-2.75,7.11A7.91,7.91,0,0,1,759.79,240.14Z"/><rect class="cls-4" x="258.74" y="285.64" width="210.71" height="65.09"/><path class="cls-1" d="M310.22,337l-4.86-32.19h5.73l2.34,19.67,2.8-19.67h5.18l2.75,19.67,2.38-19.67h5.59L327.27,337H321.4l-2.66-19-2.66,19Z"/><path class="cls-1" d="M337,336.92V310.14H333v-5.32h13.48v5.32h-3.94v26.78Z"/><path class="cls-1" d="M353.77,336.92,360,304.82h5.59l-2.66,13.66,7.38-13.66h6.14l-8.21,14.35,2,17.74h-5.92l-1.05-12.42-2.29,4-1.6,8.44Z"/><path class="cls-1" d="M382.7,336.92l-1.47-11.19H380l-2.15,11.19h-5.59l6.24-32.09h3.94q5.18,0,7.52,2.34a8.55,8.55,0,0,1,2.29,6.33,12.3,12.3,0,0,1-3.58,9.08,8,8,0,0,1-2,1.47l1.74,12.88ZM381,320.69h.28a4.77,4.77,0,0,0,3.53-1.33q1.88-1.88,1.88-5.73a3.67,3.67,0,0,0-.92-2.71,3.42,3.42,0,0,0-2.52-.87h-.14Z"/><path class="cls-1" d="M388.89,336.92l12.33-32.19h6L407,336.92h-5.69l.18-6.37h-5l-2.29,6.37Zm9.35-11.42h3.44l.32-10.59Z"/><path class="cls-1" d="M414.8,337.15a11,11,0,0,1-6.33-2l1.1-5.73q3,2.48,5,2.48a2.85,2.85,0,0,0,2.29-1,4.09,4.09,0,0,0,.87-2.73q0-1.93-2.29-5.5a31.1,31.1,0,0,1-2.59-4.86,11.42,11.42,0,0,1-.8-4.26,8.74,8.74,0,0,1,2.48-6.46,8.05,8.05,0,0,1,5.92-2.43,10.16,10.16,0,0,1,5.64,1.7L425,312q-2.61-2.15-4.4-2.16a2.65,2.65,0,0,0-2.16.94,3.51,3.51,0,0,0-.78,2.32,10.65,10.65,0,0,0,2,5.23,42.85,42.85,0,0,1,2.89,5.29,10.31,10.31,0,0,1,.83,4.06,9.62,9.62,0,0,1-2.75,7.11A7.91,7.91,0,0,1,414.8,337.15Z"/><rect class="cls-3" x="33.17" y="285.64" width="210.71" height="65.09"/><path class="cls-1" d="M83.73,336.92V304.82h5.64L93.22,317l3.85-12.2h5.64v32.09H97.35V317.43l-4.08,12.24h-.09l-4.08-12.24v19.49Z"/><path class="cls-1" d="M109,336.92V310.14H105v-5.32h13.48v5.32h-3.94v26.78Z"/><path class="cls-1" d="M125.77,336.92,132,304.82h5.59l-2.66,13.66,7.38-13.66h6.14l-8.21,14.35,2,17.74h-5.92l-1.05-12.42-2.29,4-1.6,8.44Z"/><path class="cls-1" d="M154.7,336.92l-1.47-11.19H152l-2.15,11.19h-5.59l6.24-32.09h3.94q5.18,0,7.52,2.34a8.55,8.55,0,0,1,2.29,6.33,12.3,12.3,0,0,1-3.58,9.08,8,8,0,0,1-2,1.47l1.74,12.88ZM153,320.69h.28a4.77,4.77,0,0,0,3.53-1.33q1.88-1.88,1.88-5.73a3.67,3.67,0,0,0-.92-2.71,3.42,3.42,0,0,0-2.52-.87h-.14Z"/><path class="cls-1" d="M160.89,336.92l12.33-32.19h6l-.14,32.19h-5.69l.18-6.37h-5l-2.29,6.37Zm9.35-11.42h3.44l.32-10.59Z"/><path class="cls-1" d="M186.8,337.15a11,11,0,0,1-6.33-2l1.1-5.73q3,2.48,5,2.48a2.85,2.85,0,0,0,2.29-1,4.09,4.09,0,0,0,.87-2.73q0-1.93-2.29-5.5a31.1,31.1,0,0,1-2.59-4.86,11.42,11.42,0,0,1-.8-4.26,8.74,8.74,0,0,1,2.48-6.46,8.05,8.05,0,0,1,5.92-2.43,10.16,10.16,0,0,1,5.64,1.7L197,312q-2.61-2.15-4.4-2.16a2.65,2.65,0,0,0-2.16.94,3.51,3.51,0,0,0-.78,2.32,10.65,10.65,0,0,0,2,5.23,42.85,42.85,0,0,1,2.89,5.29,10.31,10.31,0,0,1,.83,4.06,9.62,9.62,0,0,1-2.75,7.11A7.91,7.91,0,0,1,186.8,337.15Z"/><rect class="cls-4" x="512.08" y="285.64" width="210.71" height="65.09"/><path class="cls-1" d="M563,337l-4.86-32.19h5.73l2.34,19.67,2.8-19.67h5.18l2.75,19.67,2.38-19.67h5.59L580,337h-5.87l-2.66-19-2.66,19Z"/><path class="cls-1" d="M589.76,336.92V310.14h-3.94v-5.32H599.3v5.32h-3.94v26.78Z"/><path class="cls-1" d="M606.54,336.92l6.24-32.09h5l2.66,17,3.35-17h5.36l-6.24,32.09h-4.81l-2.71-17.79-3.44,17.79Z"/><path class="cls-1" d="M636.62,336.92l-1.47-11.19h-1.24l-2.15,11.19h-5.59l6.24-32.09h3.94q5.18,0,7.52,2.34a8.55,8.55,0,0,1,2.29,6.33,12.3,12.3,0,0,1-3.58,9.08,8,8,0,0,1-2,1.47l1.74,12.88Zm-1.74-16.23h.28a4.77,4.77,0,0,0,3.53-1.33q1.88-1.88,1.88-5.73a3.67,3.67,0,0,0-.92-2.71,3.42,3.42,0,0,0-2.52-.87H637Z"/><path class="cls-1" d="M642.81,336.92l12.33-32.19h6L661,336.92h-5.69l.18-6.37h-5l-2.29,6.37Zm9.35-11.42h3.44l.32-10.59Z"/><path class="cls-1" d="M668.71,337.15a11,11,0,0,1-6.33-2l1.1-5.73q3,2.48,5,2.48a2.85,2.85,0,0,0,2.29-1,4.09,4.09,0,0,0,.87-2.73q0-1.93-2.29-5.5a31.1,31.1,0,0,1-2.59-4.86,11.42,11.42,0,0,1-.8-4.26,8.74,8.74,0,0,1,2.48-6.46,8.05,8.05,0,0,1,5.92-2.43,10.16,10.16,0,0,1,5.64,1.7l-1.1,5.73q-2.61-2.15-4.4-2.16a2.65,2.65,0,0,0-2.16.94,3.51,3.51,0,0,0-.78,2.32,10.65,10.65,0,0,0,2,5.23,42.85,42.85,0,0,1,2.89,5.29,10.31,10.31,0,0,1,.83,4.06,9.62,9.62,0,0,1-2.75,7.11A7.91,7.91,0,0,1,668.71,337.15Z"/><rect class="cls-3" x="743.42" y="285.64" width="210.71" height="65.09"/><path class="cls-1" d="M793.4,336.92V304.82H799l3.85,12.2,3.85-12.2h5.64v32.09H807V317.43l-4.08,12.24h-.09l-4.08-12.24v19.49Z"/><path class="cls-1" d="M818.67,336.92V310.14h-3.94v-5.32H828.2v5.32h-3.94v26.78Z"/><path class="cls-1" d="M835.45,336.92l6.24-32.09h5l2.66,17,3.35-17H858l-6.24,32.09H847l-2.71-17.79-3.44,17.79Z"/><path class="cls-1" d="M865.52,336.92l-1.47-11.19h-1.24l-2.15,11.19h-5.59l6.24-32.09h3.94q5.18,0,7.52,2.34a8.55,8.55,0,0,1,2.29,6.33,12.3,12.3,0,0,1-3.58,9.08,8,8,0,0,1-2,1.47l1.74,12.88Zm-1.74-16.23h.28a4.77,4.77,0,0,0,3.53-1.33q1.88-1.88,1.88-5.73a3.67,3.67,0,0,0-.92-2.71A3.42,3.42,0,0,0,866,310h-.14Z"/><path class="cls-1" d="M871.71,336.92,884,304.73h6l-.14,32.19h-5.69l.18-6.37h-5L877,336.92Zm9.35-11.42h3.44l.32-10.59Z"/><path class="cls-1" d="M897.62,337.15a11,11,0,0,1-6.33-2l1.1-5.73q3,2.48,5,2.48a2.85,2.85,0,0,0,2.29-1,4.09,4.09,0,0,0,.87-2.73q0-1.93-2.29-5.5a31.1,31.1,0,0,1-2.59-4.86,11.42,11.42,0,0,1-.8-4.26,8.74,8.74,0,0,1,2.48-6.46,8.05,8.05,0,0,1,5.92-2.43,10.16,10.16,0,0,1,5.64,1.7l-1.1,5.73q-2.61-2.15-4.4-2.16a2.65,2.65,0,0,0-2.16.94,3.51,3.51,0,0,0-.78,2.32,10.65,10.65,0,0,0,2,5.23,42.85,42.85,0,0,1,2.89,5.29,10.31,10.31,0,0,1,.83,4.06,9.62,9.62,0,0,1-2.75,7.11A7.91,7.91,0,0,1,897.62,337.15Z"/><path class="cls-4" d="M185.21,29.46h2.38l2.9,19.65L194,29.46h2.1l3.46,19.65,2.94-19.65h2.31l-4.09,24.61h-2.27L195,34.57l-3.46,19.51H189.3Z"/><path class="cls-4" d="M209.75,31.6H206V29.46h9.72V31.6H212V53.93h-2.27Z"/><path class="cls-4" d="M228.41,44.36c-.45,0-.91.07-1.36.07h-1l-1.85,9.51h-2.27l4.75-24.47h2.76a6.74,6.74,0,0,1,4.79,1.64,5.86,5.86,0,0,1,1.64,4.44,9.07,9.07,0,0,1-2.55,6.5,7.81,7.81,0,0,1-2.66,1.75l2.27,10.14h-2.38Zm-1.29-2a5.62,5.62,0,0,0,4.47-1.61,7.25,7.25,0,0,0,1.92-5.24,4.15,4.15,0,0,0-1-2.9,4.41,4.41,0,0,0-3.18-1.08h-.84L226.39,42.4Z"/><path class="cls-4" d="M244.32,29.36h2.45l.38,24.58h-2.31l0-6.33h-5.66l-2.52,6.33h-2.24Zm.49,16.19-.07-12.34-4.86,12.34Z"/><path class="cls-4" d="M249.21,52.33l.49-2.48a5.81,5.81,0,0,0,4.13,2.2c2,0,3.32-1.64,3.32-3.88,0-1.36-.59-3.15-2-5.8-1.89-3.57-2.48-5.31-2.48-7.27a6.1,6.1,0,0,1,1.68-4.3,5.27,5.27,0,0,1,3.88-1.57,6.31,6.31,0,0,1,4,1.5l-.45,2.48a5.33,5.33,0,0,0-3.64-1.85c-2,0-3.18,1.68-3.18,3.6,0,1.36.49,2.9,1.89,5.59,1.82,3.39,2.59,5.38,2.59,7.41a6.49,6.49,0,0,1-1.75,4.65,5.23,5.23,0,0,1-3.92,1.57A6.77,6.77,0,0,1,249.21,52.33Z"/><path class="cls-4" d="M267.57,53.31V51.1a8.39,8.39,0,0,0,3.67,1.08,2.31,2.31,0,0,0,2.45-2.38v-.07c0-1.15-.63-2.27-2.69-4.23-2.48-2.38-3.46-3.88-3.46-5.87v-.07A4.22,4.22,0,0,1,272,35.23a7.16,7.16,0,0,1,3,.59V38a6.44,6.44,0,0,0-3-.77,2.14,2.14,0,0,0-2.31,2.2v.07c0,1.15.59,2,2.73,4.13,2.48,2.48,3.43,4,3.43,6v.07a4.4,4.4,0,0,1-4.58,4.47A8.37,8.37,0,0,1,267.57,53.31Z"/><path class="cls-4" d="M278.75,50.82V37.36h-1.57V35.48h1.57V30.41H281v5.07h2.76v1.89H281V50.3c0,1.4.63,1.78,1.71,1.78a3.91,3.91,0,0,0,1.08-.17v1.89a4.67,4.67,0,0,1-1.57.31C280.19,54.11,278.75,53.31,278.75,50.82Z"/><path class="cls-4" d="M285.43,48.62v-.35c0-3.64,1.75-5.91,4.65-5.91a6.86,6.86,0,0,1,2.94.7v-2c0-2.38-1.12-3.74-3.29-3.74a6.9,6.9,0,0,0-3.32.84v-2.1a7.92,7.92,0,0,1,3.6-.8c3.22,0,5.17,2,5.17,5.59V53.93H293V51.45c-.73,1.75-1.85,2.8-3.53,2.8C287.11,54.25,285.43,51.91,285.43,48.62Zm7.59-.21V44.88a6,6,0,0,0-2.55-.66c-1.89,0-2.9,1.57-2.9,3.92v.35c0,2.31.91,3.88,2.52,3.88S293,50.51,293,48.41Z"/><path class="cls-4" d="M298.89,50.82V37.36h-1.57V35.48h1.57V30.41h2.2v5.07h2.76v1.89h-2.76V50.3c0,1.4.63,1.78,1.71,1.78a3.91,3.91,0,0,0,1.08-.17v1.89a4.67,4.67,0,0,1-1.57.31C300.32,54.11,298.89,53.31,298.89,50.82Z"/><path class="cls-4" d="M306.26,48.69V35.48h2.17V48.31c0,2.59.94,4,2.59,4s2.94-1.68,2.94-4.2V35.48h2.17V53.93H314V51.38c-.66,1.5-1.75,2.87-3.67,2.87C307.84,54.25,306.26,52.19,306.26,48.69Z"/><path class="cls-4" d="M318.6,53.31V51.1a8.39,8.39,0,0,0,3.67,1.08,2.31,2.31,0,0,0,2.45-2.38v-.07c0-1.15-.63-2.27-2.69-4.23-2.48-2.38-3.46-3.88-3.46-5.87v-.07A4.22,4.22,0,0,1,323,35.23a7.16,7.16,0,0,1,3,.59V38a6.44,6.44,0,0,0-3-.77,2.14,2.14,0,0,0-2.31,2.2v.07c0,1.15.59,2,2.73,4.13,2.48,2.48,3.43,4,3.43,6v.07a4.4,4.4,0,0,1-4.58,4.47A8.37,8.37,0,0,1,318.6,53.31Z"/><path class="cls-4" d="M335,35.48h2.17v2.59a3.93,3.93,0,0,1,4-2.8v2.48H341c-2.2,0-3.88,1.43-3.88,4.51V53.93H335Z"/><path class="cls-4" d="M342.62,45.09V44.6c0-6.26,2.41-9.4,5.21-9.4s4.93,3.25,4.93,9.09v1.4h-8c.14,4.4,1.92,6.47,4.13,6.47A5.42,5.42,0,0,0,352.13,51l.21,2.1a6.42,6.42,0,0,1-3.74,1.12C345.42,54.21,342.62,51.14,342.62,45.09Zm8-1.22c0-4-1.15-6.68-2.83-6.68s-2.94,2.2-3,6.68Z"/><path class="cls-4" d="M363.17,50.72c-.7,1.85-1.85,3.53-3.71,3.53-2.41,0-4.54-2.94-4.54-9.09v-.91c0-6.08,2.13-9.09,4.54-9.09,1.85,0,3,1.68,3.71,3.5V35.48h2.2v23h-2.2Zm.07-5.52v-1c0-4.51-1.54-7-3.18-7s-3,2.55-3,7.13v.77c0,4.58,1.29,7.13,3,7.13S363.24,49.7,363.24,45.2Z"/><path class="cls-4" d="M368.56,48.69V35.48h2.17V48.31c0,2.59.94,4,2.59,4s2.94-1.68,2.94-4.2V35.48h2.17V53.93h-2.17V51.38c-.66,1.5-1.75,2.87-3.67,2.87C370.13,54.25,368.56,52.19,368.56,48.69Z"/><path class="cls-4" d="M381.88,29.25h2.27v2.87h-2.27Zm0,6.22h2.2V53.93h-2.2Z"/><path class="cls-4" d="M387.61,35.48h2.17v2.59a3.93,3.93,0,0,1,4-2.8v2.48h-.07c-2.2,0-3.88,1.43-3.88,4.51V53.93h-2.17Z"/><path class="cls-4" d="M395.26,45.09V44.6c0-6.26,2.41-9.4,5.21-9.4s4.93,3.25,4.93,9.09v1.4h-8c.14,4.4,1.92,6.47,4.13,6.47A5.42,5.42,0,0,0,404.77,51l.21,2.1a6.42,6.42,0,0,1-3.74,1.12C398.06,54.21,395.26,51.14,395.26,45.09Zm8-1.22c0-4-1.15-6.68-2.83-6.68s-2.94,2.2-3,6.68Z"/><path class="cls-4" d="M407.25,53.31V51.1a8.38,8.38,0,0,0,3.67,1.08,2.31,2.31,0,0,0,2.45-2.38v-.07c0-1.15-.63-2.27-2.69-4.23-2.48-2.38-3.46-3.88-3.46-5.87v-.07a4.22,4.22,0,0,1,4.47-4.33,7.16,7.16,0,0,1,3,.59V38a6.44,6.44,0,0,0-3-.77,2.14,2.14,0,0,0-2.31,2.2v.07c0,1.15.59,2,2.73,4.13,2.48,2.48,3.43,4,3.43,6v.07A4.4,4.4,0,0,1,411,54.18,8.37,8.37,0,0,1,407.25,53.31Z"/><path class="cls-4" d="M423.61,35.48h2.17v2.59c.66-1.54,1.75-2.9,3.67-2.9,2.45,0,4,2.06,4,5.56V53.93h-2.17V41.1c0-2.59-.94-4-2.59-4s-2.94,1.68-2.94,4.23V53.93h-2.17Z"/><path class="cls-4" d="M436.06,45v-.52c0-5.84,2.45-9.26,5.38-9.26s5.35,3.43,5.35,9.26V45c0,5.84-2.45,9.26-5.38,9.26S436.06,50.82,436.06,45Zm8.53,0v-.56c0-4.51-1.4-7.24-3.18-7.24s-3.18,2.73-3.18,7.24V45c0,4.51,1.4,7.27,3.18,7.27S444.59,49.5,444.59,45Z"/><path class="cls-4" d="M455.18,35.48h2.17V38c.7-1.54,1.75-2.87,3.57-2.87s2.9,1.29,3.5,2.87a4.38,4.38,0,0,1,3.88-2.87c2.34,0,4.09,1.92,4.09,5.56V53.93h-2.17V41c0-2.59-.94-4-2.48-4s-2.87,1.64-2.87,4.16V53.93H462.7V41c0-2.59-.94-4-2.48-4s-2.87,1.64-2.87,4.16V53.93h-2.17Z"/><path class="cls-4" d="M475.49,48.69V35.48h2.17V48.31c0,2.59.94,4,2.59,4s2.94-1.68,2.94-4.2V35.48h2.17V53.93h-2.17V51.38c-.66,1.5-1.75,2.87-3.67,2.87C477.06,54.25,475.49,52.19,475.49,48.69Z"/><path class="cls-4" d="M489.23,50.82V37.36h-1.57V35.48h1.57V30.41h2.2v5.07h2.76v1.89h-2.76V50.3c0,1.4.63,1.78,1.71,1.78a3.91,3.91,0,0,0,1.08-.17v1.89a4.67,4.67,0,0,1-1.57.31C490.66,54.11,489.23,53.31,489.23,50.82Z"/><path class="cls-4" d="M495.91,48.62v-.35c0-3.64,1.75-5.91,4.65-5.91a6.86,6.86,0,0,1,2.94.7v-2c0-2.38-1.12-3.74-3.29-3.74a6.9,6.9,0,0,0-3.32.84v-2.1a7.92,7.92,0,0,1,3.6-.8c3.22,0,5.17,2,5.17,5.59V53.93h-2.2V51.45c-.73,1.75-1.85,2.8-3.53,2.8C497.58,54.25,495.91,51.91,495.91,48.62Zm7.59-.21V44.88a6,6,0,0,0-2.55-.66c-1.89,0-2.9,1.57-2.9,3.92v.35c0,2.31.91,3.88,2.52,3.88S503.49,50.51,503.49,48.41Z"/><path class="cls-4" d="M509.36,50.82V37.36h-1.57V35.48h1.57V30.41h2.2v5.07h2.76v1.89h-2.76V50.3c0,1.4.63,1.78,1.71,1.78a3.91,3.91,0,0,0,1.08-.17v1.89a4.67,4.67,0,0,1-1.57.31C510.8,54.11,509.36,53.31,509.36,50.82Z"/><path class="cls-4" d="M517,29.25h2.27v2.87H517Zm0,6.22h2.2V53.93H517Z"/><path class="cls-4" d="M522.09,45v-.52c0-5.84,2.45-9.26,5.38-9.26s5.35,3.43,5.35,9.26V45c0,5.84-2.45,9.26-5.38,9.26S522.09,50.82,522.09,45Zm8.53,0v-.56c0-4.51-1.4-7.24-3.18-7.24s-3.18,2.73-3.18,7.24V45c0,4.51,1.4,7.27,3.18,7.27S530.62,49.5,530.62,45Z"/><path class="cls-4" d="M535.51,35.48h2.17v2.59c.66-1.54,1.75-2.9,3.67-2.9,2.45,0,4,2.06,4,5.56V53.93H543.2V41.1c0-2.59-.94-4-2.59-4s-2.94,1.68-2.94,4.23V53.93h-2.17Z"/><path class="cls-4" d="M547.71,53.31V51.1a8.39,8.39,0,0,0,3.67,1.08,2.31,2.31,0,0,0,2.45-2.38v-.07c0-1.15-.63-2.27-2.69-4.23-2.48-2.38-3.46-3.88-3.46-5.87v-.07a4.22,4.22,0,0,1,4.47-4.33,7.16,7.16,0,0,1,3,.59V38a6.44,6.44,0,0,0-3-.77,2.14,2.14,0,0,0-2.31,2.2v.07c0,1.15.59,2,2.73,4.13,2.48,2.48,3.43,4,3.43,6v.07a4.4,4.4,0,0,1-4.58,4.47A8.37,8.37,0,0,1,547.71,53.31Z"/><path class="cls-4" d="M564.18,29.25h2.27v2.87h-2.27Zm0,6.22h2.2V53.93h-2.2Z"/><path class="cls-4" d="M569.91,35.48h2.17v2.59c.66-1.54,1.75-2.9,3.67-2.9,2.45,0,4,2.06,4,5.56V53.93H577.6V41.1c0-2.59-.94-4-2.59-4s-2.94,1.68-2.94,4.23V53.93h-2.17Z"/><path class="cls-4" d="M588,45.09V44.6c0-6.26,2.41-9.4,5.21-9.4s4.93,3.25,4.93,9.09v1.4h-8c.14,4.4,1.92,6.47,4.13,6.47A5.42,5.42,0,0,0,597.53,51l.21,2.1A6.42,6.42,0,0,1,594,54.21C590.82,54.21,588,51.14,588,45.09Zm8-1.22c0-4-1.15-6.68-2.83-6.68s-2.94,2.2-3,6.68Z"/><path class="cls-4" d="M601,29.25h2.27v2.87H601Zm0,6.22h2.2V53.93H601Z"/><path class="cls-4" d="M607.25,50.82V37.36h-1.57V35.48h1.57V30.41h2.2v5.07h2.76v1.89h-2.76V50.3c0,1.4.63,1.78,1.71,1.78a3.91,3.91,0,0,0,1.08-.17v1.89a4.67,4.67,0,0,1-1.57.31C608.68,54.11,607.25,53.31,607.25,50.82Z"/><path class="cls-4" d="M614.76,29.25h2.17v8.81c.66-1.54,1.75-2.9,3.67-2.9,2.45,0,4,2.06,4,5.56V53.93h-2.17V41.1c0-2.59-.94-4-2.59-4s-2.94,1.68-2.94,4.23V53.93h-2.17Z"/><path class="cls-4" d="M627.17,45.09V44.6c0-6.26,2.41-9.4,5.21-9.4s4.93,3.25,4.93,9.09v1.4h-8c.14,4.4,1.92,6.47,4.13,6.47A5.42,5.42,0,0,0,636.68,51l.21,2.1a6.42,6.42,0,0,1-3.74,1.12C630,54.21,627.17,51.14,627.17,45.09Zm8-1.22c0-4-1.15-6.68-2.83-6.68s-2.94,2.2-3,6.68Z"/><path class="cls-4" d="M640,35.48h2.17v2.59a3.93,3.93,0,0,1,4-2.8v2.48h-.07c-2.2,0-3.88,1.43-3.88,4.51V53.93H640Z"/><path class="cls-4" d="M657.09,29.46h2.27l-2.52,12.9,8.5-12.9h2.55l-7.45,11.12,3.11,13.35h-2.41l-2.52-11.08L656,46.66l-1.4,7.27h-2.27Z"/><path class="cls-4" d="M672.13,44.36c-.45,0-.91.07-1.36.07h-1l-1.85,9.51h-2.27l4.75-24.47h2.76a6.74,6.74,0,0,1,4.79,1.64,5.86,5.86,0,0,1,1.64,4.44A9.07,9.07,0,0,1,677,42a7.81,7.81,0,0,1-2.66,1.75l2.27,10.14h-2.38Zm-1.29-2a5.62,5.62,0,0,0,4.47-1.61,7.25,7.25,0,0,0,1.92-5.24,4.15,4.15,0,0,0-1-2.9,4.41,4.41,0,0,0-3.18-1.08h-.84L670.1,42.4Z"/><path class="cls-4" d="M688,29.36h2.45l.38,24.58h-2.31l0-6.33h-5.66l-2.52,6.33H678.1Zm.49,16.19-.07-12.34-4.86,12.34Z"/><path class="cls-4" d="M692.93,52.33l.49-2.48a5.81,5.81,0,0,0,4.13,2.2c2,0,3.32-1.64,3.32-3.88,0-1.36-.59-3.15-2-5.8-1.89-3.57-2.48-5.31-2.48-7.27a6.1,6.1,0,0,1,1.68-4.3,5.27,5.27,0,0,1,3.88-1.57,6.31,6.31,0,0,1,4,1.5l-.45,2.48a5.33,5.33,0,0,0-3.64-1.85c-2,0-3.18,1.68-3.18,3.6,0,1.36.49,2.9,1.89,5.59,1.82,3.39,2.59,5.38,2.59,7.41a6.49,6.49,0,0,1-1.75,4.65,5.23,5.23,0,0,1-3.92,1.57A6.77,6.77,0,0,1,692.93,52.33Z"/><path class="cls-4" d="M711.52,45v-.52c0-5.84,2.45-9.26,5.38-9.26s5.35,3.43,5.35,9.26V45c0,5.84-2.45,9.26-5.38,9.26S711.52,50.82,711.52,45Zm8.53,0v-.56c0-4.51-1.4-7.24-3.18-7.24s-3.18,2.73-3.18,7.24V45c0,4.51,1.4,7.27,3.18,7.27S720.05,49.5,720.05,45Z"/><path class="cls-4" d="M724.95,35.48h2.17v2.59a3.93,3.93,0,0,1,4-2.8v2.48H731c-2.2,0-3.88,1.43-3.88,4.51V53.93h-2.17Z"/><path class="cls-4" d="M742,29.46h2.17L747.42,48l3.64-18.49h2.17l-4.75,24.47h-2l-3.36-19.09-3.71,19.09h-2.17Z"/><path class="cls-4" d="M758.54,44.36c-.45,0-.91.07-1.36.07h-1l-1.85,9.51H752l4.75-24.47h2.76a6.74,6.74,0,0,1,4.79,1.64A5.86,5.86,0,0,1,766,35.55,9.07,9.07,0,0,1,763.4,42a7.81,7.81,0,0,1-2.66,1.75L763,53.93h-2.38Zm-1.29-2a5.62,5.62,0,0,0,4.47-1.61,7.25,7.25,0,0,0,1.92-5.24,4.15,4.15,0,0,0-1-2.9,4.41,4.41,0,0,0-3.18-1.08h-.84L756.51,42.4Z"/><path class="cls-4" d="M774.44,29.36h2.45l.38,24.58H775l0-6.33h-5.66l-2.52,6.33h-2.24Zm.49,16.19-.07-12.34L770,45.54Z"/><path class="cls-4" d="M779.34,52.33l.49-2.48A5.81,5.81,0,0,0,784,52c2,0,3.32-1.64,3.32-3.88,0-1.36-.59-3.15-2-5.8-1.89-3.57-2.48-5.31-2.48-7.27a6.1,6.1,0,0,1,1.68-4.3,5.27,5.27,0,0,1,3.88-1.57,6.31,6.31,0,0,1,4,1.5l-.45,2.48a5.33,5.33,0,0,0-3.64-1.85c-2,0-3.18,1.68-3.18,3.6,0,1.36.49,2.9,1.89,5.59,1.82,3.39,2.59,5.38,2.59,7.41a6.49,6.49,0,0,1-1.75,4.65,5.23,5.23,0,0,1-3.92,1.57A6.77,6.77,0,0,1,779.34,52.33Z"/><path class="cls-4" d="M793.08,41.29l3.16-6.62a7.6,7.6,0,0,0,1-3.4,1.8,1.8,0,0,0-1.79-2,3.65,3.65,0,0,0-2,.63V28.53a4.16,4.16,0,0,1,2.18-.59,2.86,2.86,0,0,1,3,3.12v.08a8.75,8.75,0,0,1-1.18,4L794.58,41h4v1.3h-5.54Z"/><polyline class="cls-2" points="595.17 134.85 730.59 134.85 730.59 183.26"/><polygon class="cls-3" points="737.03 182.31 730.59 186.37 724.15 182.31 724.15 182.26 737.03 182.26 737.03 182.31"/><polyline class="cls-2" points="384.15 134.85 249.44 134.85 249.44 183.26"/><polygon class="cls-3" points="255.87 182.31 249.44 186.37 243 182.31 243 182.26 255.87 182.26 255.87 182.31"/><polyline class="cls-2" points="839.21 219.99 904.58 219.99 904.58 278.39"/><polygon class="cls-3" points="911.02 277.44 904.58 281.5 898.14 277.44 898.14 277.4 911.02 277.4 911.02 277.44"/><polyline class="cls-2" points="354.74 219.99 420.1 219.99 420.1 278.39"/><polygon class="cls-3" points="426.54 277.44 420.1 281.5 413.67 277.44 413.67 277.4 426.54 277.4 426.54 277.44"/><polyline class="cls-2" points="138.52 219.99 83.87 219.99 83.87 278.39"/><polygon class="cls-3" points="90.31 277.44 83.87 281.5 77.43 277.44 77.43 277.4 90.31 277.4 90.31 277.44"/><polyline class="cls-2" points="333.63 349.52 333.63 439.2 377.03 439.2"/><polygon class="cls-3" points="376.08 432.76 380.15 439.2 376.08 445.63 376.04 445.63 376.04 432.76 376.08 432.76"/></g></g></svg>