<svg xmlns="http://www.w3.org/2000/svg" viewBox="0 0 440.64 237.4"><defs><style>.cls-1{fill:#f5a81c;}.cls-2{fill:#0494ca;}.cls-3{fill:#808285;}.cls-4{fill:#fff;}.cls-5{fill:#feeed8;}.cls-6{fill:#dde8f4;}.cls-7{fill:#dcddde;}.cls-8{fill:#fff8ef;}.cls-9{fill:#f1f5fa;}.cls-10{fill:#e6e7e8;}.cls-11{fill:#f1f2f2;}.cls-12,.cls-13{fill:none;stroke:#fff;stroke-miterlimit:10;}.cls-13{stroke-width:6px;}.cls-14{fill:#58595b;}</style></defs><title>third-line-table-1-lg</title><g id="Layer_2" data-name="Layer 2"><g id="Layer_1-2" data-name="Layer 1"><rect class="cls-1" x="0.5" width="116.14" height="20.88"/><rect class="cls-2" x="116.64" width="198" height="20.88"/><rect class="cls-3" x="314.64" width="126" height="20.88"/><path class="cls-4" d="M314.64,20.88h126v17.6h-126Zm-198,0h198v17.6h-198Z"/><path class="cls-5" d="M.5,189H116.64v26H.5Zm0-72.94H116.64v27H.5Zm0-77.6H116.64V61.24H.5Z"/><path class="cls-6" d="M116.64,189h198v26h-198Zm0-72.94h198v27h-198Zm0-77.6h198V61.24h-198Z"/><path class="cls-7" d="M314.64,189h126v26h-126Zm0-72.94h126v27h-126Zm0-77.6h126V61.24h-126Z"/><path class="cls-8" d="M.5,215H116.64V236.9H.5Zm0-71.94H116.64v27H.5Zm0-81.84H116.64v54.84H.5Z"/><path class="cls-9" d="M116.64,215h198V236.9h-198Zm0-71.94h198v27h-198Zm0-81.84h198v54.84h-198Z"/><rect class="cls-10" x="314.64" y="61.24" width="126" height="54.84"/><path class="cls-11" d="M314.64,215h126V236.9h-126Zm0-71.94h126v27h-126Z"/><line class="cls-12" y1="20.88" x2="116.64" y2="20.88"/><line class="cls-12" x1="0.5" y1="37.98" x2="0.5" y2="21.38"/><line class="cls-12" x1="116.64" y1="20.88" x2="314.64" y2="20.88"/><line class="cls-12" x1="314.64" y1="20.88" x2="440.64" y2="20.88"/><line class="cls-12" y1="38.48" x2="116.64" y2="38.48"/><line class="cls-12" x1="116.64" y1="38.48" x2="314.64" y2="38.48"/><line class="cls-12" x1="314.64" y1="38.48" x2="440.64" y2="38.48"/><line class="cls-12" y1="170.08" x2="113.64" y2="170.08"/><line class="cls-12" x1="0.5" y1="189.02" x2="0.5" y2="170.58"/><line class="cls-12" x1="119.64" y1="170.08" x2="311.64" y2="170.08"/><line class="cls-12" x1="317.64" y1="170.08" x2="440.64" y2="170.08"/><line class="cls-12" x1="0.5" y1="236.9" x2="116.64" y2="236.9"/><line class="cls-12" x1="116.64" y1="236.9" x2="314.64" y2="236.9"/><line class="cls-12" x1="314.64" y1="236.9" x2="440.64" y2="236.9"/><line class="cls-13" x1="116.64" y1="61.24" x2="116.64" y2="38.98"/><line class="cls-13" x1="314.64" y1="61.24" x2="314.64" y2="38.98"/><line class="cls-13" x1="116.64" y1="116.08" x2="116.64" y2="61.24"/><line class="cls-13" x1="314.64" y1="116.08" x2="314.64" y2="61.24"/><line class="cls-13" x1="116.64" y1="143.08" x2="116.64" y2="116.08"/><line class="cls-13" x1="314.64" y1="143.08" x2="314.64" y2="116.08"/><line class="cls-13" x1="116.64" y1="170.08" x2="116.64" y2="143.08"/><line class="cls-13" x1="314.64" y1="170.08" x2="314.64" y2="143.08"/><line class="cls-13" x1="116.64" y1="215.02" x2="116.64" y2="189.02"/><line class="cls-13" x1="314.64" y1="215.02" x2="314.64" y2="189.02"/><line class="cls-13" x1="116.64" y1="189.02" x2="116.64" y2="170.08"/><line class="cls-13" x1="314.64" y1="189.02" x2="314.64" y2="170.08"/><path class="cls-4" d="M196.26,14.88l-2.6-7.74h1.73l1.63,5.3,1.63-5.3h1.68l-2.6,7.74Z"/><path class="cls-4" d="M203.24,15a2.6,2.6,0,0,1-2-.83,3,3,0,0,1-.79-2.18v-.1a3.22,3.22,0,0,1,.73-2.17,2.32,2.32,0,0,1,1.84-.86,2.18,2.18,0,0,1,1.86.87,3.7,3.7,0,0,1,.65,2.26q0,.28,0,.51H202a1.5,1.5,0,0,0,.43.88,1.2,1.2,0,0,0,.84.31,1.79,1.79,0,0,0,1.23-.58l.8.95A2.73,2.73,0,0,1,203.24,15ZM202,11.44h2a1.9,1.9,0,0,0-.31-1,.81.81,0,0,0-.69-.35.84.84,0,0,0-.7.35A1.89,1.89,0,0,0,202,11.44Z"/><path class="cls-4" d="M209.07,15a2.46,2.46,0,0,1-1.92-.84A3.1,3.1,0,0,1,206.4,12v-.13a3.11,3.11,0,0,1,.76-2.16,2.52,2.52,0,0,1,2-.85,2.62,2.62,0,0,1,1.92.79l-.85,1.13a1.47,1.47,0,0,0-1.06-.53,1,1,0,0,0-.87.46,2,2,0,0,0-.33,1.18v0a2,2,0,0,0,.33,1.2,1.05,1.05,0,0,0,.9.46,1.49,1.49,0,0,0,1.07-.54l.82,1A2.59,2.59,0,0,1,209.07,15Z"/><path class="cls-4" d="M213.92,14.94a1.7,1.7,0,0,1-1.15-.36,1.54,1.54,0,0,1-.41-1.22v-3.1h-.59V8.94h.59V7.44h1.56V8.94h1.17v1.32h-1.17V13q0,.51.48.51a1.48,1.48,0,0,0,.67-.17v1.24A2.29,2.29,0,0,1,213.92,14.94Z"/><path class="cls-4" d="M216.21,8.32V6.9h1.63V8.32Zm0,6.52V8.94h1.56v5.9Z"/><path class="cls-4" d="M223.94,14.18a2,2,0,0,1-1.59.77,1.93,1.93,0,0,1-1.6-.87v.76h-1.56V6.9h1.56V9.76a1.89,1.89,0,0,1,1.6-.92,2,2,0,0,1,1.59.77,3.32,3.32,0,0,1,.65,2.2V12A3.32,3.32,0,0,1,223.94,14.18Zm-2.88-1a1,1,0,0,0,.82.45,1,1,0,0,0,.82-.45,2,2,0,0,0,.32-1.19v-.11a2,2,0,0,0-.32-1.19,1,1,0,0,0-.82-.45,1,1,0,0,0-.82.45,2,2,0,0,0-.33,1.19v.11A2,2,0,0,0,221.06,13.13Z"/><path class="cls-4" d="M225.72,8.32V6.9h1.63V8.32Zm0,6.52V8.94h1.56v5.9Z"/><path class="cls-4" d="M229.92,8.94l.92,1.73.94-1.73h1.62l-1.71,2.87,1.77,3H231.8l-1-1.84-1,1.84H228.2l1.76-3-1.69-2.89Z"/><path class="cls-4" d="M237.11,10.34a1.71,1.71,0,0,1-2.51,0A1.92,1.92,0,0,1,234.1,9V8.92a1.94,1.94,0,0,1,.51-1.36,1.71,1.71,0,0,1,2.51,0,1.94,1.94,0,0,1,.51,1.36V9A2,2,0,0,1,237.11,10.34Zm-2.35-.15a1.47,1.47,0,0,0,2.19,0,1.75,1.75,0,0,0,.43-1.2V8.92A1.74,1.74,0,0,0,237,7.71a1.47,1.47,0,0,0-2.19,0,1.75,1.75,0,0,0-.43,1.2V9A1.73,1.73,0,0,0,234.76,10.19Zm.35-.24v-2h.81q.8,0,.8.67h0a.61.61,0,0,1-.38.62l.44.75h-.58l-.37-.64h-.2v.64Zm.52-1.07h.26c.21,0,.31-.09.31-.26s-.1-.27-.31-.27h-.26Z"/><path class="cls-4" d="M355,14.95a3.1,3.1,0,0,1-2.45-1.07,4.16,4.16,0,0,1-.93-2.83v-.1a4.07,4.07,0,0,1,1-2.83A3.22,3.22,0,0,1,355.12,7a3.32,3.32,0,0,1,2.47,1l-1,1.23a2.2,2.2,0,0,0-1.57-.77,1.55,1.55,0,0,0-1.29.67,2.89,2.89,0,0,0-.51,1.78v0a2.86,2.86,0,0,0,.52,1.79,1.58,1.58,0,0,0,1.3.67,2.3,2.3,0,0,0,1.58-.8l1,1.13a4.2,4.2,0,0,1-1.17.86A3.29,3.29,0,0,1,355,14.95Z"/><path class="cls-4" d="M361,15a2.6,2.6,0,0,1-2-.83,3,3,0,0,1-.79-2.18v-.1A3.22,3.22,0,0,1,359,9.69a2.32,2.32,0,0,1,1.84-.86,2.18,2.18,0,0,1,1.86.87,3.7,3.7,0,0,1,.65,2.26c0,.18,0,.35,0,.51h-3.52a1.5,1.5,0,0,0,.43.88,1.2,1.2,0,0,0,.84.31,1.79,1.79,0,0,0,1.23-.58l.8.95A2.73,2.73,0,0,1,361,15Zm-1.22-3.53h2a1.91,1.91,0,0,0-.31-1,.81.81,0,0,0-.69-.35.84.84,0,0,0-.7.35A1.89,1.89,0,0,0,359.83,11.44Z"/><path class="cls-4" d="M366.2,14.94a1.7,1.7,0,0,1-1.15-.36,1.54,1.54,0,0,1-.41-1.22v-3.1H364V8.94h.59V7.44h1.56V8.94h1.17v1.32H366.2V13q0,.51.48.51a1.48,1.48,0,0,0,.67-.17v1.24A2.29,2.29,0,0,1,366.2,14.94Z"/><path class="cls-4" d="M370.18,14.95a1.59,1.59,0,0,1-1.28-.53,2.17,2.17,0,0,1-.46-1.46v-4H370V12.5q0,1,.84,1a.78.78,0,0,0,.63-.27,1.18,1.18,0,0,0,.23-.78V8.94h1.56v5.9h-1.56V14A1.81,1.81,0,0,1,370.18,14.95Z"/><path class="cls-4" d="M375.82,8.94l.92,1.73.94-1.73h1.62l-1.71,2.87,1.77,3H377.7l-1-1.84-1,1.84h-1.63l1.76-3-1.69-2.89Z"/><path class="cls-4" d="M380.21,8.32V6.9h1.63V8.32Zm0,6.52V8.94h1.56v5.9Z"/><path class="cls-4" d="M383.19,14.84V8.94h1.56v.79a1.85,1.85,0,0,1,1.53-.9,1.52,1.52,0,0,1,1.45.86,2.13,2.13,0,0,1,1.67-.86,1.66,1.66,0,0,1,1.28.51,2.09,2.09,0,0,1,.47,1.47v4H389.6V11.29q0-1-.81-1a.75.75,0,0,0-.62.27,1.19,1.19,0,0,0-.22.78v3.55h-1.56V11.29q0-1-.8-1a.75.75,0,0,0-.62.27,1.2,1.2,0,0,0-.22.78v3.55Z"/><path class="cls-4" d="M393.93,14.95a1.68,1.68,0,0,1-1.75-1.79v-.07a1.75,1.75,0,0,1,.55-1.41,2.24,2.24,0,0,1,1.5-.47,3.36,3.36,0,0,1,1.23.24v-.18a1,1,0,0,0-.29-.77,1.18,1.18,0,0,0-.82-.26,3.58,3.58,0,0,0-1.35.33l-.43-1.22a4.44,4.44,0,0,1,2-.47,2.44,2.44,0,0,1,1.79.6,2.42,2.42,0,0,1,.6,1.78v3.58h-1.53V14.2A1.83,1.83,0,0,1,393.93,14.95Zm.52-1.14a1.07,1.07,0,0,0,.75-.24.83.83,0,0,0,.3-.66v-.5a2,2,0,0,0-.87-.19,1,1,0,0,0-.69.21.76.76,0,0,0-.25.61v0a.69.69,0,0,0,.2.54A.83.83,0,0,0,394.44,13.81Z"/><path class="cls-4" d="M403.06,14.18a2,2,0,0,1-1.59.77,1.93,1.93,0,0,1-1.59-.87v.76H398.3V6.9h1.56V9.76a1.89,1.89,0,0,1,1.59-.92,2,2,0,0,1,1.59.77,3.32,3.32,0,0,1,.65,2.2V12A3.32,3.32,0,0,1,403.06,14.18Zm-2.88-1a1,1,0,0,0,.83.45,1,1,0,0,0,.82-.45,2,2,0,0,0,.32-1.19v-.11a2,2,0,0,0-.32-1.19,1,1,0,0,0-.82-.45,1,1,0,0,0-.83.45,2,2,0,0,0-.33,1.19v.11A2,2,0,0,0,400.17,13.13Z"/><path class="cls-1" d="M6.34,33.28V28.19H4.75V27H9.22v1.21H7.63v5.09Z"/><path class="cls-1" d="M9.54,33.28V28.46h1.28v.85a1.28,1.28,0,0,1,1.31-.94v1.39h-.05a1.16,1.16,0,0,0-.93.37,1.67,1.67,0,0,0-.32,1.12v2Z"/><path class="cls-1" d="M14.78,33.39a2.13,2.13,0,0,1-1.62-.68,2.49,2.49,0,0,1-.64-1.79v-.08a2.64,2.64,0,0,1,.6-1.77,1.9,1.9,0,0,1,1.51-.7,1.78,1.78,0,0,1,1.52.72,3,3,0,0,1,.53,1.85c0,.15,0,.29,0,.41H13.79a1.23,1.23,0,0,0,.36.72,1,1,0,0,0,.69.25,1.46,1.46,0,0,0,1-.48l.66.77A2.23,2.23,0,0,1,14.78,33.39Zm-1-2.89h1.67a1.56,1.56,0,0,0-.26-.79.66.66,0,0,0-.56-.29.69.69,0,0,0-.57.28A1.54,1.54,0,0,0,13.78,30.5Z"/><path class="cls-1" d="M18.69,33.37a1.37,1.37,0,0,1-1.43-1.47v-.05a1.43,1.43,0,0,1,.45-1.15,1.83,1.83,0,0,1,1.23-.39,2.75,2.75,0,0,1,1,.2v-.14a.81.81,0,0,0-.24-.63,1,1,0,0,0-.67-.22,2.93,2.93,0,0,0-1.11.27l-.35-1a3.64,3.64,0,0,1,1.65-.39,1.74,1.74,0,0,1,2,2v2.92H19.94v-.52A1.49,1.49,0,0,1,18.69,33.37Zm.42-.94a.87.87,0,0,0,.61-.2A.68.68,0,0,0,20,31.7v-.4a1.65,1.65,0,0,0-.71-.15.83.83,0,0,0-.56.18.63.63,0,0,0-.2.5v0a.57.57,0,0,0,.17.44A.68.68,0,0,0,19.12,32.43Z"/><path class="cls-1" d="M23.62,33.36a1.39,1.39,0,0,1-.94-.29,1.26,1.26,0,0,1-.34-1V29.54h-.49V28.46h.49V27.22h1.28v1.23h1v1.08h-1v2.28q0,.41.4.41a1.22,1.22,0,0,0,.55-.13v1A1.87,1.87,0,0,1,23.62,33.36Z"/><path class="cls-1" d="M25.41,33.28V28.46h1.28v.65a1.51,1.51,0,0,1,1.25-.74,1.25,1.25,0,0,1,1.19.7,1.74,1.74,0,0,1,1.37-.7,1.35,1.35,0,0,1,1,.42,1.71,1.71,0,0,1,.39,1.2v3.29H30.65V30.37q0-.85-.67-.85a.62.62,0,0,0-.5.22,1,1,0,0,0-.18.63v2.91H28V30.37q0-.85-.66-.85a.61.61,0,0,0-.5.22,1,1,0,0,0-.18.63v2.91Z"/><path class="cls-1" d="M35,33.39a2.13,2.13,0,0,1-1.62-.68,2.49,2.49,0,0,1-.64-1.79v-.08a2.64,2.64,0,0,1,.6-1.77,1.9,1.9,0,0,1,1.51-.7,1.78,1.78,0,0,1,1.52.72,3,3,0,0,1,.53,1.85c0,.15,0,.29,0,.41H34a1.23,1.23,0,0,0,.36.72,1,1,0,0,0,.69.25,1.46,1.46,0,0,0,1-.48l.66.77A2.23,2.23,0,0,1,35,33.39ZM34,30.5h1.67a1.56,1.56,0,0,0-.26-.79.66.66,0,0,0-.56-.29.69.69,0,0,0-.57.28A1.54,1.54,0,0,0,34,30.5Z"/><path class="cls-1" d="M37.73,33.28V28.46H39v.65a1.52,1.52,0,0,1,1.24-.74,1.31,1.31,0,0,1,1,.44A1.76,1.76,0,0,1,41.67,30v3.29H40.39V30.37q0-.85-.68-.85a.64.64,0,0,0-.51.22,1,1,0,0,0-.19.63v2.91Z"/><path class="cls-1" d="M44.14,33.36a1.39,1.39,0,0,1-.94-.29,1.26,1.26,0,0,1-.34-1V29.54h-.49V28.46h.49V27.22h1.28v1.23h1v1.08h-1v2.28q0,.41.4.41a1.22,1.22,0,0,0,.55-.13v1A1.87,1.87,0,0,1,44.14,33.36Z"/><path class="cls-1" d="M49.94,33.39a2,2,0,0,1-1.57-.69,2.54,2.54,0,0,1-.62-1.76v-.11a2.55,2.55,0,0,1,.63-1.77,2.06,2.06,0,0,1,1.61-.7,2.14,2.14,0,0,1,1.57.65l-.69.93a1.2,1.2,0,0,0-.86-.43.84.84,0,0,0-.71.37,1.61,1.61,0,0,0-.27,1v0a1.65,1.65,0,0,0,.27,1,.86.86,0,0,0,.74.37,1.22,1.22,0,0,0,.87-.44l.67.85A2.12,2.12,0,0,1,49.94,33.39Z"/><path class="cls-1" d="M52.3,33.28v-6.5h1.28V29.1a1.52,1.52,0,0,1,1.24-.74,1.31,1.31,0,0,1,1,.44A1.76,1.76,0,0,1,56.24,30v3.29H55V30.37q0-.85-.68-.85a.64.64,0,0,0-.51.22,1,1,0,0,0-.19.63v2.91Z"/><path class="cls-1" d="M58.41,33.37A1.37,1.37,0,0,1,57,31.9v-.05a1.43,1.43,0,0,1,.45-1.15,1.83,1.83,0,0,1,1.23-.39,2.75,2.75,0,0,1,1,.2v-.14a.81.81,0,0,0-.24-.63,1,1,0,0,0-.67-.22,2.93,2.93,0,0,0-1.11.27l-.35-1a3.64,3.64,0,0,1,1.65-.39,1.74,1.74,0,0,1,2,2v2.92H59.66v-.52A1.49,1.49,0,0,1,58.41,33.37Zm.42-.94a.87.87,0,0,0,.61-.2.68.68,0,0,0,.24-.54v-.4a1.65,1.65,0,0,0-.71-.15.83.83,0,0,0-.56.18.63.63,0,0,0-.2.5v0a.57.57,0,0,0,.17.44A.68.68,0,0,0,58.83,32.43Z"/><path class="cls-1" d="M61.89,33.28V28.46h1.28v.85a1.28,1.28,0,0,1,1.31-.94v1.39h-.05a1.16,1.16,0,0,0-.93.37,1.67,1.67,0,0,0-.32,1.12v2Z"/><path class="cls-1" d="M66.19,33.37a1.37,1.37,0,0,1-1.43-1.47v-.05a1.43,1.43,0,0,1,.45-1.15,1.83,1.83,0,0,1,1.23-.39,2.75,2.75,0,0,1,1,.2v-.14a.81.81,0,0,0-.24-.63,1,1,0,0,0-.67-.22,2.93,2.93,0,0,0-1.11.27l-.35-1a3.64,3.64,0,0,1,1.65-.39,1.74,1.74,0,0,1,2,2v2.92H67.44v-.52A1.49,1.49,0,0,1,66.19,33.37Zm.42-.94a.87.87,0,0,0,.61-.2.68.68,0,0,0,.24-.54v-.4a1.65,1.65,0,0,0-.71-.15.83.83,0,0,0-.56.18.63.63,0,0,0-.2.5v0a.57.57,0,0,0,.17.44A.68.68,0,0,0,66.62,32.43Z"/><path class="cls-1" d="M71.67,33.39a2,2,0,0,1-1.57-.69,2.54,2.54,0,0,1-.62-1.76v-.11a2.55,2.55,0,0,1,.63-1.77,2.06,2.06,0,0,1,1.61-.7,2.14,2.14,0,0,1,1.57.65l-.69.93a1.2,1.2,0,0,0-.86-.43.84.84,0,0,0-.71.37,1.61,1.61,0,0,0-.27,1v0a1.65,1.65,0,0,0,.27,1,.86.86,0,0,0,.74.37,1.22,1.22,0,0,0,.87-.44l.67.85A2.12,2.12,0,0,1,71.67,33.39Z"/><path class="cls-1" d="M75.5,33.36a1.39,1.39,0,0,1-.94-.29,1.26,1.26,0,0,1-.34-1V29.54h-.49V28.46h.49V27.22H75.5v1.23h1v1.08h-1v2.28q0,.41.4.41a1.22,1.22,0,0,0,.55-.13v1A1.87,1.87,0,0,1,75.5,33.36Z"/><path class="cls-1" d="M79.23,33.39a2.13,2.13,0,0,1-1.62-.68A2.49,2.49,0,0,1,77,30.92v-.08a2.64,2.64,0,0,1,.6-1.77,1.9,1.9,0,0,1,1.51-.7,1.78,1.78,0,0,1,1.52.72,3,3,0,0,1,.53,1.85c0,.15,0,.29,0,.41H78.24a1.23,1.23,0,0,0,.36.72,1,1,0,0,0,.69.25,1.46,1.46,0,0,0,1-.48l.66.77A2.23,2.23,0,0,1,79.23,33.39Zm-1-2.89H79.9a1.56,1.56,0,0,0-.26-.79.66.66,0,0,0-.56-.29.69.69,0,0,0-.57.28A1.54,1.54,0,0,0,78.24,30.5Z"/><path class="cls-1" d="M82,33.28V28.46h1.28v.85a1.28,1.28,0,0,1,1.31-.94v1.39H84.5a1.16,1.16,0,0,0-.93.37,1.67,1.67,0,0,0-.32,1.12v2Z"/><path class="cls-1" d="M85.29,27.94V26.78h1.33v1.16Zm0,5.34V28.46H86.6v4.82Z"/><path class="cls-1" d="M89.13,33.37a2.82,2.82,0,0,1-1.83-.67l.56-.9a2.18,2.18,0,0,0,1.29.54.6.6,0,0,0,.38-.1.32.32,0,0,0,.13-.27v0a.26.26,0,0,0,0-.09l0-.08-.05-.07-.09-.06-.1-.06-.12-.06-.14-.06-.16-.07-.16-.07a3.17,3.17,0,0,1-.95-.58,1.16,1.16,0,0,1-.32-.87v0A1.34,1.34,0,0,1,88,28.78a1.76,1.76,0,0,1,1.19-.4,2.71,2.71,0,0,1,1.59.52l-.51.92a2.13,2.13,0,0,0-1.1-.41.54.54,0,0,0-.35.1.3.3,0,0,0-.12.24v0a.34.34,0,0,0,.18.28,4.57,4.57,0,0,0,.58.3l.06,0,0,0a3.54,3.54,0,0,1,1,.61,1.11,1.11,0,0,1,.32.84v0A1.36,1.36,0,0,1,90.36,33,1.86,1.86,0,0,1,89.13,33.37Z"/><path class="cls-1" d="M93,33.36a1.39,1.39,0,0,1-.94-.29,1.26,1.26,0,0,1-.34-1V29.54h-.49V28.46h.49V27.22H93v1.23h1v1.08H93v2.28q0,.41.4.41a1.22,1.22,0,0,0,.55-.13v1A1.87,1.87,0,0,1,93,33.36Z"/><path class="cls-1" d="M94.83,27.94V26.78h1.33v1.16Zm0,5.34V28.46h1.28v4.82Z"/><path class="cls-1" d="M99.21,33.39a2,2,0,0,1-1.57-.69A2.54,2.54,0,0,1,97,30.94v-.11a2.55,2.55,0,0,1,.63-1.77,2.06,2.06,0,0,1,1.61-.7,2.14,2.14,0,0,1,1.57.65l-.69.93a1.2,1.2,0,0,0-.86-.43.84.84,0,0,0-.71.37,1.61,1.61,0,0,0-.27,1v0a1.65,1.65,0,0,0,.27,1,.86.86,0,0,0,.74.37,1.22,1.22,0,0,0,.87-.44l.67.85A2.12,2.12,0,0,1,99.21,33.39Z"/><path class="cls-1" d="M103,33.37a2.82,2.82,0,0,1-1.83-.67l.56-.9a2.18,2.18,0,0,0,1.29.54.6.6,0,0,0,.38-.1.32.32,0,0,0,.13-.27v0a.26.26,0,0,0,0-.09l0-.08-.05-.07-.09-.06-.1-.06-.12-.06-.14-.06-.16-.07-.16-.07a3.17,3.17,0,0,1-.95-.58,1.16,1.16,0,0,1-.32-.87v0a1.34,1.34,0,0,1,.47-1.08,1.76,1.76,0,0,1,1.19-.4,2.71,2.71,0,0,1,1.59.52l-.51.92a2.13,2.13,0,0,0-1.1-.41.54.54,0,0,0-.35.1.3.3,0,0,0-.12.24v0a.34.34,0,0,0,.18.28,4.57,4.57,0,0,0,.58.3l.06,0,0,0a3.54,3.54,0,0,1,1,.61,1.11,1.11,0,0,1,.32.84v0a1.36,1.36,0,0,1-.47,1.11A1.86,1.86,0,0,1,103,33.37Z"/><path class="cls-14" d="M15,53.79a3.3,3.3,0,0,1-2.33-.93l.77-1a2.45,2.45,0,0,0,1.57.71.93.93,0,0,0,.59-.17.55.55,0,0,0,.22-.45h0a.55.55,0,0,0-.22-.43,3.35,3.35,0,0,0-.86-.42,4.2,4.2,0,0,1-1.38-.77,1.53,1.53,0,0,1-.43-1.17v0a1.7,1.7,0,0,1,.58-1.33A2.15,2.15,0,0,1,15,47.33a2.93,2.93,0,0,1,2,.77l-.73,1A2.17,2.17,0,0,0,15,48.51a.85.85,0,0,0-.53.15.48.48,0,0,0-.2.4h0a.55.55,0,0,0,.23.45,4.8,4.8,0,0,0,1,.49,3.6,3.6,0,0,1,1.29.76,1.54,1.54,0,0,1,.41,1.12v0a1.73,1.73,0,0,1-.59,1.38A2.24,2.24,0,0,1,15,53.79Z"/><path class="cls-14" d="M20,53.82a2,2,0,0,1-1.57-.69,2.54,2.54,0,0,1-.62-1.76v-.11a2.55,2.55,0,0,1,.63-1.77A2.06,2.06,0,0,1,20,48.8a2.14,2.14,0,0,1,1.57.65l-.69.93a1.2,1.2,0,0,0-.86-.43.84.84,0,0,0-.71.37,1.61,1.61,0,0,0-.27,1v0a1.65,1.65,0,0,0,.27,1,.86.86,0,0,0,.74.37,1.22,1.22,0,0,0,.87-.44l.67.85A2.12,2.12,0,0,1,20,53.82Z"/><path class="cls-14" d="M22.32,53.71v-6.5H23.6v2.32a1.52,1.52,0,0,1,1.24-.74,1.31,1.31,0,0,1,1,.44,1.76,1.76,0,0,1,.38,1.19v3.29H25V50.8q0-.85-.68-.85a.64.64,0,0,0-.51.22,1,1,0,0,0-.19.63v2.91Z"/><path class="cls-14" d="M29.31,53.82a2.13,2.13,0,0,1-1.62-.68,2.49,2.49,0,0,1-.64-1.79v-.08a2.64,2.64,0,0,1,.6-1.77,1.9,1.9,0,0,1,1.51-.7,1.78,1.78,0,0,1,1.52.72,3,3,0,0,1,.53,1.85c0,.15,0,.29,0,.41H28.32a1.23,1.23,0,0,0,.36.72,1,1,0,0,0,.69.25,1.46,1.46,0,0,0,1-.48L31,53A2.23,2.23,0,0,1,29.31,53.82Zm-1-2.89H30a1.56,1.56,0,0,0-.26-.79.66.66,0,0,0-.56-.29.69.69,0,0,0-.57.28A1.54,1.54,0,0,0,28.31,50.93Z"/><path class="cls-14" d="M33.71,53.8a1.64,1.64,0,0,1-1.31-.63,2.72,2.72,0,0,1-.53-1.8v-.14a2.72,2.72,0,0,1,.53-1.8,1.64,1.64,0,0,1,1.31-.63,1.61,1.61,0,0,1,1.3.71V47.21H36.3v6.5H35V53A1.54,1.54,0,0,1,33.71,53.8Zm-.29-1.48a.8.8,0,0,0,.67.37.81.81,0,0,0,.67-.37,1.61,1.61,0,0,0,.27-1v-.09a1.61,1.61,0,0,0-.27-1,.81.81,0,0,0-.67-.37.8.8,0,0,0-.67.37,1.63,1.63,0,0,0-.27,1v.09A1.63,1.63,0,0,0,33.42,52.31Z"/><path class="cls-14" d="M38.72,53.8a1.3,1.3,0,0,1-1-.44,1.77,1.77,0,0,1-.37-1.19V48.89h1.27v2.91q0,.86.68.85a.64.64,0,0,0,.52-.22,1,1,0,0,0,.18-.63V48.89h1.28v4.82H40v-.65A1.48,1.48,0,0,1,38.72,53.8Z"/><path class="cls-14" d="M42.3,53.71v-6.5h1.28v6.5Z"/><path class="cls-14" d="M46.72,53.82a2.13,2.13,0,0,1-1.62-.68,2.49,2.49,0,0,1-.64-1.79v-.08a2.64,2.64,0,0,1,.6-1.77,1.9,1.9,0,0,1,1.51-.7,1.78,1.78,0,0,1,1.52.72,3,3,0,0,1,.53,1.85c0,.15,0,.29,0,.41H45.73a1.23,1.23,0,0,0,.36.72,1,1,0,0,0,.69.25,1.46,1.46,0,0,0,1-.48l.66.77A2.23,2.23,0,0,1,46.72,53.82Zm-1-2.89h1.67a1.56,1.56,0,0,0-.26-.79.66.66,0,0,0-.56-.29.69.69,0,0,0-.57.28A1.54,1.54,0,0,0,45.72,50.93Z"/><path class="cls-14" d="M211.36,53.89l-.72-.68a2.48,2.48,0,0,1-1.64.6c-1.61,0-2.71-1.36-2.71-3.21v-.07c0-1.85,1.12-3.22,2.72-3.22s2.7,1.36,2.7,3.21v.07a3.65,3.65,0,0,1-.66,2.17l.76.67Zm-1.18-1.13-1-.91.44-.47,1,.92A3.19,3.19,0,0,0,211,50.6v-.06c0-1.52-.86-2.6-2-2.6s-2,1.07-2,2.59v.06c0,1.53.86,2.6,2,2.6A1.79,1.79,0,0,0,210.18,52.76Z"/><path class="cls-14" d="M212.61,53.19l2-2.27c.76-.81,1-1.27,1-1.85a1.08,1.08,0,0,0-1.13-1.12,1.7,1.7,0,0,0-1.41.9l-.47-.4a2.2,2.2,0,0,1,1.94-1.13A1.67,1.67,0,0,1,216.39,49v0c0,.81-.39,1.34-1.27,2.27l-1.58,1.78h2.89v.63h-3.83Z"/><path class="cls-14" d="M217.25,47.41H218l1.49,5.19,1.47-5.2h.58l1.48,5.2,1.49-5.19h.69l-1.88,6.35h-.59l-1.48-5.09-1.48,5.09h-.59Z"/><path class="cls-14" d="M375.82,53.89l-.72-.68a2.48,2.48,0,0,1-1.64.6c-1.61,0-2.71-1.36-2.71-3.21v-.07c0-1.85,1.12-3.22,2.72-3.22s2.7,1.36,2.7,3.21v.07a3.65,3.65,0,0,1-.66,2.17l.76.67Zm-1.18-1.13-1-.91.44-.47,1,.92a3.2,3.2,0,0,0,.44-1.71v-.06c0-1.52-.85-2.6-2-2.6s-2,1.07-2,2.59v.06c0,1.53.85,2.6,2,2.6A1.79,1.79,0,0,0,374.64,52.76Z"/><path class="cls-14" d="M376.79,47.41h.73L379,52.59l1.47-5.2h.58l1.48,5.2L384,47.41h.69l-1.88,6.35h-.59l-1.48-5.09-1.48,5.09h-.59Z"/><path class="cls-14" d="M13.13,86.86v-6.3h2a2.89,2.89,0,0,1,2.18.85,3.11,3.11,0,0,1,.82,2.25v.08A3.12,3.12,0,0,1,17.35,86a2.88,2.88,0,0,1-2.18.86Zm2-5.12h-.72v3.94h.72a1.54,1.54,0,0,0,1.21-.51,2.09,2.09,0,0,0,.45-1.43v0a2.1,2.1,0,0,0-.45-1.44A1.53,1.53,0,0,0,15.16,81.74Z"/><path class="cls-14" d="M22.78,86.27a2.25,2.25,0,0,1-3.25,0,2.49,2.49,0,0,1-.64-1.76v-.1a2.49,2.49,0,0,1,.65-1.77,2.25,2.25,0,0,1,3.25,0,2.5,2.5,0,0,1,.64,1.77v.1A2.51,2.51,0,0,1,22.78,86.27Zm-1.62-.41a.85.85,0,0,0,.73-.38,1.67,1.67,0,0,0,.27-1v-.06a1.66,1.66,0,0,0-.28-1,.89.89,0,0,0-1.47,0,1.67,1.67,0,0,0-.27,1v.06a1.64,1.64,0,0,0,.28,1A.87.87,0,0,0,21.17,85.86Z"/><path class="cls-14" d="M25.73,86.95a2.82,2.82,0,0,1-1.83-.67l.56-.9a2.18,2.18,0,0,0,1.29.54.6.6,0,0,0,.38-.1.32.32,0,0,0,.13-.27v0a.26.26,0,0,0,0-.09l0-.08-.05-.07-.09-.06-.1-.06-.12-.06-.14-.06L25.54,85l-.16-.07a3.17,3.17,0,0,1-.95-.58,1.16,1.16,0,0,1-.32-.87v0a1.34,1.34,0,0,1,.47-1.08,1.76,1.76,0,0,1,1.19-.4,2.71,2.71,0,0,1,1.59.52l-.51.92a2.13,2.13,0,0,0-1.1-.41.54.54,0,0,0-.35.1.3.3,0,0,0-.12.24v0a.34.34,0,0,0,.18.28,4.57,4.57,0,0,0,.58.3l.06,0,0,0a3.54,3.54,0,0,1,1,.61,1.11,1.11,0,0,1,.32.84v0A1.36,1.36,0,0,1,27,86.56,1.86,1.86,0,0,1,25.73,86.95Z"/><path class="cls-14" d="M30.28,87a2.13,2.13,0,0,1-1.62-.68A2.49,2.49,0,0,1,28,84.5v-.08a2.64,2.64,0,0,1,.6-1.77,1.9,1.9,0,0,1,1.51-.7,1.78,1.78,0,0,1,1.52.72,3,3,0,0,1,.53,1.85c0,.15,0,.29,0,.41H29.29a1.23,1.23,0,0,0,.36.72,1,1,0,0,0,.69.25,1.46,1.46,0,0,0,1-.48l.66.77A2.23,2.23,0,0,1,30.28,87Zm-1-2.89h1.67a1.56,1.56,0,0,0-.26-.79.66.66,0,0,0-.56-.29.69.69,0,0,0-.57.28A1.54,1.54,0,0,0,29.28,84.08Z"/><path class="cls-14" d="M13,95.06a4.22,4.22,0,0,1,2.25-3.83l.26.42a4.08,4.08,0,0,0,0,6.82l-.26.42A4.22,4.22,0,0,1,13,95.06Z"/><path class="cls-14" d="M16.27,96.3v0c0-1,.69-1.51,1.73-1.51a3.86,3.86,0,0,1,1.21.19v-.28A1.07,1.07,0,0,0,18,93.5a2.56,2.56,0,0,0-1.2.31l-.21-.53a3.23,3.23,0,0,1,1.48-.38,1.79,1.79,0,0,1,1.31.47,1.74,1.74,0,0,1,.45,1.27v3h-.64V97a1.62,1.62,0,0,1-1.43.78A1.43,1.43,0,0,1,16.27,96.3ZM19.22,96v-.59a3.31,3.31,0,0,0-1.13-.19c-.75,0-1.16.39-1.16,1v0a.94.94,0,0,0,1,1A1.22,1.22,0,0,0,19.22,96Z"/><path class="cls-14" d="M20.87,95.36v-.09c0-1.56.92-2.39,1.87-2.39a1.74,1.74,0,0,1,1.52,1V91.16h.65v6.5h-.65v-.9a1.75,1.75,0,0,1-1.52,1C21.79,97.75,20.87,96.93,20.87,95.36Zm3.42,0v-.08c0-1.11-.68-1.81-1.41-1.81s-1.34.66-1.34,1.81v.07c0,1.14.61,1.82,1.34,1.82S24.29,96.46,24.29,95.35Z"/><path class="cls-14" d="M26.24,93h.65v.75a1.47,1.47,0,0,1,1.31-.84,1.36,1.36,0,0,1,1.3.85,1.63,1.63,0,0,1,1.44-.85c.91,0,1.49.63,1.49,1.72v3.06h-.65V94.77c0-.86-.38-1.31-1-1.31s-1.11.49-1.11,1.33v2.86H29v-2.9c0-.84-.38-1.3-1-1.3a1.2,1.2,0,0,0-1.11,1.34v2.85h-.65Z"/><path class="cls-14" d="M33.74,91.24h.72V92h-.72Zm0,1.73h.65v4.69h-.65Z"/><path class="cls-14" d="M35.81,93h.65v.77a1.54,1.54,0,0,1,2.92.86v3.07h-.65V94.77c0-.84-.4-1.31-1.08-1.31a1.22,1.22,0,0,0-1.19,1.34v2.85h-.65Z"/><path class="cls-14" d="M40.66,91.24h.72V92h-.72Zm0,1.73h.65v4.69H40.7Z"/><path class="cls-14" d="M42.31,97.08l.34-.48a2.14,2.14,0,0,0,1.37.57c.51,0,.87-.29.87-.73h0c0-.41-.39-.63-1-.89s-1.34-.62-1.34-1.35v0A1.32,1.32,0,0,1,44,92.89a2.56,2.56,0,0,1,1.48.5l-.31.5A2.05,2.05,0,0,0,44,93.45c-.5,0-.81.29-.81.66v0c0,.4.41.59,1,.86s1.31.67,1.31,1.38v0A1.38,1.38,0,0,1,44,97.74,2.62,2.62,0,0,1,42.31,97.08Z"/><path class="cls-14" d="M46.73,96.57v-3h-.57V93h.57V91.6h.65V93H48.6v.58H47.38v2.92a.6.6,0,0,0,.68.68A1.39,1.39,0,0,0,48.6,97v.56a1.59,1.59,0,0,1-.7.16A1.05,1.05,0,0,1,46.73,96.57Z"/><path class="cls-14" d="M49.64,93h.65v1a1.66,1.66,0,0,1,1.61-1.1v.7h0c-.87,0-1.58.61-1.58,1.82v2.23h-.65Z"/><path class="cls-14" d="M52.31,96.3v0c0-1,.69-1.51,1.73-1.51a3.86,3.86,0,0,1,1.21.19v-.28A1.07,1.07,0,0,0,54,93.5a2.56,2.56,0,0,0-1.2.31l-.21-.53a3.23,3.23,0,0,1,1.48-.38,1.79,1.79,0,0,1,1.31.47,1.74,1.74,0,0,1,.45,1.27v3h-.64V97a1.62,1.62,0,0,1-1.43.78A1.43,1.43,0,0,1,52.31,96.3ZM55.25,96v-.59a3.31,3.31,0,0,0-1.13-.19c-.75,0-1.16.39-1.16,1v0a.94.94,0,0,0,1,1A1.22,1.22,0,0,0,55.25,96Z"/><path class="cls-14" d="M57.3,96.57v-3h-.57V93h.57V91.6H58V93h1.22v.58H58v2.92a.6.6,0,0,0,.68.68,1.39,1.39,0,0,0,.55-.13v.56a1.59,1.59,0,0,1-.7.16A1.05,1.05,0,0,1,57.3,96.57Z"/><path class="cls-14" d="M60.24,91.24H61V92h-.72Zm0,1.73h.65v4.69h-.65Z"/><path class="cls-14" d="M62.05,95.35v-.06a2.11,2.11,0,1,1,4.17,0v.05a2.22,2.22,0,0,1-2.09,2.42A2.2,2.2,0,0,1,62.05,95.35Zm3.51,0v0c0-1.05-.63-1.84-1.43-1.84s-1.41.78-1.41,1.83v0c0,1.05.62,1.84,1.42,1.84S65.57,96.38,65.57,95.34Z"/><path class="cls-14" d="M67.3,93h.65v.77a1.54,1.54,0,0,1,2.92.86v3.07h-.65V94.77c0-.84-.4-1.31-1.08-1.31a1.22,1.22,0,0,0-1.19,1.34v2.85H67.3Z"/><path class="cls-14" d="M74.67,96.57v-3H74.1V93h.57V91.6h.65V93h1.22v.58H75.32v2.92a.6.6,0,0,0,.68.68,1.39,1.39,0,0,0,.55-.13v.56a1.59,1.59,0,0,1-.7.16A1.05,1.05,0,0,1,74.67,96.57Z"/><path class="cls-14" d="M77.61,91.24h.72V92h-.72Zm0,1.73h.65v4.69h-.65Z"/><path class="cls-14" d="M79.68,93h.65v.75a1.47,1.47,0,0,1,1.31-.84,1.36,1.36,0,0,1,1.3.85,1.63,1.63,0,0,1,1.44-.85c.91,0,1.49.63,1.49,1.72v3.06h-.65V94.77c0-.86-.38-1.31-1-1.31s-1.11.49-1.11,1.33v2.86h-.65v-2.9c0-.84-.38-1.3-1-1.3a1.2,1.2,0,0,0-1.11,1.34v2.85h-.65Z"/><path class="cls-14" d="M86.9,95.35v0c0-1.43.84-2.43,1.94-2.43s1.88,1,1.88,2.42c0,.06,0,.19,0,.27H87.56A1.53,1.53,0,0,0,89,97.18a1.65,1.65,0,0,0,1.22-.54l.37.41a2.12,2.12,0,0,1-1.61.7A2.17,2.17,0,0,1,86.9,95.35Zm3.17-.29c0-.89-.47-1.62-1.23-1.62s-1.22.64-1.28,1.62Z"/><path class="cls-14" d="M91.29,98.48a4.08,4.08,0,0,0,0-6.82l.26-.42a4.4,4.4,0,0,1,0,7.67Z"/><path class="cls-14" d="M127.35,75.62a3.2,3.2,0,0,1-.73-2.46v-.07c0-2.09.89-3.43,2.33-3.43a2.34,2.34,0,0,1,1.52.57l-.36.54a1.79,1.79,0,0,0-1.19-.49c-1,0-1.62,1.15-1.63,2.69a1.74,1.74,0,0,1,1.53-.86,1.84,1.84,0,0,1,1.9,1.93v0a2,2,0,0,1-2,2.1A1.92,1.92,0,0,1,127.35,75.62ZM130,74.09v0a1.27,1.27,0,0,0-1.31-1.37,1.32,1.32,0,0,0-1.34,1.38v0a1.35,1.35,0,0,0,1.35,1.46A1.34,1.34,0,0,0,130,74.09Z"/><path class="cls-14" d="M133.94,71.37h.65v.75a1.47,1.47,0,0,1,1.31-.84,1.36,1.36,0,0,1,1.3.85,1.63,1.63,0,0,1,1.44-.85c.91,0,1.49.63,1.49,1.72v3.06h-.65V73.17c0-.86-.38-1.31-1-1.31s-1.11.49-1.11,1.33v2.86h-.65v-2.9c0-.84-.38-1.3-1-1.3a1.2,1.2,0,0,0-1.11,1.34v2.85h-.65Z"/><path class="cls-14" d="M141.33,76.92l.26-.52a2.79,2.79,0,0,0,1.51.46,1.28,1.28,0,0,0,1.43-1.4v-.68a1.79,1.79,0,0,1-1.55,1,2,2,0,0,1-1.85-2.21v0A2,2,0,0,1,143,71.28a1.78,1.78,0,0,1,1.54.93v-.84h.65v4.07a2,2,0,0,1-.51,1.45,2.13,2.13,0,0,1-1.56.54A3.32,3.32,0,0,1,141.33,76.92Zm3.22-3.4v0a1.5,1.5,0,0,0-1.41-1.63c-.74,0-1.33.6-1.33,1.63v0c0,1,.6,1.64,1.33,1.64A1.51,1.51,0,0,0,144.55,73.52Z"/><path class="cls-14" d="M149.19,69h.58l-3.5,8.17h-.59Z"/><path class="cls-14" d="M150.43,69.56h.65v4.37l2.08-2.56h.78l-1.65,2L154,76.06h-.77l-1.39-2.21-.77.91v1.3h-.65Z"/><path class="cls-14" d="M154.55,76.92l.26-.52a2.79,2.79,0,0,0,1.51.46,1.28,1.28,0,0,0,1.43-1.4v-.68a1.79,1.79,0,0,1-1.55,1,2,2,0,0,1-1.85-2.21v0a2,2,0,0,1,1.85-2.21,1.78,1.78,0,0,1,1.54.93v-.84h.65v4.07a2,2,0,0,1-.51,1.45,2.13,2.13,0,0,1-1.56.54A3.32,3.32,0,0,1,154.55,76.92Zm3.22-3.4v0a1.5,1.5,0,0,0-1.41-1.63c-.74,0-1.33.6-1.33,1.63v0c0,1,.6,1.64,1.33,1.64A1.51,1.51,0,0,0,157.77,73.52Z"/><path class="cls-14" d="M161.66,73.46a4.22,4.22,0,0,1,2.25-3.83l.26.42a4.08,4.08,0,0,0,0,6.82l-.26.42A4.22,4.22,0,0,1,161.66,73.46Z"/><path class="cls-14" d="M165.38,75.62a3.2,3.2,0,0,1-.73-2.46v-.07c0-2.09.89-3.43,2.33-3.43a2.34,2.34,0,0,1,1.52.57l-.36.54a1.79,1.79,0,0,0-1.19-.49c-1,0-1.62,1.15-1.63,2.69a1.74,1.74,0,0,1,1.53-.86,1.84,1.84,0,0,1,1.9,1.93v0a2,2,0,0,1-2,2.1A1.92,1.92,0,0,1,165.38,75.62Zm2.69-1.53v0a1.27,1.27,0,0,0-1.31-1.37,1.32,1.32,0,0,0-1.34,1.38v0a1.35,1.35,0,0,0,1.35,1.46A1.34,1.34,0,0,0,168.08,74.09Z"/><path class="cls-14" d="M169.71,73v-.07c0-1.89.89-3.22,2.29-3.22s2.28,1.31,2.28,3.21v.07c0,1.89-.89,3.22-2.29,3.22S169.71,74.84,169.71,73Zm3.87,0v-.07c0-1.51-.64-2.61-1.59-2.61s-1.58,1.08-1.58,2.59v.07c0,1.51.63,2.61,1.59,2.61S173.58,74.46,173.58,73Z"/><path class="cls-14" d="M177.51,71.37h.65v.75a1.47,1.47,0,0,1,1.31-.84,1.36,1.36,0,0,1,1.3.85,1.63,1.63,0,0,1,1.44-.85c.91,0,1.49.63,1.49,1.72v3.06h-.65V73.17c0-.86-.38-1.31-1-1.31s-1.11.49-1.11,1.33v2.86h-.65v-2.9c0-.84-.38-1.3-1-1.3a1.2,1.2,0,0,0-1.11,1.34v2.85h-.65Z"/><path class="cls-14" d="M184.94,69.64h.72v.77h-.72Zm0,1.73h.65v4.69H185Z"/><path class="cls-14" d="M186.93,71.37h.65v.77a1.54,1.54,0,0,1,2.92.86v3.07h-.65V73.17c0-.84-.4-1.31-1.08-1.31a1.22,1.22,0,0,0-1.19,1.34v2.85h-.65Z"/><path class="cls-14" d="M191,76.88a4.08,4.08,0,0,0,0-6.82l.26-.42a4.4,4.4,0,0,1,0,7.67Z"/><path class="cls-14" d="M196.65,73.46a4.22,4.22,0,0,1,2.25-3.83l.26.42a4.08,4.08,0,0,0,0,6.82l-.26.42A4.22,4.22,0,0,1,196.65,73.46Z"/><path class="cls-14" d="M200.23,69.76H202a2.89,2.89,0,0,1,3,3.11v.06a2.9,2.9,0,0,1-3,3.12h-1.78Zm.68.62v5.06H202a2.26,2.26,0,0,0,2.28-2.49v-.06a2.26,2.26,0,0,0-2.28-2.5Z"/><path class="cls-14" d="M205.9,73.75v-.06a2.11,2.11,0,1,1,4.17,0v.05A2.22,2.22,0,0,1,208,76.16,2.2,2.2,0,0,1,205.9,73.75Zm3.51,0v0c0-1.05-.63-1.84-1.43-1.84s-1.41.78-1.41,1.83v0c0,1.05.62,1.84,1.42,1.84S209.41,74.78,209.41,73.74Z"/><path class="cls-14" d="M210.64,75.48,211,75a2.14,2.14,0,0,0,1.37.57c.51,0,.87-.29.87-.73h0c0-.41-.39-.63-1-.89s-1.34-.62-1.34-1.35v0a1.32,1.32,0,0,1,1.46-1.28,2.56,2.56,0,0,1,1.48.5l-.31.5a2.05,2.05,0,0,0-1.18-.44c-.5,0-.81.29-.81.66v0c0,.4.41.59,1,.86s1.31.67,1.31,1.38v0a1.38,1.38,0,0,1-1.52,1.35A2.62,2.62,0,0,1,210.64,75.48Z"/><path class="cls-14" d="M214.62,73.75v0c0-1.43.84-2.43,1.94-2.43s1.88,1,1.88,2.42c0,.06,0,.19,0,.27h-3.15a1.53,1.53,0,0,0,1.45,1.61,1.65,1.65,0,0,0,1.22-.54l.37.41a2.12,2.12,0,0,1-1.61.7A2.17,2.17,0,0,1,214.62,73.75Zm3.17-.29c0-.89-.47-1.62-1.23-1.62s-1.22.64-1.28,1.62Z"/><path class="cls-14" d="M219.08,75.48l.34-.48a2.14,2.14,0,0,0,1.37.57c.51,0,.87-.29.87-.73h0c0-.41-.39-.63-1-.89s-1.34-.62-1.34-1.35v0a1.32,1.32,0,0,1,1.46-1.28,2.56,2.56,0,0,1,1.48.5l-.31.5a2.05,2.05,0,0,0-1.18-.44c-.5,0-.81.29-.81.66v0c0,.4.41.59,1,.86s1.31.67,1.31,1.38v0a1.38,1.38,0,0,1-1.52,1.35A2.62,2.62,0,0,1,219.08,75.48Z"/><path class="cls-14" d="M225.18,73.75v-.06a2.11,2.11,0,1,1,4.17,0v.05a2.22,2.22,0,0,1-2.09,2.42A2.2,2.2,0,0,1,225.18,73.75Zm3.51,0v0c0-1.05-.63-1.84-1.43-1.84s-1.41.78-1.41,1.83v0c0,1.05.62,1.84,1.42,1.84S228.69,74.78,228.69,73.74Z"/><path class="cls-14" d="M230.51,71.94h-.58v-.57h.58v-.43a1.54,1.54,0,0,1,.36-1.09,1.24,1.24,0,0,1,.91-.33,2.06,2.06,0,0,1,.62.09v.58a1.88,1.88,0,0,0-.53-.09c-.47,0-.71.29-.71.88v.4h1.22v.57h-1.21v4.11h-.66Z"/><path class="cls-14" d="M235.27,74.39l3-1.49-3-1.5v-.7l3.67,1.91v.58l-3.67,1.91Z"/><path class="cls-14" d="M242.9,70.44l-1,.36-.12-.58,1.3-.5h.5v6.34h-.67Z"/><path class="cls-14" d="M244.79,76.84c.44-.16.61-.41.59-.78H245v-.93h.81v.79a1.1,1.1,0,0,1-1,1.22Z"/><path class="cls-14" d="M246.84,73v-.07c0-1.89.89-3.22,2.29-3.22s2.28,1.31,2.28,3.21v.07c0,1.89-.89,3.22-2.29,3.22S246.84,74.84,246.84,73Zm3.87,0v-.07c0-1.51-.64-2.61-1.59-2.61s-1.58,1.08-1.58,2.59v.07c0,1.51.63,2.61,1.59,2.61S250.71,74.46,250.71,73Z"/><path class="cls-14" d="M252.45,73v-.07c0-1.89.89-3.22,2.29-3.22S257,71,257,72.86v.07c0,1.89-.89,3.22-2.29,3.22S252.45,74.84,252.45,73Zm3.87,0v-.07c0-1.51-.64-2.61-1.59-2.61s-1.58,1.08-1.58,2.59v.07c0,1.51.63,2.61,1.59,2.61S256.32,74.46,256.32,73Z"/><path class="cls-14" d="M258.05,73v-.07c0-1.89.89-3.22,2.29-3.22s2.28,1.31,2.28,3.21v.07c0,1.89-.89,3.22-2.29,3.22S258.05,74.84,258.05,73Zm3.87,0v-.07c0-1.51-.64-2.61-1.59-2.61s-1.58,1.08-1.58,2.59v.07c0,1.51.63,2.61,1.59,2.61S261.93,74.46,261.93,73Z"/><path class="cls-14" d="M265.85,71.37h.65v.75a1.47,1.47,0,0,1,1.31-.84,1.35,1.35,0,0,1,1.3.85,1.63,1.63,0,0,1,1.44-.85c.91,0,1.5.63,1.5,1.72v3.06h-.65V73.17c0-.86-.38-1.31-1-1.31s-1.11.49-1.11,1.33v2.86h-.65v-2.9c0-.84-.38-1.3-1-1.3a1.2,1.2,0,0,0-1.11,1.34v2.85h-.65Z"/><path class="cls-14" d="M273.24,76.92l.26-.52a2.79,2.79,0,0,0,1.51.46,1.28,1.28,0,0,0,1.43-1.4v-.68a1.79,1.79,0,0,1-1.55,1A2,2,0,0,1,273,73.53v0a2,2,0,0,1,1.85-2.21,1.78,1.78,0,0,1,1.54.93v-.84h.65v4.07a2,2,0,0,1-.51,1.45,2.13,2.13,0,0,1-1.56.54A3.32,3.32,0,0,1,273.24,76.92Zm3.22-3.4v0A1.5,1.5,0,0,0,275,71.86c-.74,0-1.33.6-1.33,1.63v0c0,1,.6,1.64,1.33,1.64A1.51,1.51,0,0,0,276.46,73.52Z"/><path class="cls-14" d="M280.08,75.48l.34-.48a2.14,2.14,0,0,0,1.37.57c.51,0,.87-.29.87-.73h0c0-.41-.39-.63-1-.89s-1.34-.62-1.34-1.35v0a1.32,1.32,0,0,1,1.46-1.28,2.56,2.56,0,0,1,1.48.5l-.32.5a2.05,2.05,0,0,0-1.18-.44c-.5,0-.81.29-.81.66v0c0,.4.41.59,1,.86s1.31.67,1.31,1.38v0a1.38,1.38,0,0,1-1.52,1.35A2.62,2.62,0,0,1,280.08,75.48Z"/><path class="cls-14" d="M284.28,69.56h.65v2.57a1.54,1.54,0,0,1,2.92.86v3.07h-.65V73.17c0-.84-.4-1.31-1.08-1.31a1.22,1.22,0,0,0-1.19,1.34v2.85h-.65Z"/><path class="cls-14" d="M288.84,73.75v-.06a2.11,2.11,0,1,1,4.17,0v.05a2.22,2.22,0,0,1-2.09,2.42A2.2,2.2,0,0,1,288.84,73.75Zm3.51,0v0c0-1.05-.63-1.84-1.43-1.84s-1.41.78-1.41,1.83v0c0,1.05.62,1.84,1.42,1.84S292.35,74.78,292.35,73.74Z"/><path class="cls-14" d="M294,74.45V71.37h.65v2.89c0,.84.4,1.31,1.08,1.31a1.21,1.21,0,0,0,1.19-1.33V71.37h.65v4.69h-.65v-.77a1.52,1.52,0,0,1-1.39.85A1.5,1.5,0,0,1,294,74.45Z"/><path class="cls-14" d="M298.89,69.56h.65v6.5h-.65Z"/><path class="cls-14" d="M300.63,73.76v-.09c0-1.56.92-2.39,1.87-2.39a1.74,1.74,0,0,1,1.52,1V69.56h.65v6.5H304v-.9a1.75,1.75,0,0,1-1.52,1C301.55,76.15,300.63,75.33,300.63,73.76Zm3.42,0v-.08c0-1.11-.68-1.81-1.41-1.81s-1.34.66-1.34,1.81v.07c0,1.14.61,1.82,1.34,1.82S304.05,74.86,304.05,73.75Z"/><path class="cls-14" d="M125.65,86v.87H125v-6.5h.65v2.71a1.75,1.75,0,0,1,1.52-1c1,0,1.87.83,1.87,2.39v.09c0,1.56-.92,2.39-1.87,2.39A1.74,1.74,0,0,1,125.65,86Zm2.73-1.43v-.07c0-1.14-.61-1.82-1.33-1.82a1.62,1.62,0,0,0-1.42,1.81v.09a1.61,1.61,0,0,0,1.42,1.8C127.78,86.36,128.38,85.7,128.38,84.55Z"/><path class="cls-14" d="M129.89,84.55v0c0-1.43.84-2.43,1.94-2.43s1.88,1,1.88,2.42c0,.06,0,.19,0,.27h-3.15A1.53,1.53,0,0,0,132,86.38a1.65,1.65,0,0,0,1.22-.54l.37.41A2.12,2.12,0,0,1,132,87,2.17,2.17,0,0,1,129.89,84.55Zm3.17-.29c0-.89-.47-1.62-1.23-1.62s-1.22.64-1.28,1.62Z"/><path class="cls-14" d="M136.52,85.5v0c0-1,.69-1.51,1.73-1.51a3.86,3.86,0,0,1,1.21.19v-.28a1.07,1.07,0,0,0-1.2-1.16,2.56,2.56,0,0,0-1.2.31l-.21-.53a3.23,3.23,0,0,1,1.48-.38,1.79,1.79,0,0,1,1.31.47,1.74,1.74,0,0,1,.45,1.27v3h-.64v-.68A1.62,1.62,0,0,1,138,87,1.43,1.43,0,0,1,136.52,85.5Zm2.94-.27v-.59a3.31,3.31,0,0,0-1.13-.19c-.75,0-1.16.39-1.16,1v0a.94.94,0,0,0,1,1A1.22,1.22,0,0,0,139.46,85.23Z"/><path class="cls-14" d="M141.11,84.56v-.09c0-1.56.92-2.39,1.87-2.39a1.74,1.74,0,0,1,1.52,1V80.36h.65v6.5h-.65V86a1.75,1.75,0,0,1-1.52,1C142,86.95,141.11,86.13,141.11,84.56Zm3.42,0v-.08c0-1.11-.68-1.81-1.41-1.81s-1.34.66-1.34,1.81v.07c0,1.14.61,1.82,1.34,1.82S144.53,85.66,144.53,84.55Z"/><path class="cls-14" d="M146.44,82.17h.65v.75a1.47,1.47,0,0,1,1.31-.84,1.36,1.36,0,0,1,1.3.85,1.63,1.63,0,0,1,1.44-.85c.91,0,1.49.63,1.49,1.72v3.06H152V84c0-.86-.38-1.31-1-1.31s-1.11.49-1.11,1.33v2.86h-.65V84c0-.84-.38-1.3-1-1.3A1.2,1.2,0,0,0,147.09,84v2.85h-.65Z"/><path class="cls-14" d="M153.87,80.44h.72v.77h-.72Zm0,1.73h.65v4.69h-.65Z"/><path class="cls-14" d="M155.86,82.17h.65v.77a1.54,1.54,0,0,1,2.92.86v3.07h-.65V84c0-.84-.4-1.31-1.08-1.31A1.22,1.22,0,0,0,156.51,84v2.85h-.65Z"/><path class="cls-14" d="M160.66,80.44h.72v.77h-.72Zm0,1.73h.65v4.69h-.65Z"/><path class="cls-14" d="M162.23,86.28l.34-.48a2.14,2.14,0,0,0,1.37.57c.51,0,.87-.29.87-.73h0c0-.41-.39-.63-1-.89s-1.34-.62-1.34-1.35v0a1.32,1.32,0,0,1,1.46-1.28,2.56,2.56,0,0,1,1.48.5l-.31.5a2.05,2.05,0,0,0-1.18-.44c-.5,0-.81.29-.81.66v0c0,.4.41.59,1,.86s1.31.67,1.31,1.38v0a1.38,1.38,0,0,1-1.52,1.35A2.62,2.62,0,0,1,162.23,86.28Z"/><path class="cls-14" d="M166.72,85.77v-3h-.57v-.58h.57V80.8h.65v1.37h1.22v.58h-1.22v2.92a.6.6,0,0,0,.68.68,1.39,1.39,0,0,0,.55-.13v.56a1.59,1.59,0,0,1-.7.16A1.05,1.05,0,0,1,166.72,85.77Z"/><path class="cls-14" d="M169.19,84.55v0c0-1.43.84-2.43,1.94-2.43s1.88,1,1.88,2.42c0,.06,0,.19,0,.27h-3.15a1.53,1.53,0,0,0,1.45,1.61,1.65,1.65,0,0,0,1.22-.54l.37.41a2.12,2.12,0,0,1-1.61.7A2.17,2.17,0,0,1,169.19,84.55Zm3.17-.29c0-.89-.47-1.62-1.23-1.62s-1.22.64-1.28,1.62Z"/><path class="cls-14" d="M174,82.17h.65v1a1.66,1.66,0,0,1,1.61-1.1v.7h0c-.87,0-1.58.61-1.58,1.82v2.23H174Z"/><path class="cls-14" d="M176.8,84.55v0c0-1.43.84-2.43,1.94-2.43s1.88,1,1.88,2.42c0,.06,0,.19,0,.27h-3.15a1.53,1.53,0,0,0,1.45,1.61,1.65,1.65,0,0,0,1.22-.54l.37.41a2.12,2.12,0,0,1-1.61.7A2.17,2.17,0,0,1,176.8,84.55Zm3.17-.29c0-.89-.47-1.62-1.23-1.62s-1.22.64-1.28,1.62Z"/><path class="cls-14" d="M181.43,84.56v-.09c0-1.56.92-2.39,1.87-2.39a1.74,1.74,0,0,1,1.52,1V80.36h.65v6.5h-.65V86a1.75,1.75,0,0,1-1.52,1C182.35,86.95,181.43,86.13,181.43,84.56Zm3.42,0v-.08c0-1.11-.68-1.81-1.41-1.81s-1.34.66-1.34,1.81v.07c0,1.14.61,1.82,1.34,1.82S184.85,85.66,184.85,84.55Z"/><path class="cls-14" d="M188.62,84.55v-.06a2.11,2.11,0,1,1,4.17,0v.05A2.22,2.22,0,0,1,190.7,87,2.2,2.2,0,0,1,188.62,84.55Zm3.51,0v0c0-1.05-.63-1.84-1.43-1.84s-1.41.78-1.41,1.83v0c0,1.05.62,1.84,1.42,1.84S192.13,85.58,192.13,84.54Z"/><path class="cls-14" d="M193.26,82.17h.7L195.27,86l1.33-3.85h.68l-1.72,4.73H195Z"/><path class="cls-14" d="M197.76,84.55v0c0-1.43.84-2.43,1.94-2.43s1.88,1,1.88,2.42c0,.06,0,.19,0,.27h-3.15a1.53,1.53,0,0,0,1.45,1.61,1.65,1.65,0,0,0,1.22-.54l.37.41a2.12,2.12,0,0,1-1.61.7A2.17,2.17,0,0,1,197.76,84.55Zm3.17-.29c0-.89-.47-1.62-1.23-1.62s-1.22.64-1.28,1.62Z"/><path class="cls-14" d="M202.6,82.17h.65v1a1.66,1.66,0,0,1,1.61-1.1v.7h0c-.87,0-1.58.61-1.58,1.82v2.23h-.65Z"/><path class="cls-14" d="M211.07,83.69a1.74,1.74,0,0,1-1.52.87,1.84,1.84,0,0,1-1.91-2v0a2,2,0,0,1,2-2.13A1.86,1.86,0,0,1,211,81a3.23,3.23,0,0,1,.73,2.45v.07c0,2.14-.94,3.43-2.33,3.43a2.45,2.45,0,0,1-1.6-.62l.35-.54a1.91,1.91,0,0,0,1.27.54C210.46,86.33,211.06,85.17,211.07,83.69Zm-.1-1.13v0a1.33,1.33,0,1,0-2.65,0v0a1.29,1.29,0,0,0,1.31,1.4A1.34,1.34,0,0,0,211,82.56Z"/><path class="cls-14" d="M212.79,83.75v-.07c0-1.89.89-3.22,2.29-3.22s2.28,1.31,2.28,3.21v.07c0,1.89-.89,3.22-2.29,3.22S212.79,85.64,212.79,83.75Zm3.87,0v-.07c0-1.51-.64-2.61-1.59-2.61s-1.58,1.08-1.58,2.59v.07c0,1.51.63,2.61,1.59,2.61S216.66,85.26,216.66,83.75Z"/><path class="cls-14" d="M220.58,82.17h.65v.75a1.47,1.47,0,0,1,1.31-.84,1.36,1.36,0,0,1,1.3.85,1.63,1.63,0,0,1,1.44-.85c.91,0,1.49.63,1.49,1.72v3.06h-.65V84c0-.86-.38-1.31-1-1.31S224,83.15,224,84v2.86h-.65V84c0-.84-.38-1.3-1-1.3A1.2,1.2,0,0,0,221.23,84v2.85h-.65Z"/><path class="cls-14" d="M228,80.44h.72v.77H228Zm0,1.73h.65v4.69H228Z"/><path class="cls-14" d="M230,82.17h.65v.77a1.54,1.54,0,0,1,2.92.86v3.07h-.65V84c0-.84-.4-1.31-1.08-1.31A1.22,1.22,0,0,0,230.65,84v2.85H230Z"/><path class="cls-14" d="M234.82,85.93h.81v.93h-.81Z"/><path class="cls-14" d="M239.12,80.56h.67v6.3h-.67Z"/><path class="cls-14" d="M241.44,82.74h-.58v-.57h.58v-.43a1.54,1.54,0,0,1,.36-1.09,1.24,1.24,0,0,1,.91-.33,2.06,2.06,0,0,1,.62.09V81a1.88,1.88,0,0,0-.53-.09c-.47,0-.71.29-.71.88v.4h1.22v.57H242.1v4.11h-.66Z"/><path class="cls-14" d="M246.37,85.77v-3h-.57v-.58h.57V80.8H247v1.37h1.22v.58H247v2.92a.6.6,0,0,0,.67.68,1.39,1.39,0,0,0,.55-.13v.56a1.59,1.59,0,0,1-.7.16A1.05,1.05,0,0,1,246.37,85.77Z"/><path class="cls-14" d="M249.17,80.36h.65v2.57a1.54,1.54,0,0,1,2.92.86v3.07h-.65V84c0-.84-.4-1.31-1.08-1.31A1.22,1.22,0,0,0,249.82,84v2.85h-.65Z"/><path class="cls-14" d="M253.74,84.55v0c0-1.43.84-2.43,1.94-2.43s1.88,1,1.88,2.42c0,.06,0,.19,0,.27H254.4a1.53,1.53,0,0,0,1.45,1.61,1.65,1.65,0,0,0,1.22-.54l.37.41a2.12,2.12,0,0,1-1.61.7A2.17,2.17,0,0,1,253.74,84.55Zm3.17-.29c0-.89-.47-1.62-1.23-1.62s-1.21.64-1.28,1.62Z"/><path class="cls-14" d="M260.91,82.74h-.58v-.57h.58v-.43a1.54,1.54,0,0,1,.36-1.09,1.24,1.24,0,0,1,.91-.33,2.06,2.06,0,0,1,.62.09V81a1.88,1.88,0,0,0-.53-.09c-.47,0-.71.29-.71.88v.4h1.22v.57h-1.21v4.11h-.66Zm2.66-2.3h.73v.77h-.73Zm0,1.73h.66v4.69h-.66Z"/><path class="cls-14" d="M265.63,82.17h.65v1a1.66,1.66,0,0,1,1.61-1.1v.7h0c-.87,0-1.58.61-1.58,1.82v2.23h-.65Z"/><path class="cls-14" d="M268.37,86.28l.34-.48a2.14,2.14,0,0,0,1.37.57c.51,0,.87-.29.87-.73h0c0-.41-.39-.63-1-.89s-1.34-.62-1.34-1.35v0a1.32,1.32,0,0,1,1.46-1.28,2.56,2.56,0,0,1,1.48.5l-.32.5a2.05,2.05,0,0,0-1.18-.44c-.5,0-.81.29-.81.66v0c0,.4.41.59,1,.86s1.31.67,1.31,1.38v0a1.38,1.38,0,0,1-1.52,1.35A2.62,2.62,0,0,1,268.37,86.28Z"/><path class="cls-14" d="M272.86,85.77v-3h-.57v-.58h.57V80.8h.65v1.37h1.22v.58h-1.22v2.92a.6.6,0,0,0,.67.68,1.39,1.39,0,0,0,.55-.13v.56a1.59,1.59,0,0,1-.7.16A1.05,1.05,0,0,1,272.86,85.77Z"/><path class="cls-14" d="M277.87,80.44h.72v.77h-.72Zm0,1.73h.65v4.69h-.65Z"/><path class="cls-14" d="M279.86,82.17h.65v.77a1.54,1.54,0,0,1,2.92.86v3.07h-.65V84c0-.84-.4-1.31-1.08-1.31A1.22,1.22,0,0,0,280.51,84v2.85h-.65Z"/><path class="cls-14" d="M284.8,82.74h-.58v-.57h.58v-.43a1.54,1.54,0,0,1,.36-1.09,1.24,1.24,0,0,1,.91-.33,2.06,2.06,0,0,1,.62.09V81a1.88,1.88,0,0,0-.53-.09c-.47,0-.71.29-.71.88v.4h1.22v.57h-1.21v4.11h-.66Z"/><path class="cls-14" d="M287.41,85.25V82.17h.65v2.89c0,.84.4,1.31,1.08,1.31A1.21,1.21,0,0,0,290.33,85V82.17H291v4.69h-.65v-.77a1.52,1.52,0,0,1-1.39.85A1.5,1.5,0,0,1,287.41,85.25Z"/><path class="cls-14" d="M291.85,86.28l.34-.48a2.14,2.14,0,0,0,1.37.57c.51,0,.87-.29.87-.73h0c0-.41-.39-.63-1-.89s-1.34-.62-1.34-1.35v0a1.32,1.32,0,0,1,1.46-1.28,2.56,2.56,0,0,1,1.48.5l-.32.5a2.05,2.05,0,0,0-1.18-.44c-.5,0-.81.29-.81.66v0c0,.4.41.59,1,.86s1.31.67,1.31,1.38v0a1.38,1.38,0,0,1-1.52,1.35A2.62,2.62,0,0,1,291.85,86.28Z"/><path class="cls-14" d="M296,80.44h.72v.77H296Zm0,1.73h.65v4.69h-.65Z"/><path class="cls-14" d="M297.78,84.55v-.06a2.11,2.11,0,1,1,4.17,0v.05A2.22,2.22,0,0,1,299.86,87,2.2,2.2,0,0,1,297.78,84.55Zm3.51,0v0c0-1.05-.63-1.84-1.43-1.84s-1.41.78-1.41,1.83v0c0,1.05.62,1.84,1.42,1.84S301.29,85.58,301.29,84.54Z"/><path class="cls-14" d="M303,82.17h.65v.77a1.54,1.54,0,0,1,2.92.86v3.07h-.65V84c0-.84-.4-1.31-1.08-1.31A1.22,1.22,0,0,0,303.64,84v2.85H303Z"/><path class="cls-14" d="M130.55,91.24h.72V92h-.72Zm0,1.73h.65v4.69h-.65Z"/><path class="cls-14" d="M132.13,97.08l.34-.48a2.14,2.14,0,0,0,1.37.57c.51,0,.87-.29.87-.73h0c0-.41-.39-.63-1-.89s-1.34-.62-1.34-1.35v0a1.32,1.32,0,0,1,1.46-1.28,2.56,2.56,0,0,1,1.48.5l-.31.5a2.05,2.05,0,0,0-1.18-.44c-.5,0-.81.29-.81.66v0c0,.4.41.59,1,.86s1.31.67,1.31,1.38v0a1.38,1.38,0,0,1-1.52,1.35A2.62,2.62,0,0,1,132.13,97.08Z"/><path class="cls-14" d="M138.69,96.57v-3h-.57V93h.57V91.6h.65V93h1.22v.58h-1.22v2.92a.6.6,0,0,0,.68.68,1.39,1.39,0,0,0,.55-.13v.56a1.59,1.59,0,0,1-.7.16A1.05,1.05,0,0,1,138.69,96.57Z"/><path class="cls-14" d="M141.16,95.35v-.06a2.11,2.11,0,1,1,4.17,0v.05a2.22,2.22,0,0,1-2.09,2.42A2.2,2.2,0,0,1,141.16,95.35Zm3.51,0v0c0-1.05-.63-1.84-1.43-1.84s-1.41.78-1.41,1.83v0c0,1.05.62,1.84,1.42,1.84S144.67,96.38,144.67,95.34Z"/><path class="cls-14" d="M146.4,91.16h.65v6.5h-.65Z"/><path class="cls-14" d="M148.14,95.35v0c0-1.43.84-2.43,1.94-2.43s1.88,1,1.88,2.42c0,.06,0,.19,0,.27H148.8a1.53,1.53,0,0,0,1.45,1.61,1.65,1.65,0,0,0,1.22-.54l.37.41a2.12,2.12,0,0,1-1.61.7A2.17,2.17,0,0,1,148.14,95.35Zm3.17-.29c0-.89-.47-1.62-1.23-1.62s-1.22.64-1.28,1.62Z"/><path class="cls-14" d="M153,93h.65v1a1.66,1.66,0,0,1,1.61-1.1v.7h0c-.87,0-1.58.61-1.58,1.82v2.23H153Z"/><path class="cls-14" d="M155.77,96.3v0c0-1,.69-1.51,1.73-1.51a3.86,3.86,0,0,1,1.21.19v-.28a1.07,1.07,0,0,0-1.2-1.16,2.56,2.56,0,0,0-1.2.31l-.21-.53a3.23,3.23,0,0,1,1.48-.38,1.79,1.79,0,0,1,1.31.47,1.74,1.74,0,0,1,.45,1.27v3h-.64V97a1.62,1.62,0,0,1-1.43.78A1.43,1.43,0,0,1,155.77,96.3Zm2.94-.27v-.59a3.31,3.31,0,0,0-1.13-.19c-.75,0-1.16.39-1.16,1v0a.94.94,0,0,0,1,1A1.22,1.22,0,0,0,158.72,96Z"/><path class="cls-14" d="M160.69,96.57v-3h-.57V93h.57V91.6h.65V93h1.22v.58h-1.22v2.92a.6.6,0,0,0,.68.68,1.39,1.39,0,0,0,.55-.13v.56a1.59,1.59,0,0,1-.7.16A1.05,1.05,0,0,1,160.69,96.57Z"/><path class="cls-14" d="M163.15,95.35v0c0-1.43.84-2.43,1.94-2.43s1.88,1,1.88,2.42c0,.06,0,.19,0,.27h-3.15a1.53,1.53,0,0,0,1.45,1.61,1.65,1.65,0,0,0,1.22-.54l.37.41a2.12,2.12,0,0,1-1.61.7A2.17,2.17,0,0,1,163.15,95.35Zm3.17-.29c0-.89-.47-1.62-1.23-1.62s-1.22.64-1.28,1.62Z"/><path class="cls-14" d="M167.78,95.36v-.09c0-1.56.92-2.39,1.87-2.39a1.74,1.74,0,0,1,1.52,1V91.16h.65v6.5h-.65v-.9a1.75,1.75,0,0,1-1.52,1C168.7,97.75,167.78,96.93,167.78,95.36Zm3.42,0v-.08c0-1.11-.68-1.81-1.41-1.81s-1.34.66-1.34,1.81v.07c0,1.14.61,1.82,1.34,1.82S171.2,96.46,171.2,95.35Z"/><path class="cls-14" d="M172.85,98.44c.44-.16.61-.41.58-.78h-.33v-.93h.81v.79a1.1,1.1,0,0,1-1,1.22Z"/><path class="cls-14" d="M177.46,96.57v-3h-.57V93h.57V91.6h.65V93h1.22v.58h-1.22v2.92a.6.6,0,0,0,.68.68,1.39,1.39,0,0,0,.55-.13v.56a1.59,1.59,0,0,1-.7.16A1.05,1.05,0,0,1,177.46,96.57Z"/><path class="cls-14" d="M180.26,91.16h.65v2.57a1.54,1.54,0,0,1,2.92.86v3.07h-.65V94.77c0-.84-.4-1.31-1.08-1.31a1.22,1.22,0,0,0-1.19,1.34v2.85h-.65Z"/><path class="cls-14" d="M184.83,95.35v0c0-1.43.84-2.43,1.94-2.43s1.88,1,1.88,2.42c0,.06,0,.19,0,.27h-3.15a1.53,1.53,0,0,0,1.45,1.61,1.65,1.65,0,0,0,1.22-.54l.37.41a2.12,2.12,0,0,1-1.61.7A2.17,2.17,0,0,1,184.83,95.35Zm3.17-.29c0-.89-.47-1.62-1.23-1.62s-1.22.64-1.28,1.62Z"/><path class="cls-14" d="M191.34,97.08l.34-.48a2.14,2.14,0,0,0,1.37.57c.51,0,.87-.29.87-.73h0c0-.41-.39-.63-1-.89s-1.34-.62-1.34-1.35v0A1.32,1.32,0,0,1,193,92.89a2.56,2.56,0,0,1,1.48.5l-.31.5a2.05,2.05,0,0,0-1.18-.44c-.5,0-.81.29-.81.66v0c0,.4.41.59,1,.86s1.31.67,1.31,1.38v0A1.38,1.38,0,0,1,193,97.74,2.62,2.62,0,0,1,191.34,97.08Z"/><path class="cls-14" d="M195.47,96V93h.65v2.89c0,.84.4,1.31,1.08,1.31a1.21,1.21,0,0,0,1.19-1.33V93H199v4.69h-.65v-.77a1.54,1.54,0,0,1-2.92-.85Z"/><path class="cls-14" d="M201,96.78v.87h-.65v-6.5H201v2.71a1.75,1.75,0,0,1,1.52-1c1,0,1.87.83,1.87,2.39v.09c0,1.56-.92,2.39-1.87,2.39A1.74,1.74,0,0,1,201,96.78Zm2.73-1.43v-.07c0-1.14-.61-1.82-1.33-1.82a1.62,1.62,0,0,0-1.42,1.81v.09a1.61,1.61,0,0,0,1.42,1.8C203.1,97.16,203.7,96.5,203.7,95.35Z"/><path class="cls-14" d="M205,97.08l.34-.48a2.14,2.14,0,0,0,1.37.57c.51,0,.87-.29.87-.73h0c0-.41-.39-.63-1-.89s-1.34-.62-1.34-1.35v0a1.32,1.32,0,0,1,1.46-1.28,2.56,2.56,0,0,1,1.48.5l-.31.5a2.05,2.05,0,0,0-1.18-.44c-.5,0-.81.29-.81.66v0c0,.4.41.59,1,.86s1.31.67,1.31,1.38v0a1.38,1.38,0,0,1-1.52,1.35A2.62,2.62,0,0,1,205,97.08Z"/><path class="cls-14" d="M208.94,95.35v0c0-1.43.84-2.43,1.94-2.43s1.88,1,1.88,2.42c0,.06,0,.19,0,.27H209.6A1.53,1.53,0,0,0,211,97.18a1.65,1.65,0,0,0,1.22-.54l.37.41a2.12,2.12,0,0,1-1.61.7A2.17,2.17,0,0,1,208.94,95.35Zm3.17-.29c0-.89-.47-1.62-1.23-1.62s-1.22.64-1.28,1.62Z"/><path class="cls-14" d="M217,96.76a1.75,1.75,0,0,1-1.52,1c-1,0-1.87-.82-1.87-2.39v-.09c0-1.56.92-2.39,1.87-2.39a1.74,1.74,0,0,1,1.52,1V93h.65v6H217Zm0-1.4v-.08c0-1.11-.68-1.81-1.41-1.81s-1.34.66-1.34,1.81v.07c0,1.14.61,1.82,1.34,1.82S217,96.46,217,95.35Z"/><path class="cls-14" d="M218.85,96V93h.65v2.89c0,.84.4,1.31,1.08,1.31a1.21,1.21,0,0,0,1.19-1.33V93h.65v4.69h-.65v-.77a1.54,1.54,0,0,1-2.92-.85Z"/><path class="cls-14" d="M223.48,95.35v0c0-1.43.84-2.43,1.94-2.43s1.88,1,1.88,2.42c0,.06,0,.19,0,.27h-3.15a1.53,1.53,0,0,0,1.45,1.61,1.65,1.65,0,0,0,1.21-.54l.37.41a2.12,2.12,0,0,1-1.61.7A2.17,2.17,0,0,1,223.48,95.35Zm3.17-.29c0-.89-.47-1.62-1.23-1.62s-1.22.64-1.28,1.62Z"/><path class="cls-14" d="M228.32,93H229v.77a1.54,1.54,0,0,1,2.92.86v3.07h-.65V94.77c0-.84-.4-1.31-1.08-1.31A1.22,1.22,0,0,0,229,94.8v2.85h-.65Z"/><path class="cls-14" d="M233.25,96.57v-3h-.57V93h.57V91.6h.65V93h1.22v.58H233.9v2.92a.6.6,0,0,0,.67.68,1.39,1.39,0,0,0,.55-.13v.56a1.59,1.59,0,0,1-.7.16A1.05,1.05,0,0,1,233.25,96.57Z"/><path class="cls-14" d="M238.26,91.24H239V92h-.72Zm0,1.73h.65v4.69h-.65Z"/><path class="cls-14" d="M240.25,93h.65v.77a1.54,1.54,0,0,1,2.92.86v3.07h-.65V94.77c0-.84-.4-1.31-1.08-1.31a1.22,1.22,0,0,0-1.19,1.34v2.85h-.65Z"/><path class="cls-14" d="M245.19,93.54h-.58V93h.58v-.43a1.54,1.54,0,0,1,.36-1.09,1.24,1.24,0,0,1,.91-.33,2.06,2.06,0,0,1,.62.09v.58a1.88,1.88,0,0,0-.53-.09c-.47,0-.71.29-.71.88V93h1.22v.57h-1.21v4.11h-.66Z"/><path class="cls-14" d="M247.8,96V93h.65v2.89c0,.84.4,1.31,1.08,1.31a1.21,1.21,0,0,0,1.19-1.33V93h.65v4.69h-.65v-.77a1.52,1.52,0,0,1-1.39.85A1.5,1.5,0,0,1,247.8,96Z"/><path class="cls-14" d="M252.24,97.08l.34-.48a2.14,2.14,0,0,0,1.37.57c.51,0,.87-.29.87-.73h0c0-.41-.39-.63-1-.89s-1.34-.62-1.34-1.35v0a1.32,1.32,0,0,1,1.46-1.28,2.56,2.56,0,0,1,1.48.5l-.32.5a2.05,2.05,0,0,0-1.18-.44c-.5,0-.81.29-.81.66v0c0,.4.41.59,1,.86s1.31.67,1.31,1.38v0a1.38,1.38,0,0,1-1.52,1.35A2.62,2.62,0,0,1,252.24,97.08Z"/><path class="cls-14" d="M256.43,91.24h.72V92h-.72Zm0,1.73h.65v4.69h-.65Z"/><path class="cls-14" d="M258.17,95.35v-.06a2.11,2.11,0,1,1,4.17,0v.05a2.22,2.22,0,0,1-2.09,2.42A2.2,2.2,0,0,1,258.17,95.35Zm3.51,0v0c0-1.05-.63-1.84-1.43-1.84s-1.41.78-1.41,1.83v0c0,1.05.62,1.84,1.42,1.84S261.68,96.38,261.68,95.34Z"/><path class="cls-14" d="M263.38,93H264v.77a1.54,1.54,0,0,1,2.92.86v3.07h-.65V94.77c0-.84-.4-1.31-1.08-1.31A1.22,1.22,0,0,0,264,94.8v2.85h-.65Z"/><path class="cls-14" d="M267.77,97.08l.34-.48a2.14,2.14,0,0,0,1.37.57c.51,0,.87-.29.87-.73h0c0-.41-.39-.63-1-.89S268,94.92,268,94.19v0a1.32,1.32,0,0,1,1.46-1.28,2.56,2.56,0,0,1,1.48.5l-.32.5a2.05,2.05,0,0,0-1.18-.44c-.5,0-.81.29-.81.66v0c0,.4.41.59,1,.86s1.31.67,1.31,1.38v0a1.38,1.38,0,0,1-1.52,1.35A2.62,2.62,0,0,1,267.77,97.08Z"/><path class="cls-14" d="M274.13,93h.65v.75a1.47,1.47,0,0,1,1.31-.84,1.35,1.35,0,0,1,1.3.85,1.63,1.63,0,0,1,1.44-.85c.91,0,1.5.63,1.5,1.72v3.06h-.65V94.77c0-.86-.38-1.31-1-1.31s-1.11.49-1.11,1.33v2.86h-.65v-2.9c0-.84-.38-1.3-1-1.3a1.2,1.2,0,0,0-1.11,1.34v2.85h-.65Z"/><path class="cls-14" d="M281.27,96.3v0c0-1,.69-1.51,1.73-1.51a3.85,3.85,0,0,1,1.21.19v-.28A1.07,1.07,0,0,0,283,93.5a2.56,2.56,0,0,0-1.2.31l-.21-.53a3.23,3.23,0,0,1,1.48-.38,1.79,1.79,0,0,1,1.31.47,1.74,1.74,0,0,1,.45,1.27v3h-.64V97a1.62,1.62,0,0,1-1.43.78A1.43,1.43,0,0,1,281.27,96.3Zm2.94-.27v-.59a3.31,3.31,0,0,0-1.13-.19c-.75,0-1.16.39-1.16,1v0a.94.94,0,0,0,1,1A1.22,1.22,0,0,0,284.21,96Z"/><path class="cls-14" d="M288.84,93h.69l-1.67,4.77c-.33,1-.74,1.31-1.37,1.31a1.77,1.77,0,0,1-.85-.22l.2-.54a1.25,1.25,0,0,0,.61.17c.35,0,.58-.2.81-.8L285.48,93h.7l1.4,3.86Z"/><path class="cls-14" d="M293.22,96.78v.87h-.65v-6.5h.65v2.71a1.75,1.75,0,0,1,1.52-1c1,0,1.87.83,1.87,2.39v.09c0,1.56-.92,2.39-1.87,2.39A1.74,1.74,0,0,1,293.22,96.78Zm2.73-1.43v-.07c0-1.14-.61-1.82-1.33-1.82a1.62,1.62,0,0,0-1.42,1.81v.09a1.61,1.61,0,0,0,1.42,1.8C295.35,97.16,295.94,96.5,295.94,95.35Z"/><path class="cls-14" d="M297.46,95.35v0c0-1.43.84-2.43,1.94-2.43s1.88,1,1.88,2.42c0,.06,0,.19,0,.27h-3.15a1.53,1.53,0,0,0,1.45,1.61,1.65,1.65,0,0,0,1.22-.54l.37.41a2.12,2.12,0,0,1-1.61.7A2.17,2.17,0,0,1,297.46,95.35Zm3.17-.29c0-.89-.47-1.62-1.23-1.62s-1.21.64-1.28,1.62Z"/><path class="cls-14" d="M154.48,107.1v0c0-1,.69-1.51,1.73-1.51a3.86,3.86,0,0,1,1.21.19v-.28a1.07,1.07,0,0,0-1.2-1.16,2.56,2.56,0,0,0-1.2.31l-.21-.53a3.23,3.23,0,0,1,1.48-.38,1.79,1.79,0,0,1,1.31.47,1.74,1.74,0,0,1,.45,1.27v3h-.64v-.68a1.62,1.62,0,0,1-1.43.78A1.43,1.43,0,0,1,154.48,107.1Zm2.94-.27v-.59a3.31,3.31,0,0,0-1.13-.19c-.75,0-1.16.39-1.16,1v0a.94.94,0,0,0,1,1A1.22,1.22,0,0,0,157.42,106.83Z"/><path class="cls-14" d="M159.07,106.16v-.09c0-1.56.92-2.39,1.87-2.39a1.74,1.74,0,0,1,1.52,1V102h.65v6.5h-.65v-.9a1.75,1.75,0,0,1-1.52,1C160,108.55,159.07,107.73,159.07,106.16Zm3.42,0v-.08c0-1.11-.68-1.81-1.41-1.81s-1.34.66-1.34,1.81v.07c0,1.14.61,1.82,1.34,1.82S162.49,107.26,162.49,106.15Z"/><path class="cls-14" d="M164.39,103.77H165v.75a1.47,1.47,0,0,1,1.31-.84,1.36,1.36,0,0,1,1.3.85,1.63,1.63,0,0,1,1.44-.85c.91,0,1.49.63,1.49,1.72v3.06h-.65v-2.89c0-.86-.38-1.31-1-1.31s-1.11.49-1.11,1.33v2.86h-.65v-2.9c0-.84-.38-1.3-1-1.3A1.2,1.2,0,0,0,165,105.6v2.85h-.65Z"/><path class="cls-14" d="M171.83,102h.72v.77h-.72Zm0,1.73h.65v4.69h-.65Z"/><path class="cls-14" d="M173.82,103.77h.65v.77a1.54,1.54,0,0,1,2.92.86v3.07h-.65v-2.89c0-.84-.4-1.31-1.08-1.31a1.22,1.22,0,0,0-1.19,1.34v2.85h-.65Z"/><path class="cls-14" d="M178.61,102h.72v.77h-.72Zm0,1.73h.65v4.69h-.65Z"/><path class="cls-14" d="M180.19,107.88l.34-.48a2.14,2.14,0,0,0,1.37.57c.51,0,.87-.29.87-.73h0c0-.41-.39-.63-1-.89s-1.34-.62-1.34-1.35v0a1.32,1.32,0,0,1,1.46-1.28,2.56,2.56,0,0,1,1.48.5l-.31.5a2.05,2.05,0,0,0-1.18-.44c-.5,0-.81.29-.81.66v0c0,.4.41.59,1,.86s1.31.67,1.31,1.38v0a1.38,1.38,0,0,1-1.52,1.35A2.62,2.62,0,0,1,180.19,107.88Z"/><path class="cls-14" d="M184.68,107.37v-3h-.57v-.58h.57V102.4h.65v1.37h1.22v.58h-1.22v2.92a.6.6,0,0,0,.68.68,1.39,1.39,0,0,0,.55-.13v.56a1.59,1.59,0,0,1-.7.16A1,1,0,0,1,184.68,107.37Z"/><path class="cls-14" d="M187.15,106.15v0c0-1.43.84-2.43,1.94-2.43s1.88,1,1.88,2.42c0,.06,0,.19,0,.27H187.8a1.53,1.53,0,0,0,1.45,1.61,1.65,1.65,0,0,0,1.22-.54l.37.41a2.12,2.12,0,0,1-1.61.7A2.17,2.17,0,0,1,187.15,106.15Zm3.17-.29c0-.89-.47-1.62-1.23-1.62s-1.22.64-1.28,1.62Z"/><path class="cls-14" d="M192,103.77h.65v1a1.66,1.66,0,0,1,1.61-1.1v.7h0c-.87,0-1.58.61-1.58,1.82v2.23H192Z"/><path class="cls-14" d="M194.76,106.15v0c0-1.43.84-2.43,1.94-2.43s1.88,1,1.88,2.42c0,.06,0,.19,0,.27h-3.15a1.53,1.53,0,0,0,1.45,1.61,1.65,1.65,0,0,0,1.22-.54l.37.41a2.12,2.12,0,0,1-1.61.7A2.17,2.17,0,0,1,194.76,106.15Zm3.17-.29c0-.89-.47-1.62-1.23-1.62s-1.22.64-1.28,1.62Z"/><path class="cls-14" d="M199.39,106.16v-.09c0-1.56.92-2.39,1.87-2.39a1.74,1.74,0,0,1,1.52,1V102h.65v6.5h-.65v-.9a1.75,1.75,0,0,1-1.52,1C200.3,108.55,199.39,107.73,199.39,106.16Zm3.42,0v-.08c0-1.11-.68-1.81-1.41-1.81s-1.34.66-1.34,1.81v.07c0,1.14.61,1.82,1.34,1.82S202.81,107.26,202.81,106.15Z"/><path class="cls-14" d="M206.59,106.15v-.06a2.11,2.11,0,1,1,4.17,0v.05a2.22,2.22,0,0,1-2.09,2.42A2.2,2.2,0,0,1,206.59,106.15Zm3.51,0v0c0-1.05-.63-1.84-1.43-1.84s-1.41.78-1.41,1.83v0c0,1.05.62,1.84,1.42,1.84S210.1,107.18,210.1,106.14Z"/><path class="cls-14" d="M211.22,103.77h.7l1.31,3.85,1.33-3.85h.68l-1.72,4.73h-.58Z"/><path class="cls-14" d="M215.72,106.15v0c0-1.43.84-2.43,1.94-2.43s1.88,1,1.88,2.42c0,.06,0,.19,0,.27h-3.15a1.53,1.53,0,0,0,1.45,1.61,1.65,1.65,0,0,0,1.22-.54l.37.41a2.12,2.12,0,0,1-1.61.7A2.17,2.17,0,0,1,215.72,106.15Zm3.17-.29c0-.89-.47-1.62-1.23-1.62s-1.22.64-1.28,1.62Z"/><path class="cls-14" d="M220.56,103.77h.65v1a1.66,1.66,0,0,1,1.61-1.1v.7h0c-.87,0-1.58.61-1.58,1.82v2.23h-.65Z"/><path class="cls-14" d="M225.46,107.69l.43-.47a1.88,1.88,0,0,0,1.49.71,1.22,1.22,0,0,0,1.28-1.26v0c0-.81-.69-1.22-1.67-1.22h-.23l-.1-.42,1.75-2.22h-2.67v-.62h3.54v.5l-1.76,2.22c1,.11,1.84.63,1.84,1.74v0a1.88,1.88,0,0,1-2,1.91A2.45,2.45,0,0,1,225.46,107.69Z"/><path class="cls-14" d="M230.29,105.35v-.07c0-1.89.89-3.22,2.29-3.22s2.28,1.31,2.28,3.21v.07c0,1.89-.89,3.22-2.29,3.22S230.29,107.24,230.29,105.35Zm3.87,0v-.07c0-1.51-.64-2.61-1.59-2.61s-1.58,1.08-1.58,2.59v.07c0,1.51.63,2.61,1.59,2.61S234.16,106.86,234.16,105.35Z"/><path class="cls-14" d="M238.29,107.37v-3h-.57v-.58h.57V102.4h.65v1.37h1.22v.58h-1.22v2.92a.6.6,0,0,0,.67.68,1.4,1.4,0,0,0,.55-.13v.56a1.59,1.59,0,0,1-.7.16A1,1,0,0,1,238.29,107.37Z"/><path class="cls-14" d="M240.76,106.15v-.06a2.11,2.11,0,1,1,4.17,0v.05a2.22,2.22,0,0,1-2.09,2.42A2.2,2.2,0,0,1,240.76,106.15Zm3.51,0v0c0-1.05-.63-1.84-1.43-1.84s-1.41.78-1.41,1.83v0c0,1.05.62,1.84,1.42,1.84S244.27,107.18,244.27,106.14Z"/><path class="cls-14" d="M248.62,108a3.2,3.2,0,0,1-.73-2.46v-.07c0-2.09.89-3.43,2.33-3.43a2.34,2.34,0,0,1,1.52.57l-.36.54a1.79,1.79,0,0,0-1.19-.49c-1,0-1.62,1.15-1.63,2.69a1.74,1.74,0,0,1,1.53-.86,1.84,1.84,0,0,1,1.9,1.93v0a2,2,0,0,1-2,2.1A1.91,1.91,0,0,1,248.62,108Zm2.69-1.53v0A1.27,1.27,0,0,0,250,105.1a1.32,1.32,0,0,0-1.34,1.38v0A1.35,1.35,0,0,0,250,108,1.34,1.34,0,0,0,251.32,106.49Z"/><path class="cls-14" d="M253,105.35v-.07c0-1.89.89-3.22,2.29-3.22s2.28,1.31,2.28,3.21v.07c0,1.89-.89,3.22-2.29,3.22S253,107.24,253,105.35Zm3.87,0v-.07c0-1.51-.64-2.61-1.59-2.61s-1.58,1.08-1.58,2.59v.07c0,1.51.63,2.61,1.59,2.61S256.82,106.86,256.82,105.35Z"/><path class="cls-14" d="M260.75,103.77h.65v.75a1.47,1.47,0,0,1,1.31-.84,1.35,1.35,0,0,1,1.3.85,1.63,1.63,0,0,1,1.44-.85c.91,0,1.5.63,1.5,1.72v3.06h-.65v-2.89c0-.86-.38-1.31-1-1.31s-1.11.49-1.11,1.33v2.86h-.65v-2.9c0-.84-.38-1.3-1-1.3a1.2,1.2,0,0,0-1.11,1.34v2.85h-.65Z"/><path class="cls-14" d="M268.18,102h.72v.77h-.72Zm0,1.73h.65v4.69h-.65Z"/><path class="cls-14" d="M270.17,103.77h.65v.77a1.54,1.54,0,0,1,2.92.86v3.07h-.65v-2.89c0-.84-.4-1.31-1.08-1.31a1.22,1.22,0,0,0-1.19,1.34v2.85h-.65Z"/><path class="cls-14" d="M274.26,109.28a4.08,4.08,0,0,0,0-6.82l.26-.42a4.4,4.4,0,0,1,0,7.67Z"/><path class="cls-14" d="M337.94,91.73l2-2.27c.76-.81,1-1.27,1-1.85a1.08,1.08,0,0,0-1.13-1.12,1.7,1.7,0,0,0-1.41.9L338,87a2.2,2.2,0,0,1,1.94-1.13,1.67,1.67,0,0,1,1.77,1.68v0c0,.81-.39,1.34-1.27,2.27l-1.58,1.78h2.89v.63h-3.83Z"/><path class="cls-14" d="M342.64,91.57l.4-.5a2.15,2.15,0,0,0,1.45.67,1.34,1.34,0,0,0,1.37-1.41v0A1.27,1.27,0,0,0,344.49,89a2.25,2.25,0,0,0-1.1.29L343,89l.16-3h3.15v.63h-2.57l-.13,2a2.42,2.42,0,0,1,1-.23,1.82,1.82,0,0,1,1.95,1.9v0a2,2,0,0,1-2.06,2.06A2.69,2.69,0,0,1,342.64,91.57Z"/><path class="cls-14" d="M347.48,89.15v-.07c0-1.89.89-3.22,2.29-3.22S352,87.17,352,89.06v.07c0,1.89-.89,3.22-2.29,3.22S347.48,91,347.48,89.15Zm3.87,0v-.07c0-1.51-.64-2.61-1.59-2.61s-1.58,1.08-1.58,2.59v.07c0,1.51.63,2.61,1.59,2.61S351.35,90.66,351.35,89.15Z"/><path class="cls-14" d="M355.53,87.57h.65v.75a1.47,1.47,0,0,1,1.31-.84,1.35,1.35,0,0,1,1.3.85,1.63,1.63,0,0,1,1.44-.85c.91,0,1.5.63,1.5,1.72v3.06h-.65V89.37c0-.86-.38-1.31-1-1.31s-1.11.49-1.11,1.33v2.86h-.65v-2.9c0-.84-.38-1.3-1-1.3a1.2,1.2,0,0,0-1.11,1.34v2.85h-.65Z"/><path class="cls-14" d="M363,93.12l.26-.52a2.79,2.79,0,0,0,1.51.46,1.28,1.28,0,0,0,1.43-1.4V91a1.78,1.78,0,0,1-1.55,1,2,2,0,0,1-1.85-2.21v0a2,2,0,0,1,1.86-2.21,1.78,1.78,0,0,1,1.54.93v-.84h.65v4.07a2,2,0,0,1-.51,1.45,2.12,2.12,0,0,1-1.56.54A3.32,3.32,0,0,1,363,93.12Zm3.22-3.4v0a1.5,1.5,0,0,0-1.41-1.63c-.74,0-1.33.6-1.33,1.63v0c0,1,.6,1.64,1.33,1.64A1.51,1.51,0,0,0,366.18,89.72Z"/><path class="cls-14" d="M370.86,85.15h.58l-3.5,8.17h-.59Z"/><path class="cls-14" d="M371.69,87.57h.65v.75a1.47,1.47,0,0,1,1.31-.84,1.35,1.35,0,0,1,1.3.85,1.63,1.63,0,0,1,1.44-.85c.91,0,1.5.63,1.5,1.72v3.06h-.65V89.37c0-.86-.38-1.31-1-1.31s-1.11.49-1.11,1.33v2.86h-.65v-2.9c0-.84-.38-1.3-1-1.3a1.2,1.2,0,0,0-1.11,1.34v2.85h-.65Z"/><path class="cls-14" d="M378.73,89l1.19-1.32c.44-.47.61-.74.61-1.08a.63.63,0,0,0-.66-.66,1,1,0,0,0-.82.52l-.27-.23a1.28,1.28,0,0,1,1.13-.66,1,1,0,0,1,1,1v0c0,.47-.23.78-.74,1.32l-.92,1H381v.37h-2.23Z"/><path class="cls-14" d="M384.09,89.67a4.22,4.22,0,0,1,2.25-3.83l.26.42a4.08,4.08,0,0,0,0,6.82l-.26.42A4.22,4.22,0,0,1,384.09,89.67Z"/><path class="cls-14" d="M388.2,91.82a3.2,3.2,0,0,1-.73-2.46v-.07c0-2.09.89-3.43,2.33-3.43a2.34,2.34,0,0,1,1.52.57L391,87a1.79,1.79,0,0,0-1.19-.49c-1,0-1.62,1.15-1.63,2.69a1.74,1.74,0,0,1,1.53-.86,1.84,1.84,0,0,1,1.9,1.93v0a2,2,0,0,1-2,2.1A1.91,1.91,0,0,1,388.2,91.82Zm2.69-1.53v0a1.27,1.27,0,0,0-1.31-1.37,1.32,1.32,0,0,0-1.34,1.38v0a1.35,1.35,0,0,0,1.35,1.46A1.34,1.34,0,0,0,390.89,90.29Z"/><path class="cls-14" d="M392.53,89.15v-.07c0-1.89.89-3.22,2.29-3.22s2.28,1.31,2.28,3.21v.07c0,1.89-.89,3.22-2.29,3.22S392.53,91,392.53,89.15Zm3.87,0v-.07c0-1.51-.64-2.61-1.59-2.61s-1.58,1.08-1.58,2.59v.07c0,1.51.63,2.61,1.59,2.61S396.4,90.67,396.4,89.15Z"/><path class="cls-14" d="M400.57,87.57h.65v.75a1.47,1.47,0,0,1,1.31-.84,1.35,1.35,0,0,1,1.3.85,1.63,1.63,0,0,1,1.44-.85c.91,0,1.5.63,1.5,1.72v3.06h-.65V89.37c0-.86-.38-1.31-1-1.31S404,88.55,404,89.4v2.86h-.65v-2.9c0-.84-.38-1.3-1-1.3a1.2,1.2,0,0,0-1.11,1.34v2.85h-.65Z"/><path class="cls-14" d="M408.07,85.84h.72v.77h-.72Zm0,1.73h.65v4.69h-.65Z"/><path class="cls-14" d="M410.14,87.57h.65v.77a1.54,1.54,0,0,1,2.92.86v3.07h-.65V89.37c0-.84-.4-1.31-1.08-1.31a1.22,1.22,0,0,0-1.19,1.34v2.85h-.65Z"/><path class="cls-14" d="M414.68,93.08a4.08,4.08,0,0,0,0-6.82l.26-.42a4.4,4.4,0,0,1,0,7.67Z"/><path class="cls-14" d="M13.13,127.78v-6.3h1.31v5.1H17v1.2Z"/><path class="cls-14" d="M21.35,127.19a2.24,2.24,0,0,1-3.25,0,2.49,2.49,0,0,1-.64-1.76v-.1a2.5,2.5,0,0,1,.65-1.77,2.25,2.25,0,0,1,3.25,0,2.5,2.5,0,0,1,.64,1.77v.1A2.5,2.5,0,0,1,21.35,127.19Zm-1.62-.41a.85.85,0,0,0,.73-.38,1.67,1.67,0,0,0,.27-1v-.06a1.65,1.65,0,0,0-.28-1,.89.89,0,0,0-1.47,0,1.67,1.67,0,0,0-.27,1v.06a1.64,1.64,0,0,0,.28,1A.87.87,0,0,0,19.74,126.78Z"/><path class="cls-14" d="M24,127.87a1.37,1.37,0,0,1-1.43-1.47v-.05A1.43,1.43,0,0,1,23,125.2a1.83,1.83,0,0,1,1.23-.39,2.74,2.74,0,0,1,1,.2v-.14a.8.8,0,0,0-.24-.63,1,1,0,0,0-.67-.22,2.93,2.93,0,0,0-1.11.27l-.35-1a3.64,3.64,0,0,1,1.65-.39,1.74,1.74,0,0,1,2,2v2.92H25.27v-.52A1.49,1.49,0,0,1,24,127.87Zm.42-.94a.88.88,0,0,0,.61-.2.68.68,0,0,0,.24-.54v-.41a1.65,1.65,0,0,0-.71-.15.83.83,0,0,0-.56.17.63.63,0,0,0-.2.5v0a.57.57,0,0,0,.17.44A.68.68,0,0,0,24.45,126.94Z"/><path class="cls-14" d="M29.17,127.87a1.64,1.64,0,0,1-1.31-.63,2.72,2.72,0,0,1-.53-1.8v-.14a2.72,2.72,0,0,1,.53-1.8,1.64,1.64,0,0,1,1.31-.63,1.61,1.61,0,0,1,1.3.71v-2.29h1.28v6.5H30.47v-.67A1.54,1.54,0,0,1,29.17,127.87Zm-.29-1.48a.8.8,0,0,0,.67.37.81.81,0,0,0,.67-.37,1.61,1.61,0,0,0,.27-1v-.09a1.61,1.61,0,0,0-.27-1,.81.81,0,0,0-.67-.37.8.8,0,0,0-.67.37,1.62,1.62,0,0,0-.27,1v.09A1.63,1.63,0,0,0,28.88,126.39Z"/><path class="cls-14" d="M32.8,122.45v-1.16h1.33v1.16Zm0,5.34V123H34.1v4.82Z"/><path class="cls-14" d="M35.18,127.78V123h1.28v.65a1.52,1.52,0,0,1,1.24-.74,1.31,1.31,0,0,1,1,.44,1.76,1.76,0,0,1,.38,1.19v3.29H37.85v-2.91q0-.85-.68-.85a.64.64,0,0,0-.51.22,1,1,0,0,0-.19.63v2.91Z"/><path class="cls-14" d="M42,129.16a4.27,4.27,0,0,1-1.84-.41l.4-1a2.77,2.77,0,0,0,1.37.35q1.19,0,1.19-1.14v-.31a1.67,1.67,0,0,1-1.35.76,1.64,1.64,0,0,1-1.28-.59,2.47,2.47,0,0,1-.52-1.68v0a2.44,2.44,0,0,1,.52-1.67,1.64,1.64,0,0,1,1.28-.59,1.69,1.69,0,0,1,1.34.71V123h1.28v3.94a2.33,2.33,0,0,1-.55,1.68A2.53,2.53,0,0,1,42,129.16Zm-.5-3.15a.87.87,0,0,0,1.35,0,1.3,1.3,0,0,0,.27-.85h0a1.29,1.29,0,0,0-.27-.85.87.87,0,0,0-1.35,0,1.3,1.3,0,0,0-.26.85h0A1.32,1.32,0,0,0,41.48,126Z"/><path class="cls-14" d="M49.07,127.87a1.64,1.64,0,0,1-1.31-.63,2.72,2.72,0,0,1-.53-1.8v-.14a2.72,2.72,0,0,1,.53-1.8,1.64,1.64,0,0,1,1.31-.63,1.61,1.61,0,0,1,1.3.71v-2.29h1.28v6.5H50.37v-.67A1.54,1.54,0,0,1,49.07,127.87Zm-.29-1.48a.8.8,0,0,0,.67.37.81.81,0,0,0,.67-.37,1.61,1.61,0,0,0,.27-1v-.09a1.61,1.61,0,0,0-.27-1,.81.81,0,0,0-.67-.37.8.8,0,0,0-.67.37,1.62,1.62,0,0,0-.27,1v.09A1.63,1.63,0,0,0,48.78,126.39Z"/><path class="cls-14" d="M56.38,127.19a2.24,2.24,0,0,1-3.25,0,2.49,2.49,0,0,1-.64-1.76v-.1a2.5,2.5,0,0,1,.65-1.77,2.25,2.25,0,0,1,3.25,0,2.5,2.5,0,0,1,.64,1.77v.1A2.5,2.5,0,0,1,56.38,127.19Zm-1.62-.41a.85.85,0,0,0,.73-.38,1.67,1.67,0,0,0,.27-1v-.06a1.65,1.65,0,0,0-.28-1,.89.89,0,0,0-1.47,0,1.67,1.67,0,0,0-.27,1v.06a1.64,1.64,0,0,0,.28,1A.87.87,0,0,0,54.77,126.78Z"/><path class="cls-14" d="M59.33,127.87a2.82,2.82,0,0,1-1.83-.67l.56-.9a2.19,2.19,0,0,0,1.29.54.61.61,0,0,0,.38-.1.33.33,0,0,0,.13-.27v0a.26.26,0,0,0,0-.08l0-.08-.05-.07-.09-.06-.1-.06-.12-.06L59.3,126l-.16-.07-.16-.07a3.16,3.16,0,0,1-.95-.58,1.16,1.16,0,0,1-.32-.87v0a1.34,1.34,0,0,1,.47-1.08,1.76,1.76,0,0,1,1.19-.4,2.71,2.71,0,0,1,1.59.52l-.51.92a2.13,2.13,0,0,0-1.1-.41.54.54,0,0,0-.35.1.3.3,0,0,0-.12.24v0a.34.34,0,0,0,.18.28,4.57,4.57,0,0,0,.58.3l.06,0,0,0a3.56,3.56,0,0,1,1,.61,1.11,1.11,0,0,1,.32.84v0a1.36,1.36,0,0,1-.47,1.11A1.86,1.86,0,0,1,59.33,127.87Z"/><path class="cls-14" d="M63.87,127.89a2.13,2.13,0,0,1-1.62-.68,2.49,2.49,0,0,1-.64-1.79v-.08a2.64,2.64,0,0,1,.6-1.77,1.9,1.9,0,0,1,1.51-.7,1.78,1.78,0,0,1,1.52.72,3,3,0,0,1,.53,1.85c0,.15,0,.29,0,.41H62.88a1.23,1.23,0,0,0,.36.72,1,1,0,0,0,.69.25,1.46,1.46,0,0,0,1-.48l.66.77A2.23,2.23,0,0,1,63.87,127.89Zm-1-2.89h1.67a1.56,1.56,0,0,0-.26-.79.67.67,0,0,0-.56-.29.69.69,0,0,0-.57.28A1.54,1.54,0,0,0,62.87,125Z"/><path class="cls-14" d="M13,136a4.22,4.22,0,0,1,2.25-3.83l.26.42a4.08,4.08,0,0,0,0,6.82l-.26.42A4.22,4.22,0,0,1,13,136Z"/><path class="cls-14" d="M16.27,137.22v0c0-1,.69-1.51,1.73-1.51a3.84,3.84,0,0,1,1.21.19v-.28a1.07,1.07,0,0,0-1.2-1.16,2.55,2.55,0,0,0-1.2.32l-.21-.53a3.22,3.22,0,0,1,1.48-.38,1.79,1.79,0,0,1,1.31.47,1.74,1.74,0,0,1,.45,1.27v3h-.64v-.68a1.62,1.62,0,0,1-1.43.78A1.43,1.43,0,0,1,16.27,137.22Zm2.94-.27v-.58a3.32,3.32,0,0,0-1.13-.19c-.75,0-1.16.39-1.16,1v0a.94.94,0,0,0,1,1A1.22,1.22,0,0,0,19.22,137Z"/><path class="cls-14" d="M20.87,136.29v-.09c0-1.56.92-2.39,1.87-2.39a1.74,1.74,0,0,1,1.52,1v-2.68h.65v6.5h-.65v-.9a1.75,1.75,0,0,1-1.52,1C21.79,138.67,20.87,137.85,20.87,136.29Zm3.42,0v-.08c0-1.11-.68-1.81-1.41-1.81s-1.34.66-1.34,1.81v.07c0,1.14.61,1.82,1.34,1.82S24.29,137.39,24.29,136.28Z"/><path class="cls-14" d="M26.24,133.89h.65v.75a1.47,1.47,0,0,1,1.31-.84,1.36,1.36,0,0,1,1.3.86,1.63,1.63,0,0,1,1.44-.86c.91,0,1.49.63,1.49,1.72v3.06h-.65v-2.89c0-.86-.38-1.31-1-1.31s-1.11.49-1.11,1.33v2.86H29v-2.9c0-.84-.38-1.3-1-1.3a1.2,1.2,0,0,0-1.11,1.34v2.85h-.65Z"/><path class="cls-14" d="M33.74,132.16h.72v.77h-.72Zm0,1.73h.65v4.69h-.65Z"/><path class="cls-14" d="M35.81,133.89h.65v.77a1.54,1.54,0,0,1,2.92.85v3.07h-.65v-2.89c0-.84-.4-1.31-1.08-1.31a1.22,1.22,0,0,0-1.19,1.34v2.85h-.65Z"/><path class="cls-14" d="M40.66,132.16h.72v.77h-.72Zm0,1.73h.65v4.69H40.7Z"/><path class="cls-14" d="M42.31,138l.34-.48a2.14,2.14,0,0,0,1.37.57c.51,0,.87-.29.87-.73h0c0-.41-.39-.63-1-.89s-1.34-.62-1.34-1.35v0A1.32,1.32,0,0,1,44,133.82a2.55,2.55,0,0,1,1.48.5l-.31.5a2,2,0,0,0-1.18-.44c-.5,0-.81.29-.81.66v0c0,.4.41.59,1,.86s1.31.67,1.31,1.38v0A1.38,1.38,0,0,1,44,138.66,2.62,2.62,0,0,1,42.31,138Z"/><path class="cls-14" d="M46.73,137.49v-3h-.57v-.58h.57v-1.37h.65v1.37H48.6v.58H47.38v2.92a.6.6,0,0,0,.68.67,1.38,1.38,0,0,0,.55-.13v.56a1.59,1.59,0,0,1-.7.16A1.05,1.05,0,0,1,46.73,137.49Z"/><path class="cls-14" d="M49.64,133.89h.65v1a1.66,1.66,0,0,1,1.61-1.1v.7h0c-.87,0-1.58.61-1.58,1.82v2.23h-.65Z"/><path class="cls-14" d="M52.31,137.22v0c0-1,.69-1.51,1.73-1.51a3.84,3.84,0,0,1,1.21.19v-.28a1.07,1.07,0,0,0-1.2-1.16,2.55,2.55,0,0,0-1.2.32l-.21-.53a3.22,3.22,0,0,1,1.48-.38,1.79,1.79,0,0,1,1.31.47,1.74,1.74,0,0,1,.45,1.27v3h-.64v-.68a1.62,1.62,0,0,1-1.43.78A1.43,1.43,0,0,1,52.31,137.22Zm2.94-.27v-.58a3.32,3.32,0,0,0-1.13-.19c-.75,0-1.16.39-1.16,1v0a.94.94,0,0,0,1,1A1.22,1.22,0,0,0,55.25,137Z"/><path class="cls-14" d="M57.3,137.49v-3h-.57v-.58h.57v-1.37H58v1.37h1.22v.58H58v2.92a.6.6,0,0,0,.68.67,1.39,1.39,0,0,0,.55-.13v.56a1.59,1.59,0,0,1-.7.16A1.05,1.05,0,0,1,57.3,137.49Z"/><path class="cls-14" d="M60.24,132.16H61v.77h-.72Zm0,1.73h.65v4.69h-.65Z"/><path class="cls-14" d="M62.06,136.28v-.06a2.11,2.11,0,1,1,4.17,0v.05a2.22,2.22,0,0,1-2.09,2.42A2.2,2.2,0,0,1,62.06,136.28Zm3.51,0v0c0-1.05-.63-1.84-1.43-1.84s-1.41.78-1.41,1.83v0c0,1.05.62,1.84,1.42,1.84S65.57,137.3,65.57,136.27Z"/><path class="cls-14" d="M67.3,133.89H68v.77a1.54,1.54,0,0,1,2.92.85v3.07h-.65v-2.89c0-.84-.4-1.31-1.08-1.31A1.22,1.22,0,0,0,68,135.73v2.85H67.3Z"/><path class="cls-14" d="M74.67,137.49v-3h-.57v-.58h.57v-1.37h.65v1.37h1.22v.58H75.32v2.92a.6.6,0,0,0,.68.67,1.38,1.38,0,0,0,.55-.13v.56a1.59,1.59,0,0,1-.7.16A1.05,1.05,0,0,1,74.67,137.49Z"/><path class="cls-14" d="M77.61,132.16h.72v.77h-.72Zm0,1.73h.65v4.69h-.65Z"/><path class="cls-14" d="M79.68,133.89h.65v.75a1.47,1.47,0,0,1,1.31-.84,1.36,1.36,0,0,1,1.3.86,1.63,1.63,0,0,1,1.44-.86c.91,0,1.49.63,1.49,1.72v3.06h-.65v-2.89c0-.86-.38-1.31-1-1.31s-1.11.49-1.11,1.33v2.86h-.65v-2.9c0-.84-.38-1.3-1-1.3a1.2,1.2,0,0,0-1.11,1.34v2.85h-.65Z"/><path class="cls-14" d="M86.9,136.28v0c0-1.43.84-2.43,1.94-2.43s1.88,1,1.88,2.42c0,.06,0,.19,0,.27H87.56A1.53,1.53,0,0,0,89,138.1a1.65,1.65,0,0,0,1.22-.54l.37.41a2.12,2.12,0,0,1-1.61.7A2.17,2.17,0,0,1,86.9,136.28Zm3.17-.29c0-.89-.47-1.62-1.23-1.62s-1.22.64-1.28,1.62Z"/><path class="cls-14" d="M91.3,139.4a4.08,4.08,0,0,0,0-6.82l.26-.42a4.4,4.4,0,0,1,0,7.67Z"/><path class="cls-14" d="M206.13,126.88h.64l3.29,5v-5h.67v6.3h-.57l-3.38-5.08v5.08h-.66Z"/><path class="cls-14" d="M211.9,130.88v-.06a2.11,2.11,0,1,1,4.17,0v.05a2.22,2.22,0,0,1-2.09,2.42A2.2,2.2,0,0,1,211.9,130.88Zm3.51,0v0c0-1.05-.63-1.84-1.43-1.84s-1.41.78-1.41,1.83v0c0,1.05.62,1.84,1.42,1.84S215.41,131.9,215.41,130.87Z"/><path class="cls-14" d="M217.14,128.49h.65v.77a1.54,1.54,0,0,1,2.92.85v3.07h-.65v-2.89c0-.84-.4-1.31-1.08-1.31a1.22,1.22,0,0,0-1.19,1.34v2.85h-.65Z"/><path class="cls-14" d="M221.72,130.88v0c0-1.43.84-2.43,1.94-2.43s1.88,1,1.88,2.42c0,.06,0,.19,0,.27h-3.15a1.53,1.53,0,0,0,1.45,1.61,1.65,1.65,0,0,0,1.22-.54l.37.41a2.12,2.12,0,0,1-1.61.7A2.17,2.17,0,0,1,221.72,130.88Zm3.17-.29c0-.89-.47-1.62-1.23-1.62s-1.22.64-1.28,1.62Z"/><path class="cls-14" d="M339,131.73h-2.89l-.13-.5,3.06-4.39h.59v4.32h.84v.57h-.84v1.46H339Zm0-.57V127.9l-2.25,3.26Z"/><path class="cls-14" d="M341.36,130.08V130c0-1.89.89-3.22,2.29-3.22s2.28,1.31,2.28,3.21v.07c0,1.89-.89,3.22-2.29,3.22S341.36,132,341.36,130.08Zm3.87,0V130c0-1.51-.64-2.61-1.59-2.61s-1.58,1.08-1.58,2.59v.07c0,1.51.63,2.61,1.59,2.61S345.23,131.59,345.23,130.08Z"/><path class="cls-14" d="M346.9,130.08V130c0-1.89.89-3.22,2.29-3.22s2.28,1.31,2.28,3.21v.07c0,1.89-.89,3.22-2.29,3.22S346.9,132,346.9,130.08Zm3.87,0V130c0-1.51-.64-2.61-1.59-2.61s-1.58,1.08-1.58,2.59v.07c0,1.51.63,2.61,1.59,2.61S350.77,131.59,350.77,130.08Z"/><path class="cls-14" d="M354.94,128.49h.65v.75a1.47,1.47,0,0,1,1.31-.84,1.35,1.35,0,0,1,1.3.86,1.63,1.63,0,0,1,1.44-.86c.91,0,1.5.63,1.5,1.72v3.06h-.65v-2.89c0-.86-.38-1.31-1-1.31s-1.11.49-1.11,1.33v2.86h-.65v-2.9c0-.84-.38-1.3-1-1.3a1.2,1.2,0,0,0-1.11,1.34v2.85h-.65Z"/><path class="cls-14" d="M362.38,134l.26-.52a2.79,2.79,0,0,0,1.51.46,1.28,1.28,0,0,0,1.43-1.4v-.68a1.79,1.79,0,0,1-1.55,1,2,2,0,0,1-1.84-2.21v0A2,2,0,0,1,364,128.4a1.78,1.78,0,0,1,1.54.93v-.84h.65v4.07a2,2,0,0,1-.51,1.45,2.13,2.13,0,0,1-1.56.54A3.32,3.32,0,0,1,362.38,134Zm3.22-3.4v0a1.5,1.5,0,0,0-1.41-1.63c-.74,0-1.33.6-1.33,1.63v0c0,1,.6,1.64,1.33,1.64A1.51,1.51,0,0,0,365.6,130.64Z"/><path class="cls-14" d="M370.27,126.08h.58l-3.5,8.17h-.59Z"/><path class="cls-14" d="M371.12,128.49h.65v.75a1.47,1.47,0,0,1,1.31-.84,1.35,1.35,0,0,1,1.3.86,1.63,1.63,0,0,1,1.44-.86c.91,0,1.5.63,1.5,1.72v3.06h-.65v-2.89c0-.86-.38-1.31-1-1.31s-1.11.49-1.11,1.33v2.86h-.65v-2.9c0-.84-.38-1.3-1-1.3a1.2,1.2,0,0,0-1.11,1.34v2.85h-.65Z"/><path class="cls-14" d="M378.14,129.88l1.19-1.32c.44-.47.61-.74.61-1.08a.63.63,0,0,0-.66-.66,1,1,0,0,0-.82.52l-.27-.23a1.28,1.28,0,0,1,1.13-.66,1,1,0,0,1,1,1v0c0,.47-.23.78-.74,1.32l-.92,1h1.68v.37h-2.23Z"/><path class="cls-14" d="M383.5,130.59a4.22,4.22,0,0,1,2.25-3.83l.26.42a4.08,4.08,0,0,0,0,6.82l-.26.42A4.22,4.22,0,0,1,383.5,130.59Z"/><path class="cls-14" d="M387.77,127.56l-1,.36-.12-.58,1.3-.5h.5v6.34h-.67Z"/><path class="cls-14" d="M389.62,132.66l2-2.27c.76-.81,1-1.27,1-1.85a1.08,1.08,0,0,0-1.13-1.13,1.7,1.7,0,0,0-1.41.9l-.47-.4a2.19,2.19,0,0,1,1.94-1.12,1.67,1.67,0,0,1,1.77,1.68v0c0,.81-.39,1.34-1.27,2.27l-1.58,1.78h2.89v.63h-3.83Z"/><path class="cls-14" d="M394.4,130.07V130c0-1.89.89-3.22,2.29-3.22S399,128.09,399,130v.07c0,1.89-.89,3.22-2.29,3.22S394.4,132,394.4,130.07Zm3.87,0V130c0-1.51-.64-2.61-1.59-2.61s-1.58,1.08-1.58,2.59v.07c0,1.51.63,2.61,1.59,2.61S398.27,131.59,398.27,130.07Z"/><path class="cls-14" d="M402.45,128.49h.65v.75a1.47,1.47,0,0,1,1.31-.84,1.35,1.35,0,0,1,1.3.86,1.63,1.63,0,0,1,1.44-.86c.91,0,1.5.63,1.5,1.72v3.06H408v-2.89c0-.86-.38-1.31-1-1.31s-1.11.49-1.11,1.33v2.86h-.65v-2.9c0-.84-.38-1.3-1-1.3a1.2,1.2,0,0,0-1.11,1.34v2.85h-.65Z"/><path class="cls-14" d="M409.95,126.76h.72v.77h-.72Zm0,1.73h.65v4.69H410Z"/><path class="cls-14" d="M412,128.49h.65v.77a1.54,1.54,0,0,1,2.92.85v3.07h-.65v-2.89c0-.84-.4-1.31-1.08-1.31a1.22,1.22,0,0,0-1.19,1.34v2.85H412Z"/><path class="cls-14" d="M416.56,134a4.08,4.08,0,0,0,0-6.82l.26-.42a4.4,4.4,0,0,1,0,7.67Z"/><path class="cls-14" d="M13.13,160.18v-6.3h2.1a2.37,2.37,0,0,1,1.68.58,2.06,2.06,0,0,1,.62,1.58v0a2,2,0,0,1-.66,1.62,2.56,2.56,0,0,1-1.7.59h-.74v1.92Zm1.31-3.09h.73a1,1,0,0,0,.77-.28,1,1,0,0,0,.28-.73h0a1,1,0,0,0-.27-.76,1.11,1.11,0,0,0-.8-.26h-.71Z"/><path class="cls-14" d="M18.27,160.18v-4.82h1.28v.86a1.28,1.28,0,0,1,1.31-.94v1.39h-.05a1.16,1.16,0,0,0-.93.37,1.67,1.67,0,0,0-.32,1.12v2Z"/><path class="cls-14" d="M23.5,160.29a2.13,2.13,0,0,1-1.62-.68,2.49,2.49,0,0,1-.64-1.79v-.08a2.64,2.64,0,0,1,.6-1.77,1.9,1.9,0,0,1,1.51-.7,1.78,1.78,0,0,1,1.52.72,3,3,0,0,1,.53,1.85c0,.15,0,.29,0,.41H22.51a1.23,1.23,0,0,0,.36.72,1,1,0,0,0,.69.25,1.46,1.46,0,0,0,1-.48l.66.77A2.23,2.23,0,0,1,23.5,160.29Zm-1-2.89h1.67a1.56,1.56,0,0,0-.26-.79.67.67,0,0,0-.56-.29.69.69,0,0,0-.57.28A1.54,1.54,0,0,0,22.51,157.4Z"/><path class="cls-14" d="M26.24,160.18v-4.82h1.28V156a1.51,1.51,0,0,1,1.25-.74A1.25,1.25,0,0,1,30,156a1.74,1.74,0,0,1,1.37-.7,1.35,1.35,0,0,1,1,.42,1.7,1.7,0,0,1,.39,1.2v3.29H31.49v-2.91q0-.85-.67-.85a.61.61,0,0,0-.5.22,1,1,0,0,0-.18.63v2.91H28.86v-2.91q0-.85-.66-.85a.61.61,0,0,0-.5.22,1,1,0,0,0-.18.63v2.91Z"/><path class="cls-14" d="M35.83,160.29a2.13,2.13,0,0,1-1.62-.68,2.49,2.49,0,0,1-.64-1.79v-.08a2.64,2.64,0,0,1,.6-1.77,1.9,1.9,0,0,1,1.51-.7,1.78,1.78,0,0,1,1.52.72,3,3,0,0,1,.53,1.85c0,.15,0,.29,0,.41H34.83a1.23,1.23,0,0,0,.36.72,1,1,0,0,0,.69.25,1.46,1.46,0,0,0,1-.48l.66.77A2.23,2.23,0,0,1,35.83,160.29Zm-1-2.89h1.67a1.56,1.56,0,0,0-.26-.79.67.67,0,0,0-.56-.29.69.69,0,0,0-.57.28A1.54,1.54,0,0,0,34.83,157.4Z"/><path class="cls-14" d="M40.23,160.27a1.64,1.64,0,0,1-1.31-.63,2.72,2.72,0,0,1-.53-1.8v-.14a2.72,2.72,0,0,1,.53-1.8,1.64,1.64,0,0,1,1.31-.63,1.61,1.61,0,0,1,1.3.71v-2.29h1.28v6.5H41.53v-.67A1.54,1.54,0,0,1,40.23,160.27Zm-.29-1.48a.8.8,0,0,0,.67.37.81.81,0,0,0,.67-.37,1.61,1.61,0,0,0,.27-1v-.09a1.61,1.61,0,0,0-.27-1,.81.81,0,0,0-.67-.37.8.8,0,0,0-.67.37,1.62,1.62,0,0,0-.27,1v.09A1.63,1.63,0,0,0,39.93,158.79Z"/><path class="cls-14" d="M43.85,154.84v-1.16h1.33v1.16Zm0,5.34v-4.82h1.28v4.82Z"/><path class="cls-14" d="M48.24,160.29a2,2,0,0,1-1.57-.69,2.54,2.54,0,0,1-.62-1.76v-.11a2.55,2.55,0,0,1,.63-1.77,2.06,2.06,0,0,1,1.61-.7,2.14,2.14,0,0,1,1.57.65l-.69.93a1.2,1.2,0,0,0-.86-.43.84.84,0,0,0-.71.37,1.61,1.61,0,0,0-.27,1v0a1.65,1.65,0,0,0,.27,1,.86.86,0,0,0,.74.37,1.22,1.22,0,0,0,.87-.44l.67.85A2.12,2.12,0,0,1,48.24,160.29Z"/><path class="cls-14" d="M51.77,160.27a1.37,1.37,0,0,1-1.43-1.47v-.05a1.43,1.43,0,0,1,.45-1.15,1.83,1.83,0,0,1,1.23-.39,2.74,2.74,0,0,1,1,.2v-.14a.8.8,0,0,0-.24-.63,1,1,0,0,0-.67-.22,2.93,2.93,0,0,0-1.11.27l-.35-1a3.64,3.64,0,0,1,1.65-.39,1.74,1.74,0,0,1,2,2v2.92H53v-.52A1.49,1.49,0,0,1,51.77,160.27Zm.42-.94a.88.88,0,0,0,.61-.2.68.68,0,0,0,.24-.54v-.41a1.65,1.65,0,0,0-.71-.15.83.83,0,0,0-.56.17.63.63,0,0,0-.2.5v0a.57.57,0,0,0,.17.44A.68.68,0,0,0,52.2,159.33Z"/><path class="cls-14" d="M56.7,160.26a1.39,1.39,0,0,1-.94-.29,1.26,1.26,0,0,1-.34-1v-2.54h-.49v-1.08h.49v-1.23H56.7v1.23h1v1.08h-1v2.28c0,.28.13.41.4.41a1.21,1.21,0,0,0,.55-.14v1A1.87,1.87,0,0,1,56.7,160.26Z"/><path class="cls-14" d="M58.5,154.84v-1.16h1.33v1.16Zm0,5.34v-4.82h1.28v4.82Z"/><path class="cls-14" d="M64.59,159.59a2.24,2.24,0,0,1-3.25,0,2.49,2.49,0,0,1-.64-1.76v-.1a2.5,2.5,0,0,1,.65-1.77,2.25,2.25,0,0,1,3.25,0,2.5,2.5,0,0,1,.64,1.77v.1A2.5,2.5,0,0,1,64.59,159.59ZM63,159.18a.85.85,0,0,0,.73-.38,1.67,1.67,0,0,0,.27-1v-.06a1.65,1.65,0,0,0-.28-1,.89.89,0,0,0-1.47,0,1.67,1.67,0,0,0-.27,1v.06a1.64,1.64,0,0,0,.28,1A.87.87,0,0,0,63,159.18Z"/><path class="cls-14" d="M66.08,160.18v-4.82h1.28V156a1.52,1.52,0,0,1,1.24-.74,1.31,1.31,0,0,1,1,.44A1.76,1.76,0,0,1,70,156.9v3.29H68.75v-2.91q0-.85-.68-.85a.64.64,0,0,0-.51.22,1,1,0,0,0-.19.63v2.91Z"/><path class="cls-14" d="M205.13,153.88h.64l3.29,5v-5h.67v6.3h-.57l-3.38-5.08v5.08h-.66Z"/><path class="cls-14" d="M210.9,157.88v-.06a2.11,2.11,0,1,1,4.17,0v.05a2.22,2.22,0,0,1-2.09,2.42A2.2,2.2,0,0,1,210.9,157.88Zm3.51,0v0c0-1.05-.63-1.84-1.43-1.84s-1.41.78-1.41,1.83v0c0,1.05.62,1.84,1.42,1.84S214.41,158.9,214.41,157.87Z"/><path class="cls-14" d="M216.15,155.49h.65v.77a1.54,1.54,0,0,1,2.92.85v3.07h-.65v-2.89c0-.84-.4-1.31-1.08-1.31a1.22,1.22,0,0,0-1.19,1.34v2.85h-.65Z"/><path class="cls-14" d="M220.73,157.88v0c0-1.43.84-2.43,1.94-2.43s1.88,1,1.88,2.42c0,.06,0,.19,0,.27h-3.15a1.53,1.53,0,0,0,1.45,1.61,1.65,1.65,0,0,0,1.22-.54l.37.41a2.12,2.12,0,0,1-1.61.7A2.17,2.17,0,0,1,220.73,157.88Zm3.17-.29c0-.89-.47-1.62-1.23-1.62s-1.22.64-1.28,1.62Z"/><path class="cls-14" d="M225.81,156.44l-.58,0v-.29l.58,0,0-.9,0-.9-.58,0v-.29l.58,0-.05-.75h.32l-.05.75.58,0v.29l-.58,0,0,.9,0,.9.58,0v.29l-.58,0,.05.75h-.32Z"/><path class="cls-14" d="M322.91,153.88h.68v2.82h3v-2.82h.67v6.3h-.67v-2.85h-3v2.85h-.68Z"/><path class="cls-14" d="M328.86,159.9l-.6.21-.07-.34.76-.29h.29v3.7h-.39Z"/><path class="cls-14" d="M332.4,158.82v0c0-1,.69-1.51,1.73-1.51a3.84,3.84,0,0,1,1.21.19v-.28a1.07,1.07,0,0,0-1.2-1.16,2.55,2.55,0,0,0-1.2.32l-.21-.53a3.22,3.22,0,0,1,1.48-.38,1.79,1.79,0,0,1,1.31.47,1.74,1.74,0,0,1,.45,1.27v3h-.64v-.68a1.62,1.62,0,0,1-1.43.78A1.43,1.43,0,0,1,332.4,158.82Zm2.94-.27V158a3.32,3.32,0,0,0-1.13-.19c-.75,0-1.16.39-1.16,1v0a.94.94,0,0,0,1,1A1.22,1.22,0,0,0,335.35,158.55Z"/><path class="cls-14" d="M337.24,155.49h.65v.77a1.54,1.54,0,0,1,2.92.85v3.07h-.65v-2.89c0-.84-.4-1.31-1.08-1.31a1.22,1.22,0,0,0-1.19,1.34v2.85h-.65Z"/><path class="cls-14" d="M342.27,159.09v-3h-.57v-.58h.57v-1.37h.65v1.37h1.22v.58h-1.22V159a.6.6,0,0,0,.67.67,1.39,1.39,0,0,0,.55-.13v.56a1.59,1.59,0,0,1-.7.16A1,1,0,0,1,342.27,159.09Z"/><path class="cls-14" d="M344.88,158.82v0c0-1,.69-1.51,1.73-1.51a3.84,3.84,0,0,1,1.21.19v-.28a1.07,1.07,0,0,0-1.2-1.16,2.55,2.55,0,0,0-1.2.32l-.21-.53a3.22,3.22,0,0,1,1.48-.38,1.79,1.79,0,0,1,1.31.47,1.74,1.74,0,0,1,.45,1.27v3h-.64v-.68a1.62,1.62,0,0,1-1.43.78A1.43,1.43,0,0,1,344.88,158.82Zm2.94-.27V158a3.32,3.32,0,0,0-1.13-.19c-.75,0-1.16.39-1.16,1v0a.94.94,0,0,0,1,1A1.22,1.22,0,0,0,347.82,158.55Z"/><path class="cls-14" d="M349.67,161l.26-.52a2.79,2.79,0,0,0,1.51.46,1.28,1.28,0,0,0,1.43-1.4v-.68a1.79,1.79,0,0,1-1.55,1,2,2,0,0,1-1.84-2.21v0a2,2,0,0,1,1.85-2.21,1.78,1.78,0,0,1,1.54.93v-.84h.65v4.07A2,2,0,0,1,353,161a2.13,2.13,0,0,1-1.56.54A3.32,3.32,0,0,1,349.67,161Zm3.22-3.4v0a1.5,1.5,0,0,0-1.41-1.63c-.74,0-1.33.6-1.33,1.63v0c0,1,.6,1.64,1.33,1.64A1.51,1.51,0,0,0,352.89,157.64Z"/><path class="cls-14" d="M354.6,157.88v-.06a2.11,2.11,0,1,1,4.17,0v.05a2.22,2.22,0,0,1-2.09,2.42A2.2,2.2,0,0,1,354.6,157.88Zm3.51,0v0c0-1.05-.63-1.84-1.43-1.84s-1.41.78-1.41,1.83v0c0,1.05.62,1.84,1.42,1.84S358.11,158.9,358.11,157.87Z"/><path class="cls-14" d="M359.84,155.49h.65v.77a1.54,1.54,0,0,1,2.92.85v3.07h-.65v-2.89c0-.84-.4-1.31-1.08-1.31a1.22,1.22,0,0,0-1.19,1.34v2.85h-.65Z"/><path class="cls-14" d="M364.7,153.76h.72v.77h-.72Zm0,1.73h.65v4.69h-.65Z"/><path class="cls-14" d="M366.34,159.6l.34-.48a2.14,2.14,0,0,0,1.37.57c.51,0,.87-.29.87-.73h0c0-.41-.39-.63-1-.89s-1.34-.62-1.34-1.35v0a1.32,1.32,0,0,1,1.46-1.28,2.55,2.55,0,0,1,1.48.5l-.32.5A2.05,2.05,0,0,0,368,156c-.5,0-.81.29-.81.66v0c0,.4.41.59,1,.86s1.31.67,1.31,1.38v0a1.38,1.38,0,0,1-1.52,1.35A2.62,2.62,0,0,1,366.34,159.6Z"/><path class="cls-14" d="M370.75,159.09v-3h-.57v-.58h.57v-1.37h.65v1.37h1.22v.58H371.4V159a.6.6,0,0,0,.67.67,1.39,1.39,0,0,0,.55-.13v.56a1.59,1.59,0,0,1-.7.16A1,1,0,0,1,370.75,159.09Z"/><path class="cls-14" d="M376.65,159.31v.87H376v-6.5h.65v2.71a1.75,1.75,0,0,1,1.52-1c1,0,1.87.83,1.87,2.39v.09c0,1.56-.92,2.39-1.87,2.39A1.74,1.74,0,0,1,376.65,159.31Zm2.73-1.43v-.07c0-1.14-.61-1.82-1.33-1.82a1.62,1.62,0,0,0-1.42,1.81v.09a1.61,1.61,0,0,0,1.42,1.8C378.78,159.69,379.38,159,379.38,157.88Z"/><path class="cls-14" d="M380.89,157.88v0c0-1.43.84-2.43,1.94-2.43s1.88,1,1.88,2.42c0,.06,0,.19,0,.27h-3.15A1.53,1.53,0,0,0,383,159.7a1.65,1.65,0,0,0,1.22-.54l.37.41a2.12,2.12,0,0,1-1.61.7A2.17,2.17,0,0,1,380.89,157.88Zm3.17-.29c0-.89-.47-1.62-1.23-1.62s-1.21.64-1.28,1.62Z"/><path class="cls-14" d="M386,156.07h-.58v-.57H386v-.43a1.54,1.54,0,0,1,.36-1.09,1.24,1.24,0,0,1,.91-.33,2.07,2.07,0,0,1,.62.09v.58a1.89,1.89,0,0,0-.53-.09c-.47,0-.71.29-.71.88v.4h1.22v.57h-1.21v4.11H386Z"/><path class="cls-14" d="M388.28,157.88v-.06a2.11,2.11,0,1,1,4.17,0v.05a2.22,2.22,0,0,1-2.09,2.42A2.2,2.2,0,0,1,388.28,157.88Zm3.51,0v0c0-1.05-.63-1.84-1.43-1.84s-1.41.78-1.41,1.83v0c0,1.05.62,1.84,1.42,1.84S391.79,158.9,391.79,157.87Z"/><path class="cls-14" d="M393.53,155.49h.65v1a1.66,1.66,0,0,1,1.61-1.1v.7h0c-.87,0-1.58.61-1.58,1.82v2.23h-.65Z"/><path class="cls-14" d="M396.25,157.88v0c0-1.43.84-2.43,1.94-2.43s1.88,1,1.88,2.42c0,.06,0,.19,0,.27h-3.15a1.53,1.53,0,0,0,1.45,1.61,1.65,1.65,0,0,0,1.22-.54l.37.41a2.12,2.12,0,0,1-1.61.7A2.17,2.17,0,0,1,396.25,157.88Zm3.17-.29c0-.89-.47-1.62-1.23-1.62s-1.21.64-1.28,1.62Z"/><path class="cls-14" d="M403.46,153.76h.72v.77h-.72Zm0,1.73h.65v4.69h-.65Z"/><path class="cls-14" d="M405.53,155.49h.65v.77a1.54,1.54,0,0,1,2.92.85v3.07h-.65v-2.89c0-.84-.4-1.31-1.08-1.31a1.22,1.22,0,0,0-1.19,1.34v2.85h-.65Z"/><path class="cls-14" d="M410.57,156.07H410v-.57h.58v-.43a1.54,1.54,0,0,1,.36-1.09,1.24,1.24,0,0,1,.91-.33,2.07,2.07,0,0,1,.62.09v.58a1.89,1.89,0,0,0-.53-.09c-.47,0-.71.29-.71.88v.4h1.22v.57h-1.21v4.11h-.66Z"/><path class="cls-14" d="M413.15,158.57v-3.08h.65v2.89c0,.84.4,1.31,1.08,1.31a1.21,1.21,0,0,0,1.19-1.33v-2.86h.65v4.69h-.65v-.77a1.52,1.52,0,0,1-1.39.86A1.5,1.5,0,0,1,413.15,158.57Z"/><path class="cls-14" d="M417.62,159.6l.34-.48a2.14,2.14,0,0,0,1.37.57c.51,0,.87-.29.87-.73h0c0-.41-.39-.63-1-.89s-1.34-.62-1.34-1.35v0a1.32,1.32,0,0,1,1.46-1.28,2.55,2.55,0,0,1,1.48.5l-.32.5a2.05,2.05,0,0,0-1.18-.44c-.5,0-.81.29-.81.66v0c0,.4.41.59,1,.86s1.31.67,1.31,1.38v0a1.38,1.38,0,0,1-1.52,1.35A2.62,2.62,0,0,1,417.62,159.6Z"/><path class="cls-14" d="M421.92,153.76h.72v.77h-.72Zm0,1.73h.65v4.69H422Z"/><path class="cls-14" d="M423.73,157.88v-.06a2.11,2.11,0,1,1,4.17,0v.05a2.22,2.22,0,0,1-2.09,2.42A2.2,2.2,0,0,1,423.73,157.88Zm3.51,0v0c0-1.05-.63-1.84-1.43-1.84s-1.41.78-1.41,1.83v0c0,1.05.62,1.84,1.42,1.84S427.25,158.9,427.25,157.87Z"/><path class="cls-14" d="M429,155.49h.65v.77a1.54,1.54,0,0,1,2.92.85v3.07h-.65v-2.89c0-.84-.4-1.31-1.08-1.31a1.22,1.22,0,0,0-1.19,1.34v2.85H429Z"/><path class="cls-1" d="M5.13,183.15v-6.3h2a2.89,2.89,0,0,1,2.18.85,3.11,3.11,0,0,1,.82,2.25V180a3.12,3.12,0,0,1-.82,2.25,2.88,2.88,0,0,1-2.18.86Zm2-5.12H6.43V182h.72a1.54,1.54,0,0,0,1.21-.51A2.08,2.08,0,0,0,8.82,180v0a2.1,2.1,0,0,0-.45-1.44A1.53,1.53,0,0,0,7.15,178Z"/><path class="cls-1" d="M14.78,182.56a2.24,2.24,0,0,1-3.25,0,2.49,2.49,0,0,1-.64-1.76v-.1a2.5,2.5,0,0,1,.65-1.77,2.25,2.25,0,0,1,3.25,0,2.5,2.5,0,0,1,.64,1.77v.1A2.5,2.5,0,0,1,14.78,182.56Zm-1.62-.41a.85.85,0,0,0,.73-.38,1.67,1.67,0,0,0,.27-1v-.06a1.65,1.65,0,0,0-.28-1,.89.89,0,0,0-1.47,0,1.67,1.67,0,0,0-.27,1v.06a1.64,1.64,0,0,0,.28,1A.87.87,0,0,0,13.16,182.15Z"/><path class="cls-1" d="M17.73,183.24a2.82,2.82,0,0,1-1.83-.67l.56-.9a2.19,2.19,0,0,0,1.29.54.61.61,0,0,0,.38-.1.33.33,0,0,0,.13-.27v0a.26.26,0,0,0,0-.08l0-.08-.05-.07-.09-.06-.1-.06-.12-.06-.14-.06-.16-.07-.16-.07a3.16,3.16,0,0,1-.95-.58,1.16,1.16,0,0,1-.32-.87v0a1.34,1.34,0,0,1,.47-1.08,1.76,1.76,0,0,1,1.19-.4,2.71,2.71,0,0,1,1.59.52l-.51.92a2.13,2.13,0,0,0-1.1-.41.54.54,0,0,0-.35.1.3.3,0,0,0-.12.24v0a.34.34,0,0,0,.18.28,4.57,4.57,0,0,0,.58.3l.06,0,0,0a3.56,3.56,0,0,1,1,.61,1.11,1.11,0,0,1,.32.84v0a1.36,1.36,0,0,1-.47,1.11A1.86,1.86,0,0,1,17.73,183.24Z"/><path class="cls-1" d="M22.27,183.26a2.13,2.13,0,0,1-1.62-.68,2.49,2.49,0,0,1-.64-1.79v-.08a2.64,2.64,0,0,1,.6-1.77,1.9,1.9,0,0,1,1.51-.7,1.78,1.78,0,0,1,1.52.72,3,3,0,0,1,.53,1.85c0,.15,0,.29,0,.41H21.28a1.23,1.23,0,0,0,.36.72,1,1,0,0,0,.69.25,1.46,1.46,0,0,0,1-.48l.66.77A2.23,2.23,0,0,1,22.27,183.26Zm-1-2.89h1.67a1.56,1.56,0,0,0-.26-.79.67.67,0,0,0-.56-.29.69.69,0,0,0-.57.28A1.54,1.54,0,0,0,21.27,180.37Z"/><path class="cls-1" d="M27,183.15v-4.82H28.3V179a1.51,1.51,0,0,1,1.25-.74,1.25,1.25,0,0,1,1.19.7,1.74,1.74,0,0,1,1.37-.7,1.35,1.35,0,0,1,1,.42,1.7,1.7,0,0,1,.39,1.2v3.29H32.27v-2.91q0-.85-.67-.85a.61.61,0,0,0-.5.22,1,1,0,0,0-.18.63v2.91H29.64v-2.91q0-.85-.66-.85a.61.61,0,0,0-.5.22,1,1,0,0,0-.18.63v2.91Z"/><path class="cls-1" d="M38.25,182.56a2.24,2.24,0,0,1-3.25,0,2.49,2.49,0,0,1-.64-1.76v-.1a2.5,2.5,0,0,1,.65-1.77,2.25,2.25,0,0,1,3.25,0,2.5,2.5,0,0,1,.64,1.77v.1A2.5,2.5,0,0,1,38.25,182.56Zm-1.62-.41a.85.85,0,0,0,.73-.38,1.67,1.67,0,0,0,.27-1v-.06a1.65,1.65,0,0,0-.28-1,.89.89,0,0,0-1.47,0,1.67,1.67,0,0,0-.27,1v.06a1.64,1.64,0,0,0,.28,1A.87.87,0,0,0,36.64,182.15Z"/><path class="cls-1" d="M41.41,183.24a1.64,1.64,0,0,1-1.31-.63,2.72,2.72,0,0,1-.53-1.8v-.14a2.72,2.72,0,0,1,.53-1.8,1.64,1.64,0,0,1,1.31-.63,1.61,1.61,0,0,1,1.3.71v-2.29H44v6.5H42.71v-.67A1.54,1.54,0,0,1,41.41,183.24Zm-.29-1.48a.8.8,0,0,0,.67.37.81.81,0,0,0,.67-.37,1.61,1.61,0,0,0,.27-1v-.09a1.61,1.61,0,0,0-.27-1,.81.81,0,0,0-.67-.37.8.8,0,0,0-.67.37,1.62,1.62,0,0,0-.27,1v.09A1.63,1.63,0,0,0,41.11,181.75Z"/><path class="cls-1" d="M45,177.81v-1.16h1.33v1.16Zm0,5.34v-4.82h1.28v4.82Z"/><path class="cls-1" d="M47.62,183.15V179.4h-.49v-1h.49V178A1.47,1.47,0,0,1,48,177,1.43,1.43,0,0,1,49,176.6a2.71,2.71,0,0,1,.79.11v1.05a1.71,1.71,0,0,0-.47-.08q-.47,0-.47.5v.19h.94v1h-.93v3.74Zm2.85-5.34v-1.16H51.8v1.16Zm0,5.34v-4.82h1.28v4.82Z"/><path class="cls-1" d="M54.84,183.26a2,2,0,0,1-1.57-.69,2.54,2.54,0,0,1-.62-1.76v-.11a2.55,2.55,0,0,1,.63-1.77,2.06,2.06,0,0,1,1.61-.7,2.14,2.14,0,0,1,1.57.65l-.69.93a1.2,1.2,0,0,0-.86-.43.84.84,0,0,0-.71.37,1.61,1.61,0,0,0-.27,1v0a1.65,1.65,0,0,0,.27,1,.86.86,0,0,0,.74.37,1.22,1.22,0,0,0,.87-.44l.67.85A2.12,2.12,0,0,1,54.84,183.26Z"/><path class="cls-1" d="M58.38,183.24a1.37,1.37,0,0,1-1.43-1.47v-.05a1.43,1.43,0,0,1,.45-1.15,1.83,1.83,0,0,1,1.23-.39,2.74,2.74,0,0,1,1,.2v-.14a.8.8,0,0,0-.24-.63,1,1,0,0,0-.67-.22,2.93,2.93,0,0,0-1.11.27l-.35-1a3.64,3.64,0,0,1,1.65-.39,1.74,1.74,0,0,1,2,2v2.92H59.63v-.52A1.49,1.49,0,0,1,58.38,183.24Zm.42-.94a.88.88,0,0,0,.61-.2.68.68,0,0,0,.24-.54v-.41a1.65,1.65,0,0,0-.71-.15.83.83,0,0,0-.56.17.63.63,0,0,0-.2.5v0a.57.57,0,0,0,.17.44A.68.68,0,0,0,58.8,182.3Z"/><path class="cls-1" d="M63.3,183.23a1.39,1.39,0,0,1-.94-.29,1.26,1.26,0,0,1-.34-1V179.4h-.49v-1.08H62v-1.23H63.3v1.23h1v1.08h-1v2.28c0,.28.13.41.4.41a1.21,1.21,0,0,0,.55-.14v1A1.87,1.87,0,0,1,63.3,183.23Z"/><path class="cls-1" d="M65.11,177.81v-1.16h1.33v1.16Zm0,5.34v-4.82h1.28v4.82Z"/><path class="cls-1" d="M71.2,182.56a2.24,2.24,0,0,1-3.25,0,2.49,2.49,0,0,1-.64-1.76v-.1a2.5,2.5,0,0,1,.65-1.77,2.25,2.25,0,0,1,3.25,0,2.5,2.5,0,0,1,.64,1.77v.1A2.5,2.5,0,0,1,71.2,182.56Zm-1.62-.41a.85.85,0,0,0,.73-.38,1.67,1.67,0,0,0,.27-1v-.06a1.65,1.65,0,0,0-.28-1,.89.89,0,0,0-1.47,0,1.67,1.67,0,0,0-.27,1v.06a1.64,1.64,0,0,0,.28,1A.87.87,0,0,0,69.58,182.15Z"/><path class="cls-1" d="M72.69,183.15v-4.82H74V179a1.52,1.52,0,0,1,1.24-.74,1.31,1.31,0,0,1,1,.44,1.76,1.76,0,0,1,.38,1.19v3.29H75.35v-2.91q0-.85-.68-.85a.64.64,0,0,0-.51.22,1,1,0,0,0-.19.63v2.91Z"/><path class="cls-1" d="M79.08,183.24a2.82,2.82,0,0,1-1.83-.67l.56-.9a2.19,2.19,0,0,0,1.29.54.61.61,0,0,0,.38-.1.33.33,0,0,0,.13-.27v0a.26.26,0,0,0,0-.08l0-.08-.05-.07-.09-.06-.1-.06-.12-.06-.14-.06-.16-.07-.16-.07a3.16,3.16,0,0,1-.95-.58,1.16,1.16,0,0,1-.32-.87v0a1.34,1.34,0,0,1,.47-1.08,1.76,1.76,0,0,1,1.19-.4,2.71,2.71,0,0,1,1.59.52l-.51.92a2.13,2.13,0,0,0-1.1-.41.54.54,0,0,0-.35.1.3.3,0,0,0-.12.24v0a.34.34,0,0,0,.18.28,4.57,4.57,0,0,0,.58.3l.06,0,0,0a3.56,3.56,0,0,1,1,.61,1.11,1.11,0,0,1,.32.84v0a1.36,1.36,0,0,1-.47,1.11A1.86,1.86,0,0,1,79.08,183.24Z"/><path class="cls-14" d="M13.13,200.22v-6.3h4.06v1.2H14.43v1.41h2.42v1.2H14.43v2.49Z"/><path class="cls-14" d="M21.58,199.63a2.24,2.24,0,0,1-3.25,0,2.49,2.49,0,0,1-.64-1.76v-.1a2.5,2.5,0,0,1,.65-1.77,2.25,2.25,0,0,1,3.25,0,2.5,2.5,0,0,1,.64,1.77v.1A2.5,2.5,0,0,1,21.58,199.63ZM20,199.22a.85.85,0,0,0,.73-.38,1.67,1.67,0,0,0,.27-1v-.06a1.65,1.65,0,0,0-.28-1,.89.89,0,0,0-1.47,0,1.67,1.67,0,0,0-.27,1v.06a1.64,1.64,0,0,0,.28,1A.87.87,0,0,0,20,199.22Z"/><path class="cls-14" d="M23.07,200.22V195.4h1.28v.86a1.28,1.28,0,0,1,1.31-.94v1.39H25.6a1.16,1.16,0,0,0-.93.37,1.67,1.67,0,0,0-.32,1.12v2Z"/><path class="cls-14" d="M30.06,200.31a1.64,1.64,0,0,1-1.31-.63,2.72,2.72,0,0,1-.53-1.8v-.14a2.72,2.72,0,0,1,.53-1.8,1.64,1.64,0,0,1,1.31-.63,1.61,1.61,0,0,1,1.3.71v-2.29h1.28v6.5H31.36v-.67A1.54,1.54,0,0,1,30.06,200.31Zm-.29-1.48a.8.8,0,0,0,.67.37.81.81,0,0,0,.67-.37,1.61,1.61,0,0,0,.27-1v-.09a1.61,1.61,0,0,0-.27-1,.81.81,0,0,0-.67-.37.8.8,0,0,0-.67.37,1.62,1.62,0,0,0-.27,1v.09A1.63,1.63,0,0,0,29.77,198.83Z"/><path class="cls-14" d="M35.73,200.33a2.13,2.13,0,0,1-1.62-.68,2.49,2.49,0,0,1-.64-1.79v-.08a2.64,2.64,0,0,1,.6-1.77,1.9,1.9,0,0,1,1.51-.7,1.78,1.78,0,0,1,1.52.72,3,3,0,0,1,.53,1.85c0,.15,0,.29,0,.41H34.74a1.23,1.23,0,0,0,.36.72,1,1,0,0,0,.69.25,1.46,1.46,0,0,0,1-.48l.66.77A2.23,2.23,0,0,1,35.73,200.33Zm-1-2.89h1.67a1.56,1.56,0,0,0-.26-.79.67.67,0,0,0-.56-.29.69.69,0,0,0-.57.28A1.54,1.54,0,0,0,34.73,197.44Z"/><path class="cls-14" d="M38.46,200.22V195.4h1.28v.86a1.28,1.28,0,0,1,1.31-.94v1.39H41a1.16,1.16,0,0,0-.93.37,1.67,1.67,0,0,0-.32,1.12v2Z"/><path class="cls-14" d="M41.77,200.22V195.4H43V196a1.51,1.51,0,0,1,1.25-.74,1.25,1.25,0,0,1,1.19.7,1.74,1.74,0,0,1,1.37-.7,1.35,1.35,0,0,1,1,.42,1.7,1.7,0,0,1,.39,1.2v3.29H47v-2.91q0-.85-.67-.85a.61.61,0,0,0-.5.22,1,1,0,0,0-.18.63v2.91H44.38v-2.91q0-.85-.66-.85a.61.61,0,0,0-.5.22,1,1,0,0,0-.18.63v2.91Z"/><path class="cls-14" d="M50.47,200.31A1.37,1.37,0,0,1,49,198.84v-.05a1.43,1.43,0,0,1,.45-1.15,1.83,1.83,0,0,1,1.23-.39,2.74,2.74,0,0,1,1,.2v-.14a.8.8,0,0,0-.24-.63,1,1,0,0,0-.67-.22,2.93,2.93,0,0,0-1.11.27l-.35-1a3.64,3.64,0,0,1,1.65-.39,1.74,1.74,0,0,1,2,2v2.92H51.72v-.52A1.49,1.49,0,0,1,50.47,200.31Zm.42-.94a.88.88,0,0,0,.61-.2.68.68,0,0,0,.24-.54v-.41a1.65,1.65,0,0,0-.71-.15.83.83,0,0,0-.56.17.63.63,0,0,0-.2.5v0a.57.57,0,0,0,.17.44A.68.68,0,0,0,50.89,199.38Z"/><path class="cls-14" d="M55.39,200.3a1.39,1.39,0,0,1-.94-.29,1.26,1.26,0,0,1-.34-1v-2.54h-.49V195.4h.49v-1.23h1.28v1.23h1v1.08h-1v2.28c0,.28.13.41.4.41a1.21,1.21,0,0,0,.55-.14v1A1.87,1.87,0,0,1,55.39,200.3Z"/><path class="cls-14" d="M60.77,199.63a2.24,2.24,0,0,1-3.25,0,2.49,2.49,0,0,1-.64-1.76v-.1a2.5,2.5,0,0,1,.65-1.77,2.25,2.25,0,0,1,3.25,0,2.5,2.5,0,0,1,.64,1.77v.1A2.5,2.5,0,0,1,60.77,199.63Zm-1.62-.41a.85.85,0,0,0,.73-.38,1.67,1.67,0,0,0,.27-1v-.06a1.65,1.65,0,0,0-.28-1,.89.89,0,0,0-1.47,0,1.67,1.67,0,0,0-.27,1v.06a1.64,1.64,0,0,0,.28,1A.87.87,0,0,0,59.15,199.22Z"/><path class="cls-14" d="M62.3,200.22v-6.5h1.28v6.5Z"/><path class="cls-14" d="M68.37,199.63a2.24,2.24,0,0,1-3.25,0,2.49,2.49,0,0,1-.64-1.76v-.1a2.5,2.5,0,0,1,.65-1.77,2.25,2.25,0,0,1,3.25,0,2.5,2.5,0,0,1,.64,1.77v.1A2.5,2.5,0,0,1,68.37,199.63Zm-1.62-.41a.85.85,0,0,0,.73-.38,1.67,1.67,0,0,0,.27-1v-.06a1.65,1.65,0,0,0-.28-1,.89.89,0,0,0-1.47,0,1.67,1.67,0,0,0-.27,1v.06a1.64,1.64,0,0,0,.28,1A.87.87,0,0,0,66.75,199.22Z"/><path class="cls-14" d="M71.72,201.6a4.27,4.27,0,0,1-1.84-.41l.4-1a2.77,2.77,0,0,0,1.37.35q1.19,0,1.19-1.14v-.31a1.67,1.67,0,0,1-1.35.76,1.64,1.64,0,0,1-1.28-.59,2.47,2.47,0,0,1-.52-1.68v0a2.44,2.44,0,0,1,.52-1.67,1.64,1.64,0,0,1,1.28-.59,1.69,1.69,0,0,1,1.34.71v-.62H74.1v3.94a2.33,2.33,0,0,1-.55,1.68A2.53,2.53,0,0,1,71.72,201.6Zm-.5-3.15a.87.87,0,0,0,1.35,0,1.3,1.3,0,0,0,.27-.85h0a1.29,1.29,0,0,0-.27-.85.87.87,0,0,0-1.35,0,1.3,1.3,0,0,0-.26.85h0A1.32,1.32,0,0,0,71.22,198.44Z"/><path class="cls-14" d="M75.15,194.88v-1.16h1.33v1.16Zm0,5.34V195.4h1.28v4.82Z"/><path class="cls-14" d="M79.53,200.33a2,2,0,0,1-1.57-.69,2.54,2.54,0,0,1-.62-1.76v-.11A2.55,2.55,0,0,1,78,196a2.06,2.06,0,0,1,1.61-.7,2.14,2.14,0,0,1,1.57.65l-.69.93a1.2,1.2,0,0,0-.86-.43.84.84,0,0,0-.71.37,1.61,1.61,0,0,0-.27,1v0a1.65,1.65,0,0,0,.27,1,.86.86,0,0,0,.74.37,1.22,1.22,0,0,0,.87-.44l.67.85A2.12,2.12,0,0,1,79.53,200.33Z"/><path class="cls-14" d="M14.49,211.1a1.39,1.39,0,0,1-.94-.29,1.26,1.26,0,0,1-.34-1v-2.54h-.49V206.2h.49V205h1.28v1.23h1v1.08h-1v2.28c0,.28.13.41.4.41a1.21,1.21,0,0,0,.55-.14v1A1.87,1.87,0,0,1,14.49,211.1Z"/><path class="cls-14" d="M19.86,210.43a2.24,2.24,0,0,1-3.25,0,2.49,2.49,0,0,1-.64-1.76v-.1a2.5,2.5,0,0,1,.65-1.77,2.25,2.25,0,0,1,3.25,0,2.5,2.5,0,0,1,.64,1.77v.1A2.5,2.5,0,0,1,19.86,210.43ZM18.25,210a.85.85,0,0,0,.73-.38,1.67,1.67,0,0,0,.27-1v-.06a1.65,1.65,0,0,0-.28-1,.89.89,0,0,0-1.47,0,1.67,1.67,0,0,0-.27,1v.06a1.64,1.64,0,0,0,.28,1A.87.87,0,0,0,18.25,210Z"/><path class="cls-14" d="M22.15,206.2l.76,1.41.77-1.41H25l-1.4,2.35L25,211H23.69l-.8-1.5-.81,1.5H20.74l1.44-2.46L20.8,206.2Z"/><path class="cls-14" d="M25.74,205.68v-1.16h1.33v1.16Zm0,5.34V206.2H27V211Z"/><path class="cls-14" d="M30.12,211.13a2,2,0,0,1-1.57-.69,2.54,2.54,0,0,1-.62-1.76v-.11a2.55,2.55,0,0,1,.63-1.77,2.06,2.06,0,0,1,1.61-.7,2.14,2.14,0,0,1,1.57.65l-.69.93a1.2,1.2,0,0,0-.86-.43.84.84,0,0,0-.71.37,1.61,1.61,0,0,0-.27,1v0a1.65,1.65,0,0,0,.27,1,.86.86,0,0,0,.74.37,1.22,1.22,0,0,0,.87-.44l.67.85A2.12,2.12,0,0,1,30.12,211.13Z"/><path class="cls-14" d="M32.5,205.68v-1.16h1.33v1.16Zm0,5.34V206.2H33.8V211Z"/><path class="cls-14" d="M36.36,211.1a1.39,1.39,0,0,1-.94-.29,1.26,1.26,0,0,1-.34-1v-2.54h-.49V206.2h.49V205h1.28v1.23h1v1.08h-1v2.28c0,.28.13.41.4.41a1.21,1.21,0,0,0,.55-.14v1A1.87,1.87,0,0,1,36.36,211.1Z"/><path class="cls-14" d="M40,209.39l.88-3.2h1.3l-1.58,4.89a2.48,2.48,0,0,1-.57,1,1.24,1.24,0,0,1-.88.3,2,2,0,0,1-1-.29l.35-1a1.06,1.06,0,0,0,.52.16.42.42,0,0,0,.41-.31l-1.64-4.83H39.1Z"/><path class="cls-14" d="M218.69,198.6l.15.22a12,12,0,0,0-2.09,2.18,15,15,0,0,0-1.76,2.75l-.33.22a5.67,5.67,0,0,0-.55.42,7,7,0,0,0-.25-.68l-.12-.29a4.42,4.42,0,0,0-.49-.91,1.1,1.1,0,0,0-.51-.39,1.3,1.3,0,0,1,.87-.5q.34,0,.75.92l.14.31a12.78,12.78,0,0,1,1.91-2.44A10.72,10.72,0,0,1,218.69,198.6Z"/><path class="cls-14" d="M380.69,198.6l.15.22a11.92,11.92,0,0,0-2.09,2.18,14.93,14.93,0,0,0-1.76,2.75l-.33.22a5.64,5.64,0,0,0-.55.42c0-.14-.12-.36-.25-.68l-.12-.29a4.41,4.41,0,0,0-.49-.91,1.1,1.1,0,0,0-.51-.39,1.3,1.3,0,0,1,.87-.5q.34,0,.75.92l.14.31a12.78,12.78,0,0,1,1.91-2.44A10.72,10.72,0,0,1,380.69,198.6Z"/><path class="cls-14" d="M13.13,229.56v-6.3h4.06v1.2H14.43v1.41h2.42v1.2H14.43v2.49Z"/><path class="cls-14" d="M21.58,229a2.24,2.24,0,0,1-3.25,0,2.49,2.49,0,0,1-.64-1.76v-.1a2.5,2.5,0,0,1,.65-1.77,2.25,2.25,0,0,1,3.25,0,2.5,2.5,0,0,1,.64,1.77v.1A2.5,2.5,0,0,1,21.58,229ZM20,228.56a.85.85,0,0,0,.73-.38,1.67,1.67,0,0,0,.27-1v-.06a1.65,1.65,0,0,0-.28-1,.89.89,0,0,0-1.47,0,1.67,1.67,0,0,0-.27,1v.06a1.64,1.64,0,0,0,.28,1A.87.87,0,0,0,20,228.56Z"/><path class="cls-14" d="M23.07,229.56v-4.82h1.28v.86a1.28,1.28,0,0,1,1.31-.94V226H25.6a1.16,1.16,0,0,0-.93.37,1.67,1.67,0,0,0-.32,1.12v2Z"/><path class="cls-14" d="M28.41,224.22v-1.16h1.33v1.16Zm0,5.34v-4.82h1.28v4.82Z"/><path class="cls-14" d="M30.8,229.56v-4.82h1.28v.65a1.52,1.52,0,0,1,1.24-.74,1.31,1.31,0,0,1,1,.44,1.76,1.76,0,0,1,.38,1.19v3.29H33.46v-2.91q0-.85-.68-.85a.64.64,0,0,0-.51.22,1,1,0,0,0-.19.63v2.91Z"/><path class="cls-14" d="M35.93,229.56v-3.74h-.49v-1h.49v-.32a1.47,1.47,0,0,1,.36-1.08,1.43,1.43,0,0,1,1.05-.36,2.71,2.71,0,0,1,.79.11v1.05a1.71,1.71,0,0,0-.47-.08q-.47,0-.47.5v.19h.94v1H37.2v3.74Z"/><path class="cls-14" d="M40.14,229.65a1.31,1.31,0,0,1-1-.44,1.77,1.77,0,0,1-.37-1.19v-3.29H40v2.91q0,.86.68.86a.64.64,0,0,0,.52-.22,1,1,0,0,0,.18-.63v-2.91h1.28v4.82H41.37v-.65A1.48,1.48,0,0,1,40.14,229.65Z"/><path class="cls-14" d="M45.13,229.65a2.82,2.82,0,0,1-1.83-.67l.56-.9a2.19,2.19,0,0,0,1.29.54.61.61,0,0,0,.38-.1.33.33,0,0,0,.13-.27v0a.26.26,0,0,0,0-.08l0-.08-.05-.07-.09-.06-.1-.06-.12-.06-.14-.06-.16-.07-.16-.07a3.16,3.16,0,0,1-.95-.58,1.16,1.16,0,0,1-.32-.87v0a1.34,1.34,0,0,1,.47-1.08,1.76,1.76,0,0,1,1.19-.4,2.71,2.71,0,0,1,1.59.52l-.51.92a2.13,2.13,0,0,0-1.1-.41.54.54,0,0,0-.35.1.3.3,0,0,0-.12.24v0a.34.34,0,0,0,.18.28,4.57,4.57,0,0,0,.58.3l.06,0,0,0a3.56,3.56,0,0,1,1,.61,1.11,1.11,0,0,1,.32.84v0a1.36,1.36,0,0,1-.47,1.11A1.86,1.86,0,0,1,45.13,229.65Z"/><path class="cls-14" d="M47.63,224.22v-1.16H49v1.16Zm0,5.34v-4.82h1.28v4.82Z"/><path class="cls-14" d="M53.72,229a2.24,2.24,0,0,1-3.25,0,2.49,2.49,0,0,1-.64-1.76v-.1a2.5,2.5,0,0,1,.65-1.77,2.25,2.25,0,0,1,3.25,0,2.5,2.5,0,0,1,.64,1.77v.1A2.5,2.5,0,0,1,53.72,229Zm-1.62-.41a.85.85,0,0,0,.73-.38,1.67,1.67,0,0,0,.27-1v-.06a1.65,1.65,0,0,0-.28-1,.89.89,0,0,0-1.47,0,1.67,1.67,0,0,0-.27,1v.06a1.64,1.64,0,0,0,.28,1A.87.87,0,0,0,52.11,228.56Z"/><path class="cls-14" d="M55.21,229.56v-4.82h1.28v.65a1.52,1.52,0,0,1,1.24-.74,1.31,1.31,0,0,1,1,.44,1.76,1.76,0,0,1,.38,1.19v3.29H57.88v-2.91q0-.85-.68-.85a.64.64,0,0,0-.51.22,1,1,0,0,0-.19.63v2.91Z"/><path class="cls-14" d="M62.16,229.56v-4.82h1.28v.86a1.28,1.28,0,0,1,1.31-.94V226h-.05a1.16,1.16,0,0,0-.93.37,1.67,1.67,0,0,0-.32,1.12v2Z"/><path class="cls-14" d="M67.39,229.67a2.13,2.13,0,0,1-1.62-.68,2.49,2.49,0,0,1-.64-1.79v-.08a2.64,2.64,0,0,1,.6-1.77,1.9,1.9,0,0,1,1.51-.7,1.78,1.78,0,0,1,1.52.72,3,3,0,0,1,.53,1.85c0,.15,0,.29,0,.41H66.4a1.23,1.23,0,0,0,.36.72,1,1,0,0,0,.69.25,1.46,1.46,0,0,0,1-.48l.66.77A2.23,2.23,0,0,1,67.39,229.67Zm-1-2.89h1.67a1.56,1.56,0,0,0-.26-.79.67.67,0,0,0-.56-.29.69.69,0,0,0-.57.28A1.54,1.54,0,0,0,66.39,226.78Z"/><path class="cls-14" d="M71.3,229.65a1.37,1.37,0,0,1-1.43-1.47v-.05a1.43,1.43,0,0,1,.45-1.15,1.83,1.83,0,0,1,1.23-.39,2.74,2.74,0,0,1,1,.2v-.14a.8.8,0,0,0-.24-.63,1,1,0,0,0-.67-.22,2.93,2.93,0,0,0-1.11.27l-.35-1a3.64,3.64,0,0,1,1.65-.39,1.74,1.74,0,0,1,2,2v2.92H72.55V229A1.49,1.49,0,0,1,71.3,229.65Zm.42-.94a.88.88,0,0,0,.61-.2.68.68,0,0,0,.24-.54v-.41a1.65,1.65,0,0,0-.71-.15.83.83,0,0,0-.56.17.63.63,0,0,0-.2.5v0a.57.57,0,0,0,.17.44A.68.68,0,0,0,71.73,228.72Z"/><path class="cls-14" d="M76.78,229.67a2,2,0,0,1-1.57-.69,2.54,2.54,0,0,1-.62-1.76v-.11a2.55,2.55,0,0,1,.63-1.77,2.06,2.06,0,0,1,1.61-.7,2.14,2.14,0,0,1,1.57.65l-.69.93a1.2,1.2,0,0,0-.86-.43.84.84,0,0,0-.71.37,1.61,1.61,0,0,0-.27,1v0a1.65,1.65,0,0,0,.27,1,.86.86,0,0,0,.74.37,1.22,1.22,0,0,0,.87-.44l.67.85A2.12,2.12,0,0,1,76.78,229.67Z"/><path class="cls-14" d="M80.61,229.64a1.39,1.39,0,0,1-.94-.29,1.26,1.26,0,0,1-.34-1v-2.54h-.49v-1.08h.49V223.5h1.28v1.23h1v1.08h-1v2.28c0,.28.13.41.4.41a1.21,1.21,0,0,0,.55-.14v1A1.87,1.87,0,0,1,80.61,229.64Z"/><path class="cls-14" d="M82.42,224.22v-1.16h1.33v1.16Zm0,5.34v-4.82h1.28v4.82Z"/><path class="cls-14" d="M88.51,229a2.24,2.24,0,0,1-3.25,0,2.49,2.49,0,0,1-.64-1.76v-.1a2.5,2.5,0,0,1,.65-1.77,2.25,2.25,0,0,1,3.25,0,2.5,2.5,0,0,1,.64,1.77v.1A2.5,2.5,0,0,1,88.51,229Zm-1.62-.41a.85.85,0,0,0,.73-.38,1.67,1.67,0,0,0,.27-1v-.06a1.65,1.65,0,0,0-.28-1,.89.89,0,0,0-1.47,0,1.67,1.67,0,0,0-.27,1v.06a1.64,1.64,0,0,0,.28,1A.87.87,0,0,0,86.89,228.56Z"/><path class="cls-14" d="M90,229.56v-4.82h1.28v.65a1.52,1.52,0,0,1,1.24-.74,1.31,1.31,0,0,1,1,.44,1.76,1.76,0,0,1,.38,1.19v3.29H92.66v-2.91q0-.85-.68-.85a.64.64,0,0,0-.51.22,1,1,0,0,0-.19.63v2.91Z"/><path class="cls-14" d="M96.39,229.65a2.82,2.82,0,0,1-1.83-.67l.56-.9a2.19,2.19,0,0,0,1.29.54.61.61,0,0,0,.38-.1.33.33,0,0,0,.13-.27v0a.26.26,0,0,0,0-.08l0-.08-.05-.07-.09-.06-.1-.06-.12-.06-.14-.06-.16-.07-.16-.07a3.16,3.16,0,0,1-.95-.58,1.16,1.16,0,0,1-.32-.87v0a1.34,1.34,0,0,1,.47-1.08,1.76,1.76,0,0,1,1.19-.4,2.71,2.71,0,0,1,1.59.52l-.51.92a2.13,2.13,0,0,0-1.1-.41.54.54,0,0,0-.35.1.3.3,0,0,0-.12.24v0a.34.34,0,0,0,.18.28,4.57,4.57,0,0,0,.58.3l.06,0,0,0a3.56,3.56,0,0,1,1,.61,1.11,1.11,0,0,1,.32.84v0a1.36,1.36,0,0,1-.47,1.11A1.86,1.86,0,0,1,96.39,229.65Z"/><path class="cls-14" d="M218.69,222.54l.15.22a12,12,0,0,0-2.09,2.18,15,15,0,0,0-1.76,2.75l-.33.22a5.67,5.67,0,0,0-.55.42,7,7,0,0,0-.25-.68l-.12-.29a4.42,4.42,0,0,0-.49-.91,1.1,1.1,0,0,0-.51-.39,1.3,1.3,0,0,1,.87-.5q.34,0,.75.92l.14.31a12.78,12.78,0,0,1,1.91-2.44A10.72,10.72,0,0,1,218.69,222.54Z"/><path class="cls-14" d="M380.69,222.54l.15.22a11.92,11.92,0,0,0-2.09,2.18,14.93,14.93,0,0,0-1.76,2.75l-.33.22a5.64,5.64,0,0,0-.55.42c0-.14-.12-.36-.25-.68l-.12-.29a4.41,4.41,0,0,0-.49-.91,1.1,1.1,0,0,0-.51-.39,1.3,1.3,0,0,1,.87-.5q.34,0,.75.92l.14.31a12.78,12.78,0,0,1,1.91-2.44A10.72,10.72,0,0,1,380.69,222.54Z"/></g></g></svg>