<svg xmlns="http://www.w3.org/2000/svg" viewBox="0 0 902.41 407.16"><defs><style>.cls-1,.cls-2,.cls-3{fill:none;stroke-miterlimit:10;}.cls-1{stroke:#595959;}.cls-1,.cls-2{stroke-width:2.55px;}.cls-2{stroke:#0093c9;}.cls-3{stroke:#4d4d4d;stroke-width:0.5px;}.cls-4{fill:#4d4d4d;}.cls-5{fill:#0093c9;}.cls-6{fill:#595959;}</style></defs><title>third-line-chart-2-lg.svg</title><g id="Layer_2" data-name="Layer 2"><g id="Layer_3" data-name="Layer 3"><polyline class="cls-1" points="68.7 6.31 83.95 6.31 83.95 9.39 89.83 9.39 89.83 13.56 97.58 13.56 97.58 19.82 101.33 19.82 101.33 22.63 109.08 22.63 109.08 28.15 116.58 28.15 116.58 33.87 124.33 33.87 124.33 35.86 129.71 35.86 129.71 41.93 133.21 41.93 133.21 50.54 137.71 50.54 137.71 55.8 137.71 58.79 145.71 58.79 145.71 63.51 151.08 63.51 151.08 66.5 157.46 66.5 157.46 70.49 163.33 70.49 163.33 73.2 167.96 73.2 167.96 76.92 173.71 76.92 173.71 80.73 177.71 80.73 177.71 84.17 177.71 88.89 185.83 88.89 185.83 93.78 192.21 93.78 192.21 98.41 196.33 98.41 196.33 101.85 198.71 101.85 198.71 104.39 204.08 104.39 204.08 107.65 209.21 107.65 209.21 111.91 213.58 111.91 213.58 116.17 217.96 116.17 217.96 120.16 227.33 120.16 227.33 124.96 232.21 124.96 232.21 131.76 238.33 131.76 238.33 140.28 249.71 140.28 249.71 146.08 256.08 146.08 256.08 150.44 256.08 155.06 266.58 155.06 266.58 161.04 275.45 161.04 275.45 167.66 282.45 167.66 282.45 175 290.95 175 290.95 182.61 300.45 182.61 300.45 189.68 311.58 189.68 311.58 196.39 321.83 196.39 321.83 201.74 330.45 201.74 330.45 207.81 340.83 207.81 340.83 213.07 352.45 213.07 352.45 219.24 360.08 219.24 360.08 224.22 374.83 224.22 374.83 230.47 383.08 230.47 383.08 238.09 397.08 238.09 397.08 243.35 404.7 243.35 404.7 245.97 406.2 245.97 406.2 249.42 412.58 249.42 412.58 251.05 416.83 251.05 416.83 252.96 421.83 252.96 421.83 254.41 429.83 254.41 429.83 257.67 440.95 257.67 440.95 262.75 445.45 262.75 445.45 264.56 453.45 264.56 453.45 267.46 470.58 267.46 470.58 269.73 485.83 269.73 485.83 276.25 490.2 276.25 490.2 278.15 501.2 278.15 501.2 280.15 513.08 280.15 513.08 282.96 525.83 282.96 525.83 287.22 532.08 287.22 532.08 289.39 540.08 289.39 540.08 293.84 544.33 293.84 544.33 296.56 563.96 296.56 569.58 296.56 569.58 298.64 572.33 298.64 572.33 302.36 583.33 302.36 583.33 304.26 588.83 304.26 588.83 306.44 595.83 306.44 595.83 309.97 617.46 309.97 623.58 309.97 623.58 313.96 635.33 313.96 635.33 316.32 653.71 316.32 653.71 321.3 675.21 321.3 675.21 324.11 684.96 324.11 684.96 327.65 697.71 327.65 697.71 329.28 782.46 329.28"/></g><g id="Layer_2-2" data-name="Layer 2"><polyline class="cls-2" points="68.58 6.4 84.75 6.4 84.75 9.42 89.75 9.42 89.75 13.89 93.75 13.89 93.75 14.98 95.58 14.98 95.58 16.79 97.75 16.79 97.75 18.97 101.58 18.97 101.58 21.27 104.08 21.27 104.08 24.05 108.91 24.05 108.91 27.67 111.25 27.67 111.25 30.93 112.75 30.93 112.75 33.35 117.41 33.35 117.41 34.8 122.41 34.8 122.41 37.94 122.41 40.84 124.75 40.84 124.75 43.5 127.41 43.5 127.41 46.77 131.41 46.77 131.41 48.94 131.41 51.36 135.91 51.36 135.91 55.59 138.91 55.59 138.91 58.61 144.25 58.61 144.25 61.15 148.25 61.15 148.25 63.08 150.75 63.08 150.75 64.65 154.91 64.65 154.91 66.83 160.75 66.83 160.75 68.76 163.25 68.76 163.25 71.15 165.37 71.15 165.37 74.44 168.33 74.44 168.33 76.65 174.04 76.65 174.04 80.55 177.62 80.55 177.62 83.51 180.46 83.51 180.46 85.8 185.37 85.8 185.37 90.61 188.29 90.61 188.29 94.87 193.37 94.87 193.37 98.25 196.91 98.25 196.91 101.22 201.62 101.22 201.62 104.66 206.62 104.66 206.62 110.28 213.12 110.28 213.12 115.08 218.12 115.08 218.12 117.89 220.41 117.89 220.41 120.73 222.25 120.73 222.25 123.51 227.25 123.51 227.25 126.66 233.41 126.66 233.41 131.07 240.41 131.07 240.41 133.18 244.66 133.18 244.66 136.87 246.91 136.87 246.91 140.01 250 140.01 250 143.21 252.91 143.21 252.91 149.8 259.5 149.8 259.5 152.7 263.16 152.7 263.16 156.33 271.08 156.33 271.08 160.19 275.75 160.19 275.75 161.89 278.5 161.89 278.5 165.27 280.75 165.27 280.75 167.87 283.91 167.87 283.91 170.95 287 170.95 287 176.93 292.25 176.93 292.25 179.29 295.08 179.29 295.08 180.92 300.41 180.92 300.41 182.74 303.33 182.74 303.33 185.33 311.58 185.33 311.58 189.26 317.08 189.26 317.08 189.56 317.08 191.32 321 191.32 321 193.97 326.5 193.97 326.5 196.17 328.83 196.17 328.83 198.25 330.95 198.25 330.95 201.51 337.08 201.51 337.08 203.96 340.77 203.96 340.77 206.54 346.64 206.54 346.64 209.44 351.27 209.44 351.27 210.81 357.64 210.81 357.64 213.48 363.39 213.48 363.39 215.06 367.33 215.06 367.33 217.47 373.7 217.47 373.7 219.6 375.64 219.6 375.64 222.82 379.45 222.82 379.45 224.36 381.27 224.36 381.27 225.49 383.2 225.49 383.2 226.99 387.08 226.99 387.08 228.44 389.2 228.44 389.2 230.88 392.39 230.88 392.39 233.56 396.45 233.56 396.45 235.51 399.45 235.51 399.45 236.96 404.33 236.96 404.33 238.45 405.89 238.45 405.89 240.99 407.58 240.99 407.58 242.85 412.45 242.85 412.45 244.8 415.14 244.8 415.14 246.2 417.89 246.2 417.89 248.29 430.45 248.29 430.45 250.19 439.52 250.19 439.52 251.82 441.39 251.82 441.39 254.95 448.95 254.95 448.95 256.76 455.83 256.76 455.83 257.89 464.89 257.89 464.89 260.43 480.02 260.43 480.02 261.52 485.45 261.52 485.45 263.88 493.83 263.88 493.83 264.78 497.33 264.78 497.33 268.55 501.39 268.55 501.39 270 502.89 270 502.89 271.4 508.52 271.4 508.52 272.49 516.46 272.49 516.46 274.44 521.08 274.44 521.08 276.02 524.64 276.02 524.64 277.38 534.08 277.38 534.08 279.24 536.64 279.24 536.64 281.19 540.77 281.19 540.77 284.27 550.64 284.27 550.64 285.86 552.33 285.86 552.33 287.85 558.14 287.85 558.14 293.61 559.77 293.61 559.77 295.06 562.77 295.06 562.77 296.6 577.89 296.6 577.89 297.78 584.89 297.78 584.89 300.68 589.64 300.68 589.64 305.57 596.21 305.57 596.21 307.66 598.52 307.66 617.96 307.66 617.96 309.79 622.46 309.79 622.46 312.42 630.02 312.42 630.02 313.82 635.39 313.82 635.39 316.95 653.02 316.95 653.02 318.99 660.89 318.99 660.89 321.48 673.89 321.48 673.89 324.66 697.46 324.66 697.46 328.55 705.33 328.55 705.33 330.64 744.21 330.64 744.21 338.34 785.52 338.34 785.52 345.01 843.71 345.01 843.71 358.69"/></g><g id="Layer_4" data-name="Layer 4"><line class="cls-3" x1="68.39" y1="359.33" x2="902.41" y2="359.33"/><line class="cls-3" x1="68.39" y1="368.33" x2="68.39" y2="359.49"/><line class="cls-3" x1="167.75" y1="368.33" x2="167.75" y2="359.49"/><line class="cls-3" x1="259.08" y1="368.33" x2="259.08" y2="359.49"/><line class="cls-3" x1="349.75" y1="368.33" x2="349.75" y2="359.49"/><line class="cls-3" x1="441.08" y1="368.33" x2="441.08" y2="359.49"/><line class="cls-3" x1="531.08" y1="368.33" x2="531.08" y2="359.49"/><line class="cls-3" x1="623.08" y1="368.33" x2="623.08" y2="359.49"/><line class="cls-3" x1="709.75" y1="368.33" x2="709.75" y2="359.49"/><line class="cls-3" x1="801.41" y1="368.33" x2="801.41" y2="359.49"/><line class="cls-3" x1="893.22" y1="368.33" x2="893.22" y2="359.49"/><path class="cls-4" d="M38.24,360.95v-.11c0-2.95,1.39-5,3.57-5s3.55,2,3.55,5v.11c0,2.95-1.39,5-3.57,5S38.24,363.9,38.24,360.95Zm6,0v-.11c0-2.36-1-4.07-2.48-4.07s-2.47,1.68-2.47,4v.11c0,2.36,1,4.07,2.48,4.07S44.27,363.31,44.27,360.95Z" transform="translate(-2.3 -1.95)"/><path class="cls-4" d="M46.73,358.39v-.07a2,2,0,1,1,4,0v.07a2,2,0,1,1-4,0Zm.87-.08v.06c0,1,.5,1.7,1.14,1.7s1.14-.7,1.14-1.68v-.06c0-1-.51-1.7-1.15-1.7S47.6,357.34,47.6,358.31ZM54,356h.9l-3.34,5.11-3,4.72h-.9l3.31-5.1Zm-2.18,7.5v-.07a2,2,0,1,1,4,0v.07a2,2,0,1,1-4,0Zm3.14,0v-.06c0-1-.5-1.7-1.15-1.7s-1.14.72-1.14,1.69v.06c0,1,.51,1.7,1.15,1.7S55,364.43,55,363.45Z" transform="translate(-2.3 -1.95)"/><path class="cls-4" d="M170.08,383.62h-4.51l-.2-.77,4.77-6.85h.93v6.74h1.31v.88h-1.31v2.27h-1Zm0-.88v-5.08l-3.51,5.08Z" transform="translate(-2.3 -1.95)"/><path class="cls-4" d="M257.24,383.29v0a2.56,2.56,0,0,1,1.78-2.43,2.46,2.46,0,0,1-1.5-2.26v0a2.94,2.94,0,0,1,5.84,0v0a2.45,2.45,0,0,1-1.49,2.26,2.61,2.61,0,0,1,1.78,2.42v0c0,1.66-1.38,2.77-3.21,2.77S257.24,384.92,257.24,383.29Zm5.36,0v0a2.17,2.17,0,0,0-4.31,0v0a2.18,2.18,0,0,0,4.31,0Zm-.27-4.65v0a1.9,1.9,0,0,0-3.78,0v0a1.89,1.89,0,0,0,3.78,0Z" transform="translate(-2.3 -1.95)"/><path class="cls-4" d="M458.43,408.9V396.3h2.74l2.81,5.11,2.77-5.11h2.75v12.6h-2.56v-8l-3,5.2h-.05l-3-5.17v8Z" transform="translate(-2.3 -1.95)"/><path class="cls-4" d="M479.2,407.72a4.49,4.49,0,0,1-6.5,0,5,5,0,0,1-1.29-3.53V404a5,5,0,0,1,1.3-3.54,4.5,4.5,0,0,1,6.5,0,5,5,0,0,1,1.28,3.54v.2A5,5,0,0,1,479.2,407.72ZM476,406.9a1.69,1.69,0,0,0,1.46-.76,3.34,3.34,0,0,0,.54-2V404a3.32,3.32,0,0,0-.56-2,1.78,1.78,0,0,0-2.93,0,3.34,3.34,0,0,0-.54,2v.13a3.27,3.27,0,0,0,.57,2A1.74,1.74,0,0,0,476,406.9Z" transform="translate(-2.3 -1.95)"/><path class="cls-4" d="M482.17,408.9v-9.65h2.56v1.3a3,3,0,0,1,2.48-1.48,2.62,2.62,0,0,1,2.09.87,3.52,3.52,0,0,1,.76,2.38v6.57H487.5v-5.81q0-1.71-1.37-1.71a1.28,1.28,0,0,0-1,.44,1.9,1.9,0,0,0-.38,1.27v5.81Z" transform="translate(-2.3 -1.95)"/><path class="cls-4" d="M495,409.06a2.78,2.78,0,0,1-1.88-.58,2.51,2.51,0,0,1-.68-2v-5.08h-1v-2.16h1v-2.47H495v2.47h1.91v2.16H495V406q0,.83.79.83a2.44,2.44,0,0,0,1.1-.27v2A3.75,3.75,0,0,1,495,409.06Z" transform="translate(-2.3 -1.95)"/><path class="cls-4" d="M498.55,408.9v-13h2.56v4.64a3,3,0,0,1,2.48-1.48,2.62,2.62,0,0,1,2.09.87,3.52,3.52,0,0,1,.76,2.38v6.57h-2.56v-5.81q0-1.71-1.37-1.71a1.28,1.28,0,0,0-1,.44,1.9,1.9,0,0,0-.38,1.27v5.81Z" transform="translate(-2.3 -1.95)"/><path class="cls-4" d="M511.33,409.08a5.65,5.65,0,0,1-3.65-1.33l1.12-1.8a4.37,4.37,0,0,0,2.57,1.08,1.21,1.21,0,0,0,.77-.21.65.65,0,0,0,.26-.53v0a.55.55,0,0,0,0-.17.66.66,0,0,0-.08-.16.81.81,0,0,0-.11-.14.88.88,0,0,0-.18-.13l-.21-.13-.24-.13-.27-.12-.32-.13-.32-.14a6.33,6.33,0,0,1-1.89-1.17,2.32,2.32,0,0,1-.65-1.75v0a2.69,2.69,0,0,1,.94-2.15,3.53,3.53,0,0,1,2.38-.8,5.42,5.42,0,0,1,3.19,1l-1,1.84a4.26,4.26,0,0,0-2.2-.83,1.07,1.07,0,0,0-.69.2.6.6,0,0,0-.24.49v0a.69.69,0,0,0,.37.57,9.18,9.18,0,0,0,1.16.6l.12,0,.1,0a7.07,7.07,0,0,1,1.91,1.22,2.23,2.23,0,0,1,.65,1.67v0a2.73,2.73,0,0,1-.95,2.22A3.73,3.73,0,0,1,511.33,409.08Z" transform="translate(-2.3 -1.95)"/><path class="cls-4" d="M351.28,52.74h1.48l3.71,10.73,3.73-10.73h1.42l-4.54,12.69h-1.24Z" transform="translate(-2.3 -1.95)"/><path class="cls-4" d="M362,60.73v-.09c0-2.86,1.67-4.86,3.87-4.86,2.36,0,3.76,2,3.76,4.84,0,.13,0,.38,0,.54h-6.3c.14,2.07,1.42,3.22,2.9,3.22a3.3,3.3,0,0,0,2.43-1.08l.74.83a4.24,4.24,0,0,1-3.22,1.4C363.87,65.54,362,63.7,362,60.73Zm6.34-.58c-.09-1.78-.94-3.24-2.47-3.24s-2.43,1.28-2.56,3.24Z" transform="translate(-2.3 -1.95)"/><path class="cls-4" d="M371.21,60.75v-.13c0-2.84,1.84-4.84,4.18-4.84a4,4,0,0,1,3,1.28l-.77,1a3,3,0,0,0-2.2-1.06c-1.57,0-2.83,1.48-2.83,3.65v.09c0,2.21,1.3,3.64,2.88,3.64a3,3,0,0,0,2.2-1.08l.76.86a3.86,3.86,0,0,1-3,1.4C373,65.54,371.21,63.6,371.21,60.75Z" transform="translate(-2.3 -1.95)"/><path class="cls-4" d="M380.68,63.16v-6h-1.13V56h1.13V53.22H382V56h2.45v1.15H382v5.83a1.19,1.19,0,0,0,1.35,1.35,2.78,2.78,0,0,0,1.1-.25v1.12a3.18,3.18,0,0,1-1.4.32A2.1,2.1,0,0,1,380.68,63.16Z" transform="translate(-2.3 -1.95)"/><path class="cls-4" d="M386.54,52.5H388V54h-1.44Zm.07,3.46h1.3v9.38h-1.3Z" transform="translate(-2.3 -1.95)"/><path class="cls-4" d="M392,63.6v1.75h-1.3v-13H392v5.42a3.5,3.5,0,0,1,3-2c1.91,0,3.74,1.66,3.74,4.77v.18c0,3.12-1.84,4.79-3.74,4.79A3.47,3.47,0,0,1,392,63.6Zm5.46-2.86v-.14c0-2.29-1.22-3.64-2.67-3.64s-2.84,1.42-2.84,3.62v.18c0,2.2,1.37,3.6,2.84,3.6S397.44,63,397.44,60.73Z" transform="translate(-2.3 -1.95)"/><path class="cls-4" d="M401,52.5h1.44V54H401Zm.07,3.46h1.3v9.38h-1.3Z" transform="translate(-2.3 -1.95)"/><path class="cls-4" d="M408.29,59.62,410.61,56H412l-3,4.56,3.13,4.83H410.7l-2.43-3.87-2.43,3.87h-1.42l3.1-4.79-3-4.59H406Z" transform="translate(-2.3 -1.95)"/><path class="cls-4" d="M413.29,55.76v-.11a2.89,2.89,0,1,1,5.76,0v.11a2.89,2.89,0,1,1-5.76,0Zm5.38,0v-.11a2.6,2.6,0,0,0-2.5-2.77,2.63,2.63,0,0,0-2.52,2.79v.11a2.52,2.52,0,1,0,5,0ZM415.07,54h1.22a1,1,0,0,1,1.17,1,1,1,0,0,1-.68,1l.79,1.26h-.67l-.7-1.15h-.56v1.15h-.58Zm1.17,1.64c.41,0,.65-.22.65-.56s-.25-.56-.65-.56h-.59v1.12Z" transform="translate(-2.3 -1.95)"/><path class="cls-4" d="M425.24,60.16a8.44,8.44,0,0,1,4.5-7.67l.52.85a8.15,8.15,0,0,0,0,13.65l-.52.85A8.44,8.44,0,0,1,425.24,60.16Z" transform="translate(-2.3 -1.95)"/><path class="cls-4" d="M432.35,56h1.3v1.53a3,3,0,0,1,2.77-1.71c1.91,0,3.06,1.31,3.06,3.42v6.14h-1.3V59.56c0-1.67-.79-2.61-2.16-2.61a2.44,2.44,0,0,0-2.38,2.68v5.71h-1.3Z" transform="translate(-2.3 -1.95)"/><path class="cls-4" d="M446.52,56.48h7.42v1.28h-7.42Zm0,3.76h7.42v1.28h-7.42Z" transform="translate(-2.3 -1.95)"/><path class="cls-4" d="M466.43,62.42h-5.78l-.25-1,6.12-8.79h1.19v8.64h1.67v1.13h-1.67v2.92h-1.28Zm0-1.13V54.77l-4.5,6.52Z" transform="translate(-2.3 -1.95)"/><path class="cls-4" d="M477.75,59a3.47,3.47,0,0,1-3,1.75,3.67,3.67,0,0,1-3.82-3.91v0a4,4,0,0,1,4-4.27,3.71,3.71,0,0,1,2.77,1.1c.88.88,1.46,2.27,1.46,4.9v.14c0,4.29-1.87,6.86-4.66,6.86a4.91,4.91,0,0,1-3.21-1.24l.7-1.08a3.82,3.82,0,0,0,2.54,1.08C476.54,64.3,477.73,62,477.75,59Zm-.2-2.25v0a2.73,2.73,0,0,0-2.72-3c-1.6,0-2.57,1.35-2.57,3v0a2.57,2.57,0,0,0,2.61,2.81A2.67,2.67,0,0,0,477.55,56.75Z" transform="translate(-2.3 -1.95)"/><path class="cls-4" d="M487.87,59a3.47,3.47,0,0,1-3,1.75A3.67,3.67,0,0,1,481,56.84v0a4,4,0,0,1,4-4.27,3.71,3.71,0,0,1,2.77,1.1c.88.88,1.46,2.27,1.46,4.9v.14c0,4.29-1.87,6.86-4.66,6.86a4.91,4.91,0,0,1-3.21-1.24l.7-1.08a3.82,3.82,0,0,0,2.54,1.08C486.66,64.3,487.85,62,487.87,59Zm-.2-2.25v0a2.73,2.73,0,0,0-2.72-3c-1.6,0-2.58,1.35-2.58,3v0A2.57,2.57,0,0,0,485,59.6,2.67,2.67,0,0,0,487.67,56.75Z" transform="translate(-2.3 -1.95)"/><path class="cls-4" d="M490.94,67a8.15,8.15,0,0,0,0-13.65l.52-.85a8.8,8.8,0,0,1,0,15.34Z" transform="translate(-2.3 -1.95)"/><path class="cls-4" d="M351.71,86.71V86.6c0-3.82,2.38-6.45,5.53-6.45a5.25,5.25,0,0,1,3.83,1.55l-.83,1a4.25,4.25,0,0,0-3-1.31c-2.32,0-4.11,2.13-4.11,5.17v.07c0,3.1,1.78,5.2,4.11,5.2a4.27,4.27,0,0,0,3.11-1.4l.81.94a5.39,5.39,0,0,1-4,1.73C354,93.12,351.71,90.55,351.71,86.71Z" transform="translate(-2.3 -1.95)"/><path class="cls-4" d="M362.39,88.33v-.09c0-2.86,1.67-4.86,3.87-4.86,2.36,0,3.76,2,3.76,4.84,0,.13,0,.38,0,.54h-6.3c.14,2.07,1.42,3.22,2.9,3.22A3.3,3.3,0,0,0,369,90.91l.74.83a4.24,4.24,0,0,1-3.22,1.4C364.26,93.14,362.39,91.3,362.39,88.33Zm6.34-.58c-.09-1.78-.94-3.24-2.47-3.24s-2.43,1.28-2.56,3.24Z" transform="translate(-2.3 -1.95)"/><path class="cls-4" d="M372.49,90.76v-6h-1.13V83.56h1.13V80.82h1.3v2.74h2.45v1.15h-2.45v5.83a1.19,1.19,0,0,0,1.35,1.35,2.78,2.78,0,0,0,1.1-.25v1.12a3.17,3.17,0,0,1-1.4.32A2.1,2.1,0,0,1,372.49,90.76Z" transform="translate(-2.3 -1.95)"/><path class="cls-4" d="M378.19,89.72V83.56h1.3v5.78c0,1.67.79,2.61,2.16,2.61A2.42,2.42,0,0,0,384,89.29V83.56h1.3v9.38H384V91.41a3,3,0,0,1-2.77,1.71C379.34,93.12,378.19,91.81,378.19,89.72Z" transform="translate(-2.3 -1.95)"/><path class="cls-4" d="M391.14,87.22l2.32-3.66h1.4l-3,4.56L395,92.94h-1.46l-2.43-3.87-2.43,3.87h-1.42l3.1-4.79-3-4.59h1.46Z" transform="translate(-2.3 -1.95)"/><path class="cls-4" d="M397,80.1h1.44v1.53H397Zm.07,3.46h1.3v9.38h-1.3Z" transform="translate(-2.3 -1.95)"/><path class="cls-4" d="M401.12,83.56h1.3v1.49A2.94,2.94,0,0,1,405,83.38a2.71,2.71,0,0,1,2.59,1.71,3.26,3.26,0,0,1,2.88-1.71c1.82,0,3,1.26,3,3.44v6.12h-1.3V87.16c0-1.71-.76-2.61-2-2.61s-2.21,1-2.21,2.67v5.73h-1.3v-5.8c0-1.67-.76-2.59-2-2.59s-2.21,1.1-2.21,2.68v5.71h-1.3Z" transform="translate(-2.3 -1.95)"/><path class="cls-4" d="M415.47,90.22v-.07c0-1.93,1.39-3,3.46-3a7.71,7.71,0,0,1,2.41.38v-.56a2.14,2.14,0,0,0-2.39-2.32,5.12,5.12,0,0,0-2.39.63l-.41-1.06a6.47,6.47,0,0,1,3-.76,3.57,3.57,0,0,1,2.63.94,3.48,3.48,0,0,1,.9,2.54v6h-1.28V91.57a3.24,3.24,0,0,1-2.86,1.57A2.87,2.87,0,0,1,415.47,90.22Zm5.89-.54V88.51a6.62,6.62,0,0,0-2.27-.38c-1.49,0-2.32.77-2.32,2v.05a1.88,1.88,0,0,0,2,1.91A2.44,2.44,0,0,0,421.36,89.68Z" transform="translate(-2.3 -1.95)"/><path class="cls-4" d="M426.43,91.2v1.75h-1.3v-13h1.3v5.42a3.5,3.5,0,0,1,3-2c1.91,0,3.74,1.66,3.74,4.77v.18c0,3.12-1.84,4.79-3.74,4.79A3.47,3.47,0,0,1,426.43,91.2Zm5.46-2.86v-.14c0-2.29-1.22-3.64-2.67-3.64s-2.84,1.42-2.84,3.62v.18c0,2.2,1.37,3.6,2.84,3.6S431.89,90.64,431.89,88.33Z" transform="translate(-2.3 -1.95)"/><path class="cls-4" d="M439.79,87.76a8.44,8.44,0,0,1,4.5-7.67l.52.85a8.15,8.15,0,0,0,0,13.65l-.52.85A8.44,8.44,0,0,1,439.79,87.76Z" transform="translate(-2.3 -1.95)"/><path class="cls-4" d="M446.9,83.56h1.3v1.53A3,3,0,0,1,451,83.38c1.91,0,3.06,1.31,3.06,3.42v6.14h-1.3V87.16c0-1.67-.79-2.61-2.16-2.61a2.44,2.44,0,0,0-2.38,2.68v5.71h-1.3Z" transform="translate(-2.3 -1.95)"/><path class="cls-4" d="M461.06,84.08h7.42v1.28h-7.42Zm0,3.76h7.42v1.28h-7.42Z" transform="translate(-2.3 -1.95)"/><path class="cls-4" d="M475.1,91.57l.81-1a4.3,4.3,0,0,0,2.9,1.33,2.67,2.67,0,0,0,2.74-2.83V89a2.53,2.53,0,0,0-2.74-2.63,4.51,4.51,0,0,0-2.2.58l-.86-.59.32-6h6.3V81.6h-5.13l-.25,4a4.85,4.85,0,0,1,2-.45,3.63,3.63,0,0,1,3.89,3.8V89a4,4,0,0,1-4.12,4.12A5.38,5.38,0,0,1,475.1,91.57Z" transform="translate(-2.3 -1.95)"/><path class="cls-4" d="M484.79,86.73v-.14c0-3.78,1.78-6.45,4.57-6.45s4.55,2.63,4.55,6.41v.14c0,3.78-1.78,6.45-4.57,6.45S484.79,90.51,484.79,86.73Zm7.74,0v-.14c0-3-1.28-5.22-3.19-5.22s-3.17,2.16-3.17,5.19v.14c0,3,1.26,5.22,3.19,5.22S492.53,89.75,492.53,86.73Z" transform="translate(-2.3 -1.95)"/><path class="cls-4" d="M495.86,86.73v-.14c0-3.78,1.78-6.45,4.57-6.45S505,82.77,505,86.55v.14c0,3.78-1.78,6.45-4.57,6.45S495.86,90.51,495.86,86.73Zm7.74,0v-.14c0-3-1.28-5.22-3.19-5.22s-3.17,2.16-3.17,5.19v.14c0,3,1.26,5.22,3.19,5.22S503.6,89.75,503.6,86.73Z" transform="translate(-2.3 -1.95)"/><path class="cls-4" d="M506.71,94.58a8.15,8.15,0,0,0,0-13.65l.52-.85a8.8,8.8,0,0,1,0,15.34Z" transform="translate(-2.3 -1.95)"/><path class="cls-4" d="M550.89,55l-2.05.72-.23-1.17,2.61-1h1V66.23h-1.33Z" transform="translate(-2.3 -1.95)"/><path class="cls-4" d="M554.8,60v-.14c0-3.78,1.78-6.45,4.57-6.45s4.55,2.63,4.55,6.41V60c0,3.78-1.78,6.45-4.57,6.45S554.8,63.8,554.8,60Zm7.74,0v-.14c0-3-1.28-5.22-3.19-5.22s-3.17,2.16-3.17,5.19V60c0,3,1.26,5.22,3.19,5.22S562.54,63,562.54,60Z" transform="translate(-2.3 -1.95)"/><path class="cls-4" d="M565.79,64.38h1.62v1.85h-1.62Z" transform="translate(-2.3 -1.95)"/><path class="cls-4" d="M575.12,63.32h-5.78l-.25-1,6.12-8.79h1.19v8.64h1.67v1.13H576.4v2.92h-1.28Zm0-1.13V55.66l-4.5,6.52Z" transform="translate(-2.3 -1.95)"/><path class="cls-4" d="M584.53,61a8.44,8.44,0,0,1,4.5-7.67l.52.85a8.15,8.15,0,0,0,0,13.65l-.52.85A8.44,8.44,0,0,1,584.53,61Z" transform="translate(-2.3 -1.95)"/><path class="cls-4" d="M598.11,59.9a3.47,3.47,0,0,1-3,1.75,3.67,3.67,0,0,1-3.82-3.91v0a4,4,0,0,1,4-4.27,3.71,3.71,0,0,1,2.77,1.1c.88.88,1.46,2.27,1.46,4.9v.14c0,4.29-1.87,6.86-4.66,6.86a4.91,4.91,0,0,1-3.21-1.24l.7-1.08a3.82,3.82,0,0,0,2.54,1.08C596.9,65.19,598.09,62.87,598.11,59.9Zm-.2-2.25v0a2.73,2.73,0,0,0-2.72-3c-1.6,0-2.57,1.35-2.57,3v0a2.57,2.57,0,0,0,2.61,2.81A2.67,2.67,0,0,0,597.91,57.64Z" transform="translate(-2.3 -1.95)"/><path class="cls-4" d="M601.42,64.38H603v1.85h-1.62Z" transform="translate(-2.3 -1.95)"/><path class="cls-4" d="M610.74,63.32H605l-.25-1,6.12-8.79H612v8.64h1.67v1.13H612v2.92h-1.28Zm0-1.13V55.66l-4.5,6.52Z" transform="translate(-2.3 -1.95)"/><path class="cls-4" d="M615.47,60.18h6.82v1.3h-6.82Z" transform="translate(-2.3 -1.95)"/><path class="cls-4" d="M625.45,55l-2.05.72-.23-1.17,2.61-1h1V66.23h-1.33Z" transform="translate(-2.3 -1.95)"/><path class="cls-4" d="M631.13,55l-2.05.72-.23-1.17,2.61-1h1V66.23h-1.33Z" transform="translate(-2.3 -1.95)"/><path class="cls-4" d="M635.29,64.38h1.62v1.85h-1.62Z" transform="translate(-2.3 -1.95)"/><path class="cls-4" d="M640.49,65.35c-.92-.94-1.46-2.25-1.46-4.92v-.14c0-4.18,1.78-6.86,4.66-6.86a4.68,4.68,0,0,1,3,1.13L646,55.65a3.58,3.58,0,0,0-2.38-1c-2.09,0-3.24,2.3-3.26,5.38a3.48,3.48,0,0,1,3.06-1.71,3.67,3.67,0,0,1,3.8,3.85v0a4,4,0,0,1-4,4.2A3.83,3.83,0,0,1,640.49,65.35Zm5.38-3.06v0a2.54,2.54,0,0,0-2.61-2.74,2.64,2.64,0,0,0-2.68,2.75v0a2.71,2.71,0,0,0,2.7,2.92A2.67,2.67,0,0,0,645.88,62.29Z" transform="translate(-2.3 -1.95)"/><path class="cls-4" d="M648.93,67.87a8.15,8.15,0,0,0,0-13.65l.52-.85a8.8,8.8,0,0,1,0,15.34Z" transform="translate(-2.3 -1.95)"/><path class="cls-4" d="M550.64,82.6l-2.05.72-.23-1.17,2.61-1h1V93.83h-1.33Z" transform="translate(-2.3 -1.95)"/><path class="cls-4" d="M554.54,87.62v-.14c0-3.78,1.78-6.45,4.57-6.45s4.55,2.63,4.55,6.41v.14c0,3.78-1.78,6.45-4.57,6.45S554.54,91.4,554.54,87.62Zm7.74,0v-.14c0-3-1.28-5.22-3.19-5.22s-3.17,2.16-3.17,5.19v.14c0,3,1.26,5.22,3.19,5.22S562.29,90.65,562.29,87.62Z" transform="translate(-2.3 -1.95)"/><path class="cls-4" d="M565.54,92h1.62v1.85h-1.62Z" transform="translate(-2.3 -1.95)"/><path class="cls-4" d="M569,87.62v-.14c0-3.78,1.78-6.45,4.57-6.45s4.56,2.63,4.56,6.41v.14c0,3.78-1.78,6.45-4.57,6.45S569,91.4,569,87.62Zm7.74,0v-.14c0-3-1.28-5.22-3.19-5.22s-3.17,2.16-3.17,5.19v.14c0,3,1.26,5.22,3.19,5.22S576.78,90.65,576.78,87.62Z" transform="translate(-2.3 -1.95)"/><path class="cls-4" d="M584.84,88.65a8.44,8.44,0,0,1,4.5-7.67l.52.85a8.15,8.15,0,0,0,0,13.65l-.52.85A8.44,8.44,0,0,1,584.84,88.65Z" transform="translate(-2.3 -1.95)"/><path class="cls-4" d="M598.41,87.49a3.47,3.47,0,0,1-3,1.75,3.67,3.67,0,0,1-3.82-3.91v0a4,4,0,0,1,4-4.27,3.71,3.71,0,0,1,2.77,1.1c.88.88,1.46,2.27,1.46,4.9v.14c0,4.29-1.87,6.86-4.66,6.86a4.91,4.91,0,0,1-3.21-1.24l.7-1.08a3.82,3.82,0,0,0,2.54,1.08C597.21,92.79,598.39,90.47,598.41,87.49Zm-.2-2.25v0a2.73,2.73,0,0,0-2.72-3c-1.6,0-2.58,1.35-2.58,3v0a2.57,2.57,0,0,0,2.61,2.81A2.67,2.67,0,0,0,598.21,85.24Z" transform="translate(-2.3 -1.95)"/><path class="cls-4" d="M601.72,92h1.62v1.85h-1.62Z" transform="translate(-2.3 -1.95)"/><path class="cls-4" d="M605.25,92.3l.86-.94a3.76,3.76,0,0,0,3,1.42,2.45,2.45,0,0,0,2.56-2.52v-.05c0-1.62-1.39-2.45-3.35-2.45h-.47l-.2-.85,3.49-4.45h-5.35V81.23h7.08v1l-3.53,4.45c1.94.22,3.69,1.26,3.69,3.48v.05A3.76,3.76,0,0,1,609.08,94,4.91,4.91,0,0,1,605.25,92.3Z" transform="translate(-2.3 -1.95)"/><path class="cls-4" d="M615,87.78h6.82v1.3H615Z" transform="translate(-2.3 -1.95)"/><path class="cls-4" d="M625,82.6l-2.05.72-.23-1.17,2.61-1h1V93.83H625Z" transform="translate(-2.3 -1.95)"/><path class="cls-4" d="M630.68,82.6l-2.05.72-.23-1.17,2.61-1h1V93.83h-1.33Z" transform="translate(-2.3 -1.95)"/><path class="cls-4" d="M634.84,92h1.62v1.85h-1.62Z" transform="translate(-2.3 -1.95)"/><path class="cls-4" d="M638.33,87.62v-.14c0-3.78,1.78-6.45,4.57-6.45s4.56,2.63,4.56,6.41v.14c0,3.78-1.78,6.45-4.57,6.45S638.33,91.4,638.33,87.62Zm7.74,0v-.14c0-3-1.28-5.22-3.19-5.22s-3.17,2.16-3.17,5.19v.14c0,3,1.26,5.22,3.19,5.22S646.08,90.65,646.08,87.62Z" transform="translate(-2.3 -1.95)"/><path class="cls-4" d="M649.19,95.47a8.15,8.15,0,0,0,0-13.65l.52-.85a8.8,8.8,0,0,1,0,15.34Z" transform="translate(-2.3 -1.95)"/><path class="cls-4" d="M542.17,20V7.41h2.74l2.81,5.11,2.77-5.11h2.75V20h-2.56V12l-3,5.2h-.05l-3-5.17v8Z" transform="translate(-2.3 -1.95)"/><path class="cls-4" d="M559.65,20.23a4.26,4.26,0,0,1-3.23-1.36,5,5,0,0,1-1.29-3.57v-.16a5.27,5.27,0,0,1,1.2-3.55,3.79,3.79,0,0,1,3-1.4,3.56,3.56,0,0,1,3,1.43,6,6,0,0,1,1.06,3.7c0,.3,0,.58,0,.83h-5.76a2.44,2.44,0,0,0,.71,1.44,2,2,0,0,0,1.38.5,2.93,2.93,0,0,0,2-1l1.31,1.55A4.46,4.46,0,0,1,559.65,20.23Zm-2-5.78H561a3.12,3.12,0,0,0-.51-1.58,1.33,1.33,0,0,0-1.12-.58,1.38,1.38,0,0,0-1.14.57A3.08,3.08,0,0,0,557.65,14.45Z" transform="translate(-2.3 -1.95)"/><path class="cls-4" d="M568.45,20.19a3.28,3.28,0,0,1-2.61-1.26,5.43,5.43,0,0,1-1.06-3.6V15a5.44,5.44,0,0,1,1.06-3.6,3.28,3.28,0,0,1,2.61-1.26,3.23,3.23,0,0,1,2.61,1.42V7h2.56V20h-2.56V18.68A3.09,3.09,0,0,1,568.45,20.19Zm-.58-3a1.6,1.6,0,0,0,1.34.74,1.62,1.62,0,0,0,1.35-.74,3.21,3.21,0,0,0,.54-1.94V15.1a3.22,3.22,0,0,0-.54-1.94,1.62,1.62,0,0,0-1.35-.74,1.6,1.6,0,0,0-1.34.74,3.25,3.25,0,0,0-.53,1.94v.18A3.25,3.25,0,0,0,567.86,17.22Z" transform="translate(-2.3 -1.95)"/><path class="cls-4" d="M575.7,9.34V7h2.66V9.34ZM575.76,20V10.36h2.55V20Z" transform="translate(-2.3 -1.95)"/><path class="cls-4" d="M582.83,20.19A2.75,2.75,0,0,1,580,17.26v-.11a2.85,2.85,0,0,1,.91-2.3,3.66,3.66,0,0,1,2.46-.77,5.48,5.48,0,0,1,2,.4v-.29a1.62,1.62,0,0,0-.48-1.26,1.93,1.93,0,0,0-1.34-.43,5.86,5.86,0,0,0-2.21.54l-.7-2a7.27,7.27,0,0,1,3.29-.77,4,4,0,0,1,2.93,1,4,4,0,0,1,1,2.92V20h-2.5V19A3,3,0,0,1,582.83,20.19Zm.85-1.87a1.75,1.75,0,0,0,1.22-.4,1.35,1.35,0,0,0,.49-1.08V16a3.29,3.29,0,0,0-1.42-.31,1.66,1.66,0,0,0-1.12.35,1.25,1.25,0,0,0-.4,1v0a1.14,1.14,0,0,0,.33.88A1.36,1.36,0,0,0,583.68,18.32Z" transform="translate(-2.3 -1.95)"/><path class="cls-4" d="M589.8,20V10.36h2.56v1.3a3,3,0,0,1,2.48-1.48,2.62,2.62,0,0,1,2.09.87,3.52,3.52,0,0,1,.76,2.38V20h-2.56V14.2q0-1.71-1.37-1.71a1.28,1.28,0,0,0-1,.44,1.9,1.9,0,0,0-.38,1.27V20Z" transform="translate(-2.3 -1.95)"/><path class="cls-4" d="M603.69,20V10.36h2.56v1.3a3,3,0,0,1,2.5-1.48,2.49,2.49,0,0,1,2.38,1.4,3.48,3.48,0,0,1,2.74-1.4A2.71,2.71,0,0,1,616,11a3.42,3.42,0,0,1,.77,2.4V20h-2.54V14.2q0-1.71-1.33-1.71a1.23,1.23,0,0,0-1,.44,2,2,0,0,0-.36,1.27V20h-2.55V14.2q0-1.71-1.31-1.71a1.23,1.23,0,0,0-1,.44,2,2,0,0,0-.36,1.27V20Z" transform="translate(-2.3 -1.95)"/><path class="cls-4" d="M626.15,18.83a4.49,4.49,0,0,1-6.5,0,5,5,0,0,1-1.29-3.53v-.2a5,5,0,0,1,1.29-3.54,4.5,4.5,0,0,1,6.5,0,5,5,0,0,1,1.28,3.54v.2A5,5,0,0,1,626.15,18.83ZM622.92,18a1.7,1.7,0,0,0,1.46-.76,3.35,3.35,0,0,0,.54-2v-.13a3.32,3.32,0,0,0-.56-2,1.78,1.78,0,0,0-2.93,0,3.34,3.34,0,0,0-.54,2v.13a3.28,3.28,0,0,0,.57,2A1.74,1.74,0,0,0,622.92,18Z" transform="translate(-2.3 -1.95)"/><path class="cls-4" d="M629.13,20V10.36h2.56v1.3a3,3,0,0,1,2.48-1.48,2.62,2.62,0,0,1,2.09.87,3.52,3.52,0,0,1,.76,2.38V20h-2.56V14.2q0-1.71-1.37-1.71a1.28,1.28,0,0,0-1,.44,1.9,1.9,0,0,0-.38,1.27V20Z" transform="translate(-2.3 -1.95)"/><path class="cls-4" d="M641.92,20.18a2.78,2.78,0,0,1-1.88-.58,2.52,2.52,0,0,1-.67-2V12.52h-1V10.36h1V7.9h2.56v2.47h1.91v2.16h-1.91v4.55q0,.83.79.83a2.43,2.43,0,0,0,1.1-.27v2A3.75,3.75,0,0,1,641.92,20.18Z" transform="translate(-2.3 -1.95)"/><path class="cls-4" d="M645.5,20V7h2.56v4.64a3,3,0,0,1,2.48-1.48,2.62,2.62,0,0,1,2.09.87,3.52,3.52,0,0,1,.76,2.38V20h-2.56V14.2q0-1.71-1.37-1.71a1.28,1.28,0,0,0-1,.44,1.9,1.9,0,0,0-.38,1.27V20Z" transform="translate(-2.3 -1.95)"/><path class="cls-4" d="M658.29,20.19a5.64,5.64,0,0,1-3.65-1.33l1.12-1.8a4.36,4.36,0,0,0,2.57,1.08,1.21,1.21,0,0,0,.77-.21.65.65,0,0,0,.26-.53v0a.53.53,0,0,0,0-.17.69.69,0,0,0-.08-.16l-.11-.14a.92.92,0,0,0-.18-.13l-.21-.13-.24-.13-.27-.12-.32-.13-.32-.14A6.34,6.34,0,0,1,655.69,15a2.32,2.32,0,0,1-.65-1.75v0A2.68,2.68,0,0,1,656,11a3.53,3.53,0,0,1,2.38-.8,5.42,5.42,0,0,1,3.19,1l-1,1.84a4.26,4.26,0,0,0-2.2-.83,1.07,1.07,0,0,0-.69.2.6.6,0,0,0-.24.49v0a.69.69,0,0,0,.37.57,9.11,9.11,0,0,0,1.16.6l.12,0,.1,0A7.06,7.06,0,0,1,661,15.48a2.23,2.23,0,0,1,.65,1.67v0a2.73,2.73,0,0,1-.95,2.22A3.73,3.73,0,0,1,658.29,20.19Z" transform="translate(-2.3 -1.95)"/><path class="cls-4" d="M569.2,34.43a8.44,8.44,0,0,1,4.5-7.67l.52.85a7.69,7.69,0,0,0-3.69,6.82,7.69,7.69,0,0,0,3.69,6.82l-.52.85A8.44,8.44,0,0,1,569.2,34.43Z" transform="translate(-2.3 -1.95)"/><path class="cls-4" d="M582.78,33.27a3.47,3.47,0,0,1-3,1.75,3.67,3.67,0,0,1-3.82-3.91v0a4,4,0,0,1,4-4.27,3.72,3.72,0,0,1,2.77,1.1c.88.88,1.46,2.27,1.46,4.9V33c0,4.29-1.87,6.86-4.66,6.86a4.91,4.91,0,0,1-3.21-1.24l.7-1.08a3.82,3.82,0,0,0,2.54,1.08C581.57,38.57,582.76,36.25,582.78,33.27Zm-.2-2.25v0a2.73,2.73,0,0,0-2.72-3c-1.6,0-2.58,1.35-2.58,3v0a2.57,2.57,0,0,0,2.61,2.81A2.67,2.67,0,0,0,582.58,31Z" transform="translate(-2.3 -1.95)"/><path class="cls-4" d="M585.82,38.24l.81-1a4.3,4.3,0,0,0,2.9,1.33,2.67,2.67,0,0,0,2.74-2.83v-.05a2.53,2.53,0,0,0-2.74-2.63,4.5,4.5,0,0,0-2.2.58l-.87-.59.32-6h6.3v1.26H588l-.25,4a4.86,4.86,0,0,1,2-.45,3.63,3.63,0,0,1,3.89,3.8v.05a4,4,0,0,1-4.12,4.12A5.38,5.38,0,0,1,585.82,38.24Z" transform="translate(-2.3 -1.95)"/><path class="cls-4" d="M595.32,30.12V30c0-1.78,1.06-3.15,2.57-3.15s2.56,1.37,2.56,3.11v.09c0,1.78-1.06,3.15-2.57,3.15S595.32,31.87,595.32,30.12Zm1.12-.11v.07c0,1.3.65,2.18,1.46,2.18s1.46-.9,1.46-2.16V30c0-1.28-.65-2.18-1.48-2.18S596.44,28.77,596.44,30Zm8.25-3h1.15l-4.29,6.55-3.87,6h-1.15l4.25-6.54Zm-2.79,9.61v-.09c0-1.78,1.06-3.15,2.58-3.15S607,34.75,607,36.5v.09c0,1.78-1.06,3.15-2.58,3.15S601.89,38.37,601.89,36.62Zm4,0v-.07c0-1.28-.65-2.18-1.48-2.18s-1.46.92-1.46,2.16v.07c0,1.3.65,2.18,1.48,2.18S605.93,37.87,605.93,36.61Z" transform="translate(-2.3 -1.95)"/><path class="cls-4" d="M613.5,33.38v-.11c0-3.82,2.38-6.45,5.53-6.45a5.25,5.25,0,0,1,3.83,1.55l-.83,1a4.25,4.25,0,0,0-3-1.31c-2.32,0-4.11,2.13-4.11,5.17v.07c0,3.1,1.78,5.2,4.11,5.2a4.27,4.27,0,0,0,3.11-1.4l.81.94a5.39,5.39,0,0,1-4,1.73C615.83,39.79,613.5,37.22,613.5,33.38Z" transform="translate(-2.3 -1.95)"/><path class="cls-4" d="M625.18,27h1.35v12.6h-1.35Z" transform="translate(-2.3 -1.95)"/><path class="cls-4" d="M628.91,41.25a7.73,7.73,0,0,0,3.69-6.82,7.73,7.73,0,0,0-3.69-6.82l.52-.85a8.43,8.43,0,0,1,4.48,7.67,8.43,8.43,0,0,1-4.48,7.67Z" transform="translate(-2.3 -1.95)"/><path class="cls-4" d="M108.13,313.54h1.35v5.64h6.09v-5.64h1.35v12.6h-1.35v-5.71h-6.09v5.71h-1.35Z" transform="translate(-2.3 -1.95)"/><path class="cls-4" d="M119.94,313.54h4.3a4.54,4.54,0,0,1,3.31,1.17,3.59,3.59,0,0,1,1,2.59v0a3.59,3.59,0,0,1-3,3.64l3.39,5.17h-1.62l-3.17-4.9h-2.86v4.9h-1.35ZM124,320c2.05,0,3.19-1,3.19-2.63v0c0-1.66-1.15-2.57-3-2.57h-2.86V320Z" transform="translate(-2.3 -1.95)"/><path class="cls-4" d="M135.44,317.29h7.42v1.28h-7.42Zm0,3.76h7.42v1.28h-7.42Z" transform="translate(-2.3 -1.95)"/><path class="cls-4" d="M149.66,319.94v-.14c0-3.78,1.78-6.45,4.57-6.45s4.56,2.63,4.56,6.41v.14c0,3.78-1.78,6.45-4.57,6.45S149.66,323.72,149.66,319.94Zm7.74,0v-.14c0-3-1.28-5.22-3.19-5.22s-3.17,2.16-3.17,5.19v.14c0,3,1.26,5.22,3.19,5.22S157.4,323,157.4,319.94Z" transform="translate(-2.3 -1.95)"/><path class="cls-4" d="M160.66,324.29h1.62v1.85h-1.62Z" transform="translate(-2.3 -1.95)"/><path class="cls-4" d="M171.26,319.81a3.47,3.47,0,0,1-3,1.75,3.67,3.67,0,0,1-3.82-3.91v0a4,4,0,0,1,4-4.27,3.71,3.71,0,0,1,2.77,1.1c.88.88,1.46,2.27,1.46,4.9v.14c0,4.29-1.87,6.86-4.66,6.86a4.91,4.91,0,0,1-3.21-1.24l.7-1.08A3.82,3.82,0,0,0,168,325.1C170.05,325.1,171.24,322.78,171.26,319.81Zm-.2-2.25v0a2.73,2.73,0,0,0-2.72-3c-1.6,0-2.57,1.35-2.57,3v0a2.57,2.57,0,0,0,2.61,2.81A2.67,2.67,0,0,0,171.06,317.56Z" transform="translate(-2.3 -1.95)"/><path class="cls-4" d="M180.13,314.8h-5.91v-1.26h7.37v1l-4.86,11.58h-1.46Z" transform="translate(-2.3 -1.95)"/><path class="cls-4" d="M188.14,321a8.44,8.44,0,0,1,4.5-7.67l.52.85a8.15,8.15,0,0,0,0,13.65l-.52.85A8.44,8.44,0,0,1,188.14,321Z" transform="translate(-2.3 -1.95)"/><path class="cls-4" d="M201.72,319.81a3.47,3.47,0,0,1-3,1.75,3.67,3.67,0,0,1-3.82-3.91v0a4,4,0,0,1,4-4.27,3.72,3.72,0,0,1,2.77,1.1c.88.88,1.46,2.27,1.46,4.9v.14c0,4.29-1.87,6.86-4.66,6.86a4.91,4.91,0,0,1-3.21-1.24l.7-1.08a3.82,3.82,0,0,0,2.54,1.08C200.51,325.1,201.7,322.78,201.72,319.81Zm-.2-2.25v0a2.73,2.73,0,0,0-2.72-3c-1.6,0-2.58,1.35-2.58,3v0a2.57,2.57,0,0,0,2.61,2.81A2.67,2.67,0,0,0,201.52,317.56Z" transform="translate(-2.3 -1.95)"/><path class="cls-4" d="M204.76,324.78l.81-1a4.3,4.3,0,0,0,2.9,1.33,2.67,2.67,0,0,0,2.74-2.83v-.05a2.53,2.53,0,0,0-2.74-2.63,4.5,4.5,0,0,0-2.2.58l-.87-.59.32-6H212v1.26H206.9l-.25,4a4.86,4.86,0,0,1,2-.45,3.63,3.63,0,0,1,3.89,3.8v.05a4,4,0,0,1-4.12,4.12A5.38,5.38,0,0,1,204.76,324.78Z" transform="translate(-2.3 -1.95)"/><path class="cls-4" d="M214.26,316.66v-.09c0-1.78,1.06-3.15,2.58-3.15s2.56,1.37,2.56,3.11v.09c0,1.78-1.06,3.15-2.57,3.15S214.26,318.4,214.26,316.66Zm1.12-.11v.07c0,1.3.65,2.18,1.46,2.18s1.46-.9,1.46-2.16v-.07c0-1.28-.65-2.18-1.48-2.18S215.38,315.31,215.38,316.55Zm8.25-3h1.15l-4.29,6.55-3.87,6h-1.15l4.25-6.54Zm-2.79,9.61v-.09c0-1.78,1.06-3.15,2.58-3.15S226,321.29,226,323v.09c0,1.78-1.06,3.15-2.58,3.15S220.83,324.9,220.83,323.16Zm4,0v-.07c0-1.28-.65-2.18-1.48-2.18s-1.46.92-1.46,2.16v.07c0,1.3.65,2.18,1.48,2.18S224.87,324.4,224.87,323.14Z" transform="translate(-2.3 -1.95)"/><path class="cls-4" d="M232.44,319.92v-.11c0-3.82,2.38-6.45,5.53-6.45a5.25,5.25,0,0,1,3.83,1.55l-.83,1a4.25,4.25,0,0,0-3-1.31c-2.32,0-4.11,2.13-4.11,5.17v.07c0,3.1,1.78,5.2,4.11,5.2a4.27,4.27,0,0,0,3.11-1.4l.81.94a5.39,5.39,0,0,1-4,1.73C234.76,326.33,232.44,323.75,232.44,319.92Z" transform="translate(-2.3 -1.95)"/><path class="cls-4" d="M244.12,313.54h1.35v12.6h-1.35Z" transform="translate(-2.3 -1.95)"/><path class="cls-4" d="M248.37,316.78H250v1.84h-1.62Zm0,7.51H250v1.85h-1.62Z" transform="translate(-2.3 -1.95)"/><path class="cls-4" d="M256.9,319.94v-.14c0-3.78,1.78-6.45,4.57-6.45S266,316,266,319.76v.14c0,3.78-1.78,6.45-4.57,6.45S256.9,323.72,256.9,319.94Zm7.74,0v-.14c0-3-1.28-5.22-3.19-5.22s-3.17,2.16-3.17,5.19v.14c0,3,1.26,5.22,3.19,5.22S264.64,323,264.64,319.94Z" transform="translate(-2.3 -1.95)"/><path class="cls-4" d="M267.9,324.29h1.62v1.85H267.9Z" transform="translate(-2.3 -1.95)"/><path class="cls-4" d="M271.5,322.8v-.05a3.29,3.29,0,0,1,2.29-3.11,3.16,3.16,0,0,1-1.93-2.9v-.05a3.77,3.77,0,0,1,7.49,0v.05a3.14,3.14,0,0,1-1.91,2.9,3.35,3.35,0,0,1,2.29,3.1v.05c0,2.13-1.76,3.55-4.12,3.55S271.5,324.89,271.5,322.8Zm6.88-.05v0a2.78,2.78,0,0,0-5.53,0v0a2.79,2.79,0,0,0,5.53,0Zm-.34-6v0a2.43,2.43,0,0,0-4.84,0v0a2.42,2.42,0,0,0,4.84,0Z" transform="translate(-2.3 -1.95)"/><path class="cls-4" d="M287.18,323.23H281.4l-.25-1,6.12-8.79h1.19v8.64h1.67v1.13h-1.67v2.92h-1.28Zm0-1.13v-6.52l-4.5,6.52Z" transform="translate(-2.3 -1.95)"/><path class="cls-4" d="M291.91,320.1h6.82v1.3h-6.82Z" transform="translate(-2.3 -1.95)"/><path class="cls-4" d="M301.88,314.91l-2.05.72-.23-1.17,2.61-1h1v12.68h-1.33Z" transform="translate(-2.3 -1.95)"/><path class="cls-4" d="M306,324.29h1.62v1.85H306Z" transform="translate(-2.3 -1.95)"/><path class="cls-4" d="M310.86,314.91l-2.05.72-.23-1.17,2.61-1h1v12.68h-1.33Z" transform="translate(-2.3 -1.95)"/><path class="cls-4" d="M316.55,314.91l-2.05.72-.23-1.17,2.61-1h1v12.68h-1.33Z" transform="translate(-2.3 -1.95)"/><path class="cls-4" d="M320.24,327.79a8.15,8.15,0,0,0,0-13.65l.52-.85a8.8,8.8,0,0,1,0,15.34Z" transform="translate(-2.3 -1.95)"/><path class="cls-4" d="M327.91,313.6l-1.2.42-.14-.68,1.52-.58h.59v7.39h-.78Z" transform="translate(-2.3 -1.95)"/><path class="cls-4" d="M15.3,260H2.7v-4.19a4.73,4.73,0,0,1,1.16-3.37A4.12,4.12,0,0,1,7,251.16h0a4.05,4.05,0,0,1,3.23,1.31,5.14,5.14,0,0,1,1.18,3.4v1.48H15.3Zm-6.17-2.61v-1.46a2.09,2.09,0,0,0-.56-1.55,2,2,0,0,0-1.46-.56h0a2,2,0,0,0-1.51.55,2.22,2.22,0,0,0-.52,1.59v1.42Z" transform="translate(-2.3 -1.95)"/><path class="cls-4" d="M15.3,249.68H5.65v-2.56H7.36a2.55,2.55,0,0,1-1.87-2.61H8.26v.11A2.32,2.32,0,0,0,9,246.48a3.34,3.34,0,0,0,2.24.65h4Z" transform="translate(-2.3 -1.95)"/><path class="cls-4" d="M14.12,235.94a4.49,4.49,0,0,1,0,6.5,5,5,0,0,1-3.53,1.29h-.2a5,5,0,0,1-3.54-1.3,4.5,4.5,0,0,1,0-6.5,5,5,0,0,1,3.54-1.28h.2A5,5,0,0,1,14.12,235.94Zm-.82,3.23a1.7,1.7,0,0,0-.76-1.46,3.34,3.34,0,0,0-2-.54h-.13a3.32,3.32,0,0,0-2,.56,1.78,1.78,0,0,0,0,2.93,3.34,3.34,0,0,0,2,.54h.13a3.27,3.27,0,0,0,2-.57A1.74,1.74,0,0,0,13.3,239.17Z" transform="translate(-2.3 -1.95)"/><path class="cls-4" d="M18,233H5.65V230.4H7a3.09,3.09,0,0,1-1.51-2.61,3.29,3.29,0,0,1,1.26-2.61,5.44,5.44,0,0,1,3.6-1.06h.29a5.44,5.44,0,0,1,3.6,1.06,3.29,3.29,0,0,1,1.26,2.61,3.16,3.16,0,0,1-1.42,2.61h4Zm-5.51-3.06a1.62,1.62,0,0,0,.74-1.35,1.6,1.6,0,0,0-.74-1.34,3.26,3.26,0,0,0-1.94-.53h-.18a3.26,3.26,0,0,0-1.94.53,1.6,1.6,0,0,0-.74,1.34,1.62,1.62,0,0,0,.74,1.35,3.22,3.22,0,0,0,1.94.54h.18A3.22,3.22,0,0,0,12.51,229.9Z" transform="translate(-2.3 -1.95)"/><path class="cls-4" d="M14.12,215a4.49,4.49,0,0,1,0,6.5,5,5,0,0,1-3.53,1.29h-.2a5,5,0,0,1-3.54-1.3,4.5,4.5,0,0,1,0-6.5,5,5,0,0,1,3.54-1.28h.2A5,5,0,0,1,14.12,215Zm-.82,3.23a1.7,1.7,0,0,0-.76-1.46,3.34,3.34,0,0,0-2-.54h-.13a3.32,3.32,0,0,0-2,.56,1.78,1.78,0,0,0,0,2.93,3.34,3.34,0,0,0,2,.54h.13a3.27,3.27,0,0,0,2-.57A1.74,1.74,0,0,0,13.3,218.23Z" transform="translate(-2.3 -1.95)"/><path class="cls-4" d="M15.3,212H5.65v-2.56H7.36a2.55,2.55,0,0,1-1.87-2.61H8.26V207A2.32,2.32,0,0,0,9,208.82a3.34,3.34,0,0,0,2.24.65h4Z" transform="translate(-2.3 -1.95)"/><path class="cls-4" d="M15.46,202.47a2.78,2.78,0,0,1-.58,1.88,2.52,2.52,0,0,1-2,.68H7.81v1H5.65v-1H3.19v-2.56H5.65v-1.91H7.81v1.91h4.55q.83,0,.83-.79a2.44,2.44,0,0,0-.27-1.1h2A3.75,3.75,0,0,1,15.46,202.47Z" transform="translate(-2.3 -1.95)"/><path class="cls-4" d="M4.63,198.85H2.3v-2.66H4.63Zm10.67-.05H5.65v-2.56H15.3Z" transform="translate(-2.3 -1.95)"/><path class="cls-4" d="M14.12,186.67a4.49,4.49,0,0,1,0,6.5,5,5,0,0,1-3.53,1.29h-.2a5,5,0,0,1-3.54-1.3,4.5,4.5,0,0,1,0-6.5,5,5,0,0,1,3.54-1.28h.2A5,5,0,0,1,14.12,186.67Zm-.82,3.23a1.7,1.7,0,0,0-.76-1.46,3.34,3.34,0,0,0-2-.54h-.13a3.32,3.32,0,0,0-2,.56,1.78,1.78,0,0,0,0,2.93,3.34,3.34,0,0,0,2,.54h.13a3.27,3.27,0,0,0,2-.57A1.74,1.74,0,0,0,13.3,189.9Z" transform="translate(-2.3 -1.95)"/><path class="cls-4" d="M15.3,183.69H5.65v-2.56h1.3a3,3,0,0,1-1.48-2.48,2.62,2.62,0,0,1,.87-2.09,3.52,3.52,0,0,1,2.38-.76H15.3v2.56H9.49q-1.71,0-1.71,1.37a1.28,1.28,0,0,0,.44,1,1.9,1.9,0,0,0,1.27.38H15.3Z" transform="translate(-2.3 -1.95)"/><path class="cls-4" d="M15.48,167.44a2.75,2.75,0,0,1-2.93,2.86h-.11a2.86,2.86,0,0,1-2.3-.91,3.67,3.67,0,0,1-.77-2.46,5.48,5.48,0,0,1,.4-2H9.47a1.61,1.61,0,0,0-1.26.48,1.93,1.93,0,0,0-.43,1.34A5.86,5.86,0,0,0,8.32,169l-2,.7a7.27,7.27,0,0,1-.77-3.29,4,4,0,0,1,1-2.93,4,4,0,0,1,2.92-1H15.3v2.5h-1A3,3,0,0,1,15.48,167.44Zm-1.87-.85a1.75,1.75,0,0,0-.4-1.22,1.35,1.35,0,0,0-1.08-.49h-.81a3.29,3.29,0,0,0-.31,1.42,1.66,1.66,0,0,0,.35,1.13,1.25,1.25,0,0,0,1,.41h0a1.14,1.14,0,0,0,.88-.33A1.36,1.36,0,0,0,13.61,166.59Z" transform="translate(-2.3 -1.95)"/><path class="cls-4" d="M15.3,160.38H2.3v-2.56h13Z" transform="translate(-2.3 -1.95)"/><path class="cls-4" d="M4.63,155.63H2.3V153H4.63Zm10.67-.05H5.65V153H15.3Z" transform="translate(-2.3 -1.95)"/><path class="cls-4" d="M15.37,148.32l-9.72,3.26v-2.66l6.41-1.8L5.65,145.3v-2.59l9.72,3.24Z" transform="translate(-2.3 -1.95)"/><path class="cls-4" d="M15.52,137.74A4.26,4.26,0,0,1,14.16,141a5,5,0,0,1-3.57,1.29h-.16a5.27,5.27,0,0,1-3.55-1.2,3.79,3.79,0,0,1-1.4-3,3.56,3.56,0,0,1,1.43-3,6,6,0,0,1,3.7-1.06l.83,0v5.76a2.45,2.45,0,0,0,1.44-.71,2,2,0,0,0,.5-1.38,2.93,2.93,0,0,0-1-2L14,134.3A4.46,4.46,0,0,1,15.52,137.74Zm-5.78,2v-3.33a3.11,3.11,0,0,0-1.58.51A1.33,1.33,0,0,0,7.58,138a1.38,1.38,0,0,0,.57,1.14A3.09,3.09,0,0,0,9.74,139.74Z" transform="translate(-2.3 -1.95)"/><path class="cls-4" d="M347.49,377.14l-1.6.56-.18-.91,2-.77h.79v9.88h-1Z" transform="translate(-2.3 -1.95)"/><path class="cls-4" d="M350.37,385.08l3.17-3.54c1.18-1.26,1.63-2,1.63-2.89a1.69,1.69,0,0,0-1.77-1.75,2.65,2.65,0,0,0-2.2,1.4l-.73-.62a3.42,3.42,0,0,1,3-1.75,2.6,2.6,0,0,1,2.77,2.63v0c0,1.26-.6,2.09-2,3.54l-2.46,2.78h4.51v1h-6Z" transform="translate(-2.3 -1.95)"/><path class="cls-4" d="M438.4,377.14l-1.6.56-.18-.91,2-.77h.79v9.88h-1Z" transform="translate(-2.3 -1.95)"/><path class="cls-4" d="M442.59,385.21c-.72-.73-1.14-1.75-1.14-3.83v-.11c0-3.26,1.39-5.35,3.64-5.35a3.65,3.65,0,0,1,2.37.88l-.56.84a2.79,2.79,0,0,0-1.85-.76c-1.63,0-2.53,1.8-2.54,4.2a2.72,2.72,0,0,1,2.39-1.33,2.86,2.86,0,0,1,3,3v0a3.11,3.11,0,0,1-3.1,3.27A3,3,0,0,1,442.59,385.21Zm4.2-2.39v0a2,2,0,0,0-2-2.13,2.06,2.06,0,0,0-2.09,2.15v0a2.11,2.11,0,0,0,2.11,2.27A2.08,2.08,0,0,0,446.78,382.82Z" transform="translate(-2.3 -1.95)"/><path class="cls-4" d="M524.74,385.08l3.17-3.54c1.18-1.26,1.63-2,1.63-2.89a1.69,1.69,0,0,0-1.77-1.75,2.65,2.65,0,0,0-2.2,1.4l-.73-.62a3.42,3.42,0,0,1,3-1.75,2.6,2.6,0,0,1,2.77,2.63v0c0,1.26-.6,2.09-2,3.54l-2.46,2.78h4.51v1h-6Z" transform="translate(-2.3 -1.95)"/><path class="cls-4" d="M532.21,381.06v-.11c0-2.95,1.39-5,3.57-5s3.55,2,3.55,5V381c0,2.95-1.39,5-3.57,5S532.21,384,532.21,381.06Zm6,0v-.11c0-2.36-1-4.07-2.49-4.07s-2.47,1.68-2.47,4V381c0,2.36,1,4.07,2.49,4.07S538.24,383.41,538.24,381.06Z" transform="translate(-2.3 -1.95)"/><path class="cls-4" d="M617.62,385.08l3.17-3.54c1.18-1.26,1.63-2,1.63-2.89a1.69,1.69,0,0,0-1.77-1.75,2.66,2.66,0,0,0-2.2,1.4l-.73-.62a3.42,3.42,0,0,1,3-1.75,2.6,2.6,0,0,1,2.77,2.63v0c0,1.26-.6,2.09-2,3.54l-2.46,2.78h4.51v1h-6Z" transform="translate(-2.3 -1.95)"/><path class="cls-4" d="M629.19,383.62h-4.51l-.2-.77,4.77-6.85h.93v6.74h1.31v.88h-1.31v2.27h-1Zm0-.88v-5.08l-3.51,5.08Z" transform="translate(-2.3 -1.95)"/><path class="cls-4" d="M705.22,385.08l3.17-3.54c1.18-1.26,1.63-2,1.63-2.89a1.69,1.69,0,0,0-1.77-1.75,2.66,2.66,0,0,0-2.2,1.4l-.73-.62a3.42,3.42,0,0,1,3-1.75,2.6,2.6,0,0,1,2.76,2.63v0c0,1.26-.6,2.09-2,3.54l-2.46,2.78h4.51v1h-6Z" transform="translate(-2.3 -1.95)"/><path class="cls-4" d="M712.55,383.29v0a2.56,2.56,0,0,1,1.78-2.43,2.46,2.46,0,0,1-1.5-2.26v0a2.94,2.94,0,0,1,5.84,0v0a2.45,2.45,0,0,1-1.49,2.26,2.61,2.61,0,0,1,1.78,2.42v0c0,1.66-1.37,2.77-3.21,2.77S712.55,384.92,712.55,383.29Zm5.36,0v0a2.17,2.17,0,0,0-4.31,0v0a2.17,2.17,0,0,0,4.31,0Zm-.27-4.65v0a1.9,1.9,0,0,0-3.78,0v0a1.89,1.89,0,0,0,3.78,0Z" transform="translate(-2.3 -1.95)"/><path class="cls-4" d="M796.47,384.71l.67-.73a2.93,2.93,0,0,0,2.32,1.11,1.91,1.91,0,0,0,2-2v0c0-1.26-1.08-1.91-2.61-1.91h-.37l-.15-.66L801,377h-4.17v-1h5.52v.79l-2.75,3.47c1.52.17,2.88,1,2.88,2.71v0a2.93,2.93,0,0,1-3.06,3A3.82,3.82,0,0,1,796.47,384.71Z" transform="translate(-2.3 -1.95)"/><path class="cls-4" d="M803.87,385.08l3.17-3.54c1.18-1.26,1.63-2,1.63-2.89a1.69,1.69,0,0,0-1.77-1.75,2.66,2.66,0,0,0-2.2,1.4l-.73-.62a3.42,3.42,0,0,1,3-1.75,2.6,2.6,0,0,1,2.76,2.63v0c0,1.26-.6,2.09-2,3.54l-2.46,2.78h4.51v1h-6Z" transform="translate(-2.3 -1.95)"/><path class="cls-4" d="M888,384.71l.67-.73a2.93,2.93,0,0,0,2.32,1.11,1.91,1.91,0,0,0,2-2v0c0-1.26-1.08-1.91-2.61-1.91H890l-.15-.66,2.72-3.47h-4.17v-1h5.52v.79l-2.75,3.47c1.52.17,2.88,1,2.88,2.71v0a2.93,2.93,0,0,1-3.06,3A3.82,3.82,0,0,1,888,384.71Z" transform="translate(-2.3 -1.95)"/><path class="cls-4" d="M896.72,385.21c-.72-.73-1.14-1.75-1.14-3.83v-.11c0-3.26,1.39-5.35,3.64-5.35a3.65,3.65,0,0,1,2.37.88l-.56.84a2.79,2.79,0,0,0-1.85-.76c-1.63,0-2.53,1.8-2.54,4.2a2.72,2.72,0,0,1,2.39-1.33,2.86,2.86,0,0,1,3,3v0a3.11,3.11,0,0,1-3.1,3.27A3,3,0,0,1,896.72,385.21Zm4.2-2.39v0a2,2,0,0,0-2-2.13,2.06,2.06,0,0,0-2.09,2.15v0a2.11,2.11,0,0,0,2.11,2.27A2.08,2.08,0,0,0,900.92,382.82Z" transform="translate(-2.3 -1.95)"/><path class="cls-4" d="M65.7,381.06v-.11c0-2.95,1.39-5,3.57-5s3.55,2,3.55,5V381c0,2.95-1.39,5-3.57,5S65.7,384,65.7,381.06Zm6,0v-.11c0-2.36-1-4.07-2.49-4.07s-2.47,1.68-2.47,4V381c0,2.36,1,4.07,2.49,4.07S71.74,383.41,71.74,381.06Z" transform="translate(-2.3 -1.95)"/><path class="cls-4" d="M30.77,293.4l3.17-3.54c1.18-1.26,1.63-2,1.63-2.89a1.69,1.69,0,0,0-1.77-1.75,2.66,2.66,0,0,0-2.2,1.4l-.73-.62a3.42,3.42,0,0,1,3-1.75,2.6,2.6,0,0,1,2.77,2.63v0c0,1.26-.6,2.09-2,3.54l-2.46,2.78h4.51v1h-6Z" transform="translate(-2.3 -1.95)"/><path class="cls-4" d="M38.24,289.38v-.11c0-2.95,1.39-5,3.57-5s3.55,2,3.55,5v.11c0,2.95-1.39,5-3.57,5S38.24,292.32,38.24,289.38Zm6,0v-.11c0-2.36-1-4.07-2.49-4.07s-2.47,1.68-2.47,4v.11c0,2.36,1,4.07,2.49,4.07S44.28,291.73,44.28,289.38Z" transform="translate(-2.3 -1.95)"/><path class="cls-4" d="M46.73,286.82v-.07a2,2,0,1,1,4,0v.07a2,2,0,1,1-4,0Zm.87-.08v.06c0,1,.51,1.7,1.14,1.7s1.14-.7,1.14-1.68v-.06c0-1-.51-1.7-1.15-1.7S47.6,285.77,47.6,286.74ZM54,284.39h.9l-3.34,5.11-3,4.72h-.9l3.31-5.1Zm-2.18,7.5v-.07a2,2,0,1,1,4,0v.07a2,2,0,1,1-4,0Zm3.14,0v-.06c0-1-.5-1.7-1.15-1.7s-1.14.72-1.14,1.69v.06c0,1,.5,1.7,1.15,1.7S55,292.86,55,291.87Z" transform="translate(-2.3 -1.95)"/><path class="cls-4" d="M34.59,221.37H30.08l-.2-.77,4.77-6.85h.93v6.74h1.3v.88h-1.3v2.27h-1Zm0-.88v-5.08l-3.51,5.08Z" transform="translate(-2.3 -1.95)"/><path class="cls-4" d="M38.24,218.8v-.11c0-2.95,1.39-5,3.57-5s3.55,2,3.55,5v.11c0,2.95-1.39,5-3.57,5S38.24,221.75,38.24,218.8Zm6,0v-.11c0-2.36-1-4.07-2.49-4.07s-2.47,1.68-2.47,4v.11c0,2.36,1,4.07,2.49,4.07S44.28,221.16,44.28,218.8Z" transform="translate(-2.3 -1.95)"/><path class="cls-4" d="M46.73,216.25v-.07a2,2,0,1,1,4,0v.07a2,2,0,1,1-4,0Zm.87-.08v.06c0,1,.5,1.7,1.14,1.7s1.14-.7,1.14-1.68v-.06c0-1-.51-1.7-1.15-1.7S47.6,215.2,47.6,216.16ZM54,213.82h.9l-3.34,5.11-3,4.72h-.9l3.31-5.1Zm-2.18,7.5v-.07a2,2,0,1,1,4,0v.07a2,2,0,1,1-4,0Zm3.14,0v-.06c0-1-.5-1.7-1.15-1.7s-1.14.72-1.14,1.68v.06c0,1,.51,1.7,1.15,1.7S55,222.29,55,221.3Z" transform="translate(-2.3 -1.95)"/><path class="cls-4" d="M31.49,152.39c-.72-.73-1.14-1.75-1.14-3.83v-.11c0-3.26,1.39-5.35,3.64-5.35a3.65,3.65,0,0,1,2.37.88l-.56.84a2.79,2.79,0,0,0-1.85-.76c-1.63,0-2.53,1.8-2.54,4.2a2.71,2.71,0,0,1,2.39-1.33,2.86,2.86,0,0,1,3,3v0a3.11,3.11,0,0,1-3.1,3.27A3,3,0,0,1,31.49,152.39Zm4.2-2.39v0a2,2,0,0,0-2-2.13A2.06,2.06,0,0,0,31.56,150v0a2.11,2.11,0,0,0,2.11,2.27A2.08,2.08,0,0,0,35.68,150Z" transform="translate(-2.3 -1.95)"/><path class="cls-4" d="M38.24,148.23v-.11c0-2.95,1.39-5,3.57-5s3.55,2,3.55,5v.11c0,2.95-1.39,5-3.57,5S38.24,151.18,38.24,148.23Zm6,0v-.11c0-2.36-1-4.07-2.48-4.07s-2.47,1.68-2.47,4v.11c0,2.36,1,4.07,2.48,4.07S44.27,150.59,44.27,148.23Z" transform="translate(-2.3 -1.95)"/><path class="cls-4" d="M46.73,145.68v-.07a2,2,0,1,1,4,0v.07a2,2,0,1,1-4,0Zm.87-.08v.06c0,1,.5,1.7,1.14,1.7s1.14-.7,1.14-1.68v-.06c0-1-.51-1.7-1.15-1.7S47.6,144.62,47.6,145.59ZM54,143.25h.9l-3.34,5.11-3,4.72h-.9L51,148Zm-2.18,7.5v-.07a2,2,0,1,1,4,0v.07a2,2,0,1,1-4,0Zm3.14,0v-.06c0-1-.5-1.7-1.15-1.7s-1.14.72-1.14,1.68v.06c0,1,.51,1.7,1.15,1.7S55,151.71,55,150.73Z" transform="translate(-2.3 -1.95)"/><path class="cls-4" d="M30.45,80.89v0a2.56,2.56,0,0,1,1.78-2.43,2.46,2.46,0,0,1-1.5-2.26v0a2.72,2.72,0,0,1,2.92-2.58,2.71,2.71,0,0,1,2.92,2.58v0a2.45,2.45,0,0,1-1.49,2.26,2.61,2.61,0,0,1,1.78,2.42v0c0,1.66-1.38,2.77-3.21,2.77S30.45,82.52,30.45,80.89Zm5.36,0v0a2.17,2.17,0,0,0-4.31,0v0a1.94,1.94,0,0,0,2.15,1.88A1.94,1.94,0,0,0,35.81,80.85Zm-.27-4.65v0a1.9,1.9,0,0,0-3.78,0v0a1.89,1.89,0,0,0,3.78,0Z" transform="translate(-2.3 -1.95)"/><path class="cls-4" d="M38.24,78.66v-.11c0-2.95,1.39-5,3.57-5s3.55,2,3.55,5v.11c0,2.95-1.39,5-3.57,5S38.24,81.61,38.24,78.66Zm6,0v-.11c0-2.36-1-4.07-2.49-4.07s-2.47,1.68-2.47,4v.11c0,2.36,1,4.07,2.49,4.07S44.28,81,44.28,78.66Z" transform="translate(-2.3 -1.95)"/><path class="cls-4" d="M46.73,76.11V76a2,2,0,1,1,4,0v.07a2,2,0,1,1-4,0ZM47.6,76v.06c0,1,.5,1.7,1.14,1.7s1.14-.7,1.14-1.68V76c0-1-.51-1.7-1.15-1.7S47.6,75.05,47.6,76ZM54,73.68h.9l-3.34,5.11-3,4.72h-.9L51,78.41Zm-2.18,7.5V81.1a2,2,0,1,1,4,0v.07a2,2,0,1,1-4,0Zm3.14,0V81.1c0-1-.5-1.7-1.15-1.7s-1.14.72-1.14,1.68v.06c0,1,.51,1.7,1.15,1.7S55,82.14,55,81.16Z" transform="translate(-2.3 -1.95)"/><path class="cls-4" d="M35.19,320.7l-1.6.56-.18-.91,2-.77h.79v9.88h-1Z" transform="translate(-2.3 -1.95)"/><path class="cls-4" d="M38.24,324.61v-.11c0-2.95,1.39-5,3.57-5s3.55,2,3.55,5v.11c0,2.95-1.39,5-3.57,5S38.24,327.56,38.24,324.61Zm6,0v-.11c0-2.36-1-4.07-2.48-4.07s-2.47,1.68-2.47,4v.11c0,2.36,1,4.07,2.48,4.07S44.27,327,44.27,324.61Z" transform="translate(-2.3 -1.95)"/><path class="cls-4" d="M46.73,322.06V322a2,2,0,1,1,4,0V322a2,2,0,1,1-4,0Zm.87-.08V322c0,1,.5,1.7,1.14,1.7s1.14-.7,1.14-1.68V322c0-1-.51-1.7-1.15-1.7S47.6,321,47.6,322ZM54,319.63h.9l-3.34,5.11-3,4.72h-.9l3.31-5.1Zm-2.18,7.5v-.07a2,2,0,1,1,4,0v.07a2,2,0,1,1-4,0Zm3.14,0v-.06c0-1-.5-1.7-1.15-1.7s-1.14.72-1.14,1.69v.06c0,1,.51,1.7,1.15,1.7S55,328.1,55,327.11Z" transform="translate(-2.3 -1.95)"/><path class="cls-4" d="M30.66,258.69l.67-.73a2.93,2.93,0,0,0,2.32,1.11,1.91,1.91,0,0,0,2-2v0c0-1.26-1.08-1.91-2.61-1.91h-.37l-.15-.66L35.24,251H31.07v-1h5.52v.79l-2.75,3.47c1.52.17,2.88,1,2.88,2.71v0a2.93,2.93,0,0,1-3.06,3A3.82,3.82,0,0,1,30.66,258.69Z" transform="translate(-2.3 -1.95)"/><path class="cls-4" d="M38.24,255v-.11c0-2.95,1.39-5,3.57-5s3.55,2,3.55,5V255c0,2.95-1.39,5-3.57,5S38.24,258,38.24,255Zm6,0v-.11c0-2.36-1-4.07-2.48-4.07s-2.47,1.68-2.47,4V255c0,2.36,1,4.07,2.48,4.07S44.27,257.4,44.27,255Z" transform="translate(-2.3 -1.95)"/><path class="cls-4" d="M46.73,252.49v-.07a2,2,0,1,1,4,0v.07a2,2,0,1,1-4,0Zm.87-.08v.06c0,1,.5,1.7,1.14,1.7s1.14-.7,1.14-1.68v-.06c0-1-.51-1.7-1.15-1.7S47.6,251.43,47.6,252.4ZM54,250.06h.9l-3.34,5.11-3,4.72h-.9l3.31-5.1Zm-2.18,7.5v-.07a2,2,0,1,1,4,0v.07a2,2,0,1,1-4,0Zm3.14,0v-.06c0-1-.5-1.7-1.15-1.7s-1.14.72-1.14,1.69v.06c0,1,.51,1.7,1.15,1.7S55,258.52,55,257.54Z" transform="translate(-2.3 -1.95)"/><path class="cls-4" d="M30.69,187.25l.63-.79a3.35,3.35,0,0,0,2.26,1,2.08,2.08,0,0,0,2.13-2.2v0a2,2,0,0,0-2.13-2,3.51,3.51,0,0,0-1.71.45l-.67-.46.25-4.7h4.91v1h-4l-.2,3.13a3.78,3.78,0,0,1,1.59-.35,2.83,2.83,0,0,1,3,3v0a3.09,3.09,0,0,1-3.21,3.21A4.19,4.19,0,0,1,30.69,187.25Z" transform="translate(-2.3 -1.95)"/><path class="cls-4" d="M38.24,183.47v-.11c0-2.95,1.39-5,3.57-5s3.55,2,3.55,5v.11c0,2.95-1.39,5-3.57,5S38.24,186.42,38.24,183.47Zm6,0v-.11c0-2.36-1-4.07-2.48-4.07s-2.47,1.68-2.47,4v.11c0,2.36,1,4.07,2.48,4.07S44.27,185.83,44.27,183.47Z" transform="translate(-2.3 -1.95)"/><path class="cls-4" d="M46.73,180.91v-.07a2,2,0,1,1,4,0v.07a2,2,0,1,1-4,0Zm.87-.08v.06c0,1,.5,1.7,1.14,1.7s1.14-.7,1.14-1.68v-.06c0-1-.51-1.7-1.15-1.7S47.6,179.86,47.6,180.83ZM54,178.49h.9l-3.34,5.11-3,4.72h-.9l3.31-5.1ZM51.85,186v-.07a2,2,0,1,1,4,0V186a2,2,0,1,1-4,0ZM55,186v-.06c0-1-.5-1.7-1.15-1.7s-1.14.72-1.14,1.68V186c0,1,.51,1.7,1.15,1.7S55,187,55,186Z" transform="translate(-2.3 -1.95)"/><path class="cls-4" d="M35.94,109.9h-4.6v-1h5.74v.8l-3.79,9H32.15Z" transform="translate(-2.3 -1.95)"/><path class="cls-4" d="M38.24,113.9v-.11c0-2.95,1.39-5,3.57-5s3.55,2,3.55,5v.11c0,2.95-1.39,5-3.57,5S38.24,116.85,38.24,113.9Zm6,0v-.11c0-2.36-1-4.07-2.49-4.07s-2.47,1.68-2.47,4v.11c0,2.36,1,4.07,2.49,4.07S44.28,116.26,44.28,113.9Z" transform="translate(-2.3 -1.95)"/><path class="cls-4" d="M46.73,111.34v-.07a2,2,0,1,1,4,0v.07a2,2,0,1,1-4,0Zm.87-.08v.06c0,1,.5,1.7,1.14,1.7s1.14-.7,1.14-1.68v-.06c0-1-.51-1.7-1.15-1.7S47.6,110.29,47.6,111.26ZM54,108.91h.9L51.59,114l-3,4.72h-.9l3.31-5.1Zm-2.18,7.5v-.07a2,2,0,1,1,4,0v.07a2,2,0,1,1-4,0Zm3.14,0v-.06c0-1-.5-1.7-1.15-1.7s-1.14.72-1.14,1.68v.06c0,1,.51,1.7,1.15,1.7S55,117.38,55,116.4Z" transform="translate(-2.3 -1.95)"/><path class="cls-4" d="M35.67,43.23a2.71,2.71,0,0,1-2.37,1.36,2.86,2.86,0,0,1-3-3v0a3.13,3.13,0,0,1,3.1-3.33,2.89,2.89,0,0,1,2.16.86c.69.69,1.14,1.77,1.14,3.82V43c0,3.34-1.46,5.35-3.64,5.35a3.82,3.82,0,0,1-2.5-1l.55-.84a3,3,0,0,0,2,.84C34.73,47.36,35.66,45.54,35.67,43.23Zm-.16-1.75v0a2.08,2.08,0,1,0-4.13,0v0a2,2,0,0,0,2,2.19A2.09,2.09,0,0,0,35.52,41.47Z" transform="translate(-2.3 -1.95)"/><path class="cls-4" d="M38.24,43.33v-.11c0-2.95,1.39-5,3.57-5s3.55,2,3.55,5v.11c0,2.95-1.39,5-3.57,5S38.24,46.27,38.24,43.33Zm6,0v-.11c0-2.36-1-4.07-2.48-4.07s-2.47,1.68-2.47,4v.11c0,2.36,1,4.07,2.48,4.07S44.27,45.69,44.27,43.33Z" transform="translate(-2.3 -1.95)"/><path class="cls-4" d="M46.73,40.77V40.7a2,2,0,1,1,4,0v.07a2,2,0,1,1-4,0Zm.87-.08v.06c0,1,.5,1.7,1.14,1.7s1.14-.7,1.14-1.68V40.7c0-1-.51-1.7-1.15-1.7S47.6,39.72,47.6,40.69ZM54,38.34h.9l-3.34,5.11-3,4.72h-.9L51,43.07Zm-2.18,7.5v-.07a2,2,0,1,1,4,0v.07a2,2,0,1,1-4,0Zm3.14,0v-.06c0-1-.5-1.7-1.15-1.7s-1.14.72-1.14,1.68v.06c0,1,.51,1.7,1.15,1.7S55,46.81,55,45.83Z" transform="translate(-2.3 -1.95)"/><path class="cls-4" d="M26.56,3.17,25,3.73l-.18-.91,2-.77h.79v9.88h-1Z" transform="translate(-2.3 -1.95)"/><path class="cls-4" d="M29.61,7.09V7C29.61,4,31,2,33.17,2s3.55,2,3.55,5v.11c0,2.95-1.39,5-3.57,5S29.61,10,29.61,7.09Zm6,0V7c0-2.36-1-4.07-2.48-4.07s-2.47,1.68-2.47,4v.11c0,2.36,1,4.07,2.48,4.07S35.64,9.45,35.64,7.09Z" transform="translate(-2.3 -1.95)"/><path class="cls-4" d="M38.24,7.09V7c0-2.95,1.39-5,3.57-5s3.55,2,3.55,5v.11c0,2.95-1.39,5-3.57,5S38.24,10,38.24,7.09Zm6,0V7c0-2.36-1-4.07-2.48-4.07s-2.47,1.68-2.47,4v.11c0,2.36,1,4.07,2.48,4.07S44.27,9.45,44.27,7.09Z" transform="translate(-2.3 -1.95)"/><path class="cls-4" d="M46.73,4.53V4.46a2,2,0,1,1,4,0v.07a2,2,0,1,1-4,0Zm.87-.08v.06c0,1,.5,1.7,1.14,1.7s1.14-.7,1.14-1.68V4.46c0-1-.51-1.7-1.15-1.7S47.6,3.48,47.6,4.45ZM54,2.1h.9L51.59,7.21l-3,4.72h-.9L51,6.84ZM51.85,9.6V9.53a2,2,0,1,1,4,0v.07a2,2,0,1,1-4,0Zm3.14,0V9.53c0-1-.5-1.7-1.15-1.7s-1.14.72-1.14,1.68v.06c0,1,.51,1.7,1.15,1.7S55,10.57,55,9.59Z" transform="translate(-2.3 -1.95)"/><line class="cls-3" x1="68.39" y1="359.33" x2="68.39" y2="5.55"/><line class="cls-3" x1="58.39" y1="359.33" x2="68.17" y2="359.33"/><line class="cls-3" x1="58.39" y1="288.58" x2="68.17" y2="288.58"/><line class="cls-3" x1="58.39" y1="217.82" x2="68.17" y2="217.82"/><line class="cls-3" x1="58.39" y1="147.06" x2="68.17" y2="147.06"/><line class="cls-3" x1="58.39" y1="76.31" x2="68.17" y2="76.31"/><line class="cls-3" x1="58.39" y1="5.55" x2="68.17" y2="5.55"/><line class="cls-3" x1="58.39" y1="324.2" x2="68.17" y2="324.2"/><line class="cls-3" x1="58.39" y1="253.44" x2="68.17" y2="253.44"/><line class="cls-3" x1="58.39" y1="182.68" x2="68.17" y2="182.68"/><line class="cls-3" x1="58.39" y1="111.93" x2="68.17" y2="111.93"/><line class="cls-3" x1="58.39" y1="41.17" x2="68.17" y2="41.17"/><rect class="cls-5" x="313.02" y="46.23" width="29.33" height="22.25"/><rect class="cls-6" x="313.02" y="73.1" width="29.33" height="22.25"/></g></g></svg>