<svg xmlns="http://www.w3.org/2000/svg" viewBox="0 0 442.34 170.29"><defs><style>.cls-1{fill:#f7a800;}.cls-2,.cls-3{fill:none;stroke-miterlimit:10;stroke-width:1.31px;}.cls-2{stroke:#0093c9;}.cls-3{stroke:#808285;}.cls-4{fill:#0093c9;}.cls-5{fill:#808285;}.cls-6{fill:#fff;}</style></defs><title>third-line-chart-1-lg</title><g id="Layer_2" data-name="Layer 2"><g id="Layer_1-2" data-name="Layer 1"><rect class="cls-1" width="442.34" height="170.29"/><line class="cls-2" x1="276.64" y1="84.37" x2="195.74" y2="84.37"/><polyline class="cls-2" points="322.42 78.68 351.07 66.83 383.21 66.83"/><polyline class="cls-3" points="322.42 87.09 351.07 98.95 383.21 98.95"/><rect class="cls-4" x="350.65" y="48.9" width="73.18" height="34.02"/><rect class="cls-5" x="350.65" y="86.52" width="73.18" height="34.71"/><path class="cls-6" d="M359.49,62.6l-2.36-7h1.57l1.48,4.82,1.48-4.82h1.53l-2.36,7Z"/><path class="cls-6" d="M366,62.68a2.37,2.37,0,0,1-1.79-.75,2.77,2.77,0,0,1-.72-2v-.09a2.93,2.93,0,0,1,.67-2,2.11,2.11,0,0,1,1.68-.78,2,2,0,0,1,1.69.79,3.36,3.36,0,0,1,.59,2.06c0,.17,0,.32,0,.46h-3.2a1.36,1.36,0,0,0,.4.8,1.09,1.09,0,0,0,.76.28,1.63,1.63,0,0,0,1.12-.53l.73.86A2.48,2.48,0,0,1,366,62.68Zm-1.11-3.21h1.85a1.73,1.73,0,0,0-.28-.88.74.74,0,0,0-.62-.32.77.77,0,0,0-.64.31A1.72,1.72,0,0,0,364.86,59.47Z"/><path class="cls-6" d="M371,62.68a2.24,2.24,0,0,1-1.75-.77,2.82,2.82,0,0,1-.68-2v-.12a2.83,2.83,0,0,1,.69-2A2.29,2.29,0,0,1,371,57.1a2.38,2.38,0,0,1,1.75.72l-.77,1a1.34,1.34,0,0,0-1-.48.93.93,0,0,0-.79.42,1.79,1.79,0,0,0-.3,1.07v0a1.83,1.83,0,0,0,.3,1.1,1,1,0,0,0,.82.42,1.36,1.36,0,0,0,1-.49l.75.94A2.36,2.36,0,0,1,371,62.68Z"/><path class="cls-6" d="M375,62.65a1.54,1.54,0,0,1-1-.32,1.4,1.4,0,0,1-.37-1.1V58.4H373V57.2h.54V55.83H375V57.2h1.06v1.2H375v2.53q0,.46.44.46a1.36,1.36,0,0,0,.61-.15v1.13A2.08,2.08,0,0,1,375,62.65Z"/><path class="cls-6" d="M376.75,56.63V55.34h1.48v1.29Zm0,5.93V57.2h1.42v5.36Z"/><path class="cls-6" d="M383.47,62a1.83,1.83,0,0,1-1.45.7,1.75,1.75,0,0,1-1.45-.79v.69h-1.42V55.34h1.42v2.6A1.72,1.72,0,0,1,382,57.1a1.83,1.83,0,0,1,1.45.7,3,3,0,0,1,.59,2V60A3,3,0,0,1,383.47,62ZM380.85,61a.9.9,0,0,0,.75.41.88.88,0,0,0,.75-.41,1.81,1.81,0,0,0,.29-1.08v-.1a1.81,1.81,0,0,0-.29-1.08.89.89,0,0,0-.75-.41.9.9,0,0,0-.75.41,1.79,1.79,0,0,0-.3,1.08v.1A1.79,1.79,0,0,0,380.85,61Z"/><path class="cls-6" d="M384.78,56.63V55.34h1.48v1.29Zm0,5.93V57.2h1.42v5.36Z"/><path class="cls-6" d="M388.35,57.2l.84,1.57L390,57.2h1.47L390,59.81l1.61,2.75h-1.51l-.89-1.67-.9,1.67h-1.48l1.6-2.73-1.54-2.63Z"/><path class="cls-6" d="M394.4,58.47a1.55,1.55,0,0,1-2.28,0,1.74,1.74,0,0,1-.46-1.23v-.06a1.76,1.76,0,0,1,.46-1.24,1.55,1.55,0,0,1,2.28,0,1.76,1.76,0,0,1,.46,1.24v0A1.77,1.77,0,0,1,394.4,58.47Zm-2.14-.13a1.34,1.34,0,0,0,2,0,1.59,1.59,0,0,0,.4-1.1v0a1.58,1.58,0,0,0-.4-1.1,1.34,1.34,0,0,0-2,0,1.59,1.59,0,0,0-.39,1.1v.06A1.57,1.57,0,0,0,392.27,58.33Zm.32-.22V56.25h.74q.73,0,.73.61h0a.56.56,0,0,1-.35.56l.4.68h-.53l-.34-.58h-.18v.58Zm.47-1h.24c.19,0,.28-.08.28-.24s-.09-.25-.28-.25h-.24Z"/><path class="cls-6" d="M398.91,61.32V59.69H397.3v-1.3h1.61V56.76h1.33v1.63h1.61v1.3h-1.61v1.63Z"/><path class="cls-6" d="M357.66,74.56v-7h2.6a2.49,2.49,0,0,1,1.83.61,1.66,1.66,0,0,1,.47,1.19v0a1.64,1.64,0,0,1-.95,1.53,2.14,2.14,0,0,1,.93.63,1.61,1.61,0,0,1,.32,1v.05a1.66,1.66,0,0,1-.68,1.42,3.08,3.08,0,0,1-1.85.5Zm3.47-4.93h0a.69.69,0,0,0-.25-.58,1.15,1.15,0,0,0-.72-.2h-1.08v1.58h1a1.3,1.3,0,0,0,.77-.2A.68.68,0,0,0,361.13,69.63Zm.3,2.82a.71.71,0,0,0-.28-.6,1.31,1.31,0,0,0-.81-.21h-1.27v1.64h1.3a1.28,1.28,0,0,0,.78-.21.71.71,0,0,0,.28-.61Z"/><path class="cls-6" d="M365.74,74.65a3.66,3.66,0,0,1-2.59-1l.86-1.07a2.72,2.72,0,0,0,1.74.79,1,1,0,0,0,.66-.19.61.61,0,0,0,.24-.5h0a.61.61,0,0,0-.24-.48,3.71,3.71,0,0,0-1-.47,4.66,4.66,0,0,1-1.53-.85,1.7,1.7,0,0,1-.48-1.29v0a1.89,1.89,0,0,1,.64-1.48,2.39,2.39,0,0,1,1.65-.57,3.26,3.26,0,0,1,2.26.86l-.81,1.1a2.4,2.4,0,0,0-1.49-.65.94.94,0,0,0-.59.17.53.53,0,0,0-.22.44h0a.61.61,0,0,0,.25.5,5.3,5.3,0,0,0,1.08.54,4,4,0,0,1,1.43.85,1.71,1.71,0,0,1,.45,1.25v0a1.93,1.93,0,0,1-.66,1.53A2.49,2.49,0,0,1,365.74,74.65Z"/><path class="cls-6" d="M371.74,74.66a2.82,2.82,0,0,1-2.23-1,3.78,3.78,0,0,1-.85-2.58V71a3.69,3.69,0,0,1,.89-2.57,2.93,2.93,0,0,1,2.28-1,3,3,0,0,1,2.25.93l-.87,1.12a2,2,0,0,0-1.43-.7,1.41,1.41,0,0,0-1.17.61,2.63,2.63,0,0,0-.46,1.62v0a2.6,2.6,0,0,0,.47,1.63,1.43,1.43,0,0,0,1.18.61,2.09,2.09,0,0,0,1.44-.73l.87,1a3.83,3.83,0,0,1-1.06.79A3,3,0,0,1,371.74,74.66Z"/><path class="cls-6" d="M379.27,76a4.81,4.81,0,0,1,0-8.53l.56.93a3.66,3.66,0,0,0-1.33,1.4,4.71,4.71,0,0,0,0,3.87,3.67,3.67,0,0,0,1.33,1.4Z"/><path class="cls-6" d="M380.48,74.56V69.2h1.42v.72a1.69,1.69,0,0,1,1.38-.82,1.45,1.45,0,0,1,1.16.48,2,2,0,0,1,.42,1.33v3.65h-1.42V71.33q0-.95-.76-1a.71.71,0,0,0-.57.25,1.05,1.05,0,0,0-.21.71v3.23Z"/><path class="cls-6" d="M387.71,70.51V69.18h4.46v1.33Zm0,2.39V71.57h4.46V72.9Z"/><path class="cls-6" d="M396,74.56V69l-1.07.29L394.71,68l1.73-.52h1v7Z"/><path class="cls-6" d="M401.42,74.56V73.12h-3l-.18-1.05,3.29-4.55h1.27v4.39h.85v1.21h-.85v1.44Zm-1.6-2.65h1.6V69.65Z"/><path class="cls-6" d="M404.2,74.56V73.39l2.06-2.12a6.13,6.13,0,0,0,.79-.94,1.33,1.33,0,0,0,.21-.71A.79.79,0,0,0,407,69a.85.85,0,0,0-.61-.22,1.1,1.1,0,0,0-.63.19,3.33,3.33,0,0,0-.65.64l-.94-.89a2.79,2.79,0,0,1,2.33-1.27,2.28,2.28,0,0,1,1.59.55,1.91,1.91,0,0,1,.61,1.49v0a2.24,2.24,0,0,1-.33,1.21,8.05,8.05,0,0,1-1.17,1.34l-1.17,1.19h2.67v1.3Z"/><path class="cls-6" d="M409.85,76l-.56-.93a3.67,3.67,0,0,0,1.33-1.4,4.71,4.71,0,0,0,0-3.87,3.66,3.66,0,0,0-1.33-1.4l.56-.93a4.81,4.81,0,0,1,0,8.53Z"/><path class="cls-6" d="M357.66,100.79v-7h2.6a2.49,2.49,0,0,1,1.83.61,1.66,1.66,0,0,1,.47,1.19v0a1.64,1.64,0,0,1-.95,1.53,2.14,2.14,0,0,1,.93.63,1.61,1.61,0,0,1,.32,1v.05a1.66,1.66,0,0,1-.68,1.42,3.08,3.08,0,0,1-1.85.5Zm3.47-4.93h0a.69.69,0,0,0-.25-.58,1.15,1.15,0,0,0-.72-.2h-1.08v1.58h1a1.3,1.3,0,0,0,.77-.2A.68.68,0,0,0,361.13,95.86Zm.3,2.82a.71.71,0,0,0-.28-.6,1.31,1.31,0,0,0-.81-.21h-1.27v1.64h1.3a1.28,1.28,0,0,0,.78-.21.71.71,0,0,0,.28-.61Z"/><path class="cls-6" d="M365.74,100.88a3.66,3.66,0,0,1-2.59-1l.86-1.07a2.72,2.72,0,0,0,1.74.79,1,1,0,0,0,.66-.19.61.61,0,0,0,.24-.5h0a.61.61,0,0,0-.24-.48,3.71,3.71,0,0,0-1-.47,4.66,4.66,0,0,1-1.53-.85,1.7,1.7,0,0,1-.48-1.29v0a1.89,1.89,0,0,1,.64-1.48,2.39,2.39,0,0,1,1.65-.57,3.26,3.26,0,0,1,2.26.86l-.81,1.1a2.4,2.4,0,0,0-1.49-.65.94.94,0,0,0-.59.17.53.53,0,0,0-.22.44h0a.61.61,0,0,0,.25.5,5.3,5.3,0,0,0,1.08.54,4,4,0,0,1,1.43.85,1.71,1.71,0,0,1,.45,1.25v0a1.93,1.93,0,0,1-.66,1.53A2.49,2.49,0,0,1,365.74,100.88Z"/><path class="cls-6" d="M371.74,100.89a2.82,2.82,0,0,1-2.23-1,3.78,3.78,0,0,1-.85-2.58v-.09a3.69,3.69,0,0,1,.89-2.57,2.93,2.93,0,0,1,2.28-1,3,3,0,0,1,2.25.93l-.87,1.12a2,2,0,0,0-1.43-.7,1.41,1.41,0,0,0-1.17.61,2.63,2.63,0,0,0-.46,1.62v0a2.6,2.6,0,0,0,.47,1.63,1.43,1.43,0,0,0,1.18.61,2.09,2.09,0,0,0,1.44-.73l.87,1a3.83,3.83,0,0,1-1.06.79A3,3,0,0,1,371.74,100.89Z"/><path class="cls-6" d="M378,100.89a1.53,1.53,0,0,1-1.59-1.63V99.2a1.59,1.59,0,0,1,.5-1.28,2,2,0,0,1,1.37-.43,3.05,3.05,0,0,1,1.12.22v-.16a.9.9,0,0,0-.27-.7,1.07,1.07,0,0,0-.75-.24,3.25,3.25,0,0,0-1.23.3l-.39-1.11a4,4,0,0,1,1.83-.43,1.94,1.94,0,0,1,2.18,2.17v3.25h-1.39v-.58A1.66,1.66,0,0,1,378,100.89Zm.47-1a1,1,0,0,0,.68-.22.75.75,0,0,0,.27-.6v-.45a1.83,1.83,0,0,0-.79-.17.92.92,0,0,0-.62.19.7.7,0,0,0-.22.56v0a.63.63,0,0,0,.18.49A.75.75,0,0,0,378.49,99.85Z"/><path class="cls-6" d="M381.69,100.79V93.57h1.42v7.22Z"/><path class="cls-6" d="M388.18,100.13a2.49,2.49,0,0,1-3.61,0,2.77,2.77,0,0,1-.71-2v-.11a2.77,2.77,0,0,1,.72-2,2.5,2.5,0,0,1,3.61,0,2.78,2.78,0,0,1,.71,2v.11A2.79,2.79,0,0,1,388.18,100.13Zm-1.79-.46a.94.94,0,0,0,.81-.43,1.85,1.85,0,0,0,.3-1.09v-.07a1.84,1.84,0,0,0-.31-1.09,1,1,0,0,0-1.63,0,1.86,1.86,0,0,0-.3,1.1v.07a1.82,1.82,0,0,0,.32,1.1A1,1,0,0,0,386.38,99.68Z"/><path class="cls-6" d="M389.58,100.79V95.43H391v.72a1.69,1.69,0,0,1,1.38-.82,1.45,1.45,0,0,1,1.16.48,2,2,0,0,1,.42,1.33v3.65h-1.42V97.56q0-.95-.76-1a.71.71,0,0,0-.57.25,1.05,1.05,0,0,0-.21.71v3.23Z"/><path class="cls-6" d="M397.1,100.91a2.37,2.37,0,0,1-1.79-.75,2.77,2.77,0,0,1-.72-2v-.09a2.93,2.93,0,0,1,.67-2,2.11,2.11,0,0,1,1.68-.78,2,2,0,0,1,1.69.79,3.36,3.36,0,0,1,.59,2.06c0,.17,0,.32,0,.46H396a1.36,1.36,0,0,0,.4.8,1.09,1.09,0,0,0,.76.28,1.63,1.63,0,0,0,1.12-.53l.73.86A2.48,2.48,0,0,1,397.1,100.91ZM396,97.7h1.85a1.73,1.73,0,0,0-.28-.88.74.74,0,0,0-.62-.32.77.77,0,0,0-.64.31A1.72,1.72,0,0,0,396,97.7Z"/><path class="cls-6" d="M360.09,114.18a4.81,4.81,0,0,1,0-8.53l.56.93a3.66,3.66,0,0,0-1.33,1.4,4.71,4.71,0,0,0,0,3.87,3.67,3.67,0,0,0,1.33,1.4Z"/><path class="cls-6" d="M361.3,112.79v-5.36h1.42v.72a1.69,1.69,0,0,1,1.38-.82,1.45,1.45,0,0,1,1.16.48,2,2,0,0,1,.42,1.33v3.65h-1.42v-3.23q0-.95-.76-1a.71.71,0,0,0-.57.25,1.05,1.05,0,0,0-.21.71v3.23Z"/><path class="cls-6" d="M368.53,108.74v-1.33H373v1.33Zm0,2.39V109.8H373v1.33Z"/><path class="cls-6" d="M376.83,112.79v-5.56l-1.07.29-.23-1.26,1.73-.52h1v7Z"/><path class="cls-6" d="M379.23,112.79v-1.17l2.06-2.12a6.13,6.13,0,0,0,.79-.94,1.33,1.33,0,0,0,.21-.71.79.79,0,0,0-.23-.61.85.85,0,0,0-.61-.22,1.1,1.1,0,0,0-.63.19,3.33,3.33,0,0,0-.65.64l-.94-.89a2.79,2.79,0,0,1,2.33-1.27,2.28,2.28,0,0,1,1.59.55,1.91,1.91,0,0,1,.61,1.49v0a2.24,2.24,0,0,1-.33,1.21,8.05,8.05,0,0,1-1.17,1.34l-1.17,1.19h2.67v1.3Z"/><path class="cls-6" d="M388.57,112.34a3.08,3.08,0,0,1-3.52,0,1.77,1.77,0,0,1-.69-1.46v0a1.77,1.77,0,0,1,1-1.69,1.72,1.72,0,0,1-.84-1.53v0a1.72,1.72,0,0,1,.63-1.36,2.68,2.68,0,0,1,3.23,0,1.72,1.72,0,0,1,.63,1.36v0a1.71,1.71,0,0,1-.85,1.53,2.26,2.26,0,0,1,.78.67,1.7,1.7,0,0,1,.27,1v0A1.8,1.8,0,0,1,388.57,112.34Zm-2.51-.9a1.08,1.08,0,0,0,.75.26,1.09,1.09,0,0,0,.75-.26.87.87,0,0,0,.29-.68v0a.85.85,0,0,0-.29-.68,1.24,1.24,0,0,0-1.5,0,.85.85,0,0,0-.29.68v0A.88.88,0,0,0,386.06,111.44Zm.75-2.8a.84.84,0,0,0,.63-.25.89.89,0,0,0,.25-.65h0a.83.83,0,0,0-.25-.62.86.86,0,0,0-.62-.24.87.87,0,0,0-.64.24.83.83,0,0,0-.24.62h0a.89.89,0,0,0,.24.65A.85.85,0,0,0,386.81,108.64Z"/><path class="cls-6" d="M390.26,114.18l-.56-.93a3.67,3.67,0,0,0,1.33-1.4,4.71,4.71,0,0,0,0-3.87,3.66,3.66,0,0,0-1.33-1.4l.56-.93a4.81,4.81,0,0,1,0,8.53Z"/><rect class="cls-4" x="176.4" y="49.06" width="75.95" height="72.17"/><path class="cls-6" d="M191.16,71.1l-.85-2.22h-.74l-.52,2.22h-1.52l1.71-7h2a2.79,2.79,0,0,1,2,.65,2,2,0,0,1,.54,1.44,2.42,2.42,0,0,1-.65,1.76l-.27.25a2.43,2.43,0,0,1-.38.25,2.94,2.94,0,0,1-.64.26l1,2.39Zm-1.23-3.55h.81a1.64,1.64,0,0,0,1.19-.39,1.19,1.19,0,0,0,.32-.85.78.78,0,0,0-.23-.59,1.19,1.19,0,0,0-.87-.25h-.74Z"/><path class="cls-6" d="M193,71.1l4.19-7h1.47l.75,7h-1.55l-.12-1.57h-2.25l-.87,1.57Zm3.34-2.91h1.25l-.11-2.29Z"/><path class="cls-6" d="M202.28,71.2a3,3,0,0,1-2.58-1.28l1.13-1a2.19,2.19,0,0,0,1.52.92.75.75,0,0,0,.52-.18.58.58,0,0,0,.2-.45.7.7,0,0,0-.19-.44,4.4,4.4,0,0,0-.71-.6,4.7,4.7,0,0,1-1-1,1.67,1.67,0,0,1-.33-1,2.09,2.09,0,0,1,.6-1.51A2.39,2.39,0,0,1,203.2,64a3,3,0,0,1,2.3,1l-1,1.05a1.92,1.92,0,0,0-1.31-.75.71.71,0,0,0-.52.18.58.58,0,0,0-.19.43.69.69,0,0,0,.18.44,4.19,4.19,0,0,0,.71.6,4.59,4.59,0,0,1,1,.94,1.72,1.72,0,0,1,.34,1,2.09,2.09,0,0,1-.63,1.54A2.39,2.39,0,0,1,202.28,71.2Z"/><path class="cls-6" d="M207.55,71.1V65.74H209v.72a1.68,1.68,0,0,1,1.39-.82,1.39,1.39,0,0,1,1.32.78,1.93,1.93,0,0,1,1.52-.78,1.5,1.5,0,0,1,1.16.46,1.9,1.9,0,0,1,.43,1.33V71.1h-1.41V67.87q0-.95-.74-1a.68.68,0,0,0-.56.25,1.09,1.09,0,0,0-.2.71V71.1h-1.42V67.87q0-.95-.73-1a.68.68,0,0,0-.56.25,1.09,1.09,0,0,0-.2.71V71.1Z"/><path class="cls-6" d="M217.21,71.2a1.45,1.45,0,0,1-1.17-.48,2,2,0,0,1-.42-1.33V65.74H217V69q0,.95.76.95a.71.71,0,0,0,.58-.24,1.07,1.07,0,0,0,.21-.71V65.74H220V71.1h-1.42v-.72A1.65,1.65,0,0,1,217.21,71.2Z"/><path class="cls-6" d="M222.53,71.19a1.54,1.54,0,0,1-1-.32,1.4,1.4,0,0,1-.37-1.1V66.94h-.54v-1.2h.54V64.37h1.42v1.37h1.06v1.2h-1.06v2.53q0,.46.44.46a1.35,1.35,0,0,0,.61-.15v1.13A2.08,2.08,0,0,1,222.53,71.19Z"/><path class="cls-6" d="M225.58,71.2A1.53,1.53,0,0,1,224,69.57v-.06a1.59,1.59,0,0,1,.5-1.28,2,2,0,0,1,1.37-.43A3,3,0,0,1,227,68v-.16a.9.9,0,0,0-.26-.7,1.07,1.07,0,0,0-.75-.24,3.25,3.25,0,0,0-1.23.3l-.39-1.11a4,4,0,0,1,1.83-.43,1.94,1.94,0,0,1,2.18,2.17V71.1H227v-.58A1.66,1.66,0,0,1,225.58,71.2Zm.47-1a1,1,0,0,0,.68-.22.75.75,0,0,0,.27-.6v-.45a1.82,1.82,0,0,0-.79-.17.92.92,0,0,0-.62.19.7.7,0,0,0-.22.56v0a.63.63,0,0,0,.19.49A.75.75,0,0,0,226.05,70.16Z"/><path class="cls-6" d="M230.84,71.19a1.54,1.54,0,0,1-1-.32,1.4,1.4,0,0,1-.37-1.1V66.94h-.54v-1.2h.54V64.37h1.42v1.37h1.06v1.2h-1.06v2.53q0,.46.44.46a1.35,1.35,0,0,0,.61-.15v1.13A2.08,2.08,0,0,1,230.84,71.19Z"/><path class="cls-6" d="M232.6,65.17V63.88h1.48v1.29Zm0,5.93V65.74h1.42V71.1Z"/><path class="cls-6" d="M239.12,70.44a2.5,2.5,0,0,1-3.61,0,2.77,2.77,0,0,1-.71-2v-.11a2.78,2.78,0,0,1,.72-2,2.5,2.5,0,0,1,3.61,0,2.78,2.78,0,0,1,.71,2v.11A2.79,2.79,0,0,1,239.12,70.44ZM237.32,70a.94.94,0,0,0,.81-.43,1.85,1.85,0,0,0,.3-1.09V68.4a1.84,1.84,0,0,0-.31-1.09,1,1,0,0,0-1.63,0,1.86,1.86,0,0,0-.3,1.1v.07a1.82,1.82,0,0,0,.32,1.1A1,1,0,0,0,237.32,70Z"/><path class="cls-6" d="M240.52,71.1V65.74h1.42v.72a1.69,1.69,0,0,1,1.38-.82,1.45,1.45,0,0,1,1.16.48,2,2,0,0,1,.42,1.33V71.1h-1.42V67.87q0-.95-.76-1a.71.71,0,0,0-.57.25,1.05,1.05,0,0,0-.21.71V71.1Z"/><path class="cls-6" d="M189.69,83.2a3.14,3.14,0,0,1-2-.74l.62-1a2.43,2.43,0,0,0,1.43.6.67.67,0,0,0,.42-.11.36.36,0,0,0,.15-.3v0a.3.3,0,0,0,0-.09.38.38,0,0,0,0-.09l-.06-.08-.1-.07-.12-.07-.13-.07-.15-.06-.18-.08-.18-.08a3.51,3.51,0,0,1-1-.65,1.29,1.29,0,0,1-.36-1v0a1.49,1.49,0,0,1,.52-1.2,2,2,0,0,1,1.32-.44,3,3,0,0,1,1.77.58l-.57,1a2.37,2.37,0,0,0-1.22-.46.6.6,0,0,0-.38.11.34.34,0,0,0-.14.27v0a.38.38,0,0,0,.21.31,5.1,5.1,0,0,0,.65.33l.06,0,.06,0a4,4,0,0,1,1.06.68,1.24,1.24,0,0,1,.36.93v0a1.51,1.51,0,0,1-.52,1.23A2.07,2.07,0,0,1,189.69,83.2Z"/><path class="cls-6" d="M193.84,83.19a1.54,1.54,0,0,1-1-.32,1.4,1.4,0,0,1-.37-1.1V78.94h-.54v-1.2h.54V76.37h1.42v1.37h1.06v1.2h-1.06v2.53q0,.46.44.46a1.35,1.35,0,0,0,.61-.15v1.13A2.08,2.08,0,0,1,193.84,83.19Z"/><path class="cls-6" d="M196.89,83.2a1.53,1.53,0,0,1-1.59-1.63v-.06a1.59,1.59,0,0,1,.5-1.28,2,2,0,0,1,1.37-.43,3,3,0,0,1,1.12.22v-.16a.9.9,0,0,0-.26-.7,1.07,1.07,0,0,0-.75-.24,3.25,3.25,0,0,0-1.23.3l-.39-1.11a4,4,0,0,1,1.83-.43,1.94,1.94,0,0,1,2.18,2.17V83.1h-1.39v-.58A1.66,1.66,0,0,1,196.89,83.2Zm.47-1a1,1,0,0,0,.68-.22.75.75,0,0,0,.27-.6v-.45a1.83,1.83,0,0,0-.79-.17.92.92,0,0,0-.62.19.69.69,0,0,0-.22.56v0a.63.63,0,0,0,.19.49A.75.75,0,0,0,197.36,82.16Z"/><path class="cls-6" d="M202.15,83.19a1.54,1.54,0,0,1-1-.32,1.4,1.4,0,0,1-.37-1.1V78.94h-.54v-1.2h.54V76.37h1.42v1.37h1.06v1.2h-1.06v2.53q0,.46.44.46a1.35,1.35,0,0,0,.61-.15v1.13A2.08,2.08,0,0,1,202.15,83.19Z"/><path class="cls-6" d="M205.44,83.2a1.45,1.45,0,0,1-1.17-.48,2,2,0,0,1-.42-1.33V77.74h1.41V81q0,.95.76.95a.71.71,0,0,0,.58-.24,1.07,1.07,0,0,0,.21-.71V77.74h1.42V83.1h-1.42v-.72A1.65,1.65,0,0,1,205.44,83.2Z"/><path class="cls-6" d="M210.74,83.2a3.14,3.14,0,0,1-2-.74l.62-1a2.43,2.43,0,0,0,1.43.6.67.67,0,0,0,.42-.11.36.36,0,0,0,.15-.3v0a.3.3,0,0,0,0-.09.38.38,0,0,0,0-.09l-.06-.08-.1-.07-.12-.07-.13-.07-.15-.06-.18-.08-.18-.08a3.51,3.51,0,0,1-1-.65,1.29,1.29,0,0,1-.36-1v0a1.49,1.49,0,0,1,.52-1.2,2,2,0,0,1,1.32-.44,3,3,0,0,1,1.77.58l-.57,1a2.37,2.37,0,0,0-1.22-.46.6.6,0,0,0-.38.11.34.34,0,0,0-.14.27v0a.38.38,0,0,0,.21.31,5.1,5.1,0,0,0,.65.33l.06,0,.06,0a4,4,0,0,1,1.06.68,1.24,1.24,0,0,1,.36.93v0a1.51,1.51,0,0,1-.52,1.23A2.07,2.07,0,0,1,210.74,83.2Z"/><path class="cls-6" d="M189.38,95.2a1.53,1.53,0,0,1-1.59-1.63v-.06a1.59,1.59,0,0,1,.5-1.28,2,2,0,0,1,1.37-.43,3,3,0,0,1,1.12.22v-.16a.9.9,0,0,0-.26-.7,1.07,1.07,0,0,0-.75-.24,3.25,3.25,0,0,0-1.23.3l-.39-1.11a4,4,0,0,1,1.83-.43,1.94,1.94,0,0,1,2.18,2.17V95.1h-1.39v-.58A1.66,1.66,0,0,1,189.38,95.2Zm.47-1a1,1,0,0,0,.68-.22.75.75,0,0,0,.27-.6v-.45a1.83,1.83,0,0,0-.79-.17.92.92,0,0,0-.62.19.69.69,0,0,0-.22.56v0a.63.63,0,0,0,.19.49A.75.75,0,0,0,189.85,94.16Z"/><path class="cls-6" d="M194.62,95.2a3.14,3.14,0,0,1-2-.74l.62-1a2.43,2.43,0,0,0,1.43.6.67.67,0,0,0,.42-.11.36.36,0,0,0,.15-.3v0a.3.3,0,0,0,0-.09.38.38,0,0,0,0-.09l-.06-.08-.1-.07-.12-.07-.13-.07-.15-.06-.18-.08-.18-.08a3.51,3.51,0,0,1-1-.65,1.29,1.29,0,0,1-.36-1v0a1.49,1.49,0,0,1,.52-1.2,2,2,0,0,1,1.32-.44,3,3,0,0,1,1.77.58l-.57,1a2.37,2.37,0,0,0-1.22-.46.6.6,0,0,0-.38.11.34.34,0,0,0-.14.27v0a.38.38,0,0,0,.21.31,5.1,5.1,0,0,0,.65.33l.06,0,.06,0a4,4,0,0,1,1.06.68,1.24,1.24,0,0,1,.36.93v0a1.51,1.51,0,0,1-.52,1.23A2.07,2.07,0,0,1,194.62,95.2Z"/><path class="cls-6" d="M198.75,95.2a3.14,3.14,0,0,1-2-.74l.62-1a2.43,2.43,0,0,0,1.43.6.67.67,0,0,0,.42-.11.36.36,0,0,0,.15-.3v0a.3.3,0,0,0,0-.09.38.38,0,0,0,0-.09l-.06-.08-.1-.07-.12-.07-.13-.07-.15-.06-.18-.08-.18-.08a3.51,3.51,0,0,1-1-.65,1.29,1.29,0,0,1-.36-1v0a1.49,1.49,0,0,1,.52-1.2,2,2,0,0,1,1.32-.44,3,3,0,0,1,1.77.58l-.57,1a2.37,2.37,0,0,0-1.22-.46.6.6,0,0,0-.38.11.34.34,0,0,0-.14.27v0a.38.38,0,0,0,.21.31,5.1,5.1,0,0,0,.65.33l.06,0,.06,0a4,4,0,0,1,1.06.68,1.24,1.24,0,0,1,.36.93v0a1.51,1.51,0,0,1-.52,1.23A2.07,2.07,0,0,1,198.75,95.2Z"/><path class="cls-6" d="M203.55,95.22a2.37,2.37,0,0,1-1.79-.75,2.77,2.77,0,0,1-.71-2v-.09a2.93,2.93,0,0,1,.67-2,2.11,2.11,0,0,1,1.67-.78,2,2,0,0,1,1.69.79,3.36,3.36,0,0,1,.59,2.06q0,.25,0,.46h-3.2a1.36,1.36,0,0,0,.4.8,1.09,1.09,0,0,0,.77.28,1.63,1.63,0,0,0,1.12-.53l.73.86A2.48,2.48,0,0,1,203.55,95.22ZM202.44,92h1.85a1.73,1.73,0,0,0-.29-.88.74.74,0,0,0-.62-.32.77.77,0,0,0-.63.31A1.71,1.71,0,0,0,202.44,92Z"/><path class="cls-6" d="M208,95.2a3.14,3.14,0,0,1-2-.74l.62-1a2.43,2.43,0,0,0,1.43.6.67.67,0,0,0,.42-.11.36.36,0,0,0,.15-.3v0a.3.3,0,0,0,0-.09.38.38,0,0,0,0-.09l-.06-.08-.1-.07-.12-.07-.13-.07-.15-.06-.18-.08-.18-.08a3.51,3.51,0,0,1-1-.65,1.29,1.29,0,0,1-.36-1v0a1.49,1.49,0,0,1,.52-1.2,2,2,0,0,1,1.32-.44,3,3,0,0,1,1.77.58l-.57,1A2.37,2.37,0,0,0,208,90.8a.6.6,0,0,0-.38.11.34.34,0,0,0-.14.27v0a.38.38,0,0,0,.21.31,5.1,5.1,0,0,0,.65.33l.06,0,.06,0a4,4,0,0,1,1.06.68,1.24,1.24,0,0,1,.36.93v0a1.51,1.51,0,0,1-.52,1.23A2.07,2.07,0,0,1,208,95.2Z"/><path class="cls-6" d="M212.09,95.2a3.14,3.14,0,0,1-2-.74l.62-1a2.43,2.43,0,0,0,1.43.6.67.67,0,0,0,.42-.11.36.36,0,0,0,.15-.3v0a.3.3,0,0,0,0-.09.38.38,0,0,0,0-.09l-.06-.08-.1-.07-.12-.07-.13-.07-.15-.06-.18-.08-.18-.08a3.51,3.51,0,0,1-1-.65,1.29,1.29,0,0,1-.36-1v0a1.49,1.49,0,0,1,.52-1.2,2,2,0,0,1,1.32-.44,3,3,0,0,1,1.77.58l-.57,1a2.37,2.37,0,0,0-1.22-.46.6.6,0,0,0-.38.11.34.34,0,0,0-.14.27v0a.38.38,0,0,0,.21.31,5.1,5.1,0,0,0,.65.33l.06,0,.06,0a4,4,0,0,1,1.06.68,1.24,1.24,0,0,1,.36.93v0a1.51,1.51,0,0,1-.52,1.23A2.07,2.07,0,0,1,212.09,95.2Z"/><path class="cls-6" d="M216.89,95.22a2.37,2.37,0,0,1-1.79-.75,2.77,2.77,0,0,1-.71-2v-.09a2.93,2.93,0,0,1,.67-2,2.11,2.11,0,0,1,1.67-.78,2,2,0,0,1,1.69.79,3.36,3.36,0,0,1,.59,2.06q0,.25,0,.46h-3.2a1.36,1.36,0,0,0,.4.8A1.09,1.09,0,0,0,217,94a1.63,1.63,0,0,0,1.12-.53l.73.86A2.48,2.48,0,0,1,216.89,95.22ZM215.78,92h1.85a1.73,1.73,0,0,0-.29-.88.74.74,0,0,0-.62-.32.77.77,0,0,0-.63.31A1.71,1.71,0,0,0,215.78,92Z"/><path class="cls-6" d="M221.53,95.2a1.83,1.83,0,0,1-1.45-.7,3,3,0,0,1-.59-2v-.16a3,3,0,0,1,.59-2,1.83,1.83,0,0,1,1.45-.7,1.79,1.79,0,0,1,1.45.79V87.88h1.42V95.1H223v-.74A1.71,1.71,0,0,1,221.53,95.2Zm-.32-1.65A.89.89,0,0,0,222,94a.9.9,0,0,0,.75-.41,1.79,1.79,0,0,0,.3-1.08v-.1a1.79,1.79,0,0,0-.3-1.08.9.9,0,0,0-.75-.41.89.89,0,0,0-.74.41,1.81,1.81,0,0,0-.3,1.08v.1A1.81,1.81,0,0,0,221.21,93.55Z"/><path class="cls-6" d="M190.63,108.49a4.81,4.81,0,0,1,0-8.53l.56.93a3.66,3.66,0,0,0-1.33,1.4,4.71,4.71,0,0,0,0,3.87,3.67,3.67,0,0,0,1.33,1.4Z"/><path class="cls-6" d="M191.84,107.1v-5.36h1.42v.72a1.69,1.69,0,0,1,1.38-.82,1.45,1.45,0,0,1,1.16.48,2,2,0,0,1,.42,1.33v3.65H194.8v-3.23q0-.95-.76-1a.71.71,0,0,0-.57.25,1.05,1.05,0,0,0-.21.71v3.23Z"/><path class="cls-6" d="M199.07,103v-1.33h4.46V103Zm0,2.39v-1.33h4.46v1.33Z"/><path class="cls-6" d="M208.43,107.22a3,3,0,0,1-2.31-1l.87-1a1.91,1.91,0,0,0,1.41.68,1,1,0,0,0,.7-.25.86.86,0,0,0,.27-.66v0a.8.8,0,0,0-.36-.7,1.82,1.82,0,0,0-1-.25h-.42l-.17-.92,1.54-1.71h-2.43V100.1h4.21v1.15L209.06,103a2.41,2.41,0,0,1,1.25.63,1.76,1.76,0,0,1,.49,1.32v0a2.17,2.17,0,0,1-.65,1.64A2.37,2.37,0,0,1,208.43,107.22Z"/><path class="cls-6" d="M211.45,107.1v-1.17l2.06-2.12a6.13,6.13,0,0,0,.79-.94,1.33,1.33,0,0,0,.21-.71.79.79,0,0,0-.23-.61.85.85,0,0,0-.6-.22,1.1,1.1,0,0,0-.63.19,3.33,3.33,0,0,0-.65.64l-.94-.89a2.79,2.79,0,0,1,2.33-1.27,2.28,2.28,0,0,1,1.59.55A1.91,1.91,0,0,1,216,102v0a2.23,2.23,0,0,1-.33,1.21,8,8,0,0,1-1.16,1.34l-1.17,1.19H216v1.3Z"/><path class="cls-6" d="M219.66,107.1v-1.44h-3l-.18-1.05,3.29-4.55H221v4.39h.85v1.21H221v1.44Zm-1.6-2.65h1.6v-2.26Z"/><path class="cls-6" d="M222.89,108.49l-.56-.93a3.68,3.68,0,0,0,1.33-1.4,4.71,4.71,0,0,0,0-3.87,3.67,3.67,0,0,0-1.33-1.4l.56-.93a4.81,4.81,0,0,1,0,8.53Z"/><path class="cls-6" d="M226.81,103.77l.08-.75-.62.06v-.48l.62.06-.06-.93.06-.92-.62.06v-.48l.62.06-.08-.76h.52l-.08.76.61-.06v.48l-.62-.06.06.92-.06.93.62-.06v.48l-.61-.06.08.75Z"/><rect class="cls-4" x="261.15" y="49.06" width="68.62" height="72.17"/><path class="cls-6" d="M271.64,71.1v-7H274a2.63,2.63,0,0,1,1.87.65,2.29,2.29,0,0,1,.69,1.75v0a2.25,2.25,0,0,1-.73,1.79,2.85,2.85,0,0,1-1.89.66h-.82V71.1Zm1.45-3.43h.81a1.16,1.16,0,0,0,.86-.31,1.1,1.1,0,0,0,.31-.81h0a1.1,1.1,0,0,0-.3-.84,1.24,1.24,0,0,0-.88-.29h-.79Z"/><path class="cls-6" d="M278.41,71.2a1.53,1.53,0,0,1-1.59-1.63v-.06a1.59,1.59,0,0,1,.5-1.28,2,2,0,0,1,1.37-.43,3.05,3.05,0,0,1,1.12.22v-.16a.9.9,0,0,0-.27-.7,1.07,1.07,0,0,0-.75-.24,3.25,3.25,0,0,0-1.23.3l-.39-1.11a4,4,0,0,1,1.83-.43,1.94,1.94,0,0,1,2.18,2.17V71.1h-1.39v-.58A1.66,1.66,0,0,1,278.41,71.2Zm.47-1a1,1,0,0,0,.68-.22.75.75,0,0,0,.27-.6v-.45a1.83,1.83,0,0,0-.79-.17.92.92,0,0,0-.62.19.7.7,0,0,0-.22.56v0a.63.63,0,0,0,.18.49A.75.75,0,0,0,278.87,70.16Z"/><path class="cls-6" d="M283.66,71.19a1.54,1.54,0,0,1-1-.32,1.4,1.4,0,0,1-.37-1.1V66.94h-.54v-1.2h.54V64.37h1.42v1.37h1.06v1.2h-1.06v2.53q0,.46.44.46a1.36,1.36,0,0,0,.61-.15v1.13A2.08,2.08,0,0,1,283.66,71.19Z"/><path class="cls-6" d="M285.42,65.17V63.88h1.48v1.29Zm0,5.93V65.74h1.42V71.1Z"/><path class="cls-6" d="M290.12,71.22a2.37,2.37,0,0,1-1.79-.75,2.77,2.77,0,0,1-.72-2v-.09a2.93,2.93,0,0,1,.67-2,2.11,2.11,0,0,1,1.68-.78,2,2,0,0,1,1.69.79,3.36,3.36,0,0,1,.59,2.06c0,.17,0,.32,0,.46H289a1.36,1.36,0,0,0,.4.8,1.09,1.09,0,0,0,.76.28,1.63,1.63,0,0,0,1.12-.53l.73.86A2.48,2.48,0,0,1,290.12,71.22ZM289,68h1.85a1.73,1.73,0,0,0-.28-.88.74.74,0,0,0-.62-.32.77.77,0,0,0-.64.31A1.72,1.72,0,0,0,289,68Z"/><path class="cls-6" d="M292.91,71.1V65.74h1.42v.72a1.69,1.69,0,0,1,1.38-.82,1.45,1.45,0,0,1,1.16.48,2,2,0,0,1,.42,1.33V71.1h-1.42V67.87q0-.95-.76-1a.71.71,0,0,0-.57.25,1.05,1.05,0,0,0-.21.71V71.1Z"/><path class="cls-6" d="M299.77,71.19a1.54,1.54,0,0,1-1-.32,1.4,1.4,0,0,1-.37-1.1V66.94h-.54v-1.2h.54V64.37h1.42v1.37h1.06v1.2h-1.06v2.53q0,.46.44.46a1.36,1.36,0,0,0,.61-.15v1.13A2.08,2.08,0,0,1,299.77,71.19Z"/><path class="cls-6" d="M303.13,71.2a3.14,3.14,0,0,1-2-.74l.62-1a2.42,2.42,0,0,0,1.43.6.67.67,0,0,0,.42-.11.36.36,0,0,0,.15-.3v0a.28.28,0,0,0,0-.09.34.34,0,0,0,0-.09l-.06-.08-.1-.07-.11-.07-.14-.07-.15-.06-.18-.08-.18-.08a3.51,3.51,0,0,1-1-.65,1.29,1.29,0,0,1-.36-1v0a1.49,1.49,0,0,1,.52-1.2,2,2,0,0,1,1.32-.44,3,3,0,0,1,1.77.58l-.57,1a2.36,2.36,0,0,0-1.22-.46.59.59,0,0,0-.38.11.34.34,0,0,0-.13.27v0a.38.38,0,0,0,.2.31,5.07,5.07,0,0,0,.65.33l.07,0,.05,0a3.92,3.92,0,0,1,1.06.68,1.24,1.24,0,0,1,.36.93v0a1.51,1.51,0,0,1-.53,1.23A2.07,2.07,0,0,1,303.13,71.2Z"/><path class="cls-6" d="M272.56,83.14l-1.42-5.4h1.43l.73,3.17.83-3.19h1.21l.84,3.2.74-3.18h1.41l-1.44,5.4h-1.31L274.73,80l-.87,3.18Z"/><path class="cls-6" d="M278.87,77.17V75.88h1.48v1.29Zm0,5.93V77.74h1.42V83.1Z"/><path class="cls-6" d="M282.91,83.19a1.54,1.54,0,0,1-1-.32,1.4,1.4,0,0,1-.37-1.1V78.94h-.54v-1.2h.54V76.37h1.42v1.37H284v1.2h-1.06v2.53q0,.46.44.46a1.36,1.36,0,0,0,.61-.15v1.13A2.08,2.08,0,0,1,282.91,83.19Z"/><path class="cls-6" d="M284.65,83.1V75.88h1.42v2.58a1.69,1.69,0,0,1,1.38-.82,1.45,1.45,0,0,1,1.16.48,2,2,0,0,1,.42,1.33V83.1h-1.42V79.87q0-.95-.76-1a.71.71,0,0,0-.57.25,1.05,1.05,0,0,0-.21.71V83.1Z"/><path class="cls-6" d="M293.51,83.14l-2-7H293l1.18,4.61,1.28-4.63h1.26l1.29,4.63,1.17-4.61h1.5l-2,7h-1.33l-1.28-4.45-1.28,4.45Z"/><path class="cls-6" d="M302.74,83.1V77.44H301V76.1h5v1.34h-1.76V83.1Z"/><path class="cls-6" d="M274.6,95.1l-.85-2.22H273l-.52,2.22H271l1.71-7h2a2.79,2.79,0,0,1,2,.65,2,2,0,0,1,.54,1.44,2.42,2.42,0,0,1-.65,1.76l-.26.25a2.46,2.46,0,0,1-.38.25,3,3,0,0,1-.63.26l1,2.39Zm-1.23-3.55h.81a1.64,1.64,0,0,0,1.19-.39,1.19,1.19,0,0,0,.32-.85.78.78,0,0,0-.23-.59,1.19,1.19,0,0,0-.87-.25h-.74Z"/><path class="cls-6" d="M276.41,95.1l4.19-7h1.47l.75,7h-1.55l-.12-1.57h-2.25L278,95.1Zm3.34-2.91H281l-.11-2.29Z"/><path class="cls-6" d="M285.72,95.2a3,3,0,0,1-2.58-1.28l1.13-1a2.19,2.19,0,0,0,1.52.92.75.75,0,0,0,.52-.18.58.58,0,0,0,.2-.45.69.69,0,0,0-.19-.44,4.4,4.4,0,0,0-.71-.6,4.69,4.69,0,0,1-1-1,1.67,1.67,0,0,1-.33-1,2.09,2.09,0,0,1,.6-1.51,2.39,2.39,0,0,1,1.76-.71,3,3,0,0,1,2.3,1l-1,1.05a1.92,1.92,0,0,0-1.31-.75.71.71,0,0,0-.51.18.58.58,0,0,0-.18.43.69.69,0,0,0,.18.44,4.19,4.19,0,0,0,.71.6,4.58,4.58,0,0,1,1,.94,1.72,1.72,0,0,1,.34,1,2.09,2.09,0,0,1-.63,1.54A2.39,2.39,0,0,1,285.72,95.2Z"/><path class="cls-6" d="M291,95.1V89.74h1.42v.72a1.68,1.68,0,0,1,1.39-.82,1.39,1.39,0,0,1,1.32.78,1.93,1.93,0,0,1,1.52-.78,1.5,1.5,0,0,1,1.16.46,1.89,1.89,0,0,1,.43,1.33V95.1h-1.41V91.87q0-.95-.74-1a.68.68,0,0,0-.56.25,1.09,1.09,0,0,0-.2.71V95.1H293.9V91.87q0-.95-.73-1a.68.68,0,0,0-.56.25,1.09,1.09,0,0,0-.2.71V95.1Z"/><path class="cls-6" d="M302.06,95.2a2.82,2.82,0,0,1-2.23-1,3.78,3.78,0,0,1-.85-2.58v-.09a3.69,3.69,0,0,1,.89-2.57,2.93,2.93,0,0,1,2.28-1,3,3,0,0,1,2.25.93L303.53,90a2,2,0,0,0-1.43-.7,1.41,1.41,0,0,0-1.17.61,2.63,2.63,0,0,0-.46,1.62v0a2.6,2.6,0,0,0,.47,1.63,1.43,1.43,0,0,0,1.18.61,2.09,2.09,0,0,0,1.44-.73l.87,1a3.83,3.83,0,0,1-1.06.79A3,3,0,0,1,302.06,95.2Z"/><path class="cls-6" d="M305.17,95.1v-7h2.63a2.57,2.57,0,0,1,1.9.67,2.19,2.19,0,0,1,.59,1.62v0A2.07,2.07,0,0,1,309,92.5l1.49,2.6h-1.66l-1.29-2.3h-.91v2.3Zm1.45-3.58h1.07a1.17,1.17,0,0,0,.84-.29,1,1,0,0,0,.3-.76h0a1,1,0,0,0-.31-.78,1.28,1.28,0,0,0-.86-.27h-1Z"/><path class="cls-6" d="M314,95.2a2.82,2.82,0,0,1-2.23-1,3.78,3.78,0,0,1-.85-2.58v-.09a3.69,3.69,0,0,1,.89-2.57,2.93,2.93,0,0,1,2.28-1,3,3,0,0,1,2.25.93L315.49,90a2,2,0,0,0-1.43-.7,1.41,1.41,0,0,0-1.17.61,2.63,2.63,0,0,0-.46,1.62v0a2.6,2.6,0,0,0,.47,1.63,1.43,1.43,0,0,0,1.18.61,2.09,2.09,0,0,0,1.44-.73l.87,1a3.83,3.83,0,0,1-1.06.79A3,3,0,0,1,314,95.2Z"/><path class="cls-6" d="M274.07,108.49a4.81,4.81,0,0,1,0-8.53l.56.93a3.66,3.66,0,0,0-1.33,1.4,4.71,4.71,0,0,0,0,3.87,3.67,3.67,0,0,0,1.33,1.4Z"/><path class="cls-6" d="M275.28,107.1v-5.36h1.42v.72a1.69,1.69,0,0,1,1.38-.82,1.45,1.45,0,0,1,1.16.48,2,2,0,0,1,.42,1.33v3.65h-1.42v-3.23q0-.95-.76-1a.71.71,0,0,0-.57.25,1.05,1.05,0,0,0-.21.71v3.23Z"/><path class="cls-6" d="M282.5,103v-1.33H287V103Zm0,2.39v-1.33H287v1.33Z"/><path class="cls-6" d="M289.74,107.1v-1.17l2.06-2.12a6.13,6.13,0,0,0,.79-.94,1.33,1.33,0,0,0,.21-.71.79.79,0,0,0-.23-.61.85.85,0,0,0-.61-.22,1.1,1.1,0,0,0-.63.19,3.33,3.33,0,0,0-.65.64l-.94-.89a2.79,2.79,0,0,1,2.33-1.27,2.28,2.28,0,0,1,1.59.55,1.91,1.91,0,0,1,.61,1.49v0a2.24,2.24,0,0,1-.33,1.21,8.05,8.05,0,0,1-1.17,1.34l-1.17,1.19h2.67v1.3Z"/><path class="cls-6" d="M295.23,107.1l2.69-5.69H295V100.1h4.47v1.08l-2.68,5.92Z"/><path class="cls-6" d="M304.79,106.24a2.39,2.39,0,0,1-2,1,2.36,2.36,0,0,1-2-1,4.14,4.14,0,0,1-.74-2.58v-.13a4.13,4.13,0,0,1,.75-2.58,2.51,2.51,0,0,1,4,0,4.13,4.13,0,0,1,.75,2.58v.13A4.13,4.13,0,0,1,304.79,106.24Zm-2-.35a1,1,0,0,0,.9-.58,3.38,3.38,0,0,0,.33-1.67v-.09a3.33,3.33,0,0,0-.34-1.67,1,1,0,0,0-.92-.59,1,1,0,0,0-.91.58,3.39,3.39,0,0,0-.33,1.67v.09a3.38,3.38,0,0,0,.34,1.67A1,1,0,0,0,302.83,105.9Z"/><path class="cls-6" d="M306.63,108.49l-.56-.93a3.67,3.67,0,0,0,1.33-1.4,4.71,4.71,0,0,0,0-3.87,3.66,3.66,0,0,0-1.33-1.4l.56-.93a4.81,4.81,0,0,1,0,8.53Z"/><polygon class="cls-6" points="153.71 65.64 161.5 83.65 153.71 103.11 153.71 65.64"/><circle class="cls-6" cx="78.93" cy="85.15" r="62.76"/><path class="cls-1" d="M57.35,86.92a14.67,14.67,0,0,1-6.19-1.19,13.25,13.25,0,0,1-4.38-3.21L51.1,78.2a11.37,11.37,0,0,0,2.78,2.09A6.72,6.72,0,0,0,57,81a3.61,3.61,0,0,0,2.34-.69,2.24,2.24,0,0,0,.85-1.83v-.07a2.12,2.12,0,0,0-1-1.88,5.55,5.55,0,0,0-3-.67H53.27l-1-3.58L58,67.16H48.48V61.6H66.43v4.93L60.5,71.6a12.26,12.26,0,0,1,2.48.82A7.32,7.32,0,0,1,65,73.8a6.05,6.05,0,0,1,1.38,2,7.05,7.05,0,0,1,.5,2.77v.07a7.67,7.67,0,0,1-2.73,6,9.07,9.07,0,0,1-3,1.67A12,12,0,0,1,57.35,86.92Z"/><path class="cls-1" d="M81.29,67.34H69.8V61.6H88.91v5.18L78,86.42H70.36Z"/><path class="cls-1" d="M103.07,67.34H91.57V61.6h19.12v5.18l-11,19.65H92.14Z"/><path class="cls-4" d="M46.93,108.06,43.7,96.7h2.47l1.9,7.44,2.07-7.47h2l2.08,7.47,1.89-7.44h2.42l-3.23,11.36H53.19l-2.07-7.18-2.07,7.18Z"/><path class="cls-4" d="M62.21,108V98.86H59.37V96.7h8v2.16H64.54V108Z"/><path class="cls-4" d="M71.49,108l2.76-11.3H76.7l-1.15,4.81,4.26-4.81H83l-4.68,4.78L80.43,108H77.77l-1.36-4.74L74.65,105l-.71,3Z"/><path class="cls-4" d="M87.37,108,86,104.41H84.8L84,108H81.51l2.76-11.3h3.24a4.5,4.5,0,0,1,3.29,1,3.21,3.21,0,0,1,.87,2.32,3.91,3.91,0,0,1-1,2.84l-.43.41a4,4,0,0,1-.61.4,4.74,4.74,0,0,1-1,.42L90.11,108Zm-2-5.73h1.31a2.65,2.65,0,0,0,1.92-.63,1.92,1.92,0,0,0,.52-1.37,1.26,1.26,0,0,0-.37-1,1.92,1.92,0,0,0-1.4-.4H86.16Z"/><path class="cls-4" d="M90.71,108l6.76-11.38h2.37L101.05,108h-2.5l-.19-2.53H94.73L93.32,108Zm5.39-4.7h2l-.18-3.7Z"/><path class="cls-4" d="M106.12,108.16a4.91,4.91,0,0,1-4.16-2.07l1.82-1.58a3.53,3.53,0,0,0,2.45,1.48,1.21,1.21,0,0,0,.84-.29.94.94,0,0,0,.32-.73,1.12,1.12,0,0,0-.31-.72,7.09,7.09,0,0,0-1.15-1,7.59,7.59,0,0,1-1.61-1.54,2.7,2.7,0,0,1-.53-1.62,3.37,3.37,0,0,1,1-2.44,3.86,3.86,0,0,1,2.84-1.15,4.91,4.91,0,0,1,3.71,1.68l-1.68,1.69a3.09,3.09,0,0,0-2.11-1.21,1.14,1.14,0,0,0-.83.29.93.93,0,0,0-.3.69,1.11,1.11,0,0,0,.29.72,6.77,6.77,0,0,0,1.15,1,7.43,7.43,0,0,1,1.61,1.52,2.78,2.78,0,0,1,.55,1.69,3.38,3.38,0,0,1-1,2.48A3.86,3.86,0,0,1,106.12,108.16Z"/><path class="cls-4" d="M50.67,126.19V115.11H53v1.19a2.77,2.77,0,0,1,2.34-1.36,3,3,0,0,1,2.34,1.13,4.88,4.88,0,0,1,1,3.23v.26a4.88,4.88,0,0,1-1,3.23,3,3,0,0,1-2.34,1.13A2.83,2.83,0,0,1,53,122.64v3.55Zm2.74-4.94a1.45,1.45,0,0,0,1.21.66,1.43,1.43,0,0,0,1.2-.66,2.92,2.92,0,0,0,.48-1.74v-.16a2.92,2.92,0,0,0-.48-1.74,1.43,1.43,0,0,0-1.2-.66,1.45,1.45,0,0,0-1.21.66,2.88,2.88,0,0,0-.48,1.74v.16A2.88,2.88,0,0,0,53.42,121.26Z"/><path class="cls-4" d="M62.24,123.92a2.46,2.46,0,0,1-2.57-2.63v-.1a2.56,2.56,0,0,1,.81-2.07,3.29,3.29,0,0,1,2.2-.69,4.92,4.92,0,0,1,1.81.35v-.26a1.45,1.45,0,0,0-.43-1.13,1.73,1.73,0,0,0-1.2-.39,5.24,5.24,0,0,0-2,.48l-.63-1.79a6.52,6.52,0,0,1,3-.69,3.12,3.12,0,0,1,3.52,3.5v5.24H64.49v-.94A2.68,2.68,0,0,1,62.24,123.92Zm.76-1.68a1.57,1.57,0,0,0,1.1-.36,1.21,1.21,0,0,0,.44-1v-.73a3,3,0,0,0-1.27-.27,1.49,1.49,0,0,0-1,.31,1.12,1.12,0,0,0-.36.9v0a1,1,0,0,0,.3.79A1.22,1.22,0,0,0,63,122.24Z"/><path class="cls-4" d="M71.14,123.9a2.49,2.49,0,0,1-1.69-.52,2.26,2.26,0,0,1-.6-1.78V117H68v-1.94h.87V112.9h2.29v2.21h1.71V117H71.14v4.08q0,.74.71.74a2.18,2.18,0,0,0,1-.24v1.82A3.36,3.36,0,0,1,71.14,123.9Z"/><path class="cls-4" d="M74.38,114.19v-2.08h2.39v2.08Zm0,9.57v-8.65h2.29v8.65Z"/><path class="cls-4" d="M82.35,124a3.82,3.82,0,0,1-2.9-1.22,4.47,4.47,0,0,1-1.15-3.2v-.15a4.73,4.73,0,0,1,1.07-3.18,3.4,3.4,0,0,1,2.7-1.26,3.19,3.19,0,0,1,2.73,1.28,5.42,5.42,0,0,1,1,3.32q0,.4,0,.74H80.58a2.2,2.2,0,0,0,.64,1.29,1.75,1.75,0,0,0,1.23.45,2.62,2.62,0,0,0,1.81-.86l1.18,1.39A4,4,0,0,1,82.35,124Zm-1.79-5.18h3a2.79,2.79,0,0,0-.46-1.42,1.19,1.19,0,0,0-1-.52,1.24,1.24,0,0,0-1,.51A2.77,2.77,0,0,0,80.56,118.77Z"/><path class="cls-4" d="M87.26,123.76v-8.65h2.29v1.16a2.72,2.72,0,0,1,2.23-1.32,2.35,2.35,0,0,1,1.87.78,3.16,3.16,0,0,1,.68,2.14v5.89H92v-5.21Q92,117,90.81,117a1.15,1.15,0,0,0-.92.4,1.7,1.7,0,0,0-.34,1.14v5.21Z"/><path class="cls-4" d="M98.75,123.9a2.49,2.49,0,0,1-1.69-.52,2.26,2.26,0,0,1-.6-1.78V117h-.87v-1.94h.87V112.9h2.29v2.21h1.71V117H98.75v4.08q0,.74.71.74a2.18,2.18,0,0,0,1-.24v1.82A3.36,3.36,0,0,1,98.75,123.9Z"/><path class="cls-4" d="M104.57,123.92a5.06,5.06,0,0,1-3.28-1.19l1-1.61a3.91,3.91,0,0,0,2.31,1,1.09,1.09,0,0,0,.69-.19.58.58,0,0,0,.23-.48v0a.48.48,0,0,0,0-.15.61.61,0,0,0-.07-.14l-.1-.12-.16-.11-.19-.11-.22-.11-.24-.1-.29-.12-.29-.13a5.66,5.66,0,0,1-1.69-1,2.08,2.08,0,0,1-.58-1.56v0a2.41,2.41,0,0,1,.84-1.93,3.16,3.16,0,0,1,2.13-.72,4.85,4.85,0,0,1,2.86.94l-.92,1.65a3.82,3.82,0,0,0-2-.74,1,1,0,0,0-.62.18.54.54,0,0,0-.22.44v0a.61.61,0,0,0,.33.51,8.11,8.11,0,0,0,1,.54l.1,0,.09,0a6.35,6.35,0,0,1,1.71,1.1,2,2,0,0,1,.58,1.5v0a2.45,2.45,0,0,1-.85,2A3.34,3.34,0,0,1,104.57,123.92Z"/></g></g></svg>