<svg xmlns="http://www.w3.org/2000/svg" viewBox="0 0 908.3 422.62"><defs><style>.cls-1,.cls-2,.cls-3{fill:none;stroke-miterlimit:10;}.cls-1{stroke:#595959;}.cls-1,.cls-2{stroke-width:2.55px;}.cls-2{stroke:#0093c9;}.cls-3{stroke:#4d4d4d;stroke-width:0.5px;}.cls-4{fill:#4d4d4d;}.cls-5{fill:#0093c9;}.cls-6{fill:#595959;}</style></defs><title>third-line-chart-2-sm</title><g id="Layer_2" data-name="Layer 2"><g id="Layer_3" data-name="Layer 3"><polyline class="cls-1" points="74.59 7.71 89.84 7.71 89.84 10.79 95.72 10.79 95.72 14.96 103.47 14.96 103.47 21.21 107.22 21.21 107.22 24.02 114.97 24.02 114.97 29.55 122.47 29.55 122.47 35.26 130.22 35.26 130.22 37.26 135.59 37.26 135.59 43.33 139.09 43.33 139.09 51.94 143.59 51.94 143.59 57.2 143.59 60.19 151.59 60.19 151.59 64.91 156.97 64.91 156.97 67.9 163.34 67.9 163.34 71.89 169.22 71.89 169.22 74.6 173.84 74.6 173.84 78.32 179.59 78.32 179.59 82.13 183.59 82.13 183.59 85.57 183.59 90.29 191.72 90.29 191.72 95.18 198.09 95.18 198.09 99.8 202.22 99.8 202.22 103.25 204.59 103.25 204.59 105.79 209.97 105.79 209.97 109.05 215.09 109.05 215.09 113.31 219.47 113.31 219.47 117.57 223.84 117.57 223.84 121.56 233.22 121.56 233.22 126.36 238.09 126.36 238.09 133.16 244.22 133.16 244.22 141.68 255.59 141.68 255.59 147.48 261.97 147.48 261.97 151.83 261.97 156.46 272.47 156.46 272.47 162.44 281.35 162.44 281.35 169.06 288.35 169.06 288.35 176.4 296.85 176.4 296.85 184.01 306.35 184.01 306.35 191.08 317.47 191.08 317.47 197.79 327.72 197.79 327.72 203.14 336.35 203.14 336.35 209.21 346.72 209.21 346.72 214.47 358.35 214.47 358.35 220.63 365.97 220.63 365.97 225.62 380.72 225.62 380.72 231.88 388.97 231.88 388.97 239.49 402.97 239.49 402.97 244.75 410.6 244.75 410.6 247.38 412.1 247.38 412.1 250.82 418.47 250.82 418.47 252.45 422.72 252.45 422.72 254.35 427.72 254.35 427.72 255.81 435.72 255.81 435.72 259.07 446.85 259.07 446.85 264.14 451.35 264.14 451.35 265.96 459.35 265.96 459.35 268.86 476.47 268.86 476.47 271.12 491.72 271.12 491.72 277.65 496.1 277.65 496.1 279.55 507.1 279.55 507.1 281.55 518.97 281.55 518.97 284.36 531.72 284.36 531.72 288.62 537.97 288.62 537.97 290.8 545.97 290.8 545.97 295.24 550.22 295.24 550.22 297.95 569.85 297.95 575.47 297.95 575.47 300.04 578.22 300.04 578.22 303.76 589.22 303.76 589.22 305.66 594.72 305.66 594.72 307.84 601.72 307.84 601.72 311.37 623.35 311.37 629.47 311.37 629.47 315.36 641.22 315.36 641.22 317.72 659.6 317.72 659.6 322.7 681.1 322.7 681.1 325.51 690.85 325.51 690.85 329.05 703.6 329.05 703.6 330.68 788.35 330.68"/></g><g id="Layer_2-2" data-name="Layer 2"><polyline class="cls-2" points="74.47 7.8 90.64 7.8 90.64 10.82 95.64 10.82 95.64 15.29 99.64 15.29 99.64 16.38 101.47 16.38 101.47 18.19 103.64 18.19 103.64 20.37 107.47 20.37 107.47 22.66 109.97 22.66 109.97 25.44 114.8 25.44 114.8 29.07 117.14 29.07 117.14 32.33 118.64 32.33 118.64 34.75 123.3 34.75 123.3 36.2 128.3 36.2 128.3 39.34 128.3 42.24 130.64 42.24 130.64 44.9 133.3 44.9 133.3 48.17 137.3 48.17 137.3 50.34 137.3 52.76 141.8 52.76 141.8 56.99 144.8 56.99 144.8 60.01 150.14 60.01 150.14 62.55 154.14 62.55 154.14 64.48 156.64 64.48 156.64 66.05 160.8 66.05 160.8 68.23 166.64 68.23 166.64 70.16 169.14 70.16 169.14 72.55 171.26 72.55 171.26 75.84 174.22 75.84 174.22 78.05 179.93 78.05 179.93 81.95 183.51 81.95 183.51 84.91 186.34 84.91 186.34 87.2 191.26 87.2 191.26 92.01 194.18 92.01 194.18 96.27 199.26 96.27 199.26 99.65 202.8 99.65 202.8 102.61 207.51 102.61 207.51 106.06 212.51 106.06 212.51 111.68 219.01 111.68 219.01 116.48 224.01 116.48 224.01 119.29 226.3 119.29 226.3 122.13 228.14 122.13 228.14 124.91 233.14 124.91 233.14 128.06 239.3 128.06 239.3 132.47 246.3 132.47 246.3 134.58 250.55 134.58 250.55 138.27 252.8 138.27 252.8 141.41 255.89 141.41 255.89 144.61 258.8 144.61 258.8 151.2 265.39 151.2 265.39 154.1 269.05 154.1 269.05 157.73 276.97 157.73 276.97 161.59 281.64 161.59 281.64 163.29 284.39 163.29 284.39 166.67 286.64 166.67 286.64 169.27 289.8 169.27 289.8 172.35 292.89 172.35 292.89 178.33 298.14 178.33 298.14 180.69 300.97 180.69 300.97 182.32 306.3 182.32 306.3 184.13 309.22 184.13 309.22 186.73 317.47 186.73 317.47 190.66 322.97 190.66 322.97 190.96 322.97 192.72 326.89 192.72 326.89 195.38 332.39 195.38 332.39 197.56 334.72 197.56 334.72 199.65 336.85 199.65 336.85 202.91 342.97 202.91 342.97 205.36 346.66 205.36 346.66 207.94 352.53 207.94 352.53 210.84 357.16 210.84 357.16 212.2 363.53 212.2 363.53 214.88 369.28 214.88 369.28 216.47 373.22 216.47 373.22 218.87 379.6 218.87 379.6 221 381.53 221 381.53 224.22 385.35 224.22 385.35 225.76 387.16 225.76 387.16 226.89 389.1 226.89 389.1 228.38 392.97 228.38 392.97 229.84 395.1 229.84 395.1 232.28 398.28 232.28 398.28 234.96 402.35 234.96 402.35 236.91 405.35 236.91 405.35 238.36 410.22 238.36 410.22 239.85 411.78 239.85 411.78 242.39 413.47 242.39 413.47 244.25 418.35 244.25 418.35 246.2 421.03 246.2 421.03 247.6 423.78 247.6 423.78 249.69 436.35 249.69 436.35 251.59 445.41 251.59 445.41 253.22 447.28 253.22 447.28 256.35 454.85 256.35 454.85 258.16 461.72 258.16 461.72 259.3 470.78 259.3 470.78 261.83 485.91 261.83 485.91 262.92 491.35 262.92 491.35 265.28 499.72 265.28 499.72 266.18 503.22 266.18 503.22 269.95 507.28 269.95 507.28 271.4 508.78 271.4 508.78 272.8 514.41 272.8 514.41 273.89 522.35 273.89 522.35 275.84 526.97 275.84 526.97 277.42 530.53 277.42 530.53 278.78 539.97 278.78 539.97 280.64 542.53 280.64 542.53 282.59 546.66 282.59 546.66 285.67 556.53 285.67 556.53 287.26 558.22 287.26 558.22 289.25 564.03 289.25 564.03 295.01 565.66 295.01 565.66 296.46 568.66 296.46 568.66 298 583.78 298 583.78 299.18 590.78 299.18 590.78 302.08 595.53 302.08 595.53 306.97 602.1 306.97 602.1 309.06 604.41 309.06 623.85 309.06 623.85 311.19 628.35 311.19 628.35 313.82 635.91 313.82 635.91 315.22 641.28 315.22 641.28 318.35 658.91 318.35 658.91 320.39 666.78 320.39 666.78 322.88 679.78 322.88 679.78 326.06 703.35 326.06 703.35 329.95 711.22 329.95 711.22 332.04 750.1 332.04 750.1 339.74 791.41 339.74 791.41 346.4 849.6 346.4 849.6 360.09"/></g><g id="Layer_4" data-name="Layer 4"><line class="cls-3" x1="74.28" y1="360.73" x2="908.3" y2="360.73"/><line class="cls-3" x1="74.28" y1="369.73" x2="74.28" y2="360.89"/><line class="cls-3" x1="173.64" y1="369.73" x2="173.64" y2="360.89"/><line class="cls-3" x1="264.97" y1="369.73" x2="264.97" y2="360.89"/><line class="cls-3" x1="355.64" y1="369.73" x2="355.64" y2="360.89"/><line class="cls-3" x1="446.97" y1="369.73" x2="446.97" y2="360.89"/><line class="cls-3" x1="536.97" y1="369.73" x2="536.97" y2="360.89"/><line class="cls-3" x1="628.97" y1="369.73" x2="628.97" y2="360.89"/><line class="cls-3" x1="715.64" y1="369.73" x2="715.64" y2="360.89"/><line class="cls-3" x1="807.3" y1="369.73" x2="807.3" y2="360.89"/><line class="cls-3" x1="899.11" y1="369.73" x2="899.11" y2="360.89"/><path class="cls-4" d="M41.09,361.94v-.13c0-3.36,1.58-5.73,4.07-5.73s4,2.34,4,5.7v.13c0,3.36-1.58,5.73-4.07,5.73S41.09,365.3,41.09,361.94Zm6.88,0v-.13c0-2.69-1.14-4.64-2.83-4.64s-2.82,1.92-2.82,4.61v.13c0,2.69,1.12,4.64,2.83,4.64S48,364.63,48,361.94Z" transform="translate(-2.82 -2.22)"/><path class="cls-4" d="M50.77,359v-.08c0-1.58.94-2.8,2.29-2.8s2.27,1.22,2.27,2.77V359c0,1.58-.94,2.8-2.29,2.8S50.77,360.58,50.77,359Zm1-.1V359c0,1.15.58,1.94,1.3,1.94s1.3-.8,1.3-1.92v-.06c0-1.14-.58-1.94-1.31-1.94S51.76,357.82,51.76,358.93Zm7.33-2.67h1l-3.81,5.83-3.44,5.38h-1l3.78-5.81Zm-2.48,8.55v-.08c0-1.58.94-2.8,2.29-2.8s2.27,1.22,2.27,2.77v.08c0,1.58-.94,2.8-2.29,2.8S56.61,366.35,56.61,364.8Zm3.59,0v-.06c0-1.14-.58-1.94-1.31-1.94s-1.3.82-1.3,1.92v.06c0,1.15.58,1.94,1.31,1.94S60.2,365.91,60.2,364.79Z" transform="translate(-2.82 -2.22)"/><path class="cls-4" d="M177.08,386h-5.14l-.22-.88,5.44-7.81h1.06V385h1.49v1h-1.49v2.59h-1.14Zm0-1v-5.79l-4,5.79Z" transform="translate(-2.82 -2.22)"/><path class="cls-4" d="M263.66,385.59v0a2.92,2.92,0,0,1,2-2.77A2.81,2.81,0,0,1,264,380.2v0a3.35,3.35,0,0,1,6.66,0v0a2.79,2.79,0,0,1-1.7,2.58,3,3,0,0,1,2,2.75v0c0,1.89-1.57,3.15-3.67,3.15S263.66,387.45,263.66,385.59Zm6.11,0v0a2.47,2.47,0,0,0-4.91,0v0a2.48,2.48,0,0,0,4.91,0Zm-.3-5.3v0a2.16,2.16,0,0,0-4.31,0v0a2.15,2.15,0,0,0,4.31,0Z" transform="translate(-2.82 -2.22)"/><path class="cls-4" d="M460.21,424.58v-15.4h3.34l3.43,6.25,3.39-6.25h3.37v15.4h-3.12v-9.83L467,421.1h-.07l-3.61-6.31v9.79Z" transform="translate(-2.82 -2.22)"/><path class="cls-4" d="M485.58,423.14a5.49,5.49,0,0,1-7.94,0,6.09,6.09,0,0,1-1.57-4.31v-.24a6.1,6.1,0,0,1,1.58-4.32,5.5,5.5,0,0,1,7.94,0,6.11,6.11,0,0,1,1.56,4.32v.24A6.12,6.12,0,0,1,485.58,423.14Zm-3.95-1a2.08,2.08,0,0,0,1.78-.93,4.09,4.09,0,0,0,.66-2.41v-.15a4,4,0,0,0-.68-2.41,2.17,2.17,0,0,0-3.59,0,4.08,4.08,0,0,0-.66,2.41v.15a4,4,0,0,0,.69,2.41A2.12,2.12,0,0,0,481.63,422.14Z" transform="translate(-2.82 -2.22)"/><path class="cls-4" d="M489.22,424.58V412.79h3.13v1.58a3.72,3.72,0,0,1,3-1.8,3.2,3.2,0,0,1,2.55,1.07,4.31,4.31,0,0,1,.92,2.92v8h-3.12v-7.11q0-2.09-1.67-2.09a1.57,1.57,0,0,0-1.25.54,2.33,2.33,0,0,0-.46,1.55v7.11Z" transform="translate(-2.82 -2.22)"/><path class="cls-4" d="M504.87,424.78a3.4,3.4,0,0,1-2.3-.71,3.08,3.08,0,0,1-.83-2.43v-6.2h-1.19v-2.64h1.19v-3h3.13v3h2.33v2.64h-2.33V421q0,1,1,1a3,3,0,0,0,1.34-.33v2.49A4.58,4.58,0,0,1,504.87,424.78Z" transform="translate(-2.82 -2.22)"/><path class="cls-4" d="M509.24,424.58V408.69h3.12v5.68a3.72,3.72,0,0,1,3-1.8,3.2,3.2,0,0,1,2.55,1.07,4.31,4.31,0,0,1,.92,2.92v8h-3.12v-7.11q0-2.09-1.67-2.09a1.57,1.57,0,0,0-1.25.54,2.33,2.33,0,0,0-.46,1.55v7.11Z" transform="translate(-2.82 -2.22)"/><path class="cls-4" d="M524.86,424.8a6.9,6.9,0,0,1-4.47-1.63l1.36-2.2a5.33,5.33,0,0,0,3.15,1.32,1.48,1.48,0,0,0,.94-.25.79.79,0,0,0,.32-.65v0a.65.65,0,0,0,0-.21.89.89,0,0,0-.1-.2.86.86,0,0,0-.35-.32l-.25-.15-.3-.15-.33-.14-.4-.17-.4-.18a7.73,7.73,0,0,1-2.31-1.43,2.84,2.84,0,0,1-.79-2.13v0a3.29,3.29,0,0,1,1.14-2.63,4.31,4.31,0,0,1,2.9-1,6.62,6.62,0,0,1,3.89,1.28l-1.25,2.24a5.22,5.22,0,0,0-2.68-1,1.31,1.31,0,0,0-.85.24.74.74,0,0,0-.3.59v0a.84.84,0,0,0,.45.69,11.17,11.17,0,0,0,1.42.74l.14.06.12.05a8.64,8.64,0,0,1,2.33,1.5,2.72,2.72,0,0,1,.79,2v0a3.33,3.33,0,0,1-1.16,2.72A4.55,4.55,0,0,1,524.86,424.8Z" transform="translate(-2.82 -2.22)"/><path class="cls-4" d="M357.82,71.62h1.8l4.53,13.11,4.55-13.11h1.74L364.9,87.14h-1.52Z" transform="translate(-2.82 -2.22)"/><path class="cls-4" d="M370.91,81.39v-.11c0-3.5,2-5.94,4.73-5.94,2.88,0,4.6,2.46,4.6,5.92,0,.15,0,.46,0,.66h-7.7c.18,2.53,1.74,3.94,3.54,3.94a4,4,0,0,0,3-1.32l.9,1A5.19,5.19,0,0,1,376,87.27C373.2,87.27,370.91,85,370.91,81.39Zm7.75-.7c-.11-2.18-1.14-4-3-4-1.69,0-3,1.56-3.12,4Z" transform="translate(-2.82 -2.22)"/><path class="cls-4" d="M382.17,81.42v-.15c0-3.48,2.24-5.92,5.1-5.92a4.85,4.85,0,0,1,3.61,1.56l-.95,1.19a3.71,3.71,0,0,0-2.69-1.3c-1.91,0-3.45,1.8-3.45,4.47v.11c0,2.71,1.58,4.45,3.52,4.45A3.68,3.68,0,0,0,390,84.5l.92,1.06a4.72,4.72,0,0,1-3.7,1.72C384.35,87.27,382.17,84.89,382.17,81.42Z" transform="translate(-2.82 -2.22)"/><path class="cls-4" d="M393.74,84.36V77h-1.39V75.56h1.39V72.22h1.58v3.34h3V77h-3V84.1A1.46,1.46,0,0,0,397,85.75a3.39,3.39,0,0,0,1.34-.31v1.36a3.87,3.87,0,0,1-1.72.4A2.57,2.57,0,0,1,393.74,84.36Z" transform="translate(-2.82 -2.22)"/><path class="cls-4" d="M400.92,71.34h1.76v1.87h-1.76Zm.09,4.22h1.58V87H401Z" transform="translate(-2.82 -2.22)"/><path class="cls-4" d="M407.56,84.89V87H406V71.14h1.58v6.62a4.28,4.28,0,0,1,3.72-2.42c2.33,0,4.58,2,4.58,5.83v.22c0,3.81-2.25,5.85-4.58,5.85A4.25,4.25,0,0,1,407.56,84.89Zm6.67-3.5v-.18c0-2.79-1.5-4.45-3.26-4.45s-3.48,1.74-3.48,4.42v.22c0,2.68,1.67,4.4,3.48,4.4S414.23,84.21,414.23,81.39Z" transform="translate(-2.82 -2.22)"/><path class="cls-4" d="M418.58,71.34h1.76v1.87h-1.76Zm.09,4.22h1.58V87h-1.58Z" transform="translate(-2.82 -2.22)"/><path class="cls-4" d="M427.49,80l2.84-4.47H432l-3.65,5.57,3.83,5.9h-1.78l-3-4.73-3,4.73h-1.74l3.78-5.85-3.63-5.61h1.78Z" transform="translate(-2.82 -2.22)"/><path class="cls-4" d="M433.61,75.32v-.13a3.53,3.53,0,1,1,7,0v.13a3.53,3.53,0,1,1-7,0Zm6.58,0v-.13a3.18,3.18,0,0,0-3.06-3.39A3.21,3.21,0,0,0,434,75.19v.13a3.09,3.09,0,1,0,6.14,0Zm-4.4-2.13h1.5a1.27,1.27,0,0,1,1.43,1.28,1.18,1.18,0,0,1-.84,1.19l1,1.54H438l-.86-1.41h-.68v1.41h-.7Zm1.43,2c.51,0,.79-.26.79-.68s-.31-.68-.79-.68h-.73v1.36Z" transform="translate(-2.82 -2.22)"/><path class="cls-4" d="M448.21,80.69a10.32,10.32,0,0,1,5.5-9.37l.64,1a10,10,0,0,0,0,16.68l-.64,1A10.32,10.32,0,0,1,448.21,80.69Z" transform="translate(-2.82 -2.22)"/><path class="cls-4" d="M456.9,75.56h1.58v1.87a3.71,3.71,0,0,1,3.39-2.09c2.33,0,3.74,1.61,3.74,4.18V87H464V80c0-2-1-3.19-2.64-3.19a3,3,0,0,0-2.9,3.28v7H456.9Z" transform="translate(-2.82 -2.22)"/><path class="cls-4" d="M474.22,76.2h9.07v1.56h-9.07Zm0,4.6h9.07v1.56h-9.07Z" transform="translate(-2.82 -2.22)"/><path class="cls-4" d="M498.55,83.46h-7.06l-.31-1.21,7.48-10.74h1.45V82.07h2v1.39h-2V87h-1.56Zm0-1.39v-8l-5.5,8Z" transform="translate(-2.82 -2.22)"/><path class="cls-4" d="M512.39,79.28a4.24,4.24,0,0,1-3.72,2.13A4.49,4.49,0,0,1,504,76.64v0a4.91,4.91,0,0,1,4.86-5.21,4.54,4.54,0,0,1,3.39,1.34c1.08,1.08,1.78,2.77,1.78,6v.18c0,5.24-2.29,8.38-5.7,8.38a6,6,0,0,1-3.92-1.52l.86-1.32a4.67,4.67,0,0,0,3.1,1.32C510.91,85.75,512.37,82.91,512.39,79.28Zm-.24-2.75v0a3.34,3.34,0,0,0-3.32-3.63c-2,0-3.15,1.65-3.15,3.67v0A3.14,3.14,0,0,0,508.87,80,3.27,3.27,0,0,0,512.15,76.53Z" transform="translate(-2.82 -2.22)"/><path class="cls-4" d="M524.75,79.28A4.24,4.24,0,0,1,521,81.42a4.49,4.49,0,0,1-4.66-4.78v0a4.91,4.91,0,0,1,4.86-5.21,4.54,4.54,0,0,1,3.39,1.34c1.08,1.08,1.78,2.77,1.78,6v.18c0,5.24-2.29,8.38-5.7,8.38a6,6,0,0,1-3.92-1.52l.86-1.32a4.67,4.67,0,0,0,3.1,1.32C523.28,85.75,524.73,82.91,524.75,79.28Zm-.24-2.75v0a3.33,3.33,0,0,0-3.32-3.63c-2,0-3.15,1.65-3.15,3.67v0A3.14,3.14,0,0,0,521.23,80,3.27,3.27,0,0,0,524.51,76.53Z" transform="translate(-2.82 -2.22)"/><path class="cls-4" d="M528.51,89a10,10,0,0,0,0-16.68l.64-1a10.76,10.76,0,0,1,0,18.75Z" transform="translate(-2.82 -2.22)"/><path class="cls-4" d="M358.34,111v-.13c0-4.67,2.9-7.88,6.76-7.88a6.41,6.41,0,0,1,4.69,1.89l-1,1.25a5.19,5.19,0,0,0-3.7-1.61c-2.84,0-5,2.6-5,6.31v.09c0,3.78,2.18,6.36,5,6.36a5.22,5.22,0,0,0,3.81-1.72l1,1.14a6.59,6.59,0,0,1-4.88,2.11C361.18,118.85,358.34,115.7,358.34,111Z" transform="translate(-2.82 -2.22)"/><path class="cls-4" d="M371.39,113v-.11c0-3.5,2-5.94,4.73-5.94,2.88,0,4.6,2.46,4.6,5.92,0,.15,0,.46,0,.66H373c.18,2.53,1.74,3.94,3.54,3.94a4,4,0,0,0,3-1.32l.9,1a5.18,5.18,0,0,1-3.94,1.72C373.68,118.87,371.39,116.62,371.39,113Zm7.74-.7c-.11-2.18-1.14-4-3-4-1.69,0-3,1.56-3.12,4Z" transform="translate(-2.82 -2.22)"/><path class="cls-4" d="M383.73,116v-7.39h-1.39v-1.41h1.39v-3.34h1.58v3.34h3v1.41h-3v7.13a1.46,1.46,0,0,0,1.65,1.65,3.39,3.39,0,0,0,1.34-.31v1.36a3.87,3.87,0,0,1-1.72.4A2.57,2.57,0,0,1,383.73,116Z" transform="translate(-2.82 -2.22)"/><path class="cls-4" d="M390.71,114.69v-7.53h1.58v7.06c0,2,1,3.19,2.64,3.19a3,3,0,0,0,2.9-3.26v-7h1.58v11.46h-1.58v-1.87a3.71,3.71,0,0,1-3.39,2.09C392.11,118.85,390.71,117.24,390.71,114.69Z" transform="translate(-2.82 -2.22)"/><path class="cls-4" d="M406.53,111.63l2.84-4.47h1.72l-3.65,5.57,3.83,5.9h-1.78l-3-4.73-3,4.73h-1.74l3.79-5.85-3.63-5.61h1.78Z" transform="translate(-2.82 -2.22)"/><path class="cls-4" d="M413.67,102.94h1.76v1.87h-1.76Zm.09,4.22h1.58v11.46h-1.58Z" transform="translate(-2.82 -2.22)"/><path class="cls-4" d="M418.73,107.16h1.58V109a3.59,3.59,0,0,1,3.21-2A3.31,3.31,0,0,1,426.7,109a4,4,0,0,1,3.52-2.09c2.22,0,3.65,1.54,3.65,4.2v7.48h-1.58v-7.06c0-2.09-.92-3.19-2.49-3.19s-2.71,1.19-2.71,3.26v7h-1.58v-7.08c0-2-.92-3.17-2.49-3.17s-2.71,1.34-2.71,3.28v7h-1.58Z" transform="translate(-2.82 -2.22)"/><path class="cls-4" d="M436.27,115.3v-.09c0-2.35,1.69-3.7,4.22-3.7a9.4,9.4,0,0,1,2.95.46v-.68a2.61,2.61,0,0,0-2.93-2.84,6.25,6.25,0,0,0-2.93.77l-.51-1.3a7.89,7.89,0,0,1,3.61-.92,4.37,4.37,0,0,1,3.21,1.14,4.26,4.26,0,0,1,1.1,3.1v7.37h-1.56V117a4,4,0,0,1-3.5,1.91A3.51,3.51,0,0,1,436.27,115.3Zm7.2-.66v-1.43a8.09,8.09,0,0,0-2.77-.46c-1.83,0-2.84.95-2.84,2.4v.07a2.29,2.29,0,0,0,2.44,2.33A3,3,0,0,0,443.46,114.64Z" transform="translate(-2.82 -2.22)"/><path class="cls-4" d="M449.67,116.49v2.13h-1.58V102.74h1.58v6.62a4.28,4.28,0,0,1,3.72-2.42c2.33,0,4.58,2,4.58,5.83V113c0,3.81-2.25,5.85-4.58,5.85A4.25,4.25,0,0,1,449.67,116.49Zm6.67-3.5v-.18c0-2.79-1.5-4.45-3.26-4.45s-3.48,1.74-3.48,4.42V113c0,2.68,1.67,4.4,3.48,4.4S456.33,115.81,456.33,113Z" transform="translate(-2.82 -2.22)"/><path class="cls-4" d="M466,112.29a10.32,10.32,0,0,1,5.5-9.37l.64,1a10,10,0,0,0,0,16.68l-.64,1A10.32,10.32,0,0,1,466,112.29Z" transform="translate(-2.82 -2.22)"/><path class="cls-4" d="M474.68,107.16h1.58V109a3.71,3.71,0,0,1,3.39-2.09c2.33,0,3.74,1.61,3.74,4.18v7.5h-1.58v-7.06c0-2-1-3.19-2.64-3.19a3,3,0,0,0-2.9,3.28v7h-1.58Z" transform="translate(-2.82 -2.22)"/><path class="cls-4" d="M492,107.8h9.06v1.56H492Zm0,4.6h9.06V114H492Z" transform="translate(-2.82 -2.22)"/><path class="cls-4" d="M509.15,117l1-1.23a5.25,5.25,0,0,0,3.54,1.63A3.26,3.26,0,0,0,517,113.9v-.07a3.1,3.1,0,0,0-3.34-3.21,5.49,5.49,0,0,0-2.68.7l-1.06-.73.4-7.37H518v1.54h-6.27l-.31,4.91a5.92,5.92,0,0,1,2.49-.55,4.44,4.44,0,0,1,4.75,4.64v.07a4.84,4.84,0,0,1-5,5A6.58,6.58,0,0,1,509.15,117Z" transform="translate(-2.82 -2.22)"/><path class="cls-4" d="M521,111v-.18c0-4.62,2.18-7.88,5.59-7.88s5.57,3.21,5.57,7.83V111c0,4.62-2.18,7.88-5.59,7.88S521,115.65,521,111Zm9.46,0v-.18c0-3.7-1.56-6.38-3.89-6.38s-3.87,2.64-3.87,6.34V111c0,3.7,1.54,6.38,3.89,6.38S530.45,114.73,530.45,111Z" transform="translate(-2.82 -2.22)"/><path class="cls-4" d="M534.52,111v-.18c0-4.62,2.18-7.88,5.59-7.88s5.57,3.21,5.57,7.83V111c0,4.62-2.18,7.88-5.59,7.88S534.52,115.65,534.52,111Zm9.46,0v-.18c0-3.7-1.56-6.38-3.89-6.38s-3.87,2.64-3.87,6.34V111c0,3.7,1.54,6.38,3.89,6.38S544,114.73,544,111Z" transform="translate(-2.82 -2.22)"/><path class="cls-4" d="M547.78,120.63a10,10,0,0,0,0-16.68l.64-1a10.76,10.76,0,0,1,0,18.75Z" transform="translate(-2.82 -2.22)"/><path class="cls-4" d="M596.07,74.19l-2.51.88-.29-1.43,3.19-1.21h1.23V87.92h-1.63Z" transform="translate(-2.82 -2.22)"/><path class="cls-4" d="M600.84,80.33v-.18c0-4.62,2.18-7.88,5.59-7.88S612,75.48,612,80.1v.18c0,4.62-2.18,7.88-5.59,7.88S600.84,84.95,600.84,80.33Zm9.46,0v-.18c0-3.7-1.56-6.38-3.89-6.38s-3.87,2.64-3.87,6.34v.18c0,3.7,1.54,6.38,3.89,6.38S610.31,84,610.31,80.33Z" transform="translate(-2.82 -2.22)"/><path class="cls-4" d="M614.29,85.65h2v2.27h-2Z" transform="translate(-2.82 -2.22)"/><path class="cls-4" d="M625.68,84.35h-7.06l-.31-1.21,7.48-10.74h1.45V83h2v1.39h-2v3.56h-1.56Zm0-1.39V75l-5.5,8Z" transform="translate(-2.82 -2.22)"/><path class="cls-4" d="M637.19,81.58a10.32,10.32,0,0,1,5.5-9.37l.64,1a10,10,0,0,0,0,16.68l-.64,1A10.32,10.32,0,0,1,637.19,81.58Z" transform="translate(-2.82 -2.22)"/><path class="cls-4" d="M653.78,80.17a4.24,4.24,0,0,1-3.72,2.13,4.49,4.49,0,0,1-4.67-4.78v0a4.91,4.91,0,0,1,4.86-5.21,4.54,4.54,0,0,1,3.39,1.34c1.08,1.08,1.78,2.77,1.78,6v.18c0,5.24-2.29,8.38-5.7,8.38a6,6,0,0,1-3.92-1.52l.86-1.32a4.67,4.67,0,0,0,3.1,1.32C652.3,86.64,653.75,83.8,653.78,80.17Zm-.24-2.75v0a3.33,3.33,0,0,0-3.32-3.63c-2,0-3.15,1.65-3.15,3.67v0a3.14,3.14,0,0,0,3.19,3.43A3.27,3.27,0,0,0,653.53,77.42Z" transform="translate(-2.82 -2.22)"/><path class="cls-4" d="M657.82,85.65h2v2.27h-2Z" transform="translate(-2.82 -2.22)"/><path class="cls-4" d="M669.22,84.35h-7.06l-.31-1.21,7.48-10.74h1.45V83h2v1.39h-2v3.56h-1.56Zm0-1.39V75l-5.5,8Z" transform="translate(-2.82 -2.22)"/><path class="cls-4" d="M675,80.52h8.34v1.58H675Z" transform="translate(-2.82 -2.22)"/><path class="cls-4" d="M687.19,74.19l-2.51.88-.29-1.43,3.19-1.21h1.23V87.92h-1.63Z" transform="translate(-2.82 -2.22)"/><path class="cls-4" d="M694.15,74.19l-2.51.88-.29-1.43,3.19-1.21h1.23V87.92h-1.63Z" transform="translate(-2.82 -2.22)"/><path class="cls-4" d="M699.23,85.65h2v2.27h-2Z" transform="translate(-2.82 -2.22)"/><path class="cls-4" d="M705.58,86.84c-1.12-1.14-1.78-2.75-1.78-6v-.18c0-5.11,2.18-8.38,5.7-8.38a5.71,5.71,0,0,1,3.72,1.39L712.34,75a4.37,4.37,0,0,0-2.9-1.19c-2.55,0-4,2.82-4,6.58a4.26,4.26,0,0,1,3.74-2.09A4.49,4.49,0,0,1,713.84,83v0A4.88,4.88,0,0,1,709,88.16,4.68,4.68,0,0,1,705.58,86.84Zm6.58-3.74v0A3.1,3.1,0,0,0,709,79.71a3.23,3.23,0,0,0-3.28,3.37v0a3.31,3.31,0,0,0,3.3,3.56C710.93,86.68,712.16,85.1,712.16,83.1Z" transform="translate(-2.82 -2.22)"/><path class="cls-4" d="M715.9,89.92a10,10,0,0,0,0-16.68l.64-1a10.76,10.76,0,0,1,0,18.75Z" transform="translate(-2.82 -2.22)"/><path class="cls-4" d="M595.76,105.79l-2.51.88-.29-1.43,3.19-1.21h1.23v15.49h-1.63Z" transform="translate(-2.82 -2.22)"/><path class="cls-4" d="M600.54,111.93v-.18c0-4.62,2.18-7.88,5.59-7.88s5.57,3.21,5.57,7.83v.18c0,4.62-2.18,7.88-5.59,7.88S600.54,116.55,600.54,111.93Zm9.46,0v-.18c0-3.7-1.56-6.38-3.89-6.38s-3.87,2.64-3.87,6.34v.18c0,3.7,1.54,6.38,3.89,6.38S610,115.62,610,111.93Z" transform="translate(-2.82 -2.22)"/><path class="cls-4" d="M614,117.25h2v2.27h-2Z" transform="translate(-2.82 -2.22)"/><path class="cls-4" d="M618.25,111.93v-.18c0-4.62,2.18-7.88,5.59-7.88s5.57,3.21,5.57,7.83v.18c0,4.62-2.18,7.88-5.59,7.88S618.25,116.55,618.25,111.93Zm9.46,0v-.18c0-3.7-1.56-6.38-3.89-6.38s-3.87,2.64-3.87,6.34v.18c0,3.7,1.54,6.38,3.89,6.38S627.71,115.62,627.71,111.93Z" transform="translate(-2.82 -2.22)"/><path class="cls-4" d="M637.56,113.18a10.32,10.32,0,0,1,5.5-9.37l.64,1a10,10,0,0,0,0,16.68l-.64,1A10.32,10.32,0,0,1,637.56,113.18Z" transform="translate(-2.82 -2.22)"/><path class="cls-4" d="M654.15,111.77a4.24,4.24,0,0,1-3.72,2.13,4.49,4.49,0,0,1-4.67-4.78v0a4.91,4.91,0,0,1,4.86-5.21,4.54,4.54,0,0,1,3.39,1.34c1.08,1.08,1.78,2.77,1.78,6v.18c0,5.24-2.29,8.38-5.7,8.38a6,6,0,0,1-3.92-1.52l.86-1.32a4.67,4.67,0,0,0,3.1,1.32C652.68,118.24,654.13,115.4,654.15,111.77Zm-.24-2.75v0a3.33,3.33,0,0,0-3.32-3.63c-2,0-3.15,1.65-3.15,3.67v0a3.14,3.14,0,0,0,3.19,3.43A3.27,3.27,0,0,0,653.91,109Z" transform="translate(-2.82 -2.22)"/><path class="cls-4" d="M658.2,117.25h2v2.27h-2Z" transform="translate(-2.82 -2.22)"/><path class="cls-4" d="M662.51,117.65l1.06-1.14a4.59,4.59,0,0,0,3.63,1.74,3,3,0,0,0,3.12-3.08v-.07c0-2-1.69-3-4.09-3h-.57l-.24-1,4.27-5.43h-6.54v-1.52h8.65v1.23l-4.31,5.43c2.38.26,4.51,1.54,4.51,4.25v.07a4.59,4.59,0,0,1-4.8,4.67A6,6,0,0,1,662.51,117.65Z" transform="translate(-2.82 -2.22)"/><path class="cls-4" d="M674.46,112.12h8.34v1.58h-8.34Z" transform="translate(-2.82 -2.22)"/><path class="cls-4" d="M686.64,105.79l-2.51.88-.29-1.43L687,104h1.23v15.49h-1.63Z" transform="translate(-2.82 -2.22)"/><path class="cls-4" d="M693.6,105.79l-2.51.88-.29-1.43L694,104h1.23v15.49H693.6Z" transform="translate(-2.82 -2.22)"/><path class="cls-4" d="M698.68,117.25h2v2.27h-2Z" transform="translate(-2.82 -2.22)"/><path class="cls-4" d="M702.94,111.93v-.18c0-4.62,2.18-7.88,5.59-7.88s5.57,3.21,5.57,7.83v.18c0,4.62-2.18,7.88-5.59,7.88S702.94,116.55,702.94,111.93Zm9.46,0v-.18c0-3.7-1.56-6.38-3.89-6.38s-3.87,2.64-3.87,6.34v.18c0,3.7,1.54,6.38,3.89,6.38S712.41,115.62,712.41,111.93Z" transform="translate(-2.82 -2.22)"/><path class="cls-4" d="M716.21,121.52a10,10,0,0,0,0-16.68l.64-1a10.76,10.76,0,0,1,0,18.75Z" transform="translate(-2.82 -2.22)"/><path class="cls-4" d="M585.41,33.69V18.29h3.34l3.43,6.25,3.39-6.25h3.37v15.4h-3.12V23.86l-3.63,6.36h-.07l-3.61-6.31v9.79Z" transform="translate(-2.82 -2.22)"/><path class="cls-4" d="M606.77,34a5.21,5.21,0,0,1-3.95-1.66,6.09,6.09,0,0,1-1.57-4.37v-.2a6.44,6.44,0,0,1,1.46-4.33,4.64,4.64,0,0,1,3.69-1.72,4.35,4.35,0,0,1,3.72,1.75,7.39,7.39,0,0,1,1.3,4.52c0,.37,0,.7,0,1h-7a3,3,0,0,0,.87,1.76,2.39,2.39,0,0,0,1.68.62,3.57,3.57,0,0,0,2.46-1.17L611,32.06A5.46,5.46,0,0,1,606.77,34Zm-2.44-7.06h4.07a3.81,3.81,0,0,0-.63-1.94,1.62,1.62,0,0,0-1.37-.7,1.69,1.69,0,0,0-1.4.69A3.77,3.77,0,0,0,604.33,26.89Z" transform="translate(-2.82 -2.22)"/><path class="cls-4" d="M617.53,33.91a4,4,0,0,1-3.19-1.54A6.64,6.64,0,0,1,613,28v-.35a6.64,6.64,0,0,1,1.3-4.4,4,4,0,0,1,3.19-1.54,3.94,3.94,0,0,1,3.19,1.74V17.81h3.12V33.69h-3.12V32.06A3.77,3.77,0,0,1,617.53,33.91Zm-.72-3.63a2,2,0,0,0,1.64.9,2,2,0,0,0,1.65-.9,3.93,3.93,0,0,0,.66-2.38v-.22a3.93,3.93,0,0,0-.66-2.38,2,2,0,0,0-1.65-.9,2,2,0,0,0-1.64.9,4,4,0,0,0-.65,2.38v.22A4,4,0,0,0,616.82,30.28Z" transform="translate(-2.82 -2.22)"/><path class="cls-4" d="M626.4,20.64V17.81h3.26v2.84Zm.07,13V21.9h3.12V33.69Z" transform="translate(-2.82 -2.22)"/><path class="cls-4" d="M635.11,33.91a3.36,3.36,0,0,1-3.5-3.59v-.13a3.5,3.5,0,0,1,1.11-2.82,4.48,4.48,0,0,1,3-.95,6.7,6.7,0,0,1,2.46.48v-.35a2,2,0,0,0-.58-1.54,2.36,2.36,0,0,0-1.64-.53,7.16,7.16,0,0,0-2.71.66l-.86-2.44a8.87,8.87,0,0,1,4-.95A4.86,4.86,0,0,1,640,23a4.83,4.83,0,0,1,1.21,3.56v7.15h-3.06V32.41A3.65,3.65,0,0,1,635.11,33.91Zm1-2.29a2.14,2.14,0,0,0,1.5-.48,1.65,1.65,0,0,0,.59-1.32v-1a4,4,0,0,0-1.74-.37,2,2,0,0,0-1.37.43,1.53,1.53,0,0,0-.5,1.22v0a1.39,1.39,0,0,0,.41,1.08A1.65,1.65,0,0,0,636.14,31.62Z" transform="translate(-2.82 -2.22)"/><path class="cls-4" d="M643.62,33.69V21.9h3.12v1.58a3.72,3.72,0,0,1,3-1.8,3.2,3.2,0,0,1,2.55,1.07,4.3,4.3,0,0,1,.92,2.92v8h-3.12V26.58q0-2.09-1.67-2.09a1.57,1.57,0,0,0-1.25.54,2.32,2.32,0,0,0-.46,1.55v7.11Z" transform="translate(-2.82 -2.22)"/><path class="cls-4" d="M660.61,33.69V21.9h3.12v1.58a3.69,3.69,0,0,1,3.06-1.8,3,3,0,0,1,2.9,1.72A4.25,4.25,0,0,1,673,21.68a3.31,3.31,0,0,1,2.55,1,4.17,4.17,0,0,1,.95,2.94v8.05h-3.1V26.58q0-2.09-1.63-2.09a1.5,1.5,0,0,0-1.23.54,2.4,2.4,0,0,0-.44,1.55v7.11H667V26.58q0-2.09-1.61-2.09a1.5,1.5,0,0,0-1.23.54,2.4,2.4,0,0,0-.44,1.55v7.11Z" transform="translate(-2.82 -2.22)"/><path class="cls-4" d="M688.05,32.25a5.49,5.49,0,0,1-7.94,0,6.09,6.09,0,0,1-1.57-4.31v-.24a6.1,6.1,0,0,1,1.58-4.32,5.5,5.5,0,0,1,7.94,0,6.11,6.11,0,0,1,1.56,4.32v.24A6.13,6.13,0,0,1,688.05,32.25Zm-3.95-1a2.07,2.07,0,0,0,1.78-.93,4.09,4.09,0,0,0,.66-2.41v-.15a4,4,0,0,0-.68-2.41,2.17,2.17,0,0,0-3.59,0,4.08,4.08,0,0,0-.66,2.41v.15a4,4,0,0,0,.69,2.41A2.12,2.12,0,0,0,684.1,31.25Z" transform="translate(-2.82 -2.22)"/><path class="cls-4" d="M691.69,33.69V21.9h3.12v1.58a3.72,3.72,0,0,1,3-1.8,3.2,3.2,0,0,1,2.55,1.07,4.3,4.3,0,0,1,.92,2.92v8H698.2V26.58q0-2.09-1.67-2.09a1.56,1.56,0,0,0-1.25.54,2.32,2.32,0,0,0-.46,1.55v7.11Z" transform="translate(-2.82 -2.22)"/><path class="cls-4" d="M707.33,33.89a3.4,3.4,0,0,1-2.3-.71,3.08,3.08,0,0,1-.83-2.43v-6.2H703V21.9h1.19v-3h3.12v3h2.33v2.64h-2.33V30.1q0,1,1,1a3,3,0,0,0,1.34-.33v2.49A4.57,4.57,0,0,1,707.33,33.89Z" transform="translate(-2.82 -2.22)"/><path class="cls-4" d="M711.71,33.69V17.81h3.12v5.68a3.72,3.72,0,0,1,3-1.8,3.2,3.2,0,0,1,2.55,1.07,4.3,4.3,0,0,1,.92,2.92v8h-3.12V26.58q0-2.09-1.67-2.09a1.56,1.56,0,0,0-1.25.54,2.32,2.32,0,0,0-.46,1.55v7.11Z" transform="translate(-2.82 -2.22)"/><path class="cls-4" d="M727.33,33.91a6.9,6.9,0,0,1-4.47-1.63l1.36-2.2a5.33,5.33,0,0,0,3.15,1.32,1.48,1.48,0,0,0,.93-.25.79.79,0,0,0,.32-.65v0a.65.65,0,0,0,0-.21.81.81,0,0,0-.1-.2,1.06,1.06,0,0,0-.13-.17,1.1,1.1,0,0,0-.22-.15l-.25-.15a2.09,2.09,0,0,0-.3-.15l-.33-.14-.4-.17-.4-.18a7.74,7.74,0,0,1-2.31-1.43,2.84,2.84,0,0,1-.79-2.13v0a3.28,3.28,0,0,1,1.14-2.63,4.31,4.31,0,0,1,2.9-1A6.62,6.62,0,0,1,731.31,23l-1.25,2.24a5.21,5.21,0,0,0-2.68-1,1.31,1.31,0,0,0-.85.24.74.74,0,0,0-.3.59v0a.84.84,0,0,0,.45.69,11.24,11.24,0,0,0,1.42.74l.14.06.12.05a8.67,8.67,0,0,1,2.33,1.5,2.73,2.73,0,0,1,.79,2v0A3.33,3.33,0,0,1,730.33,33,4.55,4.55,0,0,1,727.33,33.91Z" transform="translate(-2.82 -2.22)"/><path class="cls-4" d="M618.46,53a10.32,10.32,0,0,1,5.5-9.37l.64,1A9.4,9.4,0,0,0,620.08,53a9.4,9.4,0,0,0,4.51,8.34l-.64,1A10.32,10.32,0,0,1,618.46,53Z" transform="translate(-2.82 -2.22)"/><path class="cls-4" d="M635,51.54a4.24,4.24,0,0,1-3.72,2.13,4.49,4.49,0,0,1-4.67-4.78v0a4.91,4.91,0,0,1,4.86-5.21A4.54,4.54,0,0,1,634.91,45c1.08,1.08,1.78,2.77,1.78,6v.18c0,5.24-2.29,8.38-5.7,8.38A6,6,0,0,1,627.08,58l.86-1.32A4.67,4.67,0,0,0,631,58C633.57,58,635,55.18,635,51.54Zm-.24-2.75v0a3.33,3.33,0,0,0-3.32-3.63c-2,0-3.15,1.65-3.15,3.67v0a3.14,3.14,0,0,0,3.19,3.43A3.27,3.27,0,0,0,634.8,48.79Z" transform="translate(-2.82 -2.22)"/><path class="cls-4" d="M638.76,57.62l1-1.23A5.26,5.26,0,0,0,643.29,58a3.26,3.26,0,0,0,3.34-3.45v-.07a3.09,3.09,0,0,0-3.34-3.21,5.5,5.5,0,0,0-2.68.7l-1.06-.73.4-7.37h7.7v1.54h-6.27l-.31,4.91a5.92,5.92,0,0,1,2.49-.55,4.44,4.44,0,0,1,4.75,4.64v.07a4.84,4.84,0,0,1-5,5A6.58,6.58,0,0,1,638.76,57.62Z" transform="translate(-2.82 -2.22)"/><path class="cls-4" d="M650.38,47.69v-.11c0-2.18,1.3-3.85,3.15-3.85s3.13,1.67,3.13,3.81v.11c0,2.18-1.3,3.85-3.15,3.85S650.38,49.83,650.38,47.69Zm1.36-.13v.09c0,1.58.79,2.66,1.78,2.66s1.78-1.1,1.78-2.64v-.09c0-1.56-.79-2.66-1.8-2.66S651.74,46,651.74,47.56Zm10.08-3.67h1.41l-5.24,8-4.73,7.39h-1.41l5.19-8Zm-3.41,11.75v-.11c0-2.18,1.3-3.85,3.15-3.85s3.12,1.67,3.12,3.81v.11c0,2.18-1.3,3.85-3.15,3.85S658.41,57.77,658.41,55.64Zm4.93,0v-.09c0-1.56-.79-2.66-1.8-2.66s-1.78,1.12-1.78,2.64v.09c0,1.58.79,2.66,1.8,2.66S663.34,57.16,663.34,55.62Z" transform="translate(-2.82 -2.22)"/><path class="cls-4" d="M672.6,51.68v-.13c0-4.67,2.9-7.88,6.75-7.88A6.41,6.41,0,0,1,684,45.56l-1,1.25a5.19,5.19,0,0,0-3.7-1.61c-2.84,0-5,2.6-5,6.31v.09c0,3.78,2.18,6.36,5,6.36a5.22,5.22,0,0,0,3.81-1.72l1,1.14a6.59,6.59,0,0,1-4.88,2.11C675.44,59.51,672.6,56.36,672.6,51.68Z" transform="translate(-2.82 -2.22)"/><path class="cls-4" d="M686.88,43.89h1.65v15.4h-1.65Z" transform="translate(-2.82 -2.22)"/><path class="cls-4" d="M691.43,61.29A9.44,9.44,0,0,0,695.94,53a9.44,9.44,0,0,0-4.51-8.34l.64-1A10.3,10.3,0,0,1,697.54,53a10.3,10.3,0,0,1-5.48,9.37Z" transform="translate(-2.82 -2.22)"/><path class="cls-4" d="M110.32,324.41H112v6.89h7.44v-6.89h1.65v15.4H119.4v-7H112v7h-1.65Z" transform="translate(-2.82 -2.22)"/><path class="cls-4" d="M124.75,324.41H130a5.54,5.54,0,0,1,4,1.43,4.38,4.38,0,0,1,1.21,3.17v0a4.39,4.39,0,0,1-3.65,4.45l4.14,6.31h-2l-3.87-6h-3.5v6h-1.65Zm5,7.92c2.51,0,3.89-1.25,3.89-3.21v0c0-2-1.41-3.15-3.72-3.15h-3.5v6.4Z" transform="translate(-2.82 -2.22)"/><path class="cls-4" d="M143.69,329h9.07v1.56h-9.07Zm0,4.6h9.07v1.56h-9.07Z" transform="translate(-2.82 -2.22)"/><path class="cls-4" d="M161.07,332.22V332c0-4.62,2.18-7.88,5.59-7.88s5.57,3.21,5.57,7.83v.18c0,4.62-2.18,7.88-5.59,7.88S161.07,336.84,161.07,332.22Zm9.46,0V332c0-3.7-1.56-6.38-3.89-6.38s-3.87,2.64-3.87,6.34v.18c0,3.7,1.54,6.38,3.89,6.38S170.53,335.92,170.53,332.22Z" transform="translate(-2.82 -2.22)"/><path class="cls-4" d="M174.51,337.55h2v2.27h-2Z" transform="translate(-2.82 -2.22)"/><path class="cls-4" d="M187.47,332.07a4.24,4.24,0,0,1-3.72,2.13,4.49,4.49,0,0,1-4.67-4.78v0a4.91,4.91,0,0,1,4.86-5.21,4.54,4.54,0,0,1,3.39,1.34c1.08,1.08,1.78,2.77,1.78,6v.18c0,5.24-2.29,8.38-5.7,8.38a6,6,0,0,1-3.92-1.52l.86-1.32a4.67,4.67,0,0,0,3.1,1.32C186,338.54,187.45,335.7,187.47,332.07Zm-.24-2.75v0a3.34,3.34,0,0,0-3.32-3.63c-2,0-3.15,1.65-3.15,3.67v0a3.14,3.14,0,0,0,3.19,3.43A3.27,3.27,0,0,0,187.23,329.32Z" transform="translate(-2.82 -2.22)"/><path class="cls-4" d="M198.32,326H191.1v-1.54h9v1.25l-5.94,14.15h-1.78Z" transform="translate(-2.82 -2.22)"/><path class="cls-4" d="M208.1,333.48a10.32,10.32,0,0,1,5.5-9.37l.64,1a10,10,0,0,0,0,16.68l-.64,1A10.32,10.32,0,0,1,208.1,333.48Z" transform="translate(-2.82 -2.22)"/><path class="cls-4" d="M224.69,332.07A4.24,4.24,0,0,1,221,334.2a4.49,4.49,0,0,1-4.67-4.78v0a4.91,4.91,0,0,1,4.86-5.21,4.54,4.54,0,0,1,3.39,1.34c1.08,1.08,1.78,2.77,1.78,6v.18c0,5.24-2.29,8.38-5.7,8.38a6,6,0,0,1-3.92-1.52l.86-1.32a4.67,4.67,0,0,0,3.1,1.32C223.22,338.54,224.67,335.7,224.69,332.07Zm-.24-2.75v0a3.33,3.33,0,0,0-3.32-3.63c-2,0-3.15,1.65-3.15,3.67v0a3.14,3.14,0,0,0,3.19,3.43A3.27,3.27,0,0,0,224.45,329.32Z" transform="translate(-2.82 -2.22)"/><path class="cls-4" d="M228.41,338.14l1-1.23a5.26,5.26,0,0,0,3.54,1.63,3.26,3.26,0,0,0,3.34-3.45V335a3.09,3.09,0,0,0-3.34-3.21,5.5,5.5,0,0,0-2.68.7l-1.06-.73.4-7.37h7.7V326H231l-.31,4.91a5.92,5.92,0,0,1,2.49-.55A4.44,4.44,0,0,1,238,335V335a4.84,4.84,0,0,1-5,5A6.58,6.58,0,0,1,228.41,338.14Z" transform="translate(-2.82 -2.22)"/><path class="cls-4" d="M240,328.22v-.11c0-2.18,1.3-3.85,3.15-3.85s3.12,1.67,3.12,3.81v.11c0,2.18-1.3,3.85-3.15,3.85S240,330.35,240,328.22Zm1.36-.13v.09c0,1.58.79,2.66,1.78,2.66s1.78-1.1,1.78-2.64v-.09c0-1.56-.79-2.66-1.8-2.66S241.39,326.57,241.39,328.09Zm10.08-3.67h1.41l-5.24,8-4.73,7.39H241.5l5.19-8Zm-3.41,11.75v-.11c0-2.18,1.3-3.85,3.15-3.85s3.12,1.67,3.12,3.81v.11c0,2.18-1.3,3.85-3.15,3.85S248.06,338.3,248.06,336.16Zm4.93,0v-.09c0-1.56-.79-2.66-1.8-2.66s-1.78,1.12-1.78,2.64v.09c0,1.58.79,2.66,1.8,2.66S253,337.68,253,336.14Z" transform="translate(-2.82 -2.22)"/><path class="cls-4" d="M262.25,332.2v-.13c0-4.67,2.9-7.88,6.75-7.88a6.41,6.41,0,0,1,4.69,1.89l-1,1.25a5.19,5.19,0,0,0-3.7-1.61c-2.84,0-5,2.6-5,6.31v.09c0,3.78,2.18,6.36,5,6.36a5.22,5.22,0,0,0,3.81-1.72l1,1.14a6.59,6.59,0,0,1-4.88,2.11C265.08,340,262.25,336.89,262.25,332.2Z" transform="translate(-2.82 -2.22)"/><path class="cls-4" d="M276.52,324.41h1.65v15.4h-1.65Z" transform="translate(-2.82 -2.22)"/><path class="cls-4" d="M281.71,328.37h2v2.24h-2Zm0,9.17h2v2.27h-2Z" transform="translate(-2.82 -2.22)"/><path class="cls-4" d="M292.14,332.22V332c0-4.62,2.18-7.88,5.59-7.88s5.57,3.21,5.57,7.83v.18c0,4.62-2.18,7.88-5.59,7.88S292.14,336.84,292.14,332.22Zm9.46,0V332c0-3.7-1.56-6.38-3.89-6.38s-3.87,2.64-3.87,6.34v.18c0,3.7,1.54,6.38,3.89,6.38S301.6,335.92,301.6,332.22Z" transform="translate(-2.82 -2.22)"/><path class="cls-4" d="M305.58,337.55h2v2.27h-2Z" transform="translate(-2.82 -2.22)"/><path class="cls-4" d="M310,335.72v-.07a4,4,0,0,1,2.79-3.81,3.86,3.86,0,0,1-2.35-3.54v-.07c0-2.42,2.11-4,4.58-4s4.58,1.63,4.58,4v.07a3.84,3.84,0,0,1-2.33,3.54,4.09,4.09,0,0,1,2.79,3.78v.07c0,2.6-2.16,4.33-5,4.33S310,338.27,310,335.72Zm8.41-.07v0a3.4,3.4,0,0,0-6.76,0v0c0,1.63,1.28,2.95,3.37,2.95S318.39,337.31,318.39,335.66Zm-.42-7.28v0a3,3,0,0,0-5.92,0v0a3,3,0,0,0,5.92,0Z" transform="translate(-2.82 -2.22)"/><path class="cls-4" d="M329.15,336.25h-7.06l-.31-1.21,7.48-10.74h1.45v10.56h2v1.39h-2v3.56h-1.56Zm0-1.39v-8l-5.5,8Z" transform="translate(-2.82 -2.22)"/><path class="cls-4" d="M334.93,332.42h8.34V334h-8.34Z" transform="translate(-2.82 -2.22)"/><path class="cls-4" d="M347.12,326.08l-2.51.88-.29-1.43,3.19-1.21h1.23v15.49h-1.63Z" transform="translate(-2.82 -2.22)"/><path class="cls-4" d="M352.2,337.55h2v2.27h-2Z" transform="translate(-2.82 -2.22)"/><path class="cls-4" d="M358.1,326.08l-2.51.88-.29-1.43,3.19-1.21h1.23v15.49H358.1Z" transform="translate(-2.82 -2.22)"/><path class="cls-4" d="M365,326.08l-2.51.88-.29-1.43,3.19-1.21h1.23v15.49H365Z" transform="translate(-2.82 -2.22)"/><path class="cls-4" d="M369.56,341.82a10,10,0,0,0,0-16.68l.64-1a10.76,10.76,0,0,1,0,18.75Z" transform="translate(-2.82 -2.22)"/><path class="cls-4" d="M378.94,324.48l-1.46.51-.17-.83,1.86-.71h.72v9h-.95Z" transform="translate(-2.82 -2.22)"/><path class="cls-4" d="M18.7,267.76H3.3v-5.13a5.79,5.79,0,0,1,1.42-4.11A5,5,0,0,1,8.58,257h0a5,5,0,0,1,3.95,1.61A6.28,6.28,0,0,1,14,262.77v1.8H18.7Zm-7.55-3.19v-1.78a2.56,2.56,0,0,0-.68-1.89,2.41,2.41,0,0,0-1.78-.68h0a2.43,2.43,0,0,0-1.85.67,2.72,2.72,0,0,0-.64,1.95v1.74Z" transform="translate(-2.82 -2.22)"/><path class="cls-4" d="M18.7,255.2H6.91v-3.12H9a3.12,3.12,0,0,1-2.29-3.19H10.1V249a2.84,2.84,0,0,0,.91,2.27,4.09,4.09,0,0,0,2.74.79h5Z" transform="translate(-2.82 -2.22)"/><path class="cls-4" d="M17.26,238.4a5.49,5.49,0,0,1,0,7.94A6.09,6.09,0,0,1,13,247.92h-.24a6.1,6.1,0,0,1-4.32-1.58,5.5,5.5,0,0,1,0-7.94,6.1,6.1,0,0,1,4.32-1.56h.24A6.13,6.13,0,0,1,17.26,238.4Zm-1,3.95a2.07,2.07,0,0,0-.93-1.78,4.08,4.08,0,0,0-2.41-.66h-.15a4,4,0,0,0-2.41.68,2.17,2.17,0,0,0,0,3.59,4.08,4.08,0,0,0,2.41.66h.15a4,4,0,0,0,2.41-.69A2.12,2.12,0,0,0,16.26,242.35Z" transform="translate(-2.82 -2.22)"/><path class="cls-4" d="M22,234.76H6.91v-3.12H8.54a3.77,3.77,0,0,1-1.85-3.19,4,4,0,0,1,1.54-3.19,6.64,6.64,0,0,1,4.4-1.3H13a6.64,6.64,0,0,1,4.4,1.3,4,4,0,0,1,1.54,3.19,3.87,3.87,0,0,1-1.74,3.19H22ZM15.29,231a2,2,0,0,0,.9-1.65,2,2,0,0,0-.9-1.64,4,4,0,0,0-2.38-.65h-.22a4,4,0,0,0-2.38.65,2,2,0,0,0-.9,1.64,2,2,0,0,0,.9,1.65,3.93,3.93,0,0,0,2.38.66h.22A3.93,3.93,0,0,0,15.29,231Z" transform="translate(-2.82 -2.22)"/><path class="cls-4" d="M17.26,212.82a5.49,5.49,0,0,1,0,7.94A6.09,6.09,0,0,1,13,222.33h-.24a6.1,6.1,0,0,1-4.32-1.58,5.5,5.5,0,0,1,0-7.94,6.1,6.1,0,0,1,4.32-1.56h.24A6.13,6.13,0,0,1,17.26,212.82Zm-1,3.95a2.07,2.07,0,0,0-.93-1.78,4.08,4.08,0,0,0-2.41-.66h-.15a4,4,0,0,0-2.41.68,2.17,2.17,0,0,0,0,3.59,4.08,4.08,0,0,0,2.41.66h.15a4,4,0,0,0,2.41-.69A2.12,2.12,0,0,0,16.26,216.77Z" transform="translate(-2.82 -2.22)"/><path class="cls-4" d="M18.7,209.18H6.91v-3.12H9a3.12,3.12,0,0,1-2.29-3.19H10.1V203a2.84,2.84,0,0,0,.91,2.27,4.09,4.09,0,0,0,2.74.79h5Z" transform="translate(-2.82 -2.22)"/><path class="cls-4" d="M18.9,197.5a3.4,3.4,0,0,1-.71,2.3,3.08,3.08,0,0,1-2.43.83H9.55v1.19H6.91v-1.19h-3V197.5h3v-2.33H9.55v2.33h5.57q1,0,1-1a3,3,0,0,0-.33-1.34h2.49A4.58,4.58,0,0,1,18.9,197.5Z" transform="translate(-2.82 -2.22)"/><path class="cls-4" d="M5.65,193.07H2.82v-3.26H5.65Zm13-.07H6.91v-3.12H18.7Z" transform="translate(-2.82 -2.22)"/><path class="cls-4" d="M17.26,178.19a5.49,5.49,0,0,1,0,7.94A6.09,6.09,0,0,1,13,187.71h-.24a6.1,6.1,0,0,1-4.32-1.58,5.5,5.5,0,0,1,0-7.94,6.1,6.1,0,0,1,4.32-1.56h.24A6.13,6.13,0,0,1,17.26,178.19Zm-1,3.95a2.07,2.07,0,0,0-.93-1.78,4.08,4.08,0,0,0-2.41-.66h-.15a4,4,0,0,0-2.41.68,2.17,2.17,0,0,0,0,3.59,4.08,4.08,0,0,0,2.41.66h.15a4,4,0,0,0,2.41-.69A2.12,2.12,0,0,0,16.26,182.14Z" transform="translate(-2.82 -2.22)"/><path class="cls-4" d="M18.7,174.55H6.91v-3.12H8.49a3.72,3.72,0,0,1-1.8-3,3.2,3.2,0,0,1,1.07-2.55,4.3,4.3,0,0,1,2.92-.92h8V168H11.59q-2.09,0-2.09,1.67A1.57,1.57,0,0,0,10,171a2.32,2.32,0,0,0,1.55.46H18.7Z" transform="translate(-2.82 -2.22)"/><path class="cls-4" d="M18.92,154.68a3.36,3.36,0,0,1-3.59,3.5H15.2a3.49,3.49,0,0,1-2.82-1.11,4.48,4.48,0,0,1-.95-3,6.7,6.7,0,0,1,.48-2.46h-.35a2,2,0,0,0-1.54.58,2.36,2.36,0,0,0-.53,1.64,7.16,7.16,0,0,0,.66,2.71l-2.44.86a8.88,8.88,0,0,1-.95-4A4.86,4.86,0,0,1,8,149.78a4.83,4.83,0,0,1,3.56-1.21H18.7v3.06H17.42A3.65,3.65,0,0,1,18.92,154.68Zm-2.29-1a2.14,2.14,0,0,0-.48-1.5,1.65,1.65,0,0,0-1.32-.59h-1a4,4,0,0,0-.37,1.74,2,2,0,0,0,.43,1.38,1.53,1.53,0,0,0,1.22.5h0a1.39,1.39,0,0,0,1.08-.41A1.65,1.65,0,0,0,16.63,153.65Z" transform="translate(-2.82 -2.22)"/><path class="cls-4" d="M18.7,146.06H2.82v-3.12H18.7Z" transform="translate(-2.82 -2.22)"/><path class="cls-4" d="M5.65,140.25H2.82V137H5.65Zm13-.07H6.91v-3.12H18.7Z" transform="translate(-2.82 -2.22)"/><path class="cls-4" d="M18.79,131.32l-11.88,4V132l7.83-2.2-7.83-2.22v-3.17l11.88,4Z" transform="translate(-2.82 -2.22)"/><path class="cls-4" d="M19,118.38a5.21,5.21,0,0,1-1.66,3.95,6.09,6.09,0,0,1-4.37,1.57h-.2a6.44,6.44,0,0,1-4.33-1.46,4.64,4.64,0,0,1-1.72-3.69A4.35,4.35,0,0,1,8.44,115a7.39,7.39,0,0,1,4.52-1.3l1,0v7a3,3,0,0,0,1.76-.87,2.39,2.39,0,0,0,.62-1.68,3.58,3.58,0,0,0-1.17-2.46l1.89-1.61A5.46,5.46,0,0,1,19,118.38Zm-7.06,2.44v-4.07a3.81,3.81,0,0,0-1.94.63,1.62,1.62,0,0,0-.7,1.38,1.69,1.69,0,0,0,.69,1.4A3.77,3.77,0,0,0,11.9,120.83Z" transform="translate(-2.82 -2.22)"/><path class="cls-4" d="M353.56,378.58l-1.83.64-.21-1,2.32-.88h.9v11.27h-1.18Z" transform="translate(-2.82 -2.22)"/><path class="cls-4" d="M356.84,387.64l3.62-4c1.34-1.44,1.86-2.26,1.86-3.3a1.93,1.93,0,0,0-2-2,3,3,0,0,0-2.51,1.6l-.83-.71a3.9,3.9,0,0,1,3.46-2,3,3,0,0,1,3.15,3v0c0,1.44-.69,2.38-2.26,4l-2.8,3.17h5.14v1.12h-6.8Z" transform="translate(-2.82 -2.22)"/><path class="cls-4" d="M444.39,378.58l-1.83.64-.21-1,2.32-.88h.9v11.27h-1.18Z" transform="translate(-2.82 -2.22)"/><path class="cls-4" d="M449.15,387.78c-.82-.83-1.3-2-1.3-4.37v-.13c0-3.71,1.58-6.1,4.15-6.1a4.16,4.16,0,0,1,2.71,1l-.64,1a3.18,3.18,0,0,0-2.11-.86c-1.86,0-2.88,2-2.9,4.79a3.1,3.1,0,0,1,2.72-1.52,3.26,3.26,0,0,1,3.38,3.42v0a3.55,3.55,0,0,1-3.54,3.73A3.4,3.4,0,0,1,449.15,387.78Zm4.79-2.72v0a2.26,2.26,0,0,0-2.32-2.43,2.35,2.35,0,0,0-2.39,2.45v0a2.41,2.41,0,0,0,2.4,2.59A2.38,2.38,0,0,0,453.94,385.06Z" transform="translate(-2.82 -2.22)"/><path class="cls-4" d="M530,387.64l3.62-4c1.34-1.44,1.86-2.26,1.86-3.3a1.93,1.93,0,0,0-2-2,3,3,0,0,0-2.51,1.6l-.83-.71a3.91,3.91,0,0,1,3.46-2,3,3,0,0,1,3.15,3v0c0,1.44-.69,2.38-2.26,4l-2.8,3.17h5.14v1.12H530Z" transform="translate(-2.82 -2.22)"/><path class="cls-4" d="M538.51,383v-.13c0-3.36,1.58-5.73,4.07-5.73s4,2.34,4,5.7V383c0,3.36-1.58,5.73-4.07,5.73S538.51,386.41,538.51,383Zm6.88,0v-.13c0-2.69-1.14-4.64-2.83-4.64s-2.82,1.92-2.82,4.61V383c0,2.69,1.12,4.64,2.83,4.64S545.39,385.73,545.39,383Z" transform="translate(-2.82 -2.22)"/><path class="cls-4" d="M623,387.64l3.62-4c1.34-1.44,1.86-2.26,1.86-3.3a1.93,1.93,0,0,0-2-2,3,3,0,0,0-2.51,1.6l-.83-.71a3.91,3.91,0,0,1,3.46-2,3,3,0,0,1,3.15,3v0c0,1.44-.69,2.38-2.26,4l-2.8,3.17h5.14v1.12H623Z" transform="translate(-2.82 -2.22)"/><path class="cls-4" d="M636.19,386h-5.14l-.22-.88,5.44-7.81h1.06V385h1.49v1h-1.49v2.59h-1.14Zm0-1v-5.79l-4,5.79Z" transform="translate(-2.82 -2.22)"/><path class="cls-4" d="M710.62,387.64l3.62-4c1.34-1.44,1.86-2.26,1.86-3.3a1.93,1.93,0,0,0-2-2,3,3,0,0,0-2.51,1.6l-.83-.71a3.9,3.9,0,0,1,3.46-2,3,3,0,0,1,3.15,3v0c0,1.44-.69,2.38-2.26,4l-2.8,3.17h5.14v1.12h-6.8Z" transform="translate(-2.82 -2.22)"/><path class="cls-4" d="M719,385.59v0a2.92,2.92,0,0,1,2-2.77,2.81,2.81,0,0,1-1.71-2.58v0a3.35,3.35,0,0,1,6.66,0v0a2.79,2.79,0,0,1-1.7,2.58,3,3,0,0,1,2,2.75v0c0,1.89-1.57,3.15-3.67,3.15S719,387.45,719,385.59Zm6.12,0v0a2.47,2.47,0,0,0-4.91,0v0a2.48,2.48,0,0,0,4.91,0Zm-.3-5.3v0a2.16,2.16,0,0,0-4.31,0v0a2.15,2.15,0,0,0,4.31,0Z" transform="translate(-2.82 -2.22)"/><path class="cls-4" d="M801.9,387.21l.77-.83a3.34,3.34,0,0,0,2.64,1.26,2.18,2.18,0,0,0,2.27-2.24v0c0-1.44-1.23-2.18-3-2.18h-.42l-.18-.75,3.11-4h-4.75v-1.1h6.29v.9l-3.14,4c1.73.19,3.28,1.12,3.28,3.09v0a3.34,3.34,0,0,1-3.49,3.39A4.36,4.36,0,0,1,801.9,387.21Z" transform="translate(-2.82 -2.22)"/><path class="cls-4" d="M810.34,387.64l3.62-4c1.34-1.44,1.86-2.26,1.86-3.3a1.93,1.93,0,0,0-2-2,3,3,0,0,0-2.51,1.6l-.83-.71a3.91,3.91,0,0,1,3.46-2,3,3,0,0,1,3.15,3v0c0,1.44-.69,2.38-2.26,4l-2.8,3.17h5.14v1.12h-6.8Z" transform="translate(-2.82 -2.22)"/><path class="cls-4" d="M893.35,387.21l.77-.83a3.34,3.34,0,0,0,2.64,1.26A2.18,2.18,0,0,0,899,385.4v0c0-1.44-1.23-2.18-3-2.18h-.42l-.18-.75,3.11-4h-4.75v-1.1h6.29v.9l-3.14,4c1.73.19,3.28,1.12,3.28,3.09v0a3.34,3.34,0,0,1-3.49,3.39A4.36,4.36,0,0,1,893.35,387.21Z" transform="translate(-2.82 -2.22)"/><path class="cls-4" d="M903.29,387.78c-.82-.83-1.3-2-1.3-4.37v-.13c0-3.71,1.58-6.1,4.15-6.1a4.16,4.16,0,0,1,2.71,1l-.64,1a3.18,3.18,0,0,0-2.11-.86c-1.86,0-2.88,2-2.9,4.79a3.1,3.1,0,0,1,2.72-1.52,3.26,3.26,0,0,1,3.38,3.42v0a3.55,3.55,0,0,1-3.54,3.73A3.4,3.4,0,0,1,903.29,387.78Zm4.79-2.72v0a2.26,2.26,0,0,0-2.32-2.43,2.35,2.35,0,0,0-2.39,2.45v0a2.41,2.41,0,0,0,2.4,2.59A2.38,2.38,0,0,0,908.07,385.06Z" transform="translate(-2.82 -2.22)"/><path class="cls-4" d="M72,383v-.13c0-3.36,1.58-5.73,4.07-5.73s4,2.34,4,5.7V383c0,3.36-1.58,5.73-4.07,5.73S72,386.41,72,383Zm6.88,0v-.13c0-2.69-1.14-4.64-2.83-4.64s-2.82,1.92-2.82,4.61V383c0,2.69,1.12,4.64,2.83,4.64S78.88,385.73,78.88,383Z" transform="translate(-2.82 -2.22)"/><path class="cls-4" d="M32.58,295l3.62-4c1.34-1.44,1.86-2.26,1.86-3.3a1.93,1.93,0,0,0-2-2,3,3,0,0,0-2.51,1.6l-.83-.71a3.91,3.91,0,0,1,3.46-2,3,3,0,0,1,3.15,3v0c0,1.44-.69,2.38-2.26,4l-2.8,3.17h5.14v1.12h-6.8Z" transform="translate(-2.82 -2.22)"/><path class="cls-4" d="M41.09,290.36v-.13c0-3.36,1.58-5.73,4.07-5.73s4,2.34,4,5.7v.13c0,3.36-1.58,5.73-4.07,5.73S41.09,293.73,41.09,290.36Zm6.88,0v-.13c0-2.69-1.14-4.64-2.83-4.64s-2.82,1.92-2.82,4.61v.13c0,2.69,1.12,4.64,2.83,4.64S48,293.05,48,290.36Z" transform="translate(-2.82 -2.22)"/><path class="cls-4" d="M50.77,287.45v-.08c0-1.58.94-2.8,2.29-2.8s2.27,1.22,2.27,2.77v.08c0,1.58-.94,2.8-2.29,2.8S50.77,289,50.77,287.45Zm1-.1v.06c0,1.15.58,1.94,1.3,1.94s1.3-.8,1.3-1.92v-.06c0-1.14-.58-1.94-1.31-1.94S51.76,286.25,51.76,287.35Zm7.33-2.67h1l-3.81,5.83-3.44,5.38h-1l3.78-5.81Zm-2.48,8.55v-.08c0-1.58.94-2.8,2.29-2.8s2.27,1.22,2.27,2.77v.08c0,1.58-.94,2.8-2.29,2.8S56.61,294.78,56.61,293.23Zm3.58,0v-.06c0-1.14-.58-1.94-1.31-1.94s-1.3.82-1.3,1.92v.06c0,1.15.58,1.94,1.31,1.94S60.2,294.33,60.2,293.21Z" transform="translate(-2.82 -2.22)"/><path class="cls-4" d="M36.93,222.72H31.79l-.22-.88L37,214h1.06v7.68h1.49v1H38.07v2.59H36.93Zm0-1v-5.79l-4,5.79Z" transform="translate(-2.82 -2.22)"/><path class="cls-4" d="M41.09,219.79v-.13c0-3.36,1.58-5.73,4.07-5.73s4,2.34,4,5.7v.13c0,3.36-1.58,5.73-4.07,5.73S41.09,223.15,41.09,219.79Zm6.88,0v-.13C48,217,46.84,215,45.14,215s-2.82,1.92-2.82,4.61v.13c0,2.69,1.12,4.64,2.83,4.64S48,222.48,48,219.79Z" transform="translate(-2.82 -2.22)"/><path class="cls-4" d="M50.77,216.88v-.08c0-1.58.94-2.8,2.29-2.8s2.27,1.22,2.27,2.77v.08c0,1.58-.94,2.8-2.29,2.8S50.77,218.43,50.77,216.88Zm1-.1v.06c0,1.15.58,1.94,1.3,1.94s1.3-.8,1.3-1.92v-.06c0-1.14-.58-1.94-1.31-1.94S51.76,215.68,51.76,216.78Zm7.33-2.67h1l-3.81,5.83-3.44,5.38h-1l3.78-5.81Zm-2.48,8.55v-.08c0-1.58.94-2.8,2.29-2.8s2.27,1.22,2.27,2.77v.08c0,1.58-.94,2.8-2.29,2.8S56.61,224.21,56.61,222.66Zm3.59,0v-.06c0-1.14-.58-1.94-1.31-1.94s-1.3.82-1.3,1.92v.06c0,1.15.58,1.94,1.31,1.94S60.2,223.76,60.2,222.64Z" transform="translate(-2.82 -2.22)"/><path class="cls-4" d="M33.4,154c-.82-.83-1.3-2-1.3-4.37v-.13c0-3.71,1.58-6.1,4.15-6.1a4.16,4.16,0,0,1,2.71,1l-.64,1a3.18,3.18,0,0,0-2.11-.86c-1.86,0-2.88,2-2.9,4.79A3.1,3.1,0,0,1,36,147.73a3.26,3.26,0,0,1,3.38,3.43v0a3.55,3.55,0,0,1-3.54,3.73A3.41,3.41,0,0,1,33.4,154Zm4.79-2.72v0a2.26,2.26,0,0,0-2.32-2.43,2.35,2.35,0,0,0-2.38,2.45v0a2.41,2.41,0,0,0,2.4,2.59A2.38,2.38,0,0,0,38.18,151.24Z" transform="translate(-2.82 -2.22)"/><path class="cls-4" d="M41.09,149.22v-.13c0-3.36,1.58-5.73,4.07-5.73s4,2.34,4,5.7v.13c0,3.36-1.58,5.73-4.07,5.73S41.09,152.58,41.09,149.22Zm6.88,0v-.13c0-2.69-1.14-4.64-2.83-4.64s-2.82,1.92-2.82,4.61v.13c0,2.69,1.12,4.64,2.83,4.64S48,151.91,48,149.22Z" transform="translate(-2.82 -2.22)"/><path class="cls-4" d="M50.77,146.31v-.08c0-1.58.94-2.8,2.29-2.8s2.27,1.22,2.27,2.77v.08c0,1.58-.94,2.8-2.29,2.8S50.77,147.86,50.77,146.31Zm1-.1v.06c0,1.15.58,1.94,1.3,1.94s1.3-.8,1.3-1.92v-.06c0-1.14-.58-1.94-1.31-1.94S51.76,145.11,51.76,146.21Zm7.33-2.67h1l-3.81,5.83-3.44,5.38h-1l3.78-5.81Zm-2.48,8.55V152c0-1.58.94-2.8,2.29-2.8s2.27,1.22,2.27,2.77v.08c0,1.58-.94,2.8-2.29,2.8S56.61,153.64,56.61,152.09Zm3.59,0V152c0-1.14-.58-1.94-1.31-1.94s-1.3.82-1.3,1.92v.06c0,1.15.58,1.94,1.31,1.94S60.2,153.19,60.2,152.07Z" transform="translate(-2.82 -2.22)"/><path class="cls-4" d="M32.21,82.19v0a2.92,2.92,0,0,1,2-2.77,2.8,2.8,0,0,1-1.71-2.58v0a3.1,3.1,0,0,1,3.33-2.95,3.09,3.09,0,0,1,3.33,2.95v0a2.79,2.79,0,0,1-1.7,2.58,3,3,0,0,1,2,2.75v0c0,1.89-1.57,3.15-3.67,3.15S32.21,84.05,32.21,82.19Zm6.11,0v0a2.47,2.47,0,0,0-4.91,0v0a2.21,2.21,0,0,0,2.45,2.15A2.21,2.21,0,0,0,38.33,82.15Zm-.3-5.3v0a2.16,2.16,0,0,0-4.31,0v0a2.15,2.15,0,0,0,4.31,0Z" transform="translate(-2.82 -2.22)"/><path class="cls-4" d="M41.09,79.65v-.13c0-3.36,1.58-5.73,4.07-5.73s4,2.34,4,5.7v.13c0,3.36-1.58,5.73-4.07,5.73S41.09,83,41.09,79.65Zm6.88,0v-.13c0-2.69-1.14-4.64-2.83-4.64s-2.82,1.92-2.82,4.61v.13c0,2.69,1.12,4.64,2.83,4.64S48,82.34,48,79.65Z" transform="translate(-2.82 -2.22)"/><path class="cls-4" d="M50.77,76.74v-.08c0-1.58.94-2.8,2.29-2.8s2.27,1.22,2.27,2.77v.08c0,1.58-.94,2.8-2.29,2.8S50.77,78.29,50.77,76.74Zm1-.1v.06c0,1.15.58,1.94,1.3,1.94s1.3-.8,1.3-1.92v-.06c0-1.14-.58-1.94-1.31-1.94S51.76,75.54,51.76,76.64ZM59.09,74h1l-3.81,5.83-3.44,5.38h-1l3.78-5.81Zm-2.48,8.55v-.08c0-1.58.94-2.8,2.29-2.8s2.27,1.22,2.27,2.77v.08c0,1.58-.94,2.8-2.29,2.8S56.61,84.07,56.61,82.51Zm3.59,0v-.06c0-1.14-.58-1.94-1.31-1.94s-1.3.82-1.3,1.92v.06c0,1.15.58,1.94,1.31,1.94S60.2,83.62,60.2,82.5Z" transform="translate(-2.82 -2.22)"/><path class="cls-4" d="M37.62,321.14l-1.83.64-.21-1,2.32-.88h.9v11.27H37.62Z" transform="translate(-2.82 -2.22)"/><path class="cls-4" d="M41.09,325.6v-.13c0-3.36,1.58-5.73,4.07-5.73s4,2.34,4,5.7v.13c0,3.36-1.58,5.73-4.07,5.73S41.09,329,41.09,325.6Zm6.88,0v-.13c0-2.69-1.14-4.64-2.83-4.64s-2.82,1.92-2.82,4.61v.13c0,2.69,1.12,4.64,2.83,4.64S48,328.29,48,325.6Z" transform="translate(-2.82 -2.22)"/><path class="cls-4" d="M50.77,322.69v-.08c0-1.58.94-2.8,2.29-2.8s2.27,1.22,2.27,2.77v.08c0,1.58-.94,2.8-2.29,2.8S50.77,324.24,50.77,322.69Zm1-.1v.06c0,1.15.58,1.94,1.3,1.94s1.3-.8,1.3-1.92v-.06c0-1.14-.58-1.94-1.31-1.94S51.76,321.49,51.76,322.59Zm7.33-2.67h1l-3.81,5.83-3.44,5.38h-1l3.78-5.81Zm-2.48,8.55v-.08c0-1.58.94-2.8,2.29-2.8s2.27,1.22,2.27,2.77v.08c0,1.58-.94,2.8-2.29,2.8S56.61,330,56.61,328.47Zm3.59,0v-.06c0-1.14-.58-1.94-1.31-1.94s-1.3.82-1.3,1.92v.06c0,1.15.58,1.94,1.31,1.94S60.2,329.57,60.2,328.45Z" transform="translate(-2.82 -2.22)"/><path class="cls-4" d="M32.45,260.19l.77-.83a3.34,3.34,0,0,0,2.64,1.26,2.18,2.18,0,0,0,2.27-2.24v0c0-1.44-1.23-2.18-3-2.18h-.42l-.18-.75,3.11-4H32.92v-1.1h6.29v.9l-3.14,4c1.73.19,3.28,1.12,3.28,3.09v0a3.34,3.34,0,0,1-3.49,3.39A4.36,4.36,0,0,1,32.45,260.19Z" transform="translate(-2.82 -2.22)"/><path class="cls-4" d="M41.09,256v-.13c0-3.36,1.58-5.73,4.07-5.73s4,2.34,4,5.7V256c0,3.36-1.58,5.73-4.07,5.73S41.09,259.39,41.09,256ZM48,256v-.13c0-2.69-1.14-4.64-2.83-4.64s-2.82,1.92-2.82,4.61V256c0,2.69,1.12,4.64,2.83,4.64S48,258.72,48,256Z" transform="translate(-2.82 -2.22)"/><path class="cls-4" d="M50.77,253.12V253c0-1.58.94-2.8,2.29-2.8s2.27,1.22,2.27,2.77v.08c0,1.58-.94,2.8-2.29,2.8S50.77,254.67,50.77,253.12Zm1-.1v.06c0,1.15.58,1.94,1.3,1.94s1.3-.8,1.3-1.92V253c0-1.14-.58-1.94-1.31-1.94S51.76,251.92,51.76,253Zm7.33-2.67h1l-3.81,5.83-3.44,5.38h-1l3.78-5.81Zm-2.48,8.55v-.08c0-1.58.94-2.8,2.29-2.8s2.27,1.22,2.27,2.77v.08c0,1.58-.94,2.8-2.29,2.8S56.61,260.45,56.61,258.89Zm3.59,0v-.06c0-1.14-.58-1.94-1.31-1.94s-1.3.82-1.3,1.92v.06c0,1.15.58,1.94,1.31,1.94S60.2,260,60.2,258.88Z" transform="translate(-2.82 -2.22)"/><path class="cls-4" d="M32.48,188.76l.72-.9a3.82,3.82,0,0,0,2.58,1.18,2.37,2.37,0,0,0,2.43-2.51v0a2.25,2.25,0,0,0-2.43-2.34,4,4,0,0,0-2,.51l-.77-.53.29-5.36h5.6v1.12H34.39l-.22,3.57a4.32,4.32,0,0,1,1.81-.4,3.23,3.23,0,0,1,3.46,3.38v0a3.52,3.52,0,0,1-3.67,3.67A4.78,4.78,0,0,1,32.48,188.76Z" transform="translate(-2.82 -2.22)"/><path class="cls-4" d="M41.09,184.46v-.13c0-3.36,1.58-5.73,4.07-5.73s4,2.34,4,5.7v.13c0,3.36-1.58,5.73-4.07,5.73S41.09,187.82,41.09,184.46Zm6.88,0v-.13c0-2.69-1.14-4.64-2.83-4.64s-2.82,1.92-2.82,4.61v.13c0,2.69,1.12,4.64,2.83,4.64S48,187.15,48,184.46Z" transform="translate(-2.82 -2.22)"/><path class="cls-4" d="M50.77,181.54v-.08c0-1.58.94-2.8,2.29-2.8s2.27,1.22,2.27,2.77v.08c0,1.58-.94,2.8-2.29,2.8S50.77,183.1,50.77,181.54Zm1-.1v.06c0,1.15.58,1.94,1.3,1.94s1.3-.8,1.3-1.92v-.06c0-1.14-.58-1.94-1.31-1.94S51.76,180.34,51.76,181.45Zm7.33-2.67h1l-3.81,5.83L52.87,190h-1l3.78-5.81Zm-2.48,8.55v-.08c0-1.58.94-2.8,2.29-2.8s2.27,1.22,2.27,2.77v.08c0,1.58-.94,2.8-2.29,2.8S56.61,188.88,56.61,187.32Zm3.59,0v-.06c0-1.14-.58-1.94-1.31-1.94s-1.3.82-1.3,1.92v.06c0,1.15.58,1.94,1.31,1.94S60.2,188.43,60.2,187.31Z" transform="translate(-2.82 -2.22)"/><path class="cls-4" d="M38.47,110.33H33.22V109.2h6.55v.91l-4.32,10.29h-1.3Z" transform="translate(-2.82 -2.22)"/><path class="cls-4" d="M41.09,114.89v-.13c0-3.36,1.58-5.73,4.07-5.73s4,2.34,4,5.7v.13c0,3.36-1.58,5.73-4.07,5.73S41.09,118.25,41.09,114.89Zm6.88,0v-.13c0-2.69-1.14-4.64-2.83-4.64s-2.82,1.92-2.82,4.61v.13c0,2.69,1.12,4.64,2.83,4.64S48,117.58,48,114.89Z" transform="translate(-2.82 -2.22)"/><path class="cls-4" d="M50.77,112v-.08c0-1.58.94-2.8,2.29-2.8s2.27,1.22,2.27,2.77v.08c0,1.58-.94,2.8-2.29,2.8S50.77,113.53,50.77,112Zm1-.1v.06c0,1.15.58,1.94,1.3,1.94s1.3-.8,1.3-1.92v-.06c0-1.14-.58-1.94-1.31-1.94S51.76,110.77,51.76,111.88Zm7.33-2.67h1L56.31,115l-3.44,5.38h-1l3.78-5.81Zm-2.48,8.55v-.08c0-1.58.94-2.8,2.29-2.8s2.27,1.22,2.27,2.77v.08c0,1.58-.94,2.8-2.29,2.8S56.61,119.3,56.61,117.75Zm3.59,0v-.06c0-1.14-.58-1.94-1.31-1.94s-1.3.82-1.3,1.92v.06c0,1.15.58,1.94,1.31,1.94S60.2,118.86,60.2,117.74Z" transform="translate(-2.82 -2.22)"/><path class="cls-4" d="M38.17,44.2a3.09,3.09,0,0,1-2.71,1.55,3.26,3.26,0,0,1-3.39-3.47v0a3.57,3.57,0,0,1,3.54-3.79,3.3,3.3,0,0,1,2.46,1c.78.78,1.3,2,1.3,4.35v.13c0,3.81-1.67,6.1-4.15,6.1a4.36,4.36,0,0,1-2.85-1.1l.62-1a3.4,3.4,0,0,0,2.26,1C37.09,48.91,38.15,46.84,38.17,44.2Zm-.18-2v0a2.37,2.37,0,1,0-4.71,0v0a2.29,2.29,0,0,0,2.32,2.5A2.38,2.38,0,0,0,38,42.2Z" transform="translate(-2.82 -2.22)"/><path class="cls-4" d="M41.09,44.32v-.13c0-3.36,1.58-5.73,4.07-5.73s4,2.34,4,5.7v.13c0,3.36-1.58,5.73-4.07,5.73S41.09,47.68,41.09,44.32Zm6.88,0v-.13c0-2.69-1.14-4.64-2.83-4.64s-2.82,1.92-2.82,4.61v.13c0,2.69,1.12,4.64,2.83,4.64S48,47,48,44.32Z" transform="translate(-2.82 -2.22)"/><path class="cls-4" d="M50.77,41.4v-.08c0-1.58.94-2.8,2.29-2.8s2.27,1.22,2.27,2.77v.08c0,1.58-.94,2.8-2.29,2.8S50.77,43,50.77,41.4Zm1-.1v.06c0,1.15.58,1.94,1.3,1.94s1.3-.8,1.3-1.92v-.06c0-1.14-.58-1.94-1.31-1.94S51.76,40.2,51.76,41.31Zm7.33-2.67h1l-3.81,5.83-3.44,5.38h-1L55.62,44Zm-2.48,8.55V47.1c0-1.58.94-2.8,2.29-2.8s2.27,1.22,2.27,2.77v.08c0,1.58-.94,2.8-2.29,2.8S56.61,48.73,56.61,47.18Zm3.59,0V47.1c0-1.14-.58-1.94-1.31-1.94s-1.3.82-1.3,1.92v.06c0,1.15.58,1.94,1.31,1.94S60.2,48.29,60.2,47.17Z" transform="translate(-2.82 -2.22)"/><path class="cls-4" d="M27.78,3.61,26,4.25l-.21-1,2.32-.88H29V13.6H27.78Z" transform="translate(-2.82 -2.22)"/><path class="cls-4" d="M31.25,8.08V7.95c0-3.36,1.58-5.73,4.07-5.73s4,2.34,4,5.7V8c0,3.36-1.58,5.73-4.07,5.73S31.25,11.44,31.25,8.08Zm6.88,0V7.95c0-2.69-1.14-4.64-2.83-4.64s-2.82,1.92-2.82,4.61V8c0,2.69,1.12,4.64,2.83,4.64S38.13,10.77,38.13,8.08Z" transform="translate(-2.82 -2.22)"/><path class="cls-4" d="M41.09,8.08V7.95c0-3.36,1.58-5.73,4.07-5.73s4,2.34,4,5.7V8c0,3.36-1.58,5.73-4.07,5.73S41.09,11.44,41.09,8.08Zm6.88,0V7.95c0-2.69-1.14-4.64-2.83-4.64s-2.82,1.92-2.82,4.61V8c0,2.69,1.12,4.64,2.83,4.64S48,10.77,48,8.08Z" transform="translate(-2.82 -2.22)"/><path class="cls-4" d="M50.77,5.16V5.08c0-1.58.94-2.8,2.29-2.8s2.27,1.22,2.27,2.77v.08c0,1.58-.94,2.8-2.29,2.8S50.77,6.72,50.77,5.16Zm1-.1v.06c0,1.15.58,1.94,1.3,1.94s1.3-.8,1.3-1.92V5.08c0-1.14-.58-1.94-1.31-1.94S51.76,4,51.76,5.07ZM59.09,2.4h1L56.31,8.22,52.87,13.6h-1l3.78-5.81Zm-2.48,8.55v-.08c0-1.58.94-2.8,2.29-2.8s2.27,1.22,2.27,2.77v.08c0,1.58-.94,2.8-2.29,2.8S56.61,12.5,56.61,10.94Zm3.59,0v-.06c0-1.14-.58-1.94-1.31-1.94s-1.3.82-1.3,1.92v.06c0,1.15.58,1.94,1.31,1.94S60.2,12,60.2,10.93Z" transform="translate(-2.82 -2.22)"/><line class="cls-3" x1="74.28" y1="360.73" x2="74.28" y2="6.95"/><line class="cls-3" x1="64.28" y1="360.73" x2="74.06" y2="360.73"/><line class="cls-3" x1="64.28" y1="289.98" x2="74.06" y2="289.98"/><line class="cls-3" x1="64.28" y1="219.22" x2="74.06" y2="219.22"/><line class="cls-3" x1="64.28" y1="148.46" x2="74.06" y2="148.46"/><line class="cls-3" x1="64.28" y1="77.71" x2="74.06" y2="77.71"/><line class="cls-3" x1="64.28" y1="6.95" x2="74.06" y2="6.95"/><line class="cls-3" x1="64.28" y1="325.6" x2="74.06" y2="325.6"/><line class="cls-3" x1="64.28" y1="254.84" x2="74.06" y2="254.84"/><line class="cls-3" x1="64.28" y1="184.08" x2="74.06" y2="184.08"/><line class="cls-3" x1="64.28" y1="113.33" x2="74.06" y2="113.33"/><line class="cls-3" x1="64.28" y1="42.57" x2="74.06" y2="42.57"/><rect class="cls-5" x="318.91" y="67.64" width="29.33" height="22.25"/><rect class="cls-6" x="318.91" y="97.52" width="29.33" height="22.25"/></g></g></svg>