<svg xmlns="http://www.w3.org/2000/svg" viewBox="0 0 308.8 521.77"><defs><style>.cls-1{fill:#f7a800;}.cls-2{fill:none;stroke:#0093c9;stroke-miterlimit:10;stroke-width:1.41px;}.cls-3{fill:#fff;}.cls-4{fill:#0093c9;}.cls-5{fill:#808285;}</style></defs><title>third-line-chart-1</title><g id="Layer_2" data-name="Layer 2"><g id="Layer_1-2" data-name="Layer 1"><rect class="cls-1" width="308.8" height="521.77"/><line class="cls-2" x1="58.35" y1="252.82" x2="58.35" y2="224.68"/><line class="cls-2" x1="133.58" y1="252.82" x2="133.58" y2="224.68"/><line class="cls-2" x1="152.39" y1="436.96" x2="152.39" y2="367.66"/><line class="cls-2" x1="228.88" y1="325.2" x2="228.88" y2="222.47"/><polygon class="cls-3" points="22.49 22.31 285.3 22.84 285.3 139.53 150.28 170.16 22.49 139.53 22.49 22.31"/><rect class="cls-4" x="22.49" y="241.65" width="69" height="60.75"/><line class="cls-2" x1="87.2" y1="453.99" x2="87.2" y2="425.85"/><rect class="cls-4" x="22.49" y="448.28" width="127.42" height="48.05"/><path class="cls-3" d="M52.67,460.25h2.24L57,467.12l2.11-6.87h2.18l-3.36,10H56Z"/><path class="cls-3" d="M61.7,466.5v-.13c0-2.27,1.41-3.92,3.33-3.92,2.18,0,3.25,1.78,3.25,4.06,0,.11,0,.36,0,.66H63.71a1.63,1.63,0,0,0,1.65,1.54,2.23,2.23,0,0,0,1.6-.76l1,1.23a3.53,3.53,0,0,1-2.72,1.23A3.59,3.59,0,0,1,61.7,466.5Zm4.63-.67c-.09-1.05-.54-1.71-1.3-1.71s-1.23.63-1.34,1.71Z"/><path class="cls-3" d="M69,466.52v-.17a3.6,3.6,0,0,1,3.54-3.91,3.27,3.27,0,0,1,2.49,1l-1.1,1.47a1.81,1.81,0,0,0-1.37-.68c-.93,0-1.55.88-1.55,2.12v.06c0,1.27.58,2.15,1.6,2.15a1.83,1.83,0,0,0,1.38-.7L75,469.23a3.25,3.25,0,0,1-2.59,1.17C70.39,470.4,69,468.78,69,466.52Z"/><path class="cls-3" d="M76.11,468.32v-4h-.77v-1.71h.77v-2h2v2h1.51v1.71H78.14v3.61c0,.44.2.66.63.66a2,2,0,0,0,.87-.21V470a3,3,0,0,1-1.5.4C77,470.36,76.11,469.9,76.11,468.32Z"/><path class="cls-3" d="M80.65,459.94h2.11v1.84H80.65Zm0,2.65h2v7.64h-2Z"/><path class="cls-3" d="M86.09,469.25v1h-2V459.94h2v3.71a2.41,2.41,0,0,1,2.07-1.2c1.51,0,2.91,1.24,2.91,3.85v.23c0,2.61-1.38,3.85-2.91,3.85A2.48,2.48,0,0,1,86.09,469.25Zm3-2.76v-.14c0-1.3-.64-2.12-1.48-2.12s-1.5.83-1.5,2.12v.14c0,1.3.66,2.12,1.5,2.12S89,467.78,89,466.48Z"/><path class="cls-3" d="M92.09,459.94H94.2v1.84H92.09Zm0,2.65h2v7.64h-2Z"/><path class="cls-3" d="M98.38,464.83l1.21-2.24h2.09l-2.21,3.72,2.29,3.92H99.62l-1.27-2.38-1.28,2.38H95l2.28-3.89L95,462.59h2.14Z"/><path class="cls-3" d="M101.9,462.65v-.08a2.29,2.29,0,1,1,4.56,0v.07a2.29,2.29,0,1,1-4.56,0Zm4.26,0v-.07a2,2,0,1,0-4,0v.08a2,2,0,0,0,2,2.18A2.06,2.06,0,0,0,106.16,462.63Zm-3-1.4h1.05c.61,0,1,.27,1,.87h0a.82.82,0,0,1-.5.8l.57,1h-.75l-.48-.83h-.26v.83h-.67Zm1,1.27c.26,0,.4-.13.4-.34s-.14-.36-.4-.36h-.34v.7Z"/><path class="cls-3" d="M112.24,466.14h-2.29v-1.85h2.29V462h1.9v2.32h2.29v1.85h-2.29v2.32h-1.9Z"/><path class="cls-3" d="M47.69,477.36H51.4a3.65,3.65,0,0,1,2.61.87,2.31,2.31,0,0,1,.67,1.7v0a2.33,2.33,0,0,1-1.35,2.18,2.37,2.37,0,0,1,1.78,2.38v.07c0,1.8-1.44,2.74-3.61,2.74h-3.8Zm4.95,2.94c0-.73-.51-1.11-1.4-1.11H49.7v2.25h1.44c.91,0,1.5-.37,1.5-1.13Zm-1.13,2.88H49.7v2.34h1.85c.93,0,1.51-.4,1.51-1.17h0C53.06,483.62,52.54,483.18,51.51,483.18Z"/><path class="cls-3" d="M55.45,486l1.23-1.52a3.83,3.83,0,0,0,2.48,1.13c.8,0,1.28-.4,1.28-1h0c0-.5-.29-.81-1.71-1.35-1.77-.68-2.87-1.35-2.87-3.06v0a3,3,0,0,1,3.26-2.92,4.75,4.75,0,0,1,3.22,1.23L61.19,480a3.5,3.5,0,0,0-2.12-.93c-.71,0-1.15.36-1.15.87h0c0,.57.34.84,1.9,1.48,1.74.68,2.68,1.43,2.68,3v0c0,1.85-1.41,3-3.35,3A5.36,5.36,0,0,1,55.45,486Z"/><path class="cls-3" d="M63.23,482.42v-.13c0-3,1.88-5.07,4.52-5.07A4.19,4.19,0,0,1,71,478.54l-1.24,1.6a2.78,2.78,0,0,0-2-1c-1.34,0-2.32,1.24-2.32,3.18v0c0,2,1,3.19,2.35,3.19a2.81,2.81,0,0,0,2.05-1L71,486a4.33,4.33,0,0,1-3.38,1.5C65,487.48,63.23,485.47,63.23,482.42Z"/><path class="cls-3" d="M74.52,483.25a6.26,6.26,0,0,1,3.69-6.09l.8,1.33A5.78,5.78,0,0,0,79,488l-.8,1.33A6.26,6.26,0,0,1,74.52,483.25Z"/><path class="cls-3" d="M79.87,479.7h2v1a2.34,2.34,0,0,1,2-1.17c1.42,0,2.25,1,2.25,2.58v5.2h-2v-4.6c0-.9-.4-1.35-1.08-1.35s-1.11.46-1.11,1.35v4.6h-2Z"/><path class="cls-3" d="M90,479.67h6.36v1.9H90Zm0,3.41h6.36V485H90Z"/><path class="cls-3" d="M101.72,479.41l-1.53.41-.33-1.8,2.47-.74h1.43v10h-2Z"/><path class="cls-3" d="M109.36,485.29h-4.29l-.26-1.5,4.69-6.48h1.81v6.26h1.21v1.72h-1.21v2.05h-2Zm0-1.72v-3.22l-2.28,3.22Z"/><path class="cls-3" d="M113.26,485.67l2.94-3c1.05-1.08,1.44-1.62,1.44-2.35a1.12,1.12,0,0,0-1.2-1.18c-.7,0-1.18.4-1.82,1.18L113.27,479a3.88,3.88,0,0,1,3.32-1.81,2.85,2.85,0,0,1,3.14,2.91v0c0,1.4-.64,2.19-2.12,3.63l-1.67,1.7h3.8v1.85h-6.48Z"/><path class="cls-3" d="M120.44,488a5.78,5.78,0,0,0,0-9.51l.8-1.33a6.85,6.85,0,0,1,0,12.16Z"/><rect class="cls-5" x="99.08" y="241.65" width="69" height="60.75"/><path class="cls-3" d="M30,250.46h2.24l2.11,6.87,2.11-6.87h2.18l-3.36,10H33.41Z"/><path class="cls-3" d="M39.07,256.7v-.13c0-2.27,1.41-3.92,3.33-3.92,2.18,0,3.25,1.78,3.25,4.06,0,.11,0,.36,0,.66H41.08a1.63,1.63,0,0,0,1.65,1.54,2.23,2.23,0,0,0,1.6-.76l1,1.23a3.53,3.53,0,0,1-2.72,1.23A3.59,3.59,0,0,1,39.07,256.7ZM43.7,256c-.09-1.05-.54-1.71-1.3-1.71s-1.23.63-1.34,1.71Z"/><path class="cls-3" d="M46.32,256.73v-.17a3.6,3.6,0,0,1,3.54-3.9,3.27,3.27,0,0,1,2.49,1l-1.1,1.47a1.81,1.81,0,0,0-1.37-.68c-.93,0-1.55.88-1.55,2.12v.06c0,1.27.58,2.15,1.6,2.15a1.83,1.83,0,0,0,1.38-.7l1.07,1.34a3.25,3.25,0,0,1-2.59,1.17C47.76,260.61,46.32,259,46.32,256.73Z"/><path class="cls-3" d="M53.48,258.53v-4h-.77V252.8h.77v-2h2v2H57v1.71H55.5v3.61c0,.44.2.66.63.66a2,2,0,0,0,.87-.21v1.61a2.94,2.94,0,0,1-1.5.4C54.34,260.56,53.48,260.11,53.48,258.53Z"/><path class="cls-3" d="M58,250.15h2.11V252H58Zm0,2.65h2v7.64h-2Z"/><path class="cls-3" d="M63.46,259.45v1h-2V250.15h2v3.71a2.41,2.41,0,0,1,2.07-1.2c1.51,0,2.91,1.24,2.91,3.85v.23c0,2.61-1.38,3.85-2.91,3.85A2.48,2.48,0,0,1,63.46,259.45Zm3-2.76v-.14c0-1.3-.64-2.12-1.48-2.12s-1.5.83-1.5,2.12v.14c0,1.3.66,2.12,1.5,2.12S66.41,258,66.41,256.69Z"/><path class="cls-3" d="M69.46,250.15h2.11V252H69.46Zm0,2.65h2v7.64h-2Z"/><path class="cls-3" d="M75.75,255,77,252.8h2.09l-2.21,3.72,2.29,3.92H77l-1.27-2.38-1.28,2.38H72.33l2.28-3.89-2.2-3.75h2.14Z"/><path class="cls-3" d="M79.27,252.85v-.09a2.29,2.29,0,1,1,4.56,0v.07a2.29,2.29,0,1,1-4.56,0Zm4.26,0v-.07a2,2,0,1,0-4,0v.09a2,2,0,0,0,2,2.18A2.06,2.06,0,0,0,83.53,252.84Zm-3-1.4h1.05c.61,0,1,.27,1,.87h0a.82.82,0,0,1-.5.8l.57,1H82l-.48-.83h-.26v.83h-.67Zm1,1.27c.26,0,.4-.13.4-.34s-.14-.36-.4-.36h-.34v.7Z"/><path class="cls-3" d="M42.49,273.45H40.19V271.6h2.29v-2.32h1.9v2.32h2.29v1.85H44.38v2.32h-1.9Z"/><path class="cls-3" d="M50.79,267.57h3.71a3.65,3.65,0,0,1,2.61.87,2.31,2.31,0,0,1,.67,1.7v0a2.33,2.33,0,0,1-1.35,2.18,2.37,2.37,0,0,1,1.78,2.38v.07c0,1.8-1.44,2.74-3.61,2.74h-3.8Zm4.95,2.94c0-.73-.51-1.11-1.4-1.11H52.79v2.25h1.44c.91,0,1.5-.37,1.5-1.13Zm-1.13,2.88H52.79v2.34h1.85c.93,0,1.51-.4,1.51-1.17h0C56.16,273.82,55.63,273.38,54.61,273.38Z"/><path class="cls-3" d="M58.54,276.2l1.23-1.52a3.83,3.83,0,0,0,2.48,1.13c.8,0,1.28-.4,1.28-1h0c0-.5-.29-.81-1.71-1.35-1.77-.68-2.87-1.35-2.87-3.06v0a3,3,0,0,1,3.26-2.92,4.75,4.75,0,0,1,3.22,1.23l-1.15,1.57a3.49,3.49,0,0,0-2.12-.93c-.71,0-1.15.36-1.15.87h0c0,.57.34.84,1.9,1.48,1.74.68,2.68,1.42,2.68,3v0c0,1.85-1.41,3-3.35,3A5.36,5.36,0,0,1,58.54,276.2Z"/><path class="cls-3" d="M66.33,272.63v-.13c0-3,1.88-5.07,4.52-5.07a4.19,4.19,0,0,1,3.21,1.33l-1.24,1.6a2.78,2.78,0,0,0-2-1c-1.34,0-2.32,1.24-2.32,3.18v0c0,2,1,3.19,2.35,3.19a2.81,2.81,0,0,0,2.05-1l1.24,1.47a4.33,4.33,0,0,1-3.38,1.5C68.09,277.69,66.33,275.68,66.33,272.63Z"/><path class="cls-3" d="M32.88,290.56a6.26,6.26,0,0,1,3.69-6.09l.8,1.33a5.78,5.78,0,0,0,0,9.51l-.8,1.33A6.26,6.26,0,0,1,32.88,290.56Z"/><path class="cls-3" d="M38.3,287h2v1a2.34,2.34,0,0,1,2-1.17c1.42,0,2.25,1,2.25,2.58v5.2h-2V290c0-.9-.4-1.35-1.08-1.35s-1.11.46-1.11,1.35v4.6h-2Z"/><path class="cls-3" d="M48.6,287H55v1.9H48.6Zm0,3.41H55v1.9H48.6Z"/><path class="cls-3" d="M60.44,286.73l-1.53.41-.33-1.8L61,284.6h1.43v10h-2Z"/><path class="cls-3" d="M63.76,291.93v0a2.46,2.46,0,0,1,1.5-2.41,2.44,2.44,0,0,1-1.2-2.18v-.06c0-1.54,1.28-2.71,3.19-2.71s3.19,1.16,3.19,2.71v.06a2.45,2.45,0,0,1-1.21,2.18,2.5,2.5,0,0,1,1.5,2.37v.06c0,1.81-1.48,2.89-3.48,2.89S63.76,293.68,63.76,291.93Zm5-.17v0a1.49,1.49,0,0,0-3,0v0a1.49,1.49,0,0,0,3,0Zm-.24-4.3h0a1.25,1.25,0,0,0-2.49,0h0a1.25,1.25,0,1,0,2.49,0Z"/><path class="cls-3" d="M76.45,290.63a2.82,2.82,0,0,1-1.82.61A2.93,2.93,0,0,1,71.53,288v0A3.35,3.35,0,0,1,75,284.5a3.14,3.14,0,0,1,2.45,1c.7.71,1.15,1.78,1.15,3.83v.08c0,3.48-1.45,5.44-4,5.44a4.26,4.26,0,0,1-2.82-1l1-1.62a2.88,2.88,0,0,0,1.85.75C75.88,292.93,76.37,291.76,76.45,290.63Zm0-2.69v0a1.43,1.43,0,0,0-1.48-1.6,1.41,1.41,0,0,0-1.45,1.58v0a1.47,1.47,0,1,0,2.94,0Z"/><path class="cls-3" d="M79.33,295.31a5.78,5.78,0,0,0,0-9.51l.8-1.33a6.85,6.85,0,0,1,0,12.16Z"/><path class="cls-3" d="M122.09,250.35h3.71a3.65,3.65,0,0,1,2.61.87,2.31,2.31,0,0,1,.67,1.7v0a2.33,2.33,0,0,1-1.35,2.18,2.37,2.37,0,0,1,1.78,2.38v.07c0,1.8-1.44,2.74-3.61,2.74h-3.8Zm4.95,2.94c0-.73-.51-1.11-1.4-1.11H124.1v2.25h1.44c.91,0,1.5-.37,1.5-1.13Zm-1.13,2.88H124.1v2.34h1.85c.93,0,1.51-.4,1.51-1.17h0C127.46,256.61,126.93,256.17,125.91,256.17Z"/><path class="cls-3" d="M129.91,259l1.23-1.52a3.83,3.83,0,0,0,2.48,1.13c.8,0,1.28-.4,1.28-1h0c0-.5-.29-.81-1.71-1.35-1.77-.68-2.86-1.35-2.86-3.06v0a3,3,0,0,1,3.26-2.92,4.75,4.75,0,0,1,3.22,1.23L135.66,253a3.5,3.5,0,0,0-2.12-.93c-.71,0-1.15.36-1.15.87h0c0,.57.34.84,1.9,1.48,1.74.68,2.68,1.43,2.68,3v0c0,1.85-1.41,3-3.35,3A5.36,5.36,0,0,1,129.91,259Z"/><path class="cls-3" d="M137.77,255.41v-.13c0-3,1.88-5.07,4.52-5.07a4.19,4.19,0,0,1,3.21,1.33l-1.24,1.6a2.78,2.78,0,0,0-2-1c-1.34,0-2.32,1.24-2.32,3.18v0c0,2,1,3.19,2.35,3.19a2.81,2.81,0,0,0,2.05-1l1.24,1.47a4.33,4.33,0,0,1-3.38,1.5C139.54,260.47,137.77,258.46,137.77,255.41Z"/><path class="cls-3" d="M118.65,275.26v-.08c0-1.68,1.1-2.44,2.67-2.44a4.13,4.13,0,0,1,1.6.31v-.23c0-.88-.53-1.34-1.44-1.34a4.33,4.33,0,0,0-1.75.43l-.56-1.58a5.46,5.46,0,0,1,2.61-.61,2.76,2.76,0,0,1,3.11,3.09v4.63h-2v-.83a2.35,2.35,0,0,1-2,1A2.18,2.18,0,0,1,118.65,275.26Zm4.29-.33v-.64a2.73,2.73,0,0,0-1.13-.24c-.74,0-1.21.37-1.21,1.07v0a.9.9,0,0,0,1,1A1.21,1.21,0,0,0,122.94,274.93Z"/><path class="cls-3" d="M126.15,267.15h2v10.29h-2Z"/><path class="cls-3" d="M129.23,273.72v-.16a3.65,3.65,0,0,1,3.61-3.91,3.61,3.61,0,0,1,3.58,3.89v.16a3.6,3.6,0,1,1-7.18,0Zm5.19,0v-.1c0-1.24-.63-2.18-1.6-2.18s-1.6.93-1.6,2.17v.1c0,1.23.64,2.18,1.61,2.18S134.42,274.93,134.42,273.69Z"/><path class="cls-3" d="M137.4,269.8h2v1a2.34,2.34,0,0,1,2-1.17c1.42,0,2.25,1,2.25,2.58v5.2h-2v-4.6c0-.9-.4-1.35-1.08-1.35s-1.11.46-1.11,1.35v4.6h-2Z"/><path class="cls-3" d="M144.54,273.7v-.13c0-2.27,1.41-3.92,3.33-3.92,2.18,0,3.25,1.78,3.25,4.06,0,.11,0,.36,0,.66h-4.56a1.63,1.63,0,0,0,1.65,1.54,2.23,2.23,0,0,0,1.6-.75l1,1.23a3.53,3.53,0,0,1-2.72,1.23A3.59,3.59,0,0,1,144.54,273.7Zm4.63-.67c-.09-1.05-.54-1.71-1.3-1.71s-1.23.63-1.34,1.71Z"/><path class="cls-3" d="M109.61,290.46a6.26,6.26,0,0,1,3.69-6.09l.8,1.33a5.78,5.78,0,0,0,0,9.51l-.8,1.33A6.26,6.26,0,0,1,109.61,290.46Z"/><path class="cls-3" d="M115,286.91h2v1a2.34,2.34,0,0,1,2-1.17c1.42,0,2.25,1,2.25,2.58v5.2h-2v-4.6c0-.9-.4-1.35-1.08-1.35s-1.11.46-1.11,1.35v4.6h-2Z"/><path class="cls-3" d="M125.34,286.88h6.36v1.9h-6.36Zm0,3.41h6.36v1.9h-6.36Z"/><path class="cls-3" d="M137.17,286.62l-1.53.41-.33-1.8,2.47-.74h1.43v10h-2Z"/><path class="cls-3" d="M140.49,291.82v0a2.46,2.46,0,0,1,1.5-2.41,2.44,2.44,0,0,1-1.2-2.18v-.06c0-1.54,1.28-2.71,3.19-2.71s3.19,1.16,3.19,2.71v.06a2.45,2.45,0,0,1-1.21,2.18,2.5,2.5,0,0,1,1.5,2.37v.06c0,1.81-1.48,2.89-3.48,2.89S140.49,293.58,140.49,291.82Zm5-.17v0a1.49,1.49,0,0,0-3,0v0a1.49,1.49,0,0,0,3,0Zm-.24-4.3h0a1.25,1.25,0,0,0-2.49,0h0a1.25,1.25,0,1,0,2.49,0Z"/><path class="cls-3" d="M148.16,291.82v0a2.46,2.46,0,0,1,1.5-2.41,2.44,2.44,0,0,1-1.2-2.18v-.06c0-1.54,1.28-2.71,3.19-2.71s3.19,1.16,3.19,2.71v.06a2.45,2.45,0,0,1-1.21,2.18,2.5,2.5,0,0,1,1.5,2.37v.06c0,1.81-1.48,2.89-3.48,2.89S148.16,293.58,148.16,291.82Zm5-.17v0a1.49,1.49,0,0,0-3,0v0a1.49,1.49,0,0,0,3,0Zm-.24-4.3h0a1.25,1.25,0,0,0-2.49,0h0a1.25,1.25,0,1,0,2.49,0Z"/><path class="cls-3" d="M155.77,295.2a5.78,5.78,0,0,0,0-9.51l.8-1.33a6.85,6.85,0,0,1,0,12.16Z"/><line class="cls-2" x1="221.87" y1="453.33" x2="221.87" y2="425.19"/><rect class="cls-5" x="158.15" y="448.28" width="127.42" height="48.05"/><path class="cls-3" d="M192.49,460.25h3.71a3.65,3.65,0,0,1,2.61.87,2.31,2.31,0,0,1,.67,1.7v0a2.33,2.33,0,0,1-1.35,2.18,2.37,2.37,0,0,1,1.78,2.38v.07c0,1.8-1.44,2.74-3.61,2.74h-3.8Zm4.95,2.94c0-.73-.51-1.11-1.4-1.11H194.5v2.25h1.44c.91,0,1.5-.37,1.5-1.13Zm-1.13,2.88H194.5v2.34h1.85c.93,0,1.51-.4,1.51-1.17h0C197.86,466.51,197.33,466.07,196.31,466.07Z"/><path class="cls-3" d="M200.32,468.89l1.23-1.52a3.83,3.83,0,0,0,2.48,1.13c.8,0,1.28-.4,1.28-1h0c0-.5-.29-.81-1.71-1.35-1.77-.68-2.87-1.35-2.87-3.06v0a3,3,0,0,1,3.26-2.92,4.75,4.75,0,0,1,3.22,1.23l-1.15,1.57a3.5,3.5,0,0,0-2.12-.93c-.71,0-1.15.36-1.15.87h0c0,.57.34.84,1.9,1.48,1.74.68,2.68,1.43,2.68,3v0c0,1.85-1.41,3-3.35,3A5.36,5.36,0,0,1,200.32,468.89Z"/><path class="cls-3" d="M208.17,465.31v-.13c0-3,1.88-5.07,4.52-5.07a4.19,4.19,0,0,1,3.21,1.33l-1.24,1.6a2.78,2.78,0,0,0-2-1c-1.34,0-2.32,1.24-2.32,3.18v0c0,2,1,3.19,2.35,3.19a2.81,2.81,0,0,0,2.05-1l1.24,1.47a4.33,4.33,0,0,1-3.38,1.5C209.94,470.37,208.17,468.36,208.17,465.31Z"/><path class="cls-3" d="M219.25,468V468c0-1.68,1.1-2.44,2.67-2.44a4.13,4.13,0,0,1,1.6.31v-.23c0-.88-.53-1.34-1.44-1.34a4.33,4.33,0,0,0-1.75.43l-.56-1.58a5.46,5.46,0,0,1,2.61-.61,2.76,2.76,0,0,1,3.11,3.09v4.63h-2v-.83a2.35,2.35,0,0,1-2,1A2.18,2.18,0,0,1,219.25,468Zm4.29-.33v-.64a2.73,2.73,0,0,0-1.13-.24c-.74,0-1.21.37-1.21,1.07v0a.9.9,0,0,0,1,1A1.21,1.21,0,0,0,223.54,467.72Z"/><path class="cls-3" d="M226.75,459.94h2v10.29h-2Z"/><path class="cls-3" d="M229.83,466.51v-.16a3.65,3.65,0,0,1,3.61-3.91,3.61,3.61,0,0,1,3.58,3.89v.16a3.6,3.6,0,1,1-7.18,0Zm5.19,0v-.1c0-1.24-.63-2.18-1.6-2.18s-1.6.93-1.6,2.17v.1c0,1.23.64,2.18,1.61,2.18S235,467.72,235,466.48Z"/><path class="cls-3" d="M238,462.59h2v1a2.34,2.34,0,0,1,2-1.17c1.42,0,2.25,1,2.25,2.58v5.2h-2v-4.6c0-.9-.4-1.35-1.08-1.35s-1.11.46-1.11,1.35v4.6h-2Z"/><path class="cls-3" d="M245.14,466.49v-.13c0-2.27,1.41-3.92,3.33-3.92,2.18,0,3.25,1.78,3.25,4.06,0,.11,0,.36,0,.66h-4.56a1.63,1.63,0,0,0,1.65,1.54,2.23,2.23,0,0,0,1.6-.75l1,1.23a3.53,3.53,0,0,1-2.72,1.23A3.59,3.59,0,0,1,245.14,466.49Zm4.63-.67c-.09-1.05-.54-1.71-1.3-1.71s-1.23.63-1.34,1.71Z"/><path class="cls-3" d="M196.67,483.25a6.26,6.26,0,0,1,3.69-6.09l.8,1.33a5.78,5.78,0,0,0,0,9.51l-.8,1.33A6.26,6.26,0,0,1,196.67,483.25Z"/><path class="cls-3" d="M202.08,479.7h2v1a2.34,2.34,0,0,1,2-1.17c1.42,0,2.25,1,2.25,2.58v5.2h-2v-4.6c0-.9-.4-1.35-1.08-1.35s-1.11.46-1.11,1.35v4.6h-2Z"/><path class="cls-3" d="M212.39,479.67h6.36v1.9h-6.36Zm0,3.41h6.36V485h-6.36Z"/><path class="cls-3" d="M224.22,479.41l-1.53.41-.33-1.8,2.47-.74h1.43v10h-2Z"/><path class="cls-3" d="M227.65,485.67l2.94-3c1.05-1.08,1.44-1.62,1.44-2.35a1.12,1.12,0,0,0-1.2-1.18c-.7,0-1.18.4-1.82,1.18L227.66,479a3.88,3.88,0,0,1,3.32-1.81,2.85,2.85,0,0,1,3.14,2.91v0c0,1.4-.64,2.19-2.12,3.63l-1.67,1.7h3.8v1.85h-6.48Z"/><path class="cls-3" d="M235,484.62v0a2.64,2.64,0,0,0,.3-4.59v-.06c0-1.54,1.28-2.71,3.19-2.71s3.19,1.16,3.19,2.71V480a2.45,2.45,0,0,1-1.21,2.18,2.5,2.5,0,0,1,1.5,2.37v.06c0,1.81-1.48,2.89-3.48,2.89S235,486.37,235,484.62Zm5-.17v0a1.49,1.49,0,0,0-3,0v0a1.49,1.49,0,0,0,3,0Zm-.24-4.3h0a1.25,1.25,0,0,0-2.49,0h0a1.25,1.25,0,1,0,2.49,0Z"/><path class="cls-3" d="M242.57,488a5.78,5.78,0,0,0,0-9.51l.8-1.33a6.85,6.85,0,0,1,0,12.16Z"/><path class="cls-1" d="M35.13,55.44l4.56-4.52a8.43,8.43,0,0,0,6.19,3c2,0,3.3-1,3.3-2.63v-.07c0-1.67-1.48-2.67-4.22-2.67h-3l-1-3.74,5.93-5.37H36.94V33.58H55.65v5.11L49.46,44c3.71.81,6.71,2.85,6.71,7.3v.07c0,5.26-4.22,8.63-10,8.63A14.19,14.19,0,0,1,35.13,55.44Z"/><path class="cls-1" d="M71.18,39.62h-12v-6h20V39L67.69,59.51H59.77Z"/><path class="cls-1" d="M93.93,39.62h-12v-6h20V39L90.44,59.51H82.52Z"/><path class="cls-1" d="M108.66,48.23h3v1.56A3.56,3.56,0,0,1,114.7,48c2.23,0,4.29,1.83,4.29,5.68V54c0,3.85-2,5.68-4.29,5.68a3.66,3.66,0,0,1-3.05-1.66v4.63h-3ZM116,54v-.21c0-1.91-.95-3.14-2.19-3.14s-2.21,1.22-2.21,3.14V54c0,1.92,1,3.14,2.21,3.14S116,55.89,116,54Z"/><path class="cls-1" d="M120.4,56.29v-.13c0-2.48,1.62-3.6,3.93-3.6a6.1,6.1,0,0,1,2.36.46v-.34c0-1.3-.78-2-2.13-2a6.4,6.4,0,0,0-2.59.63L121.15,49a8.07,8.07,0,0,1,3.85-.9,4.07,4.07,0,0,1,4.59,4.57v6.84h-2.92V58.29a3.47,3.47,0,0,1-2.92,1.43A3.21,3.21,0,0,1,120.4,56.29Zm6.33-.48v-.95a4,4,0,0,0-1.66-.36c-1.09,0-1.79.55-1.79,1.58v0a1.33,1.33,0,0,0,1.45,1.41A1.79,1.79,0,0,0,126.73,55.81Z"/><path class="cls-1" d="M132.34,56.69V50.76h-1.14V48.23h1.14V45.35h3v2.88h2.23v2.52h-2.23v5.32c0,.65.29,1,.93,1a2.9,2.9,0,0,0,1.28-.32v2.38a4.34,4.34,0,0,1-2.21.59C133.61,59.7,132.34,59,132.34,56.69Z"/><path class="cls-1" d="M139.56,44.32h3.11V47h-3.11Zm.06,3.91h3V59.51h-3Z"/><path class="cls-1" d="M144.67,54v-.19c0-3.35,2.08-5.79,4.92-5.79,3.22,0,4.8,2.63,4.8,6,0,.17,0,.53,0,1h-6.73a2.41,2.41,0,0,0,2.44,2.27,3.29,3.29,0,0,0,2.36-1.12L154,58a5.21,5.21,0,0,1-4,1.81C147,59.76,144.67,57.51,144.67,54Zm6.84-1c-.13-1.56-.8-2.52-1.92-2.52s-1.81.93-2,2.52Z"/><path class="cls-1" d="M156.35,48.23h3v1.51a3.45,3.45,0,0,1,2.9-1.73c2.1,0,3.32,1.47,3.32,3.81v7.68h-3v-6.8c0-1.33-.59-2-1.6-2s-1.64.67-1.64,2v6.8h-3Z"/><path class="cls-1" d="M168.34,56.69V50.76H167.2V48.23h1.14V45.35h3v2.88h2.23v2.52h-2.23v5.32c0,.65.29,1,.93,1a2.9,2.9,0,0,0,1.28-.32v2.38a4.34,4.34,0,0,1-2.21.59C169.6,59.7,168.34,59,168.34,56.69Z"/><path class="cls-1" d="M174.65,58.16l1.3-2.1a5.27,5.27,0,0,0,3,1.26c.84,0,1.2-.4,1.2-.86v0c0-.65-.84-.93-2.06-1.45-1.6-.69-3-1.49-3-3.41v0c0-2.17,1.68-3.45,3.87-3.45a6.66,6.66,0,0,1,3.72,1.22l-1.2,2.15a5.12,5.12,0,0,0-2.57-1c-.72,0-1.09.36-1.09.8v0c0,.59.84.93,2,1.47,1.64.78,3,1.6,3,3.39v0c0,2.34-1.73,3.51-4,3.51A6.83,6.83,0,0,1,174.65,58.16Z"/><rect class="cls-4" x="22.49" y="324.7" width="262.81" height="50.65"/><path class="cls-1" d="M35.77,70h2l1,4.52L40,70h1.73L43,74.52,44,70h2L44,77.68H42.11L40.9,73.15l-1.24,4.54H37.8Z"/><path class="cls-1" d="M47.15,67.33h2.11v1.84H47.15Zm0,2.65h2v7.65h-2Z"/><path class="cls-1" d="M51.25,75.71v-4h-.77V70h.77V68h2v2h1.51v1.71H53.27V75.3c0,.44.2.66.63.66a2,2,0,0,0,.87-.21v1.61a2.94,2.94,0,0,1-1.5.4C52.1,77.75,51.25,77.3,51.25,75.71Z"/><path class="cls-1" d="M56.11,67.33h2V71a2.34,2.34,0,0,1,2-1.17c1.43,0,2.25,1,2.25,2.58v5.21h-2V73c0-.9-.4-1.35-1.08-1.35s-1.11.46-1.11,1.35v4.61h-2Z"/><path class="cls-1" d="M66.82,73.92v-.17a3.6,3.6,0,0,1,3.54-3.91,3.27,3.27,0,0,1,2.5,1l-1.1,1.47a1.81,1.81,0,0,0-1.37-.69c-.93,0-1.56.88-1.56,2.13v.06c0,1.27.58,2.15,1.6,2.15a1.83,1.83,0,0,0,1.38-.7l1.07,1.34a3.26,3.26,0,0,1-2.6,1.17C68.26,77.8,66.82,76.17,66.82,73.92Z"/><path class="cls-1" d="M74,67.33h2V71a2.34,2.34,0,0,1,2-1.17c1.43,0,2.25,1,2.25,2.58v5.21h-2V73c0-.9-.4-1.35-1.08-1.35S76,72.12,76,73v4.61H74Z"/><path class="cls-1" d="M81.52,73.89v-.13c0-2.27,1.41-3.92,3.34-3.92,2.18,0,3.25,1.78,3.25,4.07,0,.11,0,.36,0,.66H83.53a1.63,1.63,0,0,0,1.65,1.54,2.23,2.23,0,0,0,1.6-.76l1,1.23A3.53,3.53,0,0,1,85.1,77.8,3.59,3.59,0,0,1,81.52,73.89Zm4.64-.67c-.09-1.06-.54-1.71-1.3-1.71s-1.23.63-1.34,1.71Z"/><path class="cls-1" d="M89.43,70h2v1a2.34,2.34,0,0,1,2-1.17,2,2,0,0,1,1.88,1.11,2.73,2.73,0,0,1,2.17-1.11c1.36,0,2.27.88,2.27,2.57v5.22h-2V73c0-.88-.39-1.35-1.06-1.35s-1.08.47-1.08,1.35v4.61h-2V73c0-.88-.37-1.35-1-1.35s-1.08.47-1.08,1.35v4.61h-2Z"/><path class="cls-1" d="M101.06,73.9v-.16a3.66,3.66,0,0,1,3.61-3.91,3.61,3.61,0,0,1,3.58,3.89v.16a3.61,3.61,0,1,1-7.19,0Zm5.19,0v-.1c0-1.24-.63-2.18-1.6-2.18s-1.6.93-1.6,2.17v.1c0,1.23.64,2.18,1.61,2.18S106.25,75.11,106.25,73.87Z"/><path class="cls-1" d="M109.58,70h2v1.36a2,2,0,0,1,2.07-1.48V72h-.09c-1.24,0-2,.77-2,2.37v3.21h-2Z"/><path class="cls-1" d="M114.5,73.89v-.13c0-2.27,1.41-3.92,3.34-3.92,2.18,0,3.25,1.78,3.25,4.07,0,.11,0,.36,0,.66h-4.57a1.63,1.63,0,0,0,1.65,1.54,2.23,2.23,0,0,0,1.6-.76l1,1.23a3.53,3.53,0,0,1-2.72,1.23A3.59,3.59,0,0,1,114.5,73.89Zm4.64-.67c-.09-1.06-.54-1.71-1.3-1.71s-1.23.63-1.34,1.71Z"/><path class="cls-1" d="M122.73,71.69H122V70h.77v-.51a2.31,2.31,0,0,1,.57-1.71,2.26,2.26,0,0,1,1.67-.57,4.09,4.09,0,0,1,1.26.17v1.67a2.45,2.45,0,0,0-.74-.13c-.47,0-.74.24-.74.78V70h1.48v1.65h-1.47v5.94h-2Z"/><path class="cls-1" d="M127.19,70h2v1.36a2,2,0,0,1,2.07-1.48V72h-.09c-1.24,0-2,.77-2,2.37v3.21h-2Z"/><path class="cls-1" d="M132,75.44v-.09c0-1.68,1.1-2.44,2.67-2.44a4.14,4.14,0,0,1,1.6.31V73c0-.88-.53-1.34-1.44-1.34a4.35,4.35,0,0,0-1.75.43l-.56-1.58a5.47,5.47,0,0,1,2.61-.61,2.76,2.76,0,0,1,3.11,3.1v4.64h-2V76.8a2.35,2.35,0,0,1-2,1A2.18,2.18,0,0,1,132,75.44Zm4.29-.33v-.64a2.73,2.73,0,0,0-1.13-.24c-.74,0-1.21.37-1.21,1.07v0a.9.9,0,0,0,1,1A1.21,1.21,0,0,0,136.32,75.11Z"/><path class="cls-1" d="M139.52,73.92v-.17a3.6,3.6,0,0,1,3.54-3.91,3.27,3.27,0,0,1,2.5,1l-1.1,1.47a1.81,1.81,0,0,0-1.37-.69c-.93,0-1.56.88-1.56,2.13v.06c0,1.27.58,2.15,1.6,2.15a1.83,1.83,0,0,0,1.38-.7l1.07,1.34A3.26,3.26,0,0,1,143,77.8C141,77.8,139.52,76.17,139.52,73.92Z"/><path class="cls-1" d="M147,75.71v-4h-.77V70H147V68h2v2h1.51v1.71h-1.51V75.3c0,.44.2.66.63.66a2,2,0,0,0,.87-.21v1.61a2.94,2.94,0,0,1-1.5.4C147.89,77.75,147,77.3,147,75.71Z"/><path class="cls-1" d="M151.59,73.9v-.16a3.66,3.66,0,0,1,3.61-3.91,3.61,3.61,0,0,1,3.58,3.89v.16a3.61,3.61,0,1,1-7.19,0Zm5.19,0v-.1c0-1.24-.63-2.18-1.6-2.18s-1.6.93-1.6,2.17v.1c0,1.23.64,2.18,1.61,2.18S156.79,75.11,156.79,73.87Z"/><path class="cls-1" d="M160.12,70h2v1.36a2,2,0,0,1,2.07-1.48V72h-.09c-1.24,0-2,.77-2,2.37v3.21h-2Z"/><path class="cls-1" d="M169.73,70h2.05l-2.51,7.75c-.51,1.53-1.1,2.11-2.3,2.11a3.22,3.22,0,0,1-1.64-.46l.56-1.51a1.76,1.76,0,0,0,.83.26.63.63,0,0,0,.66-.49L164.78,70h2.11L168.34,75Z"/><path class="cls-1" d="M175.56,67.64h2.18l1.68,6.58,1.83-6.61h1.8l1.84,6.61,1.67-6.58h2.14l-2.85,10H184l-1.83-6.35-1.83,6.35h-1.88Z"/><path class="cls-1" d="M191.92,69.55h-2.51V67.64h7.08v1.91H194v8.08h-2.05Z"/><path class="cls-1" d="M202.56,67.64h2.17l-1,4.25,3.77-4.25h2.78l-4.14,4.22,1.9,5.76h-2.35l-1.2-4.19L202.92,75l-.63,2.63h-2.17Z"/><path class="cls-1" d="M212.94,74.46h-1.06l-.74,3.17H209l2.44-10h2.87a3.94,3.94,0,0,1,2.91.93,2.84,2.84,0,0,1,.77,2.05,3.52,3.52,0,0,1-.93,2.51,3.66,3.66,0,0,1-1.83,1.08l1.37,3.41h-2.43Zm.61-1.9a2.35,2.35,0,0,0,1.7-.56,1.72,1.72,0,0,0,.46-1.21,1.06,1.06,0,0,0-.33-.84,1.68,1.68,0,0,0-1.24-.36h-1.06l-.69,3Z"/><path class="cls-1" d="M223.08,67.57h2.1l1.07,10.06H224l-.17-2.24h-3.21l-1.24,2.24H217.1Zm.57,5.91-.16-3.27-1.63,3.27Z"/><path class="cls-1" d="M227,75.94l1.61-1.4a3,3,0,0,0,2.17,1.31.93.93,0,0,0,1-.9c0-.41-.27-.76-1.28-1.5-1.17-.87-1.9-1.68-1.9-2.8a3.06,3.06,0,0,1,.86-2.15,3.53,3.53,0,0,1,2.51-1A4.31,4.31,0,0,1,235.32,69l-1.48,1.5A2.58,2.58,0,0,0,232,69.41a.9.9,0,0,0-1,.87c0,.43.23.74,1.27,1.48s1.91,1.63,1.91,2.84a3,3,0,0,1-.9,2.2,3.62,3.62,0,0,1-2.53,1A4.47,4.47,0,0,1,227,75.94Z"/><path class="cls-1" d="M238.95,70h2v1a2.34,2.34,0,0,1,2-1.17,2,2,0,0,1,1.88,1.11A2.73,2.73,0,0,1,247,69.84c1.36,0,2.27.88,2.27,2.57v5.22h-2V73c0-.88-.39-1.35-1.06-1.35s-1.08.47-1.08,1.35v4.61h-2V73c0-.88-.37-1.35-1-1.35S241,72.13,241,73v4.61h-2Z"/><path class="cls-1" d="M250.7,72.7v-.13c0-3,1.88-5.08,4.52-5.08a4.19,4.19,0,0,1,3.21,1.33l-1.24,1.6a2.78,2.78,0,0,0-2-1c-1.34,0-2.33,1.24-2.33,3.18v0c0,2,1,3.2,2.35,3.2a2.81,2.81,0,0,0,2.05-1l1.24,1.47a4.34,4.34,0,0,1-3.38,1.5C252.47,77.77,250.7,75.76,250.7,72.7Z"/><path class="cls-1" d="M259.88,67.64h3.75a3.71,3.71,0,0,1,2.71,1,3.16,3.16,0,0,1,.84,2.31V71a3,3,0,0,1-1.85,3l2.13,3.71h-2.37l-1.84-3.28H262v3.28h-2.07Zm3.6,4.88A1.44,1.44,0,0,0,265.1,71h0c0-1-.61-1.5-1.67-1.5H262v3Z"/><path class="cls-1" d="M268.47,72.7v-.13c0-3,1.88-5.08,4.52-5.08a4.19,4.19,0,0,1,3.21,1.33L275,70.42a2.78,2.78,0,0,0-2-1c-1.34,0-2.33,1.24-2.33,3.18v0c0,2,1,3.2,2.35,3.2a2.81,2.81,0,0,0,2.05-1l1.24,1.47a4.34,4.34,0,0,1-3.38,1.5C270.24,77.77,268.47,75.76,268.47,72.7Z"/><path class="cls-4" d="M36.81,95.85v-.1a1.86,1.86,0,1,1,3.71,0v.1a1.86,1.86,0,1,1-3.71,0Z"/><path class="cls-4" d="M50.29,90.85h6.29v1.5H51.93v2.71H56v1.5H51.93v2.78h4.72v1.5H50.29Z"/><path class="cls-4" d="M58,95.89v-.1c0-3,1.88-5.09,4.46-5.09a4.35,4.35,0,0,1,3.14,1.24l-1,1.27a3.06,3.06,0,0,0-2.14-1c-1.57,0-2.75,1.43-2.75,3.55v.06c0,2.17,1.18,3.58,2.75,3.58a3,3,0,0,0,2.21-1l1,1.17A4.29,4.29,0,0,1,62.39,101C59.84,101,58,98.94,58,95.89Z"/><path class="cls-4" d="M66.81,95.92v-.14c0-3,1.82-5.09,4.43-5.09s4.4,2.11,4.4,5.06v.14c0,3-1.82,5.09-4.43,5.09S66.81,98.87,66.81,95.92Zm7.13,0v-.1c0-2.14-1.14-3.58-2.72-3.58s-2.69,1.41-2.69,3.56v.1c0,2.14,1.15,3.58,2.72,3.58S73.94,98,73.94,95.89Z"/><path class="cls-4" d="M77.08,95.91v-.11c0-2.94,1.9-5.09,4.58-5.09a4.54,4.54,0,0,1,3.16,1.13l-1,1.31a3.06,3.06,0,0,0-2.21-.9c-1.62,0-2.84,1.47-2.84,3.53v.09c0,2.25,1.23,3.59,2.92,3.59a3.09,3.09,0,0,0,1.77-.53V96.73h-2.1V95.28H85v4.48A5.43,5.43,0,0,1,81.64,101C78.93,101,77.08,99,77.08,95.91Z"/><path class="cls-4" d="M90.68,90.85h3.19c2.18,0,3.59,1.25,3.59,3.32v0c0,2.21-1.62,3.36-3.69,3.39H92.33v3.24H90.68Zm3.09,5.24a1.81,1.81,0,0,0,2-1.87h0a1.76,1.76,0,0,0-2-1.85H92.33v3.73Z"/><path class="cls-4" d="M98.26,99.51l1-1.24a3.87,3.87,0,0,0,2.62,1.18c1,0,1.57-.53,1.57-1.27h0c0-.63-.33-1-1.91-1.62-1.9-.71-2.88-1.41-2.88-3v0a2.87,2.87,0,0,1,3.16-2.79A4.64,4.64,0,0,1,105,91.89L104,93.16a3.63,3.63,0,0,0-2.24-.94c-.9,0-1.45.5-1.45,1.15h0c0,.7.37,1.07,2.07,1.72,1.85.71,2.71,1.48,2.71,2.94v0a2.93,2.93,0,0,1-3.24,2.88A5.2,5.2,0,0,1,98.26,99.51Z"/><path class="cls-4" d="M110.09,95.92v-.16c0-3,1.48-5.07,3.79-5.07s3.76,2,3.76,5.06v.16c0,3-1.48,5.07-3.79,5.07S110.09,99,110.09,95.92Zm5.86,0v-.11c0-2.22-.85-3.59-2.09-3.59s-2.08,1.34-2.08,3.56v.11c0,2.24.86,3.59,2.11,3.59S116,98.13,116,95.91Z"/><path class="cls-4" d="M119.06,95.69h5.69v1.54h-5.69Z"/><path class="cls-4" d="M126.09,99.51l3-3.26c1.13-1.17,1.54-1.78,1.54-2.59a1.37,1.37,0,0,0-1.45-1.43c-.78,0-1.34.43-2,1.28l-1.1-1a3.77,3.77,0,0,1,3.23-1.8,2.76,2.76,0,0,1,3,2.81v0c0,1.35-.63,2.17-2.08,3.62l-2,2.17h4.12v1.5h-6.31Z"/><path class="cls-4" d="M36.81,111v-.1a1.86,1.86,0,1,1,3.71,0v.1a1.86,1.86,0,1,1-3.71,0Z"/><path class="cls-4" d="M53.21,106h1.6l3.66,10H56.74l-.83-2.35H52L51.21,116H49.55Zm2.19,6.21-1.43-4-1.43,4Z"/><path class="cls-4" d="M59.73,117.49l.53-1.27a4.41,4.41,0,0,0,2.27.64,1.8,1.8,0,0,0,2.05-2v-.73a2.67,2.67,0,0,1-2.28,1.33c-1.51,0-2.88-1.21-2.88-3.53v-.06c0-2.34,1.38-3.55,2.88-3.55a2.68,2.68,0,0,1,2.27,1.27v-1.13h1.61v6.33a3.4,3.4,0,0,1-.85,2.51,3.67,3.67,0,0,1-2.72.9A5.93,5.93,0,0,1,59.73,117.49Zm4.86-5.57v0a1.94,1.94,0,0,0-1.81-2.15c-1,0-1.74.81-1.74,2.15h0c0,1.34.77,2.17,1.74,2.17A2,2,0,0,0,64.58,111.92Z"/><path class="cls-4" d="M67.65,112.33v-.11c0-2.27,1.37-3.89,3.22-3.89,2.05,0,3.14,1.71,3.14,4,0,.1,0,.33,0,.56H69.26a1.94,1.94,0,0,0,1.91,2,2.4,2.4,0,0,0,1.74-.8l.84,1a3.47,3.47,0,0,1-2.65,1.17C69.16,116.18,67.65,114.7,67.65,112.33Zm4.79-.58c-.09-1.2-.63-2.07-1.57-2.07s-1.51.78-1.62,2.07Z"/><path class="cls-4" d="M75.15,112.35v-.19c0-2.55,1.41-3.83,2.94-3.83a2.6,2.6,0,0,1,2.21,1.28v-3.88h1.61V116H80.3v-1.21a2.55,2.55,0,0,1-2.21,1.35C76.58,116.16,75.15,114.9,75.15,112.35Zm5.17,0v-.14c0-1.48-.83-2.42-1.8-2.42s-1.75.91-1.75,2.44v.11c0,1.51.78,2.44,1.75,2.44S80.32,113.8,80.32,112.32Z"/><path class="cls-4" d="M87.44,114.61v-1l5.44-2.19v0l-5.44-2.21v-.94L94.05,111v.84Zm0,1.41v-.83H94V116Z"/><path class="cls-4" d="M100.84,107.7l-1.57.47L99,106.74l2.31-.77h1.17v10h-1.64Z"/><path class="cls-4" d="M104.22,113.33v0a2.53,2.53,0,0,1,1.62-2.44,2.43,2.43,0,0,1-1.34-2.22v-.06a3.14,3.14,0,0,1,6.2,0v.06a2.41,2.41,0,0,1-1.34,2.22,2.54,2.54,0,0,1,1.64,2.41v.06c0,1.75-1.45,2.85-3.39,2.85S104.22,115,104.22,113.33Zm5.16-.11v0a1.79,1.79,0,0,0-3.55,0v0a1.79,1.79,0,0,0,3.55,0Zm-.24-4.48v0a1.53,1.53,0,0,0-3,0v0a1.52,1.52,0,0,0,3,0Z"/><path class="cls-4" d="M120.67,108.47h1.67l-2.57,7.67c-.51,1.53-1.13,2.08-2.24,2.08a3.12,3.12,0,0,1-1.52-.4l.47-1.24a1.87,1.87,0,0,0,.87.26c.43,0,.68-.19.91-.8l-2.69-7.57h1.71L119,114Z"/><path class="cls-4" d="M123.25,112.33v-.11c0-2.27,1.37-3.89,3.22-3.89,2.05,0,3.14,1.71,3.14,4,0,.1,0,.33,0,.56h-4.73a1.94,1.94,0,0,0,1.91,2,2.4,2.4,0,0,0,1.74-.8l.84,1a3.47,3.47,0,0,1-2.65,1.17C124.76,116.18,123.25,114.7,123.25,112.33Zm4.79-.58c-.09-1.2-.63-2.07-1.57-2.07s-1.51.78-1.62,2.07Z"/><path class="cls-4" d="M130.64,113.86v-.07c0-1.62,1.08-2.42,2.68-2.42a5.13,5.13,0,0,1,1.74.3v-.31a1.43,1.43,0,0,0-1.62-1.54,4.3,4.3,0,0,0-1.82.46l-.46-1.28a5.38,5.38,0,0,1,2.49-.6,2.67,2.67,0,0,1,3,3V116H135v-.93a2.4,2.4,0,0,1-2.09,1.07A2.21,2.21,0,0,1,130.64,113.86Zm4.43-.37v-.76a3.64,3.64,0,0,0-1.4-.27c-.93,0-1.47.47-1.47,1.27v0a1.15,1.15,0,0,0,1.23,1.2A1.51,1.51,0,0,0,135.07,113.49Z"/><path class="cls-4" d="M138.37,108.47H140V110a2.24,2.24,0,0,1,2.27-1.6v1.75h-.07c-1.31,0-2.19.85-2.19,2.58V116h-1.61Z"/><path class="cls-4" d="M142.87,115.11l.76-1.15a3.44,3.44,0,0,0,2.08.88c.67,0,1.05-.36,1.05-.83h0c0-.54-.58-.78-1.48-1.17-1.13-.48-2.07-1-2.07-2.24v0a2.26,2.26,0,0,1,2.49-2.21,4.31,4.31,0,0,1,2.45.81l-.68,1.18a3.37,3.37,0,0,0-1.8-.67c-.6,0-1,.33-1,.74v0c0,.5.6.76,1.48,1.15,1.17.53,2.05,1.07,2.05,2.25h0a2.3,2.3,0,0,1-2.58,2.29A4.46,4.46,0,0,1,142.87,115.11Z"/><path class="cls-4" d="M47.25,126.09h5.69v1.54H47.25Z"/><path class="cls-4" d="M58.43,121.24h1.72l2.57,4.59,2.55-4.59H67v10H65.37v-7.05l-2.65,4.62h0L60,124.19v7H58.43Z"/><path class="cls-4" d="M68.65,127.53v-.11c0-2.27,1.37-3.89,3.22-3.89,2.05,0,3.14,1.71,3.14,4,0,.1,0,.33,0,.56H70.26a1.94,1.94,0,0,0,1.91,2,2.4,2.4,0,0,0,1.74-.8l.84,1a3.47,3.47,0,0,1-2.65,1.17C70.16,131.38,68.65,129.9,68.65,127.53Zm4.79-.58c-.09-1.2-.63-2.07-1.57-2.07s-1.51.78-1.62,2.07Z"/><path class="cls-4" d="M76.15,127.54v-.19c0-2.55,1.41-3.83,2.94-3.83a2.6,2.6,0,0,1,2.21,1.28v-3.88H82.9v10.29H81.29V130a2.55,2.55,0,0,1-2.21,1.35C77.57,131.36,76.15,130.09,76.15,127.54Zm5.17,0v-.14c0-1.48-.83-2.42-1.8-2.42s-1.75.91-1.75,2.44v.11c0,1.51.78,2.44,1.75,2.44S81.32,129,81.32,127.51Z"/><path class="cls-4" d="M84.76,121h1.71v1.58H84.76Zm.06,2.68h1.61v7.55H84.82Z"/><path class="cls-4" d="M87.91,129.05V129c0-1.62,1.08-2.42,2.68-2.42a5.13,5.13,0,0,1,1.74.3v-.31A1.43,1.43,0,0,0,90.7,125a4.3,4.3,0,0,0-1.82.46l-.46-1.28a5.38,5.38,0,0,1,2.49-.6,2.67,2.67,0,0,1,3,3v4.69H92.31v-.93a2.4,2.4,0,0,1-2.09,1.07A2.21,2.21,0,0,1,87.91,129.05Zm4.43-.37v-.76a3.64,3.64,0,0,0-1.4-.27c-.93,0-1.47.47-1.47,1.27v0a1.15,1.15,0,0,0,1.23,1.2A1.51,1.51,0,0,0,92.34,128.68Z"/><path class="cls-4" d="M95.64,123.67h1.61v1.11a2.37,2.37,0,0,1,2.07-1.25c1.45,0,2.32,1,2.32,2.64v5.06H100v-4.6c0-1.05-.5-1.64-1.35-1.64s-1.43.63-1.43,1.67v4.57H95.64Z"/><path class="cls-4" d="M106.64,129.05V129c0-1.62,1.08-2.42,2.68-2.42a5.13,5.13,0,0,1,1.74.3v-.31a1.43,1.43,0,0,0-1.62-1.54,4.3,4.3,0,0,0-1.82.46l-.46-1.28a5.38,5.38,0,0,1,2.49-.6,2.67,2.67,0,0,1,3,3v4.69H111v-.93a2.4,2.4,0,0,1-2.09,1.07A2.21,2.21,0,0,1,106.64,129.05Zm4.43-.37v-.76a3.64,3.64,0,0,0-1.4-.27c-.93,0-1.47.47-1.47,1.27v0a1.15,1.15,0,0,0,1.23,1.2A1.51,1.51,0,0,0,111.08,128.68Z"/><path class="cls-4" d="M114.37,132.69l.53-1.27a4.41,4.41,0,0,0,2.27.64,1.8,1.8,0,0,0,2.05-2v-.73a2.67,2.67,0,0,1-2.28,1.33c-1.51,0-2.88-1.21-2.88-3.53v-.06c0-2.34,1.38-3.55,2.88-3.55a2.68,2.68,0,0,1,2.27,1.27v-1.13h1.61V130a3.4,3.4,0,0,1-.85,2.51,3.67,3.67,0,0,1-2.72.9A5.93,5.93,0,0,1,114.37,132.69Zm4.86-5.57v0a1.94,1.94,0,0,0-1.81-2.15c-1,0-1.74.81-1.74,2.15h0c0,1.34.77,2.17,1.74,2.17A2,2,0,0,0,119.23,127.12Z"/><path class="cls-4" d="M122.3,127.53v-.11c0-2.27,1.37-3.89,3.22-3.89,2.05,0,3.14,1.71,3.14,4,0,.1,0,.33,0,.56h-4.73a1.94,1.94,0,0,0,1.91,2,2.4,2.4,0,0,0,1.74-.8l.84,1a3.47,3.47,0,0,1-2.65,1.17C123.81,131.38,122.3,129.9,122.3,127.53Zm4.79-.58c-.09-1.2-.63-2.07-1.57-2.07s-1.51.78-1.62,2.07Z"/><path class="cls-4" d="M133.26,123.67h1.65l1.28,5.1,1.4-5.12H139l1.4,5.12,1.3-5.1h1.62l-2.12,7.61h-1.48l-1.41-5-1.43,5h-1.47Z"/><path class="cls-4" d="M144.14,129.05V129c0-1.62,1.08-2.42,2.68-2.42a5.13,5.13,0,0,1,1.74.3v-.31a1.43,1.43,0,0,0-1.62-1.54,4.3,4.3,0,0,0-1.82.46l-.46-1.28a5.38,5.38,0,0,1,2.49-.6,2.67,2.67,0,0,1,3,3v4.69h-1.58v-.93a2.4,2.4,0,0,1-2.09,1.07A2.21,2.21,0,0,1,144.14,129.05Zm4.43-.37v-.76a3.64,3.64,0,0,0-1.4-.27c-.93,0-1.47.47-1.47,1.27v0a1.15,1.15,0,0,0,1.23,1.2A1.51,1.51,0,0,0,148.57,128.68Z"/><path class="cls-4" d="M151.24,130.31l.76-1.15a3.44,3.44,0,0,0,2.08.88c.67,0,1.05-.36,1.05-.83h0c0-.54-.58-.78-1.48-1.17-1.13-.48-2.07-1-2.07-2.24v0a2.26,2.26,0,0,1,2.49-2.21,4.31,4.31,0,0,1,2.45.81l-.68,1.18a3.37,3.37,0,0,0-1.8-.67c-.6,0-1,.33-1,.74v0c0,.5.6.76,1.48,1.15,1.17.53,2.05,1.07,2.05,2.25h0a2.3,2.3,0,0,1-2.58,2.29A4.46,4.46,0,0,1,151.24,130.31Z"/><path class="cls-4" d="M162.67,130.48c-.71-.73-1.15-1.78-1.15-3.86v-.1c0-3.36,1.4-5.43,3.86-5.43a3.93,3.93,0,0,1,2.55.91l-.81,1.31a2.78,2.78,0,0,0-1.78-.71c-1.44,0-2.09,1.48-2.14,3.16a2.72,2.72,0,0,1,2.1-.91,2.9,2.9,0,0,1,3,3.11v0a3.25,3.25,0,0,1-3.32,3.39A3.17,3.17,0,0,1,162.67,130.48Zm4-2.41v0a1.73,1.73,0,1,0-3.45,0v0a1.71,1.71,0,0,0,1.75,1.85A1.68,1.68,0,0,0,166.69,128.07Z"/><path class="cls-4" d="M171.19,122.9l-1.57.47-.27-1.43,2.31-.77h1.17v10h-1.64Z"/><path class="cls-4" d="M183.09,123.67h1.67l-2.57,7.67c-.51,1.53-1.13,2.08-2.24,2.08a3.12,3.12,0,0,1-1.52-.4l.47-1.24a1.87,1.87,0,0,0,.87.26c.43,0,.68-.19.91-.8L178,123.67h1.71l1.75,5.49Z"/><path class="cls-4" d="M185.67,127.53v-.11c0-2.27,1.37-3.89,3.22-3.89,2.05,0,3.14,1.71,3.14,4,0,.1,0,.33,0,.56h-4.73a1.94,1.94,0,0,0,1.91,2,2.4,2.4,0,0,0,1.74-.8l.84,1a3.47,3.47,0,0,1-2.65,1.17C187.18,131.38,185.67,129.9,185.67,127.53Zm4.79-.58c-.09-1.2-.63-2.07-1.57-2.07s-1.51.78-1.62,2.07Z"/><path class="cls-4" d="M193.06,129.05V129c0-1.62,1.08-2.42,2.68-2.42a5.13,5.13,0,0,1,1.74.3v-.31a1.43,1.43,0,0,0-1.62-1.54,4.3,4.3,0,0,0-1.82.46l-.46-1.28a5.38,5.38,0,0,1,2.49-.6,2.67,2.67,0,0,1,3,3v4.69h-1.58v-.93a2.4,2.4,0,0,1-2.09,1.07A2.21,2.21,0,0,1,193.06,129.05Zm4.43-.37v-.76a3.64,3.64,0,0,0-1.4-.27c-.93,0-1.47.47-1.47,1.27v0a1.15,1.15,0,0,0,1.23,1.2A1.51,1.51,0,0,0,197.49,128.68Z"/><path class="cls-4" d="M200.78,123.67h1.61v1.48a2.24,2.24,0,0,1,2.27-1.6v1.75h-.07c-1.31,0-2.19.85-2.19,2.58v3.33h-1.61Z"/><path class="cls-4" d="M205.29,130.31l.76-1.15a3.44,3.44,0,0,0,2.08.88c.67,0,1.05-.36,1.05-.83h0c0-.54-.58-.78-1.48-1.17-1.13-.48-2.07-1-2.07-2.24v0a2.26,2.26,0,0,1,2.49-2.21,4.31,4.31,0,0,1,2.45.81l-.68,1.18a3.37,3.37,0,0,0-1.8-.67c-.6,0-1,.33-1,.74v0c0,.5.6.76,1.48,1.15,1.17.53,2.05,1.07,2.05,2.25h0a2.3,2.3,0,0,1-2.58,2.29A4.46,4.46,0,0,1,205.29,130.31Z"/><path class="cls-3" d="M88.52,342.75H87.36l-.82,3.48H84.16l2.68-11H90a4.33,4.33,0,0,1,3.2,1,3.12,3.12,0,0,1,.85,2.26,3.87,3.87,0,0,1-1,2.76,4,4,0,0,1-2,1.19l1.51,3.75H89.86Zm.67-2.09a2.58,2.58,0,0,0,1.87-.61,1.89,1.89,0,0,0,.5-1.33,1.16,1.16,0,0,0-.36-.93,1.85,1.85,0,0,0-1.36-.39H88.68l-.75,3.26Z"/><path class="cls-3" d="M99.28,335.17h2.31l1.18,11.06h-2.43l-.19-2.46H96.61l-1.36,2.46H92.71Zm.63,6.49-.17-3.59-1.79,3.59Z"/><path class="cls-3" d="M103.24,344.38l1.77-1.54a3.34,3.34,0,0,0,2.38,1.44,1,1,0,0,0,1.13-1c0-.46-.3-.83-1.41-1.65-1.29-1-2.09-1.85-2.09-3.07a3.37,3.37,0,0,1,.94-2.37,3.88,3.88,0,0,1,2.76-1.11,4.74,4.74,0,0,1,3.61,1.63l-1.63,1.65a2.83,2.83,0,0,0-2.06-1.18,1,1,0,0,0-1.1,1c0,.47.25.82,1.4,1.63s2.1,1.79,2.1,3.12a3.3,3.3,0,0,1-1,2.42,4,4,0,0,1-2.78,1.07A4.92,4.92,0,0,1,103.24,344.38Z"/><path class="cls-3" d="M115.55,337.82h2.23V339a2.57,2.57,0,0,1,2.18-1.29,2.22,2.22,0,0,1,2.07,1.22,3,3,0,0,1,2.38-1.22c1.49,0,2.49,1,2.49,2.82v5.74H124.7v-5.07c0-1-.42-1.49-1.16-1.49s-1.19.52-1.19,1.49v5.07h-2.23v-5.07c0-1-.41-1.49-1.15-1.49s-1.19.52-1.19,1.49v5.07h-2.23Z"/><path class="cls-3" d="M128.22,343.55v-5.73h2.21v5.07c0,1,.44,1.49,1.19,1.49s1.22-.5,1.22-1.49v-5.07h2.23v8.41h-2.23V345.1a2.55,2.55,0,0,1-2.15,1.29C129.12,346.39,128.22,345.29,128.22,343.55Z"/><path class="cls-3" d="M136.81,344.13V339.7H136v-1.88h.85v-2.15H139v2.15h1.66v1.88H139v4c0,.49.22.72.69.72a2.16,2.16,0,0,0,1-.24v1.77a3.24,3.24,0,0,1-1.65.44C137.76,346.37,136.81,345.87,136.81,344.13Z"/><path class="cls-3" d="M141.33,343.83v-.09c0-1.85,1.21-2.68,2.93-2.68a4.54,4.54,0,0,1,1.76.35v-.25c0-1-.58-1.47-1.58-1.47a4.77,4.77,0,0,0-1.93.47l-.61-1.74a6,6,0,0,1,2.87-.67,3,3,0,0,1,3.42,3.4v5.1H146v-.91a2.58,2.58,0,0,1-2.18,1.07A2.4,2.4,0,0,1,141.33,343.83Zm4.72-.36v-.71a3,3,0,0,0-1.24-.27c-.82,0-1.33.41-1.33,1.18v0a1,1,0,0,0,1.08,1.05A1.33,1.33,0,0,0,146.05,343.47Z"/><path class="cls-3" d="M149.84,344.13V339.7H149v-1.88h.85v-2.15h2.23v2.15h1.66v1.88h-1.66v4c0,.49.22.72.69.72a2.16,2.16,0,0,0,1-.24v1.77a3.24,3.24,0,0,1-1.65.44C150.79,346.37,149.84,345.87,149.84,344.13Z"/><path class="cls-3" d="M154.83,334.9h2.32v2h-2.32Zm0,2.92h2.23v8.41h-2.23Z"/><path class="cls-3" d="M158.26,342.14V342a4,4,0,0,1,4-4.3,4,4,0,0,1,3.94,4.28v.17a4,4,0,1,1-7.91,0Zm5.71,0V342c0-1.36-.69-2.4-1.76-2.4s-1.76,1-1.76,2.38v.11c0,1.35.71,2.4,1.77,2.4S164,343.47,164,342.1Z"/><path class="cls-3" d="M167.25,337.82h2.23V339a2.57,2.57,0,0,1,2.16-1.29c1.57,0,2.48,1.1,2.48,2.84v5.73h-2.23v-5.07c0-1-.44-1.49-1.19-1.49s-1.22.5-1.22,1.49v5.07h-2.23Z"/><path class="cls-3" d="M177.93,345.22l1-1.57a3.93,3.93,0,0,0,2.24.94c.63,0,.89-.3.89-.64v0c0-.49-.63-.69-1.54-1.08-1.19-.52-2.21-1.11-2.21-2.54v0a2.6,2.6,0,0,1,2.89-2.57,5,5,0,0,1,2.78.91l-.89,1.6a3.82,3.82,0,0,0-1.91-.72c-.53,0-.82.27-.82.6v0c0,.44.63.69,1.52,1.1,1.22.58,2.23,1.19,2.23,2.53v0c0,1.74-1.29,2.62-3,2.62A5.09,5.09,0,0,1,177.93,345.22Z"/><path class="cls-3" d="M185.39,344.13V339.7h-.85v-1.88h.85v-2.15h2.23v2.15h1.66v1.88h-1.66v4c0,.49.22.72.69.72a2.16,2.16,0,0,0,1-.24v1.77a3.24,3.24,0,0,1-1.65.44C186.33,346.37,185.39,345.87,185.39,344.13Z"/><path class="cls-3" d="M189.91,343.83v-.09c0-1.85,1.21-2.68,2.93-2.68a4.54,4.54,0,0,1,1.76.35v-.25c0-1-.58-1.47-1.58-1.47a4.77,4.77,0,0,0-1.93.47l-.61-1.74a6,6,0,0,1,2.87-.67,3,3,0,0,1,3.42,3.4v5.1h-2.18v-.91a2.58,2.58,0,0,1-2.18,1.07A2.4,2.4,0,0,1,189.91,343.83Zm4.72-.36v-.71a3,3,0,0,0-1.24-.27c-.82,0-1.33.41-1.33,1.18v0a1,1,0,0,0,1.08,1.05A1.33,1.33,0,0,0,194.63,343.47Z"/><path class="cls-3" d="M198.42,344.13V339.7h-.85v-1.88h.85v-2.15h2.23v2.15h1.66v1.88h-1.66v4c0,.49.22.72.69.72a2.16,2.16,0,0,0,1-.24v1.77a3.24,3.24,0,0,1-1.65.44C199.36,346.37,198.42,345.87,198.42,344.13Z"/><path class="cls-3" d="M203.33,343.55v-5.73h2.21v5.07c0,1,.44,1.49,1.19,1.49s1.22-.5,1.22-1.49v-5.07h2.23v8.41H208V345.1a2.55,2.55,0,0,1-2.15,1.29C204.22,346.39,203.33,345.29,203.33,343.55Z"/><path class="cls-3" d="M210.93,345.22l1-1.57a3.93,3.93,0,0,0,2.24.94c.63,0,.89-.3.89-.64v0c0-.49-.63-.69-1.54-1.08-1.19-.52-2.21-1.11-2.21-2.54v0a2.6,2.6,0,0,1,2.89-2.57,5,5,0,0,1,2.78.91l-.89,1.6a3.82,3.82,0,0,0-1.91-.72c-.53,0-.82.27-.82.6v0c0,.44.63.69,1.52,1.1,1.22.58,2.23,1.19,2.23,2.53v0c0,1.74-1.29,2.62-3,2.62A5.09,5.09,0,0,1,210.93,345.22Z"/><path class="cls-3" d="M80.53,361v-.25c0-2.87,1.52-4.24,3.2-4.24A2.75,2.75,0,0,1,86,357.72v-4h2.23V365H86v-1.16a2.66,2.66,0,0,1-2.27,1.32C82.06,365.2,80.53,363.84,80.53,361Zm5.51,0v-.16c0-1.43-.72-2.34-1.65-2.34s-1.63.91-1.63,2.34v.16c0,1.43.71,2.34,1.63,2.34S86,362.35,86,360.92Z"/><path class="cls-3" d="M89.28,360.94v-.14c0-2.49,1.55-4.31,3.67-4.31,2.4,0,3.58,2,3.58,4.47,0,.13,0,.39,0,.72h-5a1.8,1.8,0,0,0,1.82,1.69,2.45,2.45,0,0,0,1.76-.83l1.15,1.35a3.88,3.88,0,0,1-3,1.35C91,365.23,89.28,363.55,89.28,360.94Zm5.1-.74c-.09-1.16-.6-1.88-1.43-1.88s-1.35.69-1.47,1.88Z"/><path class="cls-3" d="M97.93,362.94v-4.42h-.85v-1.88h.85v-2.15h2.23v2.15h1.66v1.88h-1.66v4c0,.49.22.72.69.72a2.16,2.16,0,0,0,1-.24v1.77a3.24,3.24,0,0,1-1.65.44C98.87,365.19,97.93,364.68,97.93,362.94Z"/><path class="cls-3" d="M102.54,360.94v-.14c0-2.49,1.55-4.31,3.67-4.31,2.4,0,3.58,2,3.58,4.47,0,.13,0,.39,0,.72h-5a1.8,1.8,0,0,0,1.82,1.69,2.45,2.45,0,0,0,1.76-.83l1.15,1.35a3.88,3.88,0,0,1-3,1.35C104.25,365.23,102.54,363.55,102.54,360.94Zm5.1-.74c-.09-1.16-.6-1.88-1.43-1.88s-1.35.69-1.47,1.88Z"/><path class="cls-3" d="M110.85,356.64h2.23v1.49a2.2,2.2,0,0,1,2.27-1.63v2.42h-.09c-1.36,0-2.18.85-2.18,2.6V365h-2.23Z"/><path class="cls-3" d="M116.21,356.64h2.23v1.13a2.57,2.57,0,0,1,2.18-1.29,2.22,2.22,0,0,1,2.07,1.22,3,3,0,0,1,2.38-1.22c1.49,0,2.49,1,2.49,2.82V365h-2.21V360c0-1-.42-1.49-1.16-1.49S123,359,123,360V365h-2.23V360c0-1-.41-1.49-1.15-1.49s-1.19.52-1.19,1.49V365h-2.23Z"/><path class="cls-3" d="M129,353.72h2.32v2H129Zm0,2.92h2.23V365H129Z"/><path class="cls-3" d="M132.73,356.64H135v1.13a2.57,2.57,0,0,1,2.16-1.29c1.57,0,2.48,1.1,2.48,2.84V365h-2.23V360c0-1-.44-1.49-1.19-1.49S135,359,135,360V365h-2.23Z"/><path class="cls-3" d="M140.58,360.94v-.14c0-2.49,1.55-4.31,3.67-4.31,2.4,0,3.58,2,3.58,4.47,0,.13,0,.39,0,.72h-5a1.8,1.8,0,0,0,1.82,1.69,2.45,2.45,0,0,0,1.76-.83l1.15,1.35a3.88,3.88,0,0,1-3,1.35C142.29,365.23,140.58,363.55,140.58,360.94Zm5.1-.74c-.09-1.16-.6-1.88-1.43-1.88s-1.35.69-1.47,1.88Z"/><path class="cls-3" d="M148.59,361v-.25c0-2.87,1.52-4.24,3.2-4.24a2.75,2.75,0,0,1,2.27,1.24v-4h2.23V365h-2.23v-1.16a2.66,2.66,0,0,1-2.27,1.32C150.13,365.2,148.59,363.84,148.59,361Zm5.51,0v-.16c0-1.43-.72-2.34-1.65-2.34s-1.63.91-1.63,2.34v.16c0,1.43.71,2.34,1.63,2.34S154.1,362.35,154.1,360.92Z"/><path class="cls-3" d="M160.76,360.54a6.9,6.9,0,0,1,4.06-6.7l.88,1.46a6.36,6.36,0,0,0,0,10.46l-.88,1.46A6.89,6.89,0,0,1,160.76,360.54Z"/><path class="cls-3" d="M166.72,356.64h2.23v1.13a2.57,2.57,0,0,1,2.16-1.29c1.57,0,2.48,1.1,2.48,2.84V365h-2.23V360c0-1-.44-1.49-1.19-1.49s-1.22.5-1.22,1.49V365h-2.23Z"/><path class="cls-3" d="M178.06,356.61h7v2.09h-7Zm0,3.75h7v2.09h-7Z"/><path class="cls-3" d="M189.11,363.7l1.36-1.6a2.94,2.94,0,0,0,2.21,1.07,1.4,1.4,0,0,0,1.52-1.43v0c0-.94-.78-1.49-2.2-1.49h-.66l-.27-1.44,2.42-2.68h-3.81v-2h6.6v1.8l-2.57,2.7a3,3,0,0,1,2.73,3.06v0a3.46,3.46,0,0,1-3.72,3.56A4.76,4.76,0,0,1,189.11,363.7Z"/><path class="cls-3" d="M197.47,363.21l3.23-3.33c1.16-1.19,1.58-1.79,1.58-2.59A1.23,1.23,0,0,0,201,356c-.77,0-1.3.44-2,1.3l-1.47-1.4a4.27,4.27,0,0,1,3.65-2,3.13,3.13,0,0,1,3.45,3.2v0c0,1.54-.71,2.42-2.34,4L200.42,363h4.19v2h-7.14Z"/><path class="cls-3" d="M210.34,362.79h-4.72l-.28-1.65L210.5,354h2v6.89h1.33v1.9h-1.33V365h-2.15Zm0-1.9v-3.54l-2.51,3.54Z"/><path class="cls-3" d="M214.53,365.77a6.36,6.36,0,0,0,0-10.46l.88-1.46a7.54,7.54,0,0,1,0,13.38Z"/><path class="cls-3" d="M221.6,357.17l-1.64.15V356l1.63.17-.2-2h1.4l-.22,2,1.64-.17v1.29l-1.66-.15.17,4.19h-1.29Z"/><rect class="cls-4" x="22.49" y="175.6" width="262.81" height="50.65"/><path class="cls-3" d="M65,188.41l-1.68.46-.36-2,2.71-.82H67.2v11.06H65Z"/><path class="cls-3" d="M69,188.72H71.4v2.42H69Zm0,6H71.4v2.42H69Z"/><path class="cls-3" d="M74.33,188.41l-1.68.46-.36-2,2.71-.82h1.57v11.06H74.33Z"/><path class="cls-3" d="M81.63,186.15h4.13a4.08,4.08,0,0,1,3,1.05,3.48,3.48,0,0,1,.93,2.54v.06a3.31,3.31,0,0,1-2,3.25L90,197.13h-2.6l-2-3.61H83.9v3.61H81.63Zm4,5.37a1.58,1.58,0,0,0,1.79-1.65v0c0-1.1-.67-1.65-1.84-1.65H83.9v3.31Z"/><path class="cls-3" d="M93.93,192.63a6.9,6.9,0,0,1,4.06-6.7l.88,1.46a6.36,6.36,0,0,0,0,10.46L98,199.31A6.89,6.89,0,0,1,93.93,192.63Z"/><path class="cls-3" d="M100.1,186.15h2.09l4.2,6.4v-6.4h2.23v11h-1.95l-4.34-6.63v6.63H100.1Z"/><path class="cls-3" d="M113.35,188.69h7v2.09h-7Zm0,3.75h7v2.09h-7Z"/><path class="cls-3" d="M124.4,195.78l1.36-1.6a2.94,2.94,0,0,0,2.21,1.07,1.4,1.4,0,0,0,1.52-1.43v0c0-.94-.78-1.49-2.2-1.49h-.66l-.27-1.44,2.42-2.68H125v-2h6.6V188l-2.57,2.7a3,3,0,0,1,2.73,3.06v0a3.46,3.46,0,0,1-3.72,3.56A4.76,4.76,0,0,1,124.4,195.78Z"/><path class="cls-3" d="M137.43,188.21h-4.55v-2.05h7v1.69l-4.2,9.29h-2.48Z"/><path class="cls-3" d="M145.49,188.21h-4.55v-2.05h7v1.69l-4.2,9.29h-2.48Z"/><path class="cls-3" d="M148.7,197.85a6.36,6.36,0,0,0,0-10.46l.88-1.46a7.54,7.54,0,0,1,0,13.38Z"/><path class="cls-3" d="M158.11,188.72h2.23v1.16a2.66,2.66,0,0,1,2.27-1.32c1.66,0,3.2,1.36,3.2,4.24v.25c0,2.87-1.52,4.24-3.2,4.24a2.73,2.73,0,0,1-2.27-1.24v3.45h-2.23Zm5.47,4.28v-.16c0-1.43-.71-2.34-1.63-2.34s-1.65.91-1.65,2.34V193c0,1.43.72,2.34,1.65,2.34S163.58,194.43,163.58,193Z"/><path class="cls-3" d="M166.47,194.73v-.09c0-1.85,1.21-2.68,2.93-2.68a4.54,4.54,0,0,1,1.76.35V192c0-1-.58-1.47-1.58-1.47a4.77,4.77,0,0,0-1.93.47L167,189.3a6,6,0,0,1,2.87-.67,3,3,0,0,1,3.42,3.4v5.1h-2.18v-.91a2.58,2.58,0,0,1-2.18,1.07A2.4,2.4,0,0,1,166.47,194.73Zm4.72-.36v-.71a3,3,0,0,0-1.24-.27c-.82,0-1.33.41-1.33,1.18v0a1,1,0,0,0,1.08,1.05A1.33,1.33,0,0,0,171.19,194.37Z"/><path class="cls-3" d="M175,195v-4.42h-.85v-1.88H175v-2.15h2.23v2.15h1.66v1.88h-1.66v4c0,.49.22.72.69.72a2.16,2.16,0,0,0,1-.24v1.77a3.24,3.24,0,0,1-1.65.44C175.92,197.27,175,196.77,175,195Z"/><path class="cls-3" d="M180,185.81h2.32v2H180Zm0,2.92h2.23v8.41H180Z"/><path class="cls-3" d="M183.39,193v-.14c0-2.49,1.55-4.31,3.67-4.31,2.4,0,3.58,2,3.58,4.47,0,.13,0,.39,0,.72h-5a1.8,1.8,0,0,0,1.82,1.69,2.45,2.45,0,0,0,1.76-.83l1.15,1.35a3.88,3.88,0,0,1-3,1.35C185.1,197.32,183.39,195.64,183.39,193Zm5.1-.74c-.09-1.16-.6-1.88-1.43-1.88s-1.35.69-1.47,1.88Z"/><path class="cls-3" d="M191.7,188.72h2.23v1.13a2.57,2.57,0,0,1,2.16-1.29c1.57,0,2.48,1.1,2.48,2.84v5.73h-2.23v-5.07c0-1-.44-1.49-1.19-1.49s-1.22.5-1.22,1.49v5.07H191.7Z"/><path class="cls-3" d="M200.24,195v-4.42h-.85v-1.88h.85v-2.15h2.23v2.15h1.66v1.88h-1.66v4c0,.49.22.72.69.72a2.16,2.16,0,0,0,1-.24v1.77a3.24,3.24,0,0,1-1.65.44C201.18,197.27,200.24,196.77,200.24,195Z"/><path class="cls-3" d="M204.55,196.13l1-1.57a3.93,3.93,0,0,0,2.24.94c.63,0,.89-.3.89-.64v0c0-.49-.63-.69-1.54-1.08-1.19-.52-2.21-1.11-2.21-2.54v0a2.6,2.6,0,0,1,2.89-2.57,5,5,0,0,1,2.78.91l-.89,1.6a3.82,3.82,0,0,0-1.91-.72c-.53,0-.82.27-.82.6v0c0,.44.63.69,1.52,1.1,1.22.58,2.23,1.19,2.23,2.53v0c0,1.74-1.29,2.62-3,2.62A5.09,5.09,0,0,1,204.55,196.13Z"/><path class="cls-3" d="M214.21,188.72h2.24l1.15,5,1.3-5h1.9l1.32,5,1.16-5h2.21l-2.26,8.47h-2.05l-1.33-5-1.36,5h-2Z"/><path class="cls-3" d="M226.33,185.81h2.32v2h-2.32Zm0,2.92h2.23v8.41h-2.23Z"/><path class="cls-3" d="M230.44,195v-4.42h-.85v-1.88h.85v-2.15h2.23v2.15h1.66v1.88h-1.66v4c0,.49.22.72.69.72a2.16,2.16,0,0,0,1-.24v1.77a3.23,3.23,0,0,1-1.65.44C231.38,197.27,230.44,196.77,230.44,195Z"/><path class="cls-3" d="M235.4,185.81h2.23v4a2.57,2.57,0,0,1,2.17-1.29c1.57,0,2.48,1.1,2.48,2.84v5.73H240v-5.07c0-1-.44-1.49-1.19-1.49s-1.22.5-1.22,1.49v5.07H235.4Z"/><path class="cls-3" d="M77.71,205h2.4L82,212.2l2-7.26h2l2,7.26L89.81,205h2.35L89,216H86.94l-2-7-2,7H80.85Z"/><path class="cls-3" d="M95.31,207.07H92.54V205h7.78v2.1H97.56v8.88H95.31Z"/><path class="cls-3" d="M106.22,205h2.38l-1.11,4.67,4.14-4.67h3.06l-4.55,4.64,2.09,6.34h-2.59l-1.32-4.61-1.71,1.72-.69,2.89h-2.38Z"/><path class="cls-3" d="M117.24,212.47h-1.16l-.82,3.48h-2.38l2.68-11h3.15a4.33,4.33,0,0,1,3.2,1,3.12,3.12,0,0,1,.85,2.26,3.87,3.87,0,0,1-1,2.76,4,4,0,0,1-2,1.19l1.51,3.75h-2.67Zm.67-2.09a2.58,2.58,0,0,0,1.87-.61,1.89,1.89,0,0,0,.5-1.33,1.16,1.16,0,0,0-.36-.93,1.85,1.85,0,0,0-1.36-.39H117.4l-.75,3.26Z"/><path class="cls-3" d="M128,204.89h2.31l1.18,11.06H129l-.19-2.46h-3.53L124,215.95h-2.54Zm.63,6.49-.17-3.59-1.79,3.59Z"/><path class="cls-3" d="M132,214.1l1.77-1.54a3.34,3.34,0,0,0,2.38,1.44,1,1,0,0,0,1.13-1c0-.46-.3-.83-1.41-1.65-1.29-1-2.09-1.85-2.09-3.07a3.37,3.37,0,0,1,.94-2.37,3.88,3.88,0,0,1,2.76-1.11,4.74,4.74,0,0,1,3.61,1.63l-1.63,1.65a2.83,2.83,0,0,0-2.06-1.18,1,1,0,0,0-1.1,1c0,.47.25.82,1.4,1.63s2.1,1.79,2.1,3.12a3.3,3.3,0,0,1-1,2.42,4,4,0,0,1-2.78,1.07A4.92,4.92,0,0,1,132,214.1Z"/><path class="cls-3" d="M143.93,211.84v-.14c0-2.49,1.55-4.31,3.67-4.31,2.4,0,3.58,2,3.58,4.47,0,.13,0,.39,0,.72h-5a1.8,1.8,0,0,0,1.82,1.69,2.45,2.45,0,0,0,1.76-.83l1.15,1.35a3.88,3.88,0,0,1-3,1.35C145.64,216.14,143.93,214.46,143.93,211.84Zm5.1-.74c-.09-1.16-.6-1.88-1.43-1.88s-1.35.69-1.47,1.88Z"/><path class="cls-3" d="M155.39,210l1.33-2.46H159l-2.43,4.09,2.53,4.31h-2.37l-1.4-2.62-1.41,2.62h-2.32l2.51-4.28-2.42-4.13h2.35Z"/><path class="cls-3" d="M159.58,211.85v-.17a4,4,0,0,1,4-4.3,4,4,0,0,1,3.94,4.28v.17a4,4,0,1,1-7.91,0Zm5.71,0v-.11c0-1.36-.69-2.4-1.76-2.4s-1.76,1-1.76,2.38v.11c0,1.35.71,2.4,1.77,2.4S165.29,213.19,165.29,211.82Z"/><path class="cls-3" d="M168.56,207.54h2.23v1.13a2.57,2.57,0,0,1,2.16-1.29c1.57,0,2.48,1.1,2.48,2.84v5.73H173.2v-5.07c0-1-.44-1.49-1.19-1.49s-1.22.5-1.22,1.49v5.07h-2.23Z"/><path class="cls-3" d="M179.68,214.11l3.23-3.33c1.16-1.19,1.58-1.79,1.58-2.59a1.23,1.23,0,0,0-1.32-1.3c-.77,0-1.3.44-2,1.3l-1.47-1.4a4.27,4.27,0,0,1,3.65-2,3.13,3.13,0,0,1,3.45,3.2v0c0,1.54-.71,2.42-2.34,4l-1.84,1.87h4.19v2h-7.14Z"/><path class="cls-3" d="M191.15,207.54h2.23v1.13a2.57,2.57,0,0,1,2.18-1.29,2.22,2.22,0,0,1,2.07,1.22,3,3,0,0,1,2.38-1.22c1.49,0,2.49,1,2.49,2.82v5.74H200.3v-5.07c0-1-.42-1.49-1.16-1.49s-1.19.52-1.19,1.49v5.07h-2.23v-5.07c0-1-.41-1.49-1.15-1.49s-1.19.52-1.19,1.49v5.07h-2.23Z"/><path class="cls-3" d="M203.68,210.54v-.14c0-3.33,2.07-5.58,5-5.58a4.61,4.61,0,0,1,3.53,1.46L210.82,208a3.06,3.06,0,0,0-2.24-1.1c-1.47,0-2.56,1.37-2.56,3.5v0c0,2.18,1.13,3.51,2.59,3.51a3.09,3.09,0,0,0,2.26-1.14l1.36,1.62a4.77,4.77,0,0,1-3.72,1.65C205.63,216.11,203.68,213.89,203.68,210.54Z"/><path class="cls-3" d="M213.39,205h4.13a4.08,4.08,0,0,1,3,1.05,3.48,3.48,0,0,1,.93,2.54v.06a3.31,3.31,0,0,1-2,3.25l2.34,4.08h-2.6l-2-3.61h-1.43v3.61h-2.27Zm4,5.37a1.58,1.58,0,0,0,1.79-1.65v0c0-1.1-.67-1.65-1.83-1.65h-1.63v3.31Z"/><path class="cls-3" d="M222.44,210.54v-.14c0-3.33,2.07-5.58,5-5.58a4.61,4.61,0,0,1,3.53,1.46L229.57,208a3.06,3.06,0,0,0-2.24-1.1c-1.47,0-2.56,1.37-2.56,3.5v0c0,2.18,1.13,3.51,2.59,3.51a3.09,3.09,0,0,0,2.26-1.14l1.36,1.62a4.77,4.77,0,0,1-3.72,1.65C224.38,216.11,222.44,213.89,222.44,210.54Z"/><rect class="cls-4" x="22.49" y="386.31" width="262.81" height="50.65"/><path class="cls-3" d="M92.9,403.34a6.9,6.9,0,0,1,4.06-6.7l.88,1.46a6.36,6.36,0,0,0,0,10.46L97,410A6.89,6.89,0,0,1,92.9,403.34Z"/><path class="cls-3" d="M98.85,399.43h2.23v1.13a2.57,2.57,0,0,1,2.16-1.29c1.57,0,2.48,1.1,2.48,2.84v5.73H103.5v-5.07c0-1-.44-1.49-1.19-1.49s-1.22.5-1.22,1.49v5.07H98.85Z"/><path class="cls-3" d="M110.19,399.4h7v2.09h-7Zm0,3.75h7v2.09h-7Z"/><path class="cls-3" d="M121.53,406l3.23-3.33c1.16-1.19,1.58-1.79,1.58-2.59a1.23,1.23,0,0,0-1.32-1.3c-.77,0-1.3.44-2,1.3l-1.47-1.4a4.27,4.27,0,0,1,3.65-2,3.13,3.13,0,0,1,3.45,3.2v0c0,1.54-.71,2.42-2.34,4l-1.84,1.87h4.19v2h-7.14Z"/><path class="cls-3" d="M134.35,398.92h-4.55v-2.05h7v1.69l-4.2,9.29h-2.48Z"/><path class="cls-3" d="M137.76,402.46v-.2c0-3.36,1.69-5.58,4.3-5.58s4.27,2.21,4.27,5.57v.2c0,3.36-1.69,5.58-4.3,5.58S137.76,405.82,137.76,402.46Zm6.24,0v-.14c0-2.31-.82-3.54-2-3.54s-1.95,1.21-1.95,3.53v.14c0,2.31.8,3.54,2,3.54S144,404.74,144,402.43Z"/><path class="cls-3" d="M147.15,408.56a6.36,6.36,0,0,0,0-10.46l.88-1.46A7.54,7.54,0,0,1,148,410Z"/><path class="cls-3" d="M156.56,399.43h2.23v1.16a2.66,2.66,0,0,1,2.27-1.32c1.66,0,3.2,1.36,3.2,4.24v.25c0,2.87-1.52,4.24-3.2,4.24a2.73,2.73,0,0,1-2.27-1.24v3.45h-2.23Zm5.47,4.28v-.16c0-1.43-.71-2.34-1.63-2.34s-1.65.91-1.65,2.34v.16c0,1.43.72,2.34,1.65,2.34S162,405.14,162,403.72Z"/><path class="cls-3" d="M164.91,405.44v-.09c0-1.85,1.21-2.68,2.93-2.68a4.54,4.54,0,0,1,1.76.35v-.25c0-1-.58-1.47-1.58-1.47a4.77,4.77,0,0,0-1.93.47l-.61-1.74a6,6,0,0,1,2.87-.67,3,3,0,0,1,3.42,3.4v5.1h-2.18v-.91a2.58,2.58,0,0,1-2.18,1.07A2.4,2.4,0,0,1,164.91,405.44Zm4.72-.36v-.71a3,3,0,0,0-1.24-.27c-.82,0-1.33.41-1.33,1.18v0a1,1,0,0,0,1.08,1.05A1.33,1.33,0,0,0,169.63,405.08Z"/><path class="cls-3" d="M173.43,405.74v-4.42h-.85v-1.88h.85v-2.15h2.23v2.15h1.66v1.88h-1.66v4c0,.49.22.72.69.72a2.16,2.16,0,0,0,1-.24v1.77a3.24,3.24,0,0,1-1.65.44C174.37,408,173.43,407.48,173.43,405.74Z"/><path class="cls-3" d="M178.41,396.52h2.32v2h-2.32Zm0,2.92h2.23v8.41h-2.23Z"/><path class="cls-3" d="M181.83,403.73v-.14c0-2.49,1.55-4.31,3.67-4.31,2.4,0,3.58,2,3.58,4.47,0,.13,0,.39,0,.72h-5a1.8,1.8,0,0,0,1.82,1.69,2.45,2.45,0,0,0,1.76-.83l1.15,1.35a3.88,3.88,0,0,1-3,1.35C183.54,408,181.83,406.35,181.83,403.73Zm5.1-.74c-.09-1.16-.6-1.88-1.43-1.88s-1.35.69-1.47,1.88Z"/><path class="cls-3" d="M190.14,399.43h2.23v1.13a2.57,2.57,0,0,1,2.16-1.29c1.57,0,2.48,1.1,2.48,2.84v5.73h-2.23v-5.07c0-1-.44-1.49-1.19-1.49s-1.22.5-1.22,1.49v5.07h-2.23Z"/><path class="cls-3" d="M198.69,405.74v-4.42h-.85v-1.88h.85v-2.15h2.23v2.15h1.66v1.88h-1.66v4c0,.49.22.72.69.72a2.16,2.16,0,0,0,1-.24v1.77a3.24,3.24,0,0,1-1.65.44C199.63,408,198.69,407.48,198.69,405.74Z"/><path class="cls-3" d="M203,406.84l1-1.57a3.93,3.93,0,0,0,2.24.94c.63,0,.89-.3.89-.64v0c0-.49-.63-.69-1.54-1.08-1.19-.52-2.21-1.11-2.21-2.54v0a2.6,2.6,0,0,1,2.89-2.57,5,5,0,0,1,2.78.91l-.89,1.6a3.82,3.82,0,0,0-1.91-.72c-.53,0-.82.27-.82.6v0c0,.44.63.69,1.52,1.1,1.22.58,2.23,1.19,2.23,2.53v0c0,1.74-1.29,2.62-3,2.62A5.09,5.09,0,0,1,203,406.84Z"/><path class="cls-3" d="M84.35,418.25H86.6l1.15,5,1.3-5h1.9l1.32,5,1.16-5h2.21l-2.26,8.47H91.32l-1.33-5-1.36,5h-2Z"/><path class="cls-3" d="M96.48,415.33H98.8v2H96.48Zm0,2.92h2.23v8.41H96.52Z"/><path class="cls-3" d="M100.58,424.56v-4.42h-.85v-1.88h.85V416.1h2.23v2.15h1.66v1.88h-1.66v4c0,.49.22.72.69.72a2.16,2.16,0,0,0,1-.24v1.77a3.24,3.24,0,0,1-1.65.44C101.52,426.8,100.58,426.3,100.58,424.56Z"/><path class="cls-3" d="M105.54,415.33h2.23v4a2.57,2.57,0,0,1,2.16-1.29c1.57,0,2.48,1.1,2.48,2.84v5.73h-2.23v-5.07c0-1-.44-1.49-1.19-1.49s-1.22.5-1.22,1.49v5.07h-2.23Z"/><path class="cls-3" d="M116.31,415.68h2.4l1.85,7.23,2-7.26h2l2,7.26,1.84-7.23h2.35l-3.14,11h-2.09l-2-7-2,7h-2.07Z"/><path class="cls-3" d="M133.9,417.78h-2.76v-2.1h7.78v2.1h-2.76v8.88H133.9Z"/><path class="cls-3" d="M146.5,423.18h-1.16l-.82,3.48h-2.38l2.68-11H148a4.33,4.33,0,0,1,3.2,1A3.12,3.12,0,0,1,152,419a3.87,3.87,0,0,1-1,2.76,4,4,0,0,1-2,1.19l1.51,3.75h-2.67Zm.67-2.09a2.58,2.58,0,0,0,1.87-.61,1.89,1.89,0,0,0,.5-1.33,1.16,1.16,0,0,0-.36-.93,1.85,1.85,0,0,0-1.36-.39h-1.16l-.75,3.26Z"/><path class="cls-3" d="M157.25,415.6h2.31l1.18,11.06H158.3l-.19-2.46h-3.53l-1.36,2.46h-2.54Zm.63,6.49-.17-3.59-1.79,3.59Z"/><path class="cls-3" d="M161.22,424.81l1.77-1.54a3.34,3.34,0,0,0,2.38,1.44,1,1,0,0,0,1.13-1c0-.46-.3-.83-1.41-1.65-1.29-1-2.09-1.85-2.09-3.07a3.37,3.37,0,0,1,.94-2.37,3.88,3.88,0,0,1,2.76-1.11,4.74,4.74,0,0,1,3.61,1.63l-1.63,1.65a2.83,2.83,0,0,0-2.06-1.18,1,1,0,0,0-1.1,1c0,.47.25.82,1.4,1.63s2.1,1.79,2.1,3.12a3.31,3.31,0,0,1-1,2.42,4,4,0,0,1-2.78,1.07A4.92,4.92,0,0,1,161.22,424.81Z"/><path class="cls-3" d="M171.57,420.33l-1,.09v-.75l1,.1-.1-1.44.1-1.43-1,.09v-.75l1,.1-.13-1.17h.81l-.12,1.17.95-.1V417l-1-.09.1,1.43-.1,1.44,1-.1v.75l-.95-.09.12,1.17h-.81Z"/><path class="cls-3" d="M177.34,418.25h2.23v1.13a2.57,2.57,0,0,1,2.18-1.29,2.22,2.22,0,0,1,2.07,1.22,3,3,0,0,1,2.38-1.22c1.49,0,2.49,1,2.49,2.82v5.74h-2.21v-5.07c0-1-.42-1.49-1.16-1.49s-1.19.52-1.19,1.49v5.07h-2.23v-5.07c0-1-.41-1.49-1.15-1.49s-1.19.52-1.19,1.49v5.07h-2.23Z"/><path class="cls-3" d="M189.87,421.25v-.14c0-3.33,2.07-5.58,5-5.58a4.61,4.61,0,0,1,3.53,1.46L197,418.74a3.07,3.07,0,0,0-2.24-1.1c-1.47,0-2.56,1.37-2.56,3.5v0c0,2.18,1.13,3.51,2.59,3.51a3.09,3.09,0,0,0,2.26-1.14l1.36,1.62a4.77,4.77,0,0,1-3.72,1.65C191.82,426.81,189.87,424.6,189.87,421.25Z"/><path class="cls-3" d="M199.58,415.68h4.13a4.08,4.08,0,0,1,3,1.05,3.48,3.48,0,0,1,.93,2.54v.06a3.31,3.31,0,0,1-2,3.25l2.34,4.08h-2.6l-2-3.61h-1.43v3.61h-2.27Zm4,5.37a1.58,1.58,0,0,0,1.79-1.65v0c0-1.1-.67-1.65-1.83-1.65h-1.63V421Z"/><path class="cls-3" d="M208.62,421.25v-.14c0-3.33,2.07-5.58,5-5.58a4.61,4.61,0,0,1,3.53,1.46l-1.36,1.76a3.06,3.06,0,0,0-2.24-1.1c-1.47,0-2.56,1.37-2.56,3.5v0c0,2.18,1.13,3.51,2.59,3.51a3.09,3.09,0,0,0,2.26-1.14l1.36,1.62a4.77,4.77,0,0,1-3.72,1.65C210.57,426.81,208.62,424.6,208.62,421.25Z"/></g></g></svg>